<?xml version="1.0" encoding="UTF-8" standalone="no"?>
<svg xmlns:xlink="http://www.w3.org/1999/xlink" height="73.6px" width="94.55px" xmlns="http://www.w3.org/2000/svg">
  <g transform="matrix(1.0, 0.0, 0.0, 1.0, 47.3, 36.8)">
    <path d="M47.25 29.8 L21.85 29.8 20.4 36.3 Q20.25 36.9 19.6 36.8 19.0 36.65 19.1 36.0 L20.5 29.8 -47.3 29.8 -47.3 -36.8 47.25 -36.8 47.25 29.8 M20.9 28.05 L21.25 26.5 Q21.35 25.9 22.0 26.0 22.7 26.2 22.5 26.8 L22.25 28.05 45.5 28.05 45.5 -35.05 -45.55 -35.05 -45.55 28.05 20.9 28.05" fill="#000000" fill-rule="evenodd" stroke="none"/>
    <path d="M34.05 11.35 L34.05 10.95 37.1 10.95 37.1 11.35 35.8 11.35 35.8 15.4 35.35 15.4 35.35 11.35 34.05 11.35" fill="#000000" fill-rule="evenodd" stroke="none"/>
    <path d="M41.3 10.95 L41.8 10.95 41.8 15.4 41.3 15.4 41.3 12.0 40.1 14.7 39.65 14.7 38.4 12.0 38.4 15.4 37.95 15.4 37.95 10.95 38.4 10.95 39.9 14.1 41.3 10.95" fill="#000000" fill-rule="evenodd" stroke="none"/>
    <path d="M13.5 -28.6 L19.95 -28.6 20.0 8.05 13.55 8.05 13.5 -28.6" fill="#000000" fill-rule="evenodd" stroke="none"/>
    <path d="M-13.45 -32.5 L-13.45 -28.6 -8.5 -28.6 -8.5 -21.75 -13.25 -21.75 -13.25 1.25 -8.35 1.25 -8.35 8.05 -20.0 8.1 -20.0 -21.7 -22.65 -21.7 -22.65 -28.6 -19.9 -28.6 -19.9 -32.5 -13.45 -32.5" fill="#000000" fill-rule="evenodd" stroke="none"/>
    <path d="M-31.3 -21.75 L-34.8 -21.75 -34.8 -14.05 -25.0 -14.05 -24.95 8.1 -41.65 8.1 -41.65 -3.7 -35.35 -3.7 -35.35 1.25 -31.85 1.25 -31.85 -6.85 -41.6 -6.8 -41.6 -28.55 -25.0 -28.6 -25.0 -17.3 -31.3 -17.3 -31.3 -21.75" fill="#000000" fill-rule="evenodd" stroke="none"/>
    <path d="M24.55 -28.8 L41.75 -28.85 41.8 8.05 31.15 8.05 31.15 24.45 24.55 24.45 24.55 -28.8 M34.7 -22.0 L31.4 -22.0 31.4 1.3 34.75 1.3 34.7 -22.0" fill="#000000" fill-rule="evenodd" stroke="none"/>
    <path d="M-32.4 16.15 L-31.3 16.15 -31.3 13.4 -32.4 13.4 -32.4 16.15 M-28.85 10.95 L-28.85 18.7 -32.35 18.7 -32.35 21.6 -31.35 21.6 -31.35 19.6 -28.85 19.6 -28.85 24.05 -34.8 24.1 -34.8 10.95 -28.85 10.95" fill="#000000" fill-rule="evenodd" stroke="none"/>
    <path d="M-28.05 10.95 L-25.7 10.95 -23.2 17.35 -23.2 10.95 -20.85 10.95 -20.85 24.05 -23.2 24.05 -25.65 17.75 -25.65 24.05 -28.0 24.05 -28.05 10.95" fill="#000000" fill-rule="evenodd" stroke="none"/>
    <path d="M-20.05 10.95 L-14.1 10.95 -14.1 18.7 -17.6 18.7 -17.6 21.6 -16.6 21.6 -16.6 19.55 -14.1 19.55 -14.1 24.05 -20.05 24.05 -20.05 10.95 M-17.6 13.35 L-17.6 16.15 -16.55 16.15 -16.55 13.35 -17.6 13.35" fill="#000000" fill-rule="evenodd" stroke="none"/>
    <path d="M-4.0 24.05 L-6.45 24.05 -6.45 10.95 -0.55 10.95 -0.55 24.05 -2.95 24.05 -2.95 18.7 -4.0 18.7 -4.0 24.05 M-4.0 13.4 L-4.0 16.2 -2.95 16.2 -2.95 13.4 -4.0 13.4" fill="#000000" fill-rule="evenodd" stroke="none"/>
    <path d="M0.3 13.4 L0.25 10.95 6.2 10.9 6.2 13.35 4.5 13.35 4.5 24.05 2.05 24.05 2.05 13.4 0.3 13.4" fill="#000000" fill-rule="evenodd" stroke="none"/>
    <path d="M10.65 13.3 L9.5 13.3 9.5 21.65 10.65 21.65 10.65 13.3 M7.1 24.05 L7.1 10.9 13.1 10.9 13.1 24.05 7.1 24.05" fill="#000000" fill-rule="evenodd" stroke="none"/>
    <path d="M-39.2 21.7 L-38.05 21.7 -38.05 18.8 -39.2 18.8 -39.2 21.7 M-35.65 10.95 L-35.65 15.25 -38.1 15.25 -38.1 13.4 -39.2 13.4 -39.2 16.25 -35.65 16.25 -35.6 18.8 -35.65 18.8 -35.65 24.1 -41.6 24.1 -41.6 10.95 -35.65 10.95" fill="#000000" fill-rule="evenodd" stroke="none"/>
    <path d="M-9.65 16.4 L-9.65 13.3 -10.75 13.3 -10.75 16.4 -9.65 16.4 M-13.15 24.1 L-13.15 10.9 -7.25 10.9 -7.25 18.85 -8.75 18.85 -7.25 24.1 -9.55 24.1 -10.75 20.15 -10.75 24.1 -13.15 24.1" fill="#000000" fill-rule="evenodd" stroke="none"/>
    <path d="M17.7 24.1 L16.45 20.15 16.45 24.1 14.05 24.1 14.05 10.9 19.95 10.9 19.95 18.85 18.45 18.85 20.0 24.1 17.7 24.1 M17.55 16.4 L17.55 13.3 16.45 13.3 16.45 16.4 17.55 16.4" fill="#000000" fill-rule="evenodd" stroke="none"/>
    <path d="M3.3 -21.9 L0.25 -21.9 0.25 7.95 -6.35 7.95 -6.35 -28.55 9.95 -28.55 9.95 -6.65 3.3 -6.65 3.3 -21.9" fill="#000000" fill-rule="evenodd" stroke="none"/>
  </g>
</svg>
