<?xml version="1.0" encoding="UTF-8" standalone="no"?>
<svg xmlns:xlink="http://www.w3.org/1999/xlink" height="64.1px" width="50.3px" xmlns="http://www.w3.org/2000/svg">
  <g transform="matrix(1.0, 0.0, 0.0, 1.0, 25.15, 32.05)">
    <path d="M-2.55 12.5 L-2.9 14.15 -2.65 15.3 -2.4 16.45 -2.35 20.15 -2.4 20.9 -3.25 20.95 -3.6 16.6 -4.05 15.65 -4.4 14.6 -4.45 14.4 -12.35 22.3 Q-6.85 27.25 0.6 27.25 8.75 27.25 14.55 21.45 20.3 15.7 20.3 7.55 20.3 0.15 15.4 -5.45 L9.2 0.75 9.2 1.0 9.2 4.55 Q9.15 7.55 9.25 8.0 L10.2 10.25 10.9 11.0 Q11.6 11.6 11.9 12.6 L12.35 15.9 Q12.5 18.0 12.8 18.45 13.2 18.9 13.3 19.7 L13.45 20.8 13.45 21.25 Q13.6 21.75 13.4 21.95 L12.6 22.0 11.95 19.75 11.35 17.05 10.95 15.55 10.55 14.35 9.15 12.0 7.5 9.1 Q8.4 11.0 8.3 11.5 L7.75 15.55 7.5 19.05 7.0 19.4 Q6.5 19.45 6.45 19.2 L6.45 15.85 Q5.75 13.3 5.8 12.55 5.8 12.2 5.0 10.95 4.15 9.65 4.05 8.8 3.95 8.0 3.05 6.95 L-2.55 12.5 M11.8 -8.65 Q6.7 -12.15 0.6 -12.15 -2.45 -12.15 -5.15 -11.25 L-4.6 -10.9 -1.4 -8.55 0.35 -7.8 Q2.25 -7.05 3.2 -6.85 L4.75 -6.55 5.7 -6.0 6.35 -5.4 -2.95 3.9 -4.05 3.75 -3.9 4.85 -6.2 7.15 -6.85 5.6 -6.95 7.9 -9.4 10.3 -9.35 7.85 -9.9 4.7 -10.05 3.1 -10.55 1.85 -10.7 0.65 -10.75 -0.1 -11.5 -1.05 Q-12.0 -1.95 -11.65 -2.95 -11.15 -4.55 -11.9 -6.55 L-12.25 -7.35 Q-15.45 -4.55 -17.2 -0.75 -19.05 3.2 -19.05 7.55 -19.05 13.7 -15.55 18.7 L9.35 -6.15 9.3 -6.15 11.8 -8.65 M0.6 -16.95 Q5.5 -16.95 10.0 -15.1 14.5 -13.25 17.95 -9.8 21.45 -6.3 23.3 -1.85 25.15 2.65 25.15 7.55 25.15 12.45 23.3 16.95 21.45 21.4 17.95 24.9 14.5 28.35 10.0 30.2 5.5 32.05 0.6 32.05 -4.3 32.05 -8.75 30.2 -13.25 28.35 -16.7 24.9 -20.2 21.4 -22.05 16.95 -23.9 12.45 -23.9 7.55 -23.9 2.65 -22.05 -1.85 -20.2 -6.3 -16.7 -9.8 L-14.8 -11.5 -18.6 -20.3 -20.6 -24.1 -22.3 -24.0 -22.7 -23.85 Q-22.9 -22.9 -23.85 -22.95 -24.7 -22.9 -24.5 -23.9 -24.3 -24.15 -24.35 -24.3 -24.5 -24.75 -23.9 -25.1 L-23.75 -25.65 -23.45 -26.3 -23.6 -26.6 -24.0 -26.85 -24.05 -27.0 -23.9 -27.25 Q-25.15 -28.1 -25.15 -29.0 L-24.55 -29.0 Q-23.8 -28.9 -23.35 -28.45 L-23.1 -28.65 -23.1 -30.2 -23.2 -31.9 -22.85 -31.95 -22.1 -31.85 -22.15 -31.15 -22.1 -30.15 -21.9 -29.8 Q-21.65 -29.5 -21.35 -29.55 L-20.9 -30.55 -20.95 -31.95 -20.65 -32.05 -19.65 -32.0 -20.1 -30.05 -20.0 -28.9 -19.6 -28.45 -19.5 -29.05 -19.0 -29.5 -18.45 -29.85 Q-18.2 -29.7 -18.15 -28.95 -18.15 -28.2 -18.5 -27.95 L-19.0 -27.35 -18.95 -27.2 -14.9 -21.2 -10.25 -14.8 -9.95 -14.55 Q-4.9 -16.95 0.6 -16.95" fill="#000000" fill-rule="evenodd" stroke="none"/>
  </g>
</svg>
