<?xml version="1.0" encoding="UTF-8" standalone="no"?>
<svg xmlns:xlink="http://www.w3.org/1999/xlink" height="20.2px" width="20.15px" xmlns="http://www.w3.org/2000/svg">
  <g transform="matrix(1.0, 0.0, 0.0, 1.0, 10.05, 10.1)">
    <path d="M0.05 6.6 Q-2.7 6.6 -4.6 4.65 -6.55 2.75 -6.55 0.0 -6.55 -2.75 -4.6 -4.65 -2.7 -6.6 0.05 -6.6 2.75 -6.6 4.7 -4.65 6.6 -2.75 6.6 0.0 6.6 2.75 4.7 4.65 2.75 6.6 0.05 6.6 M2.35 -2.9 Q1.15 -2.9 0.3 -2.05 -0.55 -1.2 -0.55 0.0 -0.55 1.2 0.3 2.05 1.15 2.9 2.35 2.9 3.55 2.9 4.4 2.05 5.25 1.2 5.25 0.0 5.25 -1.2 4.4 -2.05 3.55 -2.9 2.35 -2.9" fill="#ffffff" fill-rule="evenodd" stroke="none"/>
    <path d="M-4.6 4.65 Q-2.7 6.6 0.05 6.6 2.75 6.6 4.7 4.65 6.6 2.75 6.6 0.0 6.6 -2.75 4.7 -4.65 2.75 -6.6 0.05 -6.6 -2.7 -6.6 -4.6 -4.65 -6.55 -2.75 -6.55 0.0 -6.55 2.75 -4.6 4.65 M-7.1 7.15 Q-10.05 4.15 -10.05 0.0 -10.05 -4.15 -7.1 -7.15 -4.15 -10.1 0.05 -10.1 4.2 -10.1 7.15 -7.15 10.1 -4.15 10.1 0.0 10.1 4.15 7.15 7.15 4.2 10.1 0.05 10.1 -4.15 10.1 -7.1 7.15" fill="#000000" fill-rule="evenodd" stroke="none"/>
    <path d="M2.35 -2.9 Q3.55 -2.9 4.4 -2.05 5.25 -1.2 5.25 0.0 5.25 1.2 4.4 2.05 3.55 2.9 2.35 2.9 1.15 2.9 0.3 2.05 -0.55 1.2 -0.55 0.0 -0.55 -1.2 0.3 -2.05 1.15 -2.9 2.35 -2.9" fill="#000000" fill-rule="evenodd" stroke="none"/>
  </g>
</svg>
