<?xml version="1.0" encoding="UTF-8" standalone="no"?>
<svg xmlns:xlink="http://www.w3.org/1999/xlink" height="8.85px" width="49.8px" xmlns="http://www.w3.org/2000/svg">
  <g transform="matrix(1.0, 0.0, 0.0, 1.0, 24.9, 4.45)">
    <path d="M12.15 -3.0 L16.1 -3.95 19.75 -4.4 22.0 -4.15 Q23.55 -3.75 24.35 -1.9 25.45 0.65 24.3 2.45 22.95 4.6 18.9 4.35 15.2 4.1 12.05 3.1 L9.6 2.15 Q7.95 1.4 5.4 1.25 L-1.3 1.25 1.95 0.5 7.5 0.15 Q7.7 -0.15 7.3 -0.5 6.55 -1.15 3.75 -1.3 L12.15 -3.0" fill="#000000" fill-rule="evenodd" stroke="none"/>
    <path d="M-10.85 -2.05 Q-7.5 -3.0 -4.55 -2.8 L-2.3 -2.45 Q-5.9 -0.7 -8.75 -1.2 L-10.85 -2.05" fill="#000000" fill-rule="evenodd" stroke="none"/>
    <path d="M-24.9 -0.5 L-22.9 -0.95 -19.0 -0.75 Q-17.15 -0.15 -19.6 -0.1 L-24.9 -0.5" fill="#000000" fill-rule="evenodd" stroke="none"/>
  </g>
</svg>
