<?xml version="1.0" encoding="UTF-8" standalone="no"?>
<svg xmlns:xlink="http://www.w3.org/1999/xlink" height="64.0px" width="146.65px" xmlns="http://www.w3.org/2000/svg">
  <g transform="matrix(1.0, 0.0, 0.0, 1.0, 73.35, 32.0)">
    <path d="M-18.0 2.9 Q-18.35 2.3 -19.4 2.3 L-21.35 2.15 -20.15 -7.3 Q-28.15 -8.05 -38.25 -7.4 L-38.7 -7.3 Q-39.1 -7.1 -39.0 -6.6 L-31.15 10.45 -31.05 11.2 Q-31.15 12.15 -31.95 13.0 L-33.0 14.55 -34.1 16.6 -33.95 16.9 Q-33.7 17.05 -33.0 16.5 L-30.0 13.75 Q-26.95 11.0 -26.55 10.95 -26.3 10.15 -26.65 8.55 L-26.7 7.45 Q-26.65 6.35 -26.15 6.35 L-22.95 5.95 Q-22.6 6.0 -22.6 6.45 L-22.65 7.35 Q-22.7 8.3 -22.4 8.5 -21.2 8.4 -20.5 7.4 L-18.1 4.8 -17.7 4.25 Q-17.4 3.55 -18.0 2.9 M-48.8 -14.3 L-55.9 -19.15 -57.35 -19.3 -58.25 -19.0 -71.15 -13.6 Q-72.25 -13.3 -71.9 -12.85 L-71.35 -12.45 Q-67.3 -11.3 -50.5 -1.4 -49.1 -1.15 -47.75 0.35 L-46.0 6.55 Q-45.3 6.8 -45.65 7.6 -45.8 8.55 -51.4 17.4 -52.0 17.95 -52.25 19.0 -52.0 20.1 -51.25 19.6 L-50.6 18.9 Q-47.15 17.65 -37.7 11.2 L-34.15 11.75 -34.25 12.8 Q-34.45 13.8 -33.3 13.35 L-32.3 12.35 Q-31.9 11.9 -31.8 11.35 L-31.8 10.85 Q-32.25 9.5 -36.25 1.15 L-40.15 -6.9 Q-41.45 -9.0 -48.8 -14.3 M49.55 -12.4 Q49.0 -12.25 49.1 -11.9 L55.45 0.8 Q57.2 4.15 56.5 4.95 L54.3 6.55 54.05 6.9 Q53.95 7.25 54.75 7.4 L56.15 7.2 Q57.85 6.75 59.35 5.55 L61.8 4.0 62.35 1.35 63.0 1.15 64.1 0.9 64.85 1.0 Q65.6 1.15 65.7 1.5 L65.85 2.25 Q65.9 3.15 65.25 4.0 64.3 5.3 64.45 6.65 64.75 7.0 65.45 6.45 L71.15 -0.7 Q70.9 -1.25 69.75 -1.15 L66.4 -1.15 Q66.05 -1.85 66.65 -2.55 67.3 -3.25 71.35 -10.75 71.6 -11.55 70.3 -11.65 L50.15 -12.45 49.55 -12.4 M23.75 -15.0 L23.55 -15.25 22.45 -15.1 Q11.55 -11.05 8.85 -10.85 L8.6 -10.4 Q8.3 -9.9 8.3 -9.6 L3.45 3.8 -1.15 3.9 Q-1.4 3.2 -0.7 2.2 4.85 -8.65 4.75 -9.8 L-0.85 -8.45 Q-6.6 -7.0 -7.25 -6.55 -10.7 2.65 -10.7 3.45 L-10.55 4.25 -9.95 5.65 -5.2 13.05 Q-0.2 21.05 1.15 24.05 L1.35 24.3 2.1 24.4 Q2.85 24.2 2.2 23.3 L-0.2 15.9 Q-2.75 8.35 -3.25 7.7 L-3.2 7.2 Q-3.05 6.7 -2.55 6.65 L2.2 6.45 2.65 6.5 Q3.15 6.7 3.2 7.25 L3.95 9.25 5.15 11.85 7.7 17.05 Q7.95 17.95 8.55 17.4 8.75 16.7 8.55 15.7 L7.15 11.55 16.95 -3.9 20.3 -9.2 23.75 -15.0 M30.05 -15.9 Q29.45 -15.85 29.2 -15.5 L29.05 -15.2 33.8 2.05 Q33.3 3.0 25.7 6.55 L23.05 3.95 20.85 2.05 Q19.85 1.5 19.9 0.5 L20.15 -0.35 Q20.3 -1.35 23.3 -7.95 L26.3 -14.4 26.3 -15.0 26.15 -15.2 24.9 -15.2 Q24.75 -14.55 17.0 -2.6 L9.3 9.2 Q8.85 9.65 8.3 10.8 7.8 12.1 9.45 15.15 L11.15 17.95 Q12.3 19.5 14.65 25.15 14.7 26.05 15.5 26.15 L16.25 26.05 33.9 25.35 Q35.15 25.6 35.95 24.2 35.95 23.0 44.95 13.8 L53.95 4.85 Q54.8 4.15 54.65 3.25 L45.05 -17.4 44.6 -18.35 44.4 -18.6 41.95 -18.35 38.4 -17.65 Q37.0 -17.1 30.05 -15.9 M29.15 -28.25 Q30.4 -29.0 32.7 -29.95 35.8 -31.25 37.9 -31.7 L48.65 -32.0 Q59.75 -32.1 61.55 -31.0 L61.7 -28.2 Q61.95 -25.35 62.15 -24.9 61.55 -23.75 60.85 -23.5 L57.0 -20.4 Q53.1 -17.2 52.8 -16.4 51.85 -15.6 51.15 -15.6 L49.7 -15.15 Q48.2 -14.55 48.05 -14.1 L48.3 -13.4 57.75 -13.3 69.75 -12.45 72.5 -12.35 72.65 -11.95 72.75 -10.95 73.3 -5.9 Q73.3 -5.3 72.4 -5.3 L71.6 -4.05 Q71.05 -2.8 71.1 -2.2 71.1 -1.85 71.55 -1.6 71.95 -1.35 71.95 -0.8 L71.95 3.45 70.1 4.4 68.4 7.2 65.0 11.75 63.85 6.45 Q64.4 4.85 64.0 4.5 L63.35 4.4 Q62.7 4.35 62.5 4.85 L62.1 9.1 Q55.35 13.45 54.3 13.5 53.7 12.9 53.85 12.3 L53.6 11.8 53.0 11.75 45.55 18.95 Q37.75 26.95 36.05 31.2 34.8 32.05 33.55 31.7 16.7 32.4 15.0 31.35 10.25 24.75 9.45 23.05 L5.85 23.25 Q4.6 21.45 3.35 18.2 1.6 12.8 0.25 12.3 L-0.1 12.3 Q-0.45 12.4 -0.45 12.7 3.0 23.5 3.55 24.55 L3.75 26.65 Q3.6 28.65 2.15 28.2 L-0.25 27.8 Q-0.9 27.9 -1.85 26.25 L-4.7 23.05 Q-7.65 19.8 -8.3 19.6 L-8.55 19.8 -8.85 20.3 -11.1 22.35 Q-11.85 22.0 -12.35 19.25 L-14.1 14.25 Q-16.1 9.2 -17.3 9.0 L-17.55 9.25 -18.0 9.9 -19.55 12.75 Q-21.1 15.15 -22.0 14.85 -22.85 14.55 -23.0 13.5 L-22.95 12.45 Q-23.05 10.5 -24.1 10.45 -24.75 10.4 -24.95 10.95 L-25.05 11.55 -25.05 14.2 -25.4 14.9 -26.85 16.45 -33.65 22.6 Q-33.95 22.95 -34.25 22.85 -34.85 22.7 -34.95 20.65 -34.9 19.9 -35.1 19.1 -35.4 17.5 -36.45 17.3 L-37.35 17.15 -52.0 26.75 Q-52.35 26.25 -52.25 24.4 -52.2 23.2 -52.65 20.05 L-53.05 17.15 -52.85 16.65 -52.1 15.8 Q-47.3 10.0 -46.9 8.05 -47.05 7.5 -47.7 7.4 L-48.55 6.45 -58.55 0.05 Q-69.2 -6.55 -72.75 -7.65 L-73.15 -8.25 Q-73.5 -9.1 -73.2 -10.4 L-73.35 -12.7 -73.1 -13.45 Q-72.75 -14.25 -71.95 -14.3 L-57.5 -20.5 -56.8 -20.55 Q-56.05 -20.5 -55.55 -20.05 L-49.45 -15.85 Q-42.9 -11.2 -40.35 -8.65 L-33.15 -8.8 -24.8 -8.8 -17.0 -11.6 -8.4 -14.45 9.1 -20.3 13.55 -22.4 Q18.1 -24.5 18.9 -24.55 20.15 -24.65 23.3 -25.8 28.1 -27.65 29.15 -28.25 M41.7 -31.0 L40.35 -30.75 39.75 -30.55 Q38.5 -29.75 33.4 -27.8 L26.75 -25.6 Q25.7 -25.55 22.0 -23.95 L14.5 -20.9 Q11.55 -19.15 0.35 -15.95 L-5.1 -14.85 Q-7.75 -12.95 -9.8 -12.9 -11.1 -12.85 -16.5 -10.85 L-21.7 -8.9 -19.0 -8.75 -19.0 -8.1 -19.7 -3.6 Q-20.05 -2.65 -19.85 -1.85 -16.7 1.35 -13.35 10.2 -11.65 14.65 -10.6 18.45 -8.85 17.65 -8.9 16.95 -8.8 16.5 -9.9 11.05 -11.0 5.6 -11.3 4.95 L-11.5 3.45 -11.45 2.5 -7.95 -7.05 Q-7.65 -7.6 -6.5 -7.85 L-5.4 -7.95 4.7 -10.95 Q6.45 -10.7 15.55 -13.4 17.5 -14.35 21.5 -15.5 L25.1 -16.5 Q29.6 -16.5 39.3 -18.85 L48.05 -21.2 Q50.35 -21.8 59.7 -30.55 59.85 -30.9 58.75 -31.0 L41.7 -31.0" fill="#000000" fill-rule="evenodd" stroke="none"/>
    <path d="M-35.75 8.3 L-37.8 3.7 Q-39.95 -0.95 -40.35 -1.15 L-40.85 -1.3 Q-41.4 -1.35 -41.4 -0.95 L-39.9 3.35 Q-38.45 7.9 -38.65 9.2 L-35.85 9.3 Q-35.4 8.85 -35.75 8.3 M-57.35 -19.3 L-55.9 -19.15 -48.8 -14.3 Q-41.45 -9.0 -40.15 -6.9 L-36.25 1.15 Q-32.25 9.5 -31.8 10.85 L-31.8 11.35 Q-31.9 11.9 -32.3 12.35 L-33.3 13.35 Q-34.45 13.8 -34.25 12.8 L-34.15 11.75 -37.7 11.2 Q-47.15 17.65 -50.6 18.9 L-51.25 19.6 Q-52.0 20.1 -52.25 19.0 -52.0 17.95 -51.4 17.4 -45.8 8.55 -45.65 7.6 -45.3 6.8 -46.0 6.55 L-47.75 0.35 Q-49.1 -1.15 -50.5 -1.4 -67.3 -11.3 -71.35 -12.45 L-71.9 -12.85 Q-72.25 -13.3 -71.15 -13.6 L-58.25 -19.0 -57.35 -19.3" fill="#ffffff" fill-rule="evenodd" stroke="none"/>
    <path d="M-19.4 2.3 Q-18.35 2.3 -18.0 2.9 -17.4 3.55 -17.7 4.25 L-18.1 4.8 -20.5 7.4 Q-21.2 8.4 -22.4 8.5 -22.7 8.3 -22.65 7.35 L-22.6 6.45 Q-22.6 6.0 -22.95 5.95 L-26.15 6.35 Q-26.65 6.35 -26.7 7.45 L-26.65 8.55 Q-26.3 10.15 -26.55 10.95 -26.95 11.0 -30.0 13.75 L-33.0 16.5 Q-33.7 17.05 -33.95 16.9 L-34.1 16.6 -33.0 14.55 -31.95 13.0 Q-31.15 12.15 -31.05 11.2 L-31.15 10.45 -39.0 -6.6 Q-39.1 -7.1 -38.7 -7.3 L-38.25 -7.4 Q-28.15 -8.05 -20.15 -7.3 L-21.35 2.15 -19.4 2.3 M-25.8 1.7 L-25.6 1.35 Q-25.3 1.0 -25.0 1.05 L-24.2 0.95 Q-23.85 0.7 -23.75 -0.25 L-23.7 -1.4 -23.85 -1.5 -28.5 -1.4 -27.95 0.2 -27.1 2.05 Q-26.65 2.3 -25.8 1.7" fill="#ffffff" fill-rule="evenodd" stroke="none"/>
    <path d="M33.4 -27.8 Q38.5 -29.75 39.75 -30.55 L40.35 -30.75 41.7 -31.0 58.75 -31.0 Q59.85 -30.9 59.7 -30.55 50.35 -21.8 48.05 -21.2 L39.3 -18.85 Q29.6 -16.5 25.1 -16.5 L21.5 -15.5 Q17.5 -14.35 15.55 -13.4 6.45 -10.7 4.7 -10.95 L-5.4 -7.95 -6.5 -7.85 Q-7.65 -7.6 -7.95 -7.05 L-11.45 2.5 -11.5 3.45 -11.3 4.95 Q-11.0 5.6 -9.9 11.05 -8.8 16.5 -8.9 16.95 -8.85 17.65 -10.6 18.45 -11.65 14.65 -13.35 10.2 -16.7 1.35 -19.85 -1.85 -20.05 -2.65 -19.7 -3.6 L-19.0 -8.1 -19.0 -8.75 -21.7 -8.9 -16.5 -10.85 Q-11.1 -12.85 -9.8 -12.9 -7.75 -12.95 -5.1 -14.85 L0.35 -15.95 Q11.55 -19.15 14.5 -20.9 L22.0 -23.95 Q25.7 -25.55 26.75 -25.6 L33.4 -27.8" fill="#ffffff" fill-rule="evenodd" stroke="none"/>
    <path d="M8.3 -9.6 Q8.3 -9.9 8.6 -10.4 L8.85 -10.85 Q11.55 -11.05 22.45 -15.1 L23.75 -15.0 20.3 -9.2 16.95 -3.9 7.15 11.55 8.55 15.7 Q8.75 16.7 8.55 17.4 7.95 17.95 7.7 17.05 L5.15 11.85 3.95 9.25 3.2 7.25 Q3.15 6.7 2.65 6.5 L2.2 6.45 -2.55 6.65 Q-3.05 6.7 -3.2 7.2 L-3.25 7.7 Q-2.75 8.35 -0.2 15.9 L2.2 23.3 Q2.85 24.2 2.1 24.4 L1.35 24.3 1.15 24.05 Q-0.2 21.05 -5.2 13.05 L-9.95 5.65 -10.55 4.25 -10.7 3.45 Q-10.7 2.65 -7.25 -6.55 -6.6 -7.0 -0.85 -8.45 L4.75 -9.8 Q4.85 -8.65 -0.7 2.2 -1.4 3.2 -1.15 3.9 L3.45 3.8 8.3 -9.6" fill="#ffffff" fill-rule="evenodd" stroke="none"/>
    <path d="M38.4 -17.65 L41.95 -18.35 44.4 -18.6 44.6 -18.35 45.05 -17.4 54.65 3.25 Q54.8 4.15 53.95 4.85 L44.95 13.8 Q35.95 23.0 35.95 24.2 35.15 25.6 33.9 25.35 L16.25 26.05 15.5 26.15 Q14.7 26.05 14.65 25.15 12.3 19.5 11.15 17.95 L9.45 15.15 Q7.8 12.1 8.3 10.8 8.85 9.65 9.3 9.2 L17.0 -2.6 Q24.75 -14.55 24.9 -15.2 L26.15 -15.2 26.3 -15.0 26.3 -14.4 23.3 -7.95 Q20.3 -1.35 20.15 -0.35 L19.9 0.5 Q19.85 1.5 20.85 2.05 L23.05 3.95 25.7 6.55 Q33.3 3.0 33.8 2.05 L29.05 -15.2 29.2 -15.5 Q29.45 -15.85 30.05 -15.9 37.0 -17.1 38.4 -17.65" fill="#ffffff" fill-rule="evenodd" stroke="none"/>
    <path d="M59.25 -5.45 L60.3 -4.25 61.45 -2.55 62.8 -2.75 64.65 -2.75 Q65.5 -2.4 65.5 -3.5 L65.35 -5.4 Q65.45 -5.9 64.45 -5.65 L59.25 -5.45 M49.1 -11.9 Q49.0 -12.25 49.55 -12.4 L50.15 -12.45 70.3 -11.65 Q71.6 -11.55 71.35 -10.75 67.3 -3.25 66.65 -2.55 66.05 -1.85 66.4 -1.15 L69.75 -1.15 Q70.9 -1.25 71.15 -0.7 L65.45 6.45 Q64.75 7.0 64.45 6.65 64.3 5.3 65.25 4.0 65.9 3.15 65.85 2.25 L65.7 1.5 Q65.6 1.15 64.85 1.0 L64.1 0.9 63.0 1.15 62.35 1.35 61.8 4.0 59.35 5.55 Q57.85 6.75 56.15 7.2 L54.75 7.4 Q53.95 7.25 54.05 6.9 L54.3 6.55 56.5 4.95 Q57.2 4.15 55.45 0.8 L49.1 -11.9" fill="#ffffff" fill-rule="evenodd" stroke="none"/>
    <path d="M-40.35 -1.15 Q-39.95 -0.95 -37.8 3.7 L-35.75 8.3 Q-35.4 8.85 -35.85 9.3 L-38.65 9.2 Q-38.45 7.9 -39.9 3.35 L-41.4 -0.95 Q-41.4 -1.35 -40.85 -1.3 L-40.35 -1.15" fill="#000000" fill-rule="evenodd" stroke="none"/>
    <path d="M-23.85 -1.5 L-23.7 -1.4 -23.75 -0.25 Q-23.85 0.7 -24.2 0.95 L-25.0 1.05 Q-25.3 1.0 -25.6 1.35 L-25.8 1.7 Q-26.65 2.3 -27.1 2.05 L-27.95 0.2 -28.5 -1.4 -23.85 -1.5" fill="#000000" fill-rule="evenodd" stroke="none"/>
    <path d="M62.8 -2.75 L61.45 -2.55 60.3 -4.25 59.25 -5.45 64.45 -5.65 Q65.45 -5.9 65.35 -5.4 L65.5 -3.5 Q65.5 -2.4 64.65 -2.75 L62.8 -2.75" fill="#000000" fill-rule="evenodd" stroke="none"/>
  </g>
</svg>
