<?xml version="1.0" encoding="UTF-8" standalone="no"?>
<svg xmlns:xlink="http://www.w3.org/1999/xlink" height="45.0px" width="46.9px" xmlns="http://www.w3.org/2000/svg">
  <g transform="matrix(1.0, 0.0, 0.0, 1.0, 23.45, 22.5)">
    <path d="M17.7 -9.0 L23.15 0.35 23.45 1.55 Q23.6 3.05 22.8 4.4 L15.75 16.4 Q15.2 16.8 14.75 16.8 L8.8 16.8 8.8 22.5 1.9 12.25 8.8 0.75 8.8 6.45 14.7 6.45 8.55 -3.3 17.7 -9.0" fill="#000000" fill-rule="evenodd" stroke="none"/>
    <path d="M-22.0 2.5 L-22.0 2.15 -21.8 1.45 -18.65 -3.6 -23.45 -6.65 -11.1 -7.0 -5.05 4.95 Q-7.45 3.45 -9.9 1.9 L-13.05 6.9 -1.5 6.9 -1.55 17.65 -12.35 17.35 -13.5 16.95 Q-14.85 16.3 -15.6 14.9 L-22.0 2.5" fill="#000000" fill-rule="evenodd" stroke="none"/>
    <path d="M9.6 -21.9 L12.65 -16.75 17.55 -19.65 12.25 -8.5 -1.1 -8.55 3.75 -11.45 0.75 -16.55 -4.5 -6.3 -14.05 -11.2 -8.85 -20.7 -8.0 -21.55 Q-6.8 -22.45 -5.2 -22.45 L8.75 -22.5 9.1 -22.35 9.6 -21.9" fill="#000000" fill-rule="evenodd" stroke="none"/>
  </g>
</svg>
