<?xml version="1.0" encoding="UTF-8" standalone="no"?>
<svg xmlns:xlink="http://www.w3.org/1999/xlink" height="70.65px" width="84.05px" xmlns="http://www.w3.org/2000/svg">
  <g transform="matrix(1.0, 0.0, 0.0, 1.0, 42.05, 35.3)">
    <path d="M20.75 -2.15 L17.35 -4.45 16.85 2.35 17.85 -3.75 20.75 -2.15 M24.45 -5.4 L21.8 -1.55 22.2 -1.3 24.7 -4.65 24.9 4.9 25.25 -1.1 Q25.25 -3.95 24.45 -5.4 M19.85 -16.1 L18.85 -16.1 22.0 -13.95 19.85 -16.1 M-9.95 -20.7 L-2.1 -32.5 14.1 -21.5 33.95 -25.75 28.8 -16.1 24.75 -16.1 22.8 -13.2 22.4 -13.6 22.35 -13.55 22.3 -13.6 18.5 -16.1 12.8 -16.1 12.8 6.85 16.15 6.85 16.6 3.9 Q16.95 -2.55 17.2 -4.55 L17.2 -4.7 17.3 -4.65 19.55 -3.25 21.65 -1.65 24.4 -5.6 24.5 -5.7 24.55 -5.6 Q25.4 -4.1 25.4 -1.1 L25.2 2.75 25.0 6.25 25.0 6.7 24.9 6.7 24.9 6.85 29.85 6.85 29.85 -4.35 33.05 -0.4 37.95 5.8 39.4 7.7 37.35 8.35 Q34.35 9.4 29.2 11.4 L24.0 13.45 23.65 29.0 5.35 21.95 -3.8 31.85 -10.55 18.7 -32.4 21.55 -22.95 6.9 -6.15 6.9 -6.15 1.0 -5.4 1.0 -5.4 7.05 -0.55 7.05 -0.6 -1.0 -0.65 -1.1 -0.55 -1.1 7.0 -1.45 7.05 -1.45 7.1 -1.35 7.2 0.8 7.15 2.85 7.05 -0.7 7.0 -0.7 6.9 -1.25 -0.45 -0.95 -0.35 7.05 -0.05 7.05 -0.05 8.7 7.3 8.7 7.25 7.05 11.7 7.05 11.7 -15.9 -5.4 -15.9 -5.4 -4.8 -6.15 -5.2 -6.15 -5.4 -6.4 -5.35 -6.6 -5.45 -6.15 -5.6 -6.15 -6.6 -8.95 -4.65 -8.05 -4.1 -8.15 -3.95 -9.15 -4.55 -9.25 -4.65 -9.15 -4.7 -6.15 -6.8 -6.15 -16.0 -23.25 -16.0 -23.25 5.8 -38.05 -1.05 -25.55 -9.8 -30.25 -27.35 -9.95 -20.7" fill="#000000" fill-rule="evenodd" stroke="none"/>
    <path d="M-12.3 1.0 L-12.45 0.2 -12.45 -0.45 Q-14.35 -2.5 -16.1 -2.35 L-16.5 -2.4 -16.55 -2.25 -16.5 -2.25 -17.3 -1.8 -17.1 -2.55 -17.3 -2.6 Q-18.0 -0.1 -18.0 2.45 L-17.95 3.45 -17.9 3.5 -17.85 3.5 -17.85 3.85 -15.55 4.6 -14.65 3.7 Q-13.55 3.4 -12.9 2.65 -12.3 1.9 -12.3 1.0 M-27.85 -10.65 L-33.15 -30.4 -10.8 -23.1 -2.65 -35.3 14.5 -23.6 37.7 -28.6 29.85 -13.85 29.85 -7.5 Q39.9 4.65 41.7 7.55 L41.85 7.85 42.0 8.4 41.8 9.05 Q41.55 9.45 41.0 9.45 L40.8 9.45 37.95 10.25 25.95 14.8 25.6 31.9 5.9 24.3 -4.25 35.35 -11.65 20.85 -36.4 24.05 -25.4 7.0 -42.05 -0.7 -27.85 -10.65 M-30.25 -27.35 L-25.55 -9.8 -38.05 -1.05 -23.25 5.8 -23.25 -16.0 -6.15 -16.0 -6.15 -6.8 -9.15 -4.7 -9.25 -4.65 -9.15 -4.55 -8.15 -3.95 -8.3 -3.75 -8.0 -3.45 -8.05 -3.05 -7.55 -2.85 Q-6.15 -1.0 -6.15 1.0 L-6.15 6.9 -22.95 6.9 -32.4 21.55 -10.55 18.7 -3.8 31.85 5.35 21.95 23.65 29.0 24.0 13.45 29.2 11.4 Q34.35 9.4 37.35 8.35 L39.4 7.7 37.95 5.8 33.05 -0.4 29.85 -4.35 29.85 6.85 24.9 6.85 24.9 6.7 25.0 6.7 25.0 6.25 25.2 2.75 25.4 -1.1 Q25.4 -4.1 24.55 -5.6 L24.5 -5.7 24.4 -5.6 21.65 -1.65 19.55 -3.25 17.3 -4.65 17.2 -4.7 17.2 -4.55 Q16.95 -2.55 16.6 3.9 L16.15 6.85 12.8 6.85 12.8 -16.1 18.5 -16.1 22.3 -13.6 22.35 -13.55 22.4 -13.6 22.8 -13.2 24.75 -16.1 28.8 -16.1 33.95 -25.75 14.1 -21.5 -2.1 -32.5 -9.95 -20.7 -30.25 -27.35 M-13.85 -11.45 Q-14.6 -11.95 -16.05 -11.9 L-17.4 -11.75 -17.85 -8.65 -17.9 -8.65 -17.8 -12.05 -17.95 -12.05 -18.05 -8.6 -18.1 -8.5 -18.0 -8.5 -17.9 -8.45 -18.0 -7.7 -15.1 -7.75 -14.1 -8.75 Q-12.95 -9.35 -12.95 -10.35 -12.95 -11.15 -13.85 -11.45" fill="#ffffff" fill-rule="evenodd" stroke="none"/>
    <path d="M-6.15 -5.4 L-6.15 -5.2 -6.4 -5.35 -6.15 -5.4" fill="#ffffff" fill-rule="evenodd" stroke="none"/>
    <path d="M-7.7 -3.05 L-7.95 -3.15 -7.9 -3.3 -7.7 -3.05" fill="#ffffff" fill-rule="evenodd" stroke="none"/>
    <path d="M-8.65 -4.5 L-7.3 -5.05 -8.05 -4.1 -8.95 -4.65 -6.15 -6.6 -6.15 -5.6 -6.6 -5.45 -6.9 -5.6 -7.1 -5.3 -8.7 -4.65 -8.65 -4.5" fill="#ffffff" fill-rule="evenodd" stroke="none"/>
    <path d="M-12.6 1.7 Q-13.05 3.0 -14.4 3.45 L-12.6 1.7" fill="#ffffff" fill-rule="evenodd" stroke="none"/>
    <path d="M-17.8 -12.05 L-17.9 -8.65 -17.85 -8.65 -17.9 -8.45 -18.0 -8.5 -18.1 -8.5 -18.05 -8.6 -17.95 -12.05 -17.8 -12.05" fill="#000000" fill-rule="evenodd" stroke="none"/>
    <path d="M-13.45 -11.05 L-13.85 -11.45 Q-12.95 -11.15 -12.95 -10.35 -12.95 -9.35 -14.1 -8.75 L-13.3 -9.55 -13.25 -9.8 -13.1 -10.35 Q-13.1 -10.7 -13.45 -11.05" fill="#000000" fill-rule="evenodd" stroke="none"/>
    <path d="M-12.6 1.7 L-12.45 1.55 -12.45 0.2 -12.3 1.0 Q-12.3 1.9 -12.9 2.65 -13.55 3.4 -14.65 3.7 L-14.4 3.45 Q-13.05 3.0 -12.6 1.7" fill="#000000" fill-rule="evenodd" stroke="none"/>
    <path d="M-17.4 -1.7 L-17.5 -1.0 -17.8 2.45 -17.85 3.5 -17.9 3.5 -17.95 3.45 -18.0 2.45 Q-18.0 -0.1 -17.3 -2.6 L-17.1 -2.55 -17.3 -1.8 -17.4 -1.7" fill="#000000" fill-rule="evenodd" stroke="none"/>
    <path d="M-7.95 -3.15 L-7.7 -3.05 -7.55 -2.85 -8.05 -3.05 -8.0 -3.45 -7.9 -3.3 -7.95 -3.15" fill="#000000" fill-rule="evenodd" stroke="none"/>
    <path d="M-8.65 -4.5 L-8.7 -4.65 -7.1 -5.3 -7.3 -5.05 -8.65 -4.5" fill="#000000" fill-rule="evenodd" stroke="none"/>
    <path d="M-18.0 -7.7 L-17.9 -8.45 -17.85 -8.65 -17.4 -11.75 -16.05 -11.9 Q-14.6 -11.95 -13.85 -11.45 L-13.45 -11.05 Q-13.15 -10.65 -13.25 -9.8 L-13.3 -9.55 -15.1 -7.75 -18.0 -7.7" fill="#000000" fill-rule="evenodd" stroke="none"/>
    <path d="M-12.45 -0.45 L-12.45 1.55 -15.55 4.6 -17.85 3.85 -17.85 3.5 -17.4 -1.7 -17.3 -1.8 -16.5 -2.25 -16.1 -2.35 Q-14.35 -2.5 -12.45 -0.45" fill="#000000" fill-rule="evenodd" stroke="none"/>
    <path d="M-7.1 -5.3 L-6.9 -5.6 -5.4 -4.8 -5.4 1.0 -6.15 1.0 Q-6.15 -1.0 -7.55 -2.85 L-8.0 -3.45 -8.3 -3.75 -7.1 -5.3" fill="#000000" fill-rule="evenodd" stroke="none"/>
    <path d="M20.75 -2.15 L17.85 -3.75 16.85 2.35 17.35 -4.45 20.75 -2.15" fill="#ffffff" fill-rule="evenodd" stroke="none"/>
    <path d="M22.2 -1.3 L21.8 -1.55 24.45 -5.4 Q25.25 -3.95 25.25 -1.1 L24.9 4.9 24.7 -4.65 22.2 -1.3" fill="#ffffff" fill-rule="evenodd" stroke="none"/>
    <path d="M18.85 -16.1 L19.8 -16.1 22.0 -13.95 18.85 -16.1" fill="#ffffff" fill-rule="evenodd" stroke="none"/>
    <path d="M22.0 -13.95 L19.8 -16.1" fill="none" stroke="#000000" stroke-linecap="round" stroke-linejoin="round" stroke-width="0.05"/>
    <path d="M19.8 -16.1 L18.4 -17.4" fill="none" stroke="#000000" stroke-linecap="round" stroke-linejoin="round" stroke-width="0.05"/>
    <path d="M-0.6 -1.0 L-0.55 7.05 -5.4 7.05 -5.4 -15.9 11.7 -15.9 11.7 7.05 7.25 7.05 7.35 2.8 7.2 2.8 7.15 3.4 7.2 0.8 7.1 -1.35 7.05 -1.45 7.0 -1.45 -0.55 -1.1 -0.65 -1.1 -0.6 -1.0 M0.2 -10.8 L0.05 -10.85 Q-0.3 -9.8 -0.3 -7.3 L-0.3 -7.25 -0.05 -7.25 -0.05 -6.8 5.4 -6.8 6.1 -7.35 6.4 -7.35 6.4 -7.6 6.85 -7.95 6.15 -9.15 5.65 -10.1 4.6 -11.15 2.05 -11.1 0.8 -10.9 0.85 -10.75 1.45 -10.85 0.15 -10.1 0.2 -10.8" fill="#ffffff" fill-rule="evenodd" stroke="none"/>
    <path d="M-0.35 7.05 L-0.45 -0.95 6.9 -1.25 7.0 -0.7 -0.05 -0.3 -0.05 7.05 -0.35 7.05" fill="#ffffff" fill-rule="evenodd" stroke="none"/>
    <path d="M7.35 2.8 L7.2 5.4 7.15 3.4 7.2 2.8 7.35 2.8" fill="#000000" fill-rule="evenodd" stroke="none"/>
    <path d="M-0.05 8.7 L-0.05 -0.3 7.0 -0.7 7.05 -0.7 7.3 8.7 -0.05 8.7" fill="#000000" fill-rule="evenodd" stroke="none"/>
    <path d="M6.4 -7.35 L6.1 -7.35 6.4 -7.6 6.4 -7.35" fill="#000000" fill-rule="evenodd" stroke="none"/>
    <path d="M0.8 -10.9 L2.05 -11.1 1.45 -10.85 0.85 -10.75 0.8 -10.9" fill="#000000" fill-rule="evenodd" stroke="none"/>
    <path d="M0.05 -10.85 L0.2 -10.8 0.15 -10.1 -0.05 -9.95 -0.05 -7.65 -0.1 -7.65 -0.1 -7.4 -0.05 -7.4 -0.05 -7.25 -0.3 -7.25 -0.3 -7.3 Q-0.3 -9.8 0.05 -10.85" fill="#000000" fill-rule="evenodd" stroke="none"/>
    <path d="M-0.05 -6.8 L-0.05 -9.95 0.15 -10.1 1.45 -10.85 2.05 -11.1 4.6 -11.15 5.65 -10.1 5.75 -9.8 6.85 -7.95 5.4 -6.8 -0.05 -6.8" fill="#000000" fill-rule="evenodd" stroke="none"/>
  </g>
</svg>
