<?xml version="1.0" encoding="UTF-8" standalone="no"?>
<svg xmlns:xlink="http://www.w3.org/1999/xlink" height="73.65px" width="81.0px" xmlns="http://www.w3.org/2000/svg">
  <g transform="matrix(1.0, 0.0, 0.0, 1.0, 40.5, 36.8)">
    <path d="M40.0 36.45 L-39.45 36.45 -39.45 -36.45 40.0 -36.45 40.0 36.45" fill="#ffffff" fill-opacity="0.0" fill-rule="evenodd" stroke="none"/>
    <path d="M-36.0 21.45 L-34.75 21.55 Q-34.05 21.65 -33.7 21.25 L-34.15 18.7 Q-34.7 17.4 -36.25 17.9 -36.65 18.5 -36.45 19.65 L-36.0 21.45 M-24.65 11.3 L-24.35 8.05 Q-26.0 7.3 -28.55 7.0 L-33.1 6.65 -33.3 10.15 -33.35 13.95 -32.45 13.95 Q-31.5 14.45 -30.2 14.35 L-27.75 14.15 Q-27.25 14.8 -26.35 14.45 L-24.85 14.55 -24.65 11.3 M-23.0 -21.7 L-25.4 -22.15 -27.75 -22.65 -27.75 -21.55 Q-27.15 -18.55 -27.5 -15.2 -27.65 -13.65 -28.5 -9.15 L-26.15 -9.0 Q-24.75 -8.95 -23.85 -9.4 -22.75 -16.4 -23.0 -21.7 M-32.15 -29.0 Q-32.25 -27.4 -31.65 -24.8 L-30.3 -24.5 Q-29.5 -24.4 -29.1 -24.8 -28.5 -27.7 -28.5 -29.05 L-30.35 -28.95 -32.15 -29.0 M21.15 28.5 L21.15 30.5 21.8 30.45 22.4 30.35 Q22.2 29.45 22.4 28.65 L21.15 28.5 M28.9 15.15 L28.1 22.2 Q27.5 26.7 27.4 29.25 L30.45 29.35 Q30.15 27.1 30.45 23.25 L30.7 17.2 30.3 15.5 Q29.95 14.75 28.9 15.15 M24.15 7.85 L22.55 7.6 Q22.75 9.7 22.05 13.35 L22.85 13.55 23.6 13.45 Q24.05 12.4 24.05 10.65 L24.15 7.85 M9.6 33.85 Q10.5 33.75 10.45 32.4 10.35 30.7 10.65 30.35 L7.75 29.85 4.8 29.45 4.8 33.0 7.2 33.45 9.6 33.85 M-3.15 18.05 L-2.95 14.1 -6.6 13.55 Q-6.9 14.25 -6.85 15.6 L-6.95 17.6 -3.15 18.05 M-21.35 22.9 Q-21.0 21.9 -20.9 19.85 L-20.6 16.55 -22.25 16.4 Q-23.15 16.25 -23.5 16.85 -23.2 17.95 -23.6 19.75 L-24.1 22.6 -22.7 22.7 -21.35 22.9 M7.65 15.15 L7.65 18.8 15.85 19.6 15.95 17.7 16.15 15.9 15.85 15.75 7.65 15.15 M5.65 18.55 Q5.65 15.75 5.8 14.9 L2.5 14.45 -0.75 13.95 Q-1.3 15.2 -1.3 18.2 L2.1 18.55 Q4.05 18.75 5.65 18.55 M2.9 9.75 L-0.4 9.8 -0.75 12.6 2.55 12.9 Q4.8 12.95 5.95 13.45 6.3 13.0 6.3 11.7 L6.15 9.7 2.9 9.75 M16.9 6.95 L12.7 6.8 5.4 6.1 -1.5 5.45 Q-2.35 5.15 -4.8 5.45 L-4.8 6.8 -5.25 8.3 Q-5.6 9.05 -6.35 9.2 L-9.5 8.95 -12.7 8.95 -13.55 15.45 Q-13.9 19.15 -13.65 22.05 L-8.35 22.3 -3.15 22.8 -3.1 19.75 -5.5 19.65 -7.85 19.55 Q-9.0 19.05 -8.65 17.45 -8.1 15.4 -8.3 14.9 -8.2 14.55 -8.4 13.3 -8.55 12.35 -7.85 11.85 -7.05 11.45 -6.8 12.0 L-4.65 12.25 Q-3.35 12.45 -2.5 12.25 -2.05 9.9 -2.35 8.95 -1.4 7.75 0.2 8.0 L3.1 8.2 4.75 8.35 6.55 8.2 7.3 7.95 Q7.85 7.7 8.1 8.2 L7.85 13.65 10.55 13.8 12.8 13.95 15.1 14.1 16.35 14.15 Q17.2 14.2 17.55 14.55 L17.55 19.4 18.1 19.4 20.9 19.55 Q22.8 19.15 23.6 19.55 L23.6 15.35 21.85 15.25 Q20.7 15.2 20.4 14.55 L20.85 10.95 Q21.2 8.75 21.0 7.4 L16.9 6.95 M9.6 -12.6 L9.65 -12.95 9.15 -17.1 Q8.95 -19.55 9.3 -21.15 L7.35 -21.3 Q6.75 -19.65 7.0 -16.85 L7.2 -12.2 9.6 -12.6 M-13.8 -1.95 L-15.95 -2.15 -16.35 3.2 -12.1 3.0 -8.05 3.6 -7.8 3.65 -7.55 3.75 -6.45 3.6 Q-5.7 3.5 -5.85 2.75 -5.7 2.05 -5.7 0.4 L-5.6 -1.7 -8.7 -2.15 -11.8 -2.35 Q-12.65 -1.9 -13.8 -1.95 M-17.7 -2.25 L-18.95 -2.35 Q-20.75 -1.55 -24.25 -1.9 -28.0 -2.3 -29.45 -1.85 -29.45 -2.75 -29.8 -4.7 L-30.05 -7.45 -32.25 -7.55 Q-33.6 -7.7 -34.45 -7.1 L-34.85 -3.95 -35.15 -0.9 Q-35.85 2.15 -35.95 7.7 -36.1 13.9 -36.5 16.35 L-33.5 16.5 Q-32.5 17.3 -32.35 19.0 L-32.25 21.95 -26.05 22.3 -24.85 15.95 Q-30.75 15.45 -34.45 15.75 L-35.15 15.35 -34.45 9.2 -34.95 6.75 Q-35.05 5.35 -33.95 4.7 L-33.25 4.85 -32.75 5.3 -27.75 5.65 Q-24.65 5.95 -22.75 7.0 L-23.0 10.9 Q-23.0 13.4 -23.5 14.75 L-22.45 14.95 -21.4 15.0 -20.05 15.15 -18.75 15.3 Q-19.2 18.45 -19.1 22.45 -19.1 24.85 -21.2 24.55 L-24.7 24.15 -25.6 27.95 -26.4 31.7 -23.8 32.1 -21.2 32.35 Q-20.75 31.8 -21.1 29.95 -21.4 28.35 -20.1 27.8 -16.0 28.95 -10.0 28.95 L0.05 28.65 Q0.2 27.0 -0.05 21.95 0.75 21.0 2.6 21.05 L5.55 20.95 5.55 20.2 1.95 20.2 -1.35 20.0 Q-1.1 20.8 -1.35 22.05 L-1.6 24.0 Q-2.5 24.8 -4.25 24.55 L-7.2 24.25 -7.6 24.0 Q-7.8 23.8 -7.95 24.15 L-15.25 23.8 -15.6 23.2 Q-15.3 21.65 -15.35 19.4 L-15.45 15.75 Q-14.65 14.25 -14.7 12.05 L-14.65 8.2 -13.65 7.4 Q-12.55 7.3 -10.2 7.35 L-6.6 7.25 -6.6 5.05 -11.55 4.55 -16.35 4.4 Q-16.2 5.05 -16.55 5.45 L-17.55 4.85 -18.3 3.8 Q-17.95 2.7 -17.85 0.9 L-17.7 -2.25 M-4.65 -16.1 L-2.35 -16.15 Q-1.0 -16.15 -0.25 -16.85 -0.1 -17.85 -0.5 -19.0 L-1.3 -21.1 Q-4.7 -21.3 -7.85 -21.1 L-8.3 -15.95 -4.65 -16.1 M-9.65 -13.65 L-9.85 -14.15 Q-12.7 -14.65 -15.85 -13.55 -15.4 -11.65 -15.5 -8.8 L-15.75 -3.8 -10.0 -3.8 -4.2 -3.55 -4.1 0.2 Q-4.0 2.45 -4.4 3.6 L-3.35 3.85 -2.25 3.8 0.15 4.05 2.5 3.95 11.85 5.15 21.0 5.75 21.0 1.8 Q11.4 2.3 5.95 2.0 4.6 1.65 4.95 0.2 L5.4 -2.35 Q6.35 -3.85 5.8 -6.35 5.2 -9.2 5.65 -10.5 -3.75 -10.5 -9.8 -9.3 -10.7 -10.0 -10.15 -11.35 -9.5 -13.05 -9.65 -13.65 M-8.05 -14.3 L-8.25 -12.85 -8.6 -11.45 -6.15 -11.35 -3.1 -11.7 5.65 -11.85 5.5 -16.2 Q5.35 -18.95 5.95 -20.55 L5.65 -21.1 0.45 -21.1 Q1.8 -17.5 0.95 -15.5 -0.9 -14.8 -3.45 -14.6 L-8.05 -14.3 M-1.5 -25.55 L-7.45 -25.4 Q-7.3 -25.0 -7.7 -23.7 -7.9 -22.55 -6.75 -22.65 L-4.6 -22.85 -2.35 -22.65 Q-1.25 -22.55 -1.3 -23.7 L-1.5 -25.55 M5.35 -27.3 Q5.3 -29.25 4.95 -30.25 L-3.25 -30.45 -11.7 -29.95 -12.2 -26.4 Q-12.5 -24.3 -12.2 -22.9 L-9.4 -22.9 -9.15 -25.55 Q-9.1 -27.1 -7.85 -27.35 -6.5 -26.7 -4.15 -26.95 L-0.4 -27.35 Q0.35 -26.8 0.3 -25.3 0.2 -23.4 0.35 -22.9 L2.8 -22.65 5.55 -22.8 5.8 -24.35 Q5.4 -25.45 5.35 -27.3 M27.5 -14.35 L24.35 -14.75 24.05 -14.4 24.05 -6.4 30.25 -6.25 30.75 -10.2 Q31.0 -12.65 30.6 -14.15 L27.5 -14.35 M22.4 -14.75 L19.35 -14.9 16.15 -14.9 Q15.4 -14.85 15.4 -15.6 15.4 -16.4 14.9 -16.45 14.3 -19.25 14.9 -23.95 15.7 -29.75 15.65 -31.5 L15.4 -31.9 13.6 -31.8 11.9 -31.75 Q11.8 -29.9 9.8 -29.95 L6.6 -30.05 Q6.5 -28.85 6.95 -26.5 7.35 -24.25 7.15 -22.9 L9.1 -22.8 11.0 -22.9 Q11.35 -21.9 11.0 -20.15 10.55 -18.1 10.65 -17.2 11.45 -14.2 11.25 -12.2 11.05 -11.05 9.55 -11.0 7.65 -10.95 7.15 -10.5 6.75 -8.8 7.5 -6.15 8.15 -3.65 7.65 -2.15 7.1 -2.2 7.0 -1.4 L6.75 -0.15 7.95 -0.05 Q10.55 0.8 14.5 0.45 L21.0 0.1 22.3 0.2 Q22.85 0.35 22.7 1.2 22.25 2.1 22.35 3.55 L22.7 6.2 24.25 6.4 25.85 6.25 Q26.15 7.45 25.9 9.8 L25.6 13.55 27.25 13.45 Q27.2 10.0 28.35 4.55 L29.85 -4.15 29.1 -4.3 25.65 -4.45 Q23.4 -4.3 22.55 -5.3 L22.55 -10.0 22.4 -14.75 M32.4 -15.7 L32.75 -15.7 Q33.2 -17.05 33.15 -18.75 31.7 -19.0 31.95 -17.75 L32.4 -15.7 M24.65 -31.0 Q22.95 -31.7 20.85 -31.85 L16.95 -31.9 Q17.15 -29.95 16.8 -26.9 L16.35 -22.05 16.25 -19.3 Q16.05 -17.75 16.6 -16.85 L19.45 -16.6 22.2 -16.7 Q23.95 -24.7 24.65 -31.0 M40.5 -29.9 L40.5 -28.25 38.35 -28.45 36.2 -28.7 35.7 -28.4 Q35.75 -27.05 35.2 -24.3 34.7 -21.75 34.85 -20.35 L40.5 -19.85 40.5 -18.25 34.7 -18.65 34.2 -13.85 32.55 -13.85 Q32.7 -10.0 31.8 -5.9 L37.55 -6.5 Q38.55 -12.65 39.1 -14.9 39.3 -16.15 40.5 -16.25 L40.5 -14.25 40.45 -14.3 Q39.85 -12.6 39.45 -9.8 L38.8 -5.3 38.2 -4.55 34.8 -4.3 31.45 -4.15 Q31.25 -1.8 29.8 4.65 28.65 10.0 28.75 13.45 L30.15 13.35 31.5 13.45 Q32.05 15.5 32.1 17.9 L31.95 22.2 Q31.75 23.65 31.85 25.85 L32.05 29.45 Q33.75 29.25 36.25 29.45 L40.5 29.8 40.5 31.4 32.15 31.1 32.45 36.85 30.7 36.85 30.7 33.85 30.3 30.95 28.4 30.9 26.65 31.15 Q25.75 30.55 26.0 29.05 L26.6 26.55 Q26.15 25.75 26.45 24.4 L26.95 22.2 Q26.35 21.0 26.95 18.8 27.55 16.4 27.25 15.3 L26.25 15.2 25.25 15.35 Q25.1 16.1 25.35 18.75 25.5 20.5 24.5 21.35 L22.0 21.15 19.5 21.25 Q16.4 20.95 17.1 22.8 17.35 23.9 17.1 26.3 16.8 29.15 16.85 30.1 L19.15 30.35 Q19.7 29.95 19.6 29.15 L19.5 27.8 Q19.75 26.35 21.25 26.65 L23.55 26.55 Q23.95 27.25 23.9 28.9 23.85 30.6 24.15 31.3 24.2 32.6 23.0 32.5 L21.0 32.35 Q21.3 34.3 20.1 35.8 L15.9 35.5 11.75 35.4 11.55 36.85 9.8 36.85 10.05 35.35 7.35 35.05 4.95 34.95 Q3.55 35.0 2.65 34.45 2.45 33.7 3.1 33.0 3.45 32.4 3.3 30.0 3.1 28.0 4.2 27.5 4.5 27.7 4.75 27.7 L5.35 27.65 8.65 28.3 12.1 28.5 Q12.75 29.45 12.35 31.05 11.9 33.05 12.0 33.7 L15.75 34.05 19.3 33.85 Q19.65 33.35 19.15 32.05 L18.35 32.0 17.55 31.9 16.45 31.85 15.4 31.7 Q15.1 30.05 15.5 26.5 15.9 22.7 15.75 21.35 L11.6 20.9 7.65 20.5 6.9 22.65 1.9 22.8 2.05 27.05 Q2.0 29.45 0.8 30.8 L-9.25 30.5 -19.1 30.1 -18.95 32.35 -18.65 32.35 -17.0 32.65 Q-15.9 32.6 -15.35 33.0 L-15.6 36.85 -17.2 36.85 -16.95 34.95 Q-17.15 34.5 -17.95 34.4 L-19.25 34.2 -19.5 36.85 -21.1 36.85 Q-21.0 35.0 -21.2 33.85 L-22.9 33.7 Q-23.85 33.7 -24.35 33.25 L-24.55 33.5 -28.2 32.9 -26.25 24.0 -29.35 23.7 -32.35 23.4 Q-32.8 23.75 -32.7 24.45 -32.55 25.3 -32.75 25.7 L-33.25 28.15 Q-33.5 29.6 -32.95 30.55 -32.55 30.45 -32.4 30.95 -32.25 31.35 -32.45 31.75 -32.9 32.25 -33.45 32.1 L-34.45 31.7 -40.35 31.4 -40.5 30.1 -35.05 29.95 Q-33.75 26.05 -34.1 23.2 L-36.05 23.15 -38.05 23.2 -37.8 21.35 -38.2 17.7 -40.5 17.45 -40.5 16.5 -38.05 16.1 -37.45 3.8 -36.1 -7.0 -35.5 -8.4 -34.45 -8.95 -32.15 -8.8 -30.9 -8.95 -30.05 -8.95 -29.55 -10.15 -28.7 -16.9 -29.25 -21.55 -29.1 -22.8 -30.2 -23.1 -32.25 -23.25 -32.9 -23.5 -33.2 -24.0 -33.5 -29.0 -34.3 -29.2 -37.0 -29.65 -39.9 -29.95 -39.3 -34.65 -39.55 -36.6 -38.35 -36.6 Q-38.0 -33.5 -38.4 -31.5 L-34.9 -30.7 -33.4 -30.6 Q-32.55 -30.7 -32.75 -31.75 L-32.25 -36.5 -31.55 -36.6 Q-31.35 -33.8 -32.15 -30.55 L-30.2 -30.5 -28.2 -30.8 Q-27.9 -31.75 -27.8 -33.65 -27.7 -35.6 -27.4 -36.6 L-26.4 -36.6 -26.8 -31.0 -25.25 -30.8 Q-24.25 -31.0 -23.75 -30.8 L-22.4 -30.85 -21.05 -30.8 -19.95 -30.75 Q-19.2 -30.65 -18.95 -31.3 -18.65 -33.45 -18.65 -36.5 L-17.55 -36.6 Q-17.4 -35.55 -17.65 -33.05 -17.95 -30.65 -17.7 -29.35 L-18.05 -29.0 -26.8 -29.35 -27.5 -26.85 -28.0 -24.15 -23.2 -23.0 -21.8 -22.9 -21.8 -16.85 Q-21.75 -12.95 -22.4 -10.85 -22.1 -10.15 -22.6 -8.2 -23.55 -7.65 -25.4 -7.7 L-28.5 -7.6 Q-28.9 -6.75 -28.65 -5.55 L-28.1 -3.55 -17.4 -3.95 Q-17.65 -5.55 -17.2 -9.2 -16.85 -12.45 -17.4 -14.3 -16.15 -15.5 -13.65 -15.65 L-9.5 -15.85 Q-9.35 -16.65 -9.35 -18.45 L-9.25 -20.95 -11.3 -21.15 -13.3 -20.95 Q-13.95 -22.05 -14.0 -23.55 L-13.9 -26.3 Q-13.6 -26.8 -13.75 -29.15 -13.9 -31.05 -12.7 -31.6 -2.85 -32.15 3.5 -32.05 4.7 -31.3 5.35 -32.6 6.05 -33.9 6.9 -33.45 L9.3 -33.3 Q10.65 -33.15 10.8 -34.55 L10.95 -36.1 Q11.05 -37.0 12.1 -36.6 L12.5 -36.6 Q12.5 -35.1 12.0 -33.25 L14.2 -33.2 Q15.45 -33.3 15.75 -34.35 L15.4 -36.5 16.6 -36.6 Q16.9 -36.05 16.85 -35.1 L16.75 -33.6 18.6 -33.35 20.6 -33.25 Q20.9 -33.1 24.1 -33.2 26.35 -33.25 26.0 -31.15 25.65 -30.25 25.55 -27.4 25.45 -24.9 24.75 -23.75 25.0 -22.4 24.45 -20.25 23.75 -17.7 23.75 -16.55 L30.7 -15.85 30.5 -18.3 Q30.5 -19.8 31.2 -20.7 L32.3 -20.5 33.35 -20.5 34.55 -29.65 35.15 -30.25 40.5 -29.9" fill="#000000" fill-rule="evenodd" stroke="none"/>
    <path d="M40.5 19.2 L40.5 20.8 37.15 20.95 35.5 21.1 34.1 20.95 34.3 17.65 Q34.45 15.6 34.95 14.3 34.05 12.0 34.55 8.2 35.2 3.4 35.1 2.15 35.7 1.0 37.55 1.2 L40.5 1.45 40.5 3.1 36.5 2.85 Q36.6 4.0 36.3 5.85 L35.8 8.8 Q36.1 11.15 36.0 14.35 L35.7 19.55 40.5 19.2" fill="#000000" fill-rule="evenodd" stroke="none"/>
    <path d="M-13.15 -34.55 L-13.4 -36.15 Q-13.2 -37.15 -11.95 -36.6 L-12.1 -36.35 -10.8 -36.2 -9.5 -36.0 -7.95 -36.5 -6.2 -36.6 -6.35 -35.55 -13.15 -34.55" fill="#000000" fill-rule="evenodd" stroke="none"/>
    <path d="M-40.5 -16.3 L-40.5 -17.45 -38.4 -17.65 -36.4 -18.05 -36.6 -14.65 Q-36.8 -12.75 -37.45 -11.6 L-40.5 -11.85 -40.5 -12.95 -38.65 -13.0 Q-37.55 -12.95 -37.75 -14.15 L-37.65 -15.4 Q-37.5 -16.1 -37.95 -16.55 L-40.5 -16.3" fill="#000000" fill-rule="evenodd" stroke="none"/>
  </g>
</svg>
