<?xml version="1.0" encoding="UTF-8" standalone="no"?>
<svg xmlns:xlink="http://www.w3.org/1999/xlink" height="76.1px" width="70.65px" xmlns="http://www.w3.org/2000/svg">
  <g transform="matrix(1.0, 0.0, 0.0, 1.0, 35.3, 38.05)">
    <path d="M0.25 -34.55 L30.25 -21.0 0.35 -7.55 -29.75 -21.1 0.25 -34.55" fill="#ffffff" fill-rule="evenodd" stroke="none"/>
    <path d="M1.7 -4.25 L2.1 -4.7 32.05 -18.15 32.05 20.05 1.7 33.8 1.7 -4.25" fill="#ffffff" fill-rule="evenodd" stroke="none"/>
    <path d="M-31.95 20.05 L-31.95 -18.45 -1.6 -4.8 -1.6 33.75 -31.95 20.05" fill="#ffffff" fill-rule="evenodd" stroke="none"/>
    <path d="M2.1 -4.7 L1.7 -4.25 1.7 33.8 32.05 20.05 32.05 -18.15 2.1 -4.7 M0.35 -7.55 L30.25 -21.0 0.25 -34.55 -29.75 -21.1 0.35 -7.55 M-31.95 -18.45 L-31.95 20.05 -1.6 33.75 -1.6 -4.8 -31.95 -18.45 M-35.3 -21.4 Q-35.3 -22.3 -34.5 -22.8 L-33.6 -23.05 -0.4 -37.9 Q0.25 -38.2 0.95 -37.9 L34.3 -22.85 Q35.35 -22.4 35.35 -21.4 L35.35 21.15 Q35.35 22.2 34.4 22.65 L0.85 37.85 -0.5 37.9 -34.3 22.65 Q-35.3 22.25 -35.3 21.15 L-35.3 -21.4" fill="#000000" fill-rule="evenodd" stroke="none"/>
  </g>
</svg>
