<?xml version="1.0" encoding="UTF-8" standalone="no"?>
<svg xmlns:xlink="http://www.w3.org/1999/xlink" height="85.15px" width="195.2px" xmlns="http://www.w3.org/2000/svg">
  <g transform="matrix(1.0, 0.0, 0.0, 1.0, 97.6, 42.55)">
    <path d="M-77.3 13.2 Q-79.05 12.9 -80.1 13.75 L-72.85 17.65 -72.35 17.75 -70.95 17.4 Q-70.3 17.0 -70.95 16.7 L-77.3 13.2 M-77.2 -14.1 L-75.45 -13.7 -72.6 -13.55 -85.6 -30.3 -87.45 -30.7 -95.4 -31.65 -90.45 -25.65 Q-84.35 -18.75 -78.5 -14.3 L-77.2 -14.1 M16.65 21.5 Q17.95 21.2 17.05 20.4 L15.1 19.0 8.9 22.3 8.9 22.45 9.3 22.85 9.75 23.2 10.3 23.8 10.6 23.9 11.45 23.6 13.65 22.6 Q16.0 21.55 16.65 21.5 M-36.35 1.35 L-35.75 1.25 -33.65 1.45 Q-31.25 1.75 -29.9 2.2 -32.45 -2.35 -33.8 -4.15 -46.95 -6.65 -50.05 -7.95 L-49.3 -8.15 -54.75 -14.15 -58.9 -14.8 -59.0 -14.7 -58.85 -14.25 -58.2 -13.1 Q-57.5 -11.8 -57.55 -11.1 -61.25 -16.0 -63.5 -18.3 -70.3 -20.5 -73.8 -21.05 L-68.95 -15.55 Q-63.55 -9.6 -60.9 -7.4 L-56.55 -8.75 -57.8 -5.2 -57.8 -4.8 -57.45 -4.1 -50.75 3.9 -45.95 4.3 -51.65 -2.8 -50.85 -2.3 -41.8 0.15 Q-40.9 0.25 -41.45 0.6 L-46.25 2.4 -46.15 2.75 -45.7 3.2 Q-45.3 3.4 -44.15 5.05 L-51.9 4.45 -57.25 6.15 Q-57.2 3.55 -55.9 -0.75 L-57.75 -0.7 Q-59.8 -0.5 -60.7 0.1 -65.55 8.05 -65.9 8.0 L-65.95 7.6 -65.6 6.55 -61.35 -0.55 -61.1 -0.75 -60.45 -0.95 -59.45 -3.5 -57.9 -7.15 Q-58.1 -7.45 -59.1 -6.9 L-61.5 -6.15 -72.5 10.95 -76.35 12.6 -76.5 12.8 -76.3 13.0 -73.1 14.5 Q-69.8 16.15 -69.2 16.6 L-53.65 9.85 -35.6 2.2 Q-35.45 1.9 -36.35 1.6 L-36.35 1.35 M-32.25 -7.1 L-32.3 -7.55 -31.9 -7.6 -30.1 -5.3 Q-29.65 -4.65 -30.15 -4.05 L-31.3 -2.7 -31.35 -2.35 -31.2 -1.5 -28.65 2.85 -34.0 2.35 -47.7 18.55 -47.7 18.95 -47.45 19.8 Q-47.1 20.4 -45.9 25.95 L-45.65 26.05 Q-45.35 26.05 -45.05 25.6 L-43.45 23.7 -40.6 19.95 -42.6 24.05 Q-51.4 35.05 -52.0 35.3 L-47.7 34.85 -41.15 34.65 -33.4 26.4 Q-24.85 17.45 -20.95 13.95 L-14.55 7.9 -12.5 6.4 -12.95 2.1 Q-13.45 2.0 -13.95 2.5 -14.45 3.0 -19.35 5.8 L-15.15 2.45 -8.7 -2.4 Q-8.3 -2.75 -8.25 -4.2 L-7.7 -13.1 Q-15.15 -7.4 -20.7 -4.6 L-20.8 -4.8 -20.25 -5.25 Q-19.4 -5.7 -20.1 -6.45 L-24.95 -13.15 -30.1 -14.1 -30.2 -13.95 -30.15 -13.4 Q-29.65 -12.45 -29.9 -12.15 L-35.95 -24.2 -46.2 -24.95 -46.45 -24.8 Q-46.7 -24.6 -46.5 -24.1 -37.2 -6.45 -37.25 -5.95 L-34.1 -5.35 Q-33.3 -5.05 -32.95 -4.45 L-32.2 -2.85 -31.1 -4.15 Q-30.75 -5.05 -31.25 -5.4 L-32.25 -7.1 M-37.4 -25.4 Q-36.7 -25.4 -37.1 -26.25 L-38.1 -28.3 Q-37.85 -28.85 -39.7 -29.05 L-48.75 -29.95 -47.45 -26.5 -37.4 -25.4 M-25.65 -18.35 Q-25.6 -19.95 -26.85 -20.65 L-28.1 -21.05 -29.4 -20.9 Q-30.8 -20.4 -31.25 -18.5 -31.7 -16.55 -30.1 -15.75 L-28.45 -15.35 -27.1 -15.65 Q-25.75 -16.35 -25.65 -18.35 M-4.1 -40.0 L-11.15 -33.75 -11.3 -33.3 -11.4 -32.0 Q-12.8 -10.5 -13.15 -10.3 L-7.3 -14.55 -6.9 -14.7 Q-6.5 -14.7 -6.6 -13.9 L-7.05 -8.7 Q-7.45 -3.25 -7.3 -1.95 L-9.4 -0.55 -11.9 1.35 -11.95 1.75 -11.9 2.85 -11.55 6.05 Q-11.65 6.9 -12.5 7.45 L-22.7 16.8 Q-22.85 17.1 -22.5 17.2 L-18.0 17.95 -17.55 17.85 -16.75 17.35 -8.8 10.95 -9.9 12.95 6.85 21.7 9.65 20.3 Q12.55 18.9 12.9 18.85 13.65 18.7 13.75 18.15 13.8 17.8 13.3 17.65 L12.85 17.55 Q5.35 11.7 -3.5 7.0 L-5.1 6.05 -6.7 4.65 -6.55 4.5 -5.95 4.5 -5.2 4.95 -4.1 -40.0 M15.0 -22.55 L12.7 -20.2 12.85 -20.0 13.75 -19.85 19.15 -19.55 Q19.6 -19.35 20.0 -20.2 L20.7 -21.2 21.15 -21.6 Q21.2 -21.95 19.8 -22.0 L15.0 -22.55 M57.4 34.25 Q57.65 33.85 56.95 33.05 43.85 14.05 41.05 11.05 39.3 9.2 34.15 1.45 L29.35 -5.95 Q23.25 -9.45 18.65 -11.55 L18.45 -11.4 Q18.25 -11.05 18.4 -10.35 L20.0 -3.2 25.2 0.75 Q25.7 1.6 25.0 1.85 L21.35 4.6 21.25 4.95 21.25 5.8 23.45 13.35 23.55 11.75 23.95 9.8 24.1 10.0 24.25 10.9 24.45 16.95 Q20.4 9.7 19.05 7.8 16.65 6.95 14.35 7.05 17.55 13.7 17.25 14.65 16.8 14.85 16.6 13.45 7.75 8.4 2.55 5.7 L3.35 2.65 3.6 2.55 4.55 2.55 18.9 4.5 19.5 4.45 Q20.2 4.35 20.5 3.9 L21.85 2.9 23.7 1.65 Q24.45 1.4 23.1 0.4 L11.35 -8.4 11.2 -8.8 Q11.15 -9.25 11.6 -9.7 L18.1 -17.9 11.3 -18.7 3.15 -9.4 Q2.7 -8.9 2.3 -9.2 2.05 -9.4 2.25 -9.75 L2.45 -10.05 3.7 -11.5 Q4.0 -13.0 3.8 -13.85 L1.85 -12.6 -0.6 -10.8 -4.1 3.55 Q-4.35 4.85 -4.2 5.2 -3.95 5.75 -3.05 6.0 L6.1 11.65 Q16.0 17.9 19.6 20.95 20.05 21.25 19.05 21.75 L16.85 22.85 Q16.65 22.9 16.55 23.05 16.35 23.35 16.95 23.7 L24.5 27.85 25.1 27.9 26.75 27.4 Q28.15 26.75 33.8 25.2 34.65 24.95 33.9 24.1 L32.75 21.85 31.55 19.3 Q31.55 19.0 31.9 19.4 L32.25 19.8 42.1 31.9 49.1 32.8 57.4 34.25 M47.15 16.95 L48.55 18.9 53.95 18.85 53.5 17.8 53.0 17.2 Q52.8 16.8 51.35 16.9 L47.15 16.95 M57.45 -19.75 L57.25 -19.55 57.05 -18.95 52.35 -12.7 52.5 -12.55 Q52.75 -12.4 52.95 -12.4 L53.85 -12.35 Q54.2 -11.8 53.45 -11.8 L47.85 -11.65 43.2 -7.65 Q38.5 -3.7 38.2 -3.7 37.85 -3.95 38.0 -5.05 38.15 -13.15 37.6 -14.0 L33.6 -10.55 Q32.55 -4.75 31.7 -3.6 L37.45 4.5 Q43.65 13.05 45.85 15.35 L51.45 15.45 Q51.65 14.95 51.05 14.45 L41.05 0.25 41.0 -0.1 41.4 -0.75 48.5 -6.9 Q49.4 -7.3 49.1 -6.75 L44.55 1.7 44.4 2.25 Q44.35 2.8 45.1 2.7 L50.1 1.9 69.2 -20.75 57.45 -19.75 M81.45 -25.2 L97.6 -23.95 69.3 -5.0 65.95 -2.85 63.4 -1.05 59.0 -1.45 55.6 -2.3 48.8 6.25 Q48.2 6.8 48.25 7.2 L48.4 7.5 56.8 19.25 53.2 23.8 Q56.0 28.75 61.65 35.6 L59.15 38.4 57.0 40.95 44.2 38.7 37.05 37.65 Q36.45 37.4 34.7 35.0 L33.1 32.6 Q32.75 33.15 22.4 34.95 L21.5 35.05 21.15 34.9 13.25 30.1 Q12.8 30.5 11.0 31.25 L9.35 31.95 -8.45 21.4 Q-8.8 22.0 -14.65 25.85 L-21.7 24.7 Q-27.2 30.25 -32.25 36.35 L-36.2 41.35 -51.8 42.6 -55.5 37.25 -46.55 26.55 Q-47.2 25.7 -48.1 21.95 L-48.9 18.35 -49.0 17.3 -48.85 16.85 -47.15 14.2 Q-52.15 16.65 -60.75 21.1 L-68.4 25.05 Q-69.4 24.35 -74.15 22.5 L-78.75 20.8 -83.0 14.35 Q-83.35 13.75 -83.1 13.4 L-82.75 13.2 -78.8 11.85 -75.2 10.8 -74.1 10.4 -65.25 -3.85 -67.25 -6.3 -75.15 -6.95 Q-78.85 -11.4 -86.65 -18.4 L-93.75 -24.55 -94.5 -25.5 -95.1 -25.9 -96.45 -30.05 -97.6 -33.2 -88.15 -32.55 -85.1 -32.05 Q-83.7 -29.55 -77.55 -22.5 L-77.55 -23.2 -77.45 -23.6 -63.5 -19.85 Q-61.8 -19.5 -61.7 -19.1 L-60.6 -17.25 -53.5 -15.55 -47.7 -9.0 Q-45.45 -7.85 -42.25 -7.75 -43.0 -10.2 -47.05 -17.25 L-51.0 -23.8 -51.05 -31.3 -50.85 -31.9 -50.6 -32.05 -44.45 -31.3 -38.85 -30.9 Q-37.55 -30.8 -37.55 -30.25 L-32.6 -21.45 -30.65 -22.6 -26.4 -22.85 Q-24.5 -22.05 -23.1 -18.55 L-22.1 -15.2 Q-21.65 -14.45 -21.95 -14.15 L-22.35 -13.0 -19.1 -8.75 Q-18.45 -7.95 -18.0 -8.45 L-14.5 -10.75 -12.7 -33.45 Q-12.75 -33.8 -12.4 -34.35 L-12.05 -34.8 -3.8 -42.3 -2.7 -42.2 -0.6 -36.2 -0.8 -14.05 -0.95 -13.2 -0.85 -12.9 4.7 -16.05 Q5.35 -16.5 5.5 -16.2 L5.65 -15.15 Q6.35 -15.35 14.85 -24.0 L25.45 -22.75 23.9 -15.25 21.2 -12.1 29.85 -8.1 Q32.55 -11.8 36.55 -14.85 L40.0 -17.1 40.2 -7.7 46.1 -12.6 Q46.7 -13.15 47.65 -13.3 L49.6 -13.25 57.45 -21.8 71.55 -22.75 Q72.65 -22.75 72.15 -22.4 L69.0 -17.95 66.3 -13.8 81.45 -25.2 M83.95 -16.45 L93.15 -22.8 91.6 -23.05 81.55 -23.35 72.1 -15.2 61.9 -6.65 64.65 -6.4 Q67.55 -6.2 68.5 -6.35 L69.55 -6.95 70.95 -7.6 Q75.8 -10.7 76.5 -11.45 L83.95 -16.45" fill="#000000" fill-rule="evenodd" stroke="none"/>
    <path d="M11.75 -0.55 L14.55 1.65 4.1 0.3 Q3.65 0.25 3.8 -0.05 L4.05 -0.3 5.9 -1.0 Q7.15 -1.55 7.3 -2.3 L8.05 -3.95 8.7 -5.0 Q9.35 -5.25 9.1 -4.65 L8.8 -3.4 Q8.95 -2.9 11.75 -0.55" fill="#000000" fill-rule="evenodd" stroke="none"/>
    <path d="M-72.6 -13.55 L-75.45 -13.7 -77.2 -14.1 -78.5 -14.3 Q-84.35 -18.75 -90.45 -25.65 L-95.4 -31.65 -87.45 -30.7 -85.6 -30.3 -72.6 -13.55" fill="#ffffff" fill-rule="evenodd" stroke="none"/>
    <path d="M-36.35 1.6 Q-35.45 1.9 -35.6 2.2 L-53.65 9.85 -69.2 16.6 Q-69.8 16.15 -73.1 14.5 L-76.3 13.0 -76.5 12.8 -76.35 12.6 -72.5 10.95 -61.5 -6.15 -59.1 -6.9 Q-58.1 -7.45 -57.9 -7.15 L-59.45 -3.5 -60.45 -0.95 -61.1 -0.75 -61.35 -0.55 -65.6 6.55 -65.95 7.6 -65.9 8.0 Q-65.55 8.05 -60.7 0.1 -59.8 -0.5 -57.75 -0.7 L-55.9 -0.75 Q-57.2 3.55 -57.25 6.15 L-51.9 4.45 -44.15 5.05 Q-45.3 3.4 -45.7 3.2 L-46.15 2.75 -46.25 2.4 -41.45 0.6 Q-40.9 0.25 -41.8 0.15 L-50.85 -2.3 -51.65 -2.8 -45.95 4.3 -50.75 3.9 -57.45 -4.1 -57.8 -4.8 -57.8 -5.2 -56.55 -8.75 -60.9 -7.4 Q-63.55 -9.6 -68.95 -15.55 L-73.8 -21.05 Q-70.3 -20.5 -63.5 -18.3 -61.25 -16.0 -57.55 -11.1 -57.5 -11.8 -58.2 -13.1 L-58.85 -14.25 -59.0 -14.7 -58.9 -14.8 -54.75 -14.15 -49.3 -8.15 -50.05 -7.95 Q-46.95 -6.65 -33.8 -4.15 -32.45 -2.35 -29.9 2.2 -31.25 1.75 -33.65 1.45 L-35.75 1.25 -36.35 1.35 -36.35 1.6" fill="#ffffff" fill-rule="evenodd" stroke="none"/>
    <path d="M-70.95 16.7 Q-70.3 17.0 -70.95 17.4 L-72.35 17.75 -72.85 17.65 -80.1 13.75 Q-79.05 12.9 -77.3 13.2 L-70.95 16.7" fill="#ffffff" fill-rule="evenodd" stroke="none"/>
    <path d="M-37.1 -26.25 Q-36.7 -25.4 -37.4 -25.4 L-47.45 -26.5 -48.75 -29.95 -39.7 -29.05 Q-37.85 -28.85 -38.1 -28.3 L-37.1 -26.25" fill="#ffffff" fill-rule="evenodd" stroke="none"/>
    <path d="M-35.95 -24.2 L-29.9 -12.15 Q-29.65 -12.45 -30.15 -13.4 L-30.2 -13.95 -30.1 -14.1 -24.95 -13.15 -20.1 -6.45 Q-19.4 -5.7 -20.25 -5.25 L-20.8 -4.8 -20.7 -4.6 Q-15.15 -7.4 -7.7 -13.1 L-8.25 -4.2 Q-8.3 -2.75 -8.7 -2.4 L-15.15 2.45 -19.35 5.8 Q-14.45 3.0 -13.95 2.5 -13.45 2.0 -12.95 2.1 L-12.5 6.4 -14.55 7.9 -20.95 13.95 Q-24.85 17.45 -33.4 26.4 L-41.15 34.65 -47.7 34.85 -52.0 35.3 Q-51.4 35.05 -42.6 24.05 L-40.6 19.95 -43.45 23.7 -45.05 25.6 Q-45.35 26.05 -45.65 26.05 L-45.9 25.95 Q-47.1 20.4 -47.45 19.8 L-47.7 18.95 -47.7 18.55 -34.0 2.35 -28.65 2.85 -31.2 -1.5 -31.35 -2.35 -31.3 -2.7 -30.15 -4.05 Q-29.65 -4.65 -30.1 -5.3 L-31.9 -7.6 -32.3 -7.55 -32.25 -7.1 -31.25 -5.4 Q-30.75 -5.05 -31.1 -4.15 L-32.2 -2.85 -32.95 -4.45 Q-33.3 -5.05 -34.1 -5.35 L-37.25 -5.95 Q-37.2 -6.45 -46.5 -24.1 -46.7 -24.6 -46.45 -24.8 L-46.2 -24.95 -35.95 -24.2" fill="#ffffff" fill-rule="evenodd" stroke="none"/>
    <path d="M-28.45 -15.35 L-30.1 -15.75 Q-31.7 -16.55 -31.25 -18.5 -30.8 -20.4 -29.4 -20.9 L-28.1 -21.05 -26.85 -20.65 Q-25.6 -19.95 -25.65 -18.35 -25.75 -16.35 -27.1 -15.65 L-28.45 -15.35" fill="#ffffff" fill-rule="evenodd" stroke="none"/>
    <path d="M-11.15 -33.75 L-4.1 -40.0 -5.2 4.95 -5.95 4.5 -6.55 4.5 -6.7 4.65 -5.1 6.05 -3.5 7.0 Q5.35 11.7 12.85 17.55 L13.3 17.65 Q13.8 17.8 13.75 18.15 13.65 18.7 12.9 18.85 12.55 18.9 9.65 20.3 L6.85 21.7 -9.9 12.95 -8.8 10.95 -16.75 17.35 -17.55 17.85 -18.0 17.95 -22.5 17.2 Q-22.85 17.1 -22.7 16.8 L-12.5 7.45 Q-11.65 6.9 -11.55 6.05 L-11.9 2.85 -11.95 1.75 -11.9 1.35 -9.4 -0.55 -7.3 -1.95 Q-7.45 -3.25 -7.05 -8.7 L-6.6 -13.9 Q-6.5 -14.7 -6.9 -14.7 L-7.3 -14.55 -13.15 -10.3 Q-12.8 -10.5 -11.4 -32.0 L-11.3 -33.3 -11.15 -33.75" fill="#ffffff" fill-rule="evenodd" stroke="none"/>
    <path d="M17.05 20.4 Q17.95 21.2 16.65 21.5 16.0 21.55 13.65 22.6 L11.45 23.6 10.6 23.9 10.3 23.8 9.75 23.2 9.3 22.85 8.9 22.45 8.9 22.3 15.1 19.0 17.05 20.4" fill="#ffffff" fill-rule="evenodd" stroke="none"/>
    <path d="M12.7 -20.2 L15.0 -22.55 19.8 -22.0 Q21.2 -21.95 21.15 -21.6 L20.7 -21.2 20.0 -20.2 Q19.6 -19.35 19.15 -19.55 L13.75 -19.85 12.85 -20.0 12.7 -20.2" fill="#ffffff" fill-rule="evenodd" stroke="none"/>
    <path d="M57.05 -18.95 L57.25 -19.55 57.45 -19.75 69.2 -20.75 50.1 1.9 45.1 2.7 Q44.35 2.8 44.4 2.25 L44.55 1.7 49.1 -6.75 Q49.4 -7.3 48.5 -6.9 L41.4 -0.75 41.0 -0.1 41.05 0.25 51.05 14.45 Q51.65 14.95 51.45 15.45 L45.85 15.35 Q43.65 13.05 37.45 4.5 L31.7 -3.6 Q32.55 -4.75 33.6 -10.55 L37.6 -14.0 Q38.15 -13.15 38.0 -5.05 37.85 -3.95 38.2 -3.7 38.5 -3.7 43.2 -7.65 L47.85 -11.65 53.45 -11.8 Q54.2 -11.8 53.85 -12.35 L52.95 -12.4 Q52.75 -12.4 52.5 -12.55 L52.35 -12.7 57.05 -18.95" fill="#ffffff" fill-rule="evenodd" stroke="none"/>
    <path d="M47.15 16.95 L51.35 16.9 Q52.8 16.8 53.0 17.2 L53.5 17.8 53.95 18.85 48.55 18.9 47.15 16.95" fill="#ffffff" fill-rule="evenodd" stroke="none"/>
    <path d="M81.55 -23.35 L91.6 -23.05 93.15 -22.8 83.95 -16.45 76.5 -11.45 Q75.8 -10.7 70.95 -7.6 L69.55 -6.95 68.5 -6.35 Q67.55 -6.2 64.65 -6.4 L61.9 -6.65 72.1 -15.2 81.55 -23.35" fill="#ffffff" fill-rule="evenodd" stroke="none"/>
    <path d="M14.55 1.65 L11.75 -0.55 Q8.95 -2.9 8.8 -3.4 L9.1 -4.65 Q9.35 -5.25 8.7 -5.0 L8.05 -3.95 7.3 -2.3 Q7.15 -1.55 5.9 -1.0 L4.05 -0.3 3.8 -0.05 Q3.65 0.25 4.1 0.3 L14.55 1.65 M41.05 11.05 Q43.85 14.05 56.95 33.05 57.65 33.85 57.4 34.25 L49.1 32.8 42.1 31.9 32.25 19.8 31.9 19.4 Q31.55 19.0 31.55 19.3 L32.75 21.85 33.9 24.1 Q34.65 24.95 33.8 25.2 28.15 26.75 26.75 27.4 L25.1 27.9 24.5 27.85 16.95 23.7 Q16.35 23.35 16.55 23.05 16.65 22.9 16.85 22.85 L19.05 21.75 Q20.05 21.25 19.6 20.95 16.0 17.9 6.1 11.65 L-3.05 6.0 Q-3.95 5.75 -4.2 5.2 -4.35 4.85 -4.1 3.55 L-0.6 -10.8 1.85 -12.6 3.8 -13.85 Q4.0 -13.0 3.7 -11.5 L2.45 -10.05 2.25 -9.75 Q2.05 -9.4 2.3 -9.2 2.7 -8.9 3.15 -9.4 L11.3 -18.7 18.1 -17.9 11.6 -9.7 Q11.15 -9.25 11.2 -8.8 L11.35 -8.4 23.1 0.4 Q24.45 1.4 23.7 1.65 L21.85 2.9 20.5 3.9 Q20.2 4.35 19.5 4.45 L18.9 4.5 4.55 2.55 3.6 2.55 3.35 2.65 2.55 5.7 Q7.75 8.4 16.6 13.45 16.8 14.85 17.25 14.65 17.55 13.7 14.35 7.05 16.65 6.95 19.05 7.8 20.4 9.7 24.45 16.95 L24.25 10.9 24.1 10.0 23.95 9.8 23.55 11.75 23.45 13.35 21.25 5.8 21.25 4.95 21.35 4.6 25.0 1.85 Q25.7 1.6 25.2 0.75 L20.0 -3.2 18.4 -10.35 Q18.25 -11.05 18.45 -11.4 L18.65 -11.55 Q23.25 -9.45 29.35 -5.95 L34.15 1.45 Q39.3 9.2 41.05 11.05" fill="#ffffff" fill-rule="evenodd" stroke="none"/>
  </g>
</svg>
