<?xml version="1.0" encoding="UTF-8" standalone="no"?>
<svg xmlns:xlink="http://www.w3.org/1999/xlink" height="85.55px" width="198.5px" xmlns="http://www.w3.org/2000/svg">
  <g transform="matrix(1.0, 0.0, 0.0, 1.0, 99.25, 42.75)">
    <path d="M-47.45 -18.05 L-47.45 -22.35 -46.0 -19.4 Q-39.55 -25.1 -32.45 -29.35 L-26.6 -32.45 Q-32.2 -28.25 -37.25 -23.6 L-36.45 -23.25 -38.45 -22.5 Q-45.15 -16.2 -49.95 -9.75 L-48.55 -9.35 -50.4 -9.15 Q-59.65 3.6 -60.75 15.95 L-58.0 13.65 -60.85 19.8 Q-60.7 24.75 -59.2 29.1 L-57.75 32.4 -57.8 32.45 -55.25 35.9 Q-57.7 34.75 -60.2 33.55 -63.65 34.55 -69.2 33.6 L-74.0 32.4 -82.0 28.7 -92.3 31.25 -95.75 31.25 -81.45 26.7 -78.3 26.4 -76.55 27.85 -76.6 27.75 -72.85 27.2 -71.05 19.85 -72.3 14.6 -70.4 17.65 Q-67.1 7.55 -61.65 -1.0 L-63.85 -13.35 -59.9 -3.65 Q-54.7 -11.3 -47.45 -18.05" fill="#000000" fill-rule="evenodd" stroke="none"/>
    <path d="M-46.4 14.55 L-47.25 17.6 -45.5 14.7 -45.7 14.35 Q-46.0 14.1 -46.4 14.55 M-11.05 -37.85 L-11.15 -37.1 -9.2 -37.7 -11.05 -37.85 M-12.65 -40.7 L-12.65 -41.8 -11.15 -39.8 -3.0 -40.1 -5.4 -37.3 -12.05 -35.3 -12.45 -36.7 -13.25 -37.15 Q-15.45 -33.7 -17.0 -30.45 L-15.3 -31.1 -17.65 -29.1 Q-22.1 -19.75 -24.25 -8.1 L-22.6 -8.1 -24.5 -6.7 Q-25.25 -2.6 -25.65 2.45 L-20.9 -1.2 -25.95 6.3 Q-26.45 16.6 -25.45 26.55 L-22.25 23.85 -25.15 29.35 -23.95 36.8 -20.2 38.4 -18.65 41.3 Q-20.25 39.4 -25.95 38.2 -30.75 40.2 -37.45 38.3 L-44.35 37.7 -50.9 38.0 -43.15 34.6 -40.35 32.4 -37.95 34.1 -37.7 28.15 -39.3 23.5 -37.5 24.95 Q-36.6 11.45 -34.0 0.15 -40.95 11.4 -42.15 19.05 L-39.15 17.45 -42.3 21.5 -42.35 21.5 Q-42.45 23.4 -42.0 25.0 -43.05 26.05 -45.15 26.65 -49.3 27.75 -54.3 25.25 L-52.0 23.85 Q-51.35 21.45 -49.95 18.0 -47.05 11.0 -43.1 5.5 L-42.5 0.8 -41.75 3.7 Q-37.55 -1.45 -32.85 -4.45 -31.2 -10.45 -29.05 -15.65 L-29.45 -21.7 -27.85 -18.45 Q-24.25 -26.35 -19.65 -31.85 -16.6 -35.45 -13.7 -37.45 L-18.55 -41.4 -13.8 -40.3 -14.9 -42.75 -12.65 -40.7" fill="#000000" fill-rule="evenodd" stroke="none"/>
    <path d="M-16.0 -14.7 L-12.6 -28.85 -11.5 -28.4 -16.0 -14.7" fill="#000000" fill-rule="evenodd" stroke="none"/>
    <path d="M8.4 14.65 Q9.7 17.85 12.8 21.05 L12.3 21.55 10.15 21.5 Q8.8 21.1 7.15 18.15 L3.95 20.7 Q1.9 22.1 -1.2 22.1 0.0 24.55 0.55 26.9 L3.15 25.75 1.05 29.3 Q1.45 31.8 1.35 34.7 L3.35 34.9 4.9 38.3 0.9 37.05 Q-5.2 39.1 -12.55 38.65 L-14.8 40.15 -16.25 38.35 -21.05 37.45 -22.9 37.0 Q-17.2 32.4 -14.4 26.55 L-14.85 22.4 -13.25 23.4 -12.7 21.05 -12.6 20.15 -16.6 13.0 -22.6 16.7 -22.0 19.25 -19.75 19.25 -19.75 17.55 -21.45 16.7 -18.0 16.15 -18.0 21.25 -24.05 22.7 -25.75 16.4 -21.3 13.15 -21.9 11.4 -20.25 12.4 -16.0 9.25 -13.55 10.8 -13.0 8.55 -12.25 11.6 -7.75 14.4 Q-8.05 10.4 -8.8 6.9 L-11.25 4.65 -9.1 5.55 Q-10.6 -0.85 -13.45 -7.0 L-16.05 -11.85 Q-9.6 -8.1 -4.15 0.4 L-1.8 -4.8 -2.9 2.45 Q-0.2 7.0 1.55 11.5 L3.65 11.05 1.8 12.0 3.4 16.4 Q4.6 16.15 4.9 15.3 5.2 14.2 6.25 13.55 7.55 12.75 8.4 14.65" fill="#000000" fill-rule="evenodd" stroke="none"/>
    <path d="M92.65 29.6 Q93.95 31.5 94.6 33.55 L99.25 33.2 94.0 36.0 89.05 33.55 88.4 30.75 86.55 33.2 85.2 32.65 Q86.45 33.5 87.4 33.8 84.6 34.9 80.25 35.55 71.55 36.9 63.65 34.95 L60.0 31.3 62.45 31.75 Q60.8 26.7 60.8 22.2 60.8 15.7 64.35 11.85 L64.65 6.8 65.65 10.65 Q68.05 8.75 71.1 7.8 74.8 6.7 77.45 6.6 L81.3 3.6 79.8 6.65 Q85.0 7.2 86.7 11.7 87.6 13.95 87.4 16.1 L83.1 19.65 83.1 21.7 82.25 20.35 79.1 22.95 73.1 17.25 77.65 14.1 79.95 14.95 78.8 15.8 77.4 17.8 79.65 18.4 83.1 14.4 79.4 10.7 Q76.7 11.25 74.25 12.4 69.3 14.7 70.55 17.55 72.15 21.2 78.7 27.4 L79.55 24.9 79.8 28.45 82.05 30.35 Q87.95 25.45 90.3 27.05 L91.45 28.05 92.65 25.6 92.65 29.6" fill="#000000" fill-rule="evenodd" stroke="none"/>
    <path d="M-59.25 36.15 Q-57.5 36.7 -56.65 37.9 L-56.15 38.95 -59.55 38.65 -67.6 38.95 -64.45 37.2 Q-61.0 35.55 -59.25 36.15" fill="#000000" fill-rule="evenodd" stroke="none"/>
    <path d="M-95.35 25.0 Q-94.55 24.6 -92.2 26.1 L-89.95 27.65 -95.85 26.2 -99.25 27.75 -97.75 26.6 Q-96.15 25.4 -95.35 25.0" fill="#000000" fill-rule="evenodd" stroke="none"/>
    <path d="M-46.2 29.6 Q-45.6 29.3 -43.7 30.35 L-41.9 31.4 -46.6 30.45 -49.35 31.5 -48.15 30.7 -46.2 29.6" fill="#000000" fill-rule="evenodd" stroke="none"/>
    <path d="M8.35 25.6 L11.1 28.7 8.0 27.45 4.3 28.1 8.35 25.6" fill="#000000" fill-rule="evenodd" stroke="none"/>
    <path d="M12.15 -22.65 L10.05 -23.0 9.55 -22.25 12.15 -22.65 M0.6 -27.35 L-0.9 -28.3 0.05 -28.05 -0.05 -28.15 0.1 -28.05 3.25 -27.35 6.45 -30.15 5.8 -26.75 8.45 -26.15 8.2 -30.85 11.4 -25.55 11.3 -25.5 13.5 -25.0 25.35 -26.85 20.55 -22.85 14.15 -21.5 Q18.15 -19.85 22.55 -17.55 L22.65 -18.75 24.1 -16.65 Q32.1 -12.3 38.9 -6.3 L38.6 -9.1 39.95 -5.35 Q49.7 3.6 54.95 14.7 L56.1 13.55 55.6 16.2 Q57.8 21.15 58.9 26.0 L59.55 29.85 Q53.8 32.2 49.25 31.8 46.25 31.5 44.2 30.15 L43.3 30.55 40.5 30.25 43.65 28.2 Q45.8 18.35 42.7 9.1 L38.15 4.4 41.7 6.45 Q38.0 -2.25 29.45 -10.1 L27.15 -10.9 28.6 -10.9 Q21.7 -16.9 13.35 -21.35 L8.75 -20.4 8.05 -22.5 2.1 -26.35 Q12.45 -17.4 19.7 -6.8 L21.3 -9.7 21.0 -4.8 Q25.35 1.95 28.5 9.35 L29.4 8.9 28.95 10.4 Q30.4 14.05 31.5 17.65 L34.55 14.95 32.3 20.45 33.15 23.75 34.0 23.1 36.8 21.9 39.6 22.2 42.4 25.0 37.75 24.05 33.7 24.65 33.35 24.65 34.5 31.95 Q38.25 31.85 39.15 33.25 40.9 36.1 47.6 42.8 L36.6 37.85 30.95 37.65 Q26.8 38.5 22.25 37.85 L24.35 41.2 17.05 36.9 10.2 37.05 12.05 35.85 15.15 33.35 17.6 34.0 17.8 29.3 16.8 29.15 15.35 27.05 17.8 26.3 Q17.65 17.05 15.45 6.9 L8.1 0.6 14.5 3.25 Q12.8 -3.2 10.2 -9.45 L5.3 -15.25 8.15 -14.2 Q4.65 -21.5 0.6 -27.35" fill="#000000" fill-rule="evenodd" stroke="none"/>
  </g>
</svg>
