<?xml version="1.0" encoding="UTF-8" standalone="no"?>
<svg xmlns:xlink="http://www.w3.org/1999/xlink" height="107.0px" width="107.0px" xmlns="http://www.w3.org/2000/svg">
  <g transform="matrix(1.0, 0.0, 0.0, 1.0, 53.5, 53.5)">
    <path d="M50.5 0.0 Q50.5 20.9 35.7 35.7 20.9 50.5 0.0 50.5 -20.9 50.5 -35.7 35.7 -50.5 20.9 -50.5 0.0 -50.5 -20.9 -35.7 -35.7 -20.9 -50.5 0.0 -50.5 20.9 -50.5 35.7 -35.7 50.5 -20.9 50.5 0.0" fill="#ffffff" fill-rule="evenodd" stroke="none"/>
    <path d="M35.7 35.7 Q50.5 20.9 50.5 0.0 50.5 -20.9 35.7 -35.7 20.9 -50.5 0.0 -50.5 -20.9 -50.5 -35.7 -35.7 -50.5 -20.9 -50.5 0.0 -50.5 20.9 -35.7 35.7 -20.9 50.5 0.0 50.5 20.9 50.5 35.7 35.7 M53.5 0.0 Q53.5 22.15 37.8 37.8 22.15 53.5 0.0 53.5 -22.1 53.5 -37.8 37.8 -53.5 22.15 -53.5 0.0 -53.5 -22.1 -37.8 -37.8 -22.1 -53.5 0.0 -53.5 22.15 -53.5 37.8 -37.8 53.5 -22.1 53.5 0.0" fill="#000000" fill-rule="evenodd" stroke="none"/>
  </g>
</svg>
