<?xml version="1.0" encoding="UTF-8" standalone="no"?>
<svg xmlns:xlink="http://www.w3.org/1999/xlink" height="36.15px" width="36.6px" xmlns="http://www.w3.org/2000/svg">
  <g transform="matrix(1.0, 0.0, 0.0, 1.0, 18.3, 18.05)">
    <path d="M-4.85 -10.3 Q-6.45 -10.3 -7.55 -11.45 -8.7 -12.6 -8.7 -14.2 -8.7 -15.75 -7.55 -16.9 -6.4 -18.05 -4.85 -18.05 -3.25 -18.05 -2.1 -16.9 -0.95 -15.8 -0.95 -14.2 -0.95 -12.6 -2.1 -11.45 -3.25 -10.3 -4.85 -10.3" fill="#000000" fill-rule="evenodd" stroke="none"/>
    <path d="M7.6 -16.9 Q8.75 -15.8 8.75 -14.2 8.75 -12.6 7.6 -11.45 6.45 -10.3 4.85 -10.3 3.25 -10.3 2.1 -11.45 1.0 -12.6 1.0 -14.2 1.0 -15.8 2.1 -16.9 3.25 -18.05 4.85 -18.05 6.45 -18.05 7.6 -16.9" fill="#000000" fill-rule="evenodd" stroke="none"/>
    <path d="M-14.4 -8.6 Q-12.8 -8.6 -11.7 -7.45 -10.55 -6.3 -10.55 -4.7 -10.55 -3.1 -11.7 -2.0 -12.8 -0.85 -14.4 -0.85 -16.0 -0.85 -17.15 -2.0 -18.3 -3.1 -18.3 -4.7 -18.3 -6.3 -17.15 -7.45 -16.0 -8.6 -14.4 -8.6" fill="#000000" fill-rule="evenodd" stroke="none"/>
    <path d="M-4.85 -0.85 Q-6.4 -0.85 -7.55 -2.0 -8.7 -3.1 -8.7 -4.7 -8.7 -6.3 -7.55 -7.45 -6.45 -8.6 -4.85 -8.6 -3.25 -8.6 -2.1 -7.45 -0.95 -6.3 -0.95 -4.7 -0.95 -3.1 -2.1 -2.0 -3.25 -0.85 -4.85 -0.85" fill="#000000" fill-rule="evenodd" stroke="none"/>
    <path d="M4.85 -8.6 Q6.45 -8.6 7.6 -7.45 8.75 -6.3 8.75 -4.7 8.75 -3.1 7.6 -2.0 6.45 -0.85 4.85 -0.85 3.25 -0.85 2.1 -2.0 1.0 -3.1 1.0 -4.7 1.0 -6.3 2.1 -7.45 3.25 -8.6 4.85 -8.6" fill="#000000" fill-rule="evenodd" stroke="none"/>
    <path d="M14.45 -8.6 Q16.05 -8.6 17.2 -7.45 18.3 -6.3 18.3 -4.7 18.3 -3.1 17.2 -2.0 16.05 -0.85 14.45 -0.85 12.85 -0.85 11.7 -2.0 10.6 -3.1 10.6 -4.7 10.6 -6.3 11.7 -7.45 12.85 -8.6 14.45 -8.6" fill="#000000" fill-rule="evenodd" stroke="none"/>
    <path d="M-14.4 0.9 Q-12.8 0.9 -11.7 2.0 -10.55 3.15 -10.55 4.75 -10.55 6.35 -11.7 7.5 -12.8 8.6 -14.4 8.6 -16.0 8.6 -17.15 7.5 -18.3 6.35 -18.3 4.75 -18.3 3.15 -17.15 2.0 -16.0 0.9 -14.4 0.9" fill="#000000" fill-rule="evenodd" stroke="none"/>
    <path d="M-4.85 8.6 Q-6.45 8.6 -7.55 7.5 -8.7 6.35 -8.7 4.75 -8.7 3.15 -7.55 2.0 -6.45 0.9 -4.85 0.9 -3.25 0.9 -2.1 2.0 -0.95 3.15 -0.95 4.75 -0.95 6.35 -2.1 7.5 -3.25 8.6 -4.85 8.6" fill="#000000" fill-rule="evenodd" stroke="none"/>
    <path d="M4.85 0.9 Q6.45 0.9 7.6 2.0 8.75 3.15 8.75 4.75 8.75 6.35 7.6 7.5 6.45 8.6 4.85 8.6 3.25 8.6 2.1 7.5 1.0 6.35 1.0 4.75 1.0 3.15 2.1 2.0 3.25 0.9 4.85 0.9" fill="#000000" fill-rule="evenodd" stroke="none"/>
    <path d="M14.45 0.9 Q16.05 0.9 17.2 2.0 18.3 3.15 18.3 4.75 18.3 6.35 17.2 7.5 16.05 8.6 14.45 8.6 12.85 8.6 11.7 7.5 10.6 6.35 10.6 4.75 10.6 3.15 11.7 2.0 12.85 0.9 14.45 0.9" fill="#000000" fill-rule="evenodd" stroke="none"/>
    <path d="M-4.85 18.1 Q-6.45 18.1 -7.55 16.95 -8.7 15.8 -8.7 14.2 -8.7 12.65 -7.55 11.5 -6.4 10.35 -4.85 10.35 -3.25 10.35 -2.1 11.5 -0.95 12.6 -0.95 14.2 -0.95 15.8 -2.1 16.95 -3.25 18.1 -4.85 18.1" fill="#000000" fill-rule="evenodd" stroke="none"/>
    <path d="M4.85 18.1 Q3.25 18.1 2.1 16.95 1.0 15.8 1.0 14.2 1.0 12.6 2.1 11.5 3.25 10.35 4.85 10.35 6.45 10.35 7.6 11.5 8.75 12.6 8.75 14.2 8.75 15.8 7.6 16.95 6.45 18.1 4.85 18.1" fill="#000000" fill-rule="evenodd" stroke="none"/>
  </g>
</svg>
