<?xml version="1.0" encoding="UTF-8" standalone="no"?>
<svg xmlns:xlink="http://www.w3.org/1999/xlink" height="79.35px" width="79.0px" xmlns="http://www.w3.org/2000/svg">
  <g transform="matrix(1.0, 0.0, 0.0, 1.0, 39.5, 39.65)">
    <path d="M38.35 38.8 L-38.6 38.8 -38.6 -38.9 38.35 -38.9 38.35 38.8" fill="#ffffff" fill-opacity="0.0" fill-rule="evenodd" stroke="none"/>
    <path d="M27.0 27.5 L27.0 17.2 16.65 17.2 16.65 27.5 27.0 27.5 M-18.35 27.5 L-18.35 17.2 -28.65 17.2 -28.65 27.5 -18.35 27.5 M4.35 4.85 L4.35 -5.5 -6.0 -5.5 -6.0 4.85 4.35 4.85 M4.35 17.2 L-6.0 17.2 -6.0 27.5 4.35 27.5 4.35 17.2 M-18.35 4.85 L-18.35 -5.5 -28.65 -5.5 -28.65 4.85 -18.35 4.85 M15.65 16.2 L15.65 5.85 5.35 5.85 5.35 16.2 15.65 16.2 M15.65 17.2 L5.35 17.2 5.35 27.5 15.65 27.5 15.65 17.2 M-6.0 5.85 L-6.0 16.2 4.35 16.2 4.35 5.85 -6.0 5.85 M-7.0 16.2 L-7.0 5.85 -17.35 5.85 -17.35 16.2 -7.0 16.2 M-7.0 17.2 L-17.35 17.2 -17.35 27.5 -7.0 27.5 -7.0 17.2 M-18.35 16.2 L-18.35 5.85 -28.65 5.85 -28.65 16.2 -18.35 16.2 M-7.0 -6.5 L-7.0 -16.8 -17.35 -16.8 -17.35 -6.5 -7.0 -6.5 M-7.0 -5.5 L-17.35 -5.5 -17.35 4.85 -7.0 4.85 -7.0 -5.5 M-18.35 -6.5 L-18.35 -16.8 -28.65 -16.8 -28.65 -6.5 -18.35 -6.5 M5.35 -6.5 L15.65 -6.5 15.65 -16.8 5.35 -16.8 5.35 -6.5 M15.65 -5.5 L5.35 -5.5 5.35 4.85 15.65 4.85 15.65 -5.5 M4.35 -6.5 L4.35 -16.8 -6.0 -16.8 -6.0 -6.5 4.35 -6.5 M27.0 4.85 L27.0 -5.5 16.65 -5.5 16.65 4.85 27.0 4.85 M27.0 16.2 L27.0 5.85 16.65 5.85 16.65 16.2 27.0 16.2 M27.0 -6.5 L27.0 -16.8 16.65 -16.8 16.65 -6.5 27.0 -6.5 M-18.35 -28.15 L-28.65 -28.15 -28.65 -17.8 -18.35 -17.8 -18.35 -28.15 M27.0 -28.15 L16.65 -28.15 16.65 -17.8 27.0 -17.8 27.0 -28.15 M4.35 -28.15 L-6.0 -28.15 -6.0 -17.8 4.35 -17.8 4.35 -28.15 M15.65 -28.15 L5.35 -28.15 5.35 -17.8 15.65 -17.8 15.65 -28.15 M-7.0 -28.15 L-17.35 -28.15 -17.35 -17.8 -7.0 -17.8 -7.0 -28.15 M-29.65 -28.15 L-39.5 -28.15 -39.5 -29.15 -29.65 -29.15 -29.65 -39.65 -28.65 -39.65 -28.65 -29.15 -18.35 -29.15 -18.35 -39.65 -17.35 -39.65 -17.35 -29.15 -7.0 -29.15 -7.0 -39.65 -6.0 -39.65 -6.0 -29.15 4.35 -29.15 4.35 -39.65 5.35 -39.65 5.35 -29.15 15.65 -29.15 15.65 -39.65 16.65 -39.65 16.65 -29.15 27.0 -29.15 27.0 -39.65 28.0 -39.65 28.0 -29.15 39.5 -29.15 39.5 -28.15 28.0 -28.15 28.0 -17.8 39.5 -17.8 39.5 -16.8 28.0 -16.8 28.0 -6.5 39.5 -6.5 39.5 -5.5 28.0 -5.5 28.0 4.85 39.5 4.85 39.5 5.85 28.0 5.85 28.0 16.2 39.5 16.2 39.5 17.2 28.0 17.2 28.0 27.5 39.5 27.5 39.5 28.5 28.0 28.5 28.0 39.7 27.0 39.7 27.0 28.5 16.65 28.5 16.65 39.7 15.65 39.7 15.65 28.5 5.35 28.5 5.35 39.7 4.35 39.7 4.35 28.5 -6.0 28.5 -6.0 39.7 -7.0 39.7 -7.0 28.5 -17.35 28.5 -17.35 39.7 -18.35 39.7 -18.35 28.5 -28.65 28.5 -28.65 39.7 -29.65 39.7 -29.65 28.5 -39.5 28.5 -39.5 27.5 -29.65 27.5 -29.65 17.2 -39.5 17.2 -39.5 16.2 -29.65 16.2 -29.65 5.85 -39.5 5.85 -39.5 4.85 -29.65 4.85 -29.65 -5.5 -39.5 -5.5 -39.5 -6.5 -29.65 -6.5 -29.65 -16.8 -39.5 -16.8 -39.5 -17.8 -29.65 -17.8 -29.65 -28.15" fill="#000000" fill-rule="evenodd" stroke="none"/>
  </g>
</svg>
