<?xml version="1.0" encoding="UTF-8" standalone="no"?>
<svg xmlns:xlink="http://www.w3.org/1999/xlink" height="32.8px" width="24.4px" xmlns="http://www.w3.org/2000/svg">
  <g transform="matrix(1.0, 0.0, 0.0, 1.0, 14.3, 23.55)">
    <path d="M4.7 -12.8 Q2.5 -12.8 0.9 -14.35 -0.65 -15.95 -0.65 -18.2 -0.65 -20.4 0.9 -22.0 2.5 -23.55 4.7 -23.55 6.95 -23.55 8.55 -22.0 10.1 -20.4 10.1 -18.2 10.1 -15.95 8.55 -14.35 6.95 -12.8 4.7 -12.8" fill="#000000" fill-rule="evenodd" stroke="none"/>
    <path d="M-11.3 -7.75 Q-8.3 -10.7 -4.1 -10.7 0.15 -10.7 3.1 -7.75 6.1 -4.85 6.1 -0.7 6.1 3.45 3.1 6.35 0.15 9.25 -4.1 9.25 -8.3 9.25 -11.3 6.35 -14.3 3.4 -14.3 -0.7 -14.3 -4.8 -11.3 -7.75" fill="#000000" fill-rule="evenodd" stroke="none"/>
  </g>
</svg>
