<?xml version="1.0" encoding="UTF-8" standalone="no"?>
<svg xmlns:xlink="http://www.w3.org/1999/xlink" height="50.7px" width="101.6px" xmlns="http://www.w3.org/2000/svg">
  <g transform="matrix(1.0, 0.0, 0.0, 1.0, 50.0, 20.0)">
    <path d="M51.6 8.35 L33.75 12.45 43.9 25.0 23.6 20.05 24.2 29.4 11.0 18.6 11.3 25.9 -1.05 18.6 -3.25 25.3 -8.45 20.35 -19.55 29.4 -18.6 23.25 -47.2 30.7 -35.25 20.65 -50.0 20.65 -33.1 8.35 -49.1 0.75 -25.7 -4.5 -32.15 -13.25 -12.75 -9.45 -6.9 -18.8 1.1 -9.15 7.9 -20.0 9.45 -9.75 24.55 -18.25 19.9 -7.7 43.0 -7.15 29.15 0.2 51.6 8.35" fill="#000000" fill-rule="evenodd" stroke="none"/>
  </g>
</svg>
