<?xml version="1.0" encoding="UTF-8" standalone="no"?>
<svg xmlns:xlink="http://www.w3.org/1999/xlink" height="21.9px" width="50.9px" xmlns="http://www.w3.org/2000/svg">
  <g transform="matrix(1.0, 0.0, 0.0, 1.0, 25.0, 0.0)">
    <path d="M-17.5 17.65 Q-17.5 19.2 -18.6 20.3 -19.7 21.4 -21.25 21.4 -22.8 21.4 -23.9 20.3 -25.0 19.2 -25.0 17.65 -25.0 16.1 -23.9 15.0 -22.8 13.9 -21.25 13.9 -19.7 13.9 -18.6 15.0 -17.5 16.1 -17.5 17.65" fill="#000000" fill-rule="evenodd" stroke="none"/>
    <path d="M-7.15 10.35 Q-7.15 11.65 -8.05 12.5 -8.9 13.4 -10.15 13.4 -11.4 13.4 -12.3 12.5 -13.15 11.65 -13.15 10.35 -13.15 9.1 -12.3 8.25 -11.4 7.35 -10.15 7.35 -8.9 7.35 -8.05 8.25 -7.15 9.1 -7.15 10.35" fill="#000000" fill-rule="evenodd" stroke="none"/>
    <path d="M4.9 9.35 Q4.9 10.2 4.3 10.75 3.75 11.4 2.9 11.4 2.05 11.4 1.45 10.75 0.9 10.2 0.9 9.35 0.9 8.5 1.45 7.95 2.05 7.35 2.9 7.35 3.75 7.35 4.3 7.95 4.9 8.55 4.9 9.35" fill="#000000" fill-rule="evenodd" stroke="none"/>
    <path d="M-0.65 17.65 Q-0.65 18.35 -1.15 18.9 -1.7 19.4 -2.4 19.4 -3.15 19.4 -3.65 18.9 -4.15 18.35 -4.15 17.65 -4.15 16.9 -3.65 16.4 -3.15 15.9 -2.4 15.9 -1.7 15.9 -1.15 16.4 -0.65 16.9 -0.65 17.65" fill="#000000" fill-rule="evenodd" stroke="none"/>
    <path d="M20.9 12.9 Q20.9 14.35 19.85 15.35 18.85 16.4 17.4 16.4 15.95 16.4 14.9 15.35 13.9 14.35 13.9 12.9 13.9 11.45 14.9 10.35 15.95 9.35 17.4 9.35 18.85 9.35 19.85 10.35 20.9 11.45 20.9 12.9" fill="#000000" fill-rule="evenodd" stroke="none"/>
    <path d="M25.9 20.15 Q25.9 20.85 25.4 21.4 24.85 21.9 24.15 21.9 23.4 21.9 22.9 21.4 22.4 20.85 22.4 20.15 22.4 19.4 22.9 18.9 23.4 18.4 24.15 18.4 24.85 18.4 25.4 18.9 25.9 19.4 25.9 20.15" fill="#000000" fill-rule="evenodd" stroke="none"/>
    <path d="M-1.5 2.75 Q-1.5 3.9 -2.3 4.7 -3.1 5.5 -4.25 5.5 -5.4 5.5 -6.2 4.7 -7.0 3.9 -7.0 2.75 -7.0 1.6 -6.2 0.8 -5.4 0.0 -4.25 0.0 -3.1 0.0 -2.3 0.8 -1.5 1.65 -1.5 2.75" fill="#000000" fill-rule="evenodd" stroke="none"/>
    <path d="M13.4 3.6 Q13.4 4.55 12.75 5.2 12.05 5.85 11.15 5.85 10.2 5.85 9.55 5.2 8.9 4.55 8.9 3.6 8.9 2.65 9.55 2.0 10.2 1.35 11.15 1.35 12.05 1.35 12.75 2.0 13.4 2.65 13.4 3.6" fill="#000000" fill-rule="evenodd" stroke="none"/>
  </g>
</svg>
