<?xml version="1.0" encoding="UTF-8" standalone="no"?>
<svg xmlns:xlink="http://www.w3.org/1999/xlink" height="65.75px" width="45.1px" xmlns="http://www.w3.org/2000/svg">
  <g transform="matrix(1.0, 0.0, 0.0, 1.0, 22.55, 32.9)">
    <path d="M-7.05 8.0 Q-9.3 6.85 -11.1 4.95 L-12.25 15.5 -10.55 16.4 -2.05 9.65 Q-4.65 9.3 -7.05 8.0 M-11.1 -2.05 L-9.5 -5.05 -12.15 -6.45 Q-11.95 -4.1 -11.1 -2.05 M-8.7 -4.6 L-10.65 -0.95 Q-8.85 2.6 -5.7 4.45 L-2.6 -1.4 -8.7 -4.6 M-12.25 -8.3 L-12.2 -7.5 -9.1 -5.85 -6.25 -11.2 -11.45 -13.9 Q-12.25 -10.85 -12.25 -8.3 M5.35 2.85 L3.9 5.6 Q5.9 5.05 7.75 4.1 L5.35 2.85 M0.35 6.05 L2.75 5.85 4.55 2.4 -1.8 -0.95 -4.9 4.9 Q-2.55 6.05 0.35 6.05 M-2.2 -2.2 L0.65 -7.55 -5.45 -10.75 -8.25 -5.4 -2.2 -2.2 M1.45 -7.1 L-1.35 -1.75 5.0 1.6 7.8 -3.75 1.45 -7.1 M13.5 -0.7 L8.6 -3.3 5.8 2.0 8.65 3.55 Q11.3 1.9 13.5 -0.7 M8.25 -4.55 L11.45 -10.65 5.1 -14.0 1.9 -7.9 8.25 -4.55 M9.05 -21.45 L15.4 -18.1 17.35 -21.8 Q15.65 -25.6 12.3 -27.55 L9.05 -21.45 M15.0 -17.3 L8.65 -20.65 5.55 -14.8 Q8.75 -13.1 11.9 -11.45 L15.0 -17.3 M4.3 -14.45 L-1.8 -17.65 -5.05 -11.55 1.05 -8.35 4.3 -14.45 M1.7 -24.3 L-1.35 -18.45 4.75 -15.25 7.8 -21.1 1.7 -24.3 M0.9 -24.75 L-2.35 -26.45 Q-5.35 -24.5 -7.5 -21.7 L-2.2 -18.9 0.9 -24.75 M3.05 -28.8 Q0.7 -28.25 -1.45 -27.0 L1.35 -25.55 3.05 -28.8 M11.45 -28.0 Q8.9 -29.15 6.2 -29.15 L4.2 -29.0 2.15 -25.15 8.25 -21.9 11.45 -28.0 M-9.65 -18.4 L-11.15 -14.8 -5.85 -12.0 -2.6 -18.1 -8.05 -20.95 -9.65 -18.4 M16.2 -4.7 L17.45 -7.5 12.25 -10.2 9.05 -4.1 14.1 -1.45 Q15.25 -2.9 16.2 -4.7 M16.2 -17.7 L18.75 -16.35 Q18.5 -18.75 17.8 -20.7 L16.2 -17.7 M18.8 -14.8 L18.8 -15.3 15.8 -16.85 12.7 -11.05 17.75 -8.35 Q18.8 -11.65 18.8 -14.8 M20.3 -24.35 Q22.55 -20.1 22.55 -14.8 22.55 -8.7 19.55 -2.95 16.7 2.45 12.05 5.8 7.45 9.15 2.25 9.7 L-8.15 18.0 -16.1 32.85 -22.55 29.4 -15.0 15.25 -13.5 1.65 Q-16.0 -2.8 -16.0 -8.3 -16.0 -14.4 -12.95 -20.15 -9.8 -26.05 -4.6 -29.5 0.55 -32.9 6.2 -32.9 10.25 -32.9 13.65 -31.1 17.95 -28.85 20.3 -24.35" fill="#000000" fill-rule="evenodd" stroke="none"/>
  </g>
</svg>
