<?xml version="1.0" encoding="UTF-8"?>
<svg width="61.45px" height="72.6px" version="1.1" xmlns="http://www.w3.org/2000/svg" xmlns:cc="http://creativecommons.org/ns#" xmlns:dc="http://purl.org/dc/elements/1.1/" xmlns:rdf="http://www.w3.org/1999/02/22-rdf-syntax-ns#">
 <metadata>
  <rdf:RDF>
   <cc:Work rdf:about="">
    <dc:format>image/svg+xml</dc:format>
    <dc:type rdf:resource="http://purl.org/dc/dcmitype/StillImage"/>
    <dc:title/>
   </cc:Work>
  </rdf:RDF>
 </metadata>
 <g transform="translate(30.7 36.3)" fill-rule="evenodd">
  <path d="m-25.4-28.3 2.35-2.7h46.6l2.15 2.35v57.35l-2.5 2.75h-46.9l-1.7-2.25v-57.5" fill="#fff"/>
  <g>
   <path d="m-18.35-21.3 1.3-0.3q1.05 0 1.6 0.7t0.55 2.1v4.65h-2.45v-4q0-0.65-0.25-1-0.25-0.25-0.6-0.25-0.5 0-0.7 0.35l-0.3 1.4v3.5h-2.45v-7.3h2.3v1.2l1-1.05"/>
   <path d="m-11.5-21.45v7.3h-2.45v-7.3h2.45"/>
   <path d="m-11.5-24.2v1.9h-2.45v-1.9h2.45"/>
   <path d="m-7.25-21.35 1.2-0.25 1.2 0.3 0.75 0.9 1.05-0.95 1.15-0.25q1.1 0 1.6 0.7 0.6 0.7 0.6 2.15v4.6h-2.45v-4.15q0-0.5-0.15-0.75-0.3-0.4-0.65-0.4-0.4 0-0.7 0.4l-0.25 1.15v3.75h-2.45v-4l-0.05-0.65-0.25-0.45-0.45-0.2q-0.45 0-0.7 0.4l-0.3 1.2v3.7h-2.45v-7.3h2.3v1.05l1-0.95"/>
   <path d="m5.7-17.85-0.3-1.25q-0.25-0.4-0.7-0.4-0.55 0-0.8 0.4-0.3 0.45-0.3 1.3 0 1 0.3 1.35 0.3 0.45 0.75 0.45l0.75-0.45q0.3-0.35 0.3-1.4m-4.55 3.7v-10.05h2.45v3.45q0.35-0.45 0.85-0.65l1-0.2q1.2 0 1.95 0.95 0.75 1 0.75 2.75 0 1.25-0.35 2.15-0.4 0.95-0.95 1.35-0.6 0.45-1.4 0.45-0.65 0-1.15-0.35l-0.9-0.9v1.05h-2.25"/>
   <path d="m13-21.45h2.45v7.3h-2.3v-1.15l-1.05 1.05q-0.5 0.3-1.25 0.3-1 0-1.6-0.7-0.55-0.7-0.55-2.15v-4.65h2.45v4.05q0 0.7 0.25 0.95 0.15 0.3 0.6 0.3t0.7-0.4q0.3-0.35 0.3-1.35v-3.55"/>
   <path d="m16.5-20.55 1-0.8 1.75-0.25 1.7 0.2q0.4 0.1 0.9 0.6l0.6 1.15-2.35 0.25-0.3-0.5-0.7-0.25-0.6 0.2-0.2 0.4q0 0.25 0.25 0.4l1.05 0.25 1.85 0.45 0.9 0.8 0.3 1.15-0.3 1.25q-0.35 0.55-1.05 0.95l-2 0.35q-1.75 0-2.45-0.6-0.8-0.55-0.95-1.6l2.4-0.25q0.15 0.5 0.45 0.7l0.7 0.2 0.75-0.25 0.2-0.4-0.25-0.5-1.05-0.3-1.8-0.45q-0.5-0.25-0.8-0.75-0.35-0.5-0.35-1.15 0-0.75 0.35-1.25"/>
   <path d="m1.1 21.4q0 0.55 0.35 0.9l0.9 0.35q0.55 0 0.9-0.35 0.4-0.4 0.4-0.9h0.8v1q0 0.9 0.75 1.55 0.75 0.6 1.8 0.6t1.8-0.6q0.75-0.65 0.75-1.55v-3.55q0-1.05-0.6-1.8-0.65-0.75-1.5-0.75h-6.85q-0.9 0-1.5 0.75-0.65 0.75-0.65 1.8t0.65 1.8q0.6 0.75 1.5 0.75h0.5m-1.55-11.1q-0.3-0.3-0.7-0.3-0.75 0-1.1 0.55l-3.1 3.1q-1.75-0.1-2.8 1.05-1.05 1.05-1 2.55 0 1.5 1.05 2.6 1.1 1.1 2.6 1.1 1.55 0 2.6-1.05 1.15-1.15 1-2.8l3.1-3.1 0.55-1.1-0.3-0.7q-0.3-0.35-0.75-0.35-0.55 0.05-1.1 0.6l-2.45 2.45-0.3-0.3 2.45-2.45q0.55-0.55 0.55-1.15 0-0.4-0.3-0.7m-9.5 1.35q0-0.9-0.7-1.55-0.75-0.65-1.8-0.65t-1.8 0.65-0.75 1.55v10.7q0 0.9 0.75 1.55t1.8 0.65 1.8-0.65q0.7-0.65 0.7-1.55v-10.7m-0.55-14.45q-0.3-0.3-0.75-0.3-0.4 0-0.7 0.3-0.4 0.4-0.4 1.2v3.45h-0.4v-3.45q0-0.8-0.4-1.2l-0.75-0.3-0.7 0.3q-0.4 0.4-0.4 1.2v4.35q-1.25 1.1-1.25 2.7 0 1.5 1.1 2.55 1.05 1.05 2.6 1.05t2.6-1.05q1.1-1.05 1.1-2.55 0-1.7-1.25-2.7v-4.4q0-0.75-0.4-1.15m21.65 12.9q-0.75 0.65-0.75 1.55v10.7q0 0.9 0.75 1.55 0.7 0.65 1.75 0.65 1.1 0 1.8-0.65 0.75-0.65 0.75-1.55v-10.7q0-0.9-0.75-1.55-0.7-0.65-1.8-0.65-1.05 0-1.75 0.65m4.05-12.9-0.75-0.3q-0.45 0-0.7 0.3-0.4 0.35-0.4 1.2v3.45h-0.45v-3.45q0-0.85-0.4-1.2-0.2-0.3-0.7-0.3l-0.75 0.3q-0.35 0.35-0.35 1.2v4.35q-1.25 1.1-1.25 2.7 0 1.5 1.1 2.55 1.05 1.05 2.6 1.05t2.6-1.05q1.1-1.05 1.1-2.55 0-1.65-1.3-2.7v-4.4q0-0.8-0.35-1.15m-36.85 29.35v-32.7h43.9v32.7h-43.9"/>
   <path d="m-23.05-31-2.35 2.7v57.5l1.7 2.25h46.9l2.5-2.75v-57.35l-2.15-2.35h-46.6m44.75-2.05-1.85-2.05 3.55-1.2 2.9 3.25h1.45v1.65l3 3.4-1.9 2.85-1.1-1.25v54.55l2.05 2.2-2.05 2.05v1.1h-1.1l-2.75 2.8-3.35-1.9 0.8-0.9h-43.5l0.5 0.65-2.6 1.9-2.1-2.55h-1.1v-1.3l-2.3-2.8 2.3-2.75v-52.55l-0.85 1-2.4-4.05 3.25-3v-1.1h1.2l2.2-2.05 3.1 1.65-0.35 0.4h43"/>
   <path d="m21.65-12.25v0.95h-43v-0.95h43"/>
  </g>
 </g>
</svg>
