<?xml version="1.0" encoding="UTF-8" standalone="no"?>
<svg xmlns:xlink="http://www.w3.org/1999/xlink" height="34.0px" width="31.8px" xmlns="http://www.w3.org/2000/svg">
  <g transform="matrix(1.0, 0.0, 0.0, 1.0, 15.9, 17.0)">
    <path d="M-1.85 -12.85 Q-2.65 -12.2 -3.05 -11.2 L-4.75 -6.65 -6.35 -7.25 -4.65 -11.8 Q-4.05 -13.4 -2.75 -14.35 -1.5 -15.25 -0.1 -15.25 L1.3 -15.0 11.35 -11.25 Q12.65 -10.8 13.4 -9.6 14.15 -8.4 14.15 -6.9 14.15 -5.85 13.8 -4.95 L12.1 -0.4 10.5 -1.0 12.2 -5.55 12.45 -6.9 Q12.45 -9.0 10.75 -9.65 L0.7 -13.35 -0.1 -13.5 Q-1.05 -13.5 -1.85 -12.85" fill="#ffffff" fill-rule="evenodd" stroke="none"/>
    <path d="M-1.8 2.5 Q-2.35 3.8 -1.6 4.8 L-3.8 7.4 0.2 8.85 0.35 5.55 Q1.55 5.2 2.05 3.95 2.4 2.95 2.1 2.1 1.75 1.2 0.95 0.9 L-0.65 1.05 Q-1.45 1.55 -1.8 2.5 M-1.4 -10.6 L-3.1 -6.05 8.85 -1.6 10.55 -6.15 10.7 -6.9 Q10.7 -7.9 10.15 -8.0 L0.1 -11.75 -0.1 -11.8 -0.8 -11.5 -1.4 -10.6 M-9.85 -8.55 L-8.0 -7.85 -6.3 -12.4 Q-5.5 -14.5 -3.8 -15.75 -2.1 -17.0 -0.1 -17.0 L1.9 -16.65 11.95 -12.9 Q13.8 -12.2 14.85 -10.5 15.9 -8.9 15.9 -6.9 L15.45 -4.35 13.75 0.2 15.25 0.8 9.25 17.0 -15.9 7.7 -9.85 -8.55 M-2.75 -14.35 Q-4.05 -13.4 -4.65 -11.8 L-6.35 -7.25 -4.75 -6.65 -3.05 -11.2 Q-2.65 -12.2 -1.85 -12.85 -1.05 -13.5 -0.1 -13.5 L0.7 -13.35 10.75 -9.65 Q12.45 -9.0 12.45 -6.9 L12.2 -5.55 10.5 -1.0 12.1 -0.4 13.8 -4.95 Q14.15 -5.85 14.15 -6.9 14.15 -8.4 13.4 -9.6 12.65 -10.8 11.35 -11.25 L1.3 -15.0 -0.1 -15.25 Q-1.5 -15.25 -2.75 -14.35" fill="#000000" fill-rule="evenodd" stroke="none"/>
  </g>
</svg>
