<?xml version="1.0" encoding="UTF-8" standalone="no"?>
<svg xmlns:xlink="http://www.w3.org/1999/xlink" height="90.95px" width="102.65px" xmlns="http://www.w3.org/2000/svg">
  <g transform="matrix(1.0, 0.0, 0.0, 1.0, 51.35, 45.45)">
    <path d="M-1.3 -6.5 L0.8 -5.15 0.8 33.5 Q0.8 34.95 1.05 36.15 1.55 38.75 2.95 40.2 4.4 41.75 6.65 41.75 9.4 41.75 11.05 39.45 12.35 37.65 12.7 34.9 L14.5 34.9 Q13.95 37.8 12.45 39.75 10.25 42.65 6.5 42.65 2.25 42.65 0.25 39.25 -1.05 37.1 -1.25 33.9 L-1.3 -6.5" fill="#ffffff" fill-rule="evenodd" stroke="none"/>
    <path d="M0.8 -5.15 L-1.3 -6.5 -1.25 33.9 Q-1.05 37.1 0.25 39.25 2.25 42.65 6.5 42.65 10.25 42.65 12.45 39.75 13.95 37.8 14.5 34.9 L12.7 34.9 Q12.35 37.65 11.05 39.45 9.4 41.75 6.65 41.75 4.4 41.75 2.95 40.2 1.55 38.75 1.05 36.15 0.8 34.95 0.8 33.5 L0.8 -5.15 M42.65 -24.95 Q49.9 -14.75 51.3 -4.5 L50.95 -4.5 50.85 -4.9 41.75 -10.1 34.6 -4.9 26.5 -10.3 17.8 -4.7 9.45 -10.75 3.65 -6.65 3.65 33.55 Q3.6 34.55 3.85 35.75 4.2 37.45 5.0 38.25 5.6 38.9 6.65 38.9 8.65 38.9 9.55 36.2 L10.0 33.45 10.0 32.05 17.65 32.05 17.55 33.6 Q17.3 37.75 15.0 41.1 11.9 45.5 6.5 45.5 0.55 45.5 -2.2 40.8 -3.85 37.95 -4.15 34.0 L-4.15 -8.4 -7.75 -10.75 -16.35 -4.5 -16.9 -4.5 -25.0 -11.2 -34.05 -5.15 -41.05 -10.95 -51.35 -4.5 Q-50.3 -14.75 -43.5 -24.95 -29.85 -45.45 -0.8 -45.45 28.25 -45.45 42.65 -24.95" fill="#000000" fill-rule="evenodd" stroke="none"/>
  </g>
</svg>
