<?xml version="1.0" encoding="UTF-8" standalone="no"?>
<svg xmlns:xlink="http://www.w3.org/1999/xlink" height="63.85px" width="44.15px" xmlns="http://www.w3.org/2000/svg">
  <g transform="matrix(1.0, 0.0, 0.0, 1.0, 22.1, 31.9)">
    <path d="M-15.65 -23.35 Q-9.15 -31.9 -0.05 -31.9 9.1 -31.9 15.6 -23.35 22.05 -14.8 22.05 -2.7 22.05 9.4 15.6 17.95 9.1 26.5 -0.05 26.5 -9.15 26.5 -15.65 17.95 -22.1 9.35 -22.1 -2.7 -22.1 -14.75 -15.65 -23.35 M3.8 -24.3 Q2.4 -23.4 3.0 -20.2 3.6 -17.05 5.9 -13.4 8.2 -9.8 10.8 -7.85 13.4 -5.95 14.8 -6.85 16.2 -7.7 15.55 -10.9 14.95 -14.1 12.7 -17.7 10.4 -21.3 7.8 -23.25 5.2 -25.15 3.8 -24.3" fill="#000000" fill-rule="evenodd" stroke="none"/>
    <path d="M3.0 -20.2 Q2.4 -23.4 3.8 -24.3 5.2 -25.15 7.8 -23.25 10.4 -21.3 12.7 -17.7 14.95 -14.1 15.55 -10.9 16.2 -7.7 14.8 -6.85 13.4 -5.95 10.8 -7.85 8.2 -9.8 5.9 -13.4 3.6 -17.05 3.0 -20.2" fill="#ffffff" fill-rule="evenodd" stroke="none"/>
    <path d="M-2.1 26.8 L1.75 26.55 5.85 31.95 -5.35 31.95 -2.1 26.8" fill="#000000" fill-rule="evenodd" stroke="none"/>
  </g>
</svg>
