<?xml version="1.0" encoding="UTF-8" standalone="no"?>
<svg xmlns:xlink="http://www.w3.org/1999/xlink" height="43.75px" width="37.4px" xmlns="http://www.w3.org/2000/svg">
  <g transform="matrix(1.0, 0.0, 0.0, 1.0, 18.7, 21.85)">
    <path d="M-14.1 4.4 Q-16.0 0.85 -16.0 -3.15 -16.0 -9.8 -11.3 -14.5 -6.65 -19.2 0.0 -19.2 6.65 -19.2 11.35 -14.5 16.05 -9.8 16.05 -3.15 16.05 0.9 14.15 4.45 12.2 8.05 8.8 10.25 L8.15 10.65 8.15 19.2 5.9 19.2 5.9 12.7 3.85 12.7 3.85 19.2 0.95 19.2 0.95 12.7 -1.1 12.7 -1.1 19.2 -3.85 19.2 -3.85 12.7 -5.9 12.7 -5.9 19.2 -8.3 19.2 -8.3 10.55 -8.9 10.15 Q-12.25 7.95 -14.1 4.4 M-4.2 5.15 Q-3.35 4.65 -2.65 2.3 -2.0 0.1 -2.75 -0.85 L-3.65 -1.35 -6.1 -0.75 Q-8.8 0.05 -10.35 1.3 -11.9 2.5 -11.55 4.15 L-10.9 5.5 Q-10.2 6.45 -9.1 6.35 L-6.55 5.75 -4.2 5.15 M3.85 -1.35 L2.95 -0.85 Q2.2 0.1 2.85 2.3 3.55 4.65 4.4 5.15 L6.75 5.75 9.3 6.35 Q10.4 6.45 11.1 5.5 L11.75 4.15 Q12.1 2.5 10.55 1.3 9.0 0.05 6.3 -0.75 L3.85 -1.35" fill="#ffffff" fill-rule="evenodd" stroke="none"/>
    <path d="M-11.3 -14.5 Q-16.0 -9.8 -16.0 -3.15 -16.0 0.85 -14.1 4.4 -12.25 7.95 -8.9 10.15 L-8.3 10.55 -8.3 19.2 -5.9 19.2 -5.9 12.7 -3.85 12.7 -3.85 19.2 -1.1 19.2 -1.1 12.7 0.95 12.7 0.95 19.2 3.85 19.2 3.85 12.7 5.9 12.7 5.9 19.2 8.15 19.2 8.15 10.65 8.8 10.25 Q12.2 8.05 14.15 4.45 16.05 0.9 16.05 -3.15 16.05 -9.8 11.35 -14.5 6.65 -19.2 0.0 -19.2 -6.65 -19.2 -11.3 -14.5 M-13.2 -16.35 Q-7.7 -21.85 0.0 -21.85 7.75 -21.85 13.25 -16.35 18.7 -10.9 18.7 -3.15 18.7 1.4 16.65 5.45 14.55 9.4 10.85 12.05 L10.85 21.9 -11.0 21.9 -11.0 11.95 Q-14.6 9.25 -16.65 5.3 -18.7 1.35 -18.7 -3.15 -18.7 -10.85 -13.2 -16.35" fill="#000000" fill-rule="evenodd" stroke="none"/>
    <path d="M-2.65 2.3 Q-3.35 4.65 -4.2 5.15 L-6.55 5.75 -9.1 6.35 Q-10.2 6.45 -10.9 5.5 L-11.55 4.15 Q-11.9 2.5 -10.35 1.3 -8.8 0.05 -6.1 -0.75 L-3.65 -1.35 -2.75 -0.85 Q-2.0 0.1 -2.65 2.3" fill="#000000" fill-rule="evenodd" stroke="none"/>
    <path d="M4.4 5.15 Q3.55 4.65 2.85 2.3 2.2 0.1 2.95 -0.85 L3.85 -1.35 6.3 -0.75 Q9.0 0.05 10.55 1.3 12.1 2.5 11.75 4.15 L11.1 5.5 Q10.4 6.45 9.3 6.35 L6.75 5.75 4.4 5.15" fill="#000000" fill-rule="evenodd" stroke="none"/>
  </g>
</svg>
