<?xml version="1.0" encoding="UTF-8"?>
<svg width="121.05px" height="178.7px" version="1.1" xmlns="http://www.w3.org/2000/svg" xmlns:cc="http://creativecommons.org/ns#" xmlns:dc="http://purl.org/dc/elements/1.1/" xmlns:rdf="http://www.w3.org/1999/02/22-rdf-syntax-ns#">
 <metadata>
  <rdf:RDF>
   <cc:Work rdf:about="">
    <dc:format>image/svg+xml</dc:format>
    <dc:type rdf:resource="http://purl.org/dc/dcmitype/StillImage"/>
    <dc:title/>
   </cc:Work>
  </rdf:RDF>
 </metadata>
 <g fill="#fff">
  <ellipse cx="82.357" cy="82.06" rx="18.582" ry="19.474" stroke-width=".78801"/>
  <g stroke-width=".83396">
   <ellipse cx="49.503" cy="85.479" rx="20.812" ry="19.474"/>
   <ellipse cx="22.001" cy="68.234" rx="20.812" ry="19.474"/>
   <ellipse cx="34.192" cy="48.017" rx="20.812" ry="19.474"/>
   <ellipse cx="37.611" cy="22.299" rx="20.812" ry="19.474"/>
   <ellipse cx="69.126" cy="27.353" rx="20.812" ry="19.474"/>
   <ellipse cx="56.342" cy="57.085" rx="20.812" ry="19.474"/>
  </g>
  <ellipse cx="92.689" cy="47.571" rx="26.833" ry="26.907" stroke-width="1.1131"/>
 </g>
 <g transform="translate(60.55 89.35)" fill-rule="evenodd">
  <path d="m60.5-41.9q0 9.25-5.65 16.75-5.6 7.4-14.45 10l0.15 0.35 0.3 0.45h-0.05q1.75 4 1.75 7.85 0 8.4-5.95 14.35t-14.3 5.95q-7.7 0-13.7-5.5l-0.7 0.95 5.6 80.1h-26.65l3.85-71-1.25 0.05q-8.6 0-15.15-5.7-6.45-5.6-7.75-14.1-3.8 1.35-6.85 1.35-8.35 0-14.3-5.95t-5.95-14.35q0-6.05 3.35-11.1 3.35-5 8.9-7.4l-0.45-3.55q0-3.6 1.65-6.85 1.6-3.15 4.45-5.4-3.05-5.4-3.05-11.35 0-9.65 6.85-16.5t16.5-6.85q5.75 0 10.9 2.75 5.05 2.7 8.3 7.45 5.65-4.55 12.6-4.55 6.7 0 12 3.95 5.3 3.9 7.25 10.25l3.85-0.35q11.6 0 19.75 8.2 8.2 8.2 8.2 19.75m-22.3 24.25q8.35-1.95 13.8-8.8t5.45-15.45q0-10.3-7.3-17.55-7.3-7.3-17.6-7.3l-4.6 0.4-1.45 0.3-0.35-1.45q-1.4-5.8-6.05-9.45t-10.65-3.65q-3.3 0-6.35 1.25-3.1 1.25-5.5 3.55l-1.45 1.35-0.05-0.1q-4.45 4.95-5.95 10.25 0.05-1.85 0.65-4.35 1.15-4.95 3.95-8.15-2.8-4.4-7.35-6.9-4.55-2.55-9.75-2.55-8.35 0-14.3 5.95t-5.95 14.3q0 5.95 3.2 10.9l0.8 1.3-1.25 0.8q-2.75 1.75-4.3 4.55-1.55 2.85-1.55 6.05 0 1.75 0.55 3.55 3.45 0.2 6.5 1.6 1.55 0.65 2.4 1.3-4.6-1.7-8.35-1.2l0.05 0.1-1.45 0.5q-5.15 1.85-8.3 6.3-3.2 4.45-3.2 9.9 0 7.1 5.05 12.15t12.15 5.05q3.9 0 7.4-1.65l2-1 0.15 2.25q0.55 7.95 6.4 13.4t13.8 5.45q5.4 0 10.15-2.7 4.7-2.7 7.4-7.4l1.05-1.85 1.45 1.6q2.45 2.75 5.8 4.25t7 1.5q7.15 0 12.15-5.05 5.05-5 5.05-12.15 0-4.8-2.5-8.8l-0.75-1.25q-4-5.1-10.25-6.9l4.15 1q4.8 1.6 8.05 4.8"/>
  <path d="m-18.9-23.65q-2.7-2.1-4-5.1-2.55-5.95 4.55-10.3l-1 1.2-1.65 3.35q-1.85 5.55 2.1 10.85"/>
  <path d="m19.4-50.7q8.15-1.5 8.75 3.1 0.3 2.25-1.05 4.85 1-4.95-3.25-6.95l-4.45-1"/>
 </g>
</svg>
