<?xml version="1.0" encoding="UTF-8" standalone="no"?>
<svg xmlns:xlink="http://www.w3.org/1999/xlink" height="178.7px" width="121.05px" xmlns="http://www.w3.org/2000/svg">
  <g transform="matrix(1.0, 0.0, 0.0, 1.0, 60.55, 89.35)">
    <path d="M60.5 -41.9 Q60.5 -32.65 54.85 -25.15 49.25 -17.75 40.4 -15.15 L40.55 -14.8 40.85 -14.35 40.8 -14.35 Q42.55 -10.35 42.55 -6.5 42.55 1.9 36.6 7.85 30.65 13.8 22.3 13.8 14.6 13.8 8.6 8.3 L7.9 9.25 13.5 89.35 -13.15 89.35 -9.3 18.35 -10.55 18.4 Q-19.15 18.4 -25.7 12.7 -32.15 7.1 -33.45 -1.4 -37.25 -0.05 -40.3 -0.05 -48.65 -0.05 -54.6 -6.0 -60.55 -11.95 -60.55 -20.35 -60.55 -26.4 -57.2 -31.45 -53.85 -36.45 -48.3 -38.85 L-48.75 -42.4 Q-48.75 -46.0 -47.1 -49.25 -45.5 -52.4 -42.65 -54.65 -45.7 -60.05 -45.7 -66.0 -45.7 -75.65 -38.85 -82.5 -32.0 -89.35 -22.35 -89.35 -16.6 -89.35 -11.45 -86.6 -6.4 -83.9 -3.15 -79.15 2.5 -83.7 9.45 -83.7 16.15 -83.7 21.45 -79.75 26.75 -75.85 28.7 -69.5 L32.55 -69.85 Q44.15 -69.85 52.3 -61.65 60.5 -53.45 60.5 -41.9 M38.2 -17.65 Q46.55 -19.6 52.0 -26.45 57.45 -33.3 57.45 -41.9 57.45 -52.2 50.15 -59.45 42.85 -66.75 32.55 -66.75 L27.95 -66.35 26.5 -66.05 26.15 -67.5 Q24.75 -73.3 20.1 -76.95 15.45 -80.6 9.45 -80.6 6.15 -80.6 3.1 -79.35 0.0 -78.1 -2.4 -75.8 L-3.85 -74.45 -3.9 -74.55 Q-8.35 -69.6 -9.85 -64.3 -9.8 -66.15 -9.2 -68.65 -8.05 -73.6 -5.25 -76.8 -8.05 -81.2 -12.6 -83.7 -17.15 -86.25 -22.35 -86.25 -30.7 -86.25 -36.65 -80.3 -42.6 -74.35 -42.6 -66.0 -42.6 -60.05 -39.4 -55.1 L-38.6 -53.8 -39.85 -53.0 Q-42.6 -51.25 -44.15 -48.45 -45.7 -45.6 -45.7 -42.4 -45.7 -40.65 -45.15 -38.85 -41.7 -38.65 -38.65 -37.25 -37.1 -36.6 -36.25 -35.95 -40.85 -37.65 -44.6 -37.15 L-44.55 -37.05 -46.0 -36.55 Q-51.15 -34.7 -54.3 -30.25 -57.5 -25.8 -57.5 -20.35 -57.5 -13.25 -52.45 -8.2 -47.4 -3.15 -40.3 -3.15 -36.4 -3.15 -32.9 -4.8 L-30.9 -5.8 -30.75 -3.55 Q-30.2 4.4 -24.35 9.85 -18.5 15.3 -10.55 15.3 -5.15 15.3 -0.4 12.6 4.3 9.9 7.0 5.2 L8.05 3.35 9.5 4.95 Q11.95 7.7 15.3 9.2 18.65 10.7 22.3 10.7 29.45 10.7 34.45 5.65 39.5 0.65 39.5 -6.5 39.5 -11.3 37.0 -15.3 L36.25 -16.55 Q32.25 -21.65 26.0 -23.45 L30.15 -22.45 Q34.95 -20.85 38.2 -17.65" fill="#000000" fill-rule="evenodd" stroke="none"/>
    <path d="M-18.9 -23.65 Q-21.6 -25.75 -22.9 -28.75 -25.45 -34.7 -18.35 -39.05 L-19.35 -37.85 -21.0 -34.5 Q-22.85 -28.95 -18.9 -23.65" fill="#000000" fill-rule="evenodd" stroke="none"/>
    <path d="M19.4 -50.7 Q27.55 -52.2 28.15 -47.6 28.45 -45.35 27.1 -42.75 28.1 -47.7 23.85 -49.7 L19.4 -50.7" fill="#000000" fill-rule="evenodd" stroke="none"/>
  </g>
</svg>
