<?xml version="1.0" encoding="UTF-8" standalone="no"?>
<svg xmlns:xlink="http://www.w3.org/1999/xlink" height="38.4px" width="50.95px" xmlns="http://www.w3.org/2000/svg">
  <g transform="matrix(1.0, 0.0, 0.0, 1.0, 25.5, 19.2)">
    <path d="M14.85 -9.9 Q12.85 -9.75 10.15 -8.5 8.4 -8.15 3.8 -3.8 L-2.05 -10.7 Q-3.2 -12.25 -12.45 -14.8 -10.95 -17.15 -10.2 -17.25 9.4 -17.5 11.6 -17.2 L13.7 -14.65 Q14.65 -13.3 14.65 -12.8 L14.85 -9.9" fill="#ffffff" fill-rule="evenodd" stroke="none"/>
    <path d="M-16.3 -8.5 Q-17.4 -8.6 -19.5 -7.6 L-21.05 -7.0 -21.3 -6.3 Q-13.75 -3.85 -12.3 -2.45 L-9.65 -2.05 -6.35 -1.3 -4.45 2.4 Q-2.4 6.5 -1.85 8.45 L-0.2 7.6 1.0 6.95 Q1.35 5.9 1.35 0.4 L1.25 -2.95 Q0.95 -3.65 -1.95 -5.6 L-5.8 -7.7 -7.6 -7.2 -9.65 -6.65 -12.0 -7.3 -16.3 -8.5 M10.15 -8.5 Q12.85 -9.75 14.85 -9.9 L14.65 -12.8 Q14.65 -13.3 13.7 -14.65 L11.6 -17.2 Q9.4 -17.5 -10.2 -17.25 -10.95 -17.15 -12.45 -14.8 -3.2 -12.25 -2.05 -10.7 L3.8 -3.8 Q8.4 -8.15 10.15 -8.5 M20.95 -3.75 Q19.25 -5.55 16.5 -7.15 15.65 -7.7 12.55 -6.5 16.2 -4.75 16.6 -3.55 L19.05 4.15 Q21.0 10.8 20.95 12.1 L23.15 10.15 22.2 3.3 20.95 -3.75 M16.5 -12.85 L16.7 -9.7 16.95 -9.55 19.55 -7.75 Q22.2 -5.75 22.6 -4.65 L23.15 -3.7 24.35 2.3 Q25.5 8.7 25.45 10.95 L25.25 12.0 25.15 12.1 19.15 17.25 Q18.15 18.0 17.75 18.0 L17.1 18.0 8.7 17.9 7.6 17.05 -5.55 17.05 Q-8.4 19.2 -9.5 19.2 L-14.6 18.7 -19.15 18.1 -19.45 18.1 -19.65 17.9 Q-25.5 13.05 -25.5 11.15 -25.5 8.55 -24.5 1.15 -23.7 -5.1 -22.95 -7.25 -22.5 -8.5 -21.75 -8.7 -21.45 -8.75 -20.3 -9.3 L-17.85 -10.2 Q-15.5 -15.15 -14.0 -15.8 -11.9 -19.0 -10.25 -19.05 11.4 -19.45 12.6 -18.85 L12.75 -18.7 Q16.45 -14.8 16.5 -12.85" fill="#000000" fill-rule="evenodd" stroke="none"/>
    <path d="M16.5 -7.15 Q19.25 -5.55 20.95 -3.75 L22.2 3.3 23.15 10.15 20.95 12.1 Q21.0 10.8 19.05 4.15 L16.6 -3.55 Q16.2 -4.75 12.55 -6.5 15.65 -7.7 16.5 -7.15" fill="#ffffff" fill-rule="evenodd" stroke="none"/>
    <path d="M-19.5 -7.6 Q-17.4 -8.6 -16.3 -8.5 L-12.0 -7.3 -9.65 -6.65 -7.6 -7.2 -5.8 -7.7 -1.95 -5.6 Q0.95 -3.65 1.25 -2.95 L1.35 0.4 Q1.35 5.9 1.0 6.95 L-0.2 7.6 -1.85 8.45 Q-2.4 6.5 -4.45 2.4 L-6.35 -1.3 -9.65 -2.05 -12.3 -2.45 Q-13.75 -3.85 -21.3 -6.3 L-21.05 -7.0 -19.5 -7.6" fill="#ffffff" fill-rule="evenodd" stroke="none"/>
  </g>
</svg>
