<?xml version="1.0" encoding="UTF-8" standalone="no"?>
<svg xmlns:xlink="http://www.w3.org/1999/xlink" height="59.65px" width="61.0px" xmlns="http://www.w3.org/2000/svg">
  <g transform="matrix(1.0, 0.0, 0.0, 1.0, 30.5, 29.8)">
    <path d="M12.3 -2.05 Q9.7 -2.05 7.85 -3.9 6.0 -5.8 6.0 -8.4 6.0 -10.05 6.95 -11.7 L7.1 -11.95 18.6 -8.1 18.6 -7.8 Q18.4 -5.35 16.6 -3.7 14.75 -2.05 12.3 -2.05 M7.5 -11.0 Q6.8 -9.75 6.8 -8.4 6.8 -6.1 8.4 -4.5 10.0 -2.85 12.3 -2.85 14.4 -2.85 15.95 -4.2 17.45 -5.55 17.75 -7.6 L7.5 -11.0" fill="#000000" fill-rule="evenodd" stroke="none"/>
    <path d="M-6.7 -8.4 Q-6.7 -9.7 -7.4 -10.95 L-17.65 -7.5 Q-17.35 -5.5 -15.85 -4.2 -14.3 -2.85 -12.25 -2.85 -9.95 -2.85 -8.35 -4.5 -6.7 -6.1 -6.7 -8.4 M-18.5 -7.75 L-18.55 -8.05 -7.0 -11.9 -6.85 -11.6 Q-5.95 -10.1 -5.95 -8.4 -5.95 -5.8 -7.8 -3.9 -9.65 -2.05 -12.25 -2.05 -14.7 -2.05 -16.5 -3.7 -18.25 -5.3 -18.5 -7.75" fill="#000000" fill-rule="evenodd" stroke="none"/>
    <path d="M0.4 24.65 Q-5.95 24.65 -12.4 14.05 -14.45 10.7 -16.3 6.6 L-17.9 2.8 -18.25 1.75 -17.3 2.35 -14.4 3.7 Q-10.75 5.2 -6.75 5.95 6.0 8.35 17.8 2.3 L18.65 1.9 18.3 2.8 Q16.25 8.7 13.05 14.05 6.8 24.65 0.4 24.65" fill="#000000" fill-rule="evenodd" stroke="none"/>
    <path d="M-1.95 -0.25 L-1.95 -17.05 Q-18.9 -17.25 -26.35 -20.7 -23.7 -4.5 -18.85 7.25 -11.05 26.35 0.05 26.35 11.05 26.35 18.85 7.35 23.7 -4.45 26.35 -20.5 18.9 -17.1 1.65 -17.05 L1.65 -0.25 -1.95 -0.25 M30.5 -24.95 Q30.05 -21.1 29.0 -15.45 27.05 -5.15 24.15 3.3 15.0 29.85 0.05 29.85 -14.9 29.85 -24.05 3.3 -26.95 -5.15 -28.95 -15.45 L-30.5 -24.95 -30.35 -24.95 Q-30.0 -26.25 -28.45 -27.35 -25.85 -29.2 -20.85 -29.8 L-20.85 -22.4 Q-13.45 -20.5 0.4 -20.5 13.5 -20.5 20.65 -22.2 L20.65 -29.8 Q25.6 -29.2 28.2 -27.4 29.7 -26.3 30.15 -25.0 L30.5 -24.95" fill="#000000" fill-rule="evenodd" stroke="none"/>
  </g>
</svg>
