<?xml version="1.0" encoding="UTF-8" standalone="no"?>
<svg xmlns:xlink="http://www.w3.org/1999/xlink" height="58.4px" width="46.35px" xmlns="http://www.w3.org/2000/svg">
  <g transform="matrix(1.0, 0.0, 0.0, 1.0, 23.2, 29.2)">
    <path d="M-9.95 -0.75 L-11.4 2.45 -16.9 1.55 -15.65 -1.3 -9.95 -0.75" fill="#ffffff" fill-rule="evenodd" stroke="none"/>
    <path d="M-8.6 -0.8 Q-2.95 -1.15 1.15 -4.15 L7.3 -22.2 7.85 22.6 Q1.05 26.8 -6.4 26.8 -11.65 26.8 -16.75 24.8 L-19.7 23.45 -20.2 23.15 -20.3 19.95 Q-20.3 10.9 -17.3 2.7 L-10.65 3.8 -8.6 -0.8" fill="#ffffff" fill-rule="evenodd" stroke="none"/>
    <path d="M17.45 -12.85 Q15.45 -19.15 9.7 -23.5 L10.1 9.35 Q20.9 -2.1 17.45 -12.85 M-8.6 -0.8 L-10.65 3.8 -17.3 2.7 Q-20.3 10.9 -20.3 19.95 L-20.2 23.15 -19.7 23.45 -16.75 24.8 Q-11.65 26.8 -6.4 26.8 1.05 26.8 7.85 22.6 L7.3 -22.2 1.15 -4.15 Q-2.95 -1.15 -8.6 -0.8 M-15.65 -1.3 L-16.9 1.55 -11.4 2.45 -9.95 -0.75 -15.65 -1.3 M-21.8 -2.95 L-23.2 -3.55 Q-16.7 -16.55 -3.9 -23.85 2.85 -27.75 9.45 -29.1 L9.65 -29.2 9.65 -29.15 9.7 -29.15 9.65 -29.05 9.65 -27.55 9.75 -27.9 Q27.0 -17.1 22.05 -1.85 19.2 7.05 10.2 15.0 L10.3 23.9 9.75 24.25 Q2.25 29.2 -6.4 29.2 -12.15 29.2 -17.6 27.05 L-22.05 24.85 -22.55 24.55 -22.6 23.95 -22.75 19.95 Q-22.75 8.25 -18.1 -1.8 L-21.8 -2.95" fill="#000000" fill-rule="evenodd" stroke="none"/>
  </g>
</svg>
