<?xml version="1.0" encoding="UTF-8" standalone="no"?>
<svg xmlns:xlink="http://www.w3.org/1999/xlink" height="21.85px" width="38.95px" xmlns="http://www.w3.org/2000/svg">
  <g transform="matrix(1.0, 0.0, 0.0, 1.0, 19.45, 10.95)">
    <path d="M-9.35 -4.15 L-9.3 -2.65 -7.9 -2.45 9.3 -2.7 9.25 -4.4 Q9.25 -5.9 10.3 -6.95 11.35 -8.05 12.85 -8.05 14.35 -8.1 15.45 -7.05 16.5 -6.0 16.5 -4.5 16.6 -2.55 14.9 -1.45 L13.1 -0.2 14.95 0.95 Q16.6 2.05 16.6 3.95 16.7 5.5 15.6 6.55 14.5 7.65 13.05 7.65 11.5 7.65 10.5 6.6 9.4 5.6 9.4 4.05 L9.35 2.6 7.95 2.4 -9.25 2.65 -9.2 4.35 Q-9.2 5.85 -10.25 6.9 -11.3 7.95 -12.8 8.0 -14.25 8.0 -15.35 7.0 -16.45 5.9 -16.45 4.45 -16.45 2.45 -14.85 1.4 L-13.05 0.15 -14.9 -1.0 Q-16.55 -2.1 -16.55 -4.0 -16.6 -5.5 -15.55 -6.6 -14.5 -7.65 -13.0 -7.7 -11.5 -7.7 -10.4 -6.65 -9.35 -5.6 -9.35 -4.15" fill="#ffffff" fill-rule="evenodd" stroke="none"/>
    <path d="M-8.95 -9.1 Q-7.2 -7.65 -6.7 -5.35 L6.55 -5.55 Q6.9 -7.35 7.8 -8.55 9.8 -10.95 12.8 -10.95 15.5 -11.0 17.45 -9.1 19.35 -7.2 19.4 -4.55 19.5 -2.2 17.95 -0.35 L17.8 -0.2 Q19.5 1.75 19.5 3.95 19.6 6.3 18.1 8.1 L17.7 8.55 Q15.8 10.5 13.1 10.55 10.4 10.55 8.45 8.7 7.15 7.4 6.75 5.3 L-6.5 5.5 Q-6.85 7.3 -7.75 8.45 -9.65 10.8 -12.75 10.9 -15.45 10.95 -17.4 9.05 -19.3 7.15 -19.35 4.45 -19.45 2.15 -17.9 0.3 L-17.75 0.15 Q-19.45 -1.8 -19.45 -4.0 -19.5 -6.25 -18.05 -8.15 -16.1 -10.5 -13.05 -10.6 -10.75 -10.65 -8.95 -9.1 M-9.3 -2.65 L-9.35 -4.15 Q-9.35 -5.6 -10.4 -6.65 -11.5 -7.7 -13.0 -7.7 -14.5 -7.65 -15.55 -6.6 -16.6 -5.5 -16.55 -4.0 -16.55 -2.1 -14.9 -1.0 L-13.05 0.15 -14.85 1.4 Q-16.45 2.45 -16.45 4.45 -16.45 5.9 -15.35 7.0 -14.25 8.0 -12.8 8.0 -11.3 7.95 -10.25 6.9 -9.2 5.85 -9.2 4.35 L-9.25 2.65 7.95 2.4 9.35 2.6 9.4 4.05 Q9.4 5.6 10.5 6.6 11.5 7.65 13.05 7.65 14.5 7.65 15.6 6.55 16.7 5.5 16.6 3.95 16.6 2.05 14.95 0.95 L13.1 -0.2 14.9 -1.45 Q16.6 -2.55 16.5 -4.5 16.5 -6.0 15.45 -7.05 14.35 -8.1 12.85 -8.05 11.35 -8.05 10.3 -6.95 9.25 -5.9 9.25 -4.4 L9.3 -2.7 -7.9 -2.45 -9.3 -2.65" fill="#000000" fill-rule="evenodd" stroke="none"/>
  </g>
</svg>
