<?xml version="1.0" encoding="UTF-8" standalone="no"?>
<svg xmlns:xlink="http://www.w3.org/1999/xlink" height="43.2px" width="76.95px" xmlns="http://www.w3.org/2000/svg">
  <g transform="matrix(1.0, 0.0, 0.0, 1.0, 38.45, 21.6)">
    <path d="M15.85 -3.4 Q15.15 -2.55 14.9 -1.7 L13.25 3.15 13.25 2.8 8.1 9.0 7.75 0.95 2.8 6.9 2.45 -0.8 -2.95 5.7 -3.3 -2.75 -8.7 3.75 -9.1 -4.7 -14.25 1.55 -14.6 -6.55 -19.75 -0.3 -20.1 -8.4 -25.25 -2.15 -25.65 -10.25 -30.55 -4.3 -30.9 -12.0 -34.75 -7.35 -30.8 -19.05 15.85 -3.4" fill="#ffffff" fill-rule="evenodd" stroke="none"/>
    <path d="M14.9 -1.7 Q15.15 -2.55 15.85 -3.4 L-30.8 -19.05 -34.75 -7.35 -30.9 -12.0 -30.55 -4.3 -25.65 -10.25 -25.25 -2.15 -20.1 -8.4 -19.75 -0.3 -14.6 -6.55 -14.25 1.55 -9.1 -4.7 -8.7 3.75 -3.3 -2.75 -2.95 5.7 2.45 -0.8 2.8 6.9 7.75 0.95 8.1 9.0 13.25 2.8 13.25 3.15 14.9 -1.7 M25.7 0.95 Q24.7 0.6 23.65 1.3 22.65 2.0 22.2 3.3 L19.5 11.25 Q19.1 12.55 19.5 13.75 19.9 14.9 20.9 15.25 L27.95 17.65 29.4 17.6 Q29.4 9.15 33.7 3.95 33.3 3.45 32.75 3.3 L25.7 0.95 M21.3 -4.9 L35.0 -0.3 Q37.0 0.4 37.95 2.25 38.9 4.15 38.2 6.15 L34.2 18.1 Q33.55 20.1 31.65 21.05 L27.8 21.3 14.05 16.7 Q12.05 16.05 11.15 14.15 10.2 12.3 10.85 10.3 L11.5 8.4 11.5 8.05 6.3 14.25 5.95 6.2 1.05 12.15 0.7 4.45 -1.7 7.35 -1.5 7.4 -4.85 11.45 -5.1 6.25 -4.9 6.3 -5.05 2.5 -7.5 5.4 -7.3 5.5 -10.6 9.5 -10.85 4.3 -10.65 4.35 -10.85 0.55 -16.0 6.75 -16.35 -1.3 -21.5 4.9 -21.9 -3.15 -27.05 3.05 -27.4 -5.0 -32.3 0.95 -32.65 -6.75 -36.6 -2.0 -38.45 -2.65 -32.1 -21.6 17.95 -4.8 21.3 -4.9" fill="#000000" fill-rule="evenodd" stroke="none"/>
  </g>
</svg>
