<?xml version="1.0" encoding="UTF-8" standalone="no"?>
<svg xmlns:xlink="http://www.w3.org/1999/xlink" height="49.95px" width="15.65px" xmlns="http://www.w3.org/2000/svg">
  <g transform="matrix(1.0, 0.0, 0.0, 1.0, 7.8, 25.0)">
    <path d="M-4.85 6.35 L-4.85 -0.05 4.85 -0.05 4.85 10.15 Q3.05 10.05 2.3 8.7 1.85 7.95 1.85 7.15 1.85 6.45 1.1 6.45 0.4 6.45 0.4 7.15 L0.55 8.35 Q0.9 9.6 1.7 10.4 2.9 11.55 4.85 11.6 L4.85 21.95 -4.85 21.95 -4.85 11.45 -4.1 11.55 -3.6 11.45 -3.6 11.9 -3.35 12.45 -2.85 12.65 -2.3 12.45 -2.1 11.9 -2.1 6.2 Q-2.1 5.45 -2.85 5.45 -3.6 5.45 -3.6 6.2 L-3.6 8.85 -4.1 8.75 -4.6 8.05 -4.95 6.6 -4.95 5.8 -4.85 6.35" fill="#ffffff" fill-rule="evenodd" stroke="none"/>
    <path d="M-4.85 -0.05 L-4.85 6.35 -4.95 5.8 -4.95 6.6 -4.6 8.05 -4.1 8.75 -3.6 8.85 -3.6 6.2 Q-3.6 5.45 -2.85 5.45 -2.1 5.45 -2.1 6.2 L-2.1 11.9 -2.3 12.45 -2.85 12.65 -3.35 12.45 -3.6 11.9 -3.6 11.45 -4.1 11.55 -4.85 11.45 -4.85 21.95 4.85 21.95 4.85 11.6 Q2.9 11.55 1.7 10.4 0.9 9.6 0.55 8.35 L0.4 7.15 Q0.4 6.45 1.1 6.45 1.85 6.45 1.85 7.15 1.85 7.95 2.3 8.7 3.05 10.05 4.85 10.15 L4.85 -0.05 -4.85 -0.05 M7.2 -12.0 L7.2 -11.6 Q7.15 -9.1 5.5 -7.15 3.8 -5.25 1.4 -4.85 L1.4 -3.0 6.35 -3.0 Q6.95 -3.0 7.4 -2.55 7.85 -2.15 7.85 -1.5 L7.85 23.45 Q7.85 24.1 7.4 24.5 6.95 24.95 6.35 24.95 L-6.35 24.95 Q-6.95 24.95 -7.35 24.5 L-7.8 23.45 -7.8 -1.5 -7.35 -2.55 Q-6.95 -3.0 -6.35 -3.0 L-1.6 -3.0 -1.6 -4.95 Q-3.9 -5.5 -5.4 -7.4 -6.95 -9.3 -6.95 -11.75 L-6.95 -12.25 Q-6.85 -14.9 -5.95 -17.65 -4.15 -23.1 -0.1 -24.85 L0.25 -25.0 0.55 -24.9 1.7 -24.35 3.9 -22.4 Q7.1 -18.7 7.2 -12.0 M5.3 -11.65 L5.3 -12.0 Q5.2 -17.1 3.2 -20.2 2.0 -22.1 0.35 -22.95 -2.75 -21.4 -4.2 -16.75 -5.0 -14.1 -5.0 -12.1 L-5.05 -11.75 Q-5.05 -8.9 -2.6 -7.4 -3.3 -8.25 -3.3 -9.4 L-3.3 -9.65 Q-3.25 -10.85 -2.8 -12.25 -1.9 -15.05 0.15 -15.95 L1.75 -14.75 Q3.35 -12.9 3.4 -9.55 L3.4 -9.35 Q3.4 -8.15 2.5 -7.25 3.75 -7.9 4.5 -9.05 5.25 -10.25 5.3 -11.65" fill="#000000" fill-rule="evenodd" stroke="none"/>
    <path d="M5.3 -12.0 L5.3 -11.65 Q5.25 -10.25 4.5 -9.05 3.75 -7.9 2.5 -7.25 3.4 -8.15 3.4 -9.35 L3.4 -9.55 Q3.35 -12.9 1.75 -14.75 L0.15 -15.95 Q-1.9 -15.05 -2.8 -12.25 -3.25 -10.85 -3.3 -9.65 L-3.3 -9.4 Q-3.3 -8.25 -2.6 -7.4 -5.05 -8.9 -5.05 -11.75 L-5.0 -12.1 Q-5.0 -14.1 -4.2 -16.75 -2.75 -21.4 0.35 -22.95 2.0 -22.1 3.2 -20.2 5.2 -17.1 5.3 -12.0" fill="#ffffff" fill-rule="evenodd" stroke="none"/>
  </g>
</svg>
