<?xml version="1.0" encoding="UTF-8" standalone="no"?>
<svg xmlns:xlink="http://www.w3.org/1999/xlink" height="27.0px" width="41.35px" xmlns="http://www.w3.org/2000/svg">
  <g transform="matrix(1.0, 0.0, 0.0, 1.0, 20.7, 13.5)">
    <path d="M-17.7 9.9 L-17.7 -8.95 -5.95 0.8 -17.7 9.9" fill="#ffffff" fill-rule="evenodd" stroke="none"/>
    <path d="M-4.75 1.8 L-0.55 5.3 4.8 1.05 15.95 10.5 -16.0 10.5 -4.75 1.8" fill="#ffffff" fill-rule="evenodd" stroke="none"/>
    <path d="M16.25 -10.5 L-0.5 2.7 -16.45 -10.5 16.25 -10.5" fill="#ffffff" fill-rule="evenodd" stroke="none"/>
    <path d="M17.65 10.0 L6.0 0.1 17.65 -9.05 17.65 10.0" fill="#ffffff" fill-rule="evenodd" stroke="none"/>
    <path d="M-0.5 2.7 L16.25 -10.5 -16.45 -10.5 -0.5 2.7 M-0.55 5.3 L-4.75 1.8 -16.0 10.5 15.95 10.5 4.8 1.05 -0.55 5.3 M17.65 10.0 L17.65 -9.05 6.0 0.1 17.65 10.0 M-20.7 13.5 L-20.7 -13.5 20.65 -13.5 20.65 13.5 -20.7 13.5 M-17.7 -8.95 L-17.7 9.9 -5.95 0.8 -17.7 -8.95" fill="#000000" fill-rule="evenodd" stroke="none"/>
  </g>
</svg>
