<?xml version="1.0" encoding="UTF-8" standalone="no"?>
<svg xmlns:xlink="http://www.w3.org/1999/xlink" height="26.65px" width="55.25px" xmlns="http://www.w3.org/2000/svg">
  <g transform="matrix(1.0, 0.0, 0.0, 1.0, 27.65, 13.3)">
    <path d="M-16.45 9.75 L-17.35 9.75 -17.7 9.6 -17.9 9.2 -17.9 5.6 0.05 -9.7 6.8 -9.7 -16.45 9.75" fill="#ffffff" fill-rule="evenodd" stroke="none"/>
    <path d="M-17.7 -9.55 L-17.35 -9.7 -2.7 -9.7 -17.9 3.25 -17.9 -9.15 -17.7 -9.55" fill="#ffffff" fill-rule="evenodd" stroke="none"/>
    <path d="M17.65 9.6 L17.25 9.75 6.9 9.75 5.05 9.25 Q4.8 6.0 4.25 4.45 3.6 2.4 2.3 1.7 1.35 1.1 -0.3 1.1 -1.95 1.1 -2.85 1.7 -3.85 2.2 -4.35 3.25 -5.2 4.9 -5.65 9.2 L-6.2 9.75 -13.65 9.75 9.65 -9.7 17.25 -9.7 17.65 -9.55 17.8 -9.15 17.8 9.2 17.65 9.6" fill="#ffffff" fill-rule="evenodd" stroke="none"/>
    <path d="M-17.35 9.75 L-16.45 9.75 6.8 -9.7 0.05 -9.7 -17.9 5.6 -17.9 9.2 -17.7 9.6 -17.35 9.75 M-17.7 -9.55 L-17.9 -9.15 -17.9 3.25 -2.7 -9.7 -17.35 -9.7 -17.7 -9.55 M17.25 -9.7 L9.65 -9.7 -13.65 9.75 -6.2 9.75 Q-5.75 9.75 -5.65 9.25 L-5.65 9.2 Q-5.2 4.9 -4.35 3.25 -3.85 2.2 -2.85 1.7 -1.95 1.1 -0.3 1.1 1.35 1.1 2.3 1.7 3.6 2.4 4.25 4.45 4.8 6.0 5.05 9.25 5.15 9.75 5.6 9.75 L17.25 9.75 17.65 9.6 17.8 9.2 17.8 -9.15 17.65 -9.55 17.25 -9.7 M27.6 -6.55 L27.6 4.45 21.4 4.45 21.4 9.2 Q21.4 10.9 20.2 12.1 18.95 13.35 17.25 13.35 L5.6 13.35 Q4.05 13.35 2.85 12.25 1.65 11.2 1.5 9.6 L0.85 5.6 0.5 4.85 0.45 4.8 -0.3 4.7 -1.05 4.8 -1.2 5.05 Q-1.75 5.75 -2.1 9.6 -2.25 11.2 -3.45 12.25 -4.6 13.35 -6.2 13.35 L-17.35 13.35 Q-19.05 13.35 -20.25 12.15 -21.5 10.9 -21.5 9.2 L-21.5 4.45 -27.65 4.45 -27.65 -6.55 -21.5 -6.55 -21.5 -9.15 Q-21.5 -10.85 -20.25 -12.1 -19.05 -13.3 -17.35 -13.3 L17.25 -13.3 Q18.9 -13.3 20.2 -12.1 21.4 -10.8 21.4 -9.15 L21.4 -6.55 27.6 -6.55" fill="#000000" fill-rule="evenodd" stroke="none"/>
  </g>
</svg>
