<?xml version="1.0" encoding="UTF-8" standalone="no"?>
<svg xmlns:xlink="http://www.w3.org/1999/xlink" height="75.8px" width="146.5px" xmlns="http://www.w3.org/2000/svg">
  <g transform="matrix(1.0, 0.0, 0.0, 1.0, 73.25, 37.9)">
    <path d="M-24.75 4.1 L-24.7 0.0 Q-24.05 -1.15 -24.05 -1.7 L-24.05 -1.75 -23.75 -2.1 Q-21.95 -4.1 -17.3 -4.15 L52.7 -4.15 54.75 -3.95 Q59.05 -3.25 61.75 -1.4 64.8 0.8 65.45 4.1 L-24.75 4.1" fill="#ffffff" fill-rule="evenodd" stroke="none"/>
    <path d="M-24.7 0.0 L-24.75 0.6 -24.75 4.1 65.45 4.1 Q64.8 0.8 61.75 -1.4 59.05 -3.25 54.75 -3.95 L52.7 -4.15 -17.3 -4.15 Q-21.95 -4.1 -23.75 -2.1 L-24.05 -1.75 -24.05 -1.7 Q-24.05 -1.15 -24.7 0.0 M-69.75 7.0 L-69.75 12.75 70.35 12.75 70.35 7.0 -69.75 7.0 M-62.25 -9.15 Q-64.8 -6.6 -66.05 -3.2 -55.2 -0.9 -44.2 -0.9 -34.85 -0.9 -27.5 -2.7 L-27.85 -3.35 Q-29.3 -5.85 -31.3 -7.85 -37.75 -14.4 -48.0 -14.45 -57.0 -14.4 -62.25 -9.15 M-66.4 -2.25 L-66.45 -2.1 -66.45 -2.0 -66.25 -1.7 Q-65.4 -0.6 -63.9 0.25 -58.35 3.4 -46.25 3.4 -35.25 3.4 -30.15 0.85 -27.8 -0.35 -27.05 -1.8 -34.8 0.1 -44.2 0.1 -55.5 0.1 -66.4 -2.25 M-73.25 -37.9 L-66.8 -37.9 -66.8 -8.1 -65.6 -9.8 Q-62.95 -13.1 -59.05 -15.0 -54.2 -17.35 -48.0 -17.35 -36.6 -17.35 -29.25 -9.9 -26.9 -7.55 -25.3 -4.75 -22.55 -7.15 -17.3 -7.15 L52.7 -7.15 55.2 -6.9 Q58.1 -6.45 60.5 -5.45 63.45 -4.3 65.5 -2.1 67.95 0.5 68.5 4.1 L73.25 4.1 73.25 15.65 72.85 15.65 72.85 37.9 66.45 37.9 66.45 15.65 -66.8 15.65 -66.8 37.9 -73.25 37.9 -73.25 -37.9" fill="#000000" fill-rule="evenodd" stroke="none"/>
    <path d="M-69.75 12.75 L-69.75 7.0 70.35 7.0 70.35 12.75 -69.75 12.75" fill="#ffffff" fill-rule="evenodd" stroke="none"/>
    <path d="M-63.9 0.25 Q-65.4 -0.6 -66.25 -1.7 L-66.45 -2.0 -66.45 -2.1 -66.4 -2.25 Q-55.5 0.1 -44.2 0.1 -34.8 0.1 -27.05 -1.8 -27.8 -0.35 -30.15 0.85 -35.25 3.4 -46.25 3.4 -58.35 3.4 -63.9 0.25" fill="#ffffff" fill-rule="evenodd" stroke="none"/>
    <path d="M-66.05 -3.2 Q-64.8 -6.6 -62.25 -9.15 -57.0 -14.4 -48.0 -14.45 -37.75 -14.4 -31.3 -7.85 -29.3 -5.85 -27.85 -3.35 L-27.5 -2.7 Q-34.85 -0.9 -44.2 -0.9 -55.2 -0.9 -66.05 -3.2" fill="#ffffff" fill-rule="evenodd" stroke="none"/>
  </g>
</svg>
