<?xml version="1.0" encoding="UTF-8" standalone="no"?>
<svg xmlns:xlink="http://www.w3.org/1999/xlink" height="13.7px" width="29.35px" xmlns="http://www.w3.org/2000/svg">
  <g transform="matrix(1.0, 0.0, 0.0, 1.0, 14.65, 6.85)">
    <path d="M-9.6 -0.2 L-12.0 2.65 -12.2 -2.8 -9.6 -0.2" fill="#ffffff" fill-rule="evenodd" stroke="none"/>
    <path d="M12.05 2.65 L9.65 -0.2 12.25 -2.8 12.05 2.65" fill="#ffffff" fill-rule="evenodd" stroke="none"/>
    <path d="M12.05 2.65 L12.25 -2.8 9.65 -0.2 12.05 2.65 M-12.2 -2.8 L-12.0 2.65 -9.6 -0.2 -12.2 -2.8 M-3.9 -3.8 L-4.05 -3.8 Q-5.05 -3.8 -5.75 -3.1 -6.45 -2.4 -6.45 -1.45 L-6.45 1.9 Q-6.45 2.85 -5.75 3.55 -5.05 4.25 -4.05 4.25 L-3.5 4.25 -0.35 2.9 -2.65 1.8 -5.25 0.7 Q-5.5 0.7 -2.95 -0.2 L-0.35 -1.1 -3.9 -3.8 M6.05 -3.1 Q5.4 -3.8 4.4 -3.8 L0.95 -3.8 4.6 -0.85 -0.35 0.7 4.6 3.0 1.8 4.25 4.4 4.25 Q5.4 4.25 6.05 3.55 6.75 2.9 6.75 1.9 L6.75 -1.45 Q6.75 -2.4 6.05 -3.1 M14.0 -6.75 Q14.7 -6.5 14.7 -5.65 L14.25 5.75 Q14.15 6.55 13.45 6.8 L13.1 6.85 Q12.5 6.85 12.2 6.45 L9.0 2.6 Q8.75 4.3 7.45 5.4 6.15 6.55 4.4 6.55 L-4.05 6.55 Q-5.9 6.55 -7.2 5.35 -8.55 4.1 -8.7 2.3 L-12.15 6.45 Q-12.45 6.85 -13.05 6.85 L-13.4 6.8 Q-14.2 6.55 -14.2 5.75 L-14.65 -5.65 Q-14.65 -6.5 -13.95 -6.75 -13.25 -7.05 -12.65 -6.55 L-8.6 -2.5 Q-8.25 -4.1 -7.0 -5.1 -5.7 -6.15 -4.05 -6.15 L4.4 -6.15 Q6.0 -6.15 7.25 -5.15 8.5 -4.2 8.9 -2.7 L12.7 -6.55 Q13.3 -7.05 14.0 -6.75" fill="#000000" fill-rule="evenodd" stroke="none"/>
    <path d="M-4.05 -3.8 L-3.9 -3.8 -0.35 -1.1 -2.95 -0.2 Q-5.5 0.7 -5.25 0.7 L-2.65 1.8 -0.35 2.9 -3.5 4.25 -4.05 4.25 Q-5.05 4.25 -5.75 3.55 -6.45 2.85 -6.45 1.9 L-6.45 -1.45 Q-6.45 -2.4 -5.75 -3.1 -5.05 -3.8 -4.05 -3.8" fill="#ffffff" fill-rule="evenodd" stroke="none"/>
    <path d="M4.4 -3.8 Q5.4 -3.8 6.05 -3.1 6.75 -2.4 6.75 -1.45 L6.75 1.9 Q6.75 2.9 6.05 3.55 5.4 4.25 4.4 4.25 L1.8 4.25 4.6 3.0 -0.35 0.7 4.6 -0.85 0.95 -3.8 4.4 -3.8" fill="#ffffff" fill-rule="evenodd" stroke="none"/>
  </g>
</svg>
