<?xml version="1.0" encoding="UTF-8" standalone="no"?>
<svg xmlns:xlink="http://www.w3.org/1999/xlink" height="47.75px" width="88.95px" xmlns="http://www.w3.org/2000/svg">
  <g transform="matrix(1.0, 0.0, 0.0, 1.0, 44.45, 23.85)">
    <path d="M-19.1 -8.5 L-18.35 -5.85 -15.7 -5.85 -16.45 -8.5 -19.1 -8.5 M-19.95 -11.15 L-22.6 -11.15 -21.85 -8.5 -19.2 -8.5 -19.95 -11.15 M4.05 -16.8 L5.05 -14.9 13.2 11.05 Q13.15 11.9 12.55 12.5 11.9 13.1 11.05 13.1 L-25.0 13.1 Q-26.4 13.15 -27.2 10.75 L-35.35 -15.25 Q-35.3 -16.1 -34.7 -16.7 -34.05 -17.3 -33.2 -17.3 L2.85 -17.3 Q3.6 -17.3 4.05 -16.8 M-4.25 -11.15 L-6.9 -11.15 -6.15 -8.5 -8.75 -8.5 -7.95 -5.85 -10.5 -5.85 -11.95 -10.85 -14.6 -10.85 -13.15 -5.85 -15.65 -5.85 -11.95 6.9 -9.3 6.9 -11.5 -0.6 -9.2 -0.6 -7.75 4.25 -7.85 4.25 -7.1 6.9 -4.45 6.9 -5.15 4.6 -5.05 4.6 -6.55 -0.65 -6.5 -0.65 -7.25 -3.2 -7.15 -3.2 -7.9 -5.85 -5.35 -5.85 -6.1 -8.5 -3.5 -8.5 -4.25 -11.15" fill="#ffffff" fill-rule="evenodd" stroke="none"/>
    <path d="M-30.25 15.6 Q-30.8 15.05 -31.2 13.65 L-41.45 -18.95 -40.8 -20.3 Q-40.2 -20.85 -39.4 -20.85 L5.95 -20.85 Q6.6 -20.8 7.0 -20.4 L8.1 -18.25 18.35 14.3 Q18.3 15.1 17.7 15.6 17.1 16.15 16.3 16.15 L-29.05 16.15 Q-29.7 16.15 -30.25 15.6 M-28.5 11.15 Q-27.45 14.5 -25.0 14.5 L11.05 14.5 Q12.5 14.5 13.55 13.45 14.6 12.4 14.6 10.95 L14.6 10.85 14.55 10.75 6.35 -15.35 5.1 -17.7 Q4.25 -18.7 2.85 -18.7 L-33.2 -18.7 Q-34.65 -18.7 -35.7 -17.65 -36.75 -16.6 -36.75 -15.15 L-36.75 -15.05 -28.5 11.15" fill="#ffffff" fill-rule="evenodd" stroke="none"/>
    <path d="M-25.0 14.5 Q-27.45 14.5 -28.5 11.15 L-36.75 -15.05 -36.75 -15.15 Q-36.75 -16.6 -35.7 -17.65 -34.65 -18.7 -33.2 -18.7 L2.85 -18.7 Q4.25 -18.7 5.1 -17.7 L6.35 -15.35 14.55 10.75 14.6 10.85 14.6 10.95 Q14.6 12.4 13.55 13.45 12.5 14.5 11.05 14.5 L-25.0 14.5 M-27.2 10.75 Q-26.4 13.15 -25.0 13.1 L11.05 13.1 Q11.9 13.1 12.55 12.5 13.15 11.9 13.2 11.05 L5.05 -14.9 4.05 -16.8 Q3.6 -17.3 2.85 -17.3 L-33.2 -17.3 Q-34.05 -17.3 -34.7 -16.7 -35.3 -16.1 -35.35 -15.25 L-27.2 10.75" fill="#000000" fill-rule="evenodd" stroke="none"/>
    <path d="M-29.95 19.05 Q-31.5 18.75 -32.5 17.6 -33.4 16.55 -34.05 14.55 L-44.45 -18.55 -44.45 -18.75 Q-44.45 -20.85 -42.95 -22.35 -41.5 -23.85 -39.4 -23.85 L5.95 -23.85 Q8.1 -23.85 9.25 -22.35 10.05 -21.45 10.9 -19.35 L10.95 -19.3 21.35 13.85 21.35 14.1 Q21.35 15.45 20.65 16.55 L41.15 16.55 Q42.55 16.55 43.5 17.3 44.5 18.05 44.5 19.05 L44.5 21.4 Q44.5 22.45 43.5 23.2 42.55 23.9 41.15 23.9 L-26.6 23.9 Q-28.0 23.9 -28.95 23.2 -29.95 22.45 -29.95 21.4 L-29.95 19.05 M-31.2 13.65 Q-30.8 15.05 -30.25 15.6 -29.7 16.15 -29.05 16.15 L16.3 16.15 Q17.1 16.15 17.7 15.6 18.3 15.1 18.35 14.3 L8.1 -18.25 7.0 -20.4 Q6.6 -20.8 5.95 -20.85 L-39.4 -20.85 Q-40.2 -20.85 -40.8 -20.3 L-41.45 -18.95 -31.2 13.65" fill="#000000" fill-rule="evenodd" stroke="none"/>
    <path d="M-11.95 -10.85 L-10.5 -5.85 -7.9 -5.85 -7.15 -3.2 -7.25 -3.2 -6.5 -0.65 -6.55 -0.65 -5.05 4.6 -5.15 4.6 -4.45 6.9 -7.1 6.9 -7.85 4.25 -7.75 4.25 -9.2 -0.6 -11.5 -0.6 -9.3 6.9 -11.95 6.9 -15.65 -5.85 -13.15 -5.85 -14.6 -10.85 -11.95 -10.85" fill="#000000" fill-rule="evenodd" stroke="none"/>
    <path d="M-5.35 -5.85 L-7.95 -5.85 -8.75 -8.5 -6.1 -8.5 -5.35 -5.85" fill="#000000" fill-rule="evenodd" stroke="none"/>
    <path d="M-15.7 -5.85 L-18.35 -5.85 -19.1 -8.5 -16.45 -8.5 -15.7 -5.85" fill="#000000" fill-rule="evenodd" stroke="none"/>
    <path d="M-3.5 -8.5 L-6.15 -8.5 -6.9 -11.15 -4.25 -11.15 -3.5 -8.5" fill="#000000" fill-rule="evenodd" stroke="none"/>
    <path d="M-19.2 -8.5 L-21.85 -8.5 -22.6 -11.15 -19.95 -11.15 -19.2 -8.5" fill="#000000" fill-rule="evenodd" stroke="none"/>
  </g>
</svg>
