<?xml version="1.0" encoding="UTF-8" standalone="no"?>
<svg xmlns:xlink="http://www.w3.org/1999/xlink" height="20.2px" width="27.4px" xmlns="http://www.w3.org/2000/svg">
  <g transform="matrix(1.0, 0.0, 0.0, 1.0, 13.7, 10.1)">
    <path d="M-8.45 0.5 Q-5.6 -0.75 -1.7 -0.95 L-2.25 0.65 -6.75 2.55 Q-7.25 2.75 -7.15 3.25 -7.05 3.75 -6.6 3.85 L3.45 5.85 3.55 5.85 4.2 5.45 4.25 5.3 4.4 4.75 3.85 -0.75 Q6.5 -0.4 8.5 0.5 10.0 1.2 10.8 2.05 11.55 2.8 11.5 3.45 11.55 4.1 10.8 4.85 10.0 5.75 8.5 6.4 5.0 7.9 0.0 7.9 -4.95 7.9 -8.45 6.4 -9.95 5.75 -10.8 4.85 -11.55 4.1 -11.5 3.45 -11.55 2.8 -10.8 2.05 -9.95 1.15 -8.45 0.5" fill="#ffffff" fill-rule="evenodd" stroke="none"/>
    <path d="M-2.25 0.65 L-1.7 -0.95 Q-5.6 -0.75 -8.45 0.5 -9.95 1.15 -10.8 2.05 -11.55 2.8 -11.5 3.45 -11.55 4.1 -10.8 4.85 -9.95 5.75 -8.45 6.4 -4.95 7.9 0.0 7.9 5.0 7.9 8.5 6.4 10.0 5.75 10.8 4.85 11.55 4.1 11.5 3.45 11.55 2.8 10.8 2.05 10.0 1.2 8.5 0.5 6.5 -0.4 3.85 -0.75 L4.4 4.75 4.25 5.3 4.2 5.45 3.55 5.85 3.45 5.85 -6.6 3.85 Q-7.05 3.75 -7.15 3.25 -7.25 2.75 -6.75 2.55 L-2.25 0.65 M1.75 -5.7 L-0.6 0.75 2.65 3.1 1.75 -5.7 M1.45 -9.55 Q1.65 -10.2 2.3 -10.1 2.9 -10.0 3.0 -9.35 L3.65 -3.0 Q7.0 -2.55 9.35 -1.5 13.65 0.4 13.7 3.45 13.65 6.5 9.35 8.4 5.55 10.1 0.0 10.1 -5.5 10.1 -9.35 8.4 -13.65 6.45 -13.7 3.45 -13.65 0.45 -9.35 -1.5 -5.85 -3.05 -0.85 -3.2 L1.45 -9.55" fill="#000000" fill-rule="evenodd" stroke="none"/>
    <path d="M1.75 -5.7 L2.65 3.1 -0.6 0.75 1.75 -5.7" fill="#ffffff" fill-rule="evenodd" stroke="none"/>
  </g>
</svg>
