<?xml version="1.0" encoding="UTF-8" standalone="no"?>
<svg xmlns:xlink="http://www.w3.org/1999/xlink" height="48.55px" width="52.95px" xmlns="http://www.w3.org/2000/svg">
  <g transform="matrix(1.0, 0.0, 0.0, 1.0, 26.45, 24.25)">
    <path d="M-19.4 -19.7 L-8.05 -11.95 -19.4 -17.4 -19.4 -19.7" fill="#ffffff" fill-rule="evenodd" stroke="none"/>
    <path d="M20.5 -18.45 L9.35 -13.05 20.5 -21.25 20.5 -18.45" fill="#ffffff" fill-rule="evenodd" stroke="none"/>
    <path d="M-24.45 10.5 L-24.45 -17.65 -0.85 -6.25 -0.85 21.85 -24.45 10.5 M-21.8 -10.35 Q-22.0 -9.9 -21.55 -9.65 L-5.4 -2.0 -5.2 -1.95 Q-4.8 -1.95 -4.75 -2.25 -4.45 -2.7 -4.95 -2.9 L-21.15 -10.55 Q-21.6 -10.8 -21.8 -10.35 M-21.8 -7.15 Q-22.0 -6.65 -21.55 -6.5 L-5.4 1.15 -5.2 1.2 -4.75 0.95 Q-4.5 0.55 -4.95 0.25 L-21.15 -7.4 Q-21.6 -7.6 -21.8 -7.15 M-21.15 -3.9 Q-21.6 -4.1 -21.8 -3.65 -22.0 -3.15 -21.55 -3.0 L-5.4 4.65 -5.2 4.7 -4.75 4.4 Q-4.45 4.05 -4.95 3.75 L-21.15 -3.9" fill="#ffffff" fill-rule="evenodd" stroke="none"/>
    <path d="M4.75 -2.6 L5.0 -4.3 6.25 -4.9 Q7.15 -5.3 7.15 -4.65 7.15 -3.8 6.15 -3.3 L4.75 -2.6" fill="#ffffff" fill-rule="evenodd" stroke="none"/>
    <path d="M10.55 -3.2 Q9.3 -2.55 9.3 -4.05 9.3 -5.1 9.8 -6.0 10.3 -6.9 11.0 -7.25 12.25 -7.85 12.25 -6.4 12.25 -5.35 11.75 -4.4 11.3 -3.55 10.55 -3.2" fill="#ffffff" fill-rule="evenodd" stroke="none"/>
    <path d="M21.1 -8.3 L20.55 -8.25 Q19.8 -7.95 19.8 -7.2 19.8 -6.9 20.05 -6.75 L20.55 -6.8 Q21.3 -7.15 21.3 -7.9 L21.1 -8.3 M22.1 -13.7 L20.9 -13.15 20.45 -10.45 20.35 -8.7 21.2 -9.1 22.1 -13.7 M20.5 -12.95 L19.2 -12.35 17.85 -7.7 17.6 -11.55 16.55 -11.05 14.95 -6.3 15.0 -10.3 13.75 -9.7 13.95 -3.7 15.1 -4.25 16.75 -9.25 16.95 -5.15 18.15 -5.75 20.5 -12.95 M1.15 21.2 L1.15 -6.9 24.5 -18.15 24.5 10.0 1.15 21.2 M3.8 4.4 L3.8 17.05 21.5 8.55 21.5 -4.15 3.8 4.4 M4.0 -5.0 L2.9 1.6 4.15 1.0 4.5 -1.3 5.95 -2.0 Q7.5 -2.75 8.15 -4.15 L8.05 -3.3 Q8.05 -2.1 8.7 -1.75 L10.45 -1.95 Q11.75 -2.55 12.65 -4.1 13.5 -5.65 13.5 -7.2 13.5 -8.35 12.85 -8.7 L11.1 -8.5 Q9.15 -7.55 8.4 -5.15 L8.4 -5.45 Q8.4 -7.1 6.35 -6.1 L4.0 -5.0" fill="#ffffff" fill-rule="evenodd" stroke="none"/>
    <path d="M9.35 -13.05 L20.5 -18.45 20.5 -21.25 9.35 -13.05 M1.15 -6.9 L1.15 21.2 24.5 10.0 24.5 -18.15 1.15 -6.9 M-0.85 -6.25 L-24.45 -17.65 -24.45 10.5 -0.85 21.85 -0.85 -6.25 M-26.45 -19.2 Q-26.45 -19.8 -26.0 -20.05 L-25.05 -20.15 -21.4 -18.35 -21.4 -21.6 Q-21.4 -22.25 -20.85 -22.5 L-19.8 -22.45 0.15 -8.75 20.9 -24.05 21.95 -24.15 Q22.5 -23.8 22.5 -23.25 L22.5 -19.4 25.05 -20.65 26.0 -20.55 Q26.5 -20.3 26.5 -19.7 L26.5 10.6 Q26.5 11.25 25.9 11.5 L0.8 23.6 0.75 23.75 Q0.5 24.3 -0.15 24.3 L-0.55 24.2 -25.9 12.0 Q-26.45 11.75 -26.45 11.1 L-26.45 -19.2 M-19.4 -19.7 L-19.4 -17.4 -8.05 -11.95 -19.4 -19.7" fill="#000000" fill-rule="evenodd" stroke="none"/>
    <path d="M12.25 -6.4 Q12.25 -7.85 11.0 -7.25 10.3 -6.9 9.8 -6.0 9.3 -5.1 9.3 -4.05 9.3 -2.55 10.55 -3.2 11.3 -3.55 11.75 -4.4 12.25 -5.35 12.25 -6.4 M4.5 -1.3 L4.15 1.0 2.9 1.6 4.0 -5.0 6.35 -6.1 Q8.4 -7.1 8.4 -5.45 L8.4 -5.15 Q9.15 -7.55 11.1 -8.5 L12.85 -8.7 Q13.5 -8.35 13.5 -7.2 13.5 -5.65 12.65 -4.1 11.75 -2.55 10.45 -1.95 L8.7 -1.75 Q8.05 -2.1 8.05 -3.3 L8.15 -4.15 Q7.5 -2.75 5.95 -2.0 L4.5 -1.3 M5.0 -4.3 L4.75 -2.6 6.15 -3.3 Q7.15 -3.8 7.15 -4.65 7.15 -5.3 6.25 -4.9 L5.0 -4.3" fill="#000000" fill-rule="evenodd" stroke="none"/>
    <path d="M16.55 -11.05 L17.6 -11.55 17.85 -7.7 19.2 -12.35 20.5 -12.95 18.15 -5.75 16.95 -5.15 16.75 -9.25 15.1 -4.25 13.95 -3.7 13.75 -9.7 15.0 -10.3 14.95 -6.3 16.55 -11.05" fill="#000000" fill-rule="evenodd" stroke="none"/>
    <path d="M22.1 -13.7 L21.2 -9.1 20.35 -8.7 20.45 -10.45 20.9 -13.15 22.1 -13.7" fill="#000000" fill-rule="evenodd" stroke="none"/>
    <path d="M20.55 -8.25 L21.1 -8.3 21.3 -7.9 Q21.3 -7.15 20.55 -6.8 L20.05 -6.75 Q19.8 -6.9 19.8 -7.2 19.8 -7.95 20.55 -8.25" fill="#000000" fill-rule="evenodd" stroke="none"/>
    <path d="M18.3 4.7 L18.7 4.6 18.7 2.7 18.3 2.85 18.3 4.7 M13.3 4.45 L13.3 2.85 10.6 4.15 10.6 6.0 Q10.65 6.7 11.25 6.75 L11.85 6.6 12.9 5.65 13.3 4.45 M13.85 2.6 L13.85 4.45 Q13.8 5.2 13.3 5.95 L12.05 7.05 11.25 7.25 Q10.75 7.25 10.45 6.9 10.1 6.55 10.1 6.0 L10.1 4.4 6.5 6.1 6.5 12.95 18.7 7.05 18.7 4.95 17.8 5.3 Q16.15 6.1 13.65 8.0 L13.55 8.05 13.4 7.95 13.45 7.7 Q16.15 5.55 18.15 4.8 L18.15 2.9 Q16.7 3.25 16.1 1.5 L13.85 2.6 M3.8 17.05 L3.8 4.4 21.5 -4.15 21.5 8.55 3.8 17.05" fill="#000000" fill-rule="evenodd" stroke="none"/>
    <path d="M11.25 6.75 Q10.65 6.7 10.6 6.0 L10.6 4.15 13.3 2.85 13.3 4.45 12.9 5.65 11.85 6.6 11.25 6.75" fill="#ffffff" fill-rule="evenodd" stroke="none"/>
    <path d="M18.3 2.85 L18.7 2.7 18.7 4.6 18.3 4.7 18.3 2.85" fill="#ffffff" fill-rule="evenodd" stroke="none"/>
    <path d="M13.85 4.45 L13.85 2.6 16.1 1.5 Q16.7 3.25 18.15 2.9 L18.15 4.8 Q16.15 5.55 13.45 7.7 L13.4 7.95 13.55 8.05 13.65 8.0 Q16.15 6.1 17.8 5.3 L18.7 4.95 18.7 7.05 6.5 12.95 6.5 6.1 10.1 4.4 10.1 6.0 Q10.1 6.55 10.45 6.9 10.75 7.25 11.25 7.25 L12.05 7.05 13.3 5.95 Q13.8 5.2 13.85 4.45 M14.2 4.1 L14.2 4.2 Q14.2 4.65 14.65 4.4 15.05 4.25 15.05 3.75 L15.05 3.7 14.2 4.1" fill="#ffffff" fill-rule="evenodd" stroke="none"/>
    <path d="M14.65 4.4 Q14.2 4.65 14.2 4.2 L14.2 4.1 15.05 3.7 15.05 3.75 Q15.05 4.25 14.65 4.4" fill="#000000" fill-rule="evenodd" stroke="none"/>
    <path d="M-21.55 -9.65 Q-22.0 -9.9 -21.8 -10.35 -21.6 -10.8 -21.15 -10.55 L-4.95 -2.9 Q-4.45 -2.7 -4.75 -2.25 -4.8 -1.95 -5.2 -1.95 L-5.4 -2.0 -21.55 -9.65" fill="#000000" fill-rule="evenodd" stroke="none"/>
    <path d="M-21.55 -6.5 Q-22.0 -6.65 -21.8 -7.15 -21.6 -7.6 -21.15 -7.4 L-4.95 0.25 Q-4.5 0.55 -4.75 0.95 L-5.2 1.2 -5.4 1.15 -21.55 -6.5" fill="#000000" fill-rule="evenodd" stroke="none"/>
    <path d="M-4.95 3.75 Q-4.45 4.05 -4.75 4.4 L-5.2 4.7 -5.4 4.65 -21.55 -3.0 Q-22.0 -3.15 -21.8 -3.65 -21.6 -4.1 -21.15 -3.9 L-4.95 3.75" fill="#000000" fill-rule="evenodd" stroke="none"/>
  </g>
</svg>
