<?xml version="1.0" encoding="UTF-8" standalone="no"?>
<svg xmlns:xlink="http://www.w3.org/1999/xlink" height="30.85px" width="55.5px" xmlns="http://www.w3.org/2000/svg">
  <g transform="matrix(1.0, 0.0, 0.0, 1.0, 27.75, 15.4)">
    <path d="M-17.2 -8.9 Q-15.9 -10.25 -14.2 -10.2 L-13.85 -10.2 -12.65 -9.9 Q-14.3 -7.6 -14.3 -4.75 L-14.3 -4.55 Q-15.45 -4.05 -16.5 -3.15 -16.9 -5.15 -18.7 -5.55 -18.55 -7.6 -17.2 -8.9" fill="#ffffff" fill-rule="evenodd" stroke="none"/>
    <path d="M-23.25 -1.0 Q-21.85 -2.65 -19.85 -3.05 L-19.2 -3.15 Q-18.0 -3.15 -17.3 -2.4 -20.2 0.6 -20.2 4.9 -20.2 7.8 -18.8 10.2 L-19.25 10.2 Q-21.6 10.0 -23.2 8.1 -24.85 6.2 -24.85 3.55 L-24.85 3.05 Q-24.7 0.7 -23.25 -1.0" fill="#ffffff" fill-rule="evenodd" stroke="none"/>
    <path d="M11.6 3.35 Q11.05 4.55 9.8 5.15 L7.25 5.3 Q6.0 4.9 5.35 3.65 4.85 4.9 5.4 6.2 5.95 7.5 7.2 8.05 L9.75 7.9 Q11.0 7.3 11.55 6.0 12.1 4.65 11.6 3.35 M1.55 -4.7 L2.05 -4.65 Q0.9 -5.35 -0.6 -5.35 0.1 -7.85 -1.1 -10.05 0.05 -12.35 2.35 -12.35 3.45 -12.35 4.4 -11.65 5.35 -10.95 5.85 -9.8 L6.85 -7.4 8.5 -9.45 Q9.05 -10.15 9.8 -10.15 L10.85 -9.7 11.5 -8.55 11.85 -6.65 13.65 -7.4 15.2 -7.75 Q17.0 -7.75 18.3 -6.35 19.6 -4.9 19.6 -2.85 L19.6 -2.5 Q17.3 -1.9 16.55 0.1 16.2 1.1 16.25 2.0 17.2 0.2 18.8 0.05 L20.25 0.25 20.3 0.2 20.6 0.3 Q22.35 0.65 23.5 2.15 24.7 3.75 24.7 5.8 24.7 8.15 23.15 9.85 21.65 11.45 19.6 11.45 18.0 11.45 16.6 10.35 L15.5 9.4 14.5 10.5 Q13.35 11.8 11.65 11.8 10.1 11.8 8.95 10.65 L7.95 9.65 6.85 10.55 Q5.7 11.45 4.35 11.45 2.95 11.45 1.8 10.45 L0.55 9.4 -0.45 10.75 Q-1.65 12.35 -3.5 12.35 -4.9 12.35 -5.95 11.45 L-5.05 8.3 -6.9 10.7 -7.75 11.2 Q-9.2 12.0 -10.7 12.0 -13.3 12.0 -15.2 9.95 -17.15 7.85 -17.15 4.9 -17.15 2.4 -15.75 0.45 -14.35 -1.45 -12.25 -2.0 L-10.9 -2.4 -11.1 -3.75 -11.2 -4.75 Q-11.2 -7.05 -9.75 -8.6 -8.35 -10.15 -6.4 -10.15 -5.15 -10.15 -4.05 -9.45 L-4.05 -9.4 -2.9 -8.45 Q-1.7 -7.15 -1.4 -5.3 -3.3 -5.05 -4.55 -3.7 -5.8 -2.4 -5.8 -0.65 -5.8 0.85 -4.85 2.1 -3.95 3.25 -2.45 3.75 -3.95 2.25 -3.95 0.3 -3.95 -1.75 -2.35 -3.25 -0.75 -4.7 1.55 -4.7" fill="#ffffff" fill-rule="evenodd" stroke="none"/>
    <path d="M-19.2 -3.15 L-19.85 -3.05 Q-21.85 -2.65 -23.25 -1.0 -24.7 0.7 -24.85 3.05 L-24.85 3.55 Q-24.85 6.2 -23.2 8.1 -21.6 10.0 -19.25 10.2 L-18.8 10.2 Q-20.2 7.8 -20.2 4.9 -20.2 0.6 -17.3 -2.4 -18.0 -3.15 -19.2 -3.15 M-13.85 -10.2 L-14.2 -10.2 Q-15.9 -10.25 -17.2 -8.9 -18.55 -7.6 -18.7 -5.55 -16.9 -5.15 -16.5 -3.15 -15.45 -4.05 -14.3 -4.55 L-14.3 -4.75 Q-14.3 -7.6 -12.65 -9.9 L-13.85 -10.2 M-1.1 -10.05 Q0.1 -7.85 -0.6 -5.35 0.9 -5.35 2.05 -4.65 L1.55 -4.7 Q-0.75 -4.7 -2.35 -3.25 -3.95 -1.75 -3.95 0.3 -3.95 2.25 -2.45 3.75 -3.95 3.25 -4.85 2.1 -5.8 0.85 -5.8 -0.65 -5.8 -2.4 -4.55 -3.7 -3.3 -5.05 -1.4 -5.3 -1.7 -7.15 -2.9 -8.45 L-4.05 -9.4 -4.05 -9.45 Q-5.15 -10.15 -6.4 -10.15 -8.35 -10.15 -9.75 -8.6 -11.2 -7.05 -11.2 -4.75 L-11.1 -3.75 -10.9 -2.4 -12.25 -2.0 Q-14.35 -1.45 -15.75 0.45 -17.15 2.4 -17.15 4.9 -17.15 7.85 -15.2 9.95 -13.3 12.0 -10.7 12.0 -9.2 12.0 -7.75 11.2 L-6.9 10.7 -5.05 8.3 -5.95 11.45 Q-4.9 12.35 -3.5 12.35 -1.65 12.35 -0.45 10.75 L0.55 9.4 1.8 10.45 Q2.95 11.45 4.35 11.45 5.7 11.45 6.85 10.55 L7.95 9.65 8.95 10.65 Q10.1 11.8 11.65 11.8 13.35 11.8 14.5 10.5 L15.5 9.4 16.6 10.35 Q18.0 11.45 19.6 11.45 21.65 11.45 23.15 9.85 24.7 8.15 24.7 5.8 24.7 3.75 23.5 2.15 22.35 0.65 20.6 0.3 L20.3 0.2 20.25 0.25 18.8 0.05 Q17.2 0.2 16.25 2.0 16.2 1.1 16.55 0.1 17.3 -1.9 19.6 -2.5 L19.6 -2.85 Q19.6 -4.9 18.3 -6.35 17.0 -7.75 15.2 -7.75 L13.65 -7.4 11.85 -6.65 11.5 -8.55 10.85 -9.7 9.8 -10.15 Q9.05 -10.15 8.5 -9.45 L6.85 -7.4 5.85 -9.8 Q5.35 -10.95 4.4 -11.65 3.45 -12.35 2.35 -12.35 0.05 -12.35 -1.1 -10.05 M7.7 -12.7 Q8.65 -13.2 9.8 -13.2 12.55 -13.2 13.95 -10.7 L15.2 -10.8 Q18.35 -10.8 20.5 -8.45 22.65 -6.1 22.65 -2.85 L22.65 -2.25 Q24.95 -1.25 26.35 0.9 27.75 3.1 27.75 5.8 27.75 9.4 25.4 11.95 23.05 14.5 19.6 14.5 17.65 14.55 15.75 13.5 13.85 14.9 11.65 14.9 L10.5 14.8 9.5 14.85 8.95 14.85 6.5 14.2 4.35 14.5 3.3 14.45 1.95 14.6 1.45 14.6 0.15 14.35 Q-1.5 15.45 -3.5 15.45 -5.45 15.45 -7.2 14.35 -8.95 15.1 -10.7 15.1 -14.1 15.05 -16.65 12.8 L-18.85 13.1 -19.5 13.1 Q-23.05 12.8 -25.4 10.0 -27.75 7.25 -27.75 3.55 L-27.75 2.85 Q-27.55 -0.1 -25.8 -2.4 -24.1 -4.65 -21.55 -5.55 L-21.55 -5.75 Q-21.35 -8.85 -19.25 -10.95 -17.1 -13.1 -14.2 -13.1 L-13.6 -13.1 Q-11.85 -12.95 -10.45 -12.0 -8.55 -13.2 -6.4 -13.2 -4.75 -13.2 -3.2 -12.5 -1.15 -15.4 2.35 -15.4 5.65 -15.4 7.7 -12.7" fill="#000000" fill-rule="evenodd" stroke="none"/>
    <path d="M11.6 3.35 Q12.1 4.65 11.55 6.0 11.0 7.3 9.75 7.9 L7.2 8.05 Q5.95 7.5 5.4 6.2 4.85 4.9 5.35 3.65 6.0 4.9 7.25 5.3 L9.8 5.15 Q11.05 4.55 11.6 3.35" fill="#000000" fill-rule="evenodd" stroke="none"/>
  </g>
</svg>
