<?xml version="1.0" encoding="UTF-8" standalone="no"?>
<svg xmlns:xlink="http://www.w3.org/1999/xlink" height="35.3px" width="19.9px" xmlns="http://www.w3.org/2000/svg">
  <g transform="matrix(1.0, 0.0, 0.0, 1.0, 9.95, 17.65)">
    <path d="M0.3 5.5 L0.3 1.75 Q1.8 1.85 2.9 2.95 3.95 4.0 4.1 5.5 L0.3 5.5" fill="#ffffff" fill-rule="evenodd" stroke="none"/>
    <path d="M-0.5 5.5 L-4.1 5.5 Q-4.0 4.05 -2.95 3.0 -1.95 1.95 -0.5 1.75 L-0.5 5.5" fill="#ffffff" fill-rule="evenodd" stroke="none"/>
    <path d="M-0.5 6.3 L-0.5 9.95 Q-1.95 9.75 -2.95 8.75 -3.95 7.7 -4.1 6.3 L-0.5 6.3" fill="#ffffff" fill-rule="evenodd" stroke="none"/>
    <path d="M0.3 6.3 L4.05 6.3 Q3.9 7.75 2.85 8.8 1.75 9.85 0.3 9.95 L0.3 6.3" fill="#ffffff" fill-rule="evenodd" stroke="none"/>
    <path d="M-6.3 -2.55 L5.85 -2.55 5.85 -11.5 -6.3 -11.5 -6.3 -2.55 M-3.5 9.3 Q-2.05 10.75 0.0 10.75 2.05 10.75 3.45 9.3 4.9 7.9 4.9 5.85 4.9 3.8 3.45 2.35 2.05 0.9 0.0 0.9 -2.05 0.9 -3.5 2.35 -4.95 3.8 -4.95 5.85 -4.95 7.9 -3.5 9.3 M4.85 -15.45 Q6.05 -15.45 6.9 -14.6 7.75 -13.75 7.75 -12.6 L7.75 12.6 Q7.75 13.75 6.9 14.6 6.05 15.45 4.85 15.45 L-4.9 15.45 Q-6.1 15.45 -6.9 14.6 -7.75 13.75 -7.75 12.6 L-7.75 -12.6 Q-7.75 -13.75 -6.9 -14.6 -6.1 -15.45 -4.9 -15.45 L4.85 -15.45" fill="#ffffff" fill-rule="evenodd" stroke="none"/>
    <path d="M4.85 -17.65 Q6.95 -17.65 8.45 -16.15 9.95 -14.7 9.95 -12.6 L9.95 12.6 Q9.95 14.7 8.45 16.2 6.95 17.65 4.85 17.65 L-4.9 17.65 Q-7.0 17.65 -8.45 16.2 -9.95 14.7 -9.95 12.6 L-9.95 -12.6 Q-9.95 -14.7 -8.45 -16.15 -7.0 -17.65 -4.9 -17.65 L4.85 -17.65 M7.75 -12.6 Q7.75 -13.75 6.9 -14.6 6.05 -15.45 4.85 -15.45 L-4.9 -15.45 Q-6.1 -15.45 -6.9 -14.6 -7.75 -13.75 -7.75 -12.6 L-7.75 12.6 Q-7.75 13.75 -6.9 14.6 -6.1 15.45 -4.9 15.45 L4.85 15.45 Q6.05 15.45 6.9 14.6 7.75 13.75 7.75 12.6 L7.75 -12.6" fill="#000000" fill-rule="evenodd" stroke="none"/>
    <path d="M0.3 9.95 Q1.75 9.85 2.85 8.8 3.9 7.75 4.05 6.3 L0.3 6.3 0.3 9.95 M2.9 2.95 Q1.8 1.85 0.3 1.75 L0.3 5.5 4.1 5.5 Q3.95 4.0 2.9 2.95 M-4.1 6.3 Q-3.95 7.7 -2.95 8.75 -1.95 9.75 -0.5 9.95 L-0.5 6.3 -4.1 6.3 M-3.5 2.35 Q-2.05 0.9 0.0 0.9 2.05 0.9 3.45 2.35 4.9 3.8 4.9 5.85 4.9 7.9 3.45 9.3 2.05 10.75 0.0 10.75 -2.05 10.75 -3.5 9.3 -4.95 7.9 -4.95 5.85 -4.95 3.8 -3.5 2.35 M-0.5 1.75 Q-1.95 1.95 -2.95 3.0 -4.0 4.05 -4.1 5.5 L-0.5 5.5 -0.5 1.75" fill="#000000" fill-rule="evenodd" stroke="none"/>
    <path d="M-6.3 -2.55 L-6.3 -11.5 5.85 -11.5 5.85 -2.55 -6.3 -2.55" fill="#000000" fill-rule="evenodd" stroke="none"/>
  </g>
</svg>
