<?xml version="1.0" encoding="UTF-8" standalone="no"?>
<svg xmlns:xlink="http://www.w3.org/1999/xlink" height="61.95px" width="71.65px" xmlns="http://www.w3.org/2000/svg">
  <g transform="matrix(1.0, 0.0, 0.0, 1.0, 35.85, 30.95)">
    <path d="M18.75 24.6 Q18.7 19.45 15.5 15.25 12.45 11.2 7.4 9.3 17.15 9.75 29.0 14.75 25.55 21.95 18.6 26.65 L18.75 24.6" fill="#ffffff" fill-rule="evenodd" stroke="none"/>
    <path d="M29.05 -9.35 L16.85 -10.15 Q-1.35 -10.15 -13.6 -2.8 -9.3 -9.0 -2.7 -13.2 7.15 -19.4 20.5 -19.95 L22.5 -18.2 Q26.65 -14.35 29.05 -9.35" fill="#ffffff" fill-rule="evenodd" stroke="none"/>
    <path d="M5.65 7.25 Q1.65 7.25 -1.35 8.0 -8.6 8.45 -13.65 13.15 -18.75 17.95 -18.8 24.6 L-18.65 26.65 Q-24.1 22.95 -27.6 17.45 -24.85 8.75 -17.45 2.45 -5.15 -8.1 16.85 -8.15 L29.95 -7.25 Q31.8 -2.45 31.8 2.65 31.8 7.95 29.8 12.95 16.35 7.25 5.65 7.25" fill="#ffffff" fill-rule="evenodd" stroke="none"/>
    <path d="M-22.2 4.25 Q-26.7 9.25 -28.9 15.1 -31.85 9.1 -31.85 2.65 L-31.85 2.2 Q-27.0 -8.45 -16.2 -13.3 -9.0 -16.55 -0.3 -16.85 -8.2 -12.8 -13.6 -6.15 -16.3 -2.8 -17.45 -0.15 -20.15 1.95 -22.2 4.25" fill="#ffffff" fill-rule="evenodd" stroke="none"/>
    <path d="M-12.45 -24.6 Q-6.55 -26.95 -0.05 -26.95 9.8 -26.95 17.9 -21.8 10.4 -21.15 4.05 -18.75 L1.1 -18.85 Q-6.85 -18.9 -14.1 -16.35 -25.25 -12.35 -31.25 -3.05 -29.45 -11.85 -22.55 -18.2 -18.15 -22.35 -12.45 -24.6" fill="#ffffff" fill-rule="evenodd" stroke="none"/>
    <path d="M-17.45 -0.15 Q-16.3 -2.8 -13.6 -6.15 -8.2 -12.8 -0.3 -16.85 -9.0 -16.55 -16.2 -13.3 -27.0 -8.45 -31.85 2.2 L-31.85 2.65 Q-31.85 9.1 -28.9 15.1 -26.7 9.25 -22.2 4.25 -20.15 1.95 -17.45 -0.15 M15.5 15.25 Q18.7 19.45 18.75 24.6 L18.6 26.65 Q25.55 21.95 29.0 14.75 17.15 9.75 7.4 9.3 12.45 11.2 15.5 15.25 M10.5 15.75 Q6.15 11.9 -0.05 11.9 -6.2 11.9 -10.55 15.75 -14.8 19.45 -14.8 24.6 L-14.6 26.65 -14.55 27.35 Q-14.55 29.35 -16.15 30.4 -17.05 31.0 -18.2 31.0 -19.25 31.0 -20.2 30.45 -27.5 25.75 -31.7 18.4 -35.85 11.0 -35.85 2.65 -35.85 -11.3 -25.3 -21.1 -14.85 -30.9 -0.05 -30.95 14.75 -30.9 25.25 -21.1 35.8 -11.3 35.8 2.65 35.8 11.0 31.65 18.4 27.45 25.75 20.1 30.45 19.15 31.0 18.15 31.0 16.95 31.0 16.1 30.35 14.45 29.35 14.45 27.3 L14.55 26.65 14.75 24.6 Q14.75 19.45 10.5 15.75 M16.85 -10.15 L29.05 -9.35 Q26.65 -14.35 22.5 -18.2 L20.5 -19.95 Q7.15 -19.4 -2.7 -13.2 -9.3 -9.0 -13.6 -2.8 -1.35 -10.15 16.85 -10.15 M29.95 -7.25 L16.85 -8.15 Q-5.15 -8.1 -17.45 2.45 -24.85 8.75 -27.6 17.45 -24.1 22.95 -18.65 26.65 L-18.8 24.6 Q-18.75 17.95 -13.65 13.15 -8.6 8.45 -1.35 8.0 1.65 7.25 5.65 7.25 16.35 7.25 29.8 12.95 31.8 7.95 31.8 2.65 31.8 -2.45 29.95 -7.25 M-0.05 -26.95 Q-6.55 -26.95 -12.45 -24.6 -18.15 -22.35 -22.55 -18.2 -29.45 -11.85 -31.25 -3.05 -25.25 -12.35 -14.1 -16.35 -6.85 -18.9 1.1 -18.85 L4.05 -18.75 Q10.4 -21.15 17.9 -21.8 9.8 -26.95 -0.05 -26.95" fill="#000000" fill-rule="evenodd" stroke="none"/>
  </g>
</svg>
