<?xml version="1.0" encoding="UTF-8" standalone="no"?>
<svg xmlns:xlink="http://www.w3.org/1999/xlink" height="59.35px" width="18.5px" xmlns="http://www.w3.org/2000/svg">
  <g transform="matrix(1.0, 0.0, 0.0, 1.0, 9.25, 29.65)">
    <path d="M-4.05 -8.4 L4.45 -8.4 4.45 -3.8 1.35 -3.8 Q0.85 -3.8 0.85 -3.3 0.85 -2.8 1.35 -2.8 L4.45 -2.8 4.45 1.0 2.75 1.0 Q2.35 1.0 2.35 1.35 2.35 1.75 2.75 1.75 L4.45 1.75 4.45 5.9 1.35 5.9 Q0.85 5.9 0.85 6.35 0.85 6.85 1.35 6.85 L4.45 6.85 4.45 10.3 2.75 10.3 Q2.35 10.3 2.35 10.7 2.35 11.1 2.75 11.1 L4.45 11.1 4.45 15.55 1.35 15.55 Q0.85 15.55 0.85 16.05 0.85 16.55 1.35 16.55 L4.45 16.55 4.45 20.7 -4.05 20.7 -4.05 -8.4" fill="#ffffff" fill-rule="evenodd" stroke="none"/>
    <path d="M4.45 -8.4 L-4.05 -8.4 -4.05 20.7 4.45 20.7 4.45 16.55 1.35 16.55 Q0.85 16.55 0.85 16.05 0.85 15.55 1.35 15.55 L4.45 15.55 4.45 11.1 2.75 11.1 Q2.35 11.1 2.35 10.7 2.35 10.3 2.75 10.3 L4.45 10.3 4.45 6.85 1.35 6.85 Q0.85 6.85 0.85 6.35 0.85 5.9 1.35 5.9 L4.45 5.9 4.45 1.75 2.75 1.75 Q2.35 1.75 2.35 1.35 2.35 1.0 2.75 1.0 L4.45 1.0 4.45 -2.8 1.35 -2.8 Q0.85 -2.8 0.85 -3.3 0.85 -3.8 1.35 -3.8 L4.45 -3.8 4.45 -8.4 M-0.65 -28.65 L-0.35 -29.35 0.35 -29.65 1.05 -29.35 1.35 -28.65 1.35 -10.9 5.7 -10.9 Q6.25 -10.9 6.55 -10.5 6.95 -10.1 6.95 -9.6 L6.95 20.7 8.0 20.7 Q8.55 20.7 8.9 21.05 9.25 21.45 9.25 21.95 9.25 22.5 8.9 22.85 8.55 23.2 8.0 23.2 L6.1 23.2 5.7 23.3 2.15 23.3 2.15 27.35 5.2 27.35 Q5.7 27.35 6.0 27.7 6.35 28.05 6.35 28.55 6.35 29.05 6.0 29.35 5.7 29.7 5.2 29.7 L-4.8 29.7 -5.65 29.35 Q-6.0 29.05 -6.0 28.55 -6.0 28.05 -5.65 27.7 -5.3 27.35 -4.8 27.35 L-1.45 27.35 -1.45 23.3 -5.3 23.3 -5.75 23.2 -8.0 23.2 -8.9 22.85 Q-9.25 22.5 -9.25 21.95 -9.25 21.45 -8.9 21.05 -8.5 20.7 -8.0 20.7 L-6.55 20.7 -6.55 -9.6 Q-6.55 -10.2 -6.2 -10.5 -5.8 -10.9 -5.3 -10.9 L-0.65 -10.9 -0.65 -28.65" fill="#000000" fill-rule="evenodd" stroke="none"/>
  </g>
</svg>
