<?xml version="1.0" encoding="UTF-8" standalone="no"?>
<svg xmlns:xlink="http://www.w3.org/1999/xlink" height="122.2px" width="94.1px" xmlns="http://www.w3.org/2000/svg">
  <g transform="matrix(1.0, 0.0, 0.0, 1.0, 47.05, 61.1)">
    <path d="M39.7 -41.25 Q41.4 -43.95 41.45 -46.65 41.55 -50.2 38.25 -52.95 35.9 -55.0 33.05 -55.0 29.85 -55.0 26.35 -52.35 L24.45 -50.6 23.7 -49.8 7.1 -31.35 1.35 -24.5 -7.0 -14.3 -8.55 -14.5 Q-11.65 -14.5 -14.05 -11.75 L-29.55 3.45 -31.95 6.4 Q-34.35 9.95 -34.75 13.25 -35.1 18.1 -35.65 20.65 -36.55 25.15 -38.5 26.8 -39.0 27.3 -39.0 28.0 -39.05 28.65 -38.6 29.15 L-15.2 54.6 Q-14.8 55.05 -14.1 55.15 L-13.35 55.3 -13.2 55.3 Q-4.7 54.5 3.6 50.4 7.8 48.35 10.35 46.35 L10.5 46.25 14.0 42.95 15.3 41.9 15.2 41.85 31.95 26.8 33.55 24.8 Q35.05 22.35 35.1 19.65 35.1 16.15 32.4 13.1 30.8 11.25 28.9 10.55 L29.05 10.45 31.2 8.15 Q33.3 5.3 33.35 2.2 33.35 -1.2 30.45 -3.9 28.4 -5.8 26.2 -6.3 28.35 -9.05 28.4 -11.9 28.5 -15.05 25.45 -17.65 23.05 -19.75 20.35 -20.0 L37.05 -37.85 39.7 -41.25 M46.15 -47.7 L46.2 -46.8 Q46.2 -43.2 44.15 -39.6 43.0 -37.5 40.75 -34.95 L27.8 -22.1 28.2 -21.8 28.45 -21.65 Q31.35 -19.1 32.5 -15.85 33.05 -14.3 33.15 -12.4 L33.15 -11.7 Q33.15 -10.75 32.6 -8.85 L32.55 -8.6 32.75 -8.4 33.6 -7.75 Q36.25 -5.25 37.4 -2.05 38.05 -0.15 38.1 1.65 L38.1 2.4 Q37.95 5.95 35.95 9.3 L35.8 9.55 36.0 9.8 Q38.2 12.3 39.05 14.95 39.7 16.75 39.8 19.0 L39.8 19.45 Q39.8 22.6 38.45 25.6 37.15 28.35 35.1 30.3 L13.15 50.15 Q10.55 52.15 6.25 54.35 -1.7 58.45 -9.9 59.75 L-10.0 59.75 -12.25 60.15 -12.4 60.15 -13.6 60.25 -15.85 59.8 -15.9 59.8 -16.25 59.65 -16.3 59.7 -16.45 59.65 Q-18.25 59.05 -19.3 57.9 L-19.3 57.85 -20.1 57.1 -20.1 57.05 -45.65 29.4 -45.9 29.0 -46.2 27.95 -45.75 26.9 -42.25 22.9 Q-41.45 22.0 -40.8 18.6 L-40.25 13.95 -40.15 12.65 Q-39.75 8.55 -37.0 4.15 -35.4 1.55 -33.6 -0.25 L-17.9 -15.6 Q-14.5 -19.15 -9.95 -19.55 L-9.75 -19.55 -9.65 -19.7 -3.15 -27.65 17.55 -50.2 Q19.8 -53.05 22.45 -55.4 27.4 -59.85 31.5 -60.2 L32.7 -60.25 Q37.4 -60.25 41.2 -57.0 44.4 -54.25 45.5 -50.85 46.1 -49.2 46.15 -47.7" fill="#ffffff" fill-rule="evenodd" stroke="none"/>
    <path d="M-1.05 23.95 Q-1.2 24.3 -1.0 24.5 L3.05 28.55 3.35 28.7 3.65 28.6 4.9 27.35 Q6.1 25.9 6.15 24.45 6.15 23.15 5.0 22.2 4.05 21.3 2.85 21.3 1.4 21.35 0.05 22.65 L-1.05 23.95 M27.7 4.05 Q27.8 4.4 28.1 4.4 L28.25 4.35 Q28.65 4.25 28.55 3.8 27.85 1.25 25.85 -0.15 L23.95 -1.15 Q23.55 -1.25 23.45 -0.8 23.35 -0.4 23.75 -0.3 L24.2 -0.1 25.35 0.55 Q27.05 1.75 27.7 4.05 M-2.85 21.75 L-1.05 19.05 0.2 17.7 Q3.45 20.15 7.3 20.2 10.4 20.2 12.95 18.35 14.85 17.05 15.85 15.2 16.7 13.55 16.65 11.9 16.65 10.05 15.85 8.35 L15.0 6.9 14.9 6.75 14.75 6.6 21.95 -1.75 22.05 -1.7 23.0 -2.55 Q23.9 -3.2 24.8 -3.15 26.3 -3.15 28.2 -1.45 29.95 0.25 30.05 2.2 30.05 4.15 28.5 6.15 L27.4 7.45 27.05 7.8 26.9 7.9 23.0 11.1 Q21.55 11.9 20.35 13.3 L20.25 13.3 6.15 28.45 4.75 29.65 2.9 29.95 Q0.5 29.95 -2.05 27.8 -3.55 26.45 -3.65 24.6 L-3.6 24.15 -2.85 21.75" fill="#ffffff" fill-rule="evenodd" stroke="none"/>
    <path d="M33.05 -51.7 Q34.6 -51.7 36.1 -50.45 38.15 -48.65 38.15 -46.65 38.2 -44.1 34.55 -40.05 L24.8 -29.55 23.65 -28.3 20.85 -31.1 Q20.55 -31.4 20.25 -31.1 20.0 -30.75 20.25 -30.45 L23.05 -27.65 12.85 -16.85 9.75 -19.95 Q9.45 -20.25 9.1 -19.95 8.8 -19.65 9.1 -19.35 L12.25 -16.2 2.75 -6.15 -2.6 -11.75 Q-3.1 -12.3 -3.9 -12.85 L4.05 -22.6 Q7.0 -26.35 9.55 -29.1 L26.8 -48.3 Q28.0 -49.55 29.5 -50.45 31.5 -51.75 33.05 -51.7" fill="#ffffff" fill-rule="evenodd" stroke="none"/>
    <path d="M11.95 34.4 Q10.75 33.05 9.45 33.15 8.0 33.2 6.7 34.55 L5.65 35.95 Q5.45 36.3 5.75 36.5 L10.1 40.25 10.4 40.35 10.6 40.3 11.85 39.45 Q13.1 38.35 13.15 36.95 13.15 35.6 11.95 34.4 M25.2 15.75 Q25.1 16.15 25.5 16.3 L25.85 16.4 Q28.0 17.55 29.45 20.65 29.6 20.95 29.85 20.95 L30.05 20.9 Q30.45 20.7 30.25 20.3 29.05 17.7 27.3 16.3 L25.7 15.4 Q25.3 15.3 25.2 15.75 M22.3 16.05 L22.6 15.7 24.8 13.9 Q25.85 13.35 26.6 13.4 28.25 13.4 29.9 15.3 31.8 17.45 31.8 19.65 31.8 21.4 30.75 23.0 L30.0 24.05 12.0 40.3 Q10.75 41.15 9.7 41.15 7.7 41.15 5.05 38.65 4.15 37.8 4.15 36.8 4.1 36.05 4.7 34.95 5.25 33.9 6.1 33.0 L7.6 31.5 8.4 30.9 21.75 16.6 22.25 16.15 22.3 16.05" fill="#ffffff" fill-rule="evenodd" stroke="none"/>
    <path d="M23.1 -9.85 Q23.45 -10.1 23.3 -10.45 22.1 -13.05 20.35 -14.45 L18.75 -15.35 Q18.3 -15.45 18.2 -15.0 18.1 -14.6 18.5 -14.5 L18.85 -14.35 Q21.0 -13.35 22.5 -10.1 L22.9 -9.85 23.1 -9.85 M19.6 -16.75 Q21.45 -16.75 23.3 -15.15 25.1 -13.6 25.1 -11.9 25.2 -10.2 23.6 -8.45 L22.5 -7.25 22.05 -6.85 21.9 -6.75 12.5 4.2 5.0 -3.7 14.8 -14.1 14.95 -14.3 15.2 -14.55 Q17.45 -16.8 19.6 -16.75" fill="#ffffff" fill-rule="evenodd" stroke="none"/>
    <path d="M7.45 3.65 L6.75 3.55 Q5.8 3.55 5.2 4.35 4.65 5.1 4.65 6.1 4.7 8.05 6.6 10.4 L8.5 12.45 8.75 12.55 8.95 12.5 13.15 10.5 13.35 11.9 Q13.3 12.9 12.9 13.65 12.4 14.65 11.05 15.65 9.3 16.85 7.3 16.85 5.65 16.9 3.45 15.85 L2.25 15.1 1.95 14.85 1.9 14.8 1.6 14.6 -7.15 9.8 -8.4 9.65 Q-9.05 9.85 -9.4 10.45 -9.75 11.05 -9.55 11.7 -9.35 12.35 -8.75 12.7 L-4.45 15.05 -4.4 16.65 Q-4.4 18.85 -4.95 21.0 -5.6 22.4 -5.75 23.65 -7.95 29.15 -13.3 34.1 L-13.6 34.75 Q-16.35 35.2 -19.2 36.6 L-21.55 37.95 -21.9 38.5 -21.75 39.1 Q-21.55 39.45 -21.1 39.45 L-20.6 39.3 -19.85 38.85 Q-18.9 38.25 -17.85 37.8 -14.65 36.25 -11.6 36.25 -7.75 36.25 -5.0 39.0 L-4.4 39.25 -3.85 39.0 Q-3.25 38.4 -3.85 37.8 -6.75 34.9 -10.7 34.65 -7.2 31.15 -5.15 27.45 L-3.5 29.5 Q-0.6 31.95 2.55 32.15 0.85 34.6 0.85 36.8 0.75 39.15 2.8 41.1 5.3 43.45 7.75 44.15 4.45 46.45 0.35 48.25 -6.45 51.3 -13.15 51.95 L-35.15 28.0 Q-33.1 25.25 -32.25 20.55 L-31.45 13.6 Q-31.25 11.3 -29.25 8.3 L-27.25 5.75 -11.6 -9.5 Q-10.15 -11.1 -8.55 -11.2 -7.35 -11.2 -6.05 -10.35 L-5.25 -9.75 7.45 3.65" fill="#ffffff" fill-rule="evenodd" stroke="none"/>
    <path d="M2.85 22.2 Q3.65 22.2 4.45 22.85 5.25 23.6 5.25 24.45 5.3 25.5 4.2 26.8 L3.4 27.65 -0.1 24.15 0.65 23.3 Q1.8 22.15 2.85 22.2" fill="#ffffff" fill-rule="evenodd" stroke="none"/>
    <path d="M11.3 35.0 Q12.25 36.1 12.25 36.95 12.25 37.8 11.25 38.8 L10.45 39.35 6.65 36.1 7.35 35.2 Q8.4 34.05 9.45 34.05 10.4 34.05 11.3 35.0" fill="#ffffff" fill-rule="evenodd" stroke="none"/>
    <path d="M6.75 4.45 Q7.85 4.45 9.85 6.2 L12.4 8.9 12.8 9.7 8.85 11.6 7.25 9.85 Q5.5 7.7 5.5 6.1 5.5 5.5 5.9 4.85 6.25 4.45 6.75 4.45" fill="#ffffff" fill-rule="evenodd" stroke="none"/>
    <path d="M40.75 -34.95 Q43.0 -37.5 44.15 -39.6 46.2 -43.2 46.2 -46.8 L46.15 -47.7 Q46.1 -49.2 45.5 -50.85 44.4 -54.25 41.2 -57.0 37.4 -60.25 32.7 -60.25 L31.5 -60.2 Q27.4 -59.85 22.45 -55.4 19.8 -53.05 17.55 -50.2 L-3.15 -27.65 -9.65 -19.7 -9.75 -19.55 -9.95 -19.55 Q-14.5 -19.15 -17.9 -15.6 L-33.6 -0.25 Q-35.4 1.55 -37.0 4.15 -39.75 8.55 -40.15 12.65 L-40.25 13.95 -40.8 18.6 Q-41.45 22.0 -42.25 22.9 L-45.75 26.9 -46.2 27.95 -45.9 29.0 -45.65 29.4 -20.1 57.05 -20.1 57.1 -19.3 57.85 -19.3 57.9 Q-18.25 59.05 -16.45 59.65 L-16.3 59.7 -16.25 59.65 -15.9 59.8 -15.85 59.8 -13.6 60.25 -12.4 60.15 -12.25 60.15 -10.0 59.75 -9.9 59.75 Q-1.7 58.45 6.25 54.35 10.55 52.15 13.15 50.15 L35.1 30.3 Q37.15 28.35 38.45 25.6 39.8 22.6 39.8 19.45 L39.8 19.0 Q39.7 16.75 39.05 14.95 38.2 12.3 36.0 9.8 L35.8 9.55 35.95 9.3 Q37.95 5.95 38.1 2.4 L38.1 1.65 Q38.05 -0.15 37.4 -2.05 36.25 -5.25 33.6 -7.75 L32.75 -8.4 32.55 -8.6 32.6 -8.85 Q33.15 -10.75 33.15 -11.7 L33.15 -12.4 Q33.05 -14.3 32.5 -15.85 31.35 -19.1 28.45 -21.65 L28.2 -21.8 27.8 -22.1 40.75 -34.95 M44.9 -39.15 Q43.75 -37.1 41.4 -34.35 L29.1 -22.2 Q32.15 -19.55 33.35 -16.15 34.0 -14.2 34.0 -12.45 L34.0 -11.65 33.55 -8.9 34.15 -8.4 Q37.1 -5.6 38.2 -2.3 38.85 -0.45 38.95 1.65 L38.95 2.45 Q38.8 6.1 36.85 9.45 39.0 12.0 39.85 14.65 40.55 16.75 40.65 19.0 L40.65 19.45 Q40.65 22.8 39.2 25.95 37.9 28.9 35.7 30.95 L13.75 50.8 13.45 50.5 13.7 50.85 6.8 55.05 Q-1.35 59.2 -9.75 60.6 L-12.25 61.0 -12.4 61.0 -13.6 61.1 -15.75 60.75 -15.75 60.8 -17.3 60.25 Q-18.85 59.65 -19.95 58.45 L-20.7 57.7 -21.1 57.2 -46.25 30.0 Q-47.05 29.1 -47.05 27.95 -47.15 27.05 -46.35 26.35 L-43.05 22.45 -43.05 22.4 -42.9 22.3 Q-42.2 21.7 -41.65 18.45 L-41.15 13.9 -41.0 12.55 Q-40.6 8.2 -37.75 3.7 -36.05 1.0 -34.2 -0.85 L-18.5 -16.2 Q-15.0 -19.95 -10.2 -20.4 L-3.8 -28.2 16.85 -50.75 16.95 -50.8 Q19.4 -53.9 22.0 -56.2 27.05 -60.65 31.45 -61.05 L32.7 -61.1 Q37.7 -61.1 41.75 -57.65 45.1 -54.75 46.35 -51.15 46.95 -49.3 47.0 -47.8 L47.05 -46.8 Q47.05 -42.95 44.9 -39.15" fill="#000000" fill-rule="evenodd" stroke="none"/>
    <path d="M24.8 13.9 L22.6 15.7 22.3 16.05 22.25 16.15 21.75 16.6 8.4 30.9 7.6 31.5 6.1 33.0 Q5.25 33.9 4.7 34.95 4.1 36.05 4.15 36.8 4.15 37.8 5.05 38.65 7.7 41.15 9.7 41.15 10.75 41.15 12.0 40.3 L30.0 24.05 30.75 23.0 Q31.8 21.4 31.8 19.65 31.8 17.45 29.9 15.3 28.25 13.4 26.6 13.4 25.85 13.35 24.8 13.9 M6.75 3.55 L7.45 3.65 -5.25 -9.75 -6.05 -10.35 Q-7.35 -11.2 -8.55 -11.2 -10.15 -11.1 -11.6 -9.5 L-27.25 5.8 -29.25 8.3 Q-31.25 11.3 -31.45 13.6 L-32.25 20.55 Q-33.1 25.25 -35.15 28.0 L-13.15 51.95 Q-6.45 51.3 0.35 48.25 4.45 46.45 7.75 44.15 5.3 43.45 2.8 41.1 0.75 39.15 0.85 36.8 0.85 34.6 2.55 32.15 -0.6 31.95 -3.5 29.5 L-5.15 27.45 Q-7.2 31.15 -10.7 34.65 -6.75 34.9 -3.85 37.8 -3.25 38.4 -3.85 39.0 L-4.4 39.25 -5.0 39.0 Q-7.75 36.25 -11.6 36.25 -14.65 36.25 -17.85 37.8 -18.9 38.25 -19.85 38.85 L-20.6 39.3 -21.1 39.45 Q-21.55 39.45 -21.75 39.1 L-21.9 38.5 -21.55 37.95 -19.2 36.6 Q-16.35 35.2 -13.6 34.75 L-13.3 34.1 Q-7.95 29.15 -5.75 23.65 -5.6 22.4 -4.95 21.0 -4.4 18.85 -4.4 16.65 L-4.45 15.05 -8.75 12.7 Q-9.35 12.35 -9.55 11.7 -9.75 11.05 -9.4 10.45 -9.05 9.85 -8.4 9.65 L-7.15 9.8 1.6 14.6 1.9 14.8 1.95 14.85 2.25 15.1 3.45 15.85 Q5.65 16.9 7.3 16.85 9.3 16.85 11.05 15.65 12.4 14.65 12.9 13.65 13.3 12.9 13.35 11.9 L13.15 10.5 8.95 12.5 8.75 12.55 8.5 12.45 6.6 10.4 Q4.7 8.05 4.65 6.1 4.65 5.1 5.2 4.35 5.8 3.55 6.75 3.55 M12.4 8.9 L9.85 6.2 Q7.85 4.45 6.75 4.45 6.25 4.45 5.9 4.85 5.5 5.5 5.5 6.1 5.5 7.7 7.25 9.85 L8.85 11.6 12.8 9.7 12.4 8.9 M15.0 6.9 L15.85 8.35 Q16.65 10.05 16.65 11.9 16.7 13.55 15.85 15.2 14.85 17.05 12.95 18.35 10.4 20.2 7.3 20.2 3.45 20.15 0.2 17.7 L-1.05 19.05 -2.85 21.75 -3.6 24.15 -3.65 24.6 Q-3.55 26.45 -2.05 27.8 0.5 29.95 2.9 29.95 L4.75 29.65 6.15 28.45 20.25 13.3 20.35 13.3 Q21.55 11.9 23.0 11.1 L26.9 7.9 27.05 7.8 27.4 7.45 28.5 6.15 Q30.05 4.15 30.05 2.2 29.95 0.25 28.2 -1.45 26.3 -3.15 24.8 -3.15 23.9 -3.2 23.0 -2.55 L22.05 -1.7 21.95 -1.75 14.75 6.6 14.9 6.75 15.0 6.9 M23.3 -15.15 Q21.45 -16.75 19.6 -16.75 17.45 -16.8 15.2 -14.55 L14.95 -14.3 14.8 -14.1 5.0 -3.7 12.5 4.2 21.9 -6.75 22.05 -6.85 22.5 -7.25 23.6 -8.45 Q25.2 -10.2 25.1 -11.9 25.1 -13.6 23.3 -15.15 M36.1 -50.45 Q34.6 -51.7 33.05 -51.7 31.5 -51.75 29.5 -50.45 28.0 -49.55 26.8 -48.3 L9.55 -29.1 Q7.0 -26.35 4.05 -22.6 L-3.9 -12.85 Q-3.1 -12.3 -2.6 -11.75 L2.75 -6.15 12.25 -16.2 9.1 -19.35 Q8.8 -19.65 9.1 -19.95 9.45 -20.25 9.75 -19.95 L12.85 -16.85 23.05 -27.65 20.25 -30.45 Q20.0 -30.75 20.25 -31.1 20.55 -31.4 20.85 -31.1 L23.65 -28.3 24.8 -29.55 34.55 -40.05 Q38.2 -44.1 38.15 -46.65 38.15 -48.65 36.1 -50.45 M38.25 -52.95 Q41.55 -50.2 41.45 -46.65 41.4 -43.95 39.7 -41.25 L37.05 -37.85 20.35 -20.0 Q23.05 -19.75 25.45 -17.65 28.5 -15.05 28.4 -11.9 28.35 -9.05 26.2 -6.3 28.4 -5.8 30.45 -3.9 33.35 -1.2 33.35 2.2 33.3 5.3 31.2 8.15 L29.05 10.45 28.9 10.55 Q30.8 11.25 32.4 13.1 35.1 16.15 35.1 19.65 35.05 22.35 33.55 24.8 L31.95 26.8 15.2 41.85 15.3 41.9 14.0 42.95 10.5 46.25 10.35 46.35 Q7.8 48.35 3.6 50.4 -4.7 54.5 -13.2 55.3 L-13.35 55.3 -14.1 55.15 Q-14.8 55.05 -15.2 54.6 L-38.6 29.15 Q-39.05 28.65 -39.0 28.0 -39.0 27.3 -38.5 26.8 -36.55 25.15 -35.65 20.65 -35.1 18.1 -34.75 13.25 -34.35 9.95 -31.95 6.4 L-29.55 3.45 -14.05 -11.75 Q-11.65 -14.5 -8.55 -14.5 L-7.0 -14.3 1.35 -24.5 7.1 -31.35 23.7 -49.8 24.45 -50.6 26.35 -52.35 Q29.85 -55.0 33.05 -55.0 35.9 -55.0 38.25 -52.95" fill="#000000" fill-rule="evenodd" stroke="none"/>
    <path d="M-1.05 23.95 L0.05 22.65 Q1.4 21.35 2.85 21.3 4.05 21.3 5.0 22.2 6.15 23.15 6.15 24.45 6.1 25.9 4.9 27.35 L3.65 28.6 3.35 28.7 3.05 28.55 -1.0 24.5 Q-1.2 24.3 -1.05 23.95 M3.4 27.65 L4.2 26.8 Q5.3 25.5 5.25 24.45 5.25 23.6 4.45 22.85 3.65 22.2 2.85 22.2 1.8 22.15 0.65 23.3 L-0.1 24.15 3.4 27.65" fill="#000000" fill-rule="evenodd" stroke="none"/>
    <path d="M12.25 36.95 Q12.25 36.1 11.3 35.0 10.4 34.05 9.45 34.05 8.4 34.05 7.35 35.2 L6.65 36.1 10.45 39.35 11.25 38.8 Q12.25 37.8 12.25 36.95 M9.45 33.15 Q10.75 33.05 11.95 34.4 13.15 35.6 13.15 36.95 13.1 38.35 11.85 39.45 L10.6 40.3 10.4 40.35 10.1 40.25 5.75 36.5 Q5.45 36.3 5.65 35.95 L6.7 34.55 Q8.0 33.2 9.45 33.15" fill="#000000" fill-rule="evenodd" stroke="none"/>
    <path d="M20.35 -14.45 Q22.1 -13.05 23.3 -10.45 23.45 -10.1 23.1 -9.85 L22.9 -9.85 22.5 -10.1 Q21.0 -13.35 18.85 -14.35 L18.5 -14.5 Q18.1 -14.6 18.2 -15.0 18.3 -15.45 18.75 -15.35 L20.35 -14.45" fill="#000000" fill-rule="evenodd" stroke="none"/>
    <path d="M28.55 3.8 Q28.65 4.25 28.25 4.35 L28.1 4.4 Q27.8 4.4 27.7 4.05 27.05 1.75 25.35 0.55 L24.2 -0.1 23.75 -0.3 Q23.35 -0.4 23.45 -0.8 23.55 -1.25 23.95 -1.15 L25.85 -0.15 Q27.85 1.25 28.55 3.8" fill="#000000" fill-rule="evenodd" stroke="none"/>
    <path d="M25.5 16.3 Q25.1 16.15 25.2 15.75 25.3 15.3 25.7 15.4 L27.3 16.3 Q29.05 17.7 30.25 20.3 30.45 20.7 30.05 20.9 L29.85 20.95 Q29.6 20.95 29.45 20.65 28.0 17.55 25.85 16.4 L25.5 16.3" fill="#000000" fill-rule="evenodd" stroke="none"/>
  </g>
</svg>
