<?xml version="1.0" encoding="UTF-8"?>
<svg width="94.1px" height="122.2px" version="1.1" xmlns="http://www.w3.org/2000/svg" xmlns:cc="http://creativecommons.org/ns#" xmlns:dc="http://purl.org/dc/elements/1.1/" xmlns:rdf="http://www.w3.org/1999/02/22-rdf-syntax-ns#">
 <metadata>
  <rdf:RDF>
   <cc:Work rdf:about="">
    <dc:format>image/svg+xml</dc:format>
    <dc:type rdf:resource="http://purl.org/dc/dcmitype/StillImage"/>
    <dc:title/>
   </cc:Work>
  </rdf:RDF>
 </metadata>
 <g transform="translate(47.05 61.1)" fill-rule="evenodd">
  <path d="m46.15-47.7 0.05 0.9c0 2.4-0.68333 4.8-2.05 7.2-0.76667 1.4-1.9 2.95-3.4 4.65l-12.95 12.85 0.4 0.3 0.25 0.15c1.9333 1.7 3.2833 3.6333 4.05 5.8 0.36667 1.0333 0.58333 2.1833 0.65 3.45v0.7c0 0.63333-0.18333 1.5833-0.55 2.85l-0.05 0.25 0.2 0.2 0.85 0.65c1.7667 1.6667 3.0333 3.5667 3.8 5.7 0.43333 1.2667 0.66667 2.5 0.7 3.7v0.75c-0.1 2.3667-0.81667 4.6667-2.15 6.9l-0.15 0.25 0.2 0.25c1.4667 1.6667 2.4833 3.3833 3.05 5.15 0.43333 1.2 0.68333 2.55 0.75 4.05v0.45c0 2.1-0.45 4.15-1.35 6.15-0.86667 1.8333-1.9833 3.4-3.35 4.7l-21.95 19.85c-1.7333 1.3333-4.0333 2.7333-6.9 4.2-5.3 2.7333-10.683 4.5333-16.15 5.4h-0.1l-2.25 0.4h-0.15l-1.2 0.1-2.25-0.45h-0.05l-0.35-0.15-0.05 0.05-0.15-0.05c-1.2-0.4-2.15-0.98333-2.85-1.75v-0.05l-0.8-0.75v-0.05l-25.55-27.65-0.25-0.4-0.3-1.05 0.45-1.05 3.5-4c0.53333-0.6 1.0167-2.0333 1.45-4.3l0.55-4.65 0.1-1.3c0.26667-2.7333 1.3167-5.5667 3.15-8.5 1.0667-1.7333 2.2-3.2 3.4-4.4l15.7-15.35c2.2667-2.3667 4.9167-3.6833 7.95-3.95h0.2l0.1-0.15 6.5-7.95 20.7-22.55c1.5-1.9 3.1333-3.6333 4.9-5.2 3.3-2.9667 6.3167-4.5667 9.05-4.8l1.2-0.05c3.1333 0 5.9667 1.0833 8.5 3.25 2.1333 1.8333 3.5667 3.8833 4.3 6.15 0.4 1.1 0.61667 2.15 0.65 3.15" fill="#fff"/>
  <g>
   <path d="m40.75-34.95q2.25-2.55 3.4-4.65 2.05-3.6 2.05-7.2l-0.05-0.9q-0.05-1.5-0.65-3.15-1.1-3.4-4.3-6.15-3.8-3.25-8.5-3.25l-1.2 0.05q-4.1 0.35-9.05 4.8-2.65 2.35-4.9 5.2l-20.7 22.55-6.5 7.95-0.1 0.15h-0.2q-4.55 0.4-7.95 3.95l-15.7 15.35q-1.8 1.8-3.4 4.4-2.75 4.4-3.15 8.5l-0.1 1.3-0.55 4.65q-0.65 3.4-1.45 4.3l-3.5 4-0.45 1.05 0.3 1.05 0.25 0.4 25.55 27.65v0.05l0.8 0.75v0.05q1.05 1.15 2.85 1.75l0.15 0.05 0.05-0.05 0.35 0.15h0.05l2.25 0.45 1.2-0.1h0.15l2.25-0.4h0.1q8.2-1.3 16.15-5.4 4.3-2.2 6.9-4.2l21.95-19.85q2.05-1.95 3.35-4.7 1.35-3 1.35-6.15v-0.45q-0.1-2.25-0.75-4.05-0.85-2.65-3.05-5.15l-0.2-0.25 0.15-0.25q2-3.35 2.15-6.9v-0.75q-0.05-1.8-0.7-3.7-1.15-3.2-3.8-5.7l-0.85-0.65-0.2-0.2 0.05-0.25q0.55-1.9 0.55-2.85v-0.7q-0.1-1.9-0.65-3.45-1.15-3.25-4.05-5.8l-0.25-0.15-0.4-0.3 12.95-12.85m4.15-4.2q-1.15 2.05-3.5 4.8l-12.3 12.15q3.05 2.65 4.25 6.05 0.65 1.95 0.65 3.7v0.8l-0.45 2.75 0.6 0.5q2.95 2.8 4.05 6.1 0.65 1.85 0.75 3.95v0.8q-0.15 3.65-2.1 7 2.15 2.55 3 5.2 0.7 2.1 0.8 4.35v0.45q0 3.35-1.45 6.5-1.3 2.95-3.5 5l-21.95 19.85-0.3-0.3 0.25 0.35-6.9 4.2q-8.15 4.15-16.55 5.55l-2.5 0.4h-0.15l-1.2 0.1-2.15-0.35v0.05l-1.55-0.55q-1.55-0.6-2.65-1.8l-0.75-0.75-0.4-0.5-25.15-27.2q-0.8-0.9-0.8-2.05-0.1-0.9 0.7-1.6l3.3-3.9v-0.05l0.15-0.1q0.7-0.6 1.25-3.85l0.5-4.55 0.15-1.35q0.4-4.35 3.25-8.85 1.7-2.7 3.55-4.55l15.7-15.35q3.5-3.75 8.3-4.2l6.4-7.8 20.65-22.55 0.1-0.05q2.45-3.1 5.05-5.4 5.05-4.45 9.45-4.85l1.25-0.05q5 0 9.05 3.45 3.35 2.9 4.6 6.5 0.6 1.85 0.65 3.35l0.05 1q0 3.85-2.15 7.65"/>
   <path d="m24.8 13.9-2.2 1.8-0.3 0.35-0.05 0.1-0.5 0.45-13.35 14.3-0.8 0.6-1.5 1.5q-0.85 0.9-1.4 1.95-0.6 1.1-0.55 1.85 0 1 0.9 1.85 2.65 2.5 4.65 2.5 1.05 0 2.3-0.85l18-16.25 0.75-1.05q1.05-1.6 1.05-3.35 0-2.2-1.9-4.35-1.65-1.9-3.3-1.9-0.75-0.05-1.8 0.5m-18.05-10.35 0.7 0.1-12.7-13.4-0.8-0.6q-1.3-0.85-2.5-0.85-1.6 0.1-3.05 1.7l-15.65 15.3-2 2.5q-2 3-2.2 5.3l-0.8 6.95q-0.85 4.7-2.9 7.45l22 23.95q6.7-0.65 13.5-3.7 4.1-1.8 7.4-4.1-2.45-0.7-4.95-3.05-2.05-1.95-1.95-4.3 0-2.2 1.7-4.65-3.15-0.2-6.05-2.65l-1.65-2.05q-2.05 3.7-5.55 7.2 3.95 0.25 6.85 3.15 0.6 0.6 0 1.2l-0.55 0.25-0.6-0.25q-2.75-2.75-6.6-2.75-3.05 0-6.25 1.55-1.05 0.45-2 1.05l-0.75 0.45-0.5 0.15q-0.45 0-0.65-0.35l-0.15-0.6 0.35-0.55 2.35-1.35q2.85-1.4 5.6-1.85l0.3-0.65q5.35-4.95 7.55-10.45 0.15-1.25 0.8-2.65 0.55-2.15 0.55-4.35l-0.05-1.6-4.3-2.35q-0.6-0.35-0.8-1t0.15-1.25 1-0.8l1.25 0.15 8.75 4.8 0.3 0.2 0.05 0.05 0.3 0.25 1.2 0.75q2.2 1.05 3.85 1 2 0 3.75-1.2 1.35-1 1.85-2 0.4-0.75 0.45-1.75l-0.2-1.4-4.2 2-0.2 0.05-0.25-0.1-1.9-2.05q-1.9-2.35-1.95-4.3 0-1 0.55-1.75 0.6-0.8 1.55-0.8m5.65 5.35-2.55-2.7q-2-1.75-3.1-1.75-0.5 0-0.85 0.4-0.4 0.65-0.4 1.25 0 1.6 1.75 3.75l1.6 1.75 3.95-1.9-0.4-0.8m2.6-2 0.85 1.45q0.8 1.7 0.8 3.55 0.05 1.65-0.8 3.3-1 1.85-2.9 3.15-2.55 1.85-5.65 1.85-3.85-0.05-7.1-2.5l-1.25 1.35-1.8 2.7-0.75 2.4-0.05 0.45q0.1 1.85 1.6 3.2 2.55 2.15 4.95 2.15l1.85-0.3 1.4-1.2 14.1-15.15h0.1q1.2-1.4 2.65-2.2l3.9-3.2 0.15-0.1 0.35-0.35 1.1-1.3q1.55-2 1.55-3.95-0.1-1.95-1.85-3.65-1.9-1.7-3.4-1.7-0.9-0.05-1.8 0.6l-0.95 0.85-0.1-0.05-7.2 8.35 0.15 0.15 0.1 0.15m8.3-22.05q-1.85-1.6-3.7-1.6-2.15-0.05-4.4 2.2l-0.25 0.25-0.15 0.2-9.8 10.4 7.5 7.9 9.4-10.95 0.15-0.1 0.45-0.4 1.1-1.2q1.6-1.75 1.5-3.45 0-1.7-1.8-3.25m12.8-35.3q-1.5-1.25-3.05-1.25-1.55-0.05-3.55 1.25-1.5 0.9-2.7 2.15l-17.25 19.2q-2.55 2.75-5.5 6.5l-7.95 9.75q0.8 0.55 1.3 1.1l5.35 5.6 9.5-10.05-3.15-3.15q-0.3-0.3 0-0.6 0.35-0.3 0.65 0l3.1 3.1 10.2-10.8-2.8-2.8q-0.25-0.3 0-0.65 0.3-0.3 0.6 0l2.8 2.8 1.15-1.25 9.75-10.5q3.65-4.05 3.6-6.6 0-2-2.05-3.8m2.15-2.5q3.3 2.75 3.2 6.3-0.05 2.7-1.75 5.4l-2.65 3.4-16.7 17.85q2.7 0.25 5.1 2.35 3.05 2.6 2.95 5.75-0.05 2.85-2.2 5.6 2.2 0.5 4.25 2.4 2.9 2.7 2.9 6.1-0.05 3.1-2.15 5.95l-2.15 2.3-0.15 0.1q1.9 0.7 3.5 2.55 2.7 3.05 2.7 6.55-0.05 2.7-1.55 5.15l-1.6 2-16.75 15.05 0.1 0.05-1.3 1.05-3.5 3.3-0.15 0.1q-2.55 2-6.75 4.05-8.3 4.1-16.8 4.9h-0.15l-0.75-0.15q-0.7-0.1-1.1-0.55l-23.4-25.45q-0.45-0.5-0.4-1.15 0-0.7 0.5-1.2 1.95-1.65 2.85-6.15 0.55-2.55 0.9-7.4 0.4-3.3 2.8-6.85l2.4-2.95 15.5-15.2q2.4-2.75 5.5-2.75l1.55 0.2 8.35-10.2 5.75-6.85 16.6-18.45 0.75-0.8 1.9-1.75q3.5-2.65 6.7-2.65 2.85 0 5.2 2.05"/>
   <path d="m-1.05 23.95 1.1-1.3q1.35-1.3 2.8-1.35 1.2 0 2.15 0.9 1.15 0.95 1.15 2.25-0.05 1.45-1.25 2.9l-1.25 1.25-0.3 0.1-0.3-0.15-4.05-4.05q-0.2-0.2-0.05-0.55m4.45 3.7 0.8-0.85q1.1-1.3 1.05-2.35 0-0.85-0.8-1.6-0.8-0.65-1.6-0.65-1.05-0.05-2.2 1.1l-0.75 0.85 3.5 3.5"/>
   <path d="m12.25 36.95q0-0.85-0.95-1.95-0.9-0.95-1.85-0.95-1.05 0-2.1 1.15l-0.7 0.9 3.8 3.25 0.8-0.55q1-1 1-1.85m-2.8-3.8q1.3-0.1 2.5 1.25 1.2 1.2 1.2 2.55-0.05 1.4-1.3 2.5l-1.25 0.85-0.2 0.05-0.3-0.1-4.35-3.75q-0.3-0.2-0.1-0.55l1.05-1.4q1.3-1.35 2.75-1.4"/>
   <path d="m20.35-14.45q1.75 1.4 2.95 4 0.15 0.35-0.2 0.6h-0.2l-0.4-0.25q-1.5-3.25-3.65-4.25l-0.35-0.15q-0.4-0.1-0.3-0.5 0.1-0.45 0.55-0.35l1.6 0.9"/>
   <path d="m28.55 3.8q0.1 0.45-0.3 0.55l-0.15 0.05q-0.3 0-0.4-0.35-0.65-2.3-2.35-3.5l-1.15-0.65-0.45-0.2q-0.4-0.1-0.3-0.5 0.1-0.45 0.5-0.35l1.9 1q2 1.4 2.7 3.95"/>
   <path d="m25.5 16.3q-0.4-0.15-0.3-0.55 0.1-0.45 0.5-0.35l1.6 0.9q1.75 1.4 2.95 4 0.2 0.4-0.2 0.6l-0.2 0.05q-0.25 0-0.4-0.3-1.45-3.1-3.6-4.25l-0.35-0.1"/>
  </g>
 </g>
</svg>
