<?xml version="1.0" encoding="UTF-8" standalone="no"?>
<svg xmlns:xlink="http://www.w3.org/1999/xlink" height="49.3px" width="53.1px" xmlns="http://www.w3.org/2000/svg">
  <g transform="matrix(1.0, 0.0, 0.0, 1.0, 26.55, 24.65)">
    <path d="M23.3 -8.25 L24.6 -5.0 Q26.0 -1.0 26.4 2.85 27.65 15.1 18.6 21.05 8.05 27.95 -0.95 21.6 -6.05 17.95 -8.95 12.1 L-9.0 12.1 -9.5 10.2 Q-10.1 7.8 -10.1 5.4 -10.0 -3.05 -3.1 -7.25 -0.35 -8.9 2.6 -8.9 7.85 -8.9 12.25 -4.25 14.2 -2.1 15.3 0.45 16.45 3.05 16.45 5.5 16.45 7.25 15.85 8.75 13.65 14.15 8.8 14.25 6.25 14.25 4.1 12.55 1.9 10.8 1.2 7.95 L1.0 6.45 Q1.05 4.7 2.15 3.75 3.1 2.9 4.7 2.8 6.25 2.8 7.4 3.85 L8.1 4.1 Q8.55 4.1 8.8 3.8 L9.1 3.1 8.8 2.4 Q7.05 0.8 4.7 0.8 2.5 0.8 0.8 2.25 -1.0 3.8 -1.0 6.45 L-0.75 8.4 Q0.1 11.9 2.85 14.15 5.55 16.25 8.8 16.25 L8.85 16.25 Q11.6 16.25 13.9 14.6 16.4 12.8 17.7 9.5 18.45 7.55 18.45 5.5 18.35 -0.55 13.7 -5.6 8.85 -10.85 2.6 -10.9 -0.95 -10.9 -4.15 -8.95 -8.5 -6.3 -10.5 -2.05 -12.1 1.35 -12.1 5.4 -12.1 9.55 -10.85 12.8 L-10.7 13.05 -21.9 21.45 Q-25.25 15.45 -26.25 7.55 -28.25 -8.3 -16.55 -17.9 -1.75 -30.05 12.25 -20.35 19.25 -15.5 23.3 -8.25" fill="#000000" fill-rule="evenodd" stroke="none"/>
    <path d="M13.7 -5.6 Q18.35 -0.55 18.45 5.5 18.45 7.55 17.7 9.5 16.4 12.8 13.9 14.6 11.6 16.25 8.85 16.25 L8.8 16.25 Q5.55 16.25 2.85 14.15 0.1 11.9 -0.75 8.4 L-1.0 6.45 Q-1.0 3.8 0.8 2.25 2.5 0.8 4.7 0.8 7.05 0.8 8.8 2.4 L9.1 3.1 8.8 3.8 Q8.55 4.1 8.1 4.1 L7.4 3.85 Q6.25 2.8 4.7 2.8 3.1 2.9 2.15 3.75 1.05 4.7 1.0 6.45 L1.2 7.95 Q1.9 10.8 4.1 12.55 6.25 14.25 8.8 14.25 13.65 14.15 15.85 8.75 16.45 7.25 16.45 5.5 16.45 3.05 15.3 0.45 14.2 -2.1 12.25 -4.25 7.85 -8.9 2.6 -8.9 -0.35 -8.9 -3.1 -7.25 -10.0 -3.05 -10.1 5.4 -10.1 7.8 -9.5 10.2 L-9.0 12.1 -8.95 12.1 Q-8.85 12.4 -9.1 12.45 L-9.75 12.6 -10.3 13.0 -10.7 13.05 -10.85 12.8 Q-12.1 9.55 -12.1 5.4 -12.1 1.35 -10.5 -2.05 -8.5 -6.3 -4.15 -8.95 -0.95 -10.9 2.6 -10.9 8.85 -10.85 13.7 -5.6" fill="#ffffff" fill-rule="evenodd" stroke="none"/>
  </g>
</svg>
