<?xml version="1.0" encoding="UTF-8" standalone="no"?>
<svg xmlns:xlink="http://www.w3.org/1999/xlink" height="28.0px" width="48.0px" xmlns="http://www.w3.org/2000/svg">
  <g transform="matrix(1.0, 0.0, 0.0, 1.0, 24.0, 14.0)">
    <path d="M18.95 -10.5 L21.05 -6.95 20.6 -1.2 22.3 2.8 21.75 7.7 17.1 11.55 10.95 8.85 9.8 4.15 -8.9 4.65 -13.1 10.75 -19.55 9.35 -22.65 3.8 -20.3 -1.95 -22.15 -5.3 -19.75 -10.6 -15.1 -12.15 -10.85 -9.85 -10.35 -4.9 9.6 -5.95 14.05 -11.45 18.95 -10.5" fill="#ffffff" fill-rule="evenodd" stroke="none"/>
    <path d="M21.45 -11.75 Q23.8 -9.45 23.85 -6.15 23.85 -3.2 22.05 -1.0 L21.85 -0.8 Q23.95 1.55 24.0 4.25 24.0 7.25 22.2 9.4 L21.7 9.95 Q19.4 12.3 16.1 12.4 12.7 12.4 10.4 10.1 8.85 8.65 8.3 5.95 L-8.05 6.2 Q-8.45 8.45 -9.6 9.85 -11.95 12.8 -15.7 12.85 -19.05 12.9 -21.4 10.55 -23.75 8.25 -23.85 4.95 -23.85 2.05 -22.05 -0.2 L-21.85 -0.4 Q-23.95 -2.75 -24.0 -5.45 -24.0 -8.4 -22.2 -10.6 -19.85 -13.5 -16.1 -13.6 -13.2 -13.65 -11.05 -11.8 -8.9 -10.0 -8.3 -7.15 L8.05 -7.4 Q8.45 -9.65 9.6 -11.05 12.0 -14.0 15.7 -14.0 19.05 -14.05 21.45 -11.75 M18.35 -2.35 Q20.3 -3.75 20.3 -6.1 20.25 -7.95 18.95 -9.2 17.6 -10.5 15.75 -10.45 13.9 -10.45 12.65 -9.1 11.35 -7.8 11.4 -5.95 L11.45 -3.9 -9.75 -3.6 -11.5 -3.85 -11.5 -5.65 Q-11.55 -7.5 -12.85 -8.75 -14.2 -10.05 -16.05 -10.0 -17.9 -10.0 -19.15 -8.65 -20.45 -7.35 -20.4 -5.5 -20.4 -3.15 -18.35 -1.8 L-16.1 -0.35 -18.35 1.15 Q-20.3 2.55 -20.3 4.9 -20.2 6.8 -18.95 8.0 -17.6 9.35 -15.75 9.25 -13.9 9.25 -12.65 7.9 -11.35 6.6 -11.35 4.75 L-11.45 2.7 9.75 2.4 11.5 2.65 11.5 4.45 Q11.6 6.35 12.85 7.55 14.2 8.9 16.05 8.8 17.95 8.8 19.15 7.45 20.5 6.15 20.4 4.3 20.4 1.9 18.35 0.65 L16.1 -0.8 18.35 -2.35" fill="#000000" fill-rule="evenodd" stroke="none"/>
    <path d="M-2.1 -5.5 Q-2.95 -4.6 -3.45 -2.8 -4.45 0.8 -2.6 5.5" fill="none" stroke="#000000" stroke-linecap="round" stroke-linejoin="miter" stroke-width="3.0"/>
    <path d="M3.45 -6.0 Q2.6 -5.15 2.1 -3.45 1.1 0.05 2.95 4.5" fill="none" stroke="#000000" stroke-linecap="round" stroke-linejoin="miter" stroke-width="2.9000000000000004"/>
    <path d="M10.15 8.0 Q10.15 10.5 7.15 12.25 4.15 14.0 -0.1 14.0 -4.35 14.0 -7.35 12.25 -10.35 10.5 -10.35 8.0 -10.35 5.5 -7.35 3.75 -4.35 2.0 -0.1 2.0 4.15 2.0 7.15 3.75 10.15 5.5 10.15 8.0" fill="#000000" fill-rule="evenodd" stroke="none"/>
  </g>
</svg>
