<?xml version="1.0" encoding="UTF-8" standalone="no"?>
<svg xmlns:xlink="http://www.w3.org/1999/xlink" height="28.9px" width="97.6px" xmlns="http://www.w3.org/2000/svg">
  <g transform="matrix(1.0, 0.0, 0.0, 1.0, 49.0, 15.0)">
    <path d="M48.6 8.45 Q48.6 10.7 34.3 12.3 L-0.2 13.9 -34.7 12.3 Q-49.0 10.7 -49.0 8.45 -49.0 6.2 -34.7 4.6 L-0.2 3.0 34.3 4.6 Q48.6 6.2 48.6 8.45" fill="#000000" fill-rule="evenodd" stroke="none"/>
    <path d="M5.65 9.4 Q-13.45 10.75 -22.35 7.35 L-17.45 -15.0 17.5 -15.0 22.95 7.35 5.65 9.4" fill="#000000" fill-rule="evenodd" stroke="none"/>
    <path d="M7.15 3.9 L19.25 2.25 20.6 6.85 Q8.25 9.45 -7.2 8.35 -14.9 7.8 -20.15 6.7 L-19.15 1.6 Q-7.3 4.9 7.15 3.9" fill="#ffffff" fill-rule="evenodd" stroke="none"/>
  </g>
</svg>
