<?xml version="1.0" encoding="UTF-8"?>
<svg width="44.672" height="64" version="1.1" xml:space="preserve" xmlns="http://www.w3.org/2000/svg" xmlns:cc="http://creativecommons.org/ns#" xmlns:dc="http://purl.org/dc/elements/1.1/" xmlns:rdf="http://www.w3.org/1999/02/22-rdf-syntax-ns#"><metadata><rdf:RDF><cc:Work rdf:about=""><dc:format>image/svg+xml</dc:format><dc:type rdf:resource="http://purl.org/dc/dcmitype/StillImage"/><dc:title/></cc:Work></rdf:RDF></metadata>
<style type="text/css">
	.st0{fill:#F3D044;}
	.st1{fill:#DFAF42;}
	.st2{fill:#FEFEFE;}
	.st3{fill:#DDAE42;}
	.st4{fill:#DBAD41;}
	.st5{fill:#DCAE41;}
	.st6{fill:#D7AA41;}
	.st7{fill:#373535;}
</style><g stroke-width=".56364">
<path class="st0" d="m44.221 37.116c-1.0033-5.0784-3.5284-9.2494-7.5077-12.558-1.3866-1.1498-2.79-2.2546-4.4471-2.9986-0.22546 0.02255-0.43964 0.06764-0.65383 0.14655-0.43964 0.15782-0.87928 0.31-1.3246 0.45092l0.19164-0.59746-0.67637-3.6299-12.321 0.77783-2.8351-0.65946-0.3551 4.2499c-0.33819-0.07891-0.67637-0.16909-1.0089-0.27055-0.36637-0.10709-0.7271-0.24237-1.1104-0.27619-1.3809 0.59183-2.5082 1.5444-3.6637 2.4688-2.5364 2.0291-4.6782 4.3908-6.1606 7.3048-2.4124 4.7515-2.8633 9.7623-1.8206 14.931 0.78347 3.8722 2.6322 7.2203 5.3152 10.112 0.372 0.16909 0.65946 0.45655 1.0089 0.67074 4.8417 2.9422 10.095 4.0019 15.703 3.4326 6.4875-0.6651 11.87-3.5059 16.188-8.3532 3.0831-3.4551 5.1742-7.4119 5.8055-12.062 0.02818-1.0653-0.124-2.108-0.32691-3.1395z"/>
<path class="st1" d="m5.8427 56.567c0.77219 0.10709 1.3358 0.64819 1.9728 1.0146 2.4744 1.4373 5.1573 2.2433 7.9417 2.7619 1.9502 0.36073 3.9342 0.40019 5.8901 0.248 3.9681-0.31 7.7332-1.3697 11.149-3.5059 1.7924-1.1217 3.4664-2.3955 4.9319-3.9004 3.472-3.5622 5.7717-7.7726 6.6905-12.699 0.01691-0.07891 0.07891-0.15218 0.124-0.22546 0.51855 4.6332-0.52419 8.9394-2.976 12.845-3.72 5.9352-9.0014 9.7736-16.03 10.675-7.6599 0.98638-14.255-1.3753-19.587-7.0455-0.03946-0.05636-0.06764-0.11836-0.10709-0.16909z"/>
<path class="st1" d="m19.861 21.982c-0.04509 0.46782-0.2931 0.4791 0.21418 0.4791 0.59746-0.0056 1.1949 0.07891 1.7924 0.124 0.33255-0.23109 0.6651-0.23109 0.99765 0 0.96383 0 1.674 0 2.5026-0.13527 0.31-0.23673 0.63128-0.37764 1.0033-0.13528 0.89619-0.17473 1.6007-0.27055 2.418-0.67074 0.23673-0.19164 0.51855-0.23673 0.80601-0.28746 0.72146-0.16346 0.82856-0.186 1.3133-0.31 0.55237 0.16909 0.95256 0.31564 1.3527 0.50728-1.0991 0.68765-2.3504 0.9582-3.5791 1.2569-2.356 0.56928-4.7572 0.87365-7.1808 0.69892-1.5557-0.10709-3.0888-0.44528-4.6388-0.58619-1.2795-0.11836-2.5082-0.40019-3.737-0.74401-0.33819-0.09582-0.71583-0.11273-0.95256-0.43401 0.59183-0.27618 1.1047-0.4791 1.7078-0.69892 0.42837 0.248 0.72146 0.38328 1.2569 0.31 0.32128 0.06764 0.6031 0.22546 0.87365 0.41146 0.67074 0.21418 1.302 0.28746 1.9333 0.434 0.3551 0.10709-0.0056 0.062 0.07327-0.22546 0.36637 0.43401 1.5444 0.15782 1.8431 0.0056z"/>
<path class="st2" d="m4.9521 36.992c-0.26491-3.6524 0.94692-6.8088 3.2973-9.5763 1.1498-1.3527 2.6435-2.2828 4.0639-3.2973 0.21418-0.15218 0.39455-0.15782 0.61437-0.03946 1.9389 1.0427 4.0244 1.4711 6.217 1.4542 0.02818 0 0.05636 0.04509 0.13528 0.10146-2.3448 0.57492-4.5542 1.4317-6.6679 2.5082-2.4688 1.2626-4.6613 2.8633-6.1775 5.2588-0.70455 1.1047-1.1555 2.3166-1.4824 3.5904z"/>
<path class="st3" d="m16.924 19.367c-0.062-0.38328-0.42837-0.69892-0.81728-0.68201-0.37764 0.01691-1.1104-0.062-1.2626 0.47346-0.16909-0.434 0.29309-0.80037 0.65946-0.99765 0.38891-0.20855 0.80037-0.10709 1.1442 0.13527 0.34946 0.248 0.4791 0.71583 0.27618 1.0709z"/>
<path class="st4" d="m29.803 18.702c-0.84546-0.26491-1.7191-0.186-2.0066 0.38328-0.28182-0.50164 0.10146-0.76092 0.56364-0.93001 0.67074-0.248 1.2175-0.07327 1.4429 0.54673z"/>
<path class="st3" d="m20.221 19.604c-0.56928-0.31564-1.488-0.58055-2.0573-0.11836 0.06764-0.4791 0.34946-0.84547 0.94128-0.83419 0.56928 0.01691 1.0822 0.38891 1.116 0.95256z"/>
<path class="st5" d="m26.472 19.22c-0.59183-0.03946-1.178-0.01691-1.7248 0.27619 0.02818-0.61437 0.50164-0.73837 0.96383-0.81728 0.39455-0.07327 0.70455 0.08455 0.76092 0.5411z"/>
<path class="st6" d="m23.242 19.491c-0.48473-0.21418-0.99765-0.28182-1.5162-0.28746 0.63692-0.6031 1.24-0.48473 1.5162 0.28746z"/>
<path class="st7" d="m29.69 13.291s-2.6153-0.8511-5.7999-1.0484v-12.242h-2.5364v12.22c-4.1315 0.14655-6.4819 0.98638-6.4819 0.98638l-1.116 7.8797s0.4171 0.22546 1.2231 0.50164l0.30437-1.6966c-0.21418-0.19164-0.33255-0.50728-0.2931-0.90183 0.05636-0.55237 0.42273-0.87365 0.96947-0.87365 0.54674 0 0.9751 0.40582 0.9751 0.96383 0 0.33819-0.20291 0.64255-0.48473 0.82856l-0.3551 2.0235c0.63128 0.16909 1.3922 0.33819 2.2715 0.47346l0.19164-2.0629c-0.20855-0.14091-0.31564-0.38328-0.31564-0.68764 0-0.57492 0.41146-0.94128 1.0258-0.80601 0.77219 0.16909 0.93001 0.80601 0.77783 1.1949-0.10709 0.27618-0.23109 0.37764-0.42837 0.42273l-0.15782 2.0855c0.73274 0.07891 1.5387 0.12964 2.4011 0.13527v-2.0178c-0.22546-0.17473-0.37764-0.44528-0.37764-0.73837 0-0.64819 0.51292-0.94128 1.0258-0.94128 0.51292 0 0.8511 0.44528 0.8511 0.93001 0 0.33255-0.20855 0.64819-0.50164 0.81165l0.0056 1.9502c0.87365-0.02255 1.7755-0.08455 2.4913-0.15782l-0.17473-1.984c-0.28182-0.16346-0.45092-0.47346-0.45092-0.82856 0-0.51855 0.51855-0.86801 1.0596-0.86801s0.75528 0.21982 0.75528 0.73837c0 0.31-0.13528 0.63692-0.3551 0.84547l0.17473 1.9784c0.95256-0.12964 1.7417-0.2931 2.3842-0.45655l-0.38892-2.1418c-0.29309-0.14091-0.52419-0.40019-0.55801-0.72146-0.04509-0.51855 0.3551-0.80601 0.87928-0.8511 0.51855-0.04509 0.9582 0.16346 1.0089 0.68201 0.02818 0.33255-0.062 0.62564-0.27055 0.81165l0.27618 1.9389c0.94692-0.31564 1.3527-0.58055 1.3527-0.58055z"/>
</g></svg>
