<?xml version="1.0" encoding="UTF-8" standalone="no"?>
<svg xmlns:xlink="http://www.w3.org/1999/xlink" height="33.35px" width="13.3px" xmlns="http://www.w3.org/2000/svg">
  <g transform="matrix(1.0, 0.0, 0.0, 1.0, 6.65, 16.7)">
    <path d="M-2.4 12.1 L-4.55 12.1 -4.55 13.6 -2.4 13.6 -2.4 12.1 M-1.2 10.9 L0.9 10.9 0.9 9.35 -1.2 9.35 -1.2 10.9 M0.9 12.1 L-1.2 12.1 -1.2 13.6 0.9 13.6 0.9 12.1 M0.9 6.6 L-1.2 6.6 -1.2 8.15 0.9 8.15 0.9 6.6 M-4.55 6.6 L-4.55 8.15 -2.4 8.15 -2.4 6.6 -4.55 6.6 M-4.55 9.35 L-4.55 10.9 -2.4 10.9 -2.4 9.35 -4.55 9.35 M-2.4 5.4 L-2.4 3.9 -4.55 3.9 -4.55 5.4 -2.4 5.4 M-1.2 3.9 L-1.2 5.4 0.9 5.4 0.9 3.9 -1.2 3.9 M4.3 12.1 L2.1 12.1 2.1 13.6 4.3 13.6 4.3 12.1 M2.1 9.35 L2.1 10.9 4.3 10.9 4.3 9.35 2.1 9.35 M4.3 8.15 L4.3 6.6 2.1 6.6 2.1 8.15 4.3 8.15 M4.3 3.9 L2.1 3.9 2.1 5.4 4.3 5.4 4.3 3.9 M4.3 -7.35 L-4.45 -7.35 -4.45 1.5 4.3 1.5 4.3 -7.35 M3.75 -16.7 Q4.25 -16.7 4.6 -15.4 4.95 -14.1 4.95 -12.3 L4.8 -10.3 Q6.65 -9.3 6.65 -6.9 L6.65 12.75 Q6.65 14.35 5.65 15.5 4.7 16.65 3.3 16.65 L-3.3 16.65 Q-4.7 16.65 -5.65 15.5 -6.65 14.35 -6.65 12.75 L-6.65 -6.9 Q-6.65 -8.5 -5.65 -9.6 -4.7 -10.75 -3.3 -10.75 L2.6 -10.75 2.5 -12.3 Q2.5 -14.15 2.85 -15.4 3.25 -16.7 3.75 -16.7" fill="#000000" fill-rule="evenodd" stroke="none"/>
    <path d="M4.3 -7.35 L4.3 1.5 -4.45 1.5 -4.45 -7.35 4.3 -7.35" fill="#ffffff" fill-rule="evenodd" stroke="none"/>
    <path d="M-2.4 5.4 L-4.55 5.4 -4.55 3.9 -2.4 3.9 -2.4 5.4" fill="#ffffff" fill-rule="evenodd" stroke="none"/>
    <path d="M-2.4 12.1 L-2.4 13.6 -4.55 13.6 -4.55 12.1 -2.4 12.1" fill="#ffffff" fill-rule="evenodd" stroke="none"/>
    <path d="M2.1 12.1 L4.3 12.1 4.3 13.6 2.1 13.6 2.1 12.1" fill="#ffffff" fill-rule="evenodd" stroke="none"/>
    <path d="M2.1 3.9 L4.3 3.9 4.3 5.4 2.1 5.4 2.1 3.9" fill="#ffffff" fill-rule="evenodd" stroke="none"/>
    <path d="M-4.55 8.15 L-4.55 6.6 -2.4 6.6 -2.4 8.15 -4.55 8.15" fill="#ffffff" fill-rule="evenodd" stroke="none"/>
    <path d="M2.1 6.6 L4.3 6.6 4.3 8.15 2.1 8.15 2.1 6.6" fill="#ffffff" fill-rule="evenodd" stroke="none"/>
    <path d="M0.9 5.4 L-1.2 5.4 -1.2 3.9 0.9 3.9 0.9 5.4" fill="#ffffff" fill-rule="evenodd" stroke="none"/>
    <path d="M0.9 13.6 L-1.2 13.6 -1.2 12.1 0.9 12.1 0.9 13.6" fill="#ffffff" fill-rule="evenodd" stroke="none"/>
    <path d="M0.9 8.15 L-1.2 8.15 -1.2 6.6 0.9 6.6 0.9 8.15" fill="#ffffff" fill-rule="evenodd" stroke="none"/>
    <path d="M-1.2 9.35 L0.9 9.35 0.9 10.9 -1.2 10.9 -1.2 9.35" fill="#ffffff" fill-rule="evenodd" stroke="none"/>
    <path d="M-2.4 9.35 L-2.4 10.9 -4.55 10.9 -4.55 9.35 -2.4 9.35" fill="#ffffff" fill-rule="evenodd" stroke="none"/>
    <path d="M4.3 9.35 L4.3 10.9 2.1 10.9 2.1 9.35 4.3 9.35" fill="#ffffff" fill-rule="evenodd" stroke="none"/>
  </g>
</svg>
