<?xml version="1.0" encoding="UTF-8" standalone="no"?>
<svg xmlns:xlink="http://www.w3.org/1999/xlink" height="21.8px" width="38.1px" xmlns="http://www.w3.org/2000/svg">
  <g transform="matrix(1.0, 0.0, 0.0, 1.0, 19.05, 10.9)">
    <path d="M-3.0 -3.5 L-2.85 -3.0 Q-2.6 -2.7 -2.2 -2.55 -1.25 -2.1 -0.95 -2.7 -0.75 -3.35 -1.75 -3.7 -2.75 -4.05 -3.0 -3.5 M-5.2 -4.75 Q-4.95 -4.45 -4.55 -4.3 -3.45 -3.95 -3.3 -4.5 -3.2 -4.75 -3.4 -5.0 -3.65 -5.3 -4.1 -5.45 L-4.85 -5.6 -5.3 -5.3 -5.2 -4.75 M10.5 1.85 Q10.25 1.55 9.85 1.4 8.9 0.95 8.6 1.55 8.45 2.1 9.4 2.55 10.4 2.9 10.65 2.35 L10.5 1.85 M4.65 -3.7 Q3.55 -4.1 3.4 -3.5 3.3 -3.25 3.5 -3.0 3.75 -2.7 4.2 -2.55 5.15 -2.1 5.45 -2.7 5.65 -3.35 4.65 -3.7 M6.25 -1.4 Q5.15 -1.8 5.0 -1.2 4.9 -0.95 5.1 -0.7 5.35 -0.4 5.8 -0.25 6.75 0.2 7.05 -0.4 7.2 -0.95 6.25 -1.4 M-8.55 -5.55 Q-9.6 -6.0 -9.8 -5.4 L-9.7 -4.85 Q-9.45 -4.55 -9.05 -4.4 L-8.25 -4.25 -7.8 -4.55 Q-7.7 -4.8 -7.9 -5.1 L-8.55 -5.55 M12.25 0.85 Q14.05 2.3 15.05 3.8 16.0 5.1 15.9 5.85 L15.85 6.1 Q10.65 5.6 5.2 4.15 -7.6 0.85 -15.8 -6.3 -15.6 -6.85 -14.55 -7.25 -13.3 -7.8 -10.9 -7.8 -5.3 -7.8 1.95 -4.95 8.15 -2.5 12.25 0.85" fill="#ffffff" fill-rule="evenodd" stroke="none"/>
    <path d="M14.65 7.2 L14.55 7.25 10.9 7.8 Q5.25 7.8 -1.95 4.95 -8.15 2.55 -12.3 -0.85 -14.6 -2.8 -15.5 -4.4 -8.6 1.2 1.4 4.35 7.9 6.45 14.65 7.2" fill="#ffffff" fill-rule="evenodd" stroke="none"/>
    <path d="M14.55 7.25 L14.65 7.2 Q7.9 6.45 1.4 4.35 -8.6 1.2 -15.5 -4.4 -14.6 -2.8 -12.3 -0.85 -8.15 2.55 -1.95 4.95 5.25 7.8 10.9 7.8 L14.55 7.25 M15.85 6.1 L15.9 5.85 Q16.0 5.1 15.05 3.8 14.05 2.3 12.25 0.85 8.15 -2.5 1.95 -4.95 -5.3 -7.8 -10.9 -7.8 -13.3 -7.8 -14.55 -7.25 -15.6 -6.85 -15.8 -6.3 -7.6 0.85 5.2 4.15 10.65 5.6 15.85 6.1 M14.25 -1.55 Q16.55 0.4 17.65 2.0 19.0 3.9 19.05 5.85 L18.75 7.4 Q18.0 9.35 15.65 10.2 13.75 10.9 10.9 10.9 4.7 10.9 -3.1 7.85 -9.7 5.3 -14.25 1.55 -19.0 -2.4 -19.05 -5.8 L-18.75 -7.4 Q-18.05 -9.2 -15.7 -10.2 -13.75 -10.9 -10.9 -10.9 -4.75 -10.9 3.1 -7.85 9.6 -5.3 14.25 -1.55" fill="#000000" fill-rule="evenodd" stroke="none"/>
    <path d="M5.0 -1.2 Q5.15 -1.8 6.25 -1.4 7.2 -0.95 7.05 -0.4 6.75 0.2 5.8 -0.25 5.35 -0.4 5.1 -0.7 4.9 -0.95 5.0 -1.2" fill="#000000" fill-rule="evenodd" stroke="none"/>
    <path d="M9.4 2.55 Q8.45 2.1 8.6 1.55 8.9 0.95 9.85 1.4 10.25 1.55 10.5 1.85 L10.65 2.35 Q10.4 2.9 9.4 2.55" fill="#000000" fill-rule="evenodd" stroke="none"/>
    <path d="M4.2 -2.55 Q3.75 -2.7 3.5 -3.0 3.3 -3.25 3.4 -3.5 3.55 -4.1 4.65 -3.7 5.65 -3.35 5.45 -2.7 5.15 -2.1 4.2 -2.55" fill="#000000" fill-rule="evenodd" stroke="none"/>
    <path d="M-2.2 -2.55 Q-2.6 -2.7 -2.85 -3.0 L-3.0 -3.5 Q-2.75 -4.05 -1.75 -3.7 -0.75 -3.35 -0.95 -2.7 -1.25 -2.1 -2.2 -2.55" fill="#000000" fill-rule="evenodd" stroke="none"/>
    <path d="M-4.55 -4.3 Q-4.95 -4.45 -5.2 -4.75 L-5.3 -5.3 -4.85 -5.6 -4.1 -5.45 Q-3.65 -5.3 -3.4 -5.0 -3.2 -4.75 -3.3 -4.5 -3.45 -3.95 -4.55 -4.3" fill="#000000" fill-rule="evenodd" stroke="none"/>
    <path d="M-9.05 -4.4 Q-9.45 -4.55 -9.7 -4.85 L-9.8 -5.4 Q-9.6 -6.0 -8.55 -5.55 L-7.9 -5.1 Q-7.7 -4.8 -7.8 -4.55 L-8.25 -4.25 -9.05 -4.4" fill="#000000" fill-rule="evenodd" stroke="none"/>
  </g>
</svg>
