<?xml version="1.0" encoding="UTF-8" standalone="no"?>
<svg xmlns:xlink="http://www.w3.org/1999/xlink" height="34.9px" width="16.3px" xmlns="http://www.w3.org/2000/svg">
  <g transform="matrix(1.0, 0.0, 0.0, 1.0, 8.15, 17.45)">
    <path d="M-4.4 -6.05 L4.4 -6.05 4.4 13.7 -4.4 13.7 -4.4 -6.05" fill="#ffffff" fill-rule="evenodd" stroke="none"/>
    <path d="M-4.4 13.7 L4.4 13.7 4.4 -6.05 -4.4 -6.05 -4.4 13.7 M-3.8 -17.45 L3.95 -17.45 3.95 -9.8 8.15 -9.8 8.15 17.45 -8.15 17.45 -8.15 -9.8 -3.8 -9.8 -3.8 -17.45 M0.25 -11.95 Q-0.2 -12.4 -0.2 -13.05 -0.2 -13.7 0.25 -14.15 0.7 -14.6 1.35 -14.6 L1.95 -14.45 1.95 -15.45 -1.8 -15.45 -1.8 -10.2 2.0 -10.2 1.95 -11.65 1.35 -11.5 Q0.7 -11.5 0.25 -11.95" fill="#000000" fill-rule="evenodd" stroke="none"/>
    <path d="M1.35 -11.5 L1.95 -11.65 2.0 -10.2 -1.8 -10.2 -1.8 -15.45 1.95 -15.45 1.95 -14.45 1.35 -14.6 Q0.7 -14.6 0.25 -14.15 -0.2 -13.7 -0.2 -13.05 -0.2 -12.4 0.25 -11.95 0.7 -11.5 1.35 -11.5" fill="#ffffff" fill-rule="evenodd" stroke="none"/>
  </g>
</svg>
