<?xml version="1.0" encoding="UTF-8" standalone="no"?>
<svg xmlns:xlink="http://www.w3.org/1999/xlink" height="23.15px" width="39.65px" xmlns="http://www.w3.org/2000/svg">
  <g transform="matrix(1.0, 0.0, 0.0, 1.0, 19.85, 11.6)">
    <path d="M10.7 -9.85 Q9.5 -8.5 7.65 -8.5 L-10.4 -8.5 Q-12.25 -8.5 -13.5 -9.85 L10.7 -9.85" fill="#ffffff" fill-rule="evenodd" stroke="none"/>
    <path d="M-3.6 -1.1 L-6.05 -1.1 -6.9 0.85 Q-5.55 0.75 -4.75 0.15 -3.95 -0.35 -3.6 -1.1 M7.65 -8.5 Q9.5 -8.5 10.7 -9.85 L-13.5 -9.85 Q-12.25 -8.5 -10.4 -8.5 L7.65 -8.5 M19.8 -9.25 L19.8 -3.85 17.85 -3.85 17.85 -1.1 -1.1 -1.1 Q-1.85 1.15 -3.45 2.1 -5.1 3.2 -7.25 3.2 L-7.75 3.15 -7.7 2.65 -11.5 11.55 -19.8 10.4 -15.25 -1.1 -17.85 -1.1 -19.85 -11.6 -14.45 -11.6 -14.25 -11.05 11.5 -11.05 11.7 -11.6 17.85 -11.6 17.85 -9.25 19.8 -9.25" fill="#000000" fill-rule="evenodd" stroke="none"/>
  </g>
</svg>
