<?xml version="1.0" encoding="UTF-8" standalone="no"?>
<svg xmlns:xlink="http://www.w3.org/1999/xlink" height="43.2px" width="39.0px" xmlns="http://www.w3.org/2000/svg">
  <g transform="matrix(1.0, 0.0, 0.0, 1.0, 19.5, 21.6)">
    <path d="M3.15 18.25 L3.15 11.0 16.15 11.0 16.15 18.25 3.15 18.25" fill="#ffffff" fill-rule="evenodd" stroke="none"/>
    <path d="M-3.35 11.0 L-3.35 18.25 -16.15 18.25 -16.15 11.0 -3.35 11.0" fill="#ffffff" fill-rule="evenodd" stroke="none"/>
    <path d="M-3.35 4.5 L-16.15 4.5 -16.15 -4.6 -3.35 -4.6 -3.35 4.5" fill="#ffffff" fill-rule="evenodd" stroke="none"/>
    <path d="M3.15 4.5 L3.15 -4.6 16.15 -4.6 16.15 4.5 3.15 4.5" fill="#ffffff" fill-rule="evenodd" stroke="none"/>
    <path d="M3.15 18.25 L16.15 18.25 16.15 11.0 3.15 11.0 3.15 18.25 M-16.15 11.0 L-16.15 18.25 -3.35 18.25 -3.35 11.0 -16.15 11.0 M-3.35 -4.6 L-16.15 -4.6 -16.15 4.5 -3.35 4.5 -3.35 -4.6 M-3.3 -9.4 Q-5.7 -13.5 -9.95 -16.6 -7.95 -12.6 -3.3 -9.4 M16.15 -4.6 L3.15 -4.6 3.15 4.5 16.15 4.5 16.15 -4.6 M3.15 -9.35 Q7.2 -11.7 10.35 -16.0 6.35 -14.0 3.15 -9.35 M12.95 -19.45 L15.35 -19.9 14.35 -17.7 12.25 -14.3 Q9.4 -10.5 5.65 -7.95 L19.5 -7.95 19.5 21.6 -19.5 21.6 -19.5 -7.95 -5.6 -7.95 Q-12.1 -12.8 -13.4 -19.2 L-13.85 -21.6 -11.65 -20.55 -7.3 -17.7 Q-2.55 -13.9 -0.15 -8.75 1.85 -12.25 4.4 -14.7 8.3 -18.55 12.95 -19.45" fill="#000000" fill-rule="evenodd" stroke="none"/>
  </g>
</svg>
