<?xml version="1.0" encoding="UTF-8" standalone="no"?>
<svg xmlns:xlink="http://www.w3.org/1999/xlink" height="30.7px" width="30.7px" xmlns="http://www.w3.org/2000/svg">
  <g transform="matrix(1.0, 0.0, 0.0, 1.0, 15.35, 15.35)">
    <path d="M8.9 -1.65 L1.65 -8.9 4.0 -11.2 11.2 -4.0 8.9 -1.65" fill="#ffffff" fill-rule="evenodd" stroke="none"/>
    <path d="M0.95 -8.2 L8.2 -0.95 -1.0 8.25 -8.25 1.0 0.95 -8.2 M0.95 1.65 L0.8 0.7 0.25 -0.25 2.4 -2.4 2.65 -1.5 Q2.65 -1.1 2.25 -0.55 L3.15 0.1 Q3.75 -0.75 3.7 -1.6 3.65 -2.35 3.05 -3.05 L3.4 -3.4 2.95 -3.8 2.6 -3.45 Q1.75 -4.15 1.05 -4.2 -0.05 -4.2 -0.8 -3.45 L-1.4 -2.45 -1.4 -1.35 -0.85 -0.05 -3.2 2.3 Q-3.55 1.85 -3.5 1.1 L-2.9 -0.1 -3.8 -0.7 -4.5 0.6 Q-4.65 1.3 -4.45 1.8 L-3.8 2.95 -4.55 3.7 -4.1 4.15 -3.35 3.35 Q-2.5 4.1 -1.55 4.1 -0.45 4.0 0.25 3.3 L0.8 2.5 0.95 1.65" fill="#ffffff" fill-rule="evenodd" stroke="none"/>
    <path d="M-4.0 11.2 L-11.2 4.0 -8.95 1.7 -1.7 8.95 -4.0 11.2" fill="#ffffff" fill-rule="evenodd" stroke="none"/>
    <path d="M-0.55 2.6 Q-1.05 3.05 -1.65 3.1 -2.25 3.1 -2.75 2.75 L-0.5 0.55 Q-0.1 1.2 -0.1 1.75 -0.15 2.15 -0.55 2.6" fill="#ffffff" fill-rule="evenodd" stroke="none"/>
    <path d="M1.95 -2.85 L-0.05 -0.8 -0.4 -1.9 0.05 -2.75 0.95 -3.2 1.95 -2.85" fill="#ffffff" fill-rule="evenodd" stroke="none"/>
    <path d="M-8.95 1.7 L-11.2 4.0 -4.0 11.2 -1.7 8.95 -8.95 1.7 M-1.0 8.25 L8.2 -0.95 0.95 -8.2 -8.25 1.0 -1.0 8.25 M11.2 -4.0 L4.0 -11.2 1.65 -8.9 8.9 -1.65 11.2 -4.0 M4.0 -15.35 L15.35 -4.0 -4.0 15.35 -15.35 4.0 4.0 -15.35" fill="#000000" fill-rule="evenodd" stroke="none"/>
    <path d="M-0.55 2.6 Q-0.15 2.15 -0.1 1.75 -0.1 1.2 -0.5 0.55 L-2.75 2.75 Q-2.25 3.1 -1.65 3.1 -1.05 3.05 -0.55 2.6 M-1.4 -1.35 L-1.4 -2.45 -0.8 -3.45 Q-0.05 -4.2 1.05 -4.2 1.75 -4.15 2.6 -3.45 L2.95 -3.8 3.4 -3.4 3.05 -3.05 Q3.65 -2.35 3.7 -1.6 3.75 -0.75 3.15 0.1 L2.25 -0.55 Q2.65 -1.1 2.65 -1.5 L2.4 -2.4 0.25 -0.25 0.8 0.7 0.95 1.65 0.8 2.5 0.25 3.3 Q-0.45 4.0 -1.55 4.1 -2.5 4.1 -3.35 3.35 L-4.1 4.15 -4.55 3.7 -3.8 2.95 -4.45 1.8 Q-4.65 1.3 -4.5 0.6 L-3.8 -0.7 -2.9 -0.1 -3.5 1.1 Q-3.55 1.85 -3.2 2.3 L-0.85 -0.05 -1.4 -1.35 M1.95 -2.85 L0.95 -3.2 0.05 -2.75 -0.4 -1.9 -0.05 -0.8 1.95 -2.85" fill="#000000" fill-rule="evenodd" stroke="none"/>
  </g>
</svg>
