<?xml version="1.0" encoding="UTF-8" standalone="no"?>
<svg xmlns:xlink="http://www.w3.org/1999/xlink" height="30.9px" width="68.5px" xmlns="http://www.w3.org/2000/svg">
  <g transform="matrix(1.0, 0.0, 0.0, 1.0, 34.25, 15.45)">
    <path d="M-18.6 -1.2 L-18.75 -1.2 -18.75 -5.0 -13.75 -5.15 -13.75 0.35 Q-15.95 -1.2 -18.6 -1.2" fill="#ffffff" fill-rule="evenodd" stroke="none"/>
    <path d="M-12.75 0.05 L-12.75 -5.15 -8.5 -5.25 6.4 0.05 -12.75 0.05" fill="#ffffff" fill-rule="evenodd" stroke="none"/>
    <path d="M9.2 1.05 L13.75 2.7 Q12.65 4.35 12.5 6.4 L-10.3 6.4 Q-10.6 3.2 -12.9 1.05 L9.2 1.05" fill="#ffffff" fill-rule="evenodd" stroke="none"/>
    <path d="M-16.35 7.15 Q-16.35 8.1 -17.0 8.75 -17.65 9.4 -18.6 9.4 -19.55 9.4 -20.2 8.75 -20.85 8.1 -20.85 7.15 -20.85 6.2 -20.2 5.55 -19.55 4.9 -18.6 4.9 -17.65 4.9 -17.0 5.55 -16.35 6.2 -16.35 7.15" fill="#ffffff" fill-rule="evenodd" stroke="none"/>
    <path d="M-20.2 8.75 Q-19.55 9.4 -18.6 9.4 -17.65 9.4 -17.0 8.75 -16.35 8.1 -16.35 7.15 -16.35 6.2 -17.0 5.55 -17.65 4.9 -18.6 4.9 -19.55 4.9 -20.2 5.55 -20.85 6.2 -20.85 7.15 -20.85 8.1 -20.2 8.75 M-12.75 -5.15 L-12.75 0.05 6.4 0.05 -8.5 -5.25 -12.75 -5.15 M-13.75 0.35 L-13.75 -5.15 -18.75 -5.0 -18.75 -1.2 -18.6 -1.2 Q-15.95 -1.2 -13.75 0.35 M12.5 6.4 Q12.65 4.35 13.75 2.7 L9.2 1.05 -12.9 1.05 Q-10.6 3.2 -10.3 6.4 L12.5 6.4 M19.2 8.75 Q19.85 9.4 20.8 9.4 21.75 9.4 22.4 8.75 23.05 8.1 23.05 7.15 23.05 6.2 22.4 5.55 21.75 4.9 20.8 4.9 19.85 4.9 19.2 5.55 18.55 6.2 18.55 7.15 18.55 8.1 19.2 8.75 M16.0 0.3 Q18.15 -1.2 20.8 -1.2 23.6 -1.2 25.85 0.55 28.05 2.25 28.8 4.9 L33.25 6.45 Q33.8 6.65 34.05 7.1 L34.2 8.15 Q34.15 8.65 33.7 9.05 33.3 9.4 32.75 9.4 L28.8 9.4 Q28.05 12.05 25.85 13.75 23.6 15.45 20.8 15.45 17.95 15.45 15.7 13.75 13.5 12.05 12.75 9.4 L-10.55 9.4 Q-11.3 12.05 -13.5 13.75 -15.75 15.45 -18.6 15.45 -22.05 15.45 -24.45 13.05 -26.9 10.6 -26.9 7.15 -26.9 4.55 -25.45 2.45 -24.05 0.4 -21.75 -0.55 L-21.75 -6.45 -21.5 -7.25 -22.9 -11.8 -34.25 -11.8 -34.25 -15.45 -6.25 -15.45 -6.25 -12.1 -17.6 -12.1 -15.8 -8.05 -8.3 -8.3 -7.75 -8.2 16.0 0.3" fill="#000000" fill-rule="evenodd" stroke="none"/>
    <path d="M23.05 7.15 Q23.05 8.1 22.4 8.75 21.75 9.4 20.8 9.4 19.85 9.4 19.2 8.75 18.55 8.1 18.55 7.15 18.55 6.2 19.2 5.55 19.85 4.9 20.8 4.9 21.75 4.9 22.4 5.55 23.05 6.2 23.05 7.15" fill="#ffffff" fill-rule="evenodd" stroke="none"/>
  </g>
</svg>
