<?xml version="1.0" encoding="UTF-8" standalone="no"?>
<svg xmlns:xlink="http://www.w3.org/1999/xlink" height="27.7px" width="40.05px" xmlns="http://www.w3.org/2000/svg">
  <g transform="matrix(1.0, 0.0, 0.0, 1.0, 20.0, 13.85)">
    <path d="M-9.85 -7.65 L-15.85 -7.65 -15.85 -2.2 -9.85 -2.2 -9.85 -7.65 M11.0 9.25 L11.0 10.5 -16.65 10.5 -16.65 -8.15 11.0 -8.15 11.0 -6.35 -0.85 -6.35 Q-4.3 -6.35 -6.75 -4.1 -9.2 -1.85 -9.25 1.45 -9.2 4.75 -6.75 7.0 -4.3 9.25 -0.85 9.25 L0.3 9.15 10.5 9.15 11.0 9.25" fill="#ffffff" fill-rule="evenodd" stroke="none"/>
    <path d="M-13.85 -11.85 L-13.85 -11.35 -11.85 -11.35 -11.85 -11.85 -13.85 -11.85 M11.0 10.5 L11.0 9.25 10.5 9.15 0.3 9.15 -0.85 9.25 Q-4.3 9.25 -6.75 7.0 -9.2 4.75 -9.25 1.45 -9.2 -1.85 -6.75 -4.1 -4.3 -6.35 -0.85 -6.35 L11.0 -6.35 11.0 -8.15 -16.65 -8.15 -16.65 10.5 11.0 10.5 M15.55 4.85 Q17.1 3.45 17.1 1.45 17.1 -0.5 15.55 -1.95 13.95 -3.4 11.7 -3.4 9.4 -3.4 7.8 -1.95 6.25 -0.55 6.25 1.45 6.25 3.45 7.8 4.85 9.4 6.3 11.7 6.3 13.95 6.3 15.55 4.85 M14.35 -5.95 Q16.85 -5.2 18.4 -3.2 20.05 -1.1 20.05 1.45 20.05 4.05 18.4 6.1 16.85 8.1 14.35 8.85 L14.35 13.85 -20.0 13.85 -20.0 -11.5 -15.85 -11.5 -15.85 -13.85 -9.85 -13.85 -9.85 -11.5 14.35 -11.5 14.35 -5.95" fill="#000000" fill-rule="evenodd" stroke="none"/>
    <path d="M-11.85 -11.85 L-11.85 -11.35 -13.85 -11.35 -13.85 -11.85 -11.85 -11.85" fill="#ffffff" fill-rule="evenodd" stroke="none"/>
    <path d="M-11.85 -5.65 L-11.85 -4.2 -13.85 -4.2 -13.85 -5.65 -11.85 -5.65" fill="#ffffff" fill-rule="evenodd" stroke="none"/>
    <path d="M-13.85 -5.65 L-13.85 -4.2 -11.85 -4.2 -11.85 -5.65 -13.85 -5.65 M-15.85 -7.65 L-9.85 -7.65 -9.85 -2.2 -15.85 -2.2 -15.85 -7.65" fill="#000000" fill-rule="evenodd" stroke="none"/>
    <path d="M14.3 4.4 Q15.5 3.25 15.5 1.7 15.5 0.1 14.3 -1.05 13.1 -2.15 11.4 -2.15 9.75 -2.15 8.55 -1.05 7.3 0.1 7.3 1.7 7.3 3.25 8.55 4.4 9.75 5.5 11.4 5.5 13.1 5.5 14.3 4.4 M17.1 1.45 Q17.1 3.45 15.55 4.85 13.95 6.3 11.7 6.3 9.4 6.3 7.8 4.85 6.25 3.45 6.25 1.45 6.25 -0.55 7.8 -1.95 9.4 -3.4 11.7 -3.4 13.95 -3.4 15.55 -1.95 17.1 -0.5 17.1 1.45" fill="#ffffff" fill-rule="evenodd" stroke="none"/>
    <path d="M11.4 -1.2 Q12.75 -1.2 13.65 -0.35 14.55 0.5 14.55 1.7 14.55 2.85 13.65 3.7 12.75 4.55 11.4 4.55 10.1 4.55 9.2 3.7 8.3 2.85 8.25 1.7 8.3 0.5 9.2 -0.35 10.1 -1.2 11.4 -1.2" fill="#ffffff" fill-rule="evenodd" stroke="none"/>
    <path d="M11.4 4.55 Q12.75 4.55 13.65 3.7 14.55 2.85 14.55 1.7 14.55 0.5 13.65 -0.35 12.75 -1.2 11.4 -1.2 10.1 -1.2 9.2 -0.35 8.3 0.5 8.25 1.7 8.3 2.85 9.2 3.7 10.1 4.55 11.4 4.55 M15.5 1.7 Q15.5 3.25 14.3 4.4 13.1 5.5 11.4 5.5 9.75 5.5 8.55 4.4 7.3 3.25 7.3 1.7 7.3 0.1 8.55 -1.05 9.75 -2.15 11.4 -2.15 13.1 -2.15 14.3 -1.05 15.5 0.1 15.5 1.7" fill="#000000" fill-rule="evenodd" stroke="none"/>
  </g>
</svg>
