<?xml version="1.0" encoding="UTF-8" standalone="no"?>
<svg xmlns:xlink="http://www.w3.org/1999/xlink" height="29.55px" width="29.6px" xmlns="http://www.w3.org/2000/svg">
  <g transform="matrix(1.0, 0.0, 0.0, 1.0, 14.8, 14.8)">
    <path d="M-4.1 0.0 L-3.75 1.6 -11.2 3.9 Q-11.8 2.2 -11.9 0.0 -11.8 -3.4 -10.15 -6.15 L-3.3 -2.4 Q-4.1 -1.35 -4.1 0.0" fill="#ffffff" fill-rule="evenodd" stroke="none"/>
    <path d="M11.35 -3.45 Q11.9 -1.8 11.9 0.0 11.9 3.4 9.95 6.4 L3.35 2.3 Q4.1 1.2 4.1 0.0 L3.75 -1.6 11.35 -3.45" fill="#ffffff" fill-rule="evenodd" stroke="none"/>
    <path d="M-2.95 -2.8 L-9.9 -6.6 Q-8.25 -9.05 -5.7 -10.45 -3.05 -11.9 0.0 -11.9 3.85 -11.9 6.95 -9.65 10.0 -7.45 11.2 -3.95 L3.55 -2.05 Q2.35 -4.1 0.0 -4.1 -1.8 -4.1 -2.95 -2.8" fill="#ffffff" fill-rule="evenodd" stroke="none"/>
    <path d="M-11.05 4.35 L-3.5 2.05 Q-2.35 4.05 0.0 4.05 1.85 4.05 3.05 2.7 L9.7 6.85 Q8.05 9.15 5.55 10.5 2.95 11.85 0.0 11.85 -3.7 11.85 -6.75 9.75 -9.7 7.7 -11.05 4.35" fill="#ffffff" fill-rule="evenodd" stroke="none"/>
    <path d="M0.0 4.05 Q-2.35 4.05 -3.5 2.05 L-11.05 4.35 Q-9.7 7.7 -6.75 9.75 -3.7 11.85 0.0 11.85 2.95 11.85 5.55 10.5 8.05 9.15 9.7 6.85 L3.05 2.7 Q1.85 4.05 0.0 4.05 M0.0 -2.6 Q-1.05 -2.6 -1.8 -1.85 -2.6 -1.1 -2.6 0.0 -2.6 1.05 -1.8 1.8 -1.05 2.55 0.0 2.55 1.1 2.55 1.85 1.8 2.6 1.05 2.6 0.0 2.6 -1.1 1.85 -1.85 1.1 -2.6 0.0 -2.6 M0.0 -11.9 Q-3.05 -11.9 -5.7 -10.45 -8.25 -9.05 -9.9 -6.6 L-2.95 -2.8 Q-1.8 -4.1 0.0 -4.1 2.35 -4.1 3.55 -2.05 L11.2 -3.95 Q10.0 -7.45 6.95 -9.65 3.85 -11.9 0.0 -11.9 M-11.9 0.0 Q-11.8 2.2 -11.2 3.9 L-3.75 1.6 -4.1 0.0 Q-4.1 -1.35 -3.3 -2.4 L-10.15 -6.15 Q-11.8 -3.4 -11.9 0.0 M10.45 -10.45 Q14.8 -6.15 14.8 0.0 14.8 6.1 10.45 10.45 6.1 14.75 0.0 14.75 -6.1 14.75 -10.45 10.45 -14.8 6.1 -14.8 0.0 -14.8 -6.15 -10.45 -10.45 -6.1 -14.8 0.0 -14.8 6.1 -14.8 10.45 -10.45 M11.9 0.0 Q11.9 -1.8 11.35 -3.45 L3.75 -1.6 4.1 0.0 Q4.1 1.2 3.35 2.3 L9.95 6.4 Q11.9 3.4 11.9 0.0" fill="#000000" fill-rule="evenodd" stroke="none"/>
  </g>
</svg>
