<?xml version="1.0" encoding="UTF-8" standalone="no"?>
<svg xmlns:xlink="http://www.w3.org/1999/xlink" height="57.7px" width="63.65px" xmlns="http://www.w3.org/2000/svg">
  <g transform="matrix(1.0, 0.0, 0.0, 1.0, 31.8, 28.85)">
    <path d="M-28.8 25.85 L-28.8 -0.95 28.85 -0.95 28.85 25.85 -28.8 25.85 M9.7 24.1 L13.25 24.1 13.25 19.8 9.7 19.8 9.7 24.1 M8.75 24.1 L8.75 19.8 4.9 19.8 4.9 24.1 8.75 24.1 M17.9 21.15 L17.9 19.8 14.15 19.8 14.15 24.1 16.0 24.1 16.0 21.15 17.9 21.15 M18.8 21.15 L22.8 21.15 22.8 19.8 18.8 19.8 18.8 21.15 M27.7 24.1 L27.7 19.8 23.7 19.8 23.7 21.15 24.1 21.15 24.1 24.1 27.7 24.1 M-8.1 24.1 L-8.1 21.4 -25.45 21.4 -25.45 24.1 -8.1 24.1 M-25.45 8.4 L-25.45 18.95 -7.85 18.95 -7.85 8.4 -25.45 8.4 M23.7 9.35 L27.7 9.35 27.7 6.0 23.7 6.0 23.7 9.35 M18.8 10.25 L18.8 14.45 22.8 14.45 22.8 10.25 18.8 10.25 M23.7 10.25 L23.7 14.45 27.7 14.45 27.7 10.25 23.7 10.25 M23.7 15.35 L23.7 18.9 27.7 18.9 27.7 15.35 23.7 15.35 M18.8 15.35 L18.8 18.9 22.8 18.9 22.8 15.35 18.8 15.35 M22.8 6.0 L18.8 6.0 18.8 9.35 22.8 9.35 22.8 6.0 M18.8 0.8 L18.8 5.1 22.8 5.1 22.8 0.8 18.8 0.8 M27.7 5.1 L27.7 0.8 23.7 0.8 23.7 5.1 27.7 5.1 M14.15 6.0 L14.15 9.35 17.9 9.35 17.9 6.0 14.15 6.0 M8.75 9.35 L8.75 6.0 4.9 6.0 4.9 9.35 8.75 9.35 M14.15 10.25 L14.15 14.45 17.9 14.45 17.9 10.25 14.15 10.25 M13.25 14.45 L13.25 10.25 9.7 10.25 9.7 14.45 13.25 14.45 M14.15 15.35 L14.15 18.9 17.9 18.9 17.9 15.35 14.15 15.35 M9.7 15.35 L9.7 18.9 13.25 18.9 13.25 15.35 9.7 15.35 M4.9 10.25 L4.9 14.45 8.75 14.45 8.75 10.25 4.9 10.25 M4.9 15.35 L4.9 18.9 8.75 18.9 8.75 15.35 4.9 15.35 M13.25 6.0 L9.7 6.0 9.7 9.35 13.25 9.35 13.25 6.0 M13.25 0.8 L9.7 0.8 9.7 5.1 13.25 5.1 13.25 0.8 M8.75 5.1 L8.75 0.8 4.9 0.8 4.9 5.1 8.75 5.1 M14.15 0.8 L14.15 5.1 17.9 5.1 17.9 0.8 14.15 0.8" fill="#ffffff" fill-rule="evenodd" stroke="none"/>
    <path d="M14.15 6.0 L17.9 6.0 17.9 9.35 14.15 9.35 14.15 6.0" fill="#000000" fill-rule="evenodd" stroke="none"/>
    <path d="M27.7 15.35 L27.7 18.9 23.7 18.9 23.7 15.35 27.7 15.35" fill="#000000" fill-rule="evenodd" stroke="none"/>
    <path d="M22.8 10.25 L22.8 14.45 18.8 14.45 18.8 10.25 22.8 10.25" fill="#000000" fill-rule="evenodd" stroke="none"/>
    <path d="M13.25 24.1 L9.7 24.1 9.7 19.8 13.25 19.8 13.25 24.1" fill="#000000" fill-rule="evenodd" stroke="none"/>
    <path d="M18.8 15.35 L22.8 15.35 22.8 18.9 18.8 18.9 18.8 15.35" fill="#000000" fill-rule="evenodd" stroke="none"/>
    <path d="M23.7 5.1 L23.7 0.8 27.7 0.8 27.7 5.1 23.7 5.1" fill="#000000" fill-rule="evenodd" stroke="none"/>
    <path d="M8.75 19.8 L8.75 24.1 4.9 24.1 4.9 19.8 8.75 19.8" fill="#000000" fill-rule="evenodd" stroke="none"/>
    <path d="M17.9 14.45 L14.15 14.45 14.15 10.25 17.9 10.25 17.9 14.45" fill="#000000" fill-rule="evenodd" stroke="none"/>
    <path d="M8.75 10.25 L8.75 14.45 4.9 14.45 4.9 10.25 8.75 10.25" fill="#000000" fill-rule="evenodd" stroke="none"/>
    <path d="M9.7 5.1 L9.7 0.8 13.25 0.8 13.25 5.1 9.7 5.1" fill="#000000" fill-rule="evenodd" stroke="none"/>
    <path d="M4.9 9.35 L4.9 6.0 8.75 6.0 8.75 9.35 4.9 9.35" fill="#000000" fill-rule="evenodd" stroke="none"/>
    <path d="M8.75 18.9 L4.9 18.9 4.9 15.35 8.75 15.35 8.75 18.9" fill="#000000" fill-rule="evenodd" stroke="none"/>
    <path d="M23.7 19.8 L27.7 19.8 27.7 24.1 24.1 24.1 24.1 21.15 23.7 21.15 23.7 19.8" fill="#000000" fill-rule="evenodd" stroke="none"/>
    <path d="M17.9 18.9 L14.15 18.9 14.15 15.35 17.9 15.35 17.9 18.9" fill="#000000" fill-rule="evenodd" stroke="none"/>
    <path d="M9.7 14.45 L9.7 10.25 13.25 10.25 13.25 14.45 9.7 14.45" fill="#000000" fill-rule="evenodd" stroke="none"/>
    <path d="M23.7 14.45 L23.7 10.25 27.7 10.25 27.7 14.45 23.7 14.45" fill="#000000" fill-rule="evenodd" stroke="none"/>
    <path d="M23.7 6.0 L27.7 6.0 27.7 9.35 23.7 9.35 23.7 6.0" fill="#000000" fill-rule="evenodd" stroke="none"/>
    <path d="M14.15 5.1 L14.15 0.8 17.9 0.8 17.9 5.1 14.15 5.1" fill="#000000" fill-rule="evenodd" stroke="none"/>
    <path d="M18.8 0.8 L22.8 0.8 22.8 5.1 18.8 5.1 18.8 0.8" fill="#000000" fill-rule="evenodd" stroke="none"/>
    <path d="M18.8 9.35 L18.8 6.0 22.8 6.0 22.8 9.35 18.8 9.35" fill="#000000" fill-rule="evenodd" stroke="none"/>
    <path d="M13.25 9.35 L9.7 9.35 9.7 6.0 13.25 6.0 13.25 9.35" fill="#000000" fill-rule="evenodd" stroke="none"/>
    <path d="M16.0 21.15 L16.0 24.1 14.15 24.1 14.15 19.8 17.9 19.8 17.9 21.15 16.0 21.15" fill="#000000" fill-rule="evenodd" stroke="none"/>
    <path d="M18.8 19.8 L22.8 19.8 22.8 21.15 18.8 21.15 18.8 19.8" fill="#000000" fill-rule="evenodd" stroke="none"/>
    <path d="M13.25 18.9 L9.7 18.9 9.7 15.35 13.25 15.35 13.25 18.9" fill="#000000" fill-rule="evenodd" stroke="none"/>
    <path d="M8.75 5.1 L4.9 5.1 4.9 0.8 8.75 0.8 8.75 5.1" fill="#000000" fill-rule="evenodd" stroke="none"/>
    <path d="M-14.2 13.4 Q-14.2 14.1 -13.7 14.65 -13.15 15.15 -12.45 15.15 -11.7 15.15 -11.2 14.65 -10.7 14.1 -10.7 13.4 -10.7 12.65 -11.2 12.15 -11.7 11.65 -12.45 11.65 -13.15 11.65 -13.7 12.15 -14.2 12.65 -14.2 13.4 M-21.0 11.65 Q-21.7 11.65 -22.25 12.15 -22.75 12.65 -22.75 13.4 -22.75 14.1 -22.25 14.65 -21.7 15.15 -21.0 15.15 -20.25 15.15 -19.7 14.65 -19.2 14.1 -19.2 13.4 -19.2 12.65 -19.7 12.15 -20.25 11.65 -21.0 11.65 M-25.45 18.95 L-25.45 8.4 -7.85 8.4 -7.85 18.95 -25.45 18.95" fill="#000000" fill-rule="evenodd" stroke="none"/>
    <path d="M-21.0 11.65 Q-20.25 11.65 -19.7 12.15 -19.2 12.65 -19.2 13.4 -19.2 14.1 -19.7 14.65 -20.25 15.15 -21.0 15.15 -21.7 15.15 -22.25 14.65 -22.75 14.1 -22.75 13.4 -22.75 12.65 -22.25 12.15 -21.7 11.65 -21.0 11.65" fill="#ffffff" fill-rule="evenodd" stroke="none"/>
    <path d="M-12.45 11.65 Q-11.7 11.65 -11.2 12.15 -10.7 12.65 -10.7 13.4 -10.7 14.1 -11.2 14.65 -11.7 15.15 -12.45 15.15 -13.15 15.15 -13.7 14.65 -14.2 14.1 -14.2 13.4 -14.2 12.65 -13.7 12.15 -13.15 11.65 -12.45 11.65" fill="#ffffff" fill-rule="evenodd" stroke="none"/>
    <path d="M-25.45 24.1 L-25.45 21.4 -8.1 21.4 -8.1 24.1 -25.45 24.1" fill="#000000" fill-rule="evenodd" stroke="none"/>
    <path d="M28.85 25.85 L28.85 -0.95 -28.8 -0.95 -28.8 25.85 28.85 25.85 M14.4 -3.95 L4.05 -28.1 5.7 -28.85 16.35 -3.95 31.85 -3.95 31.85 28.85 -31.8 28.85 -31.8 -3.95 -25.95 -3.95 Q-25.75 -5.2 -25.0 -5.2 L-16.15 -5.2 Q-15.4 -5.2 -15.2 -3.95 L14.4 -3.95" fill="#000000" fill-rule="evenodd" stroke="none"/>
  </g>
</svg>
