<?xml version="1.0" encoding="UTF-8" standalone="no"?>
<svg xmlns:xlink="http://www.w3.org/1999/xlink" height="76.1px" width="102.0px" xmlns="http://www.w3.org/2000/svg">
  <g transform="matrix(1.0, 0.0, 0.0, 1.0, 51.0, 38.05)">
    <path d="M25.2 1.4 Q28.95 -0.55 32.65 -0.55 36.5 -0.55 39.55 1.35 42.8 3.25 44.6 6.7 46.35 10.1 46.35 14.15 46.35 19.3 43.55 23.95 41.0 28.25 36.9 30.7 32.95 33.05 28.65 33.05 24.85 33.05 21.8 31.15 18.7 29.3 16.95 26.05 15.2 22.9 15.05 19.1 18.4 19.8 21.55 18.4 L29.85 23.35 31.45 20.7 32.15 21.15 29.05 26.4 31.75 28.0 41.3 12.0 38.55 10.4 34.0 18.05 33.25 17.6 34.2 16.05 34.6 16.25 35.1 15.45 34.65 15.25 36.25 12.55 27.9 7.6 Q27.5 4.0 25.2 1.4" fill="#ffffff" fill-rule="evenodd" stroke="none"/>
    <path d="M10.85 -14.4 Q13.6 -12.7 14.75 -9.4 L14.8 -9.15 15.0 -8.95 Q16.1 -7.6 18.0 -6.55 20.85 -5.05 24.6 -5.1 L25.75 -5.1 25.85 -5.15 29.25 -5.45 Q34.45 -5.45 38.85 -2.8 43.25 -0.15 45.7 4.35 48.1 8.75 48.1 13.95 48.1 19.8 45.1 24.85 42.2 29.7 37.35 32.5 32.65 35.15 27.4 35.15 22.2 35.15 17.8 32.5 11.45 28.75 9.35 21.45 L9.3 21.35 9.25 21.2 Q7.55 17.95 5.05 16.1 3.3 14.85 1.5 14.4 L1.2 14.3 0.85 14.4 -1.25 14.6 Q-3.65 14.6 -5.7 13.4 -7.95 12.1 -9.15 9.6 -10.35 7.1 -10.35 3.85 -10.35 2.05 -9.85 -0.3 L6.5 9.4 Q6.7 11.95 8.05 14.15 9.4 16.45 11.7 17.8 12.8 18.45 14.05 18.85 14.15 23.0 16.0 26.4 17.9 30.0 21.3 32.0 24.65 34.0 28.65 34.0 33.2 34.0 37.45 31.5 41.75 28.95 44.4 24.45 47.3 19.55 47.3 14.15 47.3 9.85 45.45 6.3 43.55 2.6 40.05 0.5 36.65 -1.5 32.65 -1.5 28.35 -1.5 24.5 0.7 L22.7 -0.65 Q20.45 -2.0 17.85 -2.15 15.3 -2.3 13.0 -1.3 L-3.55 -11.15 Q1.2 -15.6 6.35 -15.6 8.85 -15.6 10.85 -14.4" fill="#ffffff" fill-rule="evenodd" stroke="none"/>
    <path d="M31.9 19.9 L32.8 18.4 33.55 18.8 32.65 20.35 31.9 19.9" fill="#ffffff" fill-rule="evenodd" stroke="none"/>
    <path d="M-33.75 -19.3 L-32.85 -20.8 7.8 3.45 Q7.35 4.15 7.05 5.05 L-33.75 -19.3" fill="#ffffff" fill-rule="evenodd" stroke="none"/>
    <path d="M-31.0 -23.95 L-30.25 -25.25 11.4 -0.45 10.2 0.45 27.05 10.7 26.75 11.2 9.75 0.9 10.0 0.5 -31.0 -23.95" fill="#ffffff" fill-rule="evenodd" stroke="none"/>
    <path d="M31.45 17.6 L30.55 19.1 25.1 15.85 26.2 14.45 31.45 17.6" fill="#ffffff" fill-rule="evenodd" stroke="none"/>
    <path d="M31.95 16.8 L26.65 13.65 27.4 11.95 32.85 15.25 31.95 16.8" fill="#ffffff" fill-rule="evenodd" stroke="none"/>
    <path d="M33.35 14.45 L27.65 11.05 27.9 9.4 34.1 13.1 33.35 14.45" fill="#ffffff" fill-rule="evenodd" stroke="none"/>
    <path d="M29.3 21.2 L23.1 17.5 24.45 16.5 30.1 19.9 29.3 21.2" fill="#ffffff" fill-rule="evenodd" stroke="none"/>
    <path d="M-35.0 -17.15 L-34.2 -18.5 6.8 5.95 6.5 7.6 -35.0 -17.15" fill="#ffffff" fill-rule="evenodd" stroke="none"/>
    <path d="M-32.35 -21.6 L-31.45 -23.15 9.4 1.2 8.25 2.65 -32.35 -21.6" fill="#ffffff" fill-rule="evenodd" stroke="none"/>
    <path d="M24.1 16.55 L7.35 6.5 7.65 5.95 24.4 16.0 24.1 16.55" fill="#ffffff" fill-rule="evenodd" stroke="none"/>
    <path d="M8.05 3.2 L8.4 2.65 26.3 13.6 26.0 14.15 8.05 3.2" fill="#ffffff" fill-rule="evenodd" stroke="none"/>
    <path d="M32.65 20.35 L33.55 18.8 32.8 18.4 31.9 19.9 32.65 20.35 M29.3 21.2 L30.1 19.9 24.45 16.5 23.1 17.5 29.3 21.2 M24.1 16.55 L24.4 16.0 7.65 5.95 7.35 6.5 24.1 16.55 M26.0 14.15 L26.3 13.6 8.4 2.65 8.05 3.2 26.0 14.15 M26.2 14.45 L25.1 15.85 30.55 19.1 31.45 17.6 26.2 14.45 M31.95 16.8 L32.85 15.25 27.4 11.95 26.65 13.65 31.95 16.8 M32.65 -0.55 Q28.95 -0.55 25.2 1.4 27.5 4.0 27.9 7.6 L36.25 12.55 34.65 15.25 35.1 15.45 34.6 16.25 34.2 16.05 33.25 17.6 34.0 18.05 38.55 10.4 41.3 12.0 31.75 28.0 29.05 26.4 32.15 21.15 31.45 20.7 29.85 23.35 21.55 18.4 Q18.4 19.8 15.05 19.1 15.2 22.9 16.95 26.05 18.7 29.3 21.8 31.15 24.85 33.05 28.65 33.05 32.95 33.05 36.9 30.7 41.0 28.25 43.55 23.95 46.35 19.3 46.35 14.15 46.35 10.1 44.6 6.7 42.8 3.25 39.55 1.35 36.5 -0.55 32.65 -0.55 M27.9 9.4 L27.65 11.05 33.35 14.45 34.1 13.1 27.9 9.4 M-39.85 -22.75 L-41.65 -23.5 -39.7 -19.15 Q-38.3 -21.5 -39.85 -22.75 M-42.15 -28.35 L-43.95 -29.1 -42.0 -24.75 Q-40.65 -27.1 -42.15 -28.35 M-44.35 -30.3 Q-42.95 -32.65 -44.5 -33.9 L-46.3 -34.7 -44.35 -30.3 M14.8 -9.15 L14.75 -9.4 Q13.6 -12.7 10.85 -14.4 8.85 -15.6 6.35 -15.6 1.2 -15.6 -3.55 -11.15 L13.0 -1.3 Q15.3 -2.3 17.85 -2.15 20.45 -2.0 22.7 -0.65 L24.5 0.7 Q28.35 -1.5 32.65 -1.5 36.65 -1.5 40.05 0.5 43.55 2.6 45.45 6.3 47.3 9.85 47.3 14.15 47.3 19.55 44.4 24.45 41.75 28.95 37.45 31.5 33.2 34.0 28.65 34.0 24.65 34.0 21.3 32.0 17.9 30.0 16.0 26.4 14.15 23.0 14.05 18.85 12.8 18.45 11.7 17.8 9.4 16.45 8.05 14.15 6.7 11.95 6.5 9.4 L-9.85 -0.3 Q-10.35 2.05 -10.35 3.85 -10.35 7.1 -9.15 9.6 -7.95 12.1 -5.7 13.4 -3.65 14.6 -1.25 14.6 L0.85 14.4 1.2 14.3 1.5 14.4 Q3.3 14.85 5.05 16.1 7.55 17.95 9.25 21.2 L9.3 21.35 9.35 21.45 Q11.45 28.75 17.8 32.5 22.2 35.15 27.4 35.15 32.65 35.15 37.35 32.5 42.2 29.7 45.1 24.85 48.1 19.8 48.1 13.95 48.1 8.75 45.7 4.35 43.25 -0.15 38.85 -2.8 34.45 -5.45 29.25 -5.45 L25.85 -5.15 25.75 -5.1 24.6 -5.1 Q20.85 -5.05 18.0 -6.55 16.1 -7.6 15.0 -8.95 L14.8 -9.15 M-30.8 -27.3 L-30.75 -27.4 -6.1 -12.7 Q-3.4 -15.45 -0.15 -16.95 3.1 -18.45 6.35 -18.5 9.55 -18.5 12.3 -16.9 15.85 -14.75 17.35 -10.6 19.95 -8.0 24.6 -7.95 L25.4 -8.0 29.25 -8.35 Q35.2 -8.35 40.35 -5.3 45.45 -2.3 48.25 3.0 51.0 8.05 51.0 13.95 51.0 19.55 48.45 24.7 48.75 25.05 48.7 25.7 L48.3 27.0 47.3 28.0 46.3 28.2 Q42.9 32.9 37.85 35.5 32.85 38.05 27.4 38.05 21.45 38.05 16.3 35.0 9.1 30.7 6.6 22.45 4.45 18.3 1.05 17.3 L-1.25 17.5 Q-4.45 17.5 -7.2 15.9 -10.15 14.1 -11.75 10.85 -13.25 7.7 -13.25 3.85 -13.25 1.1 -12.4 -1.85 L-36.5 -16.2 -37.5 -14.7 -40.3 -15.75 -42.05 -19.6 -43.85 -18.85 -43.2 -17.8 -44.55 -17.3 -46.0 -21.15 -44.65 -21.6 -43.55 -20.1 -42.45 -20.45 -44.5 -24.95 -46.5 -24.1 -45.85 -23.05 -47.2 -22.55 -48.65 -26.4 -47.3 -26.85 -46.2 -25.35 -44.85 -25.8 -46.85 -30.25 -48.85 -29.35 -48.2 -28.3 -49.55 -27.85 -51.0 -31.7 -49.65 -32.15 -48.55 -30.65 -47.25 -31.1 -49.55 -36.2 -44.7 -38.05 -30.8 -27.3 M-30.25 -25.25 L-31.0 -23.95 10.0 0.5 9.75 0.9 26.75 11.2 27.05 10.7 10.2 0.45 11.4 -0.45 -30.25 -25.25 M-31.45 -23.15 L-32.35 -21.6 8.25 2.65 9.4 1.2 -31.45 -23.15 M-32.85 -20.8 L-33.75 -19.3 7.05 5.05 Q7.35 4.15 7.8 3.45 L-32.85 -20.8 M-34.2 -18.5 L-35.0 -17.15 6.5 7.6 6.8 5.95 -34.2 -18.5" fill="#000000" fill-rule="evenodd" stroke="none"/>
    <path d="M-39.7 -19.15 L-41.65 -23.5 -39.85 -22.75 Q-38.3 -21.5 -39.7 -19.15" fill="#ffffff" fill-rule="evenodd" stroke="none"/>
    <path d="M-42.0 -24.75 L-43.95 -29.1 -42.15 -28.35 Q-40.65 -27.1 -42.0 -24.75" fill="#ffffff" fill-rule="evenodd" stroke="none"/>
    <path d="M-46.3 -34.7 L-44.5 -33.9 Q-42.95 -32.65 -44.35 -30.3 L-46.3 -34.7" fill="#ffffff" fill-rule="evenodd" stroke="none"/>
  </g>
</svg>
