<?xml version="1.0" encoding="UTF-8" standalone="no"?>
<svg xmlns:xlink="http://www.w3.org/1999/xlink" height="79.05px" width="57.8px" xmlns="http://www.w3.org/2000/svg">
  <g transform="matrix(1.0, 0.0, 0.0, 1.0, 28.9, 39.55)">
    <path d="M25.8 9.5 L25.8 3.95 -26.5 3.95 -26.5 9.5 -9.9 9.5 -9.9 4.05 -8.9 4.05 -8.9 9.5 25.8 9.5 M12.95 -39.55 L12.95 -36.35 22.15 -36.35 22.15 -39.55 28.9 -39.55 28.9 39.5 22.15 39.5 22.15 11.4 12.95 11.4 12.95 39.5 6.2 39.5 6.2 11.4 -5.5 11.4 -5.5 39.5 -12.25 39.5 -12.25 11.4 -22.15 11.4 -22.15 39.5 -28.9 39.5 -28.9 2.3 -28.45 2.3 -28.45 2.05 6.2 2.05 6.2 -39.55 12.95 -39.55 M12.95 -16.85 L12.95 2.05 22.15 2.05 22.15 -16.85 12.95 -16.85" fill="#000000" fill-rule="evenodd" stroke="none"/>
    <path d="M25.8 3.95 L25.8 9.5 -8.9 9.5 -8.9 4.05 -9.9 4.05 -9.9 9.5 -26.5 9.5 -26.5 3.95 25.8 3.95" fill="#ffffff" fill-rule="evenodd" stroke="none"/>
  </g>
</svg>
