<?xml version="1.0" encoding="UTF-8" standalone="no"?>
<svg xmlns:xlink="http://www.w3.org/1999/xlink" height="37.65px" width="24.9px" xmlns="http://www.w3.org/2000/svg">
  <g transform="matrix(1.0, 0.0, 0.0, 1.0, 12.45, 18.85)">
    <path d="M-2.8 -3.9 Q-3.65 -5.0 -3.65 -6.3 L-3.6 -7.0 Q-3.35 -8.35 -2.25 -9.2 -1.25 -10.05 0.1 -10.05 L0.8 -9.95 Q2.15 -9.7 3.0 -8.65 3.8 -7.65 3.8 -6.3 L3.75 -5.55 Q3.5 -4.25 2.45 -3.4 1.4 -2.55 0.1 -2.55 L-0.65 -2.6 Q-1.95 -2.85 -2.8 -3.9" fill="#ffffff" fill-rule="evenodd" stroke="none"/>
    <path d="M-3.6 -7.0 L-3.65 -6.3 Q-3.65 -5.0 -2.8 -3.9 -1.95 -2.85 -0.65 -2.6 L0.1 -2.55 Q1.4 -2.55 2.45 -3.4 3.5 -4.25 3.75 -5.55 L3.8 -6.3 Q3.8 -7.65 3.0 -8.65 2.15 -9.7 0.8 -9.95 L0.1 -10.05 Q-1.25 -10.05 -2.25 -9.2 -3.35 -8.35 -3.6 -7.0 M-10.55 -10.15 Q-8.9 -10.55 -6.8 -10.15 L-5.1 -9.7 -5.05 -9.8 -6.5 -11.55 Q-7.7 -13.35 -7.95 -15.0 -8.15 -16.7 -7.3 -17.3 -6.4 -17.9 -4.9 -17.05 -3.45 -16.2 -2.2 -14.4 L-1.3 -12.75 -1.15 -14.15 Q-0.75 -16.3 0.3 -17.65 1.35 -19.0 2.4 -18.8 3.45 -18.6 3.9 -16.95 4.35 -15.3 3.95 -13.2 L3.45 -11.5 3.6 -11.4 5.2 -12.8 Q7.0 -14.0 8.7 -14.2 10.4 -14.45 11.0 -13.55 11.6 -12.7 10.75 -11.2 9.9 -9.7 8.1 -8.5 7.05 -7.85 6.2 -7.5 L7.75 -7.35 Q9.9 -6.9 11.25 -5.85 12.6 -4.85 12.4 -3.8 12.2 -2.75 10.55 -2.3 8.9 -1.85 6.8 -2.25 L5.55 -2.6 6.7 -1.2 Q7.9 0.6 8.15 2.3 8.35 3.95 7.45 4.55 6.6 5.15 5.1 4.3 3.6 3.45 2.4 1.65 L1.95 0.9 1.95 18.8 -0.1 18.8 -0.1 4.5 Q-1.3 6.3 -2.45 6.0 -3.5 5.8 -3.95 4.2 -4.4 2.55 -4.0 0.4 L-3.65 -0.8 -5.1 0.4 Q-6.9 1.6 -8.6 1.85 -10.3 2.05 -10.9 1.15 -11.5 0.3 -10.65 -1.2 -9.8 -2.7 -8.0 -3.9 L-6.05 -4.9 -7.75 -5.1 Q-9.9 -5.5 -11.25 -6.55 -12.6 -7.6 -12.4 -8.65 -12.2 -9.7 -10.55 -10.15" fill="#000000" fill-rule="evenodd" stroke="none"/>
  </g>
</svg>
