<?xml version="1.0" encoding="UTF-8" standalone="no"?>
<svg xmlns:xlink="http://www.w3.org/1999/xlink" height="17.4px" width="33.3px" xmlns="http://www.w3.org/2000/svg">
  <g transform="matrix(1.0, 0.0, 0.0, 1.0, 16.65, 8.7)">
    <path d="M11.95 -6.4 Q13.1 -6.35 13.9 -5.55 14.7 -4.75 14.7 -3.6 14.7 -2.45 13.9 -1.6 13.1 -0.8 11.95 -0.8 L10.75 -1.1 11.25 -2.85 Q11.55 -2.55 11.95 -2.55 L12.7 -2.85 13.0 -3.6 12.7 -4.35 11.95 -4.65 11.55 -4.55 11.7 -6.35 11.95 -6.4" fill="#ffffff" fill-rule="evenodd" stroke="none"/>
    <path d="M5.2 2.45 Q8.5 -0.9 8.8 -5.8 L-13.75 -5.8 Q-13.4 -0.9 -10.15 2.45 -6.9 5.75 -2.45 5.8 1.95 5.75 5.2 2.45 M11.65 -8.3 L11.95 -8.3 Q13.9 -8.3 15.3 -6.9 16.65 -5.55 16.65 -3.6 16.65 -1.65 15.3 -0.25 13.9 1.1 11.95 1.1 L9.95 0.7 Q8.15 4.3 4.9 6.45 1.55 8.65 -2.45 8.7 -8.4 8.65 -12.55 4.15 -16.65 -0.35 -16.65 -6.7 L-16.6 -8.7 11.65 -8.7 11.65 -8.3 M13.9 -5.55 Q13.1 -6.35 11.95 -6.4 L11.7 -6.35 11.55 -4.55 11.95 -4.65 12.7 -4.35 13.0 -3.6 12.7 -2.85 11.95 -2.55 Q11.55 -2.55 11.25 -2.85 L10.75 -1.1 11.95 -0.8 Q13.1 -0.8 13.9 -1.6 14.7 -2.45 14.7 -3.6 14.7 -4.75 13.9 -5.55" fill="#000000" fill-rule="evenodd" stroke="none"/>
    <path d="M-5.3 0.05 Q-5.3 1.7 -4.6 3.0 -3.95 4.3 -2.95 4.55 L-2.95 -4.45 Q-3.95 -4.2 -4.6 -2.9 -5.3 -1.6 -5.3 0.05 M-0.3 -2.9 Q-0.95 -4.2 -1.95 -4.45 L-1.95 4.55 Q-0.95 4.3 -0.3 3.0 0.4 1.7 0.4 0.05 0.4 -1.6 -0.3 -2.9 M8.8 -5.8 Q8.5 -0.9 5.2 2.45 1.95 5.75 -2.45 5.8 -6.9 5.75 -10.15 2.45 -13.4 -0.9 -13.75 -5.8 L8.8 -5.8" fill="#ffffff" fill-rule="evenodd" stroke="none"/>
    <path d="M-2.95 -4.45 L-2.95 4.55 Q-3.95 4.3 -4.6 3.0 -5.3 1.7 -5.3 0.05 -5.3 -1.6 -4.6 -2.9 -3.95 -4.2 -2.95 -4.45" fill="#000000" fill-rule="evenodd" stroke="none"/>
    <path d="M-1.95 -4.45 Q-0.95 -4.2 -0.3 -2.9 0.4 -1.6 0.4 0.05 0.4 1.7 -0.3 3.0 -0.95 4.3 -1.95 4.55 L-1.95 -4.45" fill="#000000" fill-rule="evenodd" stroke="none"/>
  </g>
</svg>
