<?xml version="1.0" encoding="UTF-8" standalone="no"?>
<svg xmlns:xlink="http://www.w3.org/1999/xlink" height="60.0px" width="110.5px" xmlns="http://www.w3.org/2000/svg">
  <g transform="matrix(1.0, 0.0, 0.0, 1.0, 55.25, 30.0)">
    <path d="M-36.75 -7.0 L-48.75 -7.0 -48.75 -6.0 -36.75 -6.0 -36.75 3.5 -37.0 3.5 Q-37.9 3.5 -38.55 4.15 -39.25 4.8 -39.25 5.75 -39.25 6.7 -38.55 7.35 -37.9 8.0 -37.0 8.0 L-36.75 7.95 -36.75 12.0 -47.25 12.0 -47.25 13.0 -36.75 13.0 -36.75 15.75 -37.0 15.75 Q-37.9 15.75 -38.55 16.4 -39.25 17.05 -39.25 18.0 -39.25 18.95 -38.55 19.6 -37.9 20.25 -37.0 20.25 L-36.75 20.2 -36.75 25.0 -30.75 25.0 -30.75 27.0 -52.25 27.0 -52.25 -23.0 -36.75 -23.0 -36.75 -7.0" fill="#ffffff" fill-rule="evenodd" stroke="none"/>
    <path d="M-27.75 25.0 L-16.75 25.0 -16.75 27.0 -27.75 27.0 -27.75 25.0" fill="#ffffff" fill-rule="evenodd" stroke="none"/>
    <path d="M9.9 20.4 Q10.45 20.95 11.25 20.95 12.1 20.95 12.65 20.4 13.25 19.8 13.25 19.0 13.25 18.2 12.65 17.6 12.1 17.05 11.25 17.05 10.45 17.05 9.9 17.6 9.3 18.2 9.3 19.0 9.3 19.8 9.9 20.4 M26.4 -21.45 L26.25 -21.5 26.25 18.0 26.4 17.95 26.4 20.15 Q24.35 20.8 22.5 22.0 L-33.75 22.0 -33.75 -27.0 26.4 -27.0 26.4 -21.45 M22.05 -23.15 Q20.4 -24.55 18.05 -24.6 L-26.05 -24.6 Q-28.35 -24.55 -30.0 -23.15 -31.7 -21.7 -31.75 -19.6 L-31.75 11.0 Q-31.7 13.15 -30.0 14.6 -28.35 16.0 -26.05 16.0 L18.05 16.0 Q20.4 16.0 22.05 14.6 23.7 13.15 23.75 11.0 L23.75 -19.6 Q23.7 -21.7 22.05 -23.15" fill="#ffffff" fill-rule="evenodd" stroke="none"/>
    <path d="M6.6 -12.85 L3.4 -12.85 3.4 -9.65 6.6 -9.65 6.6 -12.85 M18.75 -11.6 Q19.5 -7.75 19.5 -4.25 20.25 -16.5 19.25 -18.75 18.65 -20.15 16.0 -20.85 L13.5 -21.25 Q17.25 -19.35 18.75 -11.6 M-9.05 -6.4 L-9.05 9.05 -5.85 9.05 -5.85 -0.05 -3.05 -0.05 -3.05 5.85 -3.2 5.85 -3.2 9.05 0.0 9.05 0.0 6.25 0.1 6.25 0.1 -0.1 0.2 -0.1 0.2 -3.2 0.3 -3.2 0.3 -6.4 3.45 -6.4 3.45 -9.6 0.25 -9.6 0.25 -6.4 -2.85 -6.4 -2.85 -12.5 -6.05 -12.5 -6.05 -6.4 -9.05 -6.4 M-26.05 14.0 Q-27.6 14.0 -28.7 13.1 -29.75 12.2 -29.75 11.0 L-29.75 -19.6 Q-29.75 -20.75 -28.7 -21.65 -27.6 -22.55 -26.05 -22.6 L18.05 -22.6 Q19.6 -22.55 20.7 -21.65 21.75 -20.75 21.75 -19.6 L21.75 11.0 Q21.75 12.2 20.7 13.1 19.6 14.0 18.05 14.0 L-26.05 14.0 M-12.3 -9.6 L-12.3 -6.4 -9.15 -6.4 -9.15 -9.6 -12.3 -9.6 M-12.45 -9.65 L-12.45 -12.85 -15.65 -12.85 -15.65 -9.65 -12.45 -9.65" fill="#ffffff" fill-rule="evenodd" stroke="none"/>
    <path d="M30.8 22.85 L27.3 24.05 Q23.8 25.55 22.1 28.0 L34.75 28.0 Q34.55 24.95 31.0 22.95 L30.8 22.85 M29.4 22.2 L28.1 21.75 Q25.75 22.35 23.9 23.5 20.75 25.4 20.1 28.0 L20.9 28.0 Q23.3 24.0 29.4 22.2 M19.3 25.0 L14.25 25.0 14.25 28.35 18.05 28.35 Q18.25 26.6 19.3 25.0 M26.25 -21.5 L26.4 -21.45 26.4 -27.0 -33.75 -27.0 -33.75 22.0 22.5 22.0 Q24.35 20.8 26.4 20.15 L26.4 17.95 26.25 18.0 26.25 -21.5 M-16.75 25.0 L-27.75 25.0 -27.75 27.0 -16.75 27.0 -16.75 25.0 M-48.75 -7.0 L-36.75 -7.0 -36.75 -23.0 -52.25 -23.0 -52.25 27.0 -30.75 27.0 -30.75 25.0 -36.75 25.0 -36.75 20.2 -37.0 20.25 Q-37.9 20.25 -38.55 19.6 -39.25 18.95 -39.25 18.0 -39.25 17.05 -38.55 16.4 -37.9 15.75 -37.0 15.75 L-36.75 15.75 -36.75 13.0 -47.25 13.0 -47.25 12.0 -36.75 12.0 -36.75 7.95 -37.0 8.0 Q-37.9 8.0 -38.55 7.35 -39.25 6.7 -39.25 5.75 -39.25 4.8 -38.55 4.15 -37.9 3.5 -37.0 3.5 L-36.75 3.5 -36.75 -6.0 -48.75 -6.0 -48.75 -7.0 M32.75 -18.0 L32.75 15.0 29.4 16.55 29.4 19.4 33.75 19.0 Q39.9 19.05 44.35 21.6 48.95 24.25 49.5 28.35 L55.25 28.35 55.25 30.0 13.25 30.0 13.25 29.95 -2.75 29.95 -2.75 30.0 -55.25 30.0 -55.25 -26.0 -36.75 -26.0 -36.75 -30.0 29.4 -30.0 29.4 -19.8 32.75 -18.0 M43.65 23.5 Q39.6 21.0 33.75 21.0 L29.9 21.35 Q35.45 23.55 35.75 28.0 L47.45 28.0 Q46.85 25.45 43.65 23.5" fill="#000000" fill-rule="evenodd" stroke="none"/>
    <path d="M-28.7 -21.65 Q-29.75 -20.75 -29.75 -19.6 L-29.75 11.0 Q-29.75 12.2 -28.7 13.1 -27.6 14.0 -26.05 14.0 L18.05 14.0 Q19.6 14.0 20.7 13.1 21.75 12.2 21.75 11.0 L21.75 -19.6 Q21.75 -20.75 20.7 -21.65 19.6 -22.55 18.05 -22.6 L-26.05 -22.6 Q-27.6 -22.55 -28.7 -21.65 M18.05 -24.6 Q20.4 -24.55 22.05 -23.15 23.7 -21.7 23.75 -19.6 L23.75 11.0 Q23.7 13.15 22.05 14.6 20.4 16.0 18.05 16.0 L-26.05 16.0 Q-28.35 16.0 -30.0 14.6 -31.7 13.15 -31.75 11.0 L-31.75 -19.6 Q-31.7 -21.7 -30.0 -23.15 -28.35 -24.55 -26.05 -24.6 L18.05 -24.6" fill="#000000" fill-rule="evenodd" stroke="none"/>
    <path d="M11.25 17.05 Q12.1 17.05 12.65 17.6 13.25 18.2 13.25 19.0 13.25 19.8 12.65 20.4 12.1 20.95 11.25 20.95 10.45 20.95 9.9 20.4 9.3 19.8 9.3 19.0 9.3 18.2 9.9 17.6 10.45 17.05 11.25 17.05" fill="#000000" fill-rule="evenodd" stroke="none"/>
    <path d="M13.5 -21.25 L16.0 -20.85 Q18.65 -20.15 19.25 -18.75 20.25 -16.5 19.5 -4.25 19.5 -7.75 18.75 -11.6 17.25 -19.35 13.5 -21.25" fill="#000000" fill-rule="evenodd" stroke="none"/>
    <path d="M27.3 24.05 L30.8 22.85 31.0 22.95 Q34.55 24.95 34.75 28.0 L22.1 28.0 Q23.8 25.55 27.3 24.05" fill="#ffffff" fill-rule="evenodd" stroke="none"/>
    <path d="M33.75 21.0 Q39.6 21.0 43.65 23.5 46.85 25.45 47.45 28.0 L35.75 28.0 Q35.45 23.55 29.9 21.35 L33.75 21.0" fill="#ffffff" fill-rule="evenodd" stroke="none"/>
    <path d="M23.9 23.5 Q25.75 22.35 28.1 21.75 L29.4 22.2 Q23.3 24.0 20.9 28.0 L20.1 28.0 Q20.75 25.4 23.9 23.5" fill="#ffffff" fill-rule="evenodd" stroke="none"/>
    <path d="M-9.05 9.05 L-9.05 -6.4 -6.05 -6.4 -6.05 -12.5 -2.85 -12.5 -2.85 -6.4 0.3 -6.4 0.3 -3.2 0.2 -3.2 0.2 -0.1 0.1 -0.1 0.1 6.25 0.0 6.25 0.0 9.05 -3.2 9.05 -3.2 5.85 -3.05 5.85 -3.05 -0.05 -5.85 -0.05 -5.85 9.05 -9.05 9.05" fill="#000000" fill-rule="evenodd" stroke="none"/>
    <path d="M0.25 -6.4 L0.25 -9.6 3.45 -9.6 3.45 -6.4 0.25 -6.4" fill="#000000" fill-rule="evenodd" stroke="none"/>
    <path d="M-12.3 -6.4 L-12.3 -9.6 -9.15 -9.6 -9.15 -6.4 -12.3 -6.4" fill="#000000" fill-rule="evenodd" stroke="none"/>
    <path d="M3.4 -9.65 L3.4 -12.85 6.6 -12.85 6.6 -9.65 3.4 -9.65" fill="#000000" fill-rule="evenodd" stroke="none"/>
    <path d="M-15.65 -9.65 L-15.65 -12.85 -12.45 -12.85 -12.45 -9.65 -15.65 -9.65" fill="#000000" fill-rule="evenodd" stroke="none"/>
  </g>
</svg>
