<?xml version="1.0" encoding="UTF-8"?>
<svg width="51.755pt" height="90pt" version="1.0" viewBox="0 0 51.755 90" xmlns="http://www.w3.org/2000/svg" xmlns:cc="http://creativecommons.org/ns#" xmlns:dc="http://purl.org/dc/elements/1.1/" xmlns:rdf="http://www.w3.org/1999/02/22-rdf-syntax-ns#">
 <metadata>Created by potrace 1.16, written by Peter Selinger 2001-2019
  <rdf:RDF>
   <cc:Work rdf:about="">
    <dc:format>image/svg+xml</dc:format>
    <dc:type rdf:resource="http://purl.org/dc/dcmitype/StillImage"/>
    <dc:title/>
   </cc:Work>
  </rdf:RDF>
 </metadata>
 <path d="m16.827 88.308 26.032 0.14382 1.4382-10.499-0.28765-13.519-2.8765-18.553-5.4653-15.101-3.4518-8.7732 5.3215 0.5753 9.2047 6.6159 0.43147-3.7394-3.0203-5.0338-7.1017-4.0758-7.4244-0.5265 3.8832-4.1709 10.068-4.1709 4.4585-1.1506-5.1776-2.8765h-7.1912l-7.9103 4.7462-2.1933 0.53934-4.1349-6.1844-6.1485-1.9776-2.9124 1.0427 5.7529 3.9551 2.0854 3.3439-7.8743-2.409-7.299 1.3304-2.1933 2.6967 6.0046 0.39552 8.989 3.3079 2.1214 2.6248-8.989 0.75507-6.7237 5.4293-1.618 6.0765 0.50338 5.6091 4.2068-6.0406 5.7529-5.8608 5.4293-1.5101 7.2631 7.8024 2.409 15.101-2.7648 23.302z" fill="#fff"/>
 <g transform="matrix(.012811 0 0 -.012811 -20.369 112.29)">
  <path d="m2685 8763c-109.81-18.356-219.02-51.609-312-112-35-29-28-41 22-41 134 0 332-105 480-255 79-80 127-134 150-169l19-29-24 14c-14 8-27 16-30 19-18 18-124 65-190 85-147 44-219 54-360 51-335.06-10.195-790.12-222.6-850-573 0-2 16 5 35 14 370.5 188.36 809.63 88.22 1150-97 28-14 52-27 55-30s25-18 50-32 58-37 74-51l29-25-84 5c-166 11-361-32-534-117-311-152-550-441-635-770-11-41-25-127-31-190-19-183 14-360 98-525 48-95 85-146 128-180l37-27-7 73c-34 376 375 947 852 1188l58 29 1-112c1-129 15-181 76-271 49-73 115-128 188-157 77-30 223-31 297-1l53 21 19-67c165-561 201-1318 101-2109-20-158-79-501-106-622-189-829-470-1467-824-1869-39-44-70-82-70-85s542-6 1204-6h1203l22 93c53 225 87 455 117 777 21 228 25 853 6 1100-90 1182-383 2237-847 3055-48 85-63 120-64 154l-1 43 33-7c391.53-96.062 904.48-394.27 1017-765l12-45 23 29c43 54 59 135 60 306-9.7182 607.36-562.67 1094.9-1207 1114h-147l40 36c23 19 60 52 83 72 146.65 109.01 312.36 210.81 466 280 244.16 104.32 518.13 188.21 812 139 31-5 81-21 111-35 52-25 87-33 87-20 0 3-14 35-31 71-22 46-55 90-114 149-377.2 384.69-1061 381.52-1500 143-57.23-30.411-99.06-62.295-145-100-19-13-74-63-122-111l-86-87-17 37c-77 169-165 288-290 390-87 71-218 144-295 164-128 34-262 50-345 41zm270-147c128-36 252-111 355-215 102-104 148-181 218-366 12-30 10-36-29-116-20-41-47-95-59-122l-22-47-25 37c-15 21-46 81-70 133-58 127-89 183-137 255-103 155-248 308-387 407l-84 61 95-7c52-3 118-12 145-20zm1865-181c104-12 350-100 350-125 0-4-21-8-46-8-25-1-76-9-113-17-36-8-77-17-91-19-45-9-174-46-230-68-30-11-68-26-85-32-131-49-412-209-516-293-243-197-390-380-444-555l-18-57-40 35c-23 19-44 34-49 34-8 0-3 149 7 219 134.79 603.04 734.89 934.18 1275 886zm-2205-259c239-43 457-174 592-357 85-116 153-289 153-392 0-33-1-34-40-34-35 0-43 4-57 30-8 17-19 35-24 41s-18 22-29 36c-125 155-328 293-571 388-202 79-356 111-563 119-148 6-149 6-125 24 13 11 30 24 37 30 39 32 225 103 304 114 24 4 45 8 46 10 9 9 214 2 277-9zm1785-760c237-57 406-150 562-311 91-93 156-191 200-300 41-101 64-185 51-185-2 0-29 24-61 54-208 196-527 360-855 441l-106 26-68 68c-78 78-149 111-238 111-30 0-55 3-55 6 0 20 37 64 59 70 14 4 28 8 31 9 18 5 120 25 145 28 64 9 273-2 335-17zm-1410-36c29-6 71-15 93-21l39-10-44-28c-23-15-61-48-84-72-31-34-56-49-113-69-211-72-476-259-669-473-139-153-266-344-320-482l-27-69-13 69c-18 94-10 277 16 377 79 297 290 554 567 689 83 41 187 76 265 89 67 11 230 11 290 0zm1211-940c61-119 62-130 10-130-38 0-224-48-312-80-45-16-84-29-85-27-3 3-75 275-91 344l-5 23 38-17c27-12 66-17 125-17 74 0 92 4 140 28 30 15 60 34 68 42 18 16 26 4 112-166zm132-272c73-181 132-334 161-415l35-103h-169c-172 0-320-16-415-44-27-9-51-13-53-11s-11 71-18 152c-8 81-19 175-24 208s-10 68-10 78c0 25 102 70 233 103 162 42 251 52 260 32zm270-753c27-90 119-447 115-449-2-1-86-13-188-25-126-15-257-39-410-76-124-29-225-53-226-52 0 1 1 136 4 300l4 298 27 10c112 44 223 57 456 55l199-1zm176-727c39-211 101-631 101-684 0-8-64-13-197-17-373-11-640-52-828-127-42-17-79-29-81-28-1 2 10 80 26 174 16 93 38 253 50 355 11 101 23 203 26 225l5 41 72 21c160 44 429 103 537 117 63 8 147 19 185 24 39 4 73 9 76 10 4 0 16-50 28-111zm125-930c3-35 9-213 12-395l7-333h-294c-298 0-362-2-594-21-165-13-286-32-403-64-51-14-95-25-96-25-2 0 19 70 45 156 27 86 69 238 95 338l46 182 66 40c95 59 180 90 339 124s399 57 619 59l152 1zm9-905c15-25-43-567-84-780l-21-113h-865c-475 0-862 3-860 8 3 4 30 49 61 101 70 115 182 337 248 491 27 63 57 123 66 133 64 71 437 148 772 159 221 8 679 8 683 1z"/>
 </g>
</svg>
