<?xml version="1.0" encoding="UTF-8" standalone="no"?>
<svg
   xmlns:dc="http://purl.org/dc/elements/1.1/"
   xmlns:cc="http://creativecommons.org/ns#"
   xmlns:rdf="http://www.w3.org/1999/02/22-rdf-syntax-ns#"
   xmlns:svg="http://www.w3.org/2000/svg"
   xmlns="http://www.w3.org/2000/svg"
   xmlns:sodipodi="http://sodipodi.sourceforge.net/DTD/sodipodi-0.dtd"
   xmlns:inkscape="http://www.inkscape.org/namespaces/inkscape"
   inkscape:version="1.0 (4035a4fb49, 2020-05-01)"
   sodipodi:docname="toilet-1.svg"
   id="svg8"
   preserveAspectRatio="xMidYMid meet"
   viewBox="0 0 89.636177 90.000008"
   height="90.000008pt"
   width="89.636177pt"
   version="1.0">
  <defs
     id="defs12" />
  <sodipodi:namedview
     inkscape:current-layer="svg8"
     inkscape:window-maximized="1"
     inkscape:window-y="-8"
     inkscape:window-x="1912"
     inkscape:cy="63.786142"
     inkscape:cx="106.51698"
     inkscape:zoom="5.0949051"
     fit-margin-bottom="0"
     fit-margin-right="0"
     fit-margin-left="0"
     fit-margin-top="0"
     showgrid="false"
     id="namedview10"
     inkscape:window-height="1017"
     inkscape:window-width="1920"
     inkscape:pageshadow="2"
     inkscape:pageopacity="0"
     guidetolerance="10"
     gridtolerance="10"
     objecttolerance="10"
     borderopacity="1"
     bordercolor="#666666"
     pagecolor="#ffffff" />
  <metadata
     id="metadata2">
Created by potrace 1.16, written by Peter Selinger 2001-2019
<rdf:RDF>
  <cc:Work
     rdf:about="">
    <dc:format>image/svg+xml</dc:format>
    <dc:type
       rdf:resource="http://purl.org/dc/dcmitype/StillImage" />
    <dc:title></dc:title>
  </cc:Work>
</rdf:RDF>
</metadata>
  <path
     id="path837"
     d="M 29.293972,87.73471 H 57.26309 l -2.208088,-22.228091 4.710588,-11.334853 6.918677,-3.23853 14.27897,-1.03044 2.796915,-33.121325 3.827348,-2.944118 -2.502495,-9.2739705 -26.791474,-1.324853 -6.624265,6.1826475 -1.913677,7.360294 4.268971,0.147206 1.177647,25.319412 -52.8469128,0.73603 0.8832353,8.685147 5.8882357,9.568383 11.7764708,8.390735 11.187647,1.472059 z"
     style="fill:#ffffff;stroke:none;stroke-width:0.75px;stroke-linecap:butt;stroke-linejoin:miter;stroke-opacity:1;fill-opacity:1" />
  <g
     id="g6"
     stroke="none"
     fill="#000000"
     transform="matrix(0.016066,0,0,-0.016066,-15.033813,133.90392)">
    <path
       id="path4"
       d="m 4678,8333 c -43,-2 -78,-8 -78,-13 0,-6 -20,-10 -44,-10 -53,0 -146,-20 -146,-32 0,-4 -6,-8 -13,-8 -23,0 -143,-66 -198,-110 -70,-55 -148,-132 -149,-146 0,-6 -9,-19 -19,-28 -11,-10 -23,-31 -26,-47 -4,-16 -13,-42 -20,-57 -14,-30 -28,-547 -18,-659 l 6,-63 h 118 119 v -690 -689 l -1619,-3 c -891,-2 -1622,-5 -1625,-8 -3,-3 -10,-37 -16,-75 -31,-213 -11,-454 56,-664 36,-112 144,-323 221,-430 77,-107 243,-281 348,-363 284,-223 648,-375 1034,-432 57,-8 106,-18 109,-20 3,-3 -21,-234 -52,-513 -31,-280 -56,-516 -56,-525 0,-15 72,-16 1017,-15 l 1017,2 6,26 c 4,14 -15,207 -41,430 -27,222 -69,576 -94,787 l -46,383 61,65 c 125,134 235,300 305,459 21,50 40,91 41,93 1,1 124,-3 274,-9 212,-9 311,-9 444,1 94,6 173,15 176,20 3,4 22,10 43,14 20,4 37,11 37,15 0,5 20,14 44,20 24,6 49,17 56,26 7,8 19,15 26,15 8,0 14,4 14,9 0,5 14,14 30,21 17,7 30,16 30,21 0,5 5,9 11,9 14,0 129,117 129,130 0,6 6,13 14,16 8,3 18,20 22,37 3,18 10,37 15,42 24,31 29,180 29,967 v 827 l 115,-2 c 63,-1 117,2 121,6 4,4 8,161 8,350 l 1,342 -25,50 c -25,50 -117,149 -221,236 -47,40 -110,75 -194,109 -11,4 -38,15 -60,24 -40,16 -224,36 -342,36 -34,0 -63,4 -65,8 -3,9 -789,21 -930,15 z m 852,-323 c 30,-5 96,-12 145,-15 111,-8 237,-30 290,-52 22,-9 67,-36 100,-59 125,-88 149,-132 149,-280 -1,-55 -4,-112 -8,-127 l -6,-27 -963,2 -962,3 -3,110 c -5,195 26,268 154,355 100,70 194,89 489,103 118,5 565,-4 615,-13 z m 458,-1630 c 3,-891 3,-891 -66,-967 -47,-51 -115,-96 -183,-123 -78,-29 -318,-43 -546,-30 -98,5 -192,14 -210,20 l -31,11 5,128 c 5,114 -8,295 -24,338 -4,10 -48,13 -213,13 -157,0 -209,3 -212,13 -4,10 -4,1378 0,1385 1,1 334,1 740,0 l 737,-3 z M 4700,5468 c 0,-101 -27,-252 -65,-366 -181,-540 -726,-944 -1401,-1037 -156,-22 -423,-22 -569,0 -564,83 -1029,367 -1280,780 -117,193 -185,418 -185,611 v 74 H 2950 4700 Z M 4310,3465 c 28,-236 53,-445 57,-462 l 5,-33 h -736 c -582,0 -736,3 -736,13 1,41 88,789 93,793 3,4 61,10 129,15 220,16 444,64 638,136 105,39 313,142 405,201 l 60,38 17,-135 c 9,-75 40,-329 68,-566 z" />
  </g>
</svg>
