<?xml version="1.0" encoding="UTF-8" standalone="no"?>
<svg
   xmlns:dc="http://purl.org/dc/elements/1.1/"
   xmlns:cc="http://creativecommons.org/ns#"
   xmlns:rdf="http://www.w3.org/1999/02/22-rdf-syntax-ns#"
   xmlns:svg="http://www.w3.org/2000/svg"
   xmlns="http://www.w3.org/2000/svg"
   xmlns:sodipodi="http://sodipodi.sourceforge.net/DTD/sodipodi-0.dtd"
   xmlns:inkscape="http://www.inkscape.org/namespaces/inkscape"
   inkscape:version="1.0 (4035a4fb49, 2020-05-01)"
   sodipodi:docname="truck-1.svg"
   id="svg10"
   preserveAspectRatio="xMidYMid meet"
   viewBox="0 0 177.43468 90"
   height="90pt"
   width="177.43468pt"
   version="1.0">
  <defs
     id="defs14" />
  <sodipodi:namedview
     inkscape:current-layer="svg10"
     inkscape:window-maximized="1"
     inkscape:window-y="-8"
     inkscape:window-x="1912"
     inkscape:cy="65.22816"
     inkscape:cx="124.69828"
     inkscape:zoom="3.7063151"
     inkscape:pagecheckerboard="true"
     fit-margin-bottom="0"
     fit-margin-right="0"
     fit-margin-left="0"
     fit-margin-top="0"
     showgrid="false"
     id="namedview12"
     inkscape:window-height="1017"
     inkscape:window-width="1920"
     inkscape:pageshadow="2"
     inkscape:pageopacity="0"
     guidetolerance="10"
     gridtolerance="10"
     objecttolerance="10"
     borderopacity="1"
     bordercolor="#666666"
     pagecolor="#ffffff" />
  <metadata
     id="metadata2">
Created by potrace 1.16, written by Peter Selinger 2001-2019
<rdf:RDF>
  <cc:Work
     rdf:about="">
    <dc:format>image/svg+xml</dc:format>
    <dc:type
       rdf:resource="http://purl.org/dc/dcmitype/StillImage" />
    <dc:title></dc:title>
  </cc:Work>
</rdf:RDF>
</metadata>
  <path
     id="path841"
     d="m 4.581514,80.598758 56.255335,1.01179 1.011786,-53.01762 H 37.3634 l -13.153226,17.20037 -20.033375,1.01179 z"
     style="fill:#ffffff;fill-opacity:1;stroke:none;stroke-width:0.75px;stroke-linecap:butt;stroke-linejoin:miter;stroke-opacity:1" />
  <rect
     y="4.7147508"
     x="60.836845"
     height="81.95472"
     width="113.52246"
     id="rect839"
     style="fill:#ffffff;stroke-width:0.751177" />
  <g
     id="g8"
     stroke="none"
     fill="#000000"
     transform="matrix(0.02672209,0,0,-0.02672209,-2.9394299,180.64133)">
    <path
       id="path4"
       d="m 2290,6290 v -470 h -427 -428 l -130,-176 c -163,-220 -376,-507 -382,-514 -2,-2 -163,-5 -356,-6 -194,-1 -360,-2 -370,-3 -11,0 -34,-16 -53,-35 l -34,-34 v -707 c 0,-468 3,-713 10,-726 10,-19 33,-19 1090,-19 h 1080 v -104 -104 l 268,2 c 147,2 1150,3 2230,4 l 1962,2 V 5080 6760 H 4520 2290 Z M 6500,5080 V 3630 H 4515 2530 V 5080 6530 H 4515 6500 Z M 2290,4710 V 3840 H 1320 350 v 525 525 h 350 350 l 39,50 c 22,27 137,182 258,345 l 218,295 h 363 362 z" />
    <path
       id="path6"
       d="m 1451,5189 c -66,-160 -121,-301 -121,-313 1,-64 15,-66 429,-66 203,0 376,3 385,6 14,5 16,44 16,335 v 329 h -294 -293 z m 599,-34 v -215 h -285 -285 l 9,23 c 16,40 163,392 168,400 2,4 92,7 199,7 h 194 z" />
  </g>
</svg>
