<?xml version="1.0" encoding="UTF-8"?>
<svg width="136.41pt" height="90pt" version="1.0" viewBox="0 0 136.41 90" xmlns="http://www.w3.org/2000/svg" xmlns:cc="http://creativecommons.org/ns#" xmlns:dc="http://purl.org/dc/elements/1.1/" xmlns:rdf="http://www.w3.org/1999/02/22-rdf-syntax-ns#">
 <metadata>Created by potrace 1.16, written by Peter Selinger 2001-2019
  <rdf:RDF>
   <cc:Work rdf:about="">
    <dc:format>image/svg+xml</dc:format>
    <dc:type rdf:resource="http://purl.org/dc/dcmitype/StillImage"/>
    <dc:title/>
   </cc:Work>
  </rdf:RDF>
 </metadata>
 <ellipse cx="67.302" cy="63.888" rx="63.4" ry="23.117" fill="#fff" stroke-width=".61787"/>
 <g transform="matrix(.022746 0 0 -.022746 -10.953 159.66)">
  <path d="m3215 7005c-214-47-392-150-565-324-308-310-469-742-470-1256v-170l-173-42c-406-100-777-253-1047-434-303-203-508-456-475-587 12-47 98-165 190-257 200-202 443-361 730-480 50-20 113-47 140-60 70-32 240-87 440-140 216-58 358-88 548-114 84-12 173-26 199-32 75-17 215-28 518-40 252-10 424-9 790 6 103 4 365 38 470 60 36 7 92 16 124 20 72 7 269 53 427 100 63 19 131 37 150 40 80 14 326 114 523 212 250 125 368 209 536 382 107 110 193 225 205 273 37 148-220 437-582 656-111 67-340 180-458 225-200 78-496 166-690 205l-90 19-6 199c-9 269-40 440-116 644-84 224-196 403-353 561-160 162-334 266-525 313-38 10-86 22-106 27-52 13-264 10-334-6zm427-255c366-123 650-491 748-970 25-122 43-339 35-411l-7-55-96 13c-342 47-945 67-1288 44-218-15-478-45-585-67-26-5-26-4-33 63-8 84 9 287 34 413 107 525 451 927 854 1e3 94 17 235 4 338-30zm338-1655c708-63 1320-235 1753-493 85-50 310-216 341-251l19-21h-2629l-2629 1 76 72c408 389 1278 662 2269 711 152 7 630-4 800-19zm2038-1070c-205-197-544-370-978-499-219-65-561-121-1135-185-111-12-798-6-880 8-33 5-114 15-180 21-187 18-313 38-530 85-325 72-424 101-710 212-248 96-514 251-655 382l-65 60h5220z"/>
 </g>
</svg>
