<?xml version="1.0" encoding="UTF-8" standalone="no"?>
<svg xmlns:xlink="http://www.w3.org/1999/xlink" height="80.0px" width="68.0px" xmlns="http://www.w3.org/2000/svg">
  <g transform="matrix(1.0, 0.0, 0.0, 1.0, 34.0, 40.0)">
    <path d="M17.95 -32.65 Q17.55 -14.8 19.15 3.1 22.45 38.45 32.6 38.75 L-32.55 38.75 Q-22.4 38.45 -19.15 3.1 -17.55 -14.8 -17.95 -32.65 L17.95 -32.65" fill="#000000" fill-rule="evenodd" stroke="none"/>
    <path d="M17.95 -33.9 L18.8 -33.55 19.15 -32.65 Q18.85 -18.1 19.95 -2.5 22.15 28.6 29.1 35.75 30.85 37.5 32.75 37.5 33.3 37.5 33.65 37.85 L34.0 38.75 33.65 39.65 Q33.3 40.0 32.75 40.0 L-32.75 40.0 Q-33.25 40.0 -33.65 39.65 L-34.0 38.75 -33.65 37.85 Q-33.25 37.5 -32.75 37.5 -30.8 37.5 -29.1 35.75 -22.15 28.6 -19.95 -2.5 -18.8 -18.1 -19.15 -32.65 L-18.8 -33.55 -17.95 -33.9 17.95 -33.9 M18.35 7.15 Q16.65 -7.95 16.65 -26.95 L16.65 -31.4 -16.65 -31.4 -16.65 -26.95 Q-16.65 -7.95 -18.35 7.15 -21.0 30.95 -27.3 37.45 L-27.35 37.5 27.35 37.5 27.3 37.45 Q21.0 30.95 18.35 7.15" fill="#000000" fill-rule="evenodd" stroke="none"/>
    <path d="M0.2 -13.15 L-9.15 -39.05 10.1 -40.0 0.2 -13.15" fill="#ffffff" fill-rule="evenodd" stroke="none"/>
    <path d="M-8.2 -27.8 Q-8.2 -24.3 -10.7 -21.8 -13.15 -19.35 -16.7 -19.35 -20.15 -19.35 -22.65 -21.8 -25.1 -24.25 -25.1 -27.8 -25.1 -31.3 -22.65 -33.8 -20.15 -36.25 -16.7 -36.25 -13.15 -36.25 -10.7 -33.8 -8.2 -31.25 -8.2 -27.8" fill="#000000" fill-rule="evenodd" stroke="none"/>
    <path d="M26.05 -27.8 Q26.05 -24.25 23.6 -21.8 21.15 -19.35 17.65 -19.35 14.1 -19.35 11.65 -21.8 9.15 -24.25 9.15 -27.8 9.15 -31.3 11.65 -33.8 14.1 -36.25 17.65 -36.25 21.1 -36.25 23.6 -33.8 26.05 -31.3 26.05 -27.8" fill="#000000" fill-rule="evenodd" stroke="none"/>
  </g>
</svg>
