<?xml version="1.0" encoding="UTF-8" standalone="no"?>
<svg xmlns:xlink="http://www.w3.org/1999/xlink" height="47.05px" width="52.7px" xmlns="http://www.w3.org/2000/svg">
  <g transform="matrix(1.0, 0.0, 0.0, 1.0, 0.0, 0.0)">
    <path d="M19.5 9.1 L19.35 8.8 7.8 12.65 7.85 12.95 Q8.1 15.4 9.85 17.0 11.65 18.65 14.1 18.65 16.7 18.65 18.55 16.8 20.4 14.9 20.4 12.3 20.4 10.6 19.5 9.1 M52.7 0.2 Q50.05 16.3 45.2 28.05 37.4 47.05 26.4 47.05 15.3 47.05 7.5 27.95 2.65 16.2 0.0 0.0 7.45 3.45 24.4 3.65 L24.4 20.45 28.0 20.45 28.0 3.65 Q45.25 3.6 52.7 0.2 M42.95 17.0 Q44.75 15.35 44.95 12.9 L44.95 12.6 33.45 8.75 33.3 9.0 Q32.35 10.65 32.35 12.3 32.35 14.9 34.2 16.8 36.05 18.65 38.65 18.65 41.1 18.65 42.95 17.0 M44.65 23.5 L45.0 22.6 44.15 23.0 Q32.35 29.05 19.6 26.65 13.2 25.5 9.05 23.05 L8.1 22.45 8.45 23.5 10.05 27.3 Q11.9 31.4 13.95 34.75 20.4 45.35 26.75 45.35 33.15 45.35 39.4 34.75 42.6 29.4 44.65 23.5" fill="#ffffff" fill-rule="evenodd" stroke="none"/>
  </g>
</svg>
