<?xml version="1.0" encoding="UTF-8" standalone="no"?>
<svg xmlns:xlink="http://www.w3.org/1999/xlink" height="13.65px" width="12.85px" xmlns="http://www.w3.org/2000/svg">
  <g transform="matrix(1.0, 0.0, 0.0, 1.0, 0.0, 0.0)">
    <path d="M4.85 7.9 Q4.5 7.5 3.95 7.5 3.4 7.5 3.0 7.9 2.6 8.3 2.6 8.85 2.6 9.4 3.0 9.75 3.4 10.15 3.95 10.15 4.5 10.15 4.85 9.75 5.25 9.4 5.25 8.85 5.25 8.3 4.85 7.9 M6.95 2.55 Q6.4 2.55 6.0 2.95 5.6 3.35 5.6 3.9 5.6 4.45 6.0 4.8 6.4 5.2 6.95 5.2 7.5 5.2 7.85 4.8 8.25 4.45 8.25 3.9 8.25 3.35 7.85 2.95 7.5 2.55 6.95 2.55 M10.35 1.0 Q11.95 2.0 12.85 3.65 12.3 5.2 12.3 6.85 12.3 8.45 12.85 10.0 L11.6 11.65 Q9.75 13.55 7.0 13.65 L7.05 13.45 Q7.05 12.9 6.65 12.5 6.25 12.1 5.7 12.1 4.7 12.1 4.4 13.2 2.45 12.5 1.25 10.75 0.0 9.0 0.0 6.85 0.0 5.7 0.4 4.5 0.8 4.95 1.35 4.95 1.9 4.95 2.3 4.55 2.7 4.15 2.7 3.6 2.7 2.6 1.7 2.35 3.8 0.0 6.8 0.0 8.7 0.0 10.35 1.0 M10.5 8.75 Q11.05 8.75 11.4 8.35 11.8 8.0 11.8 7.45 11.8 6.9 11.4 6.5 11.05 6.1 10.5 6.1 9.95 6.1 9.55 6.5 9.15 6.9 9.15 7.45 9.15 8.0 9.55 8.35 9.95 8.75 10.5 8.75" fill="#ffffff" fill-rule="evenodd" stroke="none"/>
  </g>
</svg>
