<?xml version="1.0" encoding="UTF-8" standalone="no"?>
<svg xmlns:xlink="http://www.w3.org/1999/xlink" height="49.0px" width="64.0px" xmlns="http://www.w3.org/2000/svg">
  <g transform="matrix(1.0, 0.0, 0.0, 1.0, 32.0, 24.0)">
    <path d="M32.0 0.95 Q32.0 4.35 30.85 7.5 L-30.9 7.5 Q-32.0 4.25 -32.0 0.95 -32.0 -9.35 -22.6 -16.65 -13.25 -24.0 0.0 -24.0 13.25 -24.0 22.6 -16.65 32.0 -9.35 32.0 0.95" fill="#000000" fill-rule="evenodd" stroke="none"/>
    <path d="M-21.45 6.2 L-21.25 18.05 -27.7 7.15 -21.45 6.2" fill="#000000" fill-rule="evenodd" stroke="none"/>
    <path d="M-21.45 6.2 L-27.7 7.15 -21.25 18.05 -21.45 6.2 M-19.2 3.55 Q-18.75 3.85 -18.75 4.55 L-18.4 23.3 Q-18.4 23.7 -18.7 24.1 L-19.4 24.6 Q-20.4 24.85 -21.0 23.95 L-30.65 7.6 -31.05 6.6 Q-31.3 5.8 -31.15 5.5 -30.85 4.85 -30.1 4.7 L-20.3 3.2 Q-19.65 3.1 -19.2 3.55" fill="#000000" fill-rule="evenodd" stroke="none"/>
    <path d="M-8.6 6.2 L-8.4 18.05 -14.9 7.15 -8.6 6.2" fill="#000000" fill-rule="evenodd" stroke="none"/>
    <path d="M-8.4 18.05 L-8.6 6.2 -14.9 7.15 -8.4 18.05 M-18.35 5.5 Q-18.05 4.85 -17.3 4.7 L-7.5 3.2 Q-6.85 3.1 -6.4 3.55 -5.9 3.85 -5.9 4.55 L-5.55 23.3 Q-5.55 23.7 -5.85 24.1 L-6.6 24.6 Q-7.55 24.85 -8.15 23.95 L-18.3 6.8 Q-18.65 6.2 -18.35 5.5" fill="#000000" fill-rule="evenodd" stroke="none"/>
    <path d="M20.95 18.4 L21.15 6.5 27.35 7.45 20.95 18.4" fill="#000000" fill-rule="evenodd" stroke="none"/>
    <path d="M14.85 7.45 L8.55 6.5 8.35 18.4 14.85 7.45 M18.4 6.0 L18.4 4.85 Q18.4 4.2 18.85 3.8 19.3 3.45 19.95 3.55 L29.85 5.05 Q30.55 5.2 30.85 5.85 L31.0 6.7 30.85 7.5 20.65 24.3 Q20.15 25.2 19.05 24.95 18.1 24.6 18.1 23.55 L18.35 6.95 18.25 7.1 8.1 24.3 Q7.55 25.2 6.55 24.95 5.45 24.6 5.55 23.55 L5.85 4.85 Q5.85 4.2 6.35 3.8 6.8 3.45 7.45 3.55 L17.3 5.05 Q18.05 5.2 18.35 5.85 L18.4 6.0 M27.35 7.45 L21.15 6.5 20.95 18.4 27.35 7.45" fill="#000000" fill-rule="evenodd" stroke="none"/>
    <path d="M8.35 18.4 L8.55 6.5 14.85 7.45 8.35 18.4" fill="#000000" fill-rule="evenodd" stroke="none"/>
    <path d="M-20.5 -5.0 Q-22.2 -2.15 -23.85 -0.5 -25.6 1.2 -26.35 0.7 -27.1 0.3 -26.45 -2.05 -25.85 -4.35 -24.2 -7.15 -22.55 -9.95 -20.8 -11.7 -19.05 -13.35 -18.35 -12.9 -17.55 -12.5 -18.2 -10.15 -18.8 -7.85 -20.5 -5.0" fill="#ffffff" fill-rule="evenodd" stroke="none"/>
  </g>
</svg>
