<?xml version="1.0" encoding="UTF-8" standalone="no"?>
<svg xmlns:xlink="http://www.w3.org/1999/xlink" height="12.45px" width="25.4px" xmlns="http://www.w3.org/2000/svg">
  <g transform="matrix(1.0, 0.0, 0.0, 1.0, 11.75, 13.65)">
    <path d="M12.15 -8.25 Q12.15 -9.05 11.45 -10.1 10.05 -12.25 6.6 -13.65 L9.9 -12.95 Q13.25 -11.6 13.65 -8.15 L13.3 -5.8 Q12.4 -3.1 9.6 -1.2 L11.35 -3.45 Q12.9 -6.1 12.15 -8.25" fill="#ffffff" fill-rule="evenodd" stroke="none"/>
    <path d="M-10.4 -3.85 Q-10.95 -3.85 -11.35 -4.25 -11.75 -4.6 -11.75 -5.15 -11.75 -5.7 -11.35 -6.1 -10.95 -6.5 -10.4 -6.5 -9.85 -6.5 -9.5 -6.1 -9.1 -5.7 -9.1 -5.15 -9.1 -4.6 -9.5 -4.25 -9.85 -3.85 -10.4 -3.85" fill="#000000" fill-rule="evenodd" stroke="none"/>
    <path d="M-7.4 -8.8 Q-7.95 -8.8 -8.35 -9.2 -8.75 -9.55 -8.75 -10.1 -8.75 -10.65 -8.35 -11.05 -7.95 -11.45 -7.4 -11.45 -6.85 -11.45 -6.5 -11.05 -6.1 -10.65 -6.1 -10.1 -6.1 -9.55 -6.5 -9.2 -6.85 -8.8 -7.4 -8.8" fill="#000000" fill-rule="evenodd" stroke="none"/>
    <path d="M-3.85 -7.9 Q-3.3 -7.9 -2.95 -7.5 -2.55 -7.1 -2.55 -6.55 -2.55 -6.0 -2.95 -5.65 -3.3 -5.25 -3.85 -5.25 -4.4 -5.25 -4.8 -5.65 -5.2 -6.0 -5.2 -6.55 -5.2 -7.1 -4.8 -7.5 -4.4 -7.9 -3.85 -7.9" fill="#000000" fill-rule="evenodd" stroke="none"/>
  </g>
</svg>
