<?xml version="1.0" encoding="UTF-8" standalone="no"?>
<svg xmlns:xlink="http://www.w3.org/1999/xlink" height="88.0px" width="127.0px" xmlns="http://www.w3.org/2000/svg">
  <g transform="matrix(1.0, 0.0, 0.0, 1.0, 63.5, 45.3)">
    <path d="M59.75 -41.0 L61.0 -4.5 35.85 40.15 -35.8 40.15 -61.0 -4.5 -59.75 -41.0 -1.25 -29.95 1.3 -29.95 59.75 -41.0" fill="#ffffff" fill-rule="evenodd" stroke="none"/>
    <path d="M59.75 -41.0 L1.3 -29.95 -1.25 -29.95 -59.75 -41.0 -61.0 -4.5 -35.8 40.15 35.85 40.15 61.0 -4.5 59.75 -41.0 Z" fill="none" stroke="#000000" stroke-linecap="butt" stroke-linejoin="miter" stroke-width="5.0"/>
    <path d="M34.6 41.0 L-35.8 40.15 -51.15 13.8 Q-38.4 17.3 -19.2 19.0 19.1 22.55 50.8 13.8 L34.6 41.0" fill="#000000" fill-rule="evenodd" stroke="none"/>
    <path d="M-61.0 -4.5 L-1.25 3.6 61.0 -4.5" fill="none" stroke="#000000" stroke-linecap="butt" stroke-linejoin="miter" stroke-width="2.5"/>
    <path d="M-1.25 3.6 L-1.25 -29.95" fill="none" stroke="#000000" stroke-linecap="butt" stroke-linejoin="miter" stroke-width="2.5"/>
    <path d="M-38.45 -10.3 Q-38.45 -9.5 -39.15 -8.95 -39.8 -8.4 -40.75 -8.4 -41.7 -8.4 -42.4 -8.95 -43.1 -9.5 -43.1 -10.3 -43.1 -11.1 -42.4 -11.65 -41.7 -12.2 -40.75 -12.2 -39.8 -12.2 -39.15 -11.65 -38.45 -11.1 -38.45 -10.3" fill="#000000" fill-rule="evenodd" stroke="none"/>
    <path d="M43.8 -10.3 Q43.8 -9.5 43.1 -8.95 42.45 -8.4 41.45 -8.4 40.5 -8.4 39.85 -8.95 39.15 -9.5 39.15 -10.3 39.15 -11.1 39.85 -11.65 40.5 -12.2 41.45 -12.2 42.45 -12.2 43.1 -11.65 43.8 -11.1 43.8 -10.3" fill="#000000" fill-rule="evenodd" stroke="none"/>
    <path d="M-26.0 0.2 L-26.0 23.55" fill="none" stroke="#000000" stroke-linecap="butt" stroke-linejoin="miter" stroke-width="2.5"/>
    <path d="M24.3 0.2 L24.3 23.55" fill="none" stroke="#000000" stroke-linecap="butt" stroke-linejoin="miter" stroke-width="2.5"/>
    <path d="M-26.85 11.7 L23.45 11.7" fill="none" stroke="#000000" stroke-linecap="butt" stroke-linejoin="miter" stroke-width="2.5"/>
    <path d="M-1.25 3.6 L-1.25 23.55" fill="none" stroke="#000000" stroke-linecap="butt" stroke-linejoin="miter" stroke-width="2.5"/>
  </g>
</svg>
