<?xml version="1.0" encoding="UTF-8" standalone="no"?>
<svg xmlns:xlink="http://www.w3.org/1999/xlink" height="100.0px" width="96.05px" xmlns="http://www.w3.org/2000/svg">
  <g transform="matrix(1.0, 0.0, 0.0, 1.0, 48.05, 50.0)">
    <path d="M32.25 -33.2 Q45.0 -19.6 45.0 0.0 45.0 19.65 32.25 33.25 19.25 47.0 0.0 47.0 -19.3 47.0 -32.25 33.25 -45.05 19.65 -45.05 0.0 -45.05 -19.6 -32.25 -33.2 -19.3 -47.0 0.0 -47.0 19.25 -47.0 32.25 -33.2" fill="#ffffff" fill-rule="evenodd" stroke="none"/>
    <path d="M32.25 -33.2 Q45.0 -19.6 45.0 0.0 45.0 19.65 32.25 33.25 19.25 47.0 0.0 47.0 -19.3 47.0 -32.25 33.25 -45.05 19.65 -45.05 0.0 -45.05 -19.6 -32.25 -33.2 -19.3 -47.0 0.0 -47.0 19.25 -47.0 32.25 -33.2 Z" fill="none" stroke="#000000" stroke-linecap="butt" stroke-linejoin="miter" stroke-width="6.0"/>
  </g>
</svg>
