<?xml version="1.0" encoding="UTF-8" standalone="no"?>
<svg xmlns:xlink="http://www.w3.org/1999/xlink" height="100.1px" width="121.0px" xmlns="http://www.w3.org/2000/svg">
  <g transform="matrix(1.0, 0.0, 0.0, 1.0, 60.0, 50.0)">
    <path d="M61.0 31.15 Q61.0 41.8 59.75 50.1 L-58.4 50.0 Q-60.0 40.8 -60.0 31.15 -60.0 -12.15 -42.3 -32.55 -27.1 -50.0 0.45 -50.0 28.75 -50.0 43.3 -33.95 61.0 -14.3 61.0 31.15" fill="#000000" fill-rule="evenodd" stroke="none"/>
    <path d="M0.9 0.9 L0.9 43.4" fill="none" stroke="#ffffff" stroke-linecap="round" stroke-linejoin="round" stroke-width="2.5"/>
    <path d="M14.9 5.35 Q14.9 6.8 13.85 7.85 12.85 8.85 11.4 8.85 9.95 8.85 8.9 7.85 7.85 6.8 7.85 5.35 7.85 3.9 8.9 2.85 9.95 1.85 11.4 1.85 12.85 1.85 13.85 2.85 14.9 3.9 14.9 5.35" fill="#ffffff" fill-rule="evenodd" stroke="none"/>
    <path d="M14.9 21.35 Q14.9 22.8 13.85 23.85 12.85 24.85 11.4 24.85 9.95 24.85 8.9 23.85 7.85 22.8 7.85 21.35 7.85 19.9 8.9 18.85 9.95 17.85 11.4 17.85 12.85 17.85 13.85 18.85 14.9 19.9 14.9 21.35" fill="#ffffff" fill-rule="evenodd" stroke="none"/>
    <path d="M14.9 37.35 Q14.9 38.8 13.85 39.85 12.85 40.85 11.4 40.85 9.95 40.85 8.9 39.85 7.85 38.8 7.85 37.35 7.85 35.9 8.9 34.85 9.95 33.85 11.4 33.85 12.85 33.85 13.85 34.85 14.9 35.9 14.9 37.35" fill="#ffffff" fill-rule="evenodd" stroke="none"/>
  </g>
</svg>
