<?xml version="1.0" encoding="UTF-8" standalone="no"?>
<svg xmlns:xlink="http://www.w3.org/1999/xlink" height="14.0px" width="64.0px" xmlns="http://www.w3.org/2000/svg">
  <g transform="matrix(1.0, 0.0, 0.0, 1.0, 32.0, 7.0)">
    <path d="M-6.95 1.3 Q-6.95 3.65 -9.3 5.35 -11.7 7.0 -15.05 7.0 -18.4 7.0 -20.75 5.35 -23.15 3.65 -23.15 1.3 -23.15 -1.1 -20.75 -2.8 -18.4 -4.45 -15.05 -4.45 -11.7 -4.45 -9.3 -2.8 -6.95 -1.1 -6.95 1.3" fill="#000000" fill-rule="evenodd" stroke="none"/>
    <path d="M-14.5 -4.45 L-20.15 0.5 -32.0 -7.0 -14.5 -4.45" fill="#000000" fill-rule="evenodd" stroke="none"/>
    <path d="M9.3 -2.8 Q11.7 -4.45 15.05 -4.45 18.4 -4.45 20.75 -2.8 23.2 -1.1 23.2 1.3 23.2 3.65 20.75 5.35 18.4 7.0 15.05 7.0 11.7 7.0 9.3 5.35 6.95 3.65 6.95 1.3 6.95 -1.1 9.3 -2.8" fill="#000000" fill-rule="evenodd" stroke="none"/>
    <path d="M14.5 -4.45 L32.0 -7.0 20.15 0.5 14.5 -4.45" fill="#000000" fill-rule="evenodd" stroke="none"/>
  </g>
</svg>
