<?xml version="1.0" encoding="UTF-8" standalone="no"?>
<svg xmlns:xlink="http://www.w3.org/1999/xlink" height="70.35px" width="57.7px" xmlns="http://www.w3.org/2000/svg">
  <g transform="matrix(1.0, 0.0, 0.0, 1.0, 29.95, 56.3)">
    <path d="M22.45 -37.35 L17.85 -38.6 Q15.9 -48.9 5.7 -55.45 11.0 -54.15 14.9 -51.55 L15.45 -51.0 Q20.2 -45.9 22.45 -37.35" fill="#ffffff" fill-rule="evenodd" stroke="none"/>
    <path d="M24.5 -20.95 L24.5 -19.65 20.65 -19.65 22.55 -36.95 Q24.5 -29.45 24.5 -20.95" fill="#ffffff" fill-rule="evenodd" stroke="none"/>
    <path d="M-22.85 -39.65 Q-18.2 -50.15 -8.75 -55.0 L-6.4 -55.65 Q-14.9 -49.65 -17.45 -40.45 L-22.1 -39.8 -22.85 -39.65" fill="#ffffff" fill-rule="evenodd" stroke="none"/>
    <path d="M0.2 -56.3 L2.9 -55.95 Q7.55 -53.5 10.9 -50.0 15.55 -45.1 16.8 -38.85 L8.25 -40.35 Q7.6 -46.35 4.75 -51.0 2.85 -54.15 0.2 -56.3" fill="#ffffff" fill-rule="evenodd" stroke="none"/>
    <path d="M18.65 -48.5 L20.2 -46.8 Q24.55 -41.6 26.45 -33.75 27.75 -28.3 27.75 -22.2 L27.7 -19.65 25.45 -19.65 Q25.6 -25.9 24.55 -32.15 22.9 -42.1 18.65 -48.5" fill="#ffffff" fill-rule="evenodd" stroke="none"/>
    <path d="M-19.95 -48.35 Q-17.3 -50.95 -14.0 -52.75 -19.8 -48.25 -23.15 -41.25 -27.35 -32.55 -27.5 -20.45 L-29.95 -20.4 Q-29.5 -38.95 -19.95 -48.35" fill="#ffffff" fill-rule="evenodd" stroke="none"/>
    <path d="M-23.55 -20.6 L-26.55 -20.5 Q-26.4 -30.25 -23.55 -37.85 L-23.55 -20.6" fill="#ffffff" fill-rule="evenodd" stroke="none"/>
    <path d="M-7.9 -41.15 Q-7.55 -46.2 -5.25 -50.65 -3.65 -53.65 -1.4 -55.95 L-1.4 -41.1 -7.9 -41.15" fill="#ffffff" fill-rule="evenodd" stroke="none"/>
    <path d="M-3.9 -56.1 L-2.35 -56.3 Q-8.35 -49.9 -8.85 -41.1 L-16.4 -40.6 Q-14.75 -46.2 -10.65 -50.65 -7.75 -53.85 -3.9 -56.1" fill="#ffffff" fill-rule="evenodd" stroke="none"/>
    <path d="M-0.4 -55.55 Q2.05 -53.55 3.9 -50.55 6.6 -46.1 7.3 -40.45 L-0.4 -41.05 -0.4 -55.55" fill="#ffffff" fill-rule="evenodd" stroke="none"/>
    <path d="M-16.6 -33.65 L-17.2 -34.1 Q-17.45 -34.45 -17.35 -34.85 -17.1 -35.8 -16.15 -35.65 L-7.4 -33.6 -6.75 -33.15 Q-6.55 -32.8 -6.65 -32.4 -6.7 -32.0 -7.1 -31.75 L-7.85 -31.65 -7.95 -31.7 -7.95 -31.6 Q-7.95 -30.9 -8.95 -30.45 -9.9 -29.95 -11.3 -29.95 -12.7 -29.95 -13.7 -30.45 -14.7 -30.9 -14.7 -31.6 -14.7 -32.4 -13.4 -32.95 L-16.6 -33.65" fill="#000000" fill-rule="evenodd" stroke="none"/>
    <path d="M-8.95 -19.15 Q-9.4 -19.6 -9.4 -20.2 -9.4 -20.8 -8.95 -21.2 -8.55 -21.6 -7.95 -21.6 L6.85 -21.6 Q7.45 -21.6 7.9 -21.2 8.3 -20.8 8.3 -20.2 8.3 -19.6 7.9 -19.15 7.45 -18.75 6.85 -18.75 L-7.95 -18.75 Q-8.55 -18.75 -8.95 -19.15" fill="#000000" fill-rule="evenodd" stroke="none"/>
    <path d="M-2.65 8.65 Q0.75 9.15 1.05 7.25 L0.7 5.2 Q0.75 7.0 -0.95 8.0 L-2.65 8.65 M-10.95 10.75 L-10.95 1.65 -4.9 4.6 -3.35 3.5 -6.9 -1.6 4.0 -1.6 0.4 3.65 Q1.25 4.05 1.7 4.7 L8.05 1.65 8.05 10.75 1.95 7.8 Q1.45 8.7 0.6 9.2 L4.0 14.05 -6.9 14.05 -3.6 9.3 -5.15 7.95 -10.95 10.75" fill="#ffffff" fill-rule="evenodd" stroke="none"/>
    <path d="M0.7 5.2 L1.05 7.25 Q0.75 9.15 -2.65 8.65 L-0.95 8.0 Q0.75 7.0 0.7 5.2" fill="#000000" fill-rule="evenodd" stroke="none"/>
  </g>
</svg>
