<?xml version="1.0" encoding="UTF-8" standalone="no"?>
<svg xmlns:xlink="http://www.w3.org/1999/xlink" height="41.95px" width="46.25px" xmlns="http://www.w3.org/2000/svg">
  <g transform="matrix(1.0, 0.0, 0.0, 1.0, 24.9, 30.8)">
    <path d="M16.75 -13.55 Q17.25 -14.0 17.25 -14.7 17.25 -15.4 16.75 -15.9 16.25 -16.4 15.55 -16.4 14.85 -16.4 14.4 -15.9 13.9 -15.4 13.9 -14.7 13.9 -14.0 14.4 -13.55 14.9 -13.05 15.55 -13.05 16.25 -13.05 16.75 -13.55 M21.35 -17.6 Q20.95 -15.6 19.6 -14.0 18.2 -12.4 16.3 -11.7 L17.65 -13.3 9.4 -12.2 Q7.95 -13.05 6.9 -14.4 7.45 -15.8 7.55 -17.6 L21.35 -17.6" fill="#ffffff" fill-rule="evenodd" stroke="none"/>
    <path d="M-23.3 -26.05 Q-20.45 -24.35 -15.5 -23.35 -10.45 -22.35 -4.6 -22.35 L4.95 -23.1 6.9 -20.75 -15.05 -20.75 -15.05 -20.65 -23.3 -20.65 -23.3 -26.05" fill="#ffffff" fill-rule="evenodd" stroke="none"/>
    <path d="M13.4 -8.0 L16.45 -8.45 Q18.8 -4.9 19.65 -1.85 15.95 -3.1 11.65 -6.15 L13.2 -8.0 13.4 -8.0" fill="#ffffff" fill-rule="evenodd" stroke="none"/>
    <path d="M-23.3 -16.55 L-14.95 -16.55 Q-14.35 -12.4 -11.2 -9.6 -8.0 -6.8 -3.75 -6.8 -1.3 -6.8 0.95 -7.85 3.15 -8.85 4.7 -10.65 L4.7 -10.4 4.9 -9.95 -8.45 -1.15 -9.2 -1.45 Q-9.65 -1.65 -10.1 -1.45 L-10.7 -0.85 -10.75 0.05 -10.1 0.7 Q-1.5 4.4 6.35 5.0 3.35 7.4 3.05 9.25 2.95 9.75 3.2 10.15 L3.95 10.6 4.85 10.45 5.35 9.65 Q5.5 8.8 7.25 7.35 8.75 6.1 10.5 5.1 15.95 4.9 20.25 3.1 L20.25 3.6 Q19.8 7.9 16.0 11.15 L-23.3 11.15 -23.3 -16.55" fill="#ffffff" fill-rule="evenodd" stroke="none"/>
    <path d="M-24.9 -30.8 L-24.9 -30.3" fill="none" stroke="#ffffff" stroke-linecap="round" stroke-linejoin="round" stroke-width="0.05"/>
    <path d="M15.55 -16.4 Q16.25 -16.4 16.75 -15.9 17.25 -15.4 17.25 -14.7 17.25 -14.0 16.75 -13.55 16.25 -13.05 15.55 -13.05 14.9 -13.05 14.4 -13.55 13.9 -14.0 13.9 -14.7 13.9 -15.4 14.4 -15.9 14.85 -16.4 15.55 -16.4" fill="#000000" fill-rule="evenodd" stroke="none"/>
  </g>
</svg>
