<?xml version="1.0" encoding="UTF-8" standalone="no"?>
<svg xmlns:xlink="http://www.w3.org/1999/xlink" height="17.7px" width="19.15px" xmlns="http://www.w3.org/2000/svg">
  <g transform="matrix(1.0, 0.0, 0.0, 1.0, 3.65, -15.3)">
    <path d="M3.15 33.0 L3.15 15.3 15.5 15.3 15.5 33.0 3.15 33.0" fill="#ffffff" fill-rule="evenodd" stroke="none"/>
    <path d="M-1.7 23.55 Q-2.5 23.55 -3.1 22.95 -3.65 22.4 -3.65 21.55 -3.65 20.75 -3.1 20.2 -2.5 19.6 -1.7 19.6 -0.9 19.6 -0.35 20.2 0.25 20.75 0.25 21.55 0.25 22.35 -0.35 22.95 -0.9 23.55 -1.7 23.55" fill="#000000" fill-rule="evenodd" stroke="none"/>
    <path d="M-1.7 26.0 Q-0.9 26.0 -0.35 26.6 0.25 27.15 0.25 27.95 0.25 28.75 -0.35 29.35 -0.9 29.9 -1.7 29.9 -2.5 29.9 -3.1 29.35 -3.65 28.8 -3.65 27.95 -3.65 27.15 -3.1 26.6 -2.5 26.0 -1.7 26.0" fill="#000000" fill-rule="evenodd" stroke="none"/>
  </g>
</svg>
