<?xml version="1.0" encoding="UTF-8" standalone="no"?>
<svg xmlns:xlink="http://www.w3.org/1999/xlink" height="7.6px" width="16.25px" xmlns="http://www.w3.org/2000/svg">
  <g transform="matrix(1.0, 0.0, 0.0, 1.0, 0.0, 0.0)">
    <path d="M16.25 0.0 Q16.05 3.2 13.7 5.4 11.35 7.6 8.1 7.6 4.9 7.6 2.55 5.4 0.2 3.2 0.0 0.0 L16.25 0.0 M10.95 4.05 Q11.45 3.6 11.45 2.9 11.45 2.2 10.95 1.7 10.45 1.2 9.75 1.2 9.05 1.2 8.6 1.7 8.1 2.2 8.1 2.9 8.1 3.6 8.6 4.05 9.1 4.55 9.75 4.55 10.45 4.55 10.95 4.05" fill="#ffffff" fill-rule="evenodd" stroke="none"/>
  </g>
</svg>
