<?xml version="1.0" encoding="UTF-8" standalone="no"?>
<svg xmlns:xlink="http://www.w3.org/1999/xlink" height="38.0px" width="49.6px" xmlns="http://www.w3.org/2000/svg">
  <g transform="matrix(1.0, 0.0, 0.0, 1.0, 0.0, 0.0)">
    <path d="M11.65 20.5 Q11.65 21.65 12.5 22.5 13.35 23.35 14.5 23.35 15.65 23.35 16.5 22.5 17.35 21.65 17.35 20.5 17.35 19.35 16.5 18.5 15.65 17.65 14.5 17.65 13.35 17.65 12.5 18.5 11.65 19.35 11.65 20.5 M35.45 22.95 Q36.6 22.95 37.45 22.15 38.3 21.3 38.3 20.15 38.3 18.95 37.45 18.15 36.6 17.3 35.45 17.3 34.3 17.3 33.45 18.15 32.6 18.95 32.6 20.15 32.6 21.3 33.45 22.15 34.3 22.95 35.45 22.95 M33.1 8.1 L33.1 7.35 32.55 6.8 Q28.6 5.1 24.7 5.2 21.5 5.25 17.0 6.6 L16.4 7.1 Q16.2 7.45 16.3 7.85 L16.8 8.4 17.55 8.5 Q21.85 7.25 24.7 7.15 28.2 7.1 31.75 8.6 32.65 9.0 33.1 8.1 M41.05 6.0 Q48.0 11.95 49.6 20.95 47.55 20.1 45.75 22.8 L44.35 25.65 Q43.7 28.75 41.05 31.85 35.8 38.0 26.0 38.0 17.0 38.0 11.15 32.3 7.35 28.6 5.0 22.65 3.25 18.1 0.0 19.65 1.95 11.15 8.8 5.6 15.75 0.0 24.65 0.0 33.95 0.0 41.05 6.0 M41.85 18.95 L42.95 19.15 43.9 18.5 44.15 17.35 43.5 16.4 Q31.85 8.85 18.4 11.85 11.65 13.35 7.15 16.45 6.65 16.8 6.5 17.4 6.4 18.0 6.75 18.55 7.15 19.05 7.75 19.15 L8.85 18.9 Q10.65 17.7 13.25 16.55 18.4 14.35 23.75 14.0 L23.75 28.55 Q20.65 28.35 17.85 27.1 17.3 26.9 16.75 27.1 16.15 27.35 15.9 27.9 15.65 28.45 15.85 29.05 16.1 29.65 16.7 29.85 20.3 31.45 24.4 31.6 29.25 31.75 32.9 29.65 L33.65 28.7 Q33.8 28.1 33.45 27.6 L32.55 26.9 31.4 27.05 Q28.95 28.45 25.75 28.55 L25.75 13.95 Q34.3 14.05 41.85 18.95" fill="#ffffff" fill-rule="evenodd" stroke="none"/>
  </g>
</svg>
