<?xml version="1.0" encoding="UTF-8" standalone="no"?>
<svg xmlns:xlink="http://www.w3.org/1999/xlink" height="26.0px" width="72.0px" xmlns="http://www.w3.org/2000/svg">
  <g transform="matrix(1.0, 0.0, 0.0, 1.0, 36.0, 24.0)">
    <path d="M-34.0 -7.55 L-2.0 -7.55 Q-1.85 -11.15 0.45 -14.8 5.05 -22.0 16.0 -22.0 24.75 -22.0 30.25 -14.05 33.0 -10.05 34.0 -6.05" fill="none" stroke="#000000" stroke-linecap="round" stroke-linejoin="miter" stroke-width="4.0"/>
    <path d="M21.1 -4.1 Q21.1 -1.6 19.3 0.2 17.5 2.0 15.0 2.0 12.45 2.0 10.65 0.2 8.85 -1.6 8.85 -4.1 8.85 -6.6 10.65 -8.4 12.45 -10.2 15.0 -10.2 17.5 -10.2 19.3 -8.4 21.1 -6.6 21.1 -4.1" fill="#000000" fill-rule="evenodd" stroke="none"/>
    <path d="M-16.45 -3.05 Q-16.45 -0.95 -17.95 0.55 -19.45 2.0 -21.5 2.0 -23.6 2.0 -25.1 0.55 -26.6 -0.95 -26.6 -3.05 -26.6 -5.15 -25.1 -6.55 -23.6 -8.05 -21.5 -8.05 -19.45 -8.05 -17.95 -6.55 -16.45 -5.15 -16.45 -3.05" fill="#000000" fill-rule="evenodd" stroke="none"/>
  </g>
</svg>
