<?xml version="1.0" encoding="UTF-8" standalone="no"?>
<svg xmlns:xlink="http://www.w3.org/1999/xlink" height="126.15px" width="66.75px" xmlns="http://www.w3.org/2000/svg">
  <g transform="matrix(1.0, 0.0, 0.0, 1.0, 33.35, 63.1)">
    <path d="M2.05 54.8 L2.05 59.95 28.5 59.95 28.5 59.8 29.5 59.8 29.5 54.8 2.05 54.8 M-1.85 59.8 L-1.85 54.8 -30.85 54.8 -30.85 59.95 -2.85 59.95 -2.85 59.8 -1.85 59.8 M-16.7 -27.35 Q-18.25 -22.8 -18.25 -17.85 -18.25 -7.3 -11.95 0.15 -5.6 7.6 3.3 7.6 7.55 7.6 11.45 5.7 15.35 3.8 18.4 0.25 21.5 -3.35 23.15 -8.05 24.8 -12.7 24.8 -17.85 24.8 -25.9 20.9 -32.5 17.1 -38.9 10.9 -41.7 1.85 -36.65 -12.45 -35.2 -15.2 -31.7 -16.7 -27.35 M-19.4 -46.5 L-18.75 -46.45 -24.7 -51.15 -16.05 -47.8 -15.65 -48.5 -18.0 -54.6 -14.0 -51.0 Q-8.05 -58.6 5.45 -62.25 15.45 -64.95 19.6 -59.3 21.65 -56.45 21.7 -53.1 20.95 -51.05 19.5 -49.05 24.65 -47.25 27.1 -43.65 30.75 -38.15 26.95 -29.55 29.0 -23.85 29.0 -17.85 L28.9 -15.3 Q33.4 -8.5 33.4 0.15 L33.4 63.05 -33.35 63.05 -33.35 0.15 Q-33.35 -6.85 -30.25 -12.85 -27.3 -18.7 -22.2 -22.1 L-22.0 -23.4 Q-23.05 -24.1 -23.5 -25.85 L-23.8 -27.5 Q-27.2 -35.3 -23.65 -41.65 -21.85 -44.85 -19.4 -46.5" fill="#000000" fill-rule="evenodd" stroke="none"/>
    <path d="M2.05 59.95 L2.05 54.8 28.5 54.8 28.5 59.95 2.05 59.95" fill="#ffffff" fill-rule="evenodd" stroke="none"/>
    <path d="M-2.85 54.8 L-2.85 59.95 -30.85 59.95 -30.85 54.8 -2.85 54.8" fill="#ffffff" fill-rule="evenodd" stroke="none"/>
  </g>
</svg>
