<?xml version="1.0" encoding="UTF-8" standalone="no"?>
<svg xmlns:xlink="http://www.w3.org/1999/xlink" height="27.65px" width="35.2px" xmlns="http://www.w3.org/2000/svg">
  <g transform="matrix(1.0, 0.0, 0.0, 1.0, 15.4, 27.65)">
    <path d="M-7.6 -16.95 Q-8.55 -16.95 -9.2 -17.65 -9.9 -18.3 -9.9 -19.25 -9.9 -20.2 -9.2 -20.85 -8.55 -21.55 -7.6 -21.55 -6.65 -21.55 -6.0 -20.85 -5.3 -20.2 -5.3 -19.25 -5.3 -18.3 -6.0 -17.65 -6.65 -16.95 -7.6 -16.95" fill="#000000" fill-rule="evenodd" stroke="none"/>
    <path d="M14.25 -17.3 Q13.3 -17.3 12.6 -18.0 11.95 -18.65 11.95 -19.6 11.95 -20.55 12.6 -21.2 13.3 -21.9 14.25 -21.9 15.2 -21.9 15.85 -21.2 16.5 -20.55 16.5 -19.6 16.5 -18.65 15.85 -18.0 15.2 -17.3 14.25 -17.3" fill="#000000" fill-rule="evenodd" stroke="none"/>
    <path d="M-2.75 -4.0 Q2.95 -1.6 9.5 -3.15 L10.45 -3.0 11.05 -2.2 10.9 -1.25 Q10.6 -0.8 10.1 -0.7 2.65 1.05 -3.85 -1.7 -5.95 -2.6 -7.7 -3.85 L-9.15 -5.05 Q-9.5 -5.4 -9.5 -5.9 L-9.15 -6.8 Q-8.8 -7.15 -8.25 -7.2 -7.75 -7.2 -7.35 -6.85 L-2.75 -4.0" fill="#000000" fill-rule="evenodd" stroke="none"/>
    <path d="M-15.05 -23.2 Q-15.45 -23.7 -15.4 -24.3 -15.35 -24.9 -14.9 -25.3 L-11.1 -27.15 Q-6.25 -28.45 -0.1 -26.3 0.5 -26.05 0.75 -25.5 1.05 -24.95 0.85 -24.35 0.65 -23.8 0.05 -23.5 L-1.05 -23.45 Q-6.1 -25.2 -9.95 -24.35 L-12.9 -23.05 Q-13.4 -22.65 -14.0 -22.7 -14.65 -22.75 -15.05 -23.2" fill="#000000" fill-rule="evenodd" stroke="none"/>
    <path d="M6.8 -23.55 Q6.15 -23.55 5.75 -24.0 5.3 -24.4 5.3 -25.05 5.3 -25.65 5.75 -26.1 6.15 -26.55 6.8 -26.55 L18.3 -26.55 19.35 -26.1 Q19.8 -25.65 19.8 -25.05 19.8 -24.4 19.35 -24.0 18.9 -23.55 18.3 -23.55 L6.8 -23.55" fill="#000000" fill-rule="evenodd" stroke="none"/>
  </g>
</svg>
