<?xml version="1.0" encoding="UTF-8" standalone="no"?>
<svg xmlns:xlink="http://www.w3.org/1999/xlink" height="14.0px" width="40.0px" xmlns="http://www.w3.org/2000/svg">
  <g transform="matrix(1.0, 0.0, 0.0, 1.0, 20.0, 7.0)">
    <path d="M18.95 -4.95 Q20.0 -2.9 20.0 0.0 20.0 2.9 18.95 4.95 17.9 7.0 16.4 7.0 14.85 7.0 13.85 4.95 12.75 2.9 12.75 0.0 12.75 -2.9 13.85 -4.95 14.85 -7.0 16.4 -7.0 17.9 -7.0 18.95 -4.95" fill="#000000" fill-rule="evenodd" stroke="none"/>
    <path d="M-12.75 0.0 Q-12.75 2.9 -13.85 4.95 -14.85 7.0 -16.4 7.0 -17.9 7.0 -18.9 4.95 -20.0 2.9 -20.0 0.0 -20.0 -2.9 -18.9 -4.95 -17.9 -7.0 -16.4 -7.0 -14.85 -7.0 -13.85 -4.95 -12.75 -2.9 -12.75 0.0" fill="#000000" fill-rule="evenodd" stroke="none"/>
  </g>
</svg>
