<?xml version="1.0" encoding="UTF-8" standalone="no"?>
<svg xmlns:xlink="http://www.w3.org/1999/xlink" height="36.25px" width="35.7px" xmlns="http://www.w3.org/2000/svg">
  <g transform="matrix(1.0, 0.0, 0.0, 1.0, 0.0, 0.0)">
    <path d="M12.15 30.45 Q14.3 32.3 17.2 32.7 21.15 33.2 24.35 30.45 24.75 30.15 24.75 29.65 24.8 29.2 24.45 28.85 24.15 28.5 23.7 28.45 23.25 28.4 22.85 28.7 20.05 31.15 16.65 30.2 L13.65 28.7 Q13.25 28.4 12.8 28.45 12.35 28.5 12.05 28.85 11.7 29.2 11.75 29.65 11.8 30.15 12.15 30.45 M7.25 17.65 L6.9 17.55 Q6.0 15.15 6.8 13.15 L6.2 14.5 Q5.65 16.05 5.8 17.25 L3.3 16.85 Q2.65 14.8 3.35 12.95 L2.8 14.25 Q2.25 15.75 2.35 16.85 0.8 17.0 0.6 17.7 0.35 18.5 1.9 19.7 3.45 20.8 5.95 21.65 8.45 22.45 10.35 22.45 12.3 22.4 12.6 21.6 12.9 20.7 11.1 19.5 9.4 16.65 10.35 14.0 L9.75 15.5 Q9.15 17.35 9.55 18.6 L7.25 17.65 M24.45 5.65 L27.7 10.45 35.6 10.45 35.7 13.15 35.25 18.5 35.25 18.4 Q35.05 17.75 33.6 17.5 34.15 15.55 32.7 12.95 33.55 15.1 32.55 17.45 L30.15 17.65 Q30.7 15.7 29.25 13.15 30.15 15.45 29.0 17.9 L28.6 18.0 26.4 18.7 Q26.9 17.5 26.3 15.55 L25.6 13.9 Q26.65 16.6 24.95 19.4 22.75 20.65 23.05 21.65 23.3 22.5 25.2 22.6 L29.65 22.05 Q31.75 21.5 33.25 20.65 34.75 19.85 35.15 19.05 33.6 26.55 28.85 31.35 24.0 36.25 17.85 36.25 10.45 36.25 5.25 29.5 0.0 22.7 0.0 13.15 0.0 11.05 0.3 9.0 L14.4 9.25 17.25 0.0 18.85 9.65 24.45 10.05 24.45 5.65" fill="#ffffff" fill-rule="evenodd" stroke="none"/>
  </g>
</svg>
