<?xml version="1.0" encoding="UTF-8" standalone="no"?>
<svg xmlns:xlink="http://www.w3.org/1999/xlink" height="17.4px" width="20.9px" xmlns="http://www.w3.org/2000/svg">
  <g transform="matrix(1.0, 0.0, 0.0, 1.0, 0.0, 0.0)">
    <path d="M6.2 5.95 Q6.7 5.4 6.7 4.7 6.7 4.0 6.2 3.45 5.65 2.95 4.95 2.95 4.25 2.95 3.7 3.45 3.2 4.0 3.2 4.7 3.2 5.4 3.7 5.95 4.25 6.45 4.95 6.45 5.65 6.45 6.2 5.95 M15.2 2.15 Q14.15 2.15 13.4 2.95 12.6 3.7 12.6 4.8 12.6 5.85 13.4 6.65 14.15 7.4 15.2 7.4 16.3 7.4 17.05 6.65 17.8 5.85 17.8 4.8 17.8 3.7 17.05 2.95 16.3 2.15 15.2 2.15 M20.6 0.0 L20.9 3.2 Q20.9 9.05 17.85 13.25 14.75 17.4 10.45 17.4 6.15 17.4 3.05 13.25 0.0 9.05 0.0 3.2 0.0 1.6 0.3 0.0 L20.6 0.0" fill="#ffffff" fill-rule="evenodd" stroke="none"/>
  </g>
</svg>
