<?xml version="1.0" encoding="UTF-8" standalone="no"?>
<svg xmlns:xlink="http://www.w3.org/1999/xlink" height="20.1px" width="58.0px" xmlns="http://www.w3.org/2000/svg">
  <g transform="matrix(1.0, 0.0, 0.0, 1.0, 29.0, 10.0)">
    <path d="M-4.15 5.85 Q-4.15 7.65 -5.45 8.85 -6.7 10.1 -8.55 10.1 -10.35 10.1 -11.6 8.85 -12.9 7.65 -12.9 5.85 -12.9 4.1 -11.6 2.9 -10.35 1.65 -8.55 1.65 -6.7 1.65 -5.45 2.9 -4.15 4.1 -4.15 5.85" fill="#000000" fill-rule="evenodd" stroke="none"/>
    <path d="M9.55 5.85 Q9.55 7.65 8.25 8.85 6.95 10.1 5.15 10.1 3.3 10.1 2.05 8.85 0.75 7.65 0.75 5.85 0.75 4.1 2.05 2.9 3.3 1.65 5.15 1.65 6.95 1.65 8.25 2.9 9.55 4.1 9.55 5.85" fill="#000000" fill-rule="evenodd" stroke="none"/>
    <path d="M28.35 2.5 Q29.0 3.1 29.0 3.95 29.05 4.85 28.4 5.45 27.75 6.05 26.85 6.1 25.95 6.1 25.3 5.5 9.35 -9.55 -9.15 -4.55 -18.5 -2.0 -25.3 4.1 -25.95 4.75 -26.9 4.7 -27.75 4.7 -28.4 4.0 -29.05 3.4 -29.0 2.55 -29.0 1.7 -28.35 1.05 -21.15 -5.45 -10.55 -8.45 10.5 -14.35 28.35 2.5" fill="#000000" fill-rule="evenodd" stroke="none"/>
  </g>
</svg>
