<?xml version="1.0" encoding="UTF-8" standalone="no"?>
<svg xmlns:xlink="http://www.w3.org/1999/xlink" height="72.8px" width="41.55px" xmlns="http://www.w3.org/2000/svg">
  <g transform="matrix(1.0, 0.0, 0.0, 1.0, 23.35, 61.85)">
    <path d="M-6.15 -57.55 Q-6.85 -57.55 -7.4 -58.05 -7.9 -58.6 -7.9 -59.3 -7.9 -60.0 -7.4 -60.55 -6.85 -61.05 -6.15 -61.05 -5.45 -61.05 -4.9 -60.55 -4.4 -60.0 -4.4 -59.3 -4.4 -58.6 -4.9 -58.05 -5.45 -57.55 -6.15 -57.55" fill="#000000" fill-rule="evenodd" stroke="none"/>
    <path d="M4.1 -56.6 Q3.05 -56.6 2.3 -57.35 1.5 -58.15 1.5 -59.2 1.5 -60.3 2.3 -61.05 3.05 -61.85 4.1 -61.85 5.2 -61.85 5.95 -61.05 6.7 -60.3 6.7 -59.2 6.7 -58.15 5.95 -57.35 5.2 -56.6 4.1 -56.6" fill="#000000" fill-rule="evenodd" stroke="none"/>
    <path d="M-7.05 5.35 Q-15.95 7.15 -23.05 10.9 L-23.15 10.95 -23.35 7.65 -23.05 7.5 Q-12.55 2.25 -2.95 2.0 9.55 1.7 18.2 10.1 9.35 2.0 -7.05 5.35" fill="#ffffff" fill-rule="evenodd" stroke="none"/>
  </g>
</svg>
