<?xml version="1.0" encoding="UTF-8" standalone="no"?>
<svg xmlns:xlink="http://www.w3.org/1999/xlink" height="29.7px" width="89.8px" xmlns="http://www.w3.org/2000/svg">
  <g transform="matrix(1.0, 0.0, 0.0, 1.0, 44.9, 14.85)">
    <path d="M-15.05 2.4 Q-16.05 3.45 -17.5 3.45 -18.95 3.45 -20.0 2.4 -21.0 1.35 -21.0 -0.1 -21.0 -1.6 -20.0 -2.65 -18.95 -3.65 -17.5 -3.65 -16.05 -3.65 -15.05 -2.65 -14.05 -1.6 -14.05 -0.1 -14.05 1.35 -15.05 2.4" fill="#000000" fill-rule="evenodd" stroke="none"/>
    <path d="M19.2 2.4 Q18.15 3.45 16.7 3.45 15.25 3.45 14.25 2.4 13.25 1.35 13.25 -0.1 13.25 -1.6 14.25 -2.65 15.25 -3.65 16.7 -3.65 18.15 -3.65 19.2 -2.65 20.15 -1.6 20.15 -0.1 20.15 1.35 19.2 2.4" fill="#000000" fill-rule="evenodd" stroke="none"/>
    <path d="M-11.7 8.5 Q-15.15 12.0 -20.05 12.0 -24.9 12.0 -28.4 8.5 -31.85 4.95 -31.85 0.0 -31.85 -5.0 -28.4 -8.5 -24.9 -12.0 -20.05 -12.0 -15.15 -12.0 -11.7 -8.5 -8.25 -5.0 -8.25 0.0 -8.25 4.95 -11.7 8.5 Z" fill="none" stroke="#000000" stroke-linecap="butt" stroke-linejoin="miter" stroke-width="5.75"/>
    <path d="M26.5 8.5 Q23.05 12.0 18.2 12.0 13.3 12.0 9.85 8.5 6.4 4.95 6.4 0.0 6.4 -5.0 9.85 -8.5 13.3 -12.0 18.2 -12.0 23.05 -12.0 26.5 -8.5 29.9 -5.0 29.9 0.0 29.9 4.95 26.5 8.5 Z" fill="none" stroke="#000000" stroke-linecap="butt" stroke-linejoin="miter" stroke-width="5.75"/>
    <path d="M-43.0 -2.65 L43.0 -2.65" fill="none" stroke="#000000" stroke-linecap="round" stroke-linejoin="miter" stroke-width="3.8000000000000003"/>
  </g>
</svg>
