<?xml version="1.0" encoding="UTF-8" standalone="no"?>
<svg xmlns:xlink="http://www.w3.org/1999/xlink" height="40.95px" width="26.45px" xmlns="http://www.w3.org/2000/svg">
  <g transform="matrix(1.0, 0.0, 0.0, 1.0, 13.95, 54.05)">
    <path d="M0.2 -46.95 L0.2 -45.95 -13.95 -45.95 -13.95 -54.05 12.5 -54.05 12.5 -45.95 8.25 -45.95 8.25 -46.55 6.3 -46.55 6.3 -45.95 4.15 -45.95 4.15 -46.95 0.2 -46.95" fill="#ffffff" fill-rule="evenodd" stroke="none"/>
    <path d="M-2.6 -14.3 Q-0.3 -15.25 1.85 -14.3 L-2.6 -14.3" fill="#ffffff" fill-rule="evenodd" stroke="none"/>
    <path d="M4.8 -15.2 L5.2 -14.4 4.95 -13.55 Q4.65 -13.15 4.15 -13.1 3.65 -13.05 3.3 -13.35 L1.85 -14.3 Q-0.3 -15.25 -2.6 -14.3 L-4.25 -13.35 Q-4.6 -13.05 -5.1 -13.1 -5.6 -13.15 -5.9 -13.55 -6.2 -13.95 -6.15 -14.4 L-5.75 -15.2 Q-3.9 -16.7 -1.35 -17.05 2.05 -17.45 4.8 -15.2" fill="#000000" fill-rule="evenodd" stroke="none"/>
    <path d="M4.15 -33.4 L4.15 -45.95 6.3 -45.95 6.3 -33.4 4.15 -33.4" fill="#000000" fill-rule="evenodd" stroke="none"/>
    <path d="M4.15 -46.95 L4.15 -32.6 0.2 -32.6 0.2 -46.95 4.15 -46.95" fill="#ffffff" fill-rule="evenodd" stroke="none"/>
    <path d="M6.3 -30.45 L6.3 -46.55 8.25 -46.55 8.25 -30.45 6.3 -30.45" fill="#ffffff" fill-rule="evenodd" stroke="none"/>
  </g>
</svg>
