<?xml version="1.0" encoding="UTF-8" standalone="no"?>
<svg xmlns:xlink="http://www.w3.org/1999/xlink" height="25.7px" width="25.4px" xmlns="http://www.w3.org/2000/svg">
  <g transform="matrix(1.0, 0.0, 0.0, 1.0, 0.0, 0.0)">
    <path d="M8.9 11.85 Q8.25 11.85 7.75 12.35 7.25 12.85 7.25 13.5 7.25 14.2 7.75 14.65 8.25 15.15 8.9 15.15 9.6 15.15 10.05 14.65 10.55 14.2 10.55 13.5 10.55 12.85 10.05 12.35 9.6 11.85 8.9 11.85 M14.8 11.85 Q14.15 11.85 13.65 12.35 13.15 12.85 13.15 13.5 13.15 14.2 13.65 14.65 14.15 15.15 14.8 15.15 15.5 15.15 15.95 14.65 16.45 14.2 16.45 13.5 16.45 12.85 15.95 12.35 15.5 11.85 14.8 11.85 M24.0 5.75 L25.4 22.7 Q17.65 26.65 8.9 25.4 4.0 24.7 0.0 22.7 L0.9 7.9 Q12.55 7.15 19.6 0.0 23.85 2.2 24.0 5.7 L24.0 5.75" fill="#ffffff" fill-rule="evenodd" stroke="none"/>
  </g>
</svg>
