<?xml version="1.0" encoding="UTF-8" standalone="no"?>
<svg xmlns:xlink="http://www.w3.org/1999/xlink" height="52.8px" width="49.45px" xmlns="http://www.w3.org/2000/svg">
  <g transform="matrix(1.0, 0.0, 0.0, 1.0, 0.0, 0.0)">
    <path d="M19.8 38.65 L15.35 38.4 Q14.65 38.35 14.1 38.8 13.6 39.25 13.55 39.95 13.5 40.65 14.0 41.2 14.45 41.7 15.15 41.75 L19.7 42.0 Q20.25 44.95 23.75 44.95 27.7 44.95 28.7 42.55 L33.6 42.85 Q34.3 42.9 34.8 42.45 35.3 41.95 35.35 41.3 35.4 40.6 34.95 40.05 34.5 39.55 33.8 39.5 L28.8 39.2 Q28.35 36.55 26.55 36.25 25.45 36.05 24.7 37.0 L24.2 38.05 23.95 36.85 Q23.4 35.6 21.95 35.6 20.15 35.6 19.8 38.65 M29.75 20.65 Q29.75 19.6 29.05 18.9 28.3 18.15 27.25 18.15 26.2 18.15 25.5 18.9 24.75 19.6 24.75 20.65 24.75 21.7 25.5 22.45 26.2 23.15 27.25 23.15 28.3 23.15 29.05 22.45 29.75 21.7 29.75 20.65 M21.95 20.65 Q21.95 19.6 21.2 18.9 20.45 18.15 19.45 18.15 18.4 18.15 17.65 18.9 16.9 19.6 16.9 20.65 16.9 21.7 17.65 22.45 18.4 23.15 19.45 23.15 20.45 23.15 21.2 22.45 21.95 21.7 21.95 20.65 M44.8 4.65 Q49.45 9.3 49.45 15.85 L49.45 36.95 Q49.45 43.5 44.8 48.15 40.2 52.8 33.65 52.8 L15.85 52.8 Q9.3 52.8 4.65 48.15 0.0 43.5 0.0 36.95 L0.0 15.85 Q0.0 9.3 4.65 4.65 9.3 0.0 15.85 0.0 L33.65 0.0 Q40.2 0.0 44.8 4.65 M40.6 20.4 L40.95 19.5 Q40.9 19.0 40.55 18.65 30.35 8.6 18.25 12.15 12.2 13.95 8.1 17.8 7.7 18.15 7.7 18.65 7.7 19.2 8.05 19.55 8.45 19.95 8.95 19.95 9.5 19.95 9.85 19.6 13.75 15.95 19.1 14.45 29.65 11.45 38.8 20.45 39.2 20.8 39.7 20.8 L40.6 20.4" fill="#ffffff" fill-rule="evenodd" stroke="none"/>
  </g>
</svg>
