<?xml version="1.0" encoding="UTF-8" standalone="no"?>
<svg xmlns:xlink="http://www.w3.org/1999/xlink" height="37.0px" width="37.0px" xmlns="http://www.w3.org/2000/svg">
  <g transform="matrix(1.0, 0.0, 0.0, 1.0, 0.0, 0.0)">
    <path d="M14.0 30.95 Q15.6 32.75 18.55 32.75 21.45 32.75 23.15 30.95 24.4 29.6 24.6 27.85 24.65 27.35 24.3 26.95 24.0 26.6 23.5 26.5 23.0 26.45 22.6 26.8 22.2 27.1 22.1 27.6 22.0 28.45 21.45 29.1 20.55 30.25 18.55 30.25 16.6 30.25 15.75 29.15 15.25 28.5 15.25 27.75 L14.85 26.9 Q14.45 26.55 13.95 26.6 13.4 26.6 13.05 26.95 12.7 27.35 12.75 27.85 12.8 29.55 14.0 30.95 M5.45 14.45 Q4.6 15.3 4.6 16.5 4.6 17.7 5.45 18.55 6.3 19.4 7.5 19.4 8.7 19.4 9.55 18.55 10.4 17.7 10.4 16.5 10.4 15.3 9.55 14.45 8.7 13.6 7.5 13.6 6.3 13.6 5.45 14.45 M31.6 5.45 Q37.0 10.85 37.0 18.5 37.0 26.15 31.6 31.6 26.15 37.0 18.5 37.0 10.85 37.0 5.45 31.6 0.0 26.15 0.0 18.5 0.0 10.85 5.45 5.45 10.85 0.0 18.5 0.0 26.15 0.0 31.6 5.45 M27.55 18.55 Q28.4 19.4 29.6 19.4 30.8 19.4 31.65 18.55 32.5 17.7 32.5 16.5 32.5 15.3 31.65 14.45 30.8 13.6 29.6 13.6 28.4 13.6 27.55 14.45 26.7 15.3 26.7 16.5 26.7 17.7 27.55 18.55" fill="#ffffff" fill-rule="evenodd" stroke="none"/>
  </g>
</svg>
