<?xml version="1.0" encoding="UTF-8" standalone="no"?>
<svg xmlns:xlink="http://www.w3.org/1999/xlink" height="19.15px" width="27.9px" xmlns="http://www.w3.org/2000/svg">
  <g transform="matrix(1.0, 0.0, 0.0, 1.0, 14.35, 26.65)">
    <path d="M-8.55 -23.75 Q-8.55 -22.55 -9.4 -21.7 -10.25 -20.85 -11.45 -20.85 -12.65 -20.85 -13.5 -21.7 -14.35 -22.55 -14.35 -23.75 -14.35 -24.95 -13.5 -25.8 -12.65 -26.65 -11.45 -26.65 -10.25 -26.65 -9.4 -25.8 -8.55 -24.95 -8.55 -23.75" fill="#000000" fill-rule="evenodd" stroke="none"/>
    <path d="M10.65 -20.85 Q9.45 -20.85 8.6 -21.7 7.75 -22.55 7.75 -23.75 7.75 -24.95 8.6 -25.8 9.45 -26.65 10.65 -26.65 11.85 -26.65 12.7 -25.8 13.55 -24.95 13.55 -23.75 13.55 -22.55 12.7 -21.7 11.85 -20.85 10.65 -20.85" fill="#000000" fill-rule="evenodd" stroke="none"/>
    <path d="M-5.9 -13.3 Q-5.55 -13.65 -5.0 -13.65 -4.5 -13.7 -4.1 -13.35 -3.75 -13.0 -3.7 -12.5 -3.7 -11.75 -3.2 -11.1 -2.35 -10.0 -0.4 -10.0 1.6 -10.0 2.5 -11.15 3.05 -11.8 3.15 -12.65 3.25 -13.15 3.65 -13.45 4.05 -13.8 4.55 -13.75 L5.35 -13.3 Q5.7 -12.9 5.65 -12.4 5.45 -10.65 4.2 -9.3 2.5 -7.5 -0.4 -7.5 -3.35 -7.5 -4.95 -9.3 -6.15 -10.7 -6.2 -12.4 -6.25 -12.9 -5.9 -13.3" fill="#000000" fill-rule="evenodd" stroke="none"/>
  </g>
</svg>
