<?xml version="1.0" encoding="UTF-8" standalone="no"?>
<svg xmlns:xlink="http://www.w3.org/1999/xlink" height="45.5px" width="120.35px" xmlns="http://www.w3.org/2000/svg">
  <g transform="matrix(1.0, 0.0, 0.0, 1.0, 57.7, 13.85)">
    <path d="M18.5 -3.85 Q17.85 -3.25 17.0 -3.25 16.05 -3.25 15.05 -3.9 L18.5 -3.85" fill="#ffffff" fill-rule="evenodd" stroke="none"/>
    <path d="M15.3 -12.85 L15.35 -12.85 Q27.6 -12.45 35.45 -4.8 35.9 -4.35 35.9 -3.6 L35.7 -2.85 Q35.4 -2.35 35.1 -2.35 34.85 -2.35 34.6 -2.6 31.55 -5.6 27.4 -7.5 22.05 -9.95 15.45 -10.15 12.8 -9.95 9.1 -8.85 2.45 -6.85 -2.15 -2.85 L-2.5 -2.7 Q-3.0 -2.7 -3.25 -3.3 L-3.45 -4.1 Q-3.45 -4.85 -3.0 -5.2 1.85 -9.45 8.9 -11.55 12.45 -12.6 15.3 -12.85" fill="#000000" fill-rule="evenodd" stroke="none"/>
    <path d="M15.2 -13.85 L15.35 -13.85 Q22.45 -13.6 28.3 -10.9 32.75 -8.85 36.15 -5.5 36.9 -4.75 36.9 -3.6 L36.6 -2.35 Q36.1 -1.35 35.1 -1.35 34.5 -1.35 33.9 -1.85 L31.75 -3.75 21.05 -3.8 21.1 -3.9 Q21.35 -4.25 21.25 -4.65 L20.75 -5.3 20.0 -5.4 19.4 -4.95 18.5 -3.85 15.05 -3.9 14.7 -4.1 13.9 -4.7 13.65 -4.95 12.95 -5.25 Q12.5 -5.3 12.2 -5.0 11.75 -4.55 12.0 -3.9 L1.0 -4.0 -1.5 -2.1 Q-2.0 -1.7 -2.5 -1.7 -3.55 -1.7 -4.15 -2.85 L-4.45 -4.1 Q-4.45 -5.25 -3.7 -5.95 1.4 -10.35 8.6 -12.5 L15.2 -13.85 M15.35 -12.85 L15.3 -12.85 Q12.45 -12.6 8.9 -11.55 1.85 -9.45 -3.0 -5.2 -3.45 -4.85 -3.45 -4.1 L-3.25 -3.3 Q-3.0 -2.7 -2.5 -2.7 L-2.15 -2.85 Q2.45 -6.85 9.1 -8.85 12.8 -9.95 15.45 -10.15 22.05 -9.95 27.4 -7.5 31.55 -5.6 34.6 -2.6 34.85 -2.35 35.1 -2.35 35.4 -2.35 35.7 -2.85 L35.9 -3.6 Q35.9 -4.35 35.45 -4.8 27.6 -12.45 15.35 -12.85" fill="#ffffff" fill-rule="evenodd" stroke="none"/>
    <path d="M61.45 10.85 L61.5 10.8 62.65 14.25 Q56.15 20.85 45.05 25.2 28.9 31.5 5.65 31.65 -20.75 31.85 -39.75 19.55 -51.2 12.15 -57.7 2.05 L-56.1 -1.25 Q-54.85 1.05 -52.6 3.9 -48.1 9.55 -42.0 14.2 -22.85 28.75 5.65 28.55 29.4 28.4 45.5 21.55 55.9 17.15 61.45 10.85" fill="#ffffff" fill-rule="evenodd" stroke="none"/>
    <path d="M19.4 -4.95 L20.0 -5.4 20.75 -5.3 21.25 -4.65 Q21.35 -4.25 21.1 -3.9 L21.05 -3.8 Q19.5 -1.25 17.05 -1.25 L17.0 -1.25 Q15.25 -1.3 13.55 -2.4 L12.2 -3.6 12.0 -3.9 Q11.75 -4.55 12.2 -5.0 12.5 -5.3 12.95 -5.25 L13.65 -4.95 13.9 -4.7 14.7 -4.1 15.05 -3.9 Q16.05 -3.25 17.0 -3.25 17.85 -3.25 18.5 -3.85 L19.4 -4.95" fill="#000000" fill-rule="evenodd" stroke="none"/>
  </g>
</svg>
