<?xml version="1.0" encoding="UTF-8" standalone="no"?>
<svg xmlns:xlink="http://www.w3.org/1999/xlink" height="45.45px" width="38.0px" xmlns="http://www.w3.org/2000/svg">
  <g transform="matrix(1.0, 0.0, 0.0, 1.0, 18.9, 43.4)">
    <path d="M7.05 2.05 L7.05 -1.65 7.25 -1.65 7.25 2.05 7.05 2.05" fill="#ffffff" fill-rule="evenodd" stroke="none"/>
    <path d="M-4.25 -1.65 L4.05 -1.65 4.05 2.05 -4.25 2.05 -4.25 -1.65" fill="#ffffff" fill-rule="evenodd" stroke="none"/>
    <path d="M4.75 -37.95 Q3.05 -36.5 2.4 -34.45 L-2.95 -34.45 Q-3.7 -36.8 -5.7 -38.3 -7.75 -39.8 -10.25 -39.8 -12.8 -39.8 -14.85 -38.3 -16.85 -36.8 -17.6 -34.45 L-18.9 -34.45 -18.9 -43.4 -16.95 -43.4 Q-5.35 -38.7 4.75 -37.95" fill="#ffffff" fill-rule="evenodd" stroke="none"/>
    <path d="M19.1 -40.25 L19.1 -34.45 17.05 -34.45 Q16.2 -37.0 14.05 -38.45 16.7 -39.05 19.1 -40.25" fill="#ffffff" fill-rule="evenodd" stroke="none"/>
    <path d="M5.05 -32.15 L5.1 -32.45 8.2 -32.45 8.2 -32.15 Q8.2 -31.4 8.75 -30.85 9.25 -30.35 10.0 -30.35 10.75 -30.35 11.3 -30.85 11.85 -31.4 11.85 -32.15 L11.8 -32.45 14.35 -32.45 14.4 -32.15 Q14.4 -30.2 13.05 -28.8 11.65 -27.45 9.75 -27.45 7.8 -27.45 6.45 -28.8 5.05 -30.2 5.05 -32.15" fill="#ffffff" fill-rule="evenodd" stroke="none"/>
    <path d="M-10.25 -36.8 Q-7.6 -36.8 -6.25 -34.45 L-14.3 -34.45 Q-12.95 -36.8 -10.25 -36.8" fill="#ffffff" fill-rule="evenodd" stroke="none"/>
    <path d="M9.75 -36.8 Q12.4 -36.8 13.75 -34.45 L5.7 -34.45 Q7.05 -36.8 9.75 -36.8" fill="#ffffff" fill-rule="evenodd" stroke="none"/>
    <path d="M-14.95 -32.15 L-14.9 -32.45 -11.8 -32.45 -11.8 -32.15 Q-11.8 -31.4 -11.25 -30.85 -10.75 -30.35 -10.0 -30.35 -9.25 -30.35 -8.7 -30.85 -8.15 -31.4 -8.15 -32.15 L-8.2 -32.45 -5.65 -32.45 -5.6 -32.15 Q-5.6 -30.2 -6.95 -28.8 -8.35 -27.45 -10.25 -27.45 -12.2 -27.45 -13.55 -28.8 -14.95 -30.2 -14.95 -32.15" fill="#ffffff" fill-rule="evenodd" stroke="none"/>
  </g>
</svg>
