<?xml version="1.0" encoding="UTF-8" standalone="no"?>
<svg xmlns:xlink="http://www.w3.org/1999/xlink" height="14.0px" width="18.0px" xmlns="http://www.w3.org/2000/svg">
  <g transform="matrix(1.0, 0.0, 0.0, 1.0, 9.0, 7.0)">
    <path d="M3.6 4.5 Q2.4 6.2 0.2 6.45 -2.0 6.7 -3.9 5.35 -5.75 4.1 -6.25 1.95 -6.75 -0.15 -5.55 -1.85 -4.35 -3.6 -2.15 -3.9 0.15 -4.25 2.05 -2.9 3.9 -1.6 4.35 0.6 4.8 2.8 3.6 4.5" fill="#000000" fill-rule="evenodd" stroke="none"/>
    <path d="M2.3 -3.35 Q4.35 -1.9 4.85 0.5 5.35 2.9 4.0 4.75 2.75 6.5 0.55 6.9 -2.05 7.3 -4.2 5.75 -6.4 4.3 -6.8 1.75 -7.2 -0.35 -5.95 -2.15 -4.6 -4.05 -2.15 -4.4 0.3 -4.7 2.3 -3.35 M3.2 4.2 Q3.95 3.1 3.95 1.7 3.95 -1.0 1.75 -2.5 0.0 -3.7 -2.0 -3.4 -4.0 -3.15 -5.15 -1.6 -6.1 -0.1 -5.8 1.6 -5.5 3.75 -3.6 4.95 -1.8 6.3 0.4 5.9 2.2 5.6 3.2 4.2" fill="#000000" fill-rule="evenodd" stroke="none"/>
    <path d="M3.35 -1.7 Q4.95 1.05 6.1 1.95 6.75 2.45 7.9 2.6 9.3 2.8 7.9 3.8 6.4 4.8 4.3 5.6 L-3.05 5.85 Q-6.1 4.5 -7.5 -0.2 -8.2 -2.65 -8.45 -5.4 -8.7 -6.6 -8.0 -6.5 -5.85 -4.6 -3.05 -4.05 L-0.7 -3.9 0.4 -2.85 3.35 -1.7" fill="#000000" fill-rule="evenodd" stroke="none"/>
    <path d="M3.1 -2.15 Q3.45 -2.4 3.75 -1.95 5.25 0.6 6.3 1.45 6.95 1.95 7.95 2.1 8.85 2.25 9.0 2.85 9.15 3.45 8.2 4.2 6.5 5.35 4.35 6.15 0.0 7.7 -3.25 6.3 -7.9 4.3 -8.9 -4.7 L-8.95 -5.3 Q-9.15 -6.25 -8.7 -6.7 -8.3 -7.1 -7.9 -7.0 L-7.65 -6.9 Q-5.65 -5.1 -3.0 -4.6 L-0.8 -4.4 -0.4 -4.25 0.75 -3.25 Q1.1 -2.9 0.8 -2.55 L0.1 -2.5 -0.9 -3.4 -3.65 -3.7 Q-6.05 -4.35 -8.0 -5.9 L-8.0 -5.5 -7.9 -4.85 Q-6.9 3.65 -2.85 5.4 L4.1 5.15 Q6.15 4.45 7.6 3.4 L7.9 3.15 7.7 3.1 Q6.5 2.95 5.65 2.2 4.5 1.2 2.9 -1.45 L2.85 -1.7 3.1 -2.15" fill="#000000" fill-rule="evenodd" stroke="none"/>
  </g>
</svg>
