<?xml version="1.0" encoding="UTF-8" standalone="no"?>
<svg xmlns:xlink="http://www.w3.org/1999/xlink" height="27.05px" width="38.0px" xmlns="http://www.w3.org/2000/svg">
  <g transform="matrix(1.0, 0.0, 0.0, 1.0, 0.0, 0.0)">
    <path d="M29.95 15.5 Q29.35 15.4 28.85 15.8 24.0 19.65 18.65 19.65 14.7 19.65 10.8 17.7 L8.5 16.4 7.75 15.85 Q7.25 15.45 6.65 15.5 6.05 15.55 5.65 16.05 5.25 16.55 5.3 17.15 5.35 17.75 5.85 18.15 L9.5 20.4 Q14.0 22.6 18.65 22.65 L18.7 22.65 Q25.1 22.65 30.75 18.15 31.25 17.8 31.3 17.15 31.35 16.55 30.95 16.05 30.6 15.55 29.95 15.5 M24.35 10.7 Q24.3 10.25 23.95 9.95 21.25 7.7 17.95 8.15 15.45 8.45 13.7 9.95 13.35 10.25 13.3 10.7 13.25 11.15 13.55 11.55 13.85 11.9 14.3 11.95 L15.15 11.7 17.55 10.55 Q20.25 9.85 22.5 11.7 L23.35 11.95 24.1 11.55 24.35 10.7 M36.3 0.0 L38.0 0.0 38.0 27.05 0.0 27.05 0.0 0.0 1.0 0.0 0.95 0.3 Q0.95 3.5 3.2 5.75 5.45 8.0 8.65 8.0 11.8 8.0 14.05 5.75 16.3 3.5 16.3 0.3 L16.3 0.0 21.0 0.0 20.95 0.3 Q20.95 3.5 23.2 5.75 25.45 8.0 28.65 8.0 31.8 8.0 34.05 5.75 36.3 3.5 36.3 0.3 L36.3 0.0" fill="#ffffff" fill-rule="evenodd" stroke="none"/>
  </g>
</svg>
