<?xml version="1.0" encoding="UTF-8" standalone="no"?>
<svg xmlns:xlink="http://www.w3.org/1999/xlink" height="105.5px" width="66.75px" xmlns="http://www.w3.org/2000/svg">
  <g transform="matrix(1.0, 0.0, 0.0, 1.0, 33.4, 52.75)">
    <path d="M-29.9 43.0 L-29.9 49.65 -1.95 49.65 -1.95 43.0 -29.9 43.0 M2.0 43.0 L2.0 49.65 29.45 49.65 29.45 43.0 2.0 43.0 M12.35 -44.5 L10.15 -44.5 Q3.8 -42.25 -3.6 -42.9 -8.05 -43.3 -11.45 -44.5 L-13.3 -44.5 Q-15.15 -44.05 -15.85 -42.35 L-15.9 -16.55 Q-15.9 -10.75 -11.65 -6.6 -7.45 -2.5 -1.45 -2.5 L0.85 -2.5 Q6.8 -2.5 11.05 -6.6 15.25 -10.75 15.25 -16.55 L15.25 -41.45 Q15.05 -43.85 12.35 -44.5 M-19.0 -47.3 L-18.5 -48.65 -18.45 -48.65 Q-17.25 -50.9 -14.25 -51.55 L-4.25 -52.75 2.1 -52.75 Q8.15 -52.5 13.8 -51.2 L15.4 -50.6 Q17.1 -49.75 17.8 -48.65 L17.9 -48.65 18.4 -47.3 Q19.45 -44.3 19.45 -41.25 L19.45 -34.85 Q20.6 -33.15 20.9 -29.5 26.5 -26.45 29.9 -20.6 33.35 -14.6 33.35 -7.45 L33.35 52.75 -33.4 52.75 -33.4 -7.45 Q-33.4 -14.35 -30.15 -20.25 -27.0 -26.0 -21.65 -29.1 -21.35 -33.15 -20.1 -34.95 L-20.1 -41.25 Q-20.1 -44.35 -19.0 -47.3" fill="#000000" fill-rule="evenodd" stroke="none"/>
  </g>
</svg>
