<?xml version="1.0" encoding="UTF-8" standalone="no"?>
<svg xmlns:xlink="http://www.w3.org/1999/xlink" height="42.0px" width="31.15px" xmlns="http://www.w3.org/2000/svg">
  <g transform="matrix(1.0, 0.0, 0.0, 1.0, 0.0, 0.0)">
    <path d="M5.3 29.85 Q5.05 30.3 5.15 30.8 5.25 31.35 5.7 31.6 8.05 33.1 11.6 33.75 18.5 35.05 25.4 31.7 L26.05 30.95 Q26.25 30.45 26.0 30.0 25.8 29.5 25.3 29.35 L24.3 29.4 Q18.25 32.3 12.15 31.25 9.1 30.7 7.05 29.45 L6.1 29.3 Q5.6 29.45 5.3 29.85 M4.9 12.75 Q4.2 13.45 4.2 14.4 4.2 15.35 4.9 16.0 5.55 16.7 6.5 16.7 7.45 16.7 8.1 16.0 8.8 15.35 8.8 14.4 8.8 13.45 8.1 12.75 7.45 12.1 6.5 12.1 5.55 12.1 4.9 12.75 M24.35 16.35 Q25.3 16.35 25.95 15.65 26.6 15.0 26.6 14.05 26.6 13.1 25.95 12.4 25.3 11.75 24.35 11.75 23.4 11.75 22.7 12.4 22.05 13.1 22.05 14.05 22.05 15.0 22.7 15.65 23.4 16.35 24.35 16.35 M26.05 0.0 L28.25 0.0 Q30.95 0.65 31.15 3.05 L31.15 27.95 Q31.15 33.75 26.95 37.9 22.7 42.0 16.75 42.0 L14.45 42.0 Q8.45 42.0 4.25 37.9 0.0 33.75 0.0 27.95 L0.05 2.15 Q0.75 0.45 2.6 0.0 L4.45 0.0 Q7.85 1.2 12.3 1.6 19.7 2.25 26.05 0.0" fill="#ffffff" fill-rule="evenodd" stroke="none"/>
  </g>
</svg>
