<?xml version="1.0" encoding="UTF-8" standalone="no"?>
<svg xmlns:xlink="http://www.w3.org/1999/xlink" height="35.1px" width="42.5px" xmlns="http://www.w3.org/2000/svg">
  <g transform="matrix(1.0, 0.0, 0.0, 1.0, 0.0, 0.0)">
    <path d="M21.25 0.0 Q30.05 0.0 36.25 6.25 42.5 12.5 42.5 21.25 42.5 26.5 40.1 31.0 L35.65 31.9 Q34.6 30.2 32.95 29.25 31.2 28.25 29.15 28.25 26.3 28.25 24.2 30.1 22.05 31.95 21.65 34.7 L19.65 35.1 18.8 34.9 Q18.5 32.35 16.65 30.5 14.4 28.25 11.25 28.25 7.3 28.25 5.0 31.55 L2.35 30.9 Q0.0 26.3 0.0 21.25 0.0 12.5 6.25 6.25 12.5 0.0 21.25 0.0 M30.95 15.2 L31.25 14.45 30.95 13.7 Q30.65 13.4 30.2 13.4 L10.65 13.4 Q10.2 13.4 9.9 13.7 9.6 14.0 9.6 14.45 L9.9 15.2 10.65 15.5 30.2 15.5 30.95 15.2 M29.95 20.8 L30.25 20.05 29.95 19.3 29.2 19.0 9.65 19.0 Q9.2 19.0 8.9 19.3 8.6 19.6 8.6 20.05 L8.9 20.8 9.65 21.1 29.2 21.1 29.95 20.8" fill="#ffffff" fill-rule="evenodd" stroke="none"/>
  </g>
</svg>
