<?xml version="1.0" encoding="UTF-8" standalone="no"?>
<svg xmlns:xlink="http://www.w3.org/1999/xlink" height="27.1px" width="27.95px" xmlns="http://www.w3.org/2000/svg">
  <g transform="matrix(1.0, 0.0, 0.0, 1.0, 0.0, 0.0)">
    <path d="M9.35 6.1 Q9.65 5.2 8.95 4.25 8.3 3.3 7.05 2.9 5.8 2.55 4.75 2.9 3.65 3.3 3.4 4.25 3.1 5.15 3.75 6.1 4.4 7.05 5.65 7.45 6.9 7.85 7.95 7.45 9.05 7.05 9.35 6.1 M21.2 19.2 L21.45 18.3 Q21.35 17.8 20.95 17.45 20.55 17.15 20.05 17.2 19.55 17.3 19.25 17.7 16.45 21.3 12.55 19.35 L11.65 19.15 10.85 19.7 Q10.6 20.1 10.7 20.6 10.8 21.1 11.2 21.4 13.15 22.65 15.6 22.5 18.85 22.25 21.2 19.2 M27.8 0.0 L27.95 3.05 Q27.95 12.85 23.8 19.95 19.65 27.1 13.95 27.1 8.3 27.1 4.15 19.95 0.0 12.85 0.0 3.05 0.0 1.05 0.15 0.0 L27.8 0.0 M23.6 2.9 Q22.5 2.55 21.25 2.9 20.05 3.3 19.4 4.25 18.7 5.2 19.0 6.1 19.3 7.05 20.4 7.45 21.45 7.85 22.7 7.45 23.95 7.05 24.6 6.1 25.25 5.15 24.95 4.25 24.7 3.3 23.6 2.9" fill="#ffffff" fill-rule="evenodd" stroke="none"/>
  </g>
</svg>
