<?xml version="1.0" encoding="UTF-8" standalone="no"?>
<svg xmlns:xlink="http://www.w3.org/1999/xlink" height="19.8px" width="21.75px" xmlns="http://www.w3.org/2000/svg">
  <g transform="matrix(1.0, 0.0, 0.0, 1.0, 14.5, 33.65)">
    <path d="M-13.05 -33.45 Q-12.0 -33.8 -10.75 -33.45 -9.5 -33.05 -8.85 -32.1 -8.15 -31.15 -8.45 -30.25 -8.75 -29.3 -9.85 -28.9 -10.9 -28.5 -12.15 -28.9 -13.4 -29.3 -14.05 -30.25 -14.7 -31.2 -14.4 -32.1 -14.15 -33.05 -13.05 -33.45" fill="#000000" fill-rule="evenodd" stroke="none"/>
    <path d="M3.45 -33.45 Q4.7 -33.8 5.8 -33.45 6.9 -33.05 7.15 -32.1 7.45 -31.2 6.8 -30.25 6.15 -29.3 4.9 -28.9 3.65 -28.5 2.6 -28.9 1.5 -29.3 1.2 -30.25 0.9 -31.15 1.6 -32.1 2.25 -33.05 3.45 -33.45" fill="#000000" fill-rule="evenodd" stroke="none"/>
    <path d="M1.45 -18.65 L2.25 -19.15 Q2.75 -19.2 3.15 -18.9 L3.65 -18.05 Q3.7 -17.55 3.4 -17.15 1.05 -14.1 -2.2 -13.85 -4.65 -13.7 -6.6 -14.95 L-7.1 -15.75 -6.95 -16.65 -6.15 -17.2 -5.25 -17.0 Q-1.35 -15.05 1.45 -18.65" fill="#000000" fill-rule="evenodd" stroke="none"/>
  </g>
</svg>
