<?xml version="1.0" encoding="UTF-8" standalone="no"?>
<svg xmlns:xlink="http://www.w3.org/1999/xlink" height="27.6px" width="42.5px" xmlns="http://www.w3.org/2000/svg">
  <g transform="matrix(1.0, 0.0, 0.0, 1.0, 0.0, 0.0)">
    <path d="M7.5 16.3 Q7.5 17.45 8.3 18.2 9.1 19.0 10.2 19.0 11.35 19.0 12.1 18.2 12.9 17.45 12.9 16.3 12.9 15.2 12.1 14.4 11.35 13.6 10.2 13.6 9.1 13.6 8.3 14.4 7.5 15.2 7.5 16.3 M29.45 16.3 Q29.45 17.4 30.25 18.2 31.0 19.0 32.1 19.0 33.25 19.0 34.0 18.2 34.8 17.45 34.8 16.3 34.8 15.2 34.0 14.4 33.25 13.6 32.1 13.6 31.0 13.6 30.25 14.4 29.45 15.2 29.45 16.3 M42.5 0.05 L42.45 21.5 40.6 23.95 Q29.8 28.9 15.65 27.1 7.75 26.05 1.7 23.6 L0.0 21.3 0.0 0.0 3.1 0.0 20.35 3.95 42.5 0.05 M40.55 8.05 Q40.85 7.35 40.6 6.65 40.4 5.95 39.7 5.6 L38.3 5.5 20.7 11.5 4.0 8.0 Q3.25 7.85 2.65 8.25 2.0 8.7 1.85 9.4 1.7 10.15 2.1 10.8 2.5 11.4 3.25 11.55 L20.45 15.15 21.4 15.1 39.5 8.95 Q40.2 8.7 40.55 8.05" fill="#ffffff" fill-rule="evenodd" stroke="none"/>
  </g>
</svg>
