<?xml version="1.0" encoding="UTF-8" standalone="no"?>
<svg xmlns:xlink="http://www.w3.org/1999/xlink" height="26.0px" width="106.0px" xmlns="http://www.w3.org/2000/svg">
  <g transform="matrix(1.0, 0.0, 0.0, 1.0, 53.0, 13.0)">
    <path d="M1.45 -5.0 Q1.45 -1.65 -1.0 0.7 -3.4 3.05 -6.8 3.05 -10.25 3.05 -12.6 0.7 -15.0 -1.65 -15.0 -5.0 -15.0 -8.3 -12.6 -10.65 -10.2 -13.0 -6.8 -13.0 -3.4 -13.0 -1.0 -10.65 1.45 -8.3 1.45 -5.0" fill="#000000" fill-rule="evenodd" stroke="none"/>
    <path d="M-5.1 3.05 L-53.0 13.0 Q-48.7 7.75 -40.95 1.85 -25.4 -9.9 -8.2 -13.0 L-5.1 3.05" fill="#000000" fill-rule="evenodd" stroke="none"/>
    <path d="M-1.45 -5.0 Q-1.45 -8.3 1.0 -10.65 3.4 -13.0 6.8 -13.0 10.25 -13.0 12.6 -10.65 15.0 -8.3 15.0 -5.0 15.0 -1.65 12.6 0.7 10.25 3.05 6.8 3.05 3.4 3.05 1.0 0.7 -1.45 -1.65 -1.45 -5.0" fill="#000000" fill-rule="evenodd" stroke="none"/>
    <path d="M40.95 1.85 Q48.7 7.75 53.0 13.0 L5.1 3.05 8.2 -13.0 Q25.4 -9.9 40.95 1.85" fill="#000000" fill-rule="evenodd" stroke="none"/>
    <path d="M-8.05 8.1 L7.25 8.1" fill="none" stroke="#000000" stroke-linecap="round" stroke-linejoin="round" stroke-width="4.0"/>
  </g>
</svg>
