<?xml version="1.0" encoding="UTF-8" standalone="no"?>
<svg xmlns:xlink="http://www.w3.org/1999/xlink" height="26.85px" width="30.15px" xmlns="http://www.w3.org/2000/svg">
  <g transform="matrix(1.0, 0.0, 0.0, 1.0, 14.6, 38.65)">
    <path d="M8.1 -32.0 Q7.3 -32.0 6.7 -32.6 6.15 -33.15 6.15 -33.95 6.15 -34.75 6.7 -35.3 7.3 -35.85 8.1 -35.85 8.9 -35.85 9.45 -35.3 10.0 -34.75 10.0 -33.95 10.0 -33.15 9.45 -32.6 8.9 -32.0 8.1 -32.0" fill="#000000" fill-rule="evenodd" stroke="none"/>
    <path d="M2.45 -38.65 L3.15 -38.35 3.45 -37.65 3.15 -36.95 Q2.85 -36.65 2.45 -36.65 2.05 -36.65 1.7 -36.95 1.4 -37.25 1.4 -37.65 L1.7 -38.35 2.45 -38.65" fill="#000000" fill-rule="evenodd" stroke="none"/>
    <path d="M14.5 -31.0 Q14.1 -31.0 13.8 -31.3 13.5 -31.6 13.5 -32.0 13.5 -32.45 13.8 -32.75 L14.5 -33.05 15.25 -32.75 15.55 -32.0 15.25 -31.3 Q14.9 -31.0 14.5 -31.0" fill="#000000" fill-rule="evenodd" stroke="none"/>
    <path d="M-13.6 -31.45 Q-14.0 -31.45 -14.3 -31.75 L-14.6 -32.45 -14.3 -33.15 -13.6 -33.45 -12.85 -33.15 Q-12.55 -32.85 -12.55 -32.45 -12.55 -32.05 -12.85 -31.75 -13.2 -31.45 -13.6 -31.45" fill="#000000" fill-rule="evenodd" stroke="none"/>
    <path d="M-1.95 -35.65 Q-1.1 -35.65 -0.55 -35.1 0.0 -34.5 0.0 -33.7 0.0 -32.9 -0.55 -32.35 -1.15 -31.8 -1.95 -31.8 -2.75 -31.8 -3.3 -32.35 -3.85 -32.9 -3.85 -33.7 -3.85 -34.5 -3.3 -35.1 -2.75 -35.65 -1.95 -35.65" fill="#000000" fill-rule="evenodd" stroke="none"/>
    <path d="M-8.95 -11.8 Q-10.9 -11.8 -12.4 -13.1 -13.85 -14.35 -14.1 -16.25 L-3.8 -16.25 Q-4.1 -14.35 -5.55 -13.1 -7.0 -11.8 -8.95 -11.8" fill="#000000" fill-rule="evenodd" stroke="none"/>
  </g>
</svg>
