<?xml version="1.0" encoding="UTF-8" standalone="no"?>
<svg xmlns:xlink="http://www.w3.org/1999/xlink" height="15.7px" width="40.2px" xmlns="http://www.w3.org/2000/svg">
  <g transform="matrix(1.0, 0.0, 0.0, 1.0, 0.0, 0.0)">
    <path d="M36.3 11.85 Q32.45 15.7 27.0 15.7 L13.15 15.7 Q7.7 15.7 3.85 11.85 0.0 8.0 0.0 2.55 L0.0 0.0 40.2 0.0 40.2 2.55 Q40.2 8.0 36.3 11.85 M31.95 6.2 Q30.2 5.0 27.8 5.0 L11.3 5.0 Q8.9 5.0 7.2 6.2 5.45 7.35 5.45 9.05 5.45 10.75 7.2 11.9 8.9 13.1 11.3 13.1 L27.8 13.1 Q30.2 13.1 31.95 11.9 33.65 10.75 33.65 9.05 33.65 7.35 31.95 6.2" fill="#ffffff" fill-rule="evenodd" stroke="none"/>
  </g>
</svg>
