<?xml version="1.0" encoding="UTF-8" standalone="no"?>
<svg xmlns:xlink="http://www.w3.org/1999/xlink" height="10.7px" width="14.15px" xmlns="http://www.w3.org/2000/svg">
  <g transform="matrix(1.0, 0.0, 0.0, 1.0, 0.0, 0.0)">
    <path d="M6.35 4.75 Q5.9 4.3 5.3 4.3 4.7 4.3 4.3 4.75 3.85 5.15 3.85 5.75 3.85 6.35 4.3 6.8 4.7 7.2 5.3 7.2 5.9 7.2 6.35 6.8 6.75 6.35 6.75 5.75 6.75 5.15 6.35 4.75 M14.15 4.75 Q13.75 7.3 11.75 9.0 9.75 10.7 7.15 10.7 4.2 10.7 2.1 8.6 0.0 6.5 0.0 3.55 0.0 1.8 1.05 0.0 L14.15 4.75" fill="#ffffff" fill-rule="evenodd" stroke="none"/>
  </g>
</svg>
