<?xml version="1.0" encoding="UTF-8" standalone="no"?>
<svg xmlns:xlink="http://www.w3.org/1999/xlink" height="30.0px" width="62.0px" xmlns="http://www.w3.org/2000/svg">
  <g transform="matrix(1.0, 0.0, 0.0, 1.0, 31.0, 15.0)">
    <path d="M-23.2 1.45 Q-18.25 -6.9 -10.0 -11.1 6.45 -19.45 23.0 1.45 L-23.2 1.45" fill="#ffffff" fill-rule="evenodd" stroke="none"/>
    <path d="M-1.8 -11.75 Q-7.6 -11.4 -13.15 -7.2 -16.9 -4.35 -20.05 -0.15 L19.5 -0.15 Q8.8 -12.45 -1.8 -11.75 M24.25 0.5 L26.35 3.05 -26.0 3.05 -24.6 0.7 Q-22.25 -3.35 -18.35 -7.05 -10.65 -14.4 -2.05 -14.95 11.45 -15.8 24.25 0.5" fill="#000000" fill-rule="evenodd" stroke="none"/>
    <path d="M-1.4 -12.95 L-1.4 2.5" fill="none" stroke="#000000" stroke-linecap="butt" stroke-linejoin="miter" stroke-width="2.0"/>
    <path d="M-12.9 -8.15 L-12.9 2.0" fill="none" stroke="#000000" stroke-linecap="butt" stroke-linejoin="miter" stroke-width="2.0"/>
    <path d="M9.55 -9.75 L9.55 2.8" fill="none" stroke="#000000" stroke-linecap="butt" stroke-linejoin="miter" stroke-width="2.0"/>
    <path d="M26.1 14.5 L-25.85 14.5 -25.85 2.95 26.1 2.95 26.1 14.5" fill="#000000" fill-rule="evenodd" stroke="none"/>
    <path d="M13.75 7.2 L25.45 1.9 30.8 9.95 28.1 14.9 -28.35 14.9 -29.8 8.35 -22.9 -1.5 13.75 7.2" fill="#000000" fill-rule="evenodd" stroke="none"/>
    <path d="M-23.0 11.0 Q-23.0 12.65 -24.15 13.75 -25.35 14.9 -27.0 14.9 -28.65 14.9 -29.8 13.75 -31.0 12.65 -31.0 11.0 -31.0 9.4 -29.8 8.3 -28.65 7.15 -27.0 7.15 -25.35 7.15 -24.15 8.3 -23.0 9.4 -23.0 11.0" fill="#000000" fill-rule="evenodd" stroke="none"/>
    <path d="M31.0 11.15 Q31.0 12.75 29.85 13.9 28.7 15.0 27.05 15.0 25.4 15.0 24.25 13.9 23.1 12.75 23.1 11.15 23.1 9.55 24.25 8.45 25.4 7.3 27.05 7.3 28.7 7.3 29.85 8.45 31.0 9.55 31.0 11.15" fill="#000000" fill-rule="evenodd" stroke="none"/>
  </g>
</svg>
