<?xml version="1.0" encoding="UTF-8" standalone="no"?>
<svg xmlns:xlink="http://www.w3.org/1999/xlink" height="10.7px" width="14.2px" xmlns="http://www.w3.org/2000/svg">
  <g transform="matrix(1.0, 0.0, 0.0, 1.0, 0.0, 0.0)">
    <path d="M13.15 0.0 Q14.2 1.95 14.2 3.55 14.2 6.5 12.1 8.6 10.0 10.7 7.05 10.7 4.4 10.7 2.4 9.0 0.4 7.3 0.0 4.75 L13.15 0.0 M10.5 6.8 Q10.9 6.35 10.9 5.75 10.9 5.15 10.5 4.75 10.05 4.3 9.45 4.3 8.85 4.3 8.45 4.75 8.0 5.15 8.0 5.75 8.0 6.35 8.45 6.8 8.85 7.2 9.45 7.2 10.05 7.2 10.5 6.8" fill="#ffffff" fill-rule="evenodd" stroke="none"/>
  </g>
</svg>
