<?xml version="1.0" encoding="UTF-8" standalone="no"?>
<svg xmlns:xlink="http://www.w3.org/1999/xlink" height="2.9px" width="34.65px" xmlns="http://www.w3.org/2000/svg">
  <g transform="matrix(1.0, 0.0, 0.0, 1.0, 16.65, 30.8)">
    <path d="M-16.2 -28.3 Q-16.65 -28.75 -16.65 -29.35 -16.65 -29.95 -16.2 -30.35 -15.8 -30.8 -15.2 -30.8 -14.6 -30.8 -14.15 -30.35 -13.75 -29.95 -13.75 -29.35 -13.75 -28.75 -14.15 -28.3 -14.6 -27.9 -15.2 -27.9 -15.8 -27.9 -16.2 -28.3" fill="#000000" fill-rule="evenodd" stroke="none"/>
    <path d="M16.55 -30.8 Q17.15 -30.8 17.6 -30.35 18.0 -29.95 18.0 -29.35 18.0 -28.75 17.6 -28.3 17.15 -27.9 16.55 -27.9 15.95 -27.9 15.55 -28.3 15.1 -28.75 15.1 -29.35 15.1 -29.95 15.55 -30.35 15.95 -30.8 16.55 -30.8" fill="#000000" fill-rule="evenodd" stroke="none"/>
  </g>
</svg>
