<?xml version="1.0" encoding="UTF-8" standalone="no"?>
<svg xmlns:xlink="http://www.w3.org/1999/xlink" height="33.25px" width="27.85px" xmlns="http://www.w3.org/2000/svg">
  <g transform="matrix(1.0, 0.0, 0.0, 1.0, 0.0, 0.0)">
    <path d="M6.2 9.9 Q5.25 9.9 4.55 10.6 3.85 11.3 3.85 12.3 3.85 13.3 4.55 14.0 5.25 14.7 6.2 14.7 7.2 14.7 7.9 14.0 8.6 13.3 8.6 12.3 8.6 11.3 7.9 10.6 7.2 9.9 6.2 9.9 M23.4 22.75 Q23.0 22.75 22.7 23.0 17.2 27.95 10.7 26.1 7.4 25.15 4.95 23.0 L4.25 22.75 Q3.85 22.8 3.6 23.1 3.35 23.35 3.35 23.75 L3.7 24.45 Q6.3 26.75 10.1 27.85 17.7 30.1 24.0 24.45 L24.3 23.75 24.05 23.1 Q23.8 22.8 23.4 22.75 M25.55 2.15 Q27.85 4.3 27.85 7.35 L27.85 25.9 Q27.85 28.95 25.55 31.1 23.2 33.25 19.9 33.25 L8.0 33.25 Q4.7 33.25 2.35 31.1 0.0 28.95 0.0 25.9 L0.0 7.35 Q0.0 4.3 2.35 2.15 4.7 0.0 8.0 0.0 L19.9 0.0 Q23.2 0.0 25.55 2.15 M22.65 10.6 Q21.95 9.9 21.0 9.9 20.0 9.9 19.3 10.6 18.6 11.3 18.6 12.3 18.6 13.3 19.3 14.0 20.0 14.7 21.0 14.7 21.95 14.7 22.65 14.0 23.35 13.3 23.35 12.3 23.35 11.3 22.65 10.6" fill="#ffffff" fill-rule="evenodd" stroke="none"/>
  </g>
</svg>
