<?xml version="1.0" encoding="UTF-8" standalone="no"?>
<svg xmlns:xlink="http://www.w3.org/1999/xlink" height="39.15px" width="39.55px" xmlns="http://www.w3.org/2000/svg">
  <g transform="matrix(1.0, 0.0, 0.0, 1.0, 0.0, 0.0)">
    <path d="M17.1 30.4 Q16.55 30.4 16.1 30.8 15.7 31.2 15.7 31.8 15.7 32.35 16.1 32.8 16.55 33.2 17.1 33.2 L22.15 33.2 Q22.7 33.2 23.15 32.8 23.55 32.35 23.55 31.8 23.55 31.2 23.15 30.8 22.7 30.4 22.15 30.4 L17.1 30.4 M20.75 17.7 L29.1 19.0 35.0 25.6 37.9 22.7 39.55 39.15 0.0 39.15 3.8 0.0 9.7 0.0 Q9.35 0.6 9.35 1.25 9.35 2.35 10.15 3.1 10.9 3.85 12.0 3.85 13.1 3.85 13.85 3.1 14.6 2.35 14.6 1.25 14.6 0.6 14.25 0.0 L17.5 0.0 17.5 11.0 20.75 17.7 M29.5 24.65 Q30.0 24.65 30.3 24.2 30.65 23.75 30.65 23.1 30.65 22.45 30.3 21.95 30.0 21.5 29.5 21.5 L8.15 21.5 Q7.65 21.5 7.35 21.95 7.0 22.45 7.0 23.1 7.0 23.75 7.35 24.2 7.65 24.65 8.15 24.65 L29.5 24.65" fill="#ffffff" fill-rule="evenodd" stroke="none"/>
  </g>
</svg>
