<?xml version="1.0" encoding="UTF-8" standalone="no"?>
<svg xmlns:xlink="http://www.w3.org/1999/xlink" height="39.1px" width="28.0px" xmlns="http://www.w3.org/2000/svg">
  <g transform="matrix(1.0, 0.0, 0.0, 1.0, 12.0, 42.45)">
    <path d="M10.5 -15.05 L11.3 -14.6 11.65 -13.45 Q11.65 -12.8 11.3 -12.35 11.0 -11.9 10.5 -11.9 L-10.85 -11.9 Q-11.35 -11.9 -11.65 -12.35 -12.0 -12.8 -12.0 -13.45 -12.0 -14.1 -11.65 -14.6 -11.35 -15.05 -10.85 -15.05 L10.5 -15.05" fill="#000000" fill-rule="evenodd" stroke="none"/>
    <path d="M8.95 -36.95 Q8.3 -36.95 7.8 -36.45 7.3 -35.95 7.3 -35.3 7.3 -34.65 7.8 -34.15 8.25 -33.7 8.95 -33.7 9.65 -33.7 10.1 -34.15 10.55 -34.6 10.55 -35.3 10.55 -36.0 10.1 -36.45 9.6 -36.95 8.95 -36.95 M13.95 -40.4 Q16.0 -38.3 16.0 -35.4 16.0 -32.45 13.95 -30.4 11.9 -28.35 8.95 -28.35 6.05 -28.35 3.95 -30.4 1.9 -32.45 1.9 -35.4 1.9 -38.3 3.95 -40.4 6.05 -42.45 8.95 -42.45 11.9 -42.45 13.95 -40.4" fill="#000000" fill-rule="evenodd" stroke="none"/>
    <path d="M4.55 -4.75 Q4.55 -4.2 4.15 -3.75 3.7 -3.35 3.15 -3.35 L-1.9 -3.35 Q-2.45 -3.35 -2.9 -3.75 -3.3 -4.2 -3.3 -4.75 -3.3 -5.35 -2.9 -5.75 -2.45 -6.15 -1.9 -6.15 L3.15 -6.15 Q3.7 -6.15 4.15 -5.75 4.55 -5.35 4.55 -4.75" fill="#000000" fill-rule="evenodd" stroke="none"/>
    <path d="M8.95 -33.7 Q8.25 -33.7 7.8 -34.15 7.3 -34.65 7.3 -35.3 7.3 -35.95 7.8 -36.45 8.3 -36.95 8.95 -36.95 9.6 -36.95 10.1 -36.45 10.55 -36.0 10.55 -35.3 10.55 -34.6 10.1 -34.15 9.65 -33.7 8.95 -33.7" fill="#ffffff" fill-rule="evenodd" stroke="none"/>
  </g>
</svg>
