<?xml version="1.0" encoding="UTF-8" standalone="no"?>
<svg xmlns:xlink="http://www.w3.org/1999/xlink" height="6.95px" width="29.95px" xmlns="http://www.w3.org/2000/svg">
  <g transform="matrix(1.0, 0.0, 0.0, 1.0, 4.25, -12.4)">
    <path d="M15.3 13.2 L15.3 15.2 Q15.3 15.65 15.65 16.0 15.95 16.3 16.4 16.3 L17.2 16.0 17.5 15.2 17.5 13.0 21.1 12.75 21.1 15.2 Q21.1 15.65 21.45 16.0 21.75 16.3 22.2 16.3 22.65 16.3 23.0 16.0 L23.3 15.2 23.3 12.6 25.7 12.4 25.05 19.35 -3.75 19.35 -4.25 14.65 -2.1 14.5 -2.1 15.2 -1.75 16.0 -1.0 16.3 Q-0.55 16.3 -0.2 16.0 L0.1 15.2 0.1 14.3 3.7 14.05 3.7 15.2 Q3.7 15.65 4.05 16.0 4.35 16.3 4.8 16.3 L5.6 16.0 5.9 15.2 5.9 13.9 9.5 13.6 9.5 15.2 Q9.5 15.65 9.85 16.0 10.15 16.3 10.6 16.3 L11.4 16.0 11.7 15.2 11.7 13.45 15.3 13.2" fill="#ffffff" fill-rule="evenodd" stroke="none"/>
  </g>
</svg>
