<?xml version="1.0" encoding="UTF-8" standalone="no"?>
<svg xmlns:xlink="http://www.w3.org/1999/xlink" height="79.85px" width="46.05px" xmlns="http://www.w3.org/2000/svg">
  <g transform="matrix(1.0, 0.0, 0.0, 1.0, 0.0, 0.0)">
    <path d="M22.0 71.15 L26.0 69.75 29.45 71.4 26.0 61.6 22.0 71.15 M15.9 44.75 Q15.45 44.75 15.15 45.1 14.8 45.4 14.8 45.85 14.8 46.3 15.15 46.6 15.45 46.9 15.9 46.9 L34.65 46.9 35.45 46.6 35.75 45.85 35.45 45.1 Q35.1 44.75 34.65 44.75 L15.9 44.75 M15.15 40.25 Q15.45 40.55 15.9 40.55 L34.65 40.55 35.45 40.25 35.75 39.45 35.45 38.7 Q35.1 38.35 34.65 38.35 L15.9 38.35 Q15.45 38.35 15.15 38.7 14.8 39.0 14.8 39.45 14.8 39.9 15.15 40.25 M15.15 32.3 Q14.8 32.6 14.8 33.05 14.8 33.5 15.15 33.85 15.45 34.15 15.9 34.15 L34.65 34.15 35.45 33.85 35.75 33.05 35.45 32.3 Q35.1 32.0 34.65 32.0 L15.9 32.0 Q15.45 32.0 15.15 32.3 M46.05 0.05 L46.0 0.35 40.8 55.15 8.7 55.15 Q7.75 55.15 7.1 55.8 6.45 56.5 6.45 57.45 6.45 58.4 7.1 59.05 7.75 59.7 8.7 59.7 L11.4 59.7 Q10.9 60.75 10.9 62.15 10.9 64.7 12.7 66.5 14.5 68.3 17.05 68.3 19.6 68.3 21.4 66.5 23.2 64.7 23.2 62.15 23.2 60.75 22.7 59.7 L29.15 59.7 Q28.65 60.95 28.65 62.15 28.65 64.7 30.45 66.5 32.25 68.3 34.8 68.3 37.9 68.3 39.75 65.8 L38.4 79.85 35.55 79.8 35.55 77.35 35.25 76.6 Q34.9 76.25 34.45 76.25 34.0 76.25 33.7 76.6 33.35 76.9 33.35 77.35 L33.35 79.8 29.75 79.75 29.75 77.35 29.45 76.6 Q29.1 76.25 28.65 76.25 28.2 76.25 27.9 76.6 27.55 76.9 27.55 77.35 L27.55 79.75 23.95 79.7 23.95 77.35 23.65 76.6 Q23.3 76.25 22.85 76.25 22.4 76.25 22.1 76.6 21.75 76.9 21.75 77.35 L21.75 79.7 18.15 79.65 18.15 77.35 17.85 76.6 Q17.5 76.25 17.05 76.25 16.6 76.25 16.3 76.6 15.95 76.9 15.95 77.35 L15.95 79.6 12.35 79.6 12.35 77.35 12.05 76.6 Q11.7 76.25 11.25 76.25 10.8 76.25 10.5 76.6 10.15 76.9 10.15 77.35 L10.15 79.55 7.2 79.55 0.0 11.1 7.3 50.0 Q7.4 50.45 7.75 50.7 8.1 51.0 8.55 50.9 L9.25 50.45 9.4 49.6 0.1 0.0 46.05 0.05" fill="#ffffff" fill-rule="evenodd" stroke="none"/>
  </g>
</svg>
