<?xml version="1.0" encoding="UTF-8" standalone="no"?>
<svg xmlns:xlink="http://www.w3.org/1999/xlink" height="38.0px" width="37.95px" xmlns="http://www.w3.org/2000/svg">
  <g transform="matrix(1.0, 0.0, 0.0, 1.0, 0.0, 0.0)">
    <path d="M19.1 29.95 Q13.65 29.95 9.3 32.25 5.05 34.45 3.55 38.0 L0.0 38.0 0.0 0.0 37.95 0.0 37.95 38.0 34.65 38.0 Q33.15 34.45 28.9 32.25 24.55 29.95 19.1 29.95 M11.3 11.2 Q11.3 10.2 10.6 9.5 9.9 8.8 8.9 8.8 7.9 8.8 7.15 9.5 6.45 10.2 6.45 11.2 6.45 12.2 7.15 12.95 7.9 13.65 8.9 13.65 9.9 13.65 10.6 12.95 11.3 12.2 11.3 11.2 M24.35 19.0 L23.95 18.2 Q21.25 16.0 17.95 16.4 15.5 16.7 13.7 18.2 13.3 18.5 13.25 19.0 13.2 19.45 13.55 19.8 L14.3 20.25 15.15 20.0 17.55 18.8 Q20.25 18.1 22.5 20.0 22.85 20.3 23.3 20.25 23.8 20.2 24.1 19.85 L24.35 19.0 M31.2 11.2 Q31.2 10.2 30.5 9.5 29.8 8.8 28.8 8.8 27.8 8.8 27.05 9.5 26.35 10.2 26.35 11.2 26.35 12.2 27.05 12.95 27.8 13.65 28.8 13.65 29.8 13.65 30.5 12.95 31.2 12.2 31.2 11.2" fill="#ffffff" fill-rule="evenodd" stroke="none"/>
  </g>
</svg>
