<?xml version="1.0" encoding="UTF-8" standalone="no"?>
<svg xmlns:xlink="http://www.w3.org/1999/xlink" height="39.3px" width="32.2px" xmlns="http://www.w3.org/2000/svg">
  <g transform="matrix(1.0, 0.0, 0.0, 1.0, 0.0, 0.0)">
    <path d="M15.9 16.4 Q11.7 16.4 8.7 19.35 5.7 22.3 5.7 26.4 5.7 30.5 8.7 33.45 11.7 36.35 15.9 36.35 20.15 36.35 23.1 33.45 26.1 30.55 26.1 26.4 26.1 22.25 23.1 19.35 20.15 16.4 15.9 16.4 M21.95 0.75 Q25.45 -0.9 30.5 1.15 32.2 6.65 32.2 12.95 32.2 23.85 27.5 31.55 22.75 39.3 16.1 39.3 9.45 39.3 4.7 31.55 0.0 23.85 0.0 12.95 L0.25 8.1 6.1 8.1 Q5.3 8.8 5.3 10.0 5.3 11.1 6.1 11.85 6.85 12.65 7.95 12.65 9.05 12.65 9.85 11.85 10.65 11.1 10.65 10.0 10.65 8.85 9.8 8.1 L16.75 8.1 17.1 6.95 Q17.4 5.85 18.15 4.5 19.65 1.9 21.95 0.75 M24.7 3.55 Q22.5 3.55 20.9 5.1 19.35 6.7 19.35 8.9 19.35 11.15 20.9 12.75 22.5 14.3 24.7 14.3 26.95 14.3 28.55 12.75 30.1 11.15 30.1 8.9 30.1 6.7 28.55 5.1 26.95 3.55 24.7 3.55" fill="#ffffff" fill-rule="evenodd" stroke="none"/>
  </g>
</svg>
