<?xml version="1.0" encoding="UTF-8" standalone="no"?>
<svg xmlns:xlink="http://www.w3.org/1999/xlink" height="21.4px" width="50.6px" xmlns="http://www.w3.org/2000/svg">
  <g transform="matrix(1.0, 0.0, 0.0, 1.0, 0.0, 0.0)">
    <path d="M17.55 7.6 L11.8 4.8 6.5 8.4 7.0 14.8 12.75 17.6 18.05 13.95 17.55 7.6 M25.55 4.8 L20.25 8.4 20.75 14.8 26.5 17.6 31.8 13.95 31.3 7.6 25.55 4.8 M45.55 13.95 L45.1 7.95 Q48.9 12.25 50.6 18.4 L46.95 16.65 41.65 20.25 41.75 21.4 38.65 21.4 38.5 19.4 32.7 16.65 27.45 20.25 27.5 21.4 24.9 21.4 24.75 19.4 18.95 16.65 13.7 20.25 13.75 21.4 10.85 21.4 10.65 19.4 4.9 16.65 0.0 20.0 0.8 16.15 4.0 13.95 3.65 9.8 Q4.7 8.25 6.05 6.8 9.1 3.65 13.65 1.9 L13.7 2.7 19.5 5.45 24.75 1.85 24.65 0.0 26.35 0.0 26.55 2.7 32.35 5.45 37.1 2.2 Q41.45 4.0 44.55 7.3 L39.3 4.8 34.0 8.4 34.5 14.8 40.25 17.6 45.55 13.95" fill="#ffffff" fill-rule="evenodd" stroke="none"/>
  </g>
</svg>
