<?xml version="1.0" encoding="UTF-8" standalone="no"?>
<svg xmlns:xlink="http://www.w3.org/1999/xlink" height="38.85px" width="25.95px" xmlns="http://www.w3.org/2000/svg">
  <g transform="matrix(1.0, 0.0, 0.0, 1.0, 0.0, 0.0)">
    <path d="M23.65 3.6 Q25.95 6.65 25.95 12.15 25.95 15.0 25.25 18.75 21.35 18.3 18.75 19.75 15.75 21.45 14.75 25.55 14.6 26.25 15.05 26.8 15.45 27.35 16.15 27.35 L18.5 27.35 Q16.5 31.35 13.2 34.15 8.2 38.4 1.2 38.85 1.2 38.15 0.65 37.7 L0.0 37.15 1.4 36.45 Q3.2 34.95 4.95 32.35 8.4 27.1 8.4 21.3 L8.3 19.7 Q11.0 19.0 12.7 16.8 14.45 14.55 14.45 11.7 14.45 8.85 12.7 6.65 11.0 4.4 8.3 3.7 9.95 1.6 12.55 0.35 L12.95 0.2 13.95 0.05 16.25 0.05 16.3 0.05 Q21.25 0.35 23.65 3.6 M23.7 12.7 L24.05 8.2 21.75 12.7 23.7 12.7" fill="#ffffff" fill-rule="evenodd" stroke="none"/>
  </g>
</svg>
