<?xml version="1.0" encoding="UTF-8" standalone="no"?>
<svg xmlns:xlink="http://www.w3.org/1999/xlink" height="37.3px" width="36.75px" xmlns="http://www.w3.org/2000/svg">
  <g transform="matrix(1.0, 0.0, 0.0, 1.0, -1.9, 10.75)">
    <path d="M23.25 -5.3 Q22.65 -5.3 22.25 -5.7 21.8 -6.15 21.8 -6.75 21.8 -7.35 22.25 -7.8 22.65 -8.25 23.25 -8.25 23.85 -8.25 24.3 -7.8 24.7 -7.35 24.7 -6.75 24.7 -6.15 24.3 -5.7 23.85 -5.3 23.25 -5.3" fill="#000000" fill-rule="evenodd" stroke="none"/>
    <path d="M1.9 20.75 L9.5 20.75 9.5 26.55 1.9 26.55 1.9 20.75" fill="#ffffff" fill-rule="evenodd" stroke="none"/>
    <path d="M38.65 -10.75 L38.3 -6.25 36.35 -6.25 38.65 -10.75" fill="#000000" fill-rule="evenodd" stroke="none"/>
  </g>
</svg>
