<?xml version="1.0" encoding="UTF-8" standalone="no"?>
<svg xmlns:xlink="http://www.w3.org/1999/xlink" height="99.95px" width="47.1px" xmlns="http://www.w3.org/2000/svg">
  <g transform="matrix(1.0, 0.0, 0.0, 1.0, 23.55, 49.95)">
    <path d="M4.45 42.45 L4.45 36.85 19.35 36.85 20.05 42.45 4.45 42.45" fill="#ffffff" fill-rule="evenodd" stroke="none"/>
    <path d="M-16.9 34.6 L-16.9 18.8 10.85 18.8 Q16.7 25.7 18.85 34.6 L-16.9 34.6" fill="#ffffff" fill-rule="evenodd" stroke="none"/>
    <path d="M-16.9 42.45 L-16.9 36.85 2.6 36.85 2.6 42.45 -16.9 42.45" fill="#ffffff" fill-rule="evenodd" stroke="none"/>
    <path d="M-3.7 3.6 L-5.05 3.65 Q-5.75 3.95 -6.0 4.65 -6.25 5.3 -5.95 6.0 -5.65 6.7 -4.95 6.95 2.8 9.95 11.2 9.95 L9.1 15.25 -16.85 15.25 -19.45 -37.3 -12.45 -29.2 -10.85 -38.85 -6.35 -30.3 -1.7 -40.3 2.35 -29.0 6.55 -39.2 9.35 -30.75 14.25 -37.65 14.25 -22.35 13.55 -22.4 Q11.65 -22.4 9.9 -21.55 8.25 -20.7 7.15 -19.2 4.75 -22.4 0.8 -22.4 -2.5 -22.4 -4.85 -20.05 -7.2 -17.7 -7.2 -14.4 -7.2 -11.1 -4.85 -8.75 -2.5 -6.4 0.8 -6.4 3.8 -6.4 6.2 -8.55 6.2 -7.85 6.7 -7.35 7.2 -6.9 7.9 -6.9 L14.8 -6.9 Q15.9 -6.65 15.9 -5.35 15.9 -3.8 14.4 -2.45 L8.55 -2.45 Q7.85 -2.45 7.3 -1.95 6.8 -1.45 6.8 -0.75 6.8 -0.05 7.3 0.45 7.85 0.95 8.55 0.95 L14.6 0.95 15.0 2.6 14.25 6.25 Q5.05 6.95 -3.7 3.6" fill="#ffffff" fill-rule="evenodd" stroke="none"/>
    <path d="M19.35 36.85 L4.45 36.85 4.45 42.45 20.05 42.45 19.35 36.85 M10.45 -18.95 Q9.1 -18.0 8.5 -16.5 L8.8 -14.4 8.5 -12.3 Q8.9 -11.3 9.95 -10.3 L15.15 -10.3 15.25 -10.25 16.55 -9.85 Q19.0 -11.5 19.0 -14.4 19.0 -16.7 17.4 -18.3 15.8 -19.9 13.55 -19.9 11.85 -19.9 10.45 -18.95 M-16.9 18.8 L-16.9 34.6 18.85 34.6 Q16.7 25.7 10.85 18.8 L-16.9 18.8 M-16.9 36.85 L-16.9 42.45 2.6 42.45 2.6 36.85 -16.9 36.85 M-3.05 -18.3 Q-4.7 -16.7 -4.7 -14.4 -4.7 -12.15 -3.05 -10.55 -1.45 -8.95 0.8 -8.95 3.05 -8.95 4.65 -10.55 6.25 -12.15 6.25 -14.4 6.25 -16.7 4.65 -18.3 3.05 -19.9 0.8 -19.9 -1.45 -19.9 -3.05 -18.3 M-7.2 -14.4 Q-7.2 -17.7 -4.85 -20.05 -2.5 -22.4 0.8 -22.4 4.75 -22.4 7.15 -19.2 8.25 -20.7 9.9 -21.55 11.65 -22.4 13.55 -22.4 L14.25 -22.35 14.25 -37.65 9.35 -30.75 6.55 -39.2 2.35 -29.0 -1.7 -40.3 -6.35 -30.3 -10.85 -38.85 -12.45 -29.2 -19.45 -37.3 -16.85 15.25 9.1 15.25 11.2 9.95 Q2.8 9.95 -4.95 6.95 -5.65 6.7 -5.95 6.0 -6.25 5.3 -6.0 4.65 -5.75 3.95 -5.05 3.65 L-3.7 3.6 Q5.05 6.95 14.25 6.25 L15.85 6.05 14.6 0.95 8.55 0.95 Q7.85 0.95 7.3 0.45 6.8 -0.05 6.8 -0.75 6.8 -1.45 7.3 -1.95 7.85 -2.45 8.55 -2.45 L14.4 -2.45 Q15.9 -3.8 15.9 -5.35 15.9 -6.65 14.8 -6.9 L7.9 -6.9 Q7.2 -6.9 6.7 -7.35 6.2 -7.85 6.2 -8.55 3.8 -6.4 0.8 -6.4 -2.5 -6.4 -4.85 -8.75 -7.2 -11.1 -7.2 -14.4 M2.6 -38.95 L6.9 -49.4 10.55 -38.55 17.8 -48.8 17.85 -21.15 Q19.55 -20.05 20.5 -18.3 21.5 -16.5 21.5 -14.4 21.5 -10.55 18.5 -8.2 19.3 -7.0 19.3 -5.35 19.3 -3.2 17.8 -1.1 L20.2 8.85 18.45 9.25 15.15 9.75 12.7 15.8 Q20.75 24.75 22.9 37.2 23.95 43.55 23.35 48.55 L23.15 50.0 -20.25 50.0 -20.25 18.8 -23.55 -47.45 -14.7 -37.3 -12.65 -49.95 -6.55 -38.35 -1.25 -49.7 2.6 -38.95" fill="#000000" fill-rule="evenodd" stroke="none"/>
  </g>
</svg>
