<?xml version="1.0" encoding="UTF-8" standalone="no"?>
<svg xmlns:xlink="http://www.w3.org/1999/xlink" height="94.0px" width="52.0px" xmlns="http://www.w3.org/2000/svg">
  <g transform="matrix(1.0, 0.0, 0.0, 1.0, 26.0, 47.0)">
    <path d="M26.0 47.0 L-26.0 47.0 -21.1 -47.0 22.05 -47.0 26.0 47.0" fill="#000000" fill-rule="evenodd" stroke="none"/>
    <path d="M12.05 -26.35 L12.05 10.4 -11.65 10.4 -11.65 -26.35 12.05 -26.35" fill="#ffffff" fill-rule="evenodd" stroke="none"/>
    <path d="M0.0 -23.4 L0.0 13.4" fill="none" stroke="#000000" stroke-linecap="butt" stroke-linejoin="miter" stroke-width="2.25"/>
    <path d="M8.3 -17.55 Q8.3 -16.4 7.45 -15.55 6.6 -14.75 5.45 -14.75 4.3 -14.75 3.45 -15.55 2.6 -16.4 2.6 -17.55 2.6 -18.7 3.45 -19.55 4.3 -20.35 5.45 -20.35 6.6 -20.35 7.45 -19.55 8.3 -18.7 8.3 -17.55" fill="#000000" fill-rule="evenodd" stroke="none"/>
    <path d="M8.3 -6.7 Q8.3 -5.55 7.45 -4.7 6.6 -3.85 5.45 -3.85 4.3 -3.85 3.45 -4.7 2.6 -5.55 2.6 -6.7 2.6 -7.85 3.45 -8.65 4.3 -9.45 5.45 -9.45 6.6 -9.45 7.45 -8.65 8.3 -7.85 8.3 -6.7" fill="#000000" fill-rule="evenodd" stroke="none"/>
  </g>
</svg>
