<?xml version="1.0" encoding="UTF-8" standalone="no"?>
<svg xmlns:xlink="http://www.w3.org/1999/xlink" height="10.95px" width="10.95px" xmlns="http://www.w3.org/2000/svg">
  <g transform="matrix(1.0, 0.0, 0.0, 1.0, 0.0, 0.0)">
    <path d="M5.5 0.0 Q7.75 0.0 9.35 1.6 10.95 3.2 10.95 5.5 10.95 7.75 9.35 9.35 7.75 10.95 5.5 10.95 3.25 10.95 1.65 9.35 0.0 7.75 0.0 5.5 0.0 3.2 1.65 1.6 3.25 0.0 5.5 0.0 M6.4 4.15 Q5.95 4.55 5.95 5.15 5.95 5.75 6.4 6.2 6.8 6.65 7.45 6.65 8.05 6.65 8.5 6.2 8.9 5.75 8.9 5.15 8.9 4.55 8.5 4.15 8.05 3.7 7.45 3.7 6.8 3.7 6.4 4.15" fill="#ffffff" fill-rule="evenodd" stroke="none"/>
  </g>
</svg>
