<?xml version="1.0" encoding="UTF-8" standalone="no"?>
<svg xmlns:xlink="http://www.w3.org/1999/xlink" height="2.95px" width="15.8px" xmlns="http://www.w3.org/2000/svg">
  <g transform="matrix(1.0, 0.0, 0.0, 1.0, -1.25, 16.2)">
    <path d="M1.7 -13.7 Q1.25 -14.15 1.25 -14.75 1.25 -15.35 1.7 -15.75 2.1 -16.2 2.75 -16.2 L3.8 -15.75 Q4.2 -15.35 4.2 -14.75 4.2 -14.15 3.8 -13.7 3.35 -13.25 2.75 -13.25 2.1 -13.25 1.7 -13.7" fill="#000000" fill-rule="evenodd" stroke="none"/>
    <path d="M15.55 -16.2 Q16.15 -16.2 16.6 -15.75 17.05 -15.35 17.05 -14.75 17.05 -14.15 16.6 -13.7 16.15 -13.25 15.55 -13.25 14.95 -13.25 14.55 -13.7 14.1 -14.15 14.1 -14.75 14.1 -15.35 14.55 -15.75 14.95 -16.2 15.55 -16.2" fill="#000000" fill-rule="evenodd" stroke="none"/>
  </g>
</svg>
