<?xml version="1.0" encoding="UTF-8" standalone="no"?>
<svg xmlns:xlink="http://www.w3.org/1999/xlink" height="8.6px" width="7.45px" xmlns="http://www.w3.org/2000/svg">
  <g transform="matrix(1.0, 0.0, 0.0, 1.0, 0.0, 0.0)">
    <path d="M6.2 1.25 Q7.45 2.55 7.45 4.3 7.45 6.05 6.2 7.35 4.95 8.6 3.15 8.6 1.35 8.6 0.0 7.15 0.7 5.85 0.7 4.3 0.7 2.75 0.0 1.45 1.3 0.0 3.15 0.0 4.95 0.0 6.2 1.25 M6.5 4.4 Q6.5 3.8 6.05 3.4 5.6 2.95 5.0 2.95 4.4 2.95 4.0 3.4 3.55 3.8 3.55 4.4 3.55 5.0 4.0 5.45 4.4 5.9 5.0 5.9 5.6 5.9 6.05 5.45 6.5 5.0 6.5 4.4" fill="#ffffff" fill-rule="evenodd" stroke="none"/>
  </g>
</svg>
