<?xml version="1.0" encoding="UTF-8" standalone="no"?>
<svg xmlns:xlink="http://www.w3.org/1999/xlink" height="15.6px" width="13.7px" xmlns="http://www.w3.org/2000/svg">
  <g transform="matrix(1.0, 0.0, 0.0, 1.0, 0.05, 0.0)">
    <path d="M10.8 0.6 Q13.1 1.9 13.55 4.9 14.05 7.9 12.4 10.9 10.5 14.4 7.1 15.35 4.8 16.05 2.85 14.95 1.0 14.0 0.3 11.55 -0.7 8.25 1.25 4.7 3.25 1.15 6.55 0.25 8.85 -0.4 10.8 0.6 M10.25 8.45 Q10.7 8.0 10.7 7.35 10.7 6.7 10.25 6.25 9.85 5.8 9.2 5.8 8.55 5.8 8.1 6.25 7.65 6.7 7.65 7.35 7.65 8.0 8.1 8.45 L9.2 8.9 Q9.85 8.9 10.25 8.45" fill="#ffffff" fill-rule="evenodd" stroke="none"/>
  </g>
</svg>
