<?xml version="1.0" encoding="UTF-8" standalone="no"?>
<svg xmlns:xlink="http://www.w3.org/1999/xlink" height="40.95px" width="56.45px" xmlns="http://www.w3.org/2000/svg">
  <g transform="matrix(1.0, 0.0, 0.0, 1.0, 0.0, 0.0)">
    <path d="M32.9 32.05 Q32.9 30.95 31.9 30.2 30.9 29.4 29.5 29.4 28.1 29.4 27.1 30.2 26.1 30.95 26.1 32.05 26.1 33.15 27.1 33.9 28.1 34.7 29.5 34.7 30.9 34.7 31.9 33.9 32.9 33.15 32.9 32.05 M55.9 7.2 Q56.45 10.05 56.45 12.7 56.45 24.35 48.2 32.65 39.9 40.95 28.2 40.95 16.55 40.95 8.25 32.65 0.0 24.35 0.0 12.7 0.0 8.9 1.0 5.2 11.15 1.25 22.45 0.25 41.75 -1.4 55.9 7.2 M49.4 29.3 L48.3 28.25 Q43.5 33.25 36.3 36.25 32.5 37.8 29.4 38.35 22.1 38.0 15.15 34.0 L9.6 30.05 8.6 31.15 14.5 35.4 Q21.65 39.45 29.4 39.85 L29.55 39.85 36.55 37.75 Q44.2 34.7 49.4 29.3 M41.55 20.85 Q44.15 19.45 45.0 16.4 46.2 12.3 43.9 8.15 41.6 4.0 37.5 2.8 34.4 1.95 31.85 3.35 29.8 4.5 28.8 6.75 27.85 4.5 25.75 3.35 23.25 1.9 20.15 2.8 16.05 4.0 13.75 8.15 11.45 12.3 12.65 16.4 13.5 19.45 16.1 20.85 18.55 22.3 21.75 21.4 25.85 20.2 28.1 16.05 L28.8 14.5 29.55 16.05 Q31.8 20.2 35.9 21.4 39.1 22.3 41.55 20.85" fill="#ffffff" fill-rule="evenodd" stroke="none"/>
  </g>
</svg>
