<?xml version="1.0" encoding="UTF-8" standalone="no"?>
<svg xmlns:xlink="http://www.w3.org/1999/xlink" height="37.4px" width="40.8px" xmlns="http://www.w3.org/2000/svg">
  <g transform="matrix(1.0, 0.0, 0.0, 1.0, 19.3, 12.6)">
    <path d="M21.5 14.25 Q16.3 19.65 8.65 22.7 L1.65 24.8 1.5 24.8 Q-6.25 24.4 -13.4 20.35 L-19.3 16.1 -18.3 15.0 -12.75 18.95 Q-5.8 22.95 1.5 23.3 4.6 22.75 8.4 21.2 15.6 18.2 20.4 13.2 L21.5 14.25" fill="#000000" fill-rule="evenodd" stroke="none"/>
    <path d="M5.0 17.0 Q5.0 18.1 4.0 18.85 3.0 19.65 1.6 19.65 0.2 19.65 -0.8 18.85 -1.8 18.1 -1.8 17.0 -1.8 15.9 -0.8 15.15 0.2 14.35 1.6 14.35 3.0 14.35 4.0 15.15 5.0 15.9 5.0 17.0" fill="#000000" fill-rule="evenodd" stroke="none"/>
    <path d="M-4.6 -4.95 Q-3.95 -4.95 -3.55 -4.5 -3.1 -4.05 -3.1 -3.4 -3.1 -2.75 -3.55 -2.3 -3.95 -1.85 -4.6 -1.85 -5.25 -1.85 -5.7 -2.3 -6.15 -2.75 -6.15 -3.4 -6.15 -4.05 -5.7 -4.5 -5.25 -4.95 -4.6 -4.95" fill="#000000" fill-rule="evenodd" stroke="none"/>
    <path d="M4.85 -3.4 Q4.85 -4.05 5.3 -4.5 5.75 -4.95 6.4 -4.95 7.05 -4.95 7.45 -4.5 7.9 -4.05 7.9 -3.4 7.9 -2.75 7.45 -2.3 7.05 -1.85 6.4 -1.85 5.75 -1.85 5.3 -2.3 4.85 -2.75 4.85 -3.4" fill="#000000" fill-rule="evenodd" stroke="none"/>
    <path d="M2.1 -5.85 Q1.6 -2.85 3.25 0.15 5.15 3.65 8.5 4.6 10.85 5.3 12.8 4.2 14.65 3.2 15.35 0.8 16.3 -2.5 14.4 -6.05 12.4 -9.6 9.1 -10.5 6.8 -11.15 4.85 -10.15 2.55 -8.85 2.1 -5.85 M-15.25 1.35 Q-16.45 -2.75 -14.15 -6.9 -11.85 -11.05 -7.75 -12.25 -4.65 -13.15 -2.15 -11.7 -0.05 -10.55 0.9 -8.3 1.9 -10.55 3.95 -11.7 6.5 -13.1 9.6 -12.25 13.7 -11.05 16.0 -6.9 18.3 -2.75 17.1 1.35 16.25 4.4 13.65 5.8 11.2 7.25 8.0 6.35 3.9 5.15 1.65 1.0 L0.9 -0.55 0.2 1.0 Q-2.05 5.15 -6.15 6.35 -9.35 7.25 -11.8 5.8 -14.4 4.4 -15.25 1.35 M-12.55 -6.05 Q-14.5 -2.5 -13.5 0.8 -12.8 3.25 -10.95 4.2 -9.0 5.3 -6.7 4.6 -3.3 3.65 -1.4 0.15 0.25 -2.85 -0.25 -5.85 -0.7 -8.85 -3.0 -10.15 -4.95 -11.15 -7.25 -10.5 -10.55 -9.6 -12.55 -6.05" fill="#000000" fill-rule="evenodd" stroke="none"/>
  </g>
</svg>
