<?xml version="1.0" encoding="UTF-8" standalone="no"?>
<svg xmlns:xlink="http://www.w3.org/1999/xlink" height="39.95px" width="80.5px" xmlns="http://www.w3.org/2000/svg">
  <g transform="matrix(1.0, 0.0, 0.0, 1.0, 39.9, 35.8)">
    <path d="M-24.45 -35.25 Q-22.9 -34.45 -22.1 -31.75 -21.5 -29.9 -21.45 -28.0 -28.2 -22.9 -30.8 -15.8 -34.55 -14.8 -36.65 -16.2 -38.8 -17.6 -38.8 -21.9 L-38.8 -22.6 Q-38.8 -28.25 -39.9 -31.55 -34.95 -31.15 -31.5 -33.4 -26.95 -36.55 -24.45 -35.25" fill="#ffffff" fill-rule="evenodd" stroke="none"/>
    <path d="M31.55 -34.35 Q35.3 -32.55 40.15 -33.7 39.9 -32.3 39.9 -30.45 39.9 -27.65 40.45 -24.15 L40.6 -22.1 Q40.6 -19.4 39.15 -18.05 L38.45 -17.55 37.75 -17.2 32.55 -16.95 Q29.5 -24.05 22.35 -28.95 22.25 -33.65 24.35 -35.15 26.6 -36.8 31.55 -34.35" fill="#ffffff" fill-rule="evenodd" stroke="none"/>
    <path d="M-12.15 -29.0 Q-5.95 -31.5 1.1 -31.5 L8.05 -30.85 Q0.0 -23.75 -10.1 -22.1 -16.35 -21.1 -22.35 -22.25 -18.2 -26.55 -12.15 -29.0" fill="#ffffff" fill-rule="evenodd" stroke="none"/>
    <path d="M26.3 -19.9 Q28.3 -17.3 29.3 -14.0 30.3 -10.7 30.0 -7.4 29.75 -4.1 28.3 -1.45 26.15 2.55 22.2 3.75 L17.6 3.95 Q20.8 3.45 22.95 0.95 25.1 -1.6 25.1 -5.0 25.1 -8.75 22.55 -11.4 20.0 -14.05 16.4 -14.05 12.75 -14.05 10.2 -11.4 7.65 -8.75 7.65 -5.0 L7.7 -4.4 Q7.1 -5.55 6.6 -7.2 4.8 -13.1 6.9 -18.3 8.95 -23.5 13.65 -24.95 17.6 -26.1 21.6 -23.95 24.25 -22.5 26.3 -19.9" fill="#ffffff" fill-rule="evenodd" stroke="none"/>
  </g>
</svg>
