<?xml version="1.0" encoding="UTF-8" standalone="no"?>
<svg xmlns:xlink="http://www.w3.org/1999/xlink" height="46.15px" width="53.25px" xmlns="http://www.w3.org/2000/svg">
  <g transform="matrix(1.0, 0.0, 0.0, 1.0, 0.0, 0.0)">
    <path d="M20.0 36.25 Q19.75 36.75 20.0 37.3 L21.4 39.25 Q23.3 41.1 26.15 41.3 28.7 41.5 30.55 39.85 31.95 38.6 32.45 36.95 L32.4 35.85 31.6 35.2 30.5 35.25 Q30.0 35.5 29.8 36.05 L28.95 37.45 Q27.9 38.65 26.3 38.5 24.6 38.4 23.4 37.35 L22.55 36.2 Q22.35 35.7 21.8 35.5 21.3 35.3 20.75 35.5 20.2 35.7 20.0 36.25 M53.25 32.65 Q49.6 38.75 42.5 42.4 35.2 46.15 26.5 46.15 17.95 46.15 10.7 42.5 3.7 38.95 0.0 33.0 2.15 34.95 4.85 35.8 9.55 37.2 14.25 34.65 17.25 33.05 19.5 30.15 21.7 27.25 22.8 23.6 23.85 20.15 23.55 15.9 23.25 11.7 21.8 8.65 29.45 6.05 35.95 0.0 40.35 1.15 43.85 3.25 L38.5 3.55 Q33.05 5.15 30.65 11.05 28.2 16.9 30.2 23.6 31.3 27.25 33.55 30.15 35.8 33.05 38.75 34.65 43.45 37.2 48.15 35.8 51.0 34.9 53.25 32.65" fill="#ffffff" fill-rule="evenodd" stroke="none"/>
  </g>
</svg>
