<?xml version="1.0" encoding="UTF-8" standalone="no"?>
<svg xmlns:xlink="http://www.w3.org/1999/xlink" height="64.65px" width="48.85px" xmlns="http://www.w3.org/2000/svg">
  <g transform="matrix(1.0, 0.0, 0.0, 1.0, 25.55, 34.8)">
    <path d="M-3.45 -9.7 Q-3.9 -9.7 -4.2 -10.0 L-4.5 -10.75 -4.2 -11.5 -3.45 -11.8 3.3 -11.8 Q3.75 -11.8 4.05 -11.5 L4.35 -10.75 Q4.35 -10.3 4.05 -10.0 3.75 -9.7 3.3 -9.7 L-3.45 -9.7" fill="#000000" fill-rule="evenodd" stroke="none"/>
    <path d="M-8.85 -12.85 L-9.65 -12.7 -10.3 -13.2 -10.4 -14.0 -9.95 -14.65 -8.2 -15.5 -3.9 -16.75 Q3.2 -18.0 10.1 -14.7 L10.65 -14.1 Q10.8 -13.65 10.6 -13.3 L10.0 -12.75 9.15 -12.8 Q2.95 -15.8 -3.45 -14.7 L-8.85 -12.85" fill="#000000" fill-rule="evenodd" stroke="none"/>
    <path d="M-9.25 -33.4 Q-7.75 -32.45 -6.95 -31.35 -6.1 -30.3 -6.45 -29.75 -6.8 -29.2 -8.1 -29.5 -9.4 -29.85 -10.9 -30.8 -12.4 -31.75 -13.25 -32.85 -14.1 -33.9 -13.75 -34.45 -13.4 -35.0 -12.1 -34.65 -10.8 -34.35 -9.25 -33.4" fill="#ffffff" fill-rule="evenodd" stroke="none"/>
    <path d="M10.45 -30.8 Q8.95 -29.85 7.65 -29.5 6.35 -29.2 6.0 -29.75 5.65 -30.25 6.45 -31.35 7.3 -32.4 8.8 -33.4 10.35 -34.35 11.65 -34.65 12.95 -35.0 13.3 -34.45 13.65 -33.9 12.8 -32.85 12.0 -31.75 10.45 -30.8" fill="#ffffff" fill-rule="evenodd" stroke="none"/>
    <path d="M0.35 29.85 L0.35 24.95 16.45 24.95 16.45 29.85 0.35 29.85" fill="#ffffff" fill-rule="evenodd" stroke="none"/>
    <path d="M-25.55 24.95 L-19.85 24.95 -19.85 29.85 -24.65 29.85 -25.55 24.95" fill="#ffffff" fill-rule="evenodd" stroke="none"/>
    <path d="M-18.25 24.95 L-1.25 24.95 -1.25 29.85 -18.25 29.85 -18.25 24.95" fill="#ffffff" fill-rule="evenodd" stroke="none"/>
    <path d="M18.0 24.95 L23.3 24.95 22.45 29.85 18.0 29.85 18.0 24.95" fill="#ffffff" fill-rule="evenodd" stroke="none"/>
    <path d="M-8.7 12.75 Q-12.35 10.9 -12.35 8.25 -12.35 5.6 -8.7 3.7 -5.05 1.85 0.1 1.85 5.3 1.85 8.9 3.7 12.55 5.6 12.55 8.25 12.55 10.9 8.9 12.75 5.25 14.65 0.1 14.65 -5.05 14.65 -8.7 12.75 M-0.1 4.45 L-1.3 2.6 -2.05 6.5 -5.9 6.6 -8.15 4.2 -8.15 12.6 -5.55 8.8 -3.35 10.9 -2.4 9.15 -0.2 13.7 -0.2 14.05 -0.1 13.9 -0.05 14.05 -0.05 13.7 2.2 9.15 3.1 10.9 5.3 8.8 7.9 12.6 7.9 4.2 5.7 6.6 1.8 6.5 1.1 2.6 -0.1 4.45" fill="#ffffff" fill-rule="evenodd" stroke="none"/>
    <path d="M-1.3 2.6 L-0.1 4.45 1.1 2.6 1.8 6.5 5.7 6.6 7.9 4.2 7.9 12.6 5.3 8.8 3.1 10.9 2.2 9.15 -0.05 13.7 -0.05 14.05 -0.1 13.9 -0.2 14.05 -0.2 13.7 -2.4 9.15 -3.35 10.9 -5.55 8.8 -8.15 12.6 -8.15 4.2 -5.9 6.6 -2.05 6.5 -1.3 2.6" fill="#000000" fill-rule="evenodd" stroke="none"/>
  </g>
</svg>
