<?xml version="1.0" encoding="UTF-8" standalone="no"?>
<svg xmlns:xlink="http://www.w3.org/1999/xlink" height="57.05px" width="54.45px" xmlns="http://www.w3.org/2000/svg">
  <g transform="matrix(1.0, 0.0, 0.0, 1.0, 27.5, 4.6)">
    <path d="M-2.45 42.6 L-2.45 48.35 -23.2 48.35 Q-24.5 45.6 -25.4 42.6 L-2.45 42.6" fill="#ffffff" fill-rule="evenodd" stroke="none"/>
    <path d="M-19.45 1.75 Q-16.6 -2.05 -13.25 -4.6 L-2.45 -4.6 -2.45 11.6 -24.65 11.6 Q-22.65 6.05 -19.45 1.75" fill="#ffffff" fill-rule="evenodd" stroke="none"/>
    <path d="M0.0 52.45 L0.0 52.35 20.45 52.35 20.4 52.45 0.0 52.45" fill="#ffffff" fill-rule="evenodd" stroke="none"/>
    <path d="M-21.05 52.35 L-2.45 52.35 -2.45 52.45 -21.0 52.45 -21.05 52.35" fill="#ffffff" fill-rule="evenodd" stroke="none"/>
    <path d="M-2.45 14.1 L-2.45 23.35 -27.25 23.35 Q-26.8 18.65 -25.5 14.1 L-2.45 14.1" fill="#ffffff" fill-rule="evenodd" stroke="none"/>
    <path d="M0.0 23.35 L0.0 14.1 24.9 14.1 Q26.25 18.45 26.7 23.35 L0.0 23.35" fill="#ffffff" fill-rule="evenodd" stroke="none"/>
    <path d="M-2.45 25.8 L-2.45 33.95 -27.2 33.95 -27.5 28.25 -27.45 25.8 -2.45 25.8" fill="#ffffff" fill-rule="evenodd" stroke="none"/>
    <path d="M0.0 33.95 L0.0 25.8 26.9 25.8 26.95 28.25 26.65 33.95 0.0 33.95" fill="#ffffff" fill-rule="evenodd" stroke="none"/>
    <path d="M0.0 48.35 L0.0 42.6 24.85 42.6 Q23.95 45.6 22.65 48.35 L0.0 48.35" fill="#ffffff" fill-rule="evenodd" stroke="none"/>
    <path d="M0.0 -4.6 L12.65 -4.6 Q20.25 1.0 24.1 11.6 L0.0 11.6 0.0 -4.6" fill="#ffffff" fill-rule="evenodd" stroke="none"/>
  </g>
</svg>
