<?xml version="1.0" encoding="UTF-8" standalone="no"?>
<svg xmlns:xlink="http://www.w3.org/1999/xlink" height="66.5px" width="95.8px" xmlns="http://www.w3.org/2000/svg">
  <g transform="matrix(1.0, 0.0, 0.0, 1.0, 48.0, 5.0)">
    <path d="M38.45 11.8 Q45.3 20.4 47.8 29.0 15.3 31.2 -4.95 19.05 -15.05 13.0 -18.7 6.5 -12.15 -1.0 -4.0 -3.75 0.05 -5.1 2.8 -5.0 24.7 -5.3 38.45 11.8" fill="#000000" fill-rule="evenodd" stroke="none"/>
    <path d="M-20.2 20.5 Q-29.7 34.0 -29.7 61.5 L-47.2 61.5 Q-47.9 57.35 -48.0 51.1 -48.15 38.65 -45.0 28.25 -34.9 -5.0 4.8 -5.0 L-10.7 12.5 Q-15.45 13.75 -20.2 20.5" fill="#000000" fill-rule="evenodd" stroke="none"/>
    <path d="M7.05 4.25 Q1.75 2.8 -3.3 2.35 L-7.3 2.15 Q11.4 -1.1 26.0 9.55 33.3 14.9 36.85 20.85 23.95 8.75 7.05 4.25" fill="#ffffff" fill-rule="evenodd" stroke="none"/>
    <path d="M21.0 7.05 Q10.55 1.3 -1.75 2.05 5.95 2.95 13.65 5.85 24.55 9.9 33.55 17.3 28.15 10.95 21.0 7.05 M37.3 20.55 L37.15 21.2 Q36.85 21.45 36.5 21.2 23.85 9.3 7.1 4.8 1.85 3.4 -3.2 2.9 L-7.3 2.65 -7.8 2.2 Q-7.8 1.75 -7.4 1.65 11.35 -1.6 26.15 9.1 33.55 14.45 37.3 20.55" fill="#ffffff" fill-rule="evenodd" stroke="none"/>
  </g>
</svg>
