<?xml version="1.0" encoding="UTF-8" standalone="no"?>
<svg xmlns:xlink="http://www.w3.org/1999/xlink" height="57.0px" width="75.0px" xmlns="http://www.w3.org/2000/svg">
  <g transform="matrix(1.0, 0.0, 0.0, 1.0, 37.0, 28.0)">
    <path d="M27.0 -17.0 Q38.0 -6.0 38.0 9.5 38.0 20.0 32.55 29.0 L-31.55 29.0 Q-37.0 20.0 -37.0 9.5 -37.0 -6.05 -26.0 -17.0 -15.0 -28.0 0.5 -28.0 16.05 -28.0 27.0 -17.0" fill="#000000" fill-rule="evenodd" stroke="none"/>
    <path d="M14.3 3.25 Q14.3 6.8 12.6 9.85 10.95 12.85 8.1 14.7 L8.1 21.95 -6.95 21.95 -6.95 14.6 Q-9.75 12.75 -11.35 9.8 -13.0 6.75 -13.0 3.25 -13.0 -2.45 -9.0 -6.45 -5.0 -10.45 0.6 -10.45 6.3 -10.45 10.3 -6.45 14.3 -2.45 14.3 3.25" fill="#ffffff" fill-rule="evenodd" stroke="none"/>
    <path d="M11.1 -7.2 Q15.45 -2.85 15.45 3.25 15.45 6.85 13.8 10.0 12.15 13.15 9.2 15.2 L9.2 23.0 -8.0 23.0 -8.0 15.15 Q-10.85 13.05 -12.45 9.9 -14.1 6.75 -14.1 3.25 -14.1 -2.85 -9.75 -7.2 -5.45 -11.5 0.65 -11.5 6.75 -11.5 11.1 -7.2 M11.8 9.25 Q13.3 6.45 13.3 3.25 13.3 -2.0 9.6 -5.7 5.9 -9.4 0.65 -9.4 -4.55 -9.4 -8.25 -5.7 -11.95 -2.0 -11.95 3.25 -11.95 6.4 -10.45 9.2 -8.95 12.0 -6.35 13.75 L-5.9 14.05 -5.9 20.85 7.1 20.85 7.1 14.15 7.6 13.8 Q10.3 12.05 11.8 9.25" fill="#000000" fill-rule="evenodd" stroke="none"/>
    <path d="M-1.45 7.55 Q-2.0 9.35 -2.65 9.8 L-4.5 10.25 -6.5 10.75 Q-7.35 10.8 -7.9 10.05 L-8.45 9.0 Q-8.7 7.7 -7.5 6.75 -5.55 5.2 -2.2 4.65 L-1.5 5.05 Q-0.9 5.8 -1.45 7.55" fill="#000000" fill-rule="evenodd" stroke="none"/>
    <path d="M3.0 5.05 Q3.3 4.7 3.7 4.65 L5.6 5.1 Q7.8 5.8 9.0 6.75 10.2 7.7 9.95 9.0 L9.4 10.05 Q8.85 10.8 8.0 10.75 L6.0 10.25 4.15 9.8 Q3.45 9.35 2.9 7.55 2.4 5.8 3.0 5.05" fill="#000000" fill-rule="evenodd" stroke="none"/>
    <path d="M-4.0 15.7 L-2.35 15.7 -2.35 22.05 -4.0 22.05 -4.0 15.7" fill="#000000" fill-rule="evenodd" stroke="none"/>
    <path d="M-0.2 15.7 L1.4 15.7 1.4 22.05 -0.2 22.05 -0.2 15.7" fill="#000000" fill-rule="evenodd" stroke="none"/>
    <path d="M3.7 15.7 L5.35 15.7 5.35 22.05 3.7 22.05 3.7 15.7" fill="#000000" fill-rule="evenodd" stroke="none"/>
  </g>
</svg>
