<?xml version="1.0" encoding="UTF-8" standalone="no"?>
<svg
   xmlns:dc="http://purl.org/dc/elements/1.1/"
   xmlns:cc="http://creativecommons.org/ns#"
   xmlns:rdf="http://www.w3.org/1999/02/22-rdf-syntax-ns#"
   xmlns:svg="http://www.w3.org/2000/svg"
   xmlns="http://www.w3.org/2000/svg"
   xmlns:sodipodi="http://sodipodi.sourceforge.net/DTD/sodipodi-0.dtd"
   xmlns:inkscape="http://www.inkscape.org/namespaces/inkscape"
   inkscape:version="1.0 (4035a4fb49, 2020-05-01)"
   sodipodi:docname="firelord-05.svg"
   id="svg56"
   xml:space="preserve"
   style="enable-background:new 0 0 42.944 14.347;"
   viewBox="0 0 42.944 14.347"
   height="14.347px"
   width="42.944px"
   y="0px"
   x="0px"
   version="1.0"><metadata
   id="metadata62"><rdf:RDF><cc:Work
       rdf:about=""><dc:format>image/svg+xml</dc:format><dc:type
         rdf:resource="http://purl.org/dc/dcmitype/StillImage" /></cc:Work></rdf:RDF></metadata><defs
   id="defs60" /><sodipodi:namedview
   inkscape:current-layer="svg56"
   inkscape:window-maximized="1"
   inkscape:window-y="-8"
   inkscape:window-x="-8"
   inkscape:cy="7.1735001"
   inkscape:cx="21.472"
   inkscape:zoom="26.476341"
   showgrid="false"
   id="namedview58"
   inkscape:window-height="1017"
   inkscape:window-width="1920"
   inkscape:pageshadow="2"
   inkscape:pageopacity="0"
   guidetolerance="10"
   gridtolerance="10"
   objecttolerance="10"
   borderopacity="1"
   bordercolor="#666666"
   pagecolor="#ffffff" />
<g
   style="display:none;"
   id="Layer_1">
</g>
<g
   id="Layer_2">
	<g
   id="g31">
		<path
   d="M 6.494,9.054 C 6.5656929,8.4046743 6.7366086,7.7512468 6.845,7.1 7.1813097,6.6631815 7.1537048,5.960535 7.4662832,5.4691129 7.9058555,4.6424086 8.3454277,3.8157043 8.785,2.989 6.8560297,2.0869437 4.9449389,1.0001099 2.7855273,0.78501367 2.2162143,0.58199815 1.8931759,0.78120558 1.8670685,1.3485855 1.3330457,3.3563903 0.79902284,5.3641952 0.265,7.372 2.0426752,7.7300353 3.8646297,8.2408289 5.272,9.443 5.7264393,9.7437773 6.3681367,10.47189 6.6381406,10.560995 6.5406617,10.06575 6.463721,9.5601196 6.494,9.054 Z"
   style="fill:#ffffff"
   id="path3" />
		<path
   d="m 6.621,8.279 c -0.1560646,0.7806667 -0.088746,0.4812447 0,0 z"
   style="fill:#a1b8bf"
   id="path5" />
		<path
   d="m 6.494,9.054 c -0.00206,0.5464691 0.00318,1.177782 0.228,1.656 C 6.5927573,10.213247 6.7264605,9.6692741 6.5808715,9.1887657 6.5591616,9.1726059 6.4889566,8.9259018 6.494,9.054 Z"
   style="fill:#a1b8bf"
   id="path7" />
		<path
   d="M 42.234,3.394 C 41.786762,2.1346149 40.993314,0.84198745 39.640443,0.43243408 37.67902,-0.18322929 35.588681,0.22996157 33.615737,0.56681372 32.125492,0.83258215 30.615672,1.1727654 29.327423,2.0063391 27.171465,3.259229 25.588783,5.2381503 23.619417,6.7301833 22.443871,7.6350602 20.866484,7.4015106 19.513447,7.133568 15.993037,6.3359159 12.704233,4.7909613 9.4380029,3.2948655 9.0199586,3.0092379 8.6653477,2.9085419 8.5299202,3.468729 8.1340532,4.2417442 7.6886907,4.9937221 7.3238437,5.7799219 7.3034502,6.1364549 6.5745059,7.3868476 7.2972799,6.8645061 7.5872951,6.6512731 7.963045,6.6730543 8.3016918,6.6800814 8.6756015,6.8111248 9.0721269,6.9030094 9.3389846,7.2194121 9.6824746,7.3927384 9.5922719,7.8103337 9.6815573,8.1268358 9.7822365,8.4620066 9.6118543,8.7898464 9.564,9.121 9.2350773,9.3947705 8.950126,9.7456779 8.5032374,9.8125061 8.3224077,9.891228 7.4827008,10.098262 8.0371738,10.037395 8.6238367,9.7516383 9.1562468,9.9054097 9.72075,10.184125 c 0.342072,-0.0086 1.371112,0.771393 1.19825,0.147875 0.03614,-0.290085 -0.0722,-0.6272086 0.05331,-0.8881992 0.203536,-0.1958457 0.284154,-0.6200754 0.625835,-0.5592477 0.519868,-0.040342 1.038299,-0.059371 1.545939,0.081601 0.30593,0.030946 0.592231,0.1057389 0.807573,0.3390244 0.223314,0.1764129 0.499559,0.3164491 0.51733,0.6341201 0.182117,0.2748794 -0.06038,0.5066964 -0.175858,0.7513954 -0.178029,0.43649 -0.497961,0.769366 -0.83013,1.093306 0.514797,-0.44124 1.088313,0.04058 1.650926,0.132665 0.571966,-0.140515 0.639394,0.610405 0.705674,0.666669 -0.04078,-0.327761 -0.244731,-0.673818 -0.01007,-0.970695 0.16849,-0.326916 0.282193,-0.703138 0.484465,-0.99965 0.335367,-0.179342 0.653375,-0.422251 0.999283,-0.562989 0.564704,-0.02632 1.123253,0.01307 1.672544,0.151323 0.393583,0.08825 0.760346,0.272821 1.143179,0.399677 0.141227,0.241171 0.348693,0.471787 0.196054,0.75979 -0.100151,0.467397 -0.158039,0.951087 -0.459458,1.340896 -0.4341,0.558007 0.865683,0.291007 1.194951,0.433876 0.505635,0.170459 0.747386,-0.02741 0.770921,-0.50595 0.101101,-0.335325 0.115949,-0.71678 0.417603,-0.944847 0.245432,-0.272877 0.453477,-0.597181 0.834496,-0.683555 0.32555,-0.126582 0.635222,-0.364507 0.997703,-0.232087 0.384854,0.07642 0.824434,0.0092 1.123594,0.31053 0.201542,0.169 0.498841,0.281399 0.644536,0.48341 0.05474,0.435668 0.109773,0.871354 -0.04542,1.293844 -0.15509,0.47663 0.173807,-0.111752 0.218769,-0.278282 -0.129657,-0.769905 0.683507,-0.933004 1.123658,-1.399713 0.330606,-0.183246 -0.09005,-0.538741 -0.124451,-0.805613 C 26.92627,9.9442611 26.990074,9.487063 26.969,9.047 27.214456,8.7379366 27.383361,8.3425228 27.677309,8.0881597 27.993826,7.9584466 28.28297,7.702388 28.616425,7.6508501 28.95295,7.6689 29.289475,7.68695 29.626,7.705 c 0.171631,0.372177 0.500326,0.6887741 0.539,1.108 -0.133089,-0.5612069 -0.24286,-0.9746454 0.354875,-1.328375 0.477676,-0.3115224 0.582514,-0.6067306 0.327721,-1.0579159 -0.0149,-0.3157045 -0.166121,-0.6517193 -0.09349,-0.9543834 0.154416,-0.3424308 0.297411,-0.6932686 0.620719,-0.9113754 0.18534,-0.2408592 0.444268,-0.3390244 0.739556,-0.3666848 0.295404,-0.085875 0.589203,-0.124679 0.877111,0.00929 0.238303,0.1003578 0.112189,0.5177154 0.201745,0.7474651 0.01336,0.2965643 0.002,0.5947797 0.0058,0.8919833 0.132434,-0.571552 0.104739,-1.1080368 0.816125,-1.287375 0.271451,-0.4533319 0.562542,0.061986 0.706092,0.073682 -0.113015,-0.2617442 -0.387554,-0.4991899 -0.238373,-0.8003774 0.0811,-0.2693218 0.03016,-0.6179652 0.329302,-0.7563059 0.300002,-0.2798731 0.716378,-0.5134328 1.134017,-0.3896688 0.467257,0.087173 0.984105,0.2606447 1.280922,0.6374018 0.380939,-0.00522 0.895888,0.1762416 0.756626,-0.3343322 0.03756,-0.3338654 0.282813,-0.4212751 0.582842,-0.4436852 0.335438,-0.034896 0.660354,-0.00145 0.94681,0.190118 0.271094,0.067497 0.380141,0.3704006 0.475684,0.5947781 -0.16991,0.7560429 1.052728,0.658922 1.381674,1.2238468 0.584368,0.3379625 1.13476,1.4504193 1.4062,1.6274451 C 42.740723,5.229696 42.555255,4.287346 42.234,3.394 Z"
   style="fill:#a1b8bf"
   id="path9" />
		<path
   d="m 21.688,13.257 c 0.149684,0.64131 0.371063,0.661812 0.05794,0.06854 -0.06416,-0.229489 -0.0623,-0.08747 -0.05794,-0.06854 z"
   style="fill:#a1b8bf"
   id="path11" />
		<path
   d="m 6.498,9.01 c 0.045395,-0.2463619 0.014989,-0.3266736 0,0 z"
   style="fill:#94eccf"
   id="path13" />
		<path
   d="M 9.564,9.121 C 9.6502174,8.7302853 9.7862814,8.3409187 9.6515267,7.9442276 9.6029072,7.6638671 9.6178955,7.3476806 9.3232108,7.2059115 9.0386421,6.8845385 8.6102747,6.7744507 8.2148066,6.6677557 7.87364,6.6812845 7.5269508,6.6749046 7.2426044,6.893272 6.6457092,7.0963856 6.8037733,7.9190488 6.5955094,8.4124188 6.5348871,8.717023 6.4332546,9.0393788 6.638,9.312 6.8791718,9.6432205 7.2968291,10.155215 7.8269763,10.036749 8.3040503,9.8357341 8.8805126,9.8090712 9.2404254,9.4025252 9.3482836,9.3086835 9.4561418,9.2148417 9.564,9.121 Z"
   style="fill:#94eccf"
   id="path15" />
		<path
   d="M 14.553,10.213 C 14.452589,9.9274102 14.442873,9.5795033 14.127858,9.4413705 13.8572,9.2232545 13.599435,8.9763488 13.229149,8.9807075 12.742478,8.8629135 12.250848,8.818637 11.752334,8.8764302 11.43107,8.8080155 11.24742,8.9952875 11.105447,9.2599961 10.797415,9.5369494 10.957776,9.9663897 10.919,10.331 c 0.03172,0.449227 0.565689,0.642734 0.866,0.954875 0.519553,0.272845 1.416132,0.875905 1.896442,0.268439 C 14.10267,11.200674 14.276496,10.672415 14.553,10.213 Z"
   style="fill:#94eccf"
   id="path17" />
		<path
   d="M 20.373,11.051 C 20.232178,10.809607 20.131385,10.520605 19.812971,10.490429 19.093618,10.189092 18.314838,10.009412 17.532117,10.05 c -0.413405,-0.06293 -0.709102,0.305205 -1.062992,0.460228 -0.361266,0.148715 -0.378013,0.607582 -0.570366,0.908359 -0.116213,0.256681 -0.293384,0.506517 -0.155359,0.791743 -0.006,0.474599 0.357533,0.801901 0.817252,0.870777 0.972543,0.196231 2.025038,0.230997 2.958348,-0.132107 0.329214,0.05909 0.377342,-0.46737 0.576106,-0.680029 0.117512,-0.395288 0.18134,-0.81451 0.277894,-1.217971 z"
   style="fill:#94eccf"
   id="path19" />
		<path
   d="m 25.825,11.518 c -0.348226,-0.204303 -0.655291,-0.516627 -1.028818,-0.654531 -0.377312,-0.03202 -0.76409,-0.130426 -1.135689,-0.122381 -0.344191,0.187689 -0.773102,0.258843 -1.060519,0.524625 -0.252357,0.337261 -0.665224,0.588678 -0.703286,1.040546 -0.05788,0.296104 -0.197127,0.597771 -0.206299,0.890546 0.168333,0.314463 0.186547,0.792509 0.623591,0.850708 0.463839,0.293147 1.47031,0.199503 2.158848,-0.07942 0.57011,-0.242947 1.29621,-0.5872 1.349186,-1.282524 0.144232,-0.383652 0.02307,-0.773173 0.003,-1.16757 z"
   style="fill:#94eccf"
   id="path21" />
		<path
   d="m 29.625,7.706 c -0.378181,-0.00406 -0.770473,-0.07325 -1.140155,-0.03808 C 28.181593,7.858561 27.799279,7.9600171 27.544833,8.2057135 27.361735,8.5044102 27.1082,8.7812996 26.968,9.0932774 c 0.03214,0.4396976 -0.06624,0.9057429 0.0527,1.3279166 0.140043,0.21223 0.143019,0.634821 0.394455,0.615947 0.45329,0.158396 1.00673,0.34389 1.320349,-0.148516 0.649221,-0.568291 1.448424,-1.2680041 1.408429,-2.2068128 C 30.046881,8.3348777 29.784991,8.0319314 29.625,7.706 Z"
   style="fill:#94eccf"
   id="path23" />
		<path
   d="M 33.097,4.235 C 32.800926,4.129933 32.503748,4.0572655 32.199955,4.178561 c -0.298824,0.052661 -0.60639,0.088373 -0.794417,0.3558788 -0.320303,0.2231089 -0.490125,0.5569901 -0.636296,0.9082805 -0.110048,0.3011442 0.06626,0.6449501 0.07498,0.9637886 0.04648,0.3382513 0.257294,0.7474258 0.666777,0.6454911 0.678544,-0.081966 1.339878,-0.5991322 1.688,-1.208 0.01636,-0.5421938 -0.0063,-1.0739935 -0.102,-1.609 z"
   style="fill:#94eccf"
   id="path25" />
		<path
   d="M 36.877,3.004 C 36.454839,2.8006722 35.969318,2.6040945 35.502138,2.670166 35.145696,2.7778946 34.819447,3.0130233 34.592859,3.2913451 34.557168,3.570939 34.432141,3.863972 34.448783,4.1356932 34.611129,4.5421291 34.876014,4.8845656 35.374,4.840375 36.140817,5.020236 37.194299,4.6427646 37.216672,3.7415313 37.023113,3.4340082 37.370228,3.3146177 37.040766,3.1341485 36.986177,3.0907657 36.931589,3.0473828 36.877,3.004 Z"
   style="fill:#94eccf"
   id="path27" />
		<path
   d="M 39.722,2.83 C 39.392038,2.6764624 39.075612,2.4626031 38.694504,2.537 c -0.239573,0.03992 -0.621707,-0.00764 -0.657143,0.3089696 -0.28213,0.3399785 0.09088,0.6670028 0.423518,0.7684967 0.376243,0.2776242 1.309679,0.2998746 1.515981,-0.031172 C 40.058447,3.2775398 39.862784,3.0781526 39.722,2.83 Z"
   style="fill:#94eccf"
   id="path29" />
	</g>
	<path
   d="m 18.022,11.861 c -0.432789,-0.07925 0.388636,0.379893 -0.3255,0.173625 -0.30012,-0.110835 0.278245,-0.34683 -0.215578,-0.190594 -0.408514,0.708314 1.347503,0.523422 0.541078,0.01697 z"
   style="fill:#414042"
   id="path33" />
	<path
   d="m 12.799,10.239 c -0.434606,-0.187865 -0.220174,-0.07707 -0.066,0.142 -0.365203,0.175458 -0.35611,-0.4053126 -0.462125,0.117125 0.133984,0.382425 0.891232,0.03891 0.528125,-0.259125 z"
   style="fill:#414042"
   id="path35" />
	<path
   d="M 7.893,8.256 C 7.2795036,8.079793 8.2381768,8.6950125 7.575,8.379 7.5443716,9.0371625 8.4136038,8.6689965 7.893,8.256 Z"
   style="fill:#414042"
   id="path37" />
	<path
   d="m 23.917,12.522 c -0.422752,-0.07607 0.258957,0.248326 -0.299,0.263 -0.475845,0.180287 0.215639,-0.725346 -0.222328,-0.169156 -0.452656,0.599821 1.098286,0.350532 0.521328,-0.09384 z"
   style="fill:#414042"
   id="path39" />
	<path
   d="m 28.491,9.109 c -0.273322,0.206774 -0.279431,0.8074588 0,0.254 -0.300402,0.730156 0.614722,-0.4326374 0,-0.254 z"
   style="fill:#414042"
   id="path41" />
	<path
   d="M 32.114,5.332 C 31.712826,5.1809344 31.588972,6.303643 31.934,5.603 32.3859,5.4597949 31.403972,6.3584706 31.996576,5.9106864 32.200731,5.8287683 32.326147,5.4728027 32.114,5.332 Z M 32.03,5.506 32.033,5.504 Z"
   style="fill:#414042"
   id="path43" />
	<path
   d="m 31.769,6.041 c 6.67e-4,-6.667e-4 6.67e-4,-6.667e-4 0,0 z"
   style="fill:#414042"
   id="path45" />
	<path
   d="m 31.694,5.948 c 0.121196,0.1772705 0.199203,0.2582947 0,0 z"
   style="fill:#414042"
   id="path47" />
	<path
   d="m 36.19,3.497 c -0.238936,-0.259124 -1.096621,0.1120479 -0.425,0.189 -0.615951,-0.2381078 0.762933,-0.094922 0.107,-10e-4 0.106487,0.094104 0.61628,-0.02157 0.318,-0.188 z"
   style="fill:#414042"
   id="path49" />
	<path
   d="m 39.048,3.094 c -0.551258,0.1770332 0.462521,0.2938471 0,0 z"
   style="fill:#414042"
   id="path51" />
	<path
   d="M 42.944,6.749 C 42.855676,4.7839941 42.440753,2.6795555 41.080703,1.1783594 39.828639,-0.05104355 37.935,-0.08098943 36.295215,0.05440942 34.55653,0.2376634 32.821051,0.53840776 31.139792,1.0199257 28.442034,1.9417925 26.471789,4.0933301 24.407169,5.9491587 23.609877,6.6812779 22.63382,7.3529148 21.495895,7.2546465 19.221731,7.1794599 17.055261,6.3642671 14.949133,5.570554 11.861279,4.3756372 8.9023712,2.8835489 5.8970625,1.5022813 4.5963495,0.97167259 3.2021171,0.59407967 1.788,0.621 4.0790787,1.2435037 6.2214935,2.2833454 8.323127,3.3676211 8.4162984,3.768092 7.5843063,4.4380311 7.4215605,5.0149766 6.6041528,6.5889256 6.1406343,8.4070617 6.474,10.177 5.3724991,8.7561981 3.7720825,7.6859423 1.965,7.461 1.4321191,7.3580596 0.25077743,7.3270089 0.1202959,7.4677058 1.9196255,7.8199806 3.7717547,8.3215301 5.196,9.538 5.8016668,10.00938 6.3619725,10.534886 6.916,11.065 6.8339273,10.668341 6.6459212,9.7281625 6.8579531,9.7845313 7.3756828,10.414871 8.2399349,10.091969 8.870251,10.0071 c 0.7196997,0.261734 1.440855,0.519729 2.167749,0.7609 0.559367,0.667385 1.429263,1.181262 2.318,1.158 0.678068,-0.427998 1.37582,0.0704 2.086336,0.210606 0.163057,0.585484 0.757971,1.147473 1.483689,1.140102 0.858328,0.09173 1.76382,0.14659 2.574975,-0.207708 0.770655,0.343105 2.086816,-0.250344 2.279125,0.767594 0.279463,0.500857 1.0395,0.537275 1.757688,0.490832 1.109657,-0.133401 2.395172,-0.754239 2.637562,-1.945551 C 26.16501,11.762903 27.01496,11.609913 27.354,11.141 c 0.295761,0.21375 0.995716,0.02871 0.697,0.412 0.556568,-0.337331 1.067211,-0.815972 1.552876,-1.328712 C 30.114165,9.6644682 30.515056,8.8206179 30.144,8.082 c 0.467691,-0.5631842 0.859488,-1.1275336 1.589,-0.934 0.85081,-0.2610591 1.824094,-1.0524493 1.731,-2.079 0.454856,-0.3293987 0.893162,-0.7458313 1.354,-0.227 0.816528,0.2708456 1.962819,0.2616169 2.405453,-0.6183281 0.195429,-0.4611402 -0.144787,-0.9601702 0.598125,-0.7818125 0.697008,0.5303782 1.590994,0.4290411 2.375125,0.510375 1.23797,0.535439 2.023312,1.717111 2.747297,2.7967656 z M 7.923,9.861 C 6.8997096,10.051079 6.5712046,8.8989996 6.8807148,8.1263809 6.8315649,7.229479 7.5771951,6.5221309 8.4791406,6.8373281 9.5069567,7.1434993 10.00874,8.7379353 9.038,9.401 8.7184023,9.6533835 8.3268573,9.8122607 7.923,9.861 Z m 4.802,1.614 C 11.902984,11.329252 10.60487,10.578699 11.152125,9.595375 11.633327,8.7317018 12.777466,9.0989914 13.524047,9.3261563 14.51863,9.5560681 14.164115,10.816519 13.625621,11.325689 13.37948,11.537285 13.026322,11.552615 12.725,11.475 Z m 6.236,1.528 c -0.78827,0.231412 -1.658009,0.09526 -2.427906,-0.151875 C 15.38102,12.395486 16.224755,10.671224 17.105,10.37 c 0.867373,-0.177796 1.812601,0.04323 2.573391,0.480062 0.889816,0.572078 -0.04059,1.845146 -0.717391,2.152938 z m 6.585,-0.799 c -0.163721,0.934577 -1.208765,1.316943 -2.026,1.52 -0.668564,0.233941 -1.636141,0.601909 -1.663875,-0.46875 -0.0392,-1.263536 1.20359,-2.538844 2.488875,-2.34225 0.552412,0.188512 1.241449,0.625084 1.201,1.291 z M 29.73,9.375 c -0.449071,0.626449 -0.963908,1.890125 -1.821109,1.742891 C 26.795139,10.873418 26.937711,9.3264362 27.477975,8.5959902 27.872705,7.7388547 29.324428,7.3998864 29.792426,8.3472988 29.92935,8.6775952 29.874151,9.0572083 29.73,9.375 Z M 33.002,5.582 C 32.741216,6.2436611 32.103948,7.0804375 31.321,6.98 30.726314,6.5290943 30.922569,5.5753016 31.263672,5.0154062 31.566592,4.435495 32.650716,3.8011798 32.94477,4.7257168 33.043218,4.9978361 33.068771,5.2993785 33.002,5.582 Z m 3.672,-1.353 c -0.567129,0.346509 -1.421605,0.3205313 -1.94975,-0.0775 -0.363237,-0.7650677 0.63082,-1.5390853 1.359236,-1.3341035 0.629005,0.041235 1.502241,0.7404742 0.743623,1.278791 l -0.07399,0.069078 z M 39.04,3.813 c -0.606154,-0.051668 -1.453703,-0.9359242 -0.386375,-1.178875 0.536583,-0.1686379 1.872679,0.8546545 0.70275,1.0195 l -0.157766,0.076547 z M 41.247,4.18 C 40.816649,3.7877959 40.159535,3.7354273 40.234,3.095 39.81808,2.5574652 39.033256,1.9387568 38.3475,2.38575 37.916486,2.9082938 37.229426,3.3136865 36.645234,2.7198887 35.805145,2.1251919 34.511067,2.5235985 34.191266,3.5117969 34.20772,4.0412731 33.215475,4.6561248 32.986125,3.988 32.198622,3.3796298 31.182052,4.1977939 30.828359,4.9313027 30.42045,5.6707695 30.919125,6.5648353 30.065396,7.0367668 29.713208,7.8412273 29.039179,7.1392118 28.392348,7.3698027 27.240482,7.6794215 26.559764,9.0361864 26.771273,10.168131 27.16444,10.725747 26.253262,11.128935 25.931,11.324 25.341165,10.476962 24.117251,10.031939 23.179953,10.579672 22.388787,10.987309 21.755245,11.747409 21.595,12.634 21.169541,12.544036 19.807419,12.832198 20.483961,12.15866 21.027858,11.369 20.477113,10.373296 19.633937,10.119406 18.784108,9.8054645 17.807346,9.6003372 16.923,9.88 16.075315,10.0759 15.842273,11.249991 15.438422,11.592564 14.969203,11.405607 13.9806,11.474202 14.592625,10.819375 14.942753,10.194965 14.85766,9.3042251 14.183309,8.9360664 13.374214,8.4932336 12.356613,8.2191285 11.454453,8.5201719 10.768903,8.7623384 10.521335,9.6068626 10.765,10.247 10.316781,10.06217 9.4162909,9.9218405 9.26,9.692 9.9030517,9.2823639 10.169317,8.4229491 9.837375,7.730125 9.5114712,6.7541866 8.3165744,6.167167 7.3766758,6.657418 7.2707566,6.3665591 7.8554117,5.3750779 8.082084,4.8392812 8.4159593,4.4555075 8.5217617,3.2540738 9.1643359,3.784178 12.472838,5.3648371 15.856488,6.8949603 19.461359,7.6563836 20.897715,7.921617 22.560046,8.1214389 23.8025,7.1737383 25.679806,5.7736951 27.103308,3.8475476 29.05,2.528 30.261774,1.6473081 31.68996,1.1157699 33.164,0.884 35.137643,0.51974784 37.191621,0.08795343 39.187418,0.53633615 40.411693,0.7837648 41.297621,1.7732594 41.789726,2.8711523 42.22375,3.7721595 42.471996,4.7524681 42.603,5.741 42.256874,5.1397361 41.789322,4.611392 41.247,4.18 Z"
   style="fill:#414042"
   id="path53" />
</g>
</svg>
