<?xml version="1.0" encoding="utf-8"?>
<!-- Generator: Adobe Illustrator 23.0.1, SVG Export Plug-In . SVG Version: 6.00 Build 0)  -->
<svg version="1.0" xmlns="http://www.w3.org/2000/svg" xmlns:xlink="http://www.w3.org/1999/xlink" x="0px" y="0px"
	 width="21.399px" height="51.609px" viewBox="0 0 21.399 51.609" style="enable-background:new 0 0 21.399 51.609;"
	 xml:space="preserve">
<g id="Layer_1" style="display:none;">
</g>
<g id="Layer_2">
	<path style="fill:#F34A15;" d="M18.195,31.474c0.414-1.989,3.204-12.374,3.204-12.374s-4.889-1.947-9.073-6.132
		C7.608,8.25,4.909,0,4.909,0S4.868,6.339,6.442,9.571c1.574,3.232,5.386,8.286,5.51,8.7c0.124,0.414-1.644,3.766-3.649,5.576
		c-1.399,1.264-7.013,7.046-8.228,10.637c-0.426,1.259,1.022,2.541,2.486,4.364c1.464,1.823,2.86,5.001,3.618,5.607
		c1.657,1.326,2.654,0.893,3.149,1.105c0.773,0.331,1.472,1.761,1.74,2.431c0.025,0.063,0.055,0.141,0.087,0.225
		c-0.385-1.608-0.788-3.179-1.067-3.968c-0.704-1.989-3.729-8.286-3.314-9.363c0.414-1.077,6.919-8.825,7.623-9.571
		c0.704-0.746,1.989-1.782,1.989-1.782s-2.486,5.345-2.859,6.339c-0.373,0.994-1.492,3.149-1.409,3.936
		c0.083,0.787,1.947,4.64,1.947,5.22c0,0.411,0.124,3.688-0.068,6.185c0.911-1.359,4.118-1.807,4.832-2.608
		C19.286,42.094,17.78,33.462,18.195,31.474z"/>
	<path style="fill:#F34A15;" d="M14.065,39.028c0-0.58-1.864-4.433-1.947-5.22c-0.083-0.787,1.036-2.942,1.409-3.936
		c0.373-0.994,2.859-6.339,2.859-6.339s-1.284,1.036-1.989,1.782c-0.704,0.746-7.209,8.493-7.623,9.571
		c-0.414,1.077,2.61,7.375,3.314,9.363c0.279,0.789,0.682,2.36,1.067,3.968c0.377,1.002,1.184,3.393,1.184,3.393
		s0.911-4.461,1.491-6.077c0.04-0.113,0.099-0.218,0.167-0.32C14.19,42.716,14.065,39.439,14.065,39.028z"/>
	<path style="fill:#F3BB70;" d="M14.065,39.028c0-0.58-1.864-4.433-1.947-5.22c-0.083-0.787,1.036-2.942,1.409-3.936
		c0.373-0.994,2.859-6.339,2.859-6.339s-1.284,1.036-1.989,1.782c-0.704,0.746-7.209,8.493-7.623,9.571
		c-0.414,1.077,2.61,7.375,3.314,9.363c0.279,0.789,0.682,2.36,1.067,3.968c0.377,1.002,1.184,3.393,1.184,3.393
		s0.911-4.461,1.491-6.077c0.04-0.113,0.099-0.218,0.167-0.32C14.19,42.716,14.065,39.439,14.065,39.028z"/>
</g>
</svg>
