<?xml version="1.0" encoding="utf-8"?>
<!-- Generator: Adobe Illustrator 23.0.1, SVG Export Plug-In . SVG Version: 6.00 Build 0)  -->
<svg version="1.0" xmlns="http://www.w3.org/2000/svg" xmlns:xlink="http://www.w3.org/1999/xlink" x="0px" y="0px" width="7.351px"
	 height="16.533px" viewBox="0 0 7.351 16.533" style="enable-background:new 0 0 7.351 16.533;" xml:space="preserve">
<g id="Layer_1" style="display:none;">
</g>
<g id="Layer_2">
	<path style="fill:#414042;" d="M3.52,16.533c0,0-0.119-0.216-0.353-0.399c-0.213-0.167-0.551-0.306-0.773-0.52
		c-0.205-0.197-0.185-0.383-0.332-0.449c-0.456-0.205-0.98-0.433-1.162-1.094c-0.182-0.661-0.205-1.435-0.342-1.595
		s-0.308-0.319-0.308-0.319s0.131-0.598,0.234-0.786c0.103-0.188,0.273-0.393,0.273-0.393s-0.313-0.564-0.234-0.746
		s0.843-0.547,0.98-0.718c0.137-0.171,0.672-1.219,0.809-1.629c0.137-0.41,0.461-0.769,0.444-0.94
		C2.74,6.776,2.706,6.554,2.492,6.442s-1.111-1.222-1.23-1.341S0.86,4.776,0.826,4.52c-0.034-0.256,0.043-0.769,0-1.085
		S0.881,2.11,0.881,2.11s0.565,0.712,0.793,1.071s0.347,1.065,0.629,1.159c0.282,0.094,0.829-0.051,0.778-0.197
		C3.03,3.999,2.808,3.648,2.808,3.298s0.154-0.427-0.162-0.752S2.005,1.683,2.005,1.683s-0.718-0.103-0.82-0.137
		C1.082,1.512,0.587,1.333,0.587,1.333s0.649-0.085,0.889-0.085s0.359,0,0.359,0s-0.78-0.316-0.991-0.35S0,0.846,0,0.846
		s0.137-0.273,0.854-0.342s1.618,0,1.618,0s-0.273-0.268-0.496-0.33S1.441,0.105,1.441,0.105S1.877,0,2.424,0
		s1.068,0.034,1.162,0.111s0.789,1.111,0.92,1.606S4.961,2.862,5.004,3.17c0,0,0.635,1.971,0.715,2.495
		c0.08,0.524,0.194,1.618,0.296,2.13s0.815,2.575,0.951,2.774s0.498,0.393,0.349,0.906c-0.15,0.513-0.59,0.624-0.59,0.624
		s0.201,0.527,0.235,0.709c0.034,0.182-0.034,0.478-0.034,0.478s-0.137,0.073-0.201,0.286c-0.064,0.214-0.118,0.671-0.779,1.149
		S4.9,15.321,4.9,15.321s-0.178,0.223-0.414,0.449c-0.087,0.084-0.37,0.297-0.571,0.417C3.686,16.324,3.52,16.533,3.52,16.533z"/>
</g>
</svg>
