<?xml version="1.0" encoding="utf-8"?>
<!-- Generator: Adobe Illustrator 23.0.1, SVG Export Plug-In . SVG Version: 6.00 Build 0)  -->
<svg version="1.0" xmlns="http://www.w3.org/2000/svg" xmlns:xlink="http://www.w3.org/1999/xlink" x="0px" y="0px"
	 width="22.876px" height="27.512px" viewBox="0 0 22.876 27.512" style="enable-background:new 0 0 22.876 27.512;"
	 xml:space="preserve">
<g id="Layer_1" style="display:none;">
</g>
<g id="Layer_2">
	<path style="fill:#414042;" d="M22.876,24.403c0,0-3.355,3.486-5.528,3.076s-7.231-1.823-12.198-6.516S0,15.175,0,15.175
		s0.974-1.606,1.282-2.102s0.82-1.077,0.82-1.077s1.384-5.48,1.475-7.53C3.668,2.415,3.463,0,3.463,0s2.142,1.336,3.441,3.402
		s5.332,9.032,5.332,9.032s1.623,0.57,2.785,1.749s1.743,2.358,1.743,2.358s-0.273,0.444-0.41,0.632
		c-0.137,0.188-0.478,0.461-0.478,0.461s0.82,0.017,1.179,0.034c0.359,0.017,1.008,0.12,1.008,0.12s0.53,0.889,0.684,1.213
		c0.154,0.325,0.137,0.786,0.137,0.786s0.752,0.513,1.316,1.179C20.763,21.634,22.876,24.403,22.876,24.403z"/>
</g>
</svg>
