<?xml version="1.0" encoding="UTF-8" standalone="no"?>
<svg
   xmlns:dc="http://purl.org/dc/elements/1.1/"
   xmlns:cc="http://creativecommons.org/ns#"
   xmlns:rdf="http://www.w3.org/1999/02/22-rdf-syntax-ns#"
   xmlns:svg="http://www.w3.org/2000/svg"
   xmlns="http://www.w3.org/2000/svg"
   xmlns:sodipodi="http://sodipodi.sourceforge.net/DTD/sodipodi-0.dtd"
   xmlns:inkscape="http://www.inkscape.org/namespaces/inkscape"
   inkscape:version="1.0 (4035a4fb49, 2020-05-01)"
   sodipodi:docname="horn-1.svg"
   id="svg6"
   preserveAspectRatio="xMidYMid meet"
   viewBox="0 0 16.193302 37.499981"
   height="37.499981pt"
   width="16.193302pt"
   version="1.0">
  <metadata
     id="metadata12">
    <rdf:RDF>
      <cc:Work
         rdf:about="">
        <dc:format>image/svg+xml</dc:format>
        <dc:type
           rdf:resource="http://purl.org/dc/dcmitype/StillImage" />
        <dc:title></dc:title>
      </cc:Work>
    </rdf:RDF>
  </metadata>
  <defs
     id="defs10" />
  <sodipodi:namedview
     inkscape:current-layer="svg6"
     inkscape:window-maximized="1"
     inkscape:window-y="-8"
     inkscape:window-x="1912"
     inkscape:cy="30.167869"
     inkscape:cx="43.762385"
     inkscape:zoom="12.393682"
     fit-margin-bottom="0"
     fit-margin-right="0"
     fit-margin-left="0"
     fit-margin-top="0"
     showgrid="false"
     id="namedview8"
     inkscape:window-height="1017"
     inkscape:window-width="1920"
     inkscape:pageshadow="2"
     inkscape:pageopacity="0"
     guidetolerance="10"
     gridtolerance="10"
     objecttolerance="10"
     borderopacity="1"
     bordercolor="#666666"
     pagecolor="#ffffff" />
  <path
     sodipodi:nodetypes="ccccccc"
     id="path837"
     d="M 1.2708088,19.304191 2.2995588,36.308824 16.217942,36.429853 16.096912,22.208897 8.7746325,21.906323 5.3858088,2.0272427 Z"
     style="fill:#ffffff;stroke:none;stroke-width:0.75px;stroke-linecap:butt;stroke-linejoin:miter;stroke-opacity:1;fill-opacity:1" />
  <g
     id="g4"
     stroke="none"
     fill="#000000"
     transform="matrix(0.00997894,0,0,-0.00997894,-9.0534159,72.825429)">
    <path
       id="path2"
       d="m 1505,7281 c -40,-25 -64,-53 -118,-136 -248,-388 -417,-1109 -473,-2025 -11,-176 -8,-687 5,-860 19,-251 61,-552 98,-697 l 5,-23 h 754 754 v 110 110 h -649 c -358,0 -652,3 -655,8 -4,7 -40,251 -51,347 -31,291 -26,1106 10,1355 2,14 6,54 10,90 24,236 80,562 135,780 43,168 118,405 126,397 6,-6 94,-955 94,-1011 0,-29 -12,-42 -120,-130 -134,-111 -152,-138 -126,-199 17,-41 45,-59 93,-59 27,0 49,13 108,62 41,34 75,56 75,50 0,-6 7,-87 15,-178 l 16,-167 -106,-269 c -58,-148 -105,-283 -105,-300 1,-51 49,-96 105,-96 54,0 85,49 175,283 l 84,217 h 78 78 v -426 c 0,-364 2,-431 15,-459 30,-61 107,-74 156,-26 l 29,29 v 441 441 h 205 205 v 120 120 h -345 -344 l -5,33 c -3,17 -46,483 -96,1034 -50,552 -93,1009 -96,1017 -14,36 -92,46 -139,17 z" />
  </g>
</svg>
