<?xml version="1.0" encoding="UTF-8"?>
<svg width="30.35px" height="157.6px" version="1.1" xmlns="http://www.w3.org/2000/svg" xmlns:cc="http://creativecommons.org/ns#" xmlns:dc="http://purl.org/dc/elements/1.1/" xmlns:rdf="http://www.w3.org/1999/02/22-rdf-syntax-ns#">
 <metadata>
  <rdf:RDF>
   <cc:Work rdf:about="">
    <dc:format>image/svg+xml</dc:format>
    <dc:type rdf:resource="http://purl.org/dc/dcmitype/StillImage"/>
    <dc:title/>
   </cc:Work>
  </rdf:RDF>
 </metadata>
 <path d="m3.152 114.4h25.216l-1.1125-71.384-9.2706-27.626-8.5289 2.4104-6.8602 34.487z" fill="#fff"/>
 <g transform="translate(15.2 78.8)" fill-rule="evenodd">
  <path d="m6.6-50.85q-3.1-10.4-7.25-10.4-4.25-0.05-7.35 14.4-2.85 13.3-3.2 30.7l0.1 36.95q4.2 10.55 14.05 12.45l7.9 0.05 0.1-16.35-12.35-0.05q-2.3-0.5-2.15-1.75 0.15-0.8 1.45-1.2l1.3-0.3 11.75 0.05 0.2-29.7-0.45-9.3-10.75-0.05q0.8 0.05 1.35 0.8 0.6 0.75 0.6 1.85t-0.6 1.85-1.45 0.75q-0.8 0-1.4-0.8-0.6-0.75-0.6-1.85 0.05-1.1 0.65-1.85t1.35-0.75h-2.5v-3l13.1 0.05q-1.25-13.75-3.85-22.55m6.2-27.95q1.1 2.85 1 6.75-0.15 7.85-6 13.4 4.05 7.65 6 23.5 1.1 9.05 1.35 19.15l-0.5 94.8h-29.65l-0.2-95q0.25-13.9 2.2-25.75 3.3-20.35 10.3-22.95h-0.4l2.1-0.45q2.55-0.75 4.85-1.95 7.25-3.95 8.95-11.5"/>
  <path d="m-4.7-28.35h1.05v3h-1.6q-2.65-0.05-2.65-1.3 0-0.8 1.6-1.3l1.6-0.4"/>
  <path d="m7.35-20.05q-0.8 0-1.4-0.8-0.6-0.75-0.6-1.85 0.05-1.1 0.65-1.85t1.4-0.75q0.85 0 1.4 0.8 0.6 0.75 0.6 1.85t-0.6 1.85-1.45 0.75"/>
  <path d="m2.45 18.65 3.75 0.05-0.05 7.75-3.75-0.05 0.05-7.75"/>
  <path d="m-6.05 6.35-1.6 4.55q-0.9 5.3 2.4 9.25-2.05-1.4-3.2-3.8-2.3-4.85 2.4-10"/>
 </g>
</svg>
