<?xml version="1.0" encoding="UTF-8" standalone="no"?>
<svg xmlns:xlink="http://www.w3.org/1999/xlink" height="157.6px" width="30.35px" xmlns="http://www.w3.org/2000/svg">
  <g transform="matrix(1.0, 0.0, 0.0, 1.0, 15.2, 78.8)">
    <path d="M6.6 -50.85 Q3.5 -61.25 -0.65 -61.25 -4.9 -61.3 -8.0 -46.85 -10.85 -33.55 -11.2 -16.15 L-11.1 20.8 Q-6.9 31.35 2.95 33.25 L10.85 33.3 10.95 16.95 -1.4 16.9 Q-3.7 16.4 -3.55 15.15 -3.4 14.35 -2.1 13.95 L-0.8 13.65 10.95 13.7 11.15 -16.0 10.7 -25.3 -0.05 -25.35 Q0.75 -25.3 1.3 -24.55 1.9 -23.8 1.9 -22.7 1.9 -21.6 1.3 -20.85 0.7 -20.1 -0.15 -20.1 -0.95 -20.1 -1.55 -20.9 -2.15 -21.65 -2.15 -22.75 -2.1 -23.85 -1.5 -24.6 -0.9 -25.35 -0.15 -25.35 L-2.65 -25.35 -2.65 -28.35 10.45 -28.3 Q9.2 -42.05 6.6 -50.85 M12.8 -78.8 Q13.9 -75.95 13.8 -72.05 13.65 -64.2 7.8 -58.65 11.85 -51.0 13.8 -35.15 14.9 -26.1 15.15 -16.0 L14.65 78.8 -15.0 78.8 -15.2 -16.2 Q-14.95 -30.1 -13.0 -41.95 -9.7 -62.3 -2.7 -64.9 L-3.1 -64.9 -1.0 -65.35 Q1.55 -66.1 3.85 -67.3 11.1 -71.25 12.8 -78.8" fill="#000000" fill-rule="evenodd" stroke="none"/>
    <path d="M-4.7 -28.35 L-3.65 -28.35 -3.65 -25.35 -5.25 -25.35 Q-7.9 -25.4 -7.9 -26.65 -7.9 -27.45 -6.3 -27.95 L-4.7 -28.35" fill="#000000" fill-rule="evenodd" stroke="none"/>
    <path d="M7.35 -20.05 Q6.55 -20.05 5.95 -20.85 5.35 -21.6 5.35 -22.7 5.4 -23.8 6.0 -24.55 6.6 -25.3 7.4 -25.3 8.25 -25.3 8.8 -24.5 9.4 -23.75 9.4 -22.65 9.4 -21.55 8.8 -20.8 8.2 -20.05 7.35 -20.05" fill="#000000" fill-rule="evenodd" stroke="none"/>
    <path d="M2.45 18.65 L6.2 18.7 6.15 26.45 2.4 26.4 2.45 18.65" fill="#000000" fill-rule="evenodd" stroke="none"/>
    <path d="M-6.05 6.35 L-7.65 10.9 Q-8.55 16.2 -5.25 20.15 -7.3 18.75 -8.45 16.35 -10.75 11.5 -6.05 6.35" fill="#000000" fill-rule="evenodd" stroke="none"/>
    <path d="M-3.65 -23.95 L-3.65 -28.95 -2.65 -28.95 -2.65 -23.95 -3.65 -23.95" fill="#ffffff" fill-rule="evenodd" stroke="none"/>
  </g>
</svg>
