<?xml version="1.0" encoding="UTF-8" standalone="no"?>
<svg xmlns:xlink="http://www.w3.org/1999/xlink" height="86.8px" width="61.2px" xmlns="http://www.w3.org/2000/svg">
  <g transform="matrix(1.0, 0.0, 0.0, 1.0, 30.6, 43.4)">
    <path d="M-6.55 25.3 Q-3.85 22.9 -1.15 22.9 1.5 23.0 3.95 25.3 L-6.55 25.3" fill="#ffffff" fill-rule="evenodd" stroke="none"/>
    <path d="M16.55 -2.05 L21.05 12.3 9.15 15.3 8.5 15.75 Q8.3 16.1 8.4 16.5 8.55 17.25 9.4 17.25 L13.0 16.35 12.95 17.05 Q12.95 18.1 13.7 18.85 14.45 19.6 15.5 19.6 16.6 19.6 17.35 18.85 18.1 18.1 18.1 17.05 18.1 16.1 17.4 15.3 L21.65 14.2 25.15 25.3 7.2 25.3 Q3.3 20.55 -1.15 20.55 -4.2 20.6 -7.0 22.65 -8.6 23.8 -9.75 25.3 L-25.15 25.3 -21.6 14.1 -17.35 15.25 Q-18.05 15.95 -18.05 17.05 -18.05 18.1 -17.3 18.85 -16.55 19.6 -15.5 19.6 -14.4 19.6 -13.65 18.85 -12.9 18.1 -12.9 17.05 L-13.0 16.45 -9.95 17.25 Q-9.15 17.25 -9.0 16.5 -8.9 16.1 -9.1 15.75 -9.3 15.4 -9.7 15.3 L-21.0 12.2 -16.55 -1.8 -8.15 -1.85 -1.3 3.6 7.1 -2.0 16.55 -2.05" fill="#ffffff" fill-rule="evenodd" stroke="none"/>
    <path d="M3.95 25.3 Q1.5 23.0 -1.15 22.9 -3.85 22.9 -6.55 25.3 L3.95 25.3 M17.35 18.85 Q16.6 19.6 15.5 19.6 14.45 19.6 13.7 18.85 12.95 18.1 12.95 17.05 L13.0 16.35 9.4 17.25 Q8.55 17.25 8.4 16.5 8.3 16.1 8.5 15.75 L9.15 15.3 21.05 12.3 16.55 -2.05 7.1 -2.0 -1.3 3.6 -8.15 -1.85 -16.55 -1.8 -21.0 12.2 -9.7 15.3 Q-9.3 15.4 -9.1 15.75 -8.9 16.1 -9.0 16.5 -9.15 17.25 -9.95 17.25 L-13.0 16.45 -12.9 17.05 Q-12.9 18.1 -13.65 18.85 -14.4 19.6 -15.5 19.6 -16.55 19.6 -17.3 18.85 -18.05 18.1 -18.05 17.05 -18.05 15.95 -17.35 15.25 L-21.6 14.1 -25.15 25.3 -9.75 25.3 Q-8.6 23.8 -7.0 22.65 -4.2 20.6 -1.15 20.55 3.3 20.55 7.2 25.3 L25.15 25.3 21.65 14.2 17.4 15.3 Q18.1 16.1 18.1 17.05 18.1 18.1 17.35 18.85 M22.5 -12.3 Q24.7 -5.05 20.95 -1.35 L30.5 28.9 30.5 28.95 30.6 29.3 30.5 29.3 30.5 43.4 -30.5 43.4 -30.5 29.3 -30.6 29.3 -30.5 28.95 -30.5 28.9 -22.15 2.6 Q-25.9 -0.65 -26.55 -5.05 -27.6 -12.3 -19.3 -20.1 -9.7 -29.05 -11.85 -34.75 -12.55 -36.5 -14.3 -37.75 L-15.95 -38.6 -14.3 -37.85 Q-12.35 -36.85 -10.8 -35.35 -5.85 -30.5 -6.95 -22.65 -8.05 -14.75 -6.7 -14.2 -6.0 -13.9 -5.1 -15.2 -4.7 -17.15 -4.55 -19.75 -4.15 -24.95 -5.2 -28.15 -6.25 -31.35 -4.85 -34.7 L-3.3 -37.35 -3.0 -35.2 Q-2.25 -32.4 0.05 -29.45 1.2 -28.0 2.0 -25.85 0.4 -38.4 6.7 -43.4 L6.4 -41.6 Q6.2 -39.4 6.55 -37.1 7.7 -29.75 14.05 -24.55 20.35 -19.45 22.5 -12.3" fill="#000000" fill-rule="evenodd" stroke="none"/>
  </g>
</svg>
