<?xml version="1.0" encoding="UTF-8" standalone="no"?>
<svg xmlns:xlink="http://www.w3.org/1999/xlink" height="79.5px" width="54.15px" xmlns="http://www.w3.org/2000/svg">
  <g transform="matrix(1.0, 0.0, 0.0, 1.0, 27.1, 39.75)">
    <path d="M-19.9 -3.75 L-20.7 -3.5 Q-18.05 2.55 -12.55 6.2 -6.9 9.95 -0.05 10.0 6.8 9.95 12.45 6.2 17.95 2.55 20.65 -3.5 11.3 -7.05 0.85 -7.05 -10.0 -7.05 -19.9 -3.75 M-19.2 -31.85 Q-11.25 -39.75 -0.05 -39.75 11.15 -39.75 19.1 -31.85 27.05 -23.9 27.05 -12.7 27.05 -6.75 24.6 -1.45 22.25 3.7 18.0 7.5 L18.0 39.75 -19.3 39.75 -19.3 6.35 Q-23.0 2.6 -25.0 -2.2 -27.1 -7.2 -27.1 -12.7 -27.1 -23.9 -19.2 -31.85 M-8.5 -33.7 Q-16.15 -30.6 -19.95 -23.4 L-6.95 -19.2 Q-6.05 -18.95 -5.65 -18.1 -5.25 -17.3 -5.5 -16.45 -5.7 -15.75 -6.3 -15.3 -6.9 -14.9 -7.6 -14.9 L-8.3 -15.0 -10.55 -15.75 Q-10.6 -14.75 -11.3 -14.1 -12.0 -13.4 -12.95 -13.4 -13.95 -13.4 -14.65 -14.1 -15.35 -14.8 -15.35 -15.8 -15.35 -16.5 -14.95 -17.15 L-21.7 -19.3 Q-22.65 -15.95 -22.65 -12.7 -22.65 -9.0 -21.5 -5.55 -18.05 -6.8 -13.5 -7.75 -6.3 -9.25 0.85 -9.25 11.85 -9.25 21.45 -5.55 22.6 -9.0 22.6 -12.7 22.6 -16.25 21.55 -19.5 L14.6 -17.25 15.05 -15.8 Q15.05 -14.8 14.35 -14.1 13.65 -13.4 12.65 -13.4 11.7 -13.4 10.95 -14.1 10.25 -14.8 10.25 -15.8 L10.25 -15.85 7.6 -15.0 6.95 -14.9 Q5.35 -14.9 4.85 -16.45 4.55 -17.3 4.95 -18.1 5.4 -18.95 6.25 -19.2 L19.8 -23.55 Q17.65 -27.5 14.15 -30.35 10.6 -33.2 6.25 -34.45 L15.5 -28.15 15.95 -27.45 Q16.05 -27.0 15.8 -26.6 15.45 -26.15 14.85 -26.15 L14.25 -26.35 1.55 -35.0 1.2 -35.3 -0.05 -35.35 -1.1 -35.3 11.05 -27.05 11.5 -26.35 Q11.6 -25.85 11.35 -25.5 11.05 -25.05 10.45 -25.05 L9.8 -25.2 -4.05 -34.65 -4.3 -34.95 -5.85 -34.6 5.4 -26.9 Q5.8 -26.65 5.85 -26.2 L5.7 -25.35 Q5.4 -24.9 4.8 -24.9 4.4 -24.9 4.15 -25.1 L-8.5 -33.7" fill="#000000" fill-rule="evenodd" stroke="none"/>
    <path d="M-6.95 -19.2 L-19.95 -23.4 Q-16.15 -30.6 -8.5 -33.7 L4.15 -25.1 Q4.4 -24.9 4.8 -24.9 5.4 -24.9 5.7 -25.35 L5.85 -26.2 Q5.8 -26.65 5.4 -26.9 L-5.85 -34.6 -4.3 -34.95 -4.05 -34.65 9.8 -25.2 10.45 -25.05 Q11.05 -25.05 11.35 -25.5 11.6 -25.85 11.5 -26.35 L11.05 -27.05 -1.1 -35.3 -0.05 -35.35 1.2 -35.3 1.55 -35.0 14.25 -26.35 14.85 -26.15 Q15.45 -26.15 15.8 -26.6 16.05 -27.0 15.95 -27.45 L15.5 -28.15 6.25 -34.45 Q10.6 -33.2 14.15 -30.35 17.65 -27.5 19.8 -23.55 L6.25 -19.2 Q5.4 -18.95 4.95 -18.1 4.55 -17.3 4.85 -16.45 5.35 -14.9 6.95 -14.9 L7.6 -15.0 10.25 -15.85 10.25 -15.8 Q10.25 -14.8 10.95 -14.1 11.7 -13.4 12.65 -13.4 13.65 -13.4 14.35 -14.1 15.05 -14.8 15.05 -15.8 L14.6 -17.25 21.55 -19.5 Q22.6 -16.25 22.6 -12.7 22.6 -9.0 21.45 -5.55 11.85 -9.25 0.85 -9.25 -6.3 -9.25 -13.5 -7.75 -18.05 -6.8 -21.5 -5.55 -22.65 -9.0 -22.65 -12.7 -22.65 -15.95 -21.7 -19.3 L-14.95 -17.15 Q-15.35 -16.5 -15.35 -15.8 -15.35 -14.8 -14.65 -14.1 -13.95 -13.4 -12.95 -13.4 -12.0 -13.4 -11.3 -14.1 -10.6 -14.75 -10.55 -15.75 L-8.3 -15.0 -7.6 -14.9 Q-6.9 -14.9 -6.3 -15.3 -5.7 -15.75 -5.5 -16.45 -5.25 -17.3 -5.65 -18.1 -6.05 -18.95 -6.95 -19.2" fill="#ffffff" fill-rule="evenodd" stroke="none"/>
    <path d="M-0.05 10.0 Q-6.9 9.95 -12.55 6.2 -18.05 2.55 -20.7 -3.5 L-19.9 -3.75 Q-10.0 -7.05 0.85 -7.05 11.3 -7.05 20.65 -3.5 17.95 2.55 12.45 6.2 6.8 9.95 -0.05 10.0" fill="#ffffff" fill-rule="evenodd" stroke="none"/>
  </g>
</svg>
