<?xml version="1.0" encoding="UTF-8" standalone="no"?>
<svg xmlns:xlink="http://www.w3.org/1999/xlink" height="98.7px" width="72.3px" xmlns="http://www.w3.org/2000/svg">
  <g transform="matrix(1.0, 0.0, 0.0, 1.0, 36.15, 49.35)">
    <path d="M7.15 -5.9 L7.15 -3.35 -1.35 -3.35 -1.35 -7.6 7.15 -5.9" fill="#ffffff" fill-rule="evenodd" stroke="none"/>
    <path d="M8.25 -3.35 L8.25 -5.65 15.7 -4.2 15.7 -3.35 8.25 -3.35" fill="#ffffff" fill-rule="evenodd" stroke="none"/>
    <path d="M15.7 1.15 L15.7 6.45 -17.75 6.45 -17.75 3.4 15.7 1.15" fill="#ffffff" fill-rule="evenodd" stroke="none"/>
    <path d="M-17.75 1.2 L-17.75 -2.25 -12.2 -2.25 -12.2 0.8 -17.75 1.2" fill="#ffffff" fill-rule="evenodd" stroke="none"/>
    <path d="M-11.15 0.75 L-11.15 -2.25 -2.4 -2.25 -2.4 0.15 -11.15 0.75" fill="#ffffff" fill-rule="evenodd" stroke="none"/>
    <path d="M15.7 -2.25 L15.7 -1.1 8.25 -0.55 8.25 -2.25 15.7 -2.25" fill="#ffffff" fill-rule="evenodd" stroke="none"/>
    <path d="M7.15 -2.25 L7.15 -0.5 -1.35 0.05 -1.35 -2.25 7.15 -2.25" fill="#ffffff" fill-rule="evenodd" stroke="none"/>
    <path d="M-11.15 -3.35 L-11.15 -9.55 -2.4 -7.8 -2.4 -3.35 -11.15 -3.35" fill="#ffffff" fill-rule="evenodd" stroke="none"/>
    <path d="M-17.75 -13.15 L-17.75 -29.7 -2.9 -29.7 -2.9 -15.7 -5.95 -15.7 Q-6.65 -15.7 -7.2 -15.2 -7.7 -14.65 -7.7 -13.95 -7.7 -13.2 -7.2 -12.65 -6.65 -12.15 -5.95 -12.15 L2.65 -12.15 Q3.35 -12.15 3.9 -12.65 4.4 -13.2 4.4 -13.95 4.4 -14.65 3.9 -15.2 3.35 -15.7 2.65 -15.7 L-0.7 -15.7 -0.7 -29.7 15.7 -29.7 15.7 -6.45 -17.75 -13.15" fill="#ffffff" fill-rule="evenodd" stroke="none"/>
    <path d="M-17.75 -33.0 L-17.75 -45.35 15.7 -45.35 15.7 -33.0 -17.75 -33.0" fill="#ffffff" fill-rule="evenodd" stroke="none"/>
    <path d="M-17.75 -3.35 L-17.75 -10.85 -12.2 -9.75 -12.2 -3.35 -17.75 -3.35" fill="#ffffff" fill-rule="evenodd" stroke="none"/>
    <path d="M-12.2 0.8 L-12.2 -2.25 -17.75 -2.25 -17.75 1.2 -12.2 0.8 M-12.2 -3.35 L-12.2 -9.75 -17.75 -10.85 -17.75 -3.35 -12.2 -3.35 M-2.4 -3.35 L-2.4 -7.8 -11.15 -9.55 -11.15 -3.35 -2.4 -3.35 M-2.4 0.15 L-2.4 -2.25 -11.15 -2.25 -11.15 0.75 -2.4 0.15 M15.7 6.45 L15.7 1.15 -17.75 3.4 -17.75 6.45 15.7 6.45 M7.15 -3.35 L7.15 -5.9 -1.35 -7.6 -1.35 -3.35 7.15 -3.35 M15.7 -3.35 L15.7 -4.2 8.25 -5.65 8.25 -3.35 15.7 -3.35 M8.25 -2.25 L8.25 -0.55 15.7 -1.1 15.7 -2.25 8.25 -2.25 M7.15 -0.5 L7.15 -2.25 -1.35 -2.25 -1.35 0.05 7.15 -0.5 M-17.75 -45.35 L-17.75 -33.0 15.7 -33.0 15.7 -45.35 -17.75 -45.35 M-17.75 -29.7 L-17.75 -13.15 15.7 -6.45 15.7 -29.7 -0.7 -29.7 -0.7 -15.7 2.65 -15.7 Q3.35 -15.7 3.9 -15.2 4.4 -14.65 4.4 -13.95 4.4 -13.2 3.9 -12.65 3.35 -12.15 2.65 -12.15 L-5.95 -12.15 Q-6.65 -12.15 -7.2 -12.65 -7.7 -13.2 -7.7 -13.95 -7.7 -14.65 -7.2 -15.2 -6.65 -15.7 -5.95 -15.7 L-2.9 -15.7 -2.9 -29.7 -17.75 -29.7 M-29.15 -21.75 L-21.75 -21.75 -21.75 -49.35 19.7 -49.35 19.7 -21.35 26.95 -21.15 36.15 48.95 -36.15 49.35 -29.15 -21.75 M-21.95 -17.75 L-25.5 -17.75 -29.3 20.65 Q-19.95 17.8 -8.35 16.9 10.75 15.45 28.35 20.45 L23.45 -17.25 20.35 -17.3 19.65 10.45 -21.75 10.45 -21.95 -17.75" fill="#000000" fill-rule="evenodd" stroke="none"/>
    <path d="M-25.5 -17.75 L-21.95 -17.75 -21.75 10.45 19.65 10.45 20.35 -17.3 23.45 -17.25 28.35 20.45 Q10.75 15.45 -8.35 16.9 -19.95 17.8 -29.3 20.65 L-25.5 -17.75" fill="#ffffff" fill-rule="evenodd" stroke="none"/>
  </g>
</svg>
