<?xml version="1.0" encoding="UTF-8" standalone="no"?>
<svg xmlns:xlink="http://www.w3.org/1999/xlink" height="118.25px" width="60.2px" xmlns="http://www.w3.org/2000/svg">
  <g transform="matrix(1.0, 0.0, 0.0, 1.0, 30.1, 59.15)">
    <path d="M-24.25 -22.9 Q-22.25 -32.25 -18.7 -39.55 -20.15 -35.95 -20.15 -31.95 -20.15 -27.2 -18.05 -22.9 L-24.25 -22.9" fill="#ffffff" fill-rule="evenodd" stroke="none"/>
    <path d="M19.95 -36.7 Q22.6 -30.5 24.25 -22.9 L18.4 -22.9 Q20.55 -27.3 20.55 -31.95 20.55 -34.05 19.95 -36.7" fill="#ffffff" fill-rule="evenodd" stroke="none"/>
    <path d="M-26.4 6.1 L-26.6 -0.45 Q-26.6 -10.65 -24.8 -20.3 L-12.4 4.05 -12.95 6.1 -26.4 6.1" fill="#ffffff" fill-rule="evenodd" stroke="none"/>
    <path d="M0.2 -52.3 Q-4.95 -52.25 -9.4 -49.85 -13.7 -47.55 -16.55 -43.5 -12.95 -49.4 -8.7 -52.55 -4.45 -55.7 0.0 -55.65 3.9 -55.7 7.8 -53.15 11.6 -50.65 14.95 -45.9 12.1 -48.9 8.35 -50.55 4.45 -52.25 0.2 -52.3" fill="#ffffff" fill-rule="evenodd" stroke="none"/>
    <path d="M11.55 4.5 L24.8 -20.1 Q26.6 -10.55 26.6 -0.45 L26.4 6.1 11.95 6.1 11.55 4.5" fill="#ffffff" fill-rule="evenodd" stroke="none"/>
    <path d="M26.4 6.1 L26.6 -0.45 Q26.6 -10.55 24.8 -20.1 L11.55 4.5 11.95 6.1 26.4 6.1 M0.35 -7.9 Q2.2 -7.9 3.8 -9.15 5.3 -10.4 6.15 -12.45 3.2 -11.6 0.2 -11.6 -2.75 -11.6 -5.4 -12.35 -4.55 -10.35 -3.05 -9.15 -1.5 -7.9 0.35 -7.9 M24.25 -22.9 Q22.6 -30.5 19.95 -36.7 20.55 -34.05 20.55 -31.95 20.55 -27.3 18.4 -22.9 L24.25 -22.9 M9.2 -19.15 Q13.15 -21.95 14.8 -26.45 L-14.45 -26.45 Q-12.75 -21.95 -8.8 -19.15 -4.75 -16.3 0.2 -16.25 5.15 -16.3 9.2 -19.15 M-26.6 -0.45 L-26.4 6.1 -12.95 6.1 -12.4 4.05 -24.8 -20.3 Q-26.6 -10.65 -26.6 -0.45 M-15.45 -31.95 Q-15.45 -30.25 -15.05 -28.4 L14.85 -28.4 14.85 -26.5 Q15.85 -29.35 15.85 -31.95 15.8 -38.4 11.25 -43.0 6.65 -47.55 0.2 -47.6 -6.3 -47.55 -10.85 -43.0 -15.45 -38.4 -15.45 -31.95 M-20.15 -31.95 Q-20.15 -35.95 -18.7 -39.55 -22.25 -32.25 -24.25 -22.9 L-18.05 -22.9 Q-20.15 -27.2 -20.15 -31.95 M0.0 -55.65 Q-4.45 -55.7 -8.7 -52.55 -12.95 -49.4 -16.55 -43.5 -13.7 -47.55 -9.4 -49.85 -4.95 -52.25 0.2 -52.3 4.45 -52.25 8.35 -50.55 12.1 -48.9 14.95 -45.9 11.6 -50.65 7.8 -53.15 3.9 -55.7 0.0 -55.65 M27.8 -23.0 Q30.1 -12.2 30.1 -0.45 L29.75 8.0 29.65 9.6 12.85 9.6 25.35 59.1 -27.15 59.1 -13.9 9.6 -29.7 9.6 -29.8 8.0 -30.1 -0.45 Q-30.1 -12.2 -27.85 -23.0 -25.65 -33.4 -21.65 -41.5 -17.5 -49.75 -12.15 -54.25 -6.45 -59.1 0.0 -59.15 6.45 -59.1 12.15 -54.25 17.5 -49.7 21.6 -41.5 25.6 -33.4 27.8 -23.0" fill="#000000" fill-rule="evenodd" stroke="none"/>
    <path d="M-5.4 -12.35 Q-2.75 -11.6 0.2 -11.6 3.2 -11.6 6.15 -12.45 5.3 -10.4 3.8 -9.15 2.2 -7.9 0.35 -7.9 -1.5 -7.9 -3.05 -9.15 -4.55 -10.35 -5.4 -12.35" fill="#ffffff" fill-rule="evenodd" stroke="none"/>
    <path d="M-9.15 -31.4 Q-8.1 -31.4 -7.35 -32.15 -6.65 -32.9 -6.65 -33.9 -6.65 -34.95 -7.35 -35.65 -8.1 -36.4 -9.15 -36.4 -10.2 -36.4 -10.9 -35.65 -11.65 -34.95 -11.65 -33.9 -11.65 -32.9 -10.9 -32.15 -10.2 -31.4 -9.15 -31.4 M7.6 -35.65 Q6.85 -34.95 6.85 -33.9 6.85 -32.9 7.6 -32.15 8.3 -31.4 9.35 -31.4 10.4 -31.4 11.15 -32.15 11.85 -32.9 11.85 -33.9 11.85 -34.95 11.15 -35.65 10.4 -36.4 9.35 -36.4 8.3 -36.4 7.6 -35.65 M-15.05 -28.4 Q-15.45 -30.25 -15.45 -31.95 -15.45 -38.4 -10.85 -43.0 -6.3 -47.55 0.2 -47.6 6.65 -47.55 11.25 -43.0 15.8 -38.4 15.85 -31.95 15.85 -29.35 14.85 -26.5 L14.85 -28.4 -15.05 -28.4" fill="#ffffff" fill-rule="evenodd" stroke="none"/>
    <path d="M0.2 -16.25 Q-4.75 -16.3 -8.8 -19.15 -12.75 -21.95 -14.45 -26.45 L14.8 -26.45 Q13.15 -21.95 9.2 -19.15 5.15 -16.3 0.2 -16.25" fill="#ffffff" fill-rule="evenodd" stroke="none"/>
    <path d="M-9.15 -36.4 Q-8.1 -36.4 -7.35 -35.65 -6.65 -34.95 -6.65 -33.9 -6.65 -32.9 -7.35 -32.15 -8.1 -31.4 -9.15 -31.4 -10.2 -31.4 -10.9 -32.15 -11.65 -32.9 -11.65 -33.9 -11.65 -34.95 -10.9 -35.65 -10.2 -36.4 -9.15 -36.4" fill="#000000" fill-rule="evenodd" stroke="none"/>
    <path d="M9.35 -36.4 Q10.4 -36.4 11.15 -35.65 11.85 -34.95 11.85 -33.9 11.85 -32.9 11.15 -32.15 10.4 -31.4 9.35 -31.4 8.3 -31.4 7.6 -32.15 6.85 -32.9 6.85 -33.9 6.85 -34.95 7.6 -35.65 8.3 -36.4 9.35 -36.4" fill="#000000" fill-rule="evenodd" stroke="none"/>
  </g>
</svg>
