<?xml version="1.0" encoding="UTF-8" standalone="no"?>
<svg xmlns:xlink="http://www.w3.org/1999/xlink" height="115.55px" width="83.0px" xmlns="http://www.w3.org/2000/svg">
  <g transform="matrix(1.0, 0.0, 0.0, 1.0, 41.5, 57.8)">
    <path d="M5.75 16.75 Q6.65 16.75 7.3 16.1 7.95 15.45 7.95 14.5 7.95 13.6 7.3 12.95 6.65 12.3 5.75 12.3 4.8 12.3 4.15 12.95 3.5 13.6 3.5 14.5 3.5 15.45 4.15 16.1 4.8 16.75 5.75 16.75 M11.1 -46.55 Q10.2 -48.9 7.9 -50.75 4.05 -53.7 -1.6 -53.7 -7.25 -53.7 -11.1 -50.75 -13.35 -48.95 -14.25 -46.7 L-13.6 -46.05 -10.75 -43.8 Q-5.95 -40.6 -1.15 -40.6 5.3 -40.6 11.1 -46.55 M5.75 -1.0 Q6.65 -1.0 7.3 -1.65 7.95 -2.3 7.95 -3.25 7.95 -4.15 7.3 -4.8 6.65 -5.45 5.75 -5.45 4.8 -5.45 4.15 -4.8 3.5 -4.15 3.5 -3.25 3.5 -2.3 4.15 -1.65 4.8 -1.0 5.75 -1.0 M7.3 -19.1 Q7.95 -19.75 7.95 -20.65 7.95 -21.6 7.3 -22.25 6.65 -22.9 5.75 -22.9 4.8 -22.9 4.15 -22.25 3.5 -21.6 3.5 -20.65 3.5 -19.75 4.15 -19.1 4.8 -18.45 5.75 -18.45 6.65 -18.45 7.3 -19.1 M7.9 -37.55 Q11.15 -40.0 11.45 -43.4 5.5 -38.05 -1.15 -38.05 -8.25 -38.1 -14.7 -43.65 -14.45 -40.15 -11.1 -37.55 -7.2 -34.55 -1.6 -34.55 4.0 -34.55 7.9 -37.55 M10.35 -53.95 L11.9 -52.6 39.65 -52.6 39.65 -48.0 15.55 -48.0 15.55 -45.35 39.65 -45.35 39.65 57.1 -1.55 57.1 -1.55 -30.45 -1.6 -30.45 -4.1 -30.6 -4.1 57.1 -40.85 57.1 -40.85 -45.4 -18.05 -45.4 -18.05 -47.95 -40.85 -47.95 -40.85 -52.6 -15.15 -52.6 -13.55 -53.95 Q-8.6 -57.8 -1.6 -57.8 5.4 -57.8 10.35 -53.95" fill="#000000" fill-rule="evenodd" stroke="none"/>
    <path d="M-1.6 -30.45 L-1.55 -30.45 -1.55 57.75 -4.1 57.75 -4.1 -30.6 -1.6 -30.45" fill="#ffffff" fill-rule="evenodd" stroke="none"/>
    <path d="M-7.6 -48.3 L-8.35 -48.0 -8.7 -47.25 Q-8.7 -46.8 -8.35 -46.5 -8.05 -46.2 -7.6 -46.2 -7.2 -46.2 -6.85 -46.5 -6.55 -46.8 -6.55 -47.25 L-6.85 -48.0 -7.6 -48.3 M7.9 -50.75 Q10.2 -48.9 11.1 -46.55 5.3 -40.6 -1.15 -40.6 -5.95 -40.6 -10.75 -43.8 L-13.6 -46.05 -14.25 -46.7 Q-13.35 -48.95 -11.1 -50.75 -7.25 -53.7 -1.6 -53.7 4.05 -53.7 7.9 -50.75 M3.25 -46.2 Q3.7 -46.2 4.05 -46.5 4.35 -46.8 4.35 -47.25 L4.05 -48.0 3.25 -48.3 2.5 -48.0 Q2.2 -47.65 2.2 -47.25 2.2 -46.8 2.5 -46.5 2.85 -46.2 3.25 -46.2" fill="#ffffff" fill-rule="evenodd" stroke="none"/>
    <path d="M11.45 -43.4 Q11.15 -40.0 7.9 -37.55 4.0 -34.55 -1.6 -34.55 -7.2 -34.55 -11.1 -37.55 -14.45 -40.15 -14.7 -43.65 -8.25 -38.1 -1.15 -38.05 5.5 -38.05 11.45 -43.4" fill="#ffffff" fill-rule="evenodd" stroke="none"/>
    <path d="M-7.6 -46.2 Q-8.05 -46.2 -8.35 -46.5 -8.7 -46.8 -8.7 -47.25 L-8.35 -48.0 -7.6 -48.3 -6.85 -48.0 -6.55 -47.25 Q-6.55 -46.8 -6.85 -46.5 -7.2 -46.2 -7.6 -46.2" fill="#000000" fill-rule="evenodd" stroke="none"/>
    <path d="M3.25 -48.3 L4.05 -48.0 4.35 -47.25 Q4.35 -46.8 4.05 -46.5 3.7 -46.2 3.25 -46.2 2.85 -46.2 2.5 -46.5 2.2 -46.8 2.2 -47.25 2.2 -47.65 2.5 -48.0 L3.25 -48.3" fill="#000000" fill-rule="evenodd" stroke="none"/>
    <path d="M5.75 -22.9 Q6.65 -22.9 7.3 -22.25 7.95 -21.6 7.95 -20.65 7.95 -19.75 7.3 -19.1 6.65 -18.45 5.75 -18.45 4.8 -18.45 4.15 -19.1 3.5 -19.75 3.5 -20.65 3.5 -21.6 4.15 -22.25 4.8 -22.9 5.75 -22.9" fill="#ffffff" fill-rule="evenodd" stroke="none"/>
    <path d="M5.75 -5.45 Q6.65 -5.45 7.3 -4.8 7.95 -4.15 7.95 -3.25 7.95 -2.3 7.3 -1.65 6.65 -1.0 5.75 -1.0 4.8 -1.0 4.15 -1.65 3.5 -2.3 3.5 -3.25 3.5 -4.15 4.15 -4.8 4.8 -5.45 5.75 -5.45" fill="#ffffff" fill-rule="evenodd" stroke="none"/>
    <path d="M5.75 12.3 Q6.65 12.3 7.3 12.95 7.95 13.6 7.95 14.5 7.95 15.45 7.3 16.1 6.65 16.75 5.75 16.75 4.8 16.75 4.15 16.1 3.5 15.45 3.5 14.5 3.5 13.6 4.15 12.95 4.8 12.3 5.75 12.3" fill="#ffffff" fill-rule="evenodd" stroke="none"/>
    <path d="M-41.5 -45.4 L-41.5 -47.95 -18.05 -47.95 -18.05 -45.4 -41.5 -45.4" fill="#ffffff" fill-rule="evenodd" stroke="none"/>
    <path d="M15.55 -45.35 L15.55 -48.0 41.5 -48.0 41.5 -45.35 15.55 -45.35" fill="#ffffff" fill-rule="evenodd" stroke="none"/>
  </g>
</svg>
