<?xml version="1.0" encoding="UTF-8" standalone="no"?>
<svg xmlns:xlink="http://www.w3.org/1999/xlink" height="136.0px" width="68.0px" xmlns="http://www.w3.org/2000/svg">
  <g transform="matrix(1.0, 0.0, 0.0, 1.0, 34.0, 68.0)">
    <path d="M12.35 -46.8 L-13.05 -46.8 -15.2 -25.3 14.45 -25.3 12.35 -46.8 M-15.5 -22.1 L-17.9 2.6 17.2 2.6 14.75 -22.1 -15.5 -22.1 M6.0 -59.1 L17.0 -65.15 15.2 -57.0 28.7 -58.4 21.25 -49.9 29.05 -47.1 17.7 -41.1 20.1 -16.6 34.0 -16.6 27.95 65.55 0.0 65.55 0.0 7.1 -2.15 7.1 -2.15 65.55 -28.7 65.55 -34.0 -16.6 -20.85 -16.6 -18.6 -39.4 -30.8 -46.35 -20.55 -51.35 -25.85 -63.75 -14.55 -58.05 -8.5 -67.6 -3.55 -59.5 4.6 -68.0 6.0 -59.1" fill="#000000" fill-rule="evenodd" stroke="none"/>
    <path d="M-15.2 -25.3 L-13.05 -46.8 12.35 -46.8 14.45 -25.3 -15.2 -25.3 M-8.5 -32.35 L-5.75 -32.35 Q-6.75 -31.85 -6.75 -30.8 -6.75 -30.05 -6.2 -29.5 -5.7 -29.0 -4.95 -29.0 -4.25 -29.0 -3.7 -29.5 -3.2 -30.05 -3.2 -30.8 -3.2 -31.85 -4.15 -32.35 L2.05 -32.35 Q1.05 -31.85 1.05 -30.8 1.05 -30.05 1.55 -29.5 2.1 -29.0 2.8 -29.0 3.55 -29.0 4.1 -29.5 4.6 -30.05 4.6 -30.8 4.6 -31.85 3.6 -32.35 L6.7 -32.35 6.7 -33.45 -8.5 -33.45 -8.5 -32.35" fill="#ffffff" fill-rule="evenodd" stroke="none"/>
    <path d="M-17.9 2.6 L-15.5 -22.1 14.75 -22.1 17.2 2.6 -17.9 2.6" fill="#ffffff" fill-rule="evenodd" stroke="none"/>
    <path d="M-4.15 -32.35 Q-3.2 -31.85 -3.2 -30.8 -3.2 -30.05 -3.7 -29.5 -4.25 -29.0 -4.95 -29.0 -5.7 -29.0 -6.2 -29.5 -6.75 -30.05 -6.75 -30.8 -6.75 -31.85 -5.75 -32.35 L-8.5 -32.35 -8.5 -33.45 6.7 -33.45 6.7 -32.35 3.6 -32.35 Q4.6 -31.85 4.6 -30.8 4.6 -30.05 4.1 -29.5 3.55 -29.0 2.8 -29.0 2.1 -29.0 1.55 -29.5 1.05 -30.05 1.05 -30.8 1.05 -31.85 2.05 -32.35 L-4.15 -32.35" fill="#000000" fill-rule="evenodd" stroke="none"/>
    <path d="M-2.15 7.1 L0.0 7.1 0.0 68.0 -2.15 68.0 -2.15 7.1" fill="#ffffff" fill-rule="evenodd" stroke="none"/>
  </g>
</svg>
