<?xml version="1.0" encoding="UTF-8" standalone="no"?>
<svg xmlns:xlink="http://www.w3.org/1999/xlink" height="89.75px" width="54.85px" xmlns="http://www.w3.org/2000/svg">
  <g transform="matrix(1.0, 0.0, 0.0, 1.0, 27.4, 44.9)">
    <path d="M-9.2 -25.4 Q-10.25 -24.2 -10.25 -22.1 -10.25 -20.4 -9.5 -19.25 -8.75 -18.05 -7.75 -18.05 -6.7 -18.05 -5.95 -19.25 -5.2 -20.4 -5.2 -22.1 L-5.25 -22.4 -4.35 -21.75 -2.95 -23.6 -19.95 -36.25 -19.95 -39.95 20.1 -39.6 19.9 -36.2 3.0 -23.65 4.4 -21.75 4.5 -21.85 Q4.55 -20.25 5.25 -19.15 6.0 -18.05 7.0 -18.05 8.0 -18.05 8.75 -19.25 9.5 -20.4 9.5 -22.1 9.5 -23.75 8.75 -25.0 L19.65 -33.1 Q18.4 -19.85 14.85 -9.35 12.1 -3.95 6.9 -0.05 L2.3 2.65 0.9 3.25 0.75 3.3 Q-2.15 3.05 -5.65 0.35 -8.6 -2.0 -11.45 -5.65 -12.9 -7.45 -14.95 -10.7 -19.0 -21.5 -19.8 -33.25 L-9.2 -25.4" fill="#ffffff" fill-rule="evenodd" stroke="none"/>
    <path d="M1.8 13.1 L0.45 14.3 Q-4.6 8.95 -8.6 2.45 -3.9 6.45 0.9 6.8 L1.2 6.85 1.5 6.75 4.15 5.6 Q7.3 4.1 10.05 1.9 L8.75 4.2 Q5.45 9.65 1.8 13.1" fill="#ffffff" fill-rule="evenodd" stroke="none"/>
    <path d="M0.45 14.3 L1.8 13.1 Q5.45 9.65 8.75 4.2 L10.05 1.9 Q7.3 4.1 4.15 5.6 L1.5 6.75 1.2 6.85 0.9 6.8 Q-3.9 6.45 -8.6 2.45 -4.6 8.95 0.45 14.3 M-27.4 -22.7 L-27.4 -37.4 -24.85 -37.4 -24.85 -38.25 -24.7 -42.7 -24.45 -44.9 25.2 -44.5 24.9 -37.4 27.45 -37.4 27.45 -22.7 23.2 -22.7 Q22.45 -18.2 21.2 -13.4 L21.2 44.85 -21.65 44.85 -21.65 -15.4 Q-22.6 -18.8 -23.35 -22.7 L-27.4 -22.7 M-2.95 -23.6 L-4.35 -21.75 -5.25 -22.4 -5.2 -22.1 Q-5.2 -20.4 -5.95 -19.25 -6.7 -18.05 -7.75 -18.05 -8.75 -18.05 -9.5 -19.25 -10.25 -20.4 -10.25 -22.1 -10.25 -24.2 -9.2 -25.4 L-19.8 -33.25 Q-19.0 -21.5 -14.95 -10.7 -12.9 -7.45 -11.45 -5.65 -8.6 -2.0 -5.65 0.35 -2.15 3.05 0.75 3.3 L0.9 3.25 2.3 2.65 6.9 -0.05 Q12.1 -3.95 14.85 -9.35 18.4 -19.85 19.65 -33.1 L8.75 -25.0 Q9.5 -23.75 9.5 -22.1 9.5 -20.4 8.75 -19.25 8.0 -18.05 7.0 -18.05 6.0 -18.05 5.25 -19.15 4.55 -20.25 4.5 -21.85 L4.4 -21.75 3.0 -23.65 19.9 -36.2 20.1 -39.6 -19.95 -39.95 -19.95 -36.25 -2.95 -23.6" fill="#000000" fill-rule="evenodd" stroke="none"/>
  </g>
</svg>
