<?xml version="1.0" encoding="UTF-8" standalone="no"?>
<svg xmlns:xlink="http://www.w3.org/1999/xlink" height="97.5px" width="151.0px" xmlns="http://www.w3.org/2000/svg">
  <g transform="matrix(1.0, 0.0, 0.0, 1.0, 75.5, 48.75)">
    <path d="M-1.85 -28.75 L-1.85 -35.6 -22.45 -35.6 Q-28.0 -28.05 -28.0 -18.75 -27.95 -7.15 -19.95 1.05 -11.9 9.25 -0.5 9.25 10.9 9.25 18.95 1.05 27.0 -7.15 27.0 -18.75 27.0 -28.15 21.45 -35.6 L0.4 -35.6 0.4 -28.75 20.9 -28.75 -0.8 -23.15 -22.4 -28.75 -1.85 -28.75 M-1.85 -45.0 L0.4 -45.0 0.4 -36.6 20.7 -36.6 Q17.3 -40.75 12.75 -43.3 23.55 -40.8 33.25 -34.3 42.75 -27.9 50.4 -18.15 60.2 -5.7 65.65 10.4 L-65.6 10.4 Q-60.25 -5.65 -50.4 -18.15 -43.0 -27.5 -33.95 -33.8 -24.7 -40.2 -14.45 -42.9 -18.55 -40.45 -21.7 -36.6 L-1.85 -36.6 -1.85 -45.0" fill="#ffffff" fill-rule="evenodd" stroke="none"/>
    <path d="M0.0 -48.75 Q15.45 -48.75 29.55 -41.15 43.15 -33.85 53.55 -20.6 63.95 -7.4 69.65 9.7 75.5 27.4 75.5 46.75 L75.5 48.75 -75.5 48.75 -75.5 46.75 Q-75.5 27.4 -69.6 9.7 -63.95 -7.4 -53.55 -20.6 -43.15 -33.85 -29.55 -41.15 -15.45 -48.75 0.0 -48.75 M0.4 -45.0 L-1.85 -45.0 -1.85 -36.6 -21.7 -36.6 Q-18.55 -40.45 -14.45 -42.9 -24.7 -40.2 -33.95 -33.8 -43.0 -27.5 -50.4 -18.15 -60.25 -5.65 -65.6 10.4 L65.65 10.4 Q60.2 -5.7 50.4 -18.15 42.75 -27.9 33.25 -34.3 23.55 -40.8 12.75 -43.3 17.3 -40.75 20.7 -36.6 L0.4 -36.6 0.4 -45.0" fill="#000000" fill-rule="evenodd" stroke="none"/>
    <path d="M-13.9 -22.7 Q-15.05 -23.3 -16.7 -23.4 L-19.55 -23.15 Q-20.75 -22.8 -20.8 -22.1 -20.85 -21.4 -19.75 -20.85 -18.6 -20.25 -16.95 -20.1 L-14.1 -20.35 Q-12.9 -20.7 -12.85 -21.4 -12.75 -22.1 -13.9 -22.7 M24.0 -18.75 Q24.0 -9.45 18.05 -2.45 9.1 -12.3 -1.45 -12.2 -7.4 -12.15 -13.1 -9.2 -17.05 -7.2 -20.35 -4.15 -25.0 -10.7 -25.0 -18.75 -25.0 -22.45 -23.9 -26.05 L-0.8 -20.05 22.9 -26.2 Q24.0 -22.5 24.0 -18.75 M18.45 -21.45 Q19.5 -22.25 19.3 -22.9 19.15 -23.55 17.9 -23.75 L15.05 -23.55 Q13.45 -23.2 12.4 -22.4 11.4 -21.7 11.55 -21.0 11.7 -20.35 12.95 -20.1 L15.8 -20.3 Q17.45 -20.7 18.45 -21.45" fill="#ffffff" fill-rule="evenodd" stroke="none"/>
    <path d="M-1.45 -6.55 Q6.65 -6.45 13.9 1.45 7.4 6.25 -0.5 6.25 -5.05 6.25 -9.25 4.6 -13.3 3.0 -16.6 0.05 -13.75 -2.45 -10.55 -4.15 -5.85 -6.6 -1.45 -6.55" fill="#ffffff" fill-rule="evenodd" stroke="none"/>
    <path d="M18.05 -2.45 Q24.0 -9.45 24.0 -18.75 24.0 -22.5 22.9 -26.2 L-0.8 -20.05 -23.9 -26.05 Q-25.0 -22.45 -25.0 -18.75 -25.0 -10.7 -20.35 -4.15 -17.05 -7.2 -13.1 -9.2 -7.4 -12.15 -1.45 -12.2 9.1 -12.3 18.05 -2.45 M13.9 1.45 Q6.65 -6.45 -1.45 -6.55 -5.85 -6.6 -10.55 -4.15 -13.75 -2.45 -16.6 0.05 -13.3 3.0 -9.25 4.6 -5.05 6.25 -0.5 6.25 7.4 6.25 13.9 1.45 M0.4 -28.75 L0.4 -35.6 21.45 -35.6 Q27.0 -28.15 27.0 -18.75 27.0 -7.15 18.95 1.05 10.9 9.25 -0.5 9.25 -11.9 9.25 -19.95 1.05 -27.95 -7.15 -28.0 -18.75 -28.0 -28.05 -22.45 -35.6 L-1.85 -35.6 -1.85 -28.75 -22.4 -28.75 -0.8 -23.15 20.9 -28.75 0.4 -28.75" fill="#000000" fill-rule="evenodd" stroke="none"/>
    <path d="M-16.95 -20.1 Q-18.6 -20.25 -19.75 -20.85 -20.85 -21.4 -20.8 -22.1 -20.75 -22.8 -19.55 -23.15 L-16.7 -23.4 Q-15.05 -23.3 -13.9 -22.7 -12.75 -22.1 -12.85 -21.4 -12.9 -20.7 -14.1 -20.35 L-16.95 -20.1" fill="#000000" fill-rule="evenodd" stroke="none"/>
    <path d="M15.8 -20.3 L12.95 -20.1 Q11.7 -20.35 11.55 -21.0 11.4 -21.7 12.4 -22.4 13.45 -23.2 15.05 -23.55 L17.9 -23.75 Q19.15 -23.55 19.3 -22.9 19.5 -22.25 18.45 -21.45 17.45 -20.7 15.8 -20.3" fill="#000000" fill-rule="evenodd" stroke="none"/>
  </g>
</svg>
