<?xml version="1.0" encoding="UTF-8" standalone="no"?>
<svg xmlns:xlink="http://www.w3.org/1999/xlink" height="101.35px" width="72.15px" xmlns="http://www.w3.org/2000/svg">
  <g transform="matrix(1.0, 0.0, 0.0, 1.0, 36.1, 50.7)">
    <path d="M33.95 16.7 L33.95 50.65 -34.4 50.65 -34.4 16.85 -32.6 16.15 Q-26.65 13.95 -19.6 12.45 -9.15 10.2 1.15 10.2 18.65 10.2 33.95 16.7" fill="#000000" fill-rule="evenodd" stroke="none"/>
    <path d="M13.0 -34.05 Q13.0 -34.9 12.4 -35.45 11.8 -36.05 10.95 -36.05 10.15 -36.05 9.55 -35.45 8.95 -34.85 8.95 -34.05 8.95 -33.2 9.55 -32.6 10.1 -32.0 10.95 -32.0 11.8 -32.0 12.4 -32.6 13.0 -33.2 13.0 -34.05 M-11.3 -32.6 Q-10.7 -33.2 -10.7 -34.05 -10.7 -34.85 -11.3 -35.45 -11.85 -36.05 -12.7 -36.05 -13.55 -36.05 -14.15 -35.45 -14.75 -34.9 -14.75 -34.05 -14.75 -33.2 -14.15 -32.6 -13.55 -32.0 -12.7 -32.0 -11.85 -32.0 -11.3 -32.6 M0.3 -46.65 Q6.7 -46.3 11.15 -41.65 15.6 -37.0 15.6 -30.55 15.6 -23.85 10.9 -19.1 6.15 -14.4 -0.55 -14.35 L-4.05 -14.75 Q-3.15 -15.75 -3.15 -17.05 -3.15 -18.35 -4.1 -19.35 -5.05 -20.3 -6.4 -20.3 -7.7 -20.3 -8.65 -19.4 -9.55 -18.45 -9.6 -17.15 -12.9 -19.35 -14.75 -22.85 -16.7 -26.4 -16.7 -30.55 -16.7 -36.9 -12.35 -41.55 -8.0 -46.15 -1.7 -46.65 L-1.7 -24.55 -5.05 -24.55 Q-5.55 -24.55 -5.9 -24.2 L-6.25 -23.35 Q-6.25 -22.85 -5.9 -22.5 -5.55 -22.15 -5.05 -22.15 L4.1 -22.15 Q4.6 -22.15 4.95 -22.5 5.3 -22.85 5.3 -23.35 5.3 -23.85 4.95 -24.2 4.6 -24.55 4.1 -24.55 L0.3 -24.55 0.3 -46.65" fill="#ffffff" fill-rule="evenodd" stroke="none"/>
    <path d="M-0.55 -50.7 Q7.8 -50.7 13.7 -44.8 19.6 -38.9 19.6 -30.55 19.6 -24.15 16.0 -19.0 L33.95 -14.05 33.95 14.5 Q18.6 8.2 1.15 8.2 -10.05 8.2 -21.35 10.75 -28.55 12.4 -34.4 14.7 L-34.4 -14.05 -16.95 -18.85 Q-20.7 -24.1 -20.7 -30.55 -20.7 -38.9 -14.8 -44.8 -8.9 -50.7 -0.55 -50.7 M11.15 -41.65 Q6.7 -46.3 0.3 -46.65 L0.3 -24.55 4.1 -24.55 Q4.6 -24.55 4.95 -24.2 5.3 -23.85 5.3 -23.35 5.3 -22.85 4.95 -22.5 4.6 -22.15 4.1 -22.15 L-5.05 -22.15 Q-5.55 -22.15 -5.9 -22.5 -6.25 -22.85 -6.25 -23.35 L-5.9 -24.2 Q-5.55 -24.55 -5.05 -24.55 L-1.7 -24.55 -1.7 -46.65 Q-8.0 -46.15 -12.35 -41.55 -16.7 -36.9 -16.7 -30.55 -16.7 -26.4 -14.75 -22.85 -12.9 -19.35 -9.6 -17.15 -9.55 -18.45 -8.65 -19.4 -7.7 -20.3 -6.4 -20.3 -5.05 -20.3 -4.1 -19.35 -3.15 -18.35 -3.15 -17.05 -3.15 -15.75 -4.05 -14.75 L-0.55 -14.35 Q6.15 -14.4 10.9 -19.1 15.6 -23.85 15.6 -30.55 15.6 -37.0 11.15 -41.65" fill="#000000" fill-rule="evenodd" stroke="none"/>
    <path d="M-10.7 -34.05 Q-10.7 -33.2 -11.3 -32.6 -11.85 -32.0 -12.7 -32.0 -13.55 -32.0 -14.15 -32.6 -14.75 -33.2 -14.75 -34.05 -14.75 -34.9 -14.15 -35.45 -13.55 -36.05 -12.7 -36.05 -11.85 -36.05 -11.3 -35.45 -10.7 -34.85 -10.7 -34.05" fill="#000000" fill-rule="evenodd" stroke="none"/>
    <path d="M8.95 -34.05 Q8.95 -34.85 9.55 -35.45 10.15 -36.05 10.95 -36.05 11.8 -36.05 12.4 -35.45 13.0 -34.9 13.0 -34.05 13.0 -33.2 12.4 -32.6 11.8 -32.0 10.95 -32.0 10.1 -32.0 9.55 -32.6 8.95 -33.2 8.95 -34.05" fill="#000000" fill-rule="evenodd" stroke="none"/>
    <path d="M-21.35 10.75 Q-10.05 8.2 1.15 8.2 18.6 8.2 33.95 14.5 L36.05 15.4 35.2 17.2 33.95 16.7 Q18.65 10.2 1.15 10.2 -9.15 10.2 -19.6 12.45 -26.65 13.95 -32.6 16.15 L-35.3 17.2 -36.1 15.4 -34.4 14.7 Q-28.55 12.4 -21.35 10.75" fill="#ffffff" fill-rule="evenodd" stroke="none"/>
  </g>
</svg>
