<?xml version="1.0" encoding="UTF-8" standalone="no"?>
<svg xmlns:xlink="http://www.w3.org/1999/xlink" height="100.75px" width="69.35px" xmlns="http://www.w3.org/2000/svg">
  <g transform="matrix(1.0, 0.0, 0.0, 1.0, 34.7, 50.4)">
    <path d="M24.35 0.8 L30.25 0.8 25.55 19.95 Q9.5 27.15 -9.4 24.4 -15.45 23.5 -21.15 21.7 L-26.2 19.8 -30.45 0.8 -24.1 0.8 Q-20.65 4.9 -16.15 7.7 -13.15 11.15 -8.95 13.05 -4.65 15.05 0.15 15.05 4.95 15.05 9.25 13.05 13.4 11.15 16.4 7.7 20.85 5.0 24.35 0.8" fill="#ffffff" fill-rule="evenodd" stroke="none"/>
    <path d="M15.5 -16.25 Q12.8 -20.5 8.25 -22.75 L0.15 -14.6 -8.0 -22.75 Q-12.5 -20.5 -15.2 -16.25 -17.95 -11.85 -17.95 -6.6 -17.95 0.3 -13.35 5.45 -8.8 10.55 -2.0 11.35 L-2.1 10.85 Q-2.1 10.05 -1.5 9.45 -0.9 8.85 -0.1 8.85 0.75 8.85 1.3 9.45 1.9 10.05 1.9 10.85 L1.8 11.4 Q8.75 10.75 13.5 5.6 18.25 0.45 18.25 -6.6 18.25 -11.85 15.5 -16.25 M30.25 0.8 L24.35 0.8 Q20.85 5.0 16.4 7.7 13.4 11.15 9.25 13.05 4.95 15.05 0.15 15.05 -4.65 15.05 -8.95 13.05 -13.15 11.15 -16.15 7.7 -20.65 4.9 -24.1 0.8 L-30.45 0.8 -26.2 19.8 -21.15 21.7 Q-15.45 23.5 -9.4 24.4 9.5 27.15 25.55 19.95 L30.25 0.8 M31.45 -19.1 Q31.45 -10.2 26.8 -2.65 L34.65 -2.65 21.65 50.35 -22.95 50.35 -34.7 -2.65 -26.55 -2.65 Q-31.2 -10.2 -31.2 -19.1 -31.2 -32.05 -22.0 -41.2 -12.8 -50.4 0.15 -50.4 13.1 -50.4 22.3 -41.2 31.45 -32.05 31.45 -19.1" fill="#000000" fill-rule="evenodd" stroke="none"/>
    <path d="M16.2 -7.65 Q15.95 -8.3 14.4 -8.25 12.9 -8.15 11.0 -7.35 9.15 -6.55 8.05 -5.5 6.9 -4.45 7.2 -3.8 7.5 -3.1 9.0 -3.2 10.55 -3.3 12.4 -4.1 14.25 -4.9 15.4 -5.95 16.5 -6.95 16.2 -7.65 M-3.45 2.85 Q-3.85 3.25 -3.85 3.8 -3.85 4.35 -3.45 4.7 -3.05 5.1 -2.55 5.1 L3.1 5.1 Q3.65 5.1 4.05 4.7 4.45 4.35 4.45 3.8 4.45 3.25 4.05 2.85 3.65 2.45 3.1 2.45 L-2.55 2.45 Q-3.1 2.45 -3.45 2.85 M-7.9 -5.5 Q-9.05 -6.55 -10.9 -7.35 -12.8 -8.15 -14.3 -8.25 -15.8 -8.3 -16.1 -7.65 -16.4 -6.95 -15.3 -5.95 -14.15 -4.9 -12.3 -4.1 -10.45 -3.3 -8.9 -3.2 -7.35 -3.1 -7.1 -3.8 -6.8 -4.45 -7.9 -5.5 M8.25 -22.75 Q12.8 -20.5 15.5 -16.25 18.25 -11.85 18.25 -6.6 18.25 0.45 13.5 5.6 8.75 10.75 1.8 11.4 L1.9 10.85 Q1.9 10.05 1.3 9.45 0.75 8.85 -0.1 8.85 -0.9 8.85 -1.5 9.45 -2.1 10.05 -2.1 10.85 L-2.0 11.35 Q-8.8 10.55 -13.35 5.45 -17.95 0.3 -17.95 -6.6 -17.95 -11.85 -15.2 -16.25 -12.5 -20.5 -8.0 -22.75 L0.15 -14.6 8.25 -22.75" fill="#ffffff" fill-rule="evenodd" stroke="none"/>
    <path d="M-12.3 -4.1 Q-14.15 -4.9 -15.3 -5.95 -16.4 -6.95 -16.1 -7.65 -15.8 -8.3 -14.3 -8.25 -12.8 -8.15 -10.9 -7.35 -9.05 -6.55 -7.9 -5.5 -6.8 -4.45 -7.1 -3.8 -7.35 -3.1 -8.9 -3.2 -10.45 -3.3 -12.3 -4.1" fill="#000000" fill-rule="evenodd" stroke="none"/>
    <path d="M7.2 -3.8 Q6.9 -4.45 8.05 -5.5 9.15 -6.55 11.0 -7.35 12.9 -8.15 14.4 -8.25 15.95 -8.3 16.2 -7.65 16.5 -6.95 15.4 -5.95 14.25 -4.9 12.4 -4.1 10.55 -3.3 9.0 -3.2 7.5 -3.1 7.2 -3.8" fill="#000000" fill-rule="evenodd" stroke="none"/>
    <path d="M-3.85 3.8 Q-3.85 3.25 -3.45 2.85 -3.1 2.45 -2.55 2.45 L3.1 2.45 Q3.65 2.45 4.05 2.85 4.45 3.25 4.45 3.8 4.45 4.35 4.05 4.7 3.65 5.1 3.1 5.1 L-2.55 5.1 Q-3.05 5.1 -3.45 4.7 -3.85 4.35 -3.85 3.8" fill="#000000" fill-rule="evenodd" stroke="none"/>
  </g>
</svg>
