<?xml version="1.0" encoding="UTF-8" standalone="no"?>
<svg xmlns:xlink="http://www.w3.org/1999/xlink" height="89.85px" width="80.1px" xmlns="http://www.w3.org/2000/svg">
  <g transform="matrix(1.0, 0.0, 0.0, 1.0, 40.05, 44.95)">
    <path d="M-31.35 -13.55 L-27.7 -13.55 -27.7 -5.95 Q-27.7 -0.1 -23.55 4.05 -19.45 8.15 -13.6 8.15 L13.2 8.15 Q19.05 8.15 23.2 4.05 27.3 -0.1 27.3 -5.95 L27.3 -13.55 31.2 -13.55 34.1 17.0 -34.2 17.0 -31.35 -13.55" fill="#ffffff" fill-rule="evenodd" stroke="none"/>
    <path d="M13.2 3.3 L-13.6 3.3 Q-17.3 3.3 -20.0 0.7 L19.6 0.7 Q16.9 3.3 13.2 3.3" fill="#ffffff" fill-rule="evenodd" stroke="none"/>
    <path d="M14.35 -31.4 Q15.0 -30.8 15.85 -30.8 16.7 -30.8 17.35 -31.4 17.95 -32.05 17.95 -32.9 17.95 -33.9 17.2 -34.55 L20.35 -35.8 20.75 -36.15 Q22.45 -33.65 22.45 -30.8 L22.45 -5.95 Q22.45 -3.5 21.15 -1.25 L-21.55 -1.25 Q-22.85 -3.5 -22.85 -5.95 L-22.85 -30.8 Q-22.85 -33.25 -21.6 -35.45 L-18.65 -34.25 Q-19.15 -33.65 -19.15 -32.9 -19.15 -32.05 -18.55 -31.4 -17.9 -30.8 -17.05 -30.8 -16.25 -30.8 -15.6 -31.4 -15.0 -31.95 -14.95 -32.75 L-13.55 -32.2 -13.2 -32.15 Q-12.45 -32.15 -12.25 -32.75 -12.1 -33.1 -12.25 -33.5 L-12.8 -34.0 -20.4 -37.05 Q-17.65 -40.05 -13.6 -40.05 L13.2 -40.05 Q16.85 -40.05 19.5 -37.55 L10.6 -34.0 Q10.2 -33.85 10.05 -33.5 9.9 -33.1 10.05 -32.75 10.35 -32.15 11.0 -32.15 L11.35 -32.2 13.75 -33.2 13.75 -32.9 Q13.75 -32.05 14.35 -31.4" fill="#ffffff" fill-rule="evenodd" stroke="none"/>
    <path d="M-20.0 0.7 Q-17.3 3.3 -13.6 3.3 L13.2 3.3 Q16.9 3.3 19.6 0.7 L-20.0 0.7 M15.85 -30.8 Q15.0 -30.8 14.35 -31.4 13.75 -32.05 13.75 -32.9 L13.75 -33.2 11.35 -32.2 11.0 -32.15 Q10.35 -32.15 10.05 -32.75 9.9 -33.1 10.05 -33.5 10.2 -33.85 10.6 -34.0 L19.5 -37.55 Q16.85 -40.05 13.2 -40.05 L-13.6 -40.05 Q-17.65 -40.05 -20.4 -37.05 L-12.8 -34.0 -12.25 -33.5 Q-12.1 -33.1 -12.25 -32.75 -12.45 -32.15 -13.2 -32.15 L-13.55 -32.2 -14.95 -32.75 Q-15.0 -31.95 -15.6 -31.4 -16.25 -30.8 -17.05 -30.8 -17.9 -30.8 -18.55 -31.4 -19.15 -32.05 -19.15 -32.9 -19.15 -33.65 -18.65 -34.25 L-21.6 -35.45 Q-22.85 -33.25 -22.85 -30.8 L-22.85 -5.95 Q-22.85 -3.5 -21.55 -1.25 L21.15 -1.25 Q22.45 -3.5 22.45 -5.95 L22.45 -30.8 Q22.45 -33.65 20.75 -36.15 L20.35 -35.8 17.2 -34.55 Q17.95 -33.9 17.95 -32.9 17.95 -32.05 17.35 -31.4 16.7 -30.8 15.85 -30.8 M-34.35 -16.75 L-27.7 -16.75 -27.7 -30.8 Q-27.7 -36.65 -23.55 -40.8 -19.45 -44.95 -13.6 -44.95 L13.2 -44.95 Q19.05 -44.95 23.2 -40.8 27.3 -36.65 27.3 -30.8 L27.3 -16.75 34.15 -16.75 40.05 44.9 -40.05 44.9 -34.35 -16.75 M-27.7 -5.95 L-27.7 -13.55 -31.35 -13.55 -34.2 17.0 34.1 17.0 31.2 -13.55 27.3 -13.55 27.3 -5.95 Q27.3 -0.1 23.2 4.05 19.05 8.15 13.2 8.15 L-13.6 8.15 Q-19.45 8.15 -23.55 4.05 -27.7 -0.1 -27.7 -5.95" fill="#000000" fill-rule="evenodd" stroke="none"/>
  </g>
</svg>
