<?xml version="1.0" encoding="UTF-8" standalone="no"?>
<svg xmlns:xlink="http://www.w3.org/1999/xlink" height="80.6px" width="82.5px" xmlns="http://www.w3.org/2000/svg">
  <g transform="matrix(1.0, 0.0, 0.0, 1.0, 41.25, 40.3)">
    <path d="M-15.35 12.45 Q-8.35 16.9 0.0 16.9 8.35 16.9 15.35 12.45 22.2 8.1 25.75 0.85 L26.8 1.7 Q32.0 6.05 34.85 11.6 37.75 17.3 37.75 23.6 37.75 26.2 37.2 28.85 16.25 21.2 -8.7 23.1 -23.9 24.2 -37.25 28.4 -37.75 25.8 -37.75 23.6 -37.75 17.35 -34.8 11.6 -32.0 6.05 -26.8 1.7 L-25.7 0.85 Q-22.15 8.1 -15.35 12.45" fill="#ffffff" fill-rule="evenodd" stroke="none"/>
    <path d="M0.0 16.9 Q-8.35 16.9 -15.35 12.45 -22.15 8.1 -25.7 0.85 L-26.8 1.7 Q-32.0 6.05 -34.8 11.6 -37.75 17.35 -37.75 23.6 -37.75 25.8 -37.25 28.4 -23.9 24.2 -8.7 23.1 16.25 21.2 37.2 28.85 37.75 26.2 37.75 23.6 37.75 17.3 34.85 11.6 32.0 6.05 26.8 1.7 L25.75 0.85 Q22.2 8.1 15.35 12.45 8.35 16.9 0.0 16.9 M16.25 -5.8 Q15.05 -7.65 12.8 -9.45 L10.85 -10.85 9.8 -8.85 Q9.1 -6.6 10.8 -5.2 12.15 -4.1 14.35 -4.85 15.45 -5.2 16.25 -5.8 M1.5 -13.75 L1.55 -11.5 Q2.0 -9.2 4.2 -8.75 5.9 -8.45 7.45 -10.15 L8.7 -11.95 Q6.7 -13.0 3.9 -13.45 L1.5 -13.75 M-1.5 -13.75 Q-5.5 -13.6 -8.65 -11.95 L-7.4 -10.15 Q-5.85 -8.45 -4.15 -8.75 -1.95 -9.2 -1.5 -11.5 L-1.5 -13.75 M-16.35 -5.8 L-14.45 -4.85 Q-12.25 -4.1 -10.9 -5.2 -9.2 -6.6 -9.9 -8.85 L-10.95 -10.85 Q-14.4 -8.8 -16.35 -5.8 M-7.65 -27.15 Q-7.0 -26.6 -7.0 -25.75 -7.0 -25.0 -7.5 -24.45 -8.05 -23.95 -8.8 -23.95 -9.6 -23.95 -10.1 -24.45 -10.65 -25.0 -10.65 -25.75 -10.65 -26.6 -10.0 -27.15 L-18.15 -27.15 Q-23.8 -20.5 -23.9 -11.7 -23.8 -3.35 -18.65 3.2 -19.3 1.15 -19.3 -0.75 -19.3 -7.1 -13.7 -11.6 -8.1 -16.1 -0.15 -16.1 7.8 -16.1 13.4 -11.6 19.0 -7.1 19.0 -0.75 19.0 1.7 18.1 3.85 23.9 -2.85 23.9 -11.7 23.9 -20.5 18.2 -27.15 L8.7 -27.15 Q9.35 -26.6 9.35 -25.75 9.35 -25.0 8.8 -24.45 8.25 -23.95 7.5 -23.95 6.75 -23.95 6.25 -24.45 5.7 -25.0 5.7 -25.75 5.7 -26.6 6.35 -27.15 L-7.65 -27.15 M15.65 -29.7 Q8.95 -35.5 0.0 -35.6 -8.95 -35.5 -15.65 -29.7 L15.65 -29.7 M20.25 -31.9 Q28.6 -23.55 28.6 -11.7 28.6 -6.85 27.1 -2.5 L29.05 -1.0 Q34.8 3.8 37.95 10.05 41.25 16.5 41.25 23.6 41.25 32.1 36.65 39.5 L36.15 40.3 -36.1 40.3 -36.65 39.5 Q-41.25 31.95 -41.25 23.6 -41.25 16.5 -37.95 10.05 -34.8 3.8 -29.05 -1.0 L-27.1 -2.5 Q-28.6 -7.1 -28.6 -11.7 -28.6 -23.55 -20.2 -31.9 -11.85 -40.3 0.0 -40.3 11.85 -40.3 20.25 -31.9" fill="#000000" fill-rule="evenodd" stroke="none"/>
    <path d="M0.0 -35.6 Q8.95 -35.5 15.65 -29.7 L-15.65 -29.7 Q-8.95 -35.5 0.0 -35.6" fill="#ffffff" fill-rule="evenodd" stroke="none"/>
    <path d="M-18.15 -27.15 L-10.0 -27.15 Q-10.65 -26.6 -10.65 -25.75 -10.65 -25.0 -10.1 -24.45 -9.6 -23.95 -8.8 -23.95 -8.05 -23.95 -7.5 -24.45 -7.0 -25.0 -7.0 -25.75 -7.0 -26.6 -7.65 -27.15 L6.35 -27.15 Q5.7 -26.6 5.7 -25.75 5.7 -25.0 6.25 -24.45 6.75 -23.95 7.5 -23.95 8.25 -23.95 8.8 -24.45 9.35 -25.0 9.35 -25.75 9.35 -26.6 8.7 -27.15 L18.2 -27.15 Q23.9 -20.5 23.9 -11.7 23.9 -2.85 18.1 3.85 19.0 1.7 19.0 -0.75 19.0 -7.1 13.4 -11.6 7.8 -16.1 -0.15 -16.1 -8.1 -16.1 -13.7 -11.6 -19.3 -7.1 -19.3 -0.75 -19.3 1.15 -18.65 3.2 -23.8 -3.35 -23.9 -11.7 -23.8 -20.5 -18.15 -27.15" fill="#ffffff" fill-rule="evenodd" stroke="none"/>
    <path d="M-4.15 -8.75 Q-5.85 -8.45 -7.4 -10.15 L-8.65 -11.95 Q-5.5 -13.6 -1.5 -13.75 L-1.5 -11.5 Q-1.95 -9.2 -4.15 -8.75" fill="#ffffff" fill-rule="evenodd" stroke="none"/>
    <path d="M-10.9 -5.2 Q-12.25 -4.1 -14.45 -4.85 L-16.35 -5.8 Q-14.4 -8.8 -10.95 -10.85 L-9.9 -8.85 Q-9.2 -6.6 -10.9 -5.2" fill="#ffffff" fill-rule="evenodd" stroke="none"/>
    <path d="M10.8 -5.2 Q9.1 -6.6 9.8 -8.85 L10.85 -10.85 12.8 -9.45 Q15.05 -7.65 16.25 -5.8 15.45 -5.2 14.35 -4.85 12.15 -4.1 10.8 -5.2" fill="#ffffff" fill-rule="evenodd" stroke="none"/>
    <path d="M4.2 -8.75 Q2.0 -9.2 1.55 -11.5 L1.5 -13.75 3.9 -13.45 Q6.7 -13.0 8.7 -11.95 L7.45 -10.15 Q5.9 -8.45 4.2 -8.75" fill="#ffffff" fill-rule="evenodd" stroke="none"/>
  </g>
</svg>
