<?xml version="1.0" encoding="UTF-8" standalone="no"?>
<svg xmlns:xlink="http://www.w3.org/1999/xlink" height="120.0px" width="87.95px" xmlns="http://www.w3.org/2000/svg">
  <g transform="matrix(1.0, 0.0, 0.0, 1.0, 43.95, 60.0)">
    <path d="M-37.5 -39.25 L-36.35 -39.4 -34.7 -39.8 -32.9 -28.95 -32.95 -28.5 -35.65 -28.5 -37.5 -39.25" fill="#ffffff" fill-rule="evenodd" stroke="none"/>
    <path d="M-38.95 -43.35 Q-39.0 -43.9 -38.55 -44.4 -38.05 -44.95 -37.3 -45.05 -36.35 -45.2 -35.65 -44.75 L-35.15 -44.0 Q-35.1 -43.5 -35.4 -43.1 -35.9 -42.45 -36.8 -42.3 -37.75 -42.15 -38.45 -42.6 -38.9 -42.95 -38.95 -43.35" fill="#ffffff" fill-rule="evenodd" stroke="none"/>
    <path d="M9.5 17.5 L27.0 27.8 26.0 32.1 -28.0 32.0 -28.9 27.5 -11.3 17.5 9.5 17.5" fill="#ffffff" fill-rule="evenodd" stroke="none"/>
    <path d="M31.2 -17.6 Q31.5 -20.2 31.4 -23.65 L39.15 -23.65 29.25 18.25 18.8 10.15 25.35 -16.0 31.0 -16.0 31.2 -17.6" fill="#ffffff" fill-rule="evenodd" stroke="none"/>
    <path d="M-12.6 -4.9 L-15.85 -12.7 Q-9.35 -7.25 -0.9 -7.25 4.5 -7.25 9.35 -9.65 14.0 -11.95 17.3 -16.0 L17.35 -16.0 10.8 -4.9 -12.6 -4.9" fill="#ffffff" fill-rule="evenodd" stroke="none"/>
    <path d="M-39.25 -24.65 L-33.4 -24.65 -33.65 -18.5 -33.65 -16.6 -26.2 -16.85 -20.3 11.75 -30.35 20.15 -39.25 -24.65" fill="#ffffff" fill-rule="evenodd" stroke="none"/>
    <path d="M26.0 32.1 L27.0 27.8 9.5 17.5 -11.3 17.5 -28.9 27.5 -28.0 32.0 26.0 32.1 M31.2 -17.6 L31.0 -16.0 25.35 -16.0 18.8 10.15 29.25 18.25 39.15 -23.65 31.4 -23.65 Q31.5 -20.2 31.2 -17.6 M24.5 -19.65 L24.5 -20.95 Q24.5 -29.45 22.55 -36.95 L20.65 -19.65 24.5 -19.65 M-15.85 -12.7 L-12.6 -4.9 10.8 -4.9 17.35 -16.0 17.3 -16.0 Q14.0 -11.95 9.35 -9.65 4.5 -7.25 -0.9 -7.25 -9.35 -7.25 -15.85 -12.7 M-10.95 1.65 L-10.95 10.75 -5.15 7.95 -3.6 9.3 -6.9 14.05 4.0 14.05 0.6 9.2 Q1.45 8.7 1.95 7.8 L8.05 10.75 8.05 1.65 1.7 4.7 Q1.25 4.05 0.4 3.65 L4.0 -1.6 -6.9 -1.6 -3.35 3.5 -4.9 4.6 -10.95 1.65 M-33.65 -18.5 L-33.4 -24.65 -39.25 -24.65 -30.35 20.15 -20.3 11.75 -26.2 -16.85 -33.65 -16.6 -33.65 -18.5 M-26.55 -20.5 L-23.55 -20.6 -23.55 -37.85 Q-26.4 -30.25 -26.55 -20.5 M-22.1 -39.8 L-17.45 -40.45 Q-14.9 -49.65 -6.4 -55.65 L-8.75 -55.0 Q-18.2 -50.15 -22.85 -39.65 L-22.1 -39.8 M-23.15 -41.25 Q-19.8 -48.25 -14.0 -52.75 -17.3 -50.95 -19.95 -48.35 -29.5 -38.95 -29.95 -20.4 L-27.5 -20.45 Q-27.35 -32.55 -23.15 -41.25 M-36.35 -39.4 L-37.5 -39.25 -35.65 -28.5 -32.95 -28.5 -32.9 -28.95 -34.7 -39.8 -36.35 -39.4 M-36.8 -42.3 Q-35.9 -42.45 -35.4 -43.1 -35.1 -43.5 -35.15 -44.0 L-35.65 -44.75 Q-36.35 -45.2 -37.3 -45.05 -38.05 -44.95 -38.55 -44.4 -39.0 -43.9 -38.95 -43.35 -38.9 -42.95 -38.45 -42.6 -37.75 -42.15 -36.8 -42.3 M20.2 -46.8 L18.65 -48.5 Q22.9 -42.1 24.55 -32.15 25.6 -25.9 25.45 -19.65 L27.7 -19.65 27.75 -22.2 Q27.75 -28.3 26.45 -33.75 24.55 -41.6 20.2 -46.8 M14.0 -35.65 L14.1 -35.65 Q4.2 -37.6 -6.75 -37.45 L-19.7 -36.5 -19.95 -35.65 -19.95 -25.6 Q-18.25 -19.2 -13.0 -15.1 -7.65 -10.9 -0.9 -10.9 5.25 -10.9 10.3 -14.4 15.2 -17.8 17.4 -23.3 L18.55 -33.7 18.4 -34.65 14.8 -35.5 15.25 -34.9 15.1 -34.1 Q14.85 -33.75 14.45 -33.65 L10.85 -32.85 Q11.9 -32.3 11.9 -31.6 11.9 -30.9 10.9 -30.45 9.9 -29.95 8.5 -29.95 7.1 -29.95 6.15 -30.45 5.15 -30.9 5.15 -31.6 L5.2 -31.7 Q4.65 -31.85 4.5 -32.4 L4.65 -33.15 5.25 -33.6 14.0 -35.65 M17.85 -38.6 L22.45 -37.35 Q20.2 -45.9 15.45 -51.0 L14.9 -51.55 Q11.0 -54.15 5.7 -55.45 15.9 -48.9 17.85 -38.6 M-0.4 -41.05 L7.3 -40.45 Q6.6 -46.1 3.9 -50.55 2.05 -53.55 -0.4 -55.55 L-0.4 -41.05 M-1.4 -55.95 Q-3.65 -53.65 -5.25 -50.65 -7.55 -46.2 -7.9 -41.15 L-1.4 -41.1 -1.4 -55.95 M-2.35 -56.3 L-3.9 -56.1 Q-7.75 -53.85 -10.65 -50.65 -14.75 -46.2 -16.4 -40.6 L-8.85 -41.1 Q-8.35 -49.9 -2.35 -56.3 M-8.3 -58.95 Q-4.15 -60.05 -0.8 -60.0 14.65 -59.1 23.0 -49.15 29.95 -40.75 31.2 -27.5 L44.0 -27.5 23.35 60.0 -26.35 60.0 -43.95 -28.5 -37.45 -28.5 -39.25 -39.2 Q-42.0 -39.4 -42.2 -40.85 -42.4 -42.15 -40.65 -43.05 -40.85 -44.35 -39.95 -45.45 -39.05 -46.55 -37.55 -46.8 -35.95 -47.1 -34.65 -46.2 -33.6 -45.4 -33.4 -44.3 L-33.4 -44.25 Q-31.45 -44.0 -31.25 -42.7 L-31.55 -41.5 Q-32.0 -40.9 -33.0 -40.4 L-31.9 -33.75 Q-29.2 -44.3 -22.45 -51.0 -16.55 -56.75 -8.3 -58.95 M10.9 -50.0 Q7.55 -53.5 2.9 -55.95 L0.2 -56.3 Q2.85 -54.15 4.75 -51.0 7.6 -46.35 8.25 -40.35 L16.8 -38.85 Q15.55 -45.1 10.9 -50.0" fill="#000000" fill-rule="evenodd" stroke="none"/>
  </g>
</svg>
