<?xml version="1.0" encoding="UTF-8"?>
<svg width="87.95px" height="120px" version="1.1" xmlns="http://www.w3.org/2000/svg" xmlns:cc="http://creativecommons.org/ns#" xmlns:dc="http://purl.org/dc/elements/1.1/" xmlns:rdf="http://www.w3.org/1999/02/22-rdf-syntax-ns#">
 <metadata>
  <rdf:RDF>
   <cc:Work rdf:about="">
    <dc:format>image/svg+xml</dc:format>
    <dc:type rdf:resource="http://purl.org/dc/dcmitype/StillImage"/>
    <dc:title/>
   </cc:Work>
  </rdf:RDF>
 </metadata>
 <path d="m13.976 94.165h57.035l14.118-59.718-10.165-0.42353-4.9412-14.965-9.7412-12.565-13.553-5.2235-15.106 2.4-11.859 9.7412-7.7147 12.838-2.7382-11.097-2.4118-1.4235-3.1235 2.7882 1.9412 6.2824 1.6941 10.376-5.3647-0.070589z" fill="#fff"/>
 <g transform="translate(43.95 60)">
  <path d="m26 32.1 1-4.3-17.5-10.3h-20.8l-17.6 10 0.9 4.5 54 0.1m5.2-49.7-0.2 1.6h-5.65l-6.55 26.15 10.45 8.1 9.9-41.9h-7.75q0.1 3.45-0.2 6.05m-6.7-2.05v-1.3q0-8.5-1.95-16l-1.9 17.3h3.85m-40.35 6.95 3.25 7.8h23.4l6.55-11.1h-0.05q-3.3 4.05-7.95 6.35-4.85 2.4-10.25 2.4-8.45 0-14.95-5.45m4.9 14.35v9.1l5.8-2.8 1.55 1.35-3.3 4.75h10.9l-3.4-4.85q0.85-0.5 1.35-1.4l6.1 2.95v-9.1l-6.35 3.05q-0.45-0.65-1.3-1.05l3.6-5.25h-10.9l3.55 5.1-1.55 1.1-6.05-2.95m-22.7-20.15 0.25-6.15h-5.85l8.9 44.8 10.05-8.4-5.9-28.6-7.45 0.25v-1.9m7.1-2 3-0.1v-17.25q-2.85 7.6-3 17.35m4.45-19.3 4.65-0.65q2.55-9.2 11.05-15.2l-2.35 0.65q-9.45 4.85-14.1 15.35l0.75-0.15m-1.05-1.45q3.35-7 9.15-11.5-3.3 1.8-5.95 4.4-9.55 9.4-10 27.95l2.45-0.05q0.15-12.1 4.35-20.8m-13.2 1.85-1.15 0.15 1.85 10.75h2.7l0.05-0.45-1.8-10.85-1.65 0.4m-0.45-2.9q0.9-0.15 1.4-0.8 0.3-0.4 0.25-0.9l-0.5-0.75q-0.7-0.45-1.65-0.3-0.75 0.1-1.25 0.65-0.45 0.5-0.4 1.05 0.05 0.4 0.5 0.75 0.7 0.45 1.65 0.3m57-4.5-1.55-1.7q4.25 6.4 5.9 16.35 1.05 6.25 0.9 12.5h2.25l0.05-2.55q0-6.1-1.3-11.55-1.9-7.85-6.25-13.05m-6.2 11.15h0.1q-9.9-1.95-20.85-1.8l-12.95 0.95-0.25 0.85v10.05q1.7 6.4 6.95 10.5 5.35 4.2 12.1 4.2 6.15 0 11.2-3.5 4.9-3.4 7.1-8.9l1.15-10.4-0.15-0.95-3.6-0.85 0.45 0.6-0.15 0.8q-0.25 0.35-0.65 0.45l-3.6 0.8q1.05 0.55 1.05 1.25t-1 1.15q-1 0.5-2.4 0.5t-2.35-0.5q-1-0.45-1-1.15l0.05-0.1q-0.55-0.15-0.7-0.7l0.15-0.75 0.6-0.45 8.75-2.05m3.85-2.95 4.6 1.25q-2.25-8.55-7-13.65l-0.55-0.55q-3.9-2.6-9.2-3.9 10.2 6.55 12.15 16.85m-18.25-2.45 7.7 0.6q-0.7-5.65-3.4-10.1-1.85-3-4.3-5v14.5m-1-14.9q-2.25 2.3-3.85 5.3-2.3 4.45-2.65 9.5l6.5 0.05v-14.85m-0.95-0.35-1.55 0.2q-3.85 2.25-6.75 5.45-4.1 4.45-5.75 10.05l7.55-0.5q0.5-8.8 6.5-15.2m-5.95-2.65q4.15-1.1 7.5-1.05 15.45 0.9 23.8 10.85 6.95 8.4 8.2 21.65h12.8l-20.65 87.5h-49.7l-17.6-88.5h6.5l-1.8-10.7q-2.75-0.2-2.95-1.65-0.2-1.3 1.55-2.2-0.2-1.3 0.7-2.4t2.4-1.35q1.6-0.3 2.9 0.6 1.05 0.8 1.25 1.9v0.05q1.95 0.25 2.15 1.55l-0.3 1.2q-0.45 0.6-1.45 1.1l1.1 6.65q2.7-10.55 9.45-17.25 5.9-5.75 14.15-7.95m19.2 8.95q-3.35-3.5-8-5.95l-2.7-0.35q2.65 2.15 4.55 5.3 2.85 4.65 3.5 10.65l8.55 1.5q-1.25-6.25-5.9-11.15" fill-rule="evenodd"/>
 </g>
 <g>
  <rect transform="matrix(-.59183 .80606 -.94959 -.3135 0 0)" x="14.16" y="-50.267" width="1.9056" height="11.033" ry="1.5913"/>
  <ellipse cx="33.847" cy="27.988" rx="3.8471" ry="1.5176"/>
  <rect x="34.094" y="38.259" width="18.565" height="2.4706" ry="1.0588"/>
 </g>
</svg>
