<?xml version="1.0" encoding="UTF-8" standalone="no"?>
<svg xmlns:xlink="http://www.w3.org/1999/xlink" height="122.15px" width="139.75px" xmlns="http://www.w3.org/2000/svg">
  <g transform="matrix(1.0, 0.0, 0.0, 1.0, 69.85, 61.1)">
    <path d="M-63.75 10.95 L-29.7 15.55 -29.7 34.35 Q-42.6 32.75 -52.85 30.35 L-63.75 10.95" fill="#ffffff" fill-rule="evenodd" stroke="none"/>
    <path d="M-0.45 19.3 L26.0 15.85 26.0 26.15 -0.45 26.15 -0.45 19.3" fill="#ffffff" fill-rule="evenodd" stroke="none"/>
    <path d="M-2.35 26.15 L-27.85 26.15 -27.85 15.8 -2.35 19.3 -2.35 26.15" fill="#ffffff" fill-rule="evenodd" stroke="none"/>
    <path d="M52.9 30.3 Q40.8 33.4 27.85 34.9 L27.85 15.6 63.8 10.9 52.9 30.3" fill="#ffffff" fill-rule="evenodd" stroke="none"/>
    <path d="M-27.85 34.6 L-27.85 28.05 -2.35 28.05 -2.35 36.35 -27.85 34.6" fill="#ffffff" fill-rule="evenodd" stroke="none"/>
    <path d="M-52.85 2.8 Q-53.95 2.8 -54.7 3.4 -55.45 4.05 -55.45 4.9 -55.45 5.8 -54.7 6.45 -53.95 7.05 -52.85 7.05 -51.75 7.05 -51.0 6.45 -50.25 5.8 -50.25 4.9 -50.25 4.05 -51.0 3.4 -51.75 2.8 -52.85 2.8 M-24.2 -12.65 Q-22.9 -2.1 -16.95 4.95 -11.0 12.05 -2.85 12.55 L-2.85 16.65 -65.1 8.2 -63.8 -28.6 -31.4 -22.45 Q-30.3 -17.2 -24.2 -12.65" fill="#ffffff" fill-rule="evenodd" stroke="none"/>
    <path d="M63.85 -28.6 L65.1 8.2 0.05 16.65 0.05 12.5 Q7.8 11.75 13.55 5.05 19.25 -1.65 20.7 -11.6 L20.8 -11.6 22.7 -14.35 Q24.65 -17.8 25.0 -21.25 L63.85 -28.6 M54.75 7.05 Q55.85 7.05 56.6 6.45 57.35 5.8 57.35 4.9 57.35 4.05 56.6 3.4 55.85 2.8 54.75 2.8 53.7 2.8 52.95 3.4 52.2 4.05 52.2 4.9 52.2 5.8 52.95 6.45 53.7 7.05 54.75 7.05" fill="#ffffff" fill-rule="evenodd" stroke="none"/>
    <path d="M26.0 28.05 L26.0 35.1 -0.45 36.35 -0.45 28.05 26.0 28.05" fill="#ffffff" fill-rule="evenodd" stroke="none"/>
    <path d="M-2.35 19.3 L-27.85 15.8 -27.85 26.15 -2.35 26.15 -2.35 19.3 M26.0 35.1 L26.0 28.05 -0.45 28.05 -0.45 36.35 26.0 35.1 M27.85 34.9 Q40.8 33.4 52.9 30.3 L63.8 10.9 27.85 15.6 27.85 34.9 M-27.85 28.05 L-27.85 34.6 -2.35 36.35 -2.35 28.05 -27.85 28.05 M-29.7 15.55 L-63.75 10.95 -52.85 30.35 Q-42.6 32.75 -29.7 34.35 L-29.7 15.55 M26.0 15.85 L-0.45 19.3 -0.45 26.15 26.0 26.15 26.0 15.85 M-2.85 16.65 L-2.85 12.55 Q-11.0 12.05 -16.95 4.95 -22.9 -2.1 -24.2 -12.65 -30.3 -17.2 -31.4 -22.45 L-63.8 -28.6 -65.1 8.2 -2.85 16.65 M-1.65 8.25 Q1.45 8.25 4.4 6.8 L-7.75 6.8 Q-4.75 8.25 -1.65 8.25 M-19.65 -11.35 Q-19.25 -9.0 -18.35 -6.4 L15.0 -6.4 Q15.9 -8.85 16.35 -11.6 L-19.65 -11.35 M7.15 -4.55 L7.2 -4.0 Q7.2 -3.1 6.6 -2.45 5.95 -1.85 5.05 -1.85 4.15 -1.85 3.55 -2.45 2.9 -3.1 2.9 -4.0 L2.95 -4.55 -7.3 -4.55 -7.2 -4.0 Q-7.2 -3.1 -7.85 -2.45 -8.5 -1.85 -9.35 -1.85 -10.25 -1.85 -10.9 -2.45 -11.55 -3.1 -11.55 -4.0 L-11.45 -4.55 -17.65 -4.55 Q-14.45 2.9 -8.9 6.15 -1.55 4.15 5.4 6.25 11.15 2.9 14.3 -4.55 L7.15 -4.55 M68.35 -34.3 L69.9 9.75 41.05 61.05 -41.0 61.05 -69.85 9.75 -68.35 -34.3 -31.2 -27.25 Q-30.15 -31.15 -25.95 -34.75 -16.8 -42.7 -18.8 -46.15 -19.45 -47.2 -21.1 -47.7 L-22.65 -47.95 -21.05 -48.05 Q-19.15 -47.95 -17.7 -47.2 -12.95 -44.7 -14.15 -36.15 -15.35 -27.6 -12.25 -26.55 -10.7 -26.0 -8.95 -27.2 -8.1 -28.75 -7.55 -30.8 -6.35 -34.95 -7.55 -37.6 -8.2 -39.0 -7.35 -39.3 -6.5 -39.55 -4.95 -38.65 -0.9 -36.3 0.9 -31.3 0.5 -34.9 1.1 -37.45 1.85 -40.85 4.25 -41.85 L3.9 -38.3 Q4.4 -34.25 8.5 -31.9 L10.95 -37.0 Q14.35 -42.2 19.35 -42.75 L18.6 -42.4 Q17.8 -41.8 17.55 -40.8 16.7 -37.65 21.75 -31.45 23.9 -28.7 24.6 -25.95 L68.35 -34.3 M65.1 8.2 L63.85 -28.6 25.0 -21.25 Q24.65 -17.8 22.7 -14.35 L20.8 -11.6 20.7 -11.6 Q19.25 -1.65 13.55 5.05 7.8 11.75 0.05 12.5 L0.05 16.65 65.1 8.2" fill="#000000" fill-rule="evenodd" stroke="none"/>
    <path d="M-18.35 -6.4 Q-19.25 -9.0 -19.65 -11.35 L16.35 -11.6 Q15.9 -8.85 15.0 -6.4 L-18.35 -6.4" fill="#ffffff" fill-rule="evenodd" stroke="none"/>
    <path d="M7.2 -4.0 L7.15 -4.55 14.3 -4.55 Q11.15 2.9 5.4 6.25 -1.55 4.15 -8.9 6.15 -14.45 2.9 -17.65 -4.55 L-11.45 -4.55 -11.55 -4.0 Q-11.55 -3.1 -10.9 -2.45 -10.25 -1.85 -9.35 -1.85 -8.5 -1.85 -7.85 -2.45 -7.2 -3.1 -7.2 -4.0 L-7.3 -4.55 2.95 -4.55 2.9 -4.0 Q2.9 -3.1 3.55 -2.45 4.15 -1.85 5.05 -1.85 5.95 -1.85 6.6 -2.45 7.2 -3.1 7.2 -4.0" fill="#ffffff" fill-rule="evenodd" stroke="none"/>
    <path d="M4.4 6.8 Q1.45 8.25 -1.65 8.25 -4.75 8.25 -7.75 6.8 L4.4 6.8" fill="#ffffff" fill-rule="evenodd" stroke="none"/>
    <path d="M-52.85 7.05 Q-53.95 7.05 -54.7 6.45 -55.45 5.8 -55.45 4.9 -55.45 4.05 -54.7 3.4 -53.95 2.8 -52.85 2.8 -51.75 2.8 -51.0 3.4 -50.25 4.05 -50.25 4.9 -50.25 5.8 -51.0 6.45 -51.75 7.05 -52.85 7.05" fill="#000000" fill-rule="evenodd" stroke="none"/>
    <path d="M54.75 2.8 Q55.85 2.8 56.6 3.4 57.35 4.05 57.35 4.9 57.35 5.8 56.6 6.45 55.85 7.05 54.75 7.05 53.7 7.05 52.95 6.45 52.2 5.8 52.2 4.9 52.2 4.05 52.95 3.4 53.7 2.8 54.75 2.8" fill="#000000" fill-rule="evenodd" stroke="none"/>
    <path d="M-4.75 -45.9 Q-6.6 -47.05 -7.5 -49.55 -9.35 -54.5 -4.75 -61.1 L-5.05 -59.0 Q-5.15 -56.45 -4.0 -54.35 -2.85 -52.2 -3.7 -48.85 -4.1 -47.15 -4.75 -45.9" fill="#000000" fill-rule="evenodd" stroke="none"/>
    <path d="M9.15 -39.85 Q8.25 -41.15 7.8 -43.15 6.85 -47.1 9.15 -50.4 L9.6 -46.95 Q9.9 -42.9 9.15 -39.85" fill="#000000" fill-rule="evenodd" stroke="none"/>
  </g>
</svg>
