<?xml version="1.0" encoding="UTF-8"?>
<svg width="53.05px" height="74.35px" version="1.1" xmlns="http://www.w3.org/2000/svg" xmlns:cc="http://creativecommons.org/ns#" xmlns:dc="http://purl.org/dc/elements/1.1/" xmlns:rdf="http://www.w3.org/1999/02/22-rdf-syntax-ns#">
 <metadata>
  <rdf:RDF>
   <cc:Work rdf:about="">
    <dc:format>image/svg+xml</dc:format>
    <dc:type rdf:resource="http://purl.org/dc/dcmitype/StillImage"/>
    <dc:title/>
   </cc:Work>
  </rdf:RDF>
 </metadata>
 <path d="m1.8369 71.901 42.073 0.26241 0.96218-23.705 4.2861-10.934-4.3735-11.021 4.8984-7.6099-12.683-0.87471-5.5106-8.3097-29.915-0.43735z" fill="#fff"/>
 <g transform="translate(26.5 37.2)" fill-rule="evenodd">
  <path d="m-2.1-13.05q-0.65 0-1.15-0.5-0.5-0.45-0.5-1.15t0.5-1.2q0.45-0.5 1.15-0.5t1.2 0.5 0.5 1.2-0.5 1.15q-0.5 0.5-1.2 0.5"/>
  <path d="m3.15 15.3v17.7h12.35v-17.7h-12.35m-25.4 0v17.7h24.15v-17.7h-24.15m12.15-16.75q0.45-0.2 0.9 0l0.75 0.3q9.75 4 18.1 3.9 5.8-0.1 10.25-2.1-3.3-0.9-7.2-3.3-2.75-1.7-3.45-2.4l-0.95-0.7 3.65-4.45-5.95 0.8q-0.7 0.1-1.1-0.55l-0.2-0.45v-0.25q-1.55 1.8-3.75 2.8-2.25 1.05-4.7 1.05-4.25 0-7.45-2.8-3.15-2.8-3.75-6.95h-8.35v27.7h39.3q3.8-3.25 4.25-7.55v-0.5q-4.3 1.8-9.75 2-1.75 1-3.25 2.25-1.75 1.45-1.9 2.3l-0.5 0.8-0.9 0.15-0.75-0.45q-0.25-0.4-0.15-0.9 0.3-1.85 3.3-4.25-7.85-0.6-16.45-4.3l-0.65-0.65 0.05-0.9 0.6-0.6m-1.75-16.15q0.2 3.2 2.55 5.4t5.55 2.2q3.25 0 5.6-2.2t2.55-5.4h-16.25m-11.45-3.05h8.25v-0.1h21.95l-1.95-2.35-9.55 0.75q-5.85 0-10.9-1-4.95-1-7.8-2.7v5.4m34.95 14.5q4.3 3.05 8 4.3-0.85-3.05-3.2-6.6l-3.05 0.45h-0.2l-1.55 1.85m7.95-7.85q1.35-1.6 1.75-3.6h-13.8q-0.1 1.8-0.65 3.2 1.05 1.35 2.5 2.2l8.25-1.1-1.35 1.6q1.9-0.7 3.3-2.3m-2.5-15.75q0 1.7-2.2 3.25-2.1 1.45-5.85 2.5l2.7 3.25h12.65v1.45h0.3q0 2.85-1.3 5.3t-3.55 3.95q2.9 4.45 3.8 8.9h2.9l-2.45 2.1-0.15 0.1v2.95q-0.6 5.1-4.3 8.85v24.3h-46.05v-24.65h-0.1v-42.3l0.25-0.05q0.1-3.05 6.45-5.2t15.2-2.15q9 0 15.35 2.2 6.35 2.15 6.35 5.25"/>
  <path d="m14.432-13.575q-0.65 0-1.15-0.5-0.5-0.45-0.5-1.15t0.5-1.2q0.45-0.5 1.15-0.5t1.2 0.5 0.5 1.2-0.5 1.15q-0.5 0.5-1.2 0.5"/>
 </g>
</svg>
