<?xml version="1.0" encoding="UTF-8" standalone="no"?>
<svg xmlns:xlink="http://www.w3.org/1999/xlink" height="110.4px" width="79.05px" xmlns="http://www.w3.org/2000/svg">
  <g transform="matrix(1.0, 0.0, 0.0, 1.0, 39.5, 55.2)">
    <path d="M-16.85 -1.85 Q-8.35 1.7 0.8 1.7 9.2 1.7 16.8 -1.5 L9.15 13.35 Q8.25 14.45 6.65 15.45 4.6 16.7 2.3 17.15 L2.3 16.2 Q2.3 15.4 1.7 14.8 1.15 14.2 0.3 14.2 -0.55 14.2 -1.15 14.8 -1.7 15.35 -1.7 16.2 L-1.7 17.2 Q-4.2 16.9 -6.6 15.45 -9.0 13.95 -9.8 12.25 L-9.8 12.15 -16.85 -1.85" fill="#ffffff" fill-rule="evenodd" stroke="none"/>
    <path d="M2.85 -16.05 L7.3 -16.9 7.3 -16.8 Q7.3 -15.75 8.05 -15.0 8.75 -14.3 9.8 -14.3 10.8 -14.3 11.55 -15.0 12.3 -15.75 12.3 -16.8 L12.05 -17.85 20.15 -19.45 Q19.6 -15.6 17.95 -13.25 15.6 -9.8 11.3 -9.8 6.15 -9.8 3.95 -13.0 3.05 -14.35 2.85 -16.05" fill="#ffffff" fill-rule="evenodd" stroke="none"/>
    <path d="M-0.45 -15.45 L-0.2 -16.9 Q0.0 -13.65 1.4 -11.4 4.3 -6.8 11.15 -6.8 L11.3 -6.8 Q17.5 -6.75 20.8 -12.05 20.45 -10.05 19.3 -6.6 10.65 -1.8 0.8 -1.8 -6.4 -1.8 -13.25 -4.25 -15.65 -5.05 -17.3 -5.9 L-18.4 -6.4 -18.7 -6.6 -19.1 -6.75 -20.05 -10.0 Q-16.95 -6.75 -12.2 -6.8 L-12.1 -6.8 Q-8.2 -6.8 -5.35 -8.45 -3.0 -9.8 -1.75 -12.05 -0.85 -13.6 -0.45 -15.45" fill="#ffffff" fill-rule="evenodd" stroke="none"/>
    <path d="M-0.15 -18.55 L-0.2 -17.4 -0.2 -18.5 -20.8 -22.55 Q-20.05 -27.9 -16.9 -32.2 -9.15 -31.75 0.05 -31.75 9.3 -31.75 17.0 -32.2 20.1 -27.95 20.85 -22.65 L-0.15 -18.55" fill="#ffffff" fill-rule="evenodd" stroke="none"/>
    <path d="M-8.75 -17.1 L-3.4 -16.05 Q-3.7 -14.25 -4.8 -12.85 -7.1 -9.8 -12.2 -9.8 -15.1 -9.85 -16.95 -11.2 -18.35 -12.3 -19.45 -14.55 -20.3 -16.55 -20.65 -19.45 L-13.4 -18.05 -13.7 -16.8 Q-13.7 -15.75 -12.95 -15.0 -12.25 -14.3 -11.2 -14.3 -10.2 -14.3 -9.45 -15.0 -8.7 -15.75 -8.7 -16.8 L-8.75 -17.1" fill="#ffffff" fill-rule="evenodd" stroke="none"/>
    <path d="M0.8 1.7 Q-8.35 1.7 -16.85 -1.85 L-9.8 12.15 -9.8 12.25 Q-9.0 13.95 -6.6 15.45 -4.2 16.9 -1.7 17.2 L-1.7 16.2 Q-1.7 15.35 -1.15 14.8 -0.55 14.2 0.3 14.2 1.15 14.2 1.7 14.8 2.3 15.4 2.3 16.2 L2.3 17.15 Q4.6 16.7 6.65 15.45 8.25 14.45 9.15 13.35 L16.8 -1.5 Q9.2 1.7 0.8 1.7 M8.05 -15.0 Q7.3 -15.75 7.3 -16.8 L7.3 -16.9 2.85 -16.05 Q3.05 -14.35 3.95 -13.0 6.15 -9.8 11.3 -9.8 15.6 -9.8 17.95 -13.25 19.6 -15.6 20.15 -19.45 L12.05 -17.85 12.3 -16.8 Q12.3 -15.75 11.55 -15.0 10.8 -14.3 9.8 -14.3 8.75 -14.3 8.05 -15.0 M-0.2 -16.9 L-0.45 -15.45 Q-0.85 -13.6 -1.75 -12.05 -3.0 -9.8 -5.35 -8.45 -8.2 -6.8 -12.1 -6.8 L-12.2 -6.8 Q-16.95 -6.75 -20.05 -10.0 L-19.1 -6.75 -18.7 -6.6 -18.4 -6.4 -17.3 -5.9 Q-15.65 -5.05 -13.25 -4.25 -6.4 -1.8 0.8 -1.8 10.65 -1.8 19.3 -6.6 20.45 -10.05 20.8 -12.05 17.5 -6.75 11.3 -6.8 L11.15 -6.8 Q4.3 -6.8 1.4 -11.4 0.0 -13.65 -0.2 -16.9 M-0.2 -18.5 L-0.2 -17.4 -0.15 -18.55 20.85 -22.65 Q20.1 -27.95 17.0 -32.2 9.3 -31.75 0.05 -31.75 -9.15 -31.75 -16.9 -32.2 -20.05 -27.9 -20.8 -22.55 L-0.2 -18.5 M-3.4 -16.05 L-8.75 -17.1 -8.7 -16.8 Q-8.7 -15.75 -9.45 -15.0 -10.2 -14.3 -11.2 -14.3 -12.25 -14.3 -12.95 -15.0 -13.7 -15.75 -13.7 -16.8 L-13.4 -18.05 -20.65 -19.45 Q-20.3 -16.55 -19.45 -14.55 -18.35 -12.3 -16.95 -11.2 -15.1 -9.85 -12.2 -9.8 -7.1 -9.8 -4.8 -12.85 -3.7 -14.25 -3.4 -16.05 M5.25 -39.85 Q-4.95 -39.05 -13.3 -41.75 L-14.1 -37.6 -4.85 -36.3 Q6.1 -35.4 14.85 -37.45 L13.8 -41.2 Q10.35 -40.25 5.25 -39.85 M-39.5 -36.2 Q-39.5 -37.45 -33.5 -38.5 L-17.9 -40.1 -17.1 -40.7 -13.95 -55.2 14.4 -55.2 17.85 -40.95 19.1 -40.05 33.9 -38.45 Q39.55 -37.4 39.55 -36.2 39.55 -34.1 25.4 -32.8 28.4 -27.6 28.4 -21.8 28.4 -15.5 24.95 -10.0 L24.45 -8.05 33.8 -10.3 21.3 55.2 -21.2 55.2 -33.7 -10.3 -24.15 -8.0 -25.1 -12.3 Q-27.3 -16.85 -27.3 -21.8 -27.3 -27.45 -24.35 -32.7 -39.5 -34.0 -39.5 -36.2" fill="#000000" fill-rule="evenodd" stroke="none"/>
    <path d="M-13.3 -41.75 Q-4.95 -39.05 5.25 -39.85 10.35 -40.25 13.8 -41.2 L14.85 -37.45 Q6.1 -35.4 -4.85 -36.3 L-14.1 -37.6 -13.3 -41.75" fill="#ffffff" fill-rule="evenodd" stroke="none"/>
  </g>
</svg>
