<?xml version="1.0" encoding="UTF-8" standalone="no"?>
<svg xmlns:xlink="http://www.w3.org/1999/xlink" height="116.9px" width="93.25px" xmlns="http://www.w3.org/2000/svg">
  <g transform="matrix(1.0, 0.0, 0.0, 1.0, 46.6, 58.45)">
    <path d="M2.45 0.2 Q8.2 0.15 13.55 -2.15 L13.55 16.15 9.9 16.15 Q9.65 15.4 9.0 14.95 8.3 14.45 7.45 14.45 5.7 14.45 5.0 16.15 L2.45 16.15 2.45 0.2 M7.45 4.75 Q6.35 4.75 5.6 5.55 4.85 6.3 4.85 7.4 4.85 8.5 5.6 9.25 6.35 10.0 7.45 10.0 8.55 10.0 9.3 9.25 10.1 8.5 10.1 7.4 10.1 6.3 9.3 5.55 8.55 4.75 7.45 4.75" fill="#ffffff" fill-rule="evenodd" stroke="none"/>
    <path d="M9.1 19.1 Q9.8 18.55 10.0 17.65 L13.55 17.65 13.55 32.8 Q8.85 32.55 2.45 32.55 L2.45 17.65 4.9 17.65 Q5.15 18.55 5.8 19.1 6.55 19.7 7.45 19.7 8.4 19.7 9.1 19.1" fill="#ffffff" fill-rule="evenodd" stroke="none"/>
    <path d="M-15.3 17.65 L-0.55 17.65 -0.55 32.6 -15.3 33.25 -15.3 17.65" fill="#ffffff" fill-rule="evenodd" stroke="none"/>
    <path d="M-15.3 -5.05 L-14.75 -5.05 Q-8.4 -0.55 -0.55 0.1 L-0.55 16.15 -15.3 16.15 -15.3 -5.05" fill="#ffffff" fill-rule="evenodd" stroke="none"/>
    <path d="M15.05 32.85 L15.05 17.65 39.85 17.65 40.8 36.45 Q29.2 33.65 15.05 32.85" fill="#ffffff" fill-rule="evenodd" stroke="none"/>
    <path d="M18.7 -5.05 L38.75 -5.05 39.8 16.15 15.05 16.15 15.05 -2.85 Q17.3 -4.05 18.7 -5.05" fill="#ffffff" fill-rule="evenodd" stroke="none"/>
    <path d="M-16.8 17.65 L-16.8 33.4 Q-29.55 34.4 -40.45 36.3 L-39.3 17.65 -16.8 17.65" fill="#ffffff" fill-rule="evenodd" stroke="none"/>
    <path d="M-36.8 -23.3 L-26.8 -23.25 Q-25.8 -18.35 -23.15 -14.0 -20.6 -9.75 -16.8 -6.55 L-37.8 -6.55 -36.8 -23.3" fill="#ffffff" fill-rule="evenodd" stroke="none"/>
    <path d="M-37.9 -5.05 L-16.8 -5.05 -16.8 16.15 -39.2 16.15 -37.9 -5.05" fill="#ffffff" fill-rule="evenodd" stroke="none"/>
    <path d="M30.65 -23.1 L37.85 -23.05 38.65 -6.55 20.65 -6.55 Q28.6 -13.1 30.65 -23.1" fill="#ffffff" fill-rule="evenodd" stroke="none"/>
    <path d="M-16.8 33.4 L-16.8 17.65 -39.3 17.65 -40.45 36.3 Q-29.55 34.4 -16.8 33.4 M-0.55 32.6 L-0.55 17.65 -15.3 17.65 -15.3 33.25 -0.55 32.6 M15.05 17.65 L15.05 32.85 Q29.2 33.65 40.8 36.45 L39.85 17.65 15.05 17.65 M13.55 17.65 L10.0 17.65 Q9.8 18.55 9.1 19.1 8.4 19.7 7.45 19.7 6.55 19.7 5.8 19.1 5.15 18.55 4.9 17.65 L2.45 17.65 2.45 32.55 Q8.85 32.55 13.55 32.8 L13.55 17.65 M-16.8 -5.05 L-37.9 -5.05 -39.2 16.15 -16.8 16.15 -16.8 -5.05 M-0.55 0.1 Q-8.4 -0.55 -14.75 -5.05 L-15.3 -5.05 -15.3 16.15 -0.55 16.15 -0.55 0.1 M13.55 -2.15 Q8.2 0.15 2.45 0.2 L2.45 16.15 5.0 16.15 Q5.7 14.45 7.45 14.45 8.3 14.45 9.0 14.95 9.65 15.4 9.9 16.15 L13.55 16.15 13.55 -2.15 M-23.15 -14.0 Q-25.8 -18.35 -26.8 -23.25 L-36.8 -23.3 -37.8 -6.55 -16.8 -6.55 Q-20.6 -9.75 -23.15 -14.0 M38.75 -5.05 L18.7 -5.05 Q17.3 -4.05 15.05 -2.85 L15.05 16.15 39.8 16.15 38.75 -5.05 M37.85 -23.05 L30.65 -23.1 Q28.6 -13.1 20.65 -6.55 L38.65 -6.55 37.85 -23.05 M23.05 -31.65 Q24.85 -34.35 26.9 -33.5 25.3 -42.5 18.35 -48.45 11.25 -54.45 1.95 -54.45 -6.95 -54.45 -13.9 -48.85 -20.75 -43.3 -22.7 -34.8 -19.45 -36.35 -17.7 -31.8 -15.35 -25.85 -11.55 -22.15 -5.7 -16.45 3.3 -16.45 13.1 -16.45 18.35 -22.6 21.0 -25.7 21.65 -28.8 L23.05 -31.65 M31.3 -29.1 L31.25 -27.85 42.4 -27.8 46.65 58.45 -46.6 58.45 -42.7 -6.55 -42.6 -6.55 -41.3 -28.1 -27.35 -28.05 -27.35 -29.1 Q-27.35 -41.25 -18.75 -49.85 -10.15 -58.45 1.95 -58.45 14.1 -58.45 22.7 -49.85 31.3 -41.25 31.3 -29.1" fill="#000000" fill-rule="evenodd" stroke="none"/>
  </g>
</svg>
