<?xml version="1.0" encoding="UTF-8" standalone="no"?>
<svg xmlns:xlink="http://www.w3.org/1999/xlink" height="104.8px" width="61.45px" xmlns="http://www.w3.org/2000/svg">
  <g transform="matrix(1.0, 0.0, 0.0, 1.0, 30.7, 52.4)">
    <path d="M-1.55 42.25 L-19.95 36.45 -19.1 30.3 Q-10.95 26.3 -1.55 25.95 L-1.55 42.25" fill="#ffffff" fill-rule="evenodd" stroke="none"/>
    <path d="M22.1 41.1 L22.45 43.65 17.05 44.4 16.5 44.75 Q16.25 45.05 16.3 45.4 16.4 46.15 17.2 46.15 L17.3 46.15 22.7 45.4 23.05 48.2 1.25 48.2 1.25 45.1 22.1 41.1" fill="#ffffff" fill-rule="evenodd" stroke="none"/>
    <path d="M-20.8 42.75 L-20.3 39.25 -1.55 45.2 -1.55 48.2 -21.55 48.2 -21.05 44.55 -14.8 45.7 -14.65 45.7 Q-13.9 45.7 -13.8 45.0 -13.6 44.15 -14.5 43.95 L-20.8 42.75" fill="#ffffff" fill-rule="evenodd" stroke="none"/>
    <path d="M20.85 31.45 L21.75 38.3 1.25 42.25 1.25 25.95 Q11.55 26.3 20.85 31.45" fill="#ffffff" fill-rule="evenodd" stroke="none"/>
    <path d="M-0.35 -26.8 Q4.65 -28.9 7.1 -31.05 2.55 -24.05 -8.8 -20.55 -12.4 -19.5 -16.2 -18.9 L-19.3 -18.5 Q2.9 -17.25 15.2 -24.75 23.75 -29.95 26.55 -38.65 L26.55 -5.15 Q14.4 -13.25 0.7 -13.25 -7.5 -13.25 -15.75 -10.4 -21.4 -8.4 -26.5 -5.3 L-26.5 -29.15 Q-18.15 -27.85 -11.2 -31.6 -7.75 -33.45 -5.95 -35.6 -8.6 -29.9 -16.2 -25.75 L-23.25 -22.75 Q-10.4 -22.6 -0.35 -26.8" fill="#ffffff" fill-rule="evenodd" stroke="none"/>
    <path d="M-16.65 -6.3 Q-7.9 -9.75 0.7 -9.75 14.45 -9.75 26.55 -0.9 L26.55 3.95 -26.5 3.95 -26.5 -1.15 Q-22.15 -4.1 -16.65 -6.3 M-7.1 -4.95 L-7.8 -4.15 Q-7.95 -3.55 -7.65 -3.05 -7.25 -2.35 -6.45 -2.35 L-5.75 -2.5 -5.35 -2.7 Q-2.8 -3.9 0.4 -3.9 3.65 -3.9 6.6 -2.45 L7.7 -2.4 8.5 -3.15 Q8.75 -3.65 8.55 -4.2 L7.8 -5.0 Q4.2 -6.7 0.4 -6.7 L-4.95 -5.85 -7.1 -4.95" fill="#ffffff" fill-rule="evenodd" stroke="none"/>
    <path d="M-19.1 30.3 L-19.95 36.45 -1.55 42.25 -1.55 25.95 Q-10.95 26.3 -19.1 30.3 M-21.05 44.55 L-21.55 48.2 -1.55 48.2 -1.55 45.2 -20.3 39.25 -20.8 42.75 -14.5 43.95 Q-13.6 44.15 -13.8 45.0 -13.9 45.7 -14.65 45.7 L-14.8 45.7 -21.05 44.55 M21.75 38.3 L20.85 31.45 Q11.55 26.3 1.25 25.95 L1.25 42.25 21.75 38.3 M22.45 43.65 L22.1 41.1 1.25 45.1 1.25 48.2 23.05 48.2 22.7 45.4 17.3 46.15 17.2 46.15 Q16.4 46.15 16.3 45.4 16.25 45.05 16.5 44.75 L17.05 44.4 22.45 43.65 M0.7 -9.75 Q-7.9 -9.75 -16.65 -6.3 -22.15 -4.1 -26.5 -1.15 L-26.5 3.95 26.55 3.95 26.55 -0.9 Q14.45 -9.75 0.7 -9.75 M7.1 -31.05 Q4.65 -28.9 -0.35 -26.8 -10.4 -22.6 -23.25 -22.75 L-16.2 -25.75 Q-8.6 -29.9 -5.95 -35.6 -7.75 -33.45 -11.2 -31.6 -18.15 -27.85 -26.5 -29.15 L-26.5 -5.3 Q-21.4 -8.4 -15.75 -10.4 -7.5 -13.25 0.7 -13.25 14.4 -13.25 26.55 -5.15 L26.55 -38.65 Q23.75 -29.95 15.2 -24.75 2.9 -17.25 -19.3 -18.5 L-16.2 -18.9 Q-12.4 -19.5 -8.8 -20.55 2.55 -24.05 7.1 -31.05 M28.65 -52.4 Q29.55 -52.4 30.15 -51.8 30.75 -51.2 30.75 -50.3 L30.75 6.05 Q30.75 6.95 30.15 7.55 29.55 8.15 28.65 8.15 L22.05 8.15 27.8 52.4 -26.35 52.4 -20.3 8.15 -28.6 8.15 Q-29.45 8.15 -30.05 7.55 -30.7 6.9 -30.7 6.05 L-30.7 -50.3 Q-30.7 -51.15 -30.05 -51.8 -29.5 -52.4 -28.6 -52.4 L28.65 -52.4" fill="#000000" fill-rule="evenodd" stroke="none"/>
    <path d="M-6.45 -2.35 Q-7.25 -2.35 -7.65 -3.05 -7.95 -3.55 -7.8 -4.15 L-7.1 -4.95 -4.95 -5.85 0.4 -6.7 Q4.2 -6.7 7.8 -5.0 L8.55 -4.2 Q8.75 -3.65 8.5 -3.15 L7.7 -2.4 6.6 -2.45 Q3.65 -3.9 0.4 -3.9 -2.8 -3.9 -5.35 -2.7 L-5.75 -2.5 -6.45 -2.35" fill="#000000" fill-rule="evenodd" stroke="none"/>
  </g>
</svg>
