<?xml version="1.0" encoding="UTF-8" standalone="no"?>
<svg xmlns:xlink="http://www.w3.org/1999/xlink" height="85.65px" width="45.05px" xmlns="http://www.w3.org/2000/svg">
  <g transform="matrix(1.0, 0.0, 0.0, 1.0, 22.55, 42.85)">
    <path d="M-5.6 18.65 L-15.05 20.05 -15.3 39.05 15.95 39.05 15.0 20.05 Q5.7 17.7 -5.6 18.65 M13.75 -30.55 Q6.0 -25.7 -2.75 -26.9 -8.45 -27.7 -13.6 -30.8 -18.25 -24.1 -18.25 -15.35 -18.25 -10.55 -16.75 -6.15 -15.35 -2.0 -12.75 1.25 -10.2 4.45 -6.95 6.15 -3.65 7.9 0.0 7.9 3.6 7.85 6.9 6.15 10.2 4.4 12.7 1.25 15.3 -2.0 16.7 -6.15 18.2 -10.55 18.2 -15.35 18.2 -24.0 13.75 -30.55 M22.5 -15.35 Q22.5 -7.25 18.85 -0.35 L20.45 42.8 -19.35 42.8 -18.4 0.55 Q-22.55 -6.7 -22.55 -15.35 -22.55 -20.85 -20.8 -25.9 -19.15 -30.85 -16.1 -34.65 -13.0 -38.5 -8.95 -40.6 -4.7 -42.85 0.0 -42.85 4.65 -42.85 8.9 -40.6 13.0 -38.5 16.05 -34.65 19.1 -30.85 20.8 -25.9 22.5 -20.85 22.5 -15.35" fill="#000000" fill-rule="evenodd" stroke="none"/>
    <path d="M12.15 -5.45 Q11.8 -5.8 11.3 -5.85 10.85 -5.85 10.45 -5.5 5.45 -0.95 -0.05 -0.95 -3.95 -0.95 -7.75 -3.2 L-10.0 -4.8 -10.75 -5.45 Q-11.1 -5.8 -11.6 -5.85 L-12.5 -5.5 -12.85 -4.6 Q-12.85 -4.1 -12.5 -3.75 L-9.0 -1.1 Q-4.65 1.5 -0.05 1.5 L0.0 1.5 Q6.45 1.5 12.1 -3.7 12.45 -4.05 12.5 -4.55 L12.15 -5.45 M-9.5 -18.8 Q-10.95 -18.8 -11.95 -18.2 -12.95 -17.6 -12.95 -16.75 -12.95 -15.9 -11.95 -15.25 -10.9 -14.65 -9.5 -14.65 -8.1 -14.65 -7.1 -15.25 -6.1 -15.9 -6.1 -16.75 -6.1 -17.6 -7.1 -18.2 -8.1 -18.8 -9.5 -18.8 M8.35 -18.8 Q6.95 -18.8 5.95 -18.2 4.95 -17.6 4.95 -16.75 4.95 -15.9 5.95 -15.25 6.95 -14.65 8.35 -14.65 9.75 -14.65 10.75 -15.25 11.75 -15.9 11.75 -16.75 11.75 -17.6 10.75 -18.2 9.75 -18.8 8.35 -18.8 M-13.6 -30.8 Q-8.45 -27.7 -2.75 -26.9 6.0 -25.7 13.75 -30.55 18.2 -24.0 18.2 -15.35 18.2 -10.55 16.7 -6.15 15.3 -2.0 12.7 1.25 10.2 4.4 6.9 6.15 3.6 7.85 0.0 7.9 -3.65 7.9 -6.95 6.15 -10.2 4.45 -12.75 1.25 -15.35 -2.0 -16.75 -6.15 -18.25 -10.55 -18.25 -15.35 -18.25 -24.1 -13.6 -30.8" fill="#ffffff" fill-rule="evenodd" stroke="none"/>
    <path d="M0.0 1.5 L-0.05 1.5 Q-4.65 1.5 -9.0 -1.1 L-12.5 -3.75 Q-12.85 -4.1 -12.85 -4.6 L-12.5 -5.5 -11.6 -5.85 Q-11.1 -5.8 -10.75 -5.45 L-10.0 -4.8 -7.75 -3.2 Q-3.95 -0.95 -0.05 -0.95 5.45 -0.95 10.45 -5.5 10.85 -5.85 11.3 -5.85 11.8 -5.8 12.15 -5.45 L12.5 -4.55 Q12.45 -4.05 12.1 -3.7 6.45 1.5 0.0 1.5" fill="#000000" fill-rule="evenodd" stroke="none"/>
    <path d="M-11.95 -18.2 Q-10.95 -18.8 -9.5 -18.8 -8.1 -18.8 -7.1 -18.2 -6.1 -17.6 -6.1 -16.75 -6.1 -15.9 -7.1 -15.25 -8.1 -14.65 -9.5 -14.65 -10.9 -14.65 -11.95 -15.25 -12.95 -15.9 -12.95 -16.75 -12.95 -17.6 -11.95 -18.2" fill="#000000" fill-rule="evenodd" stroke="none"/>
    <path d="M5.95 -18.2 Q6.95 -18.8 8.35 -18.8 9.75 -18.8 10.75 -18.2 11.75 -17.6 11.75 -16.75 11.75 -15.9 10.75 -15.25 9.75 -14.65 8.35 -14.65 6.95 -14.65 5.95 -15.25 4.95 -15.9 4.95 -16.75 4.95 -17.6 5.95 -18.2" fill="#000000" fill-rule="evenodd" stroke="none"/>
    <path d="M-15.05 20.05 L-5.6 18.65 Q5.7 17.7 15.0 20.05 L15.95 39.05 -15.3 39.05 -15.05 20.05" fill="#ffffff" fill-rule="evenodd" stroke="none"/>
  </g>
</svg>
