<?xml version="1.0" encoding="UTF-8" standalone="no"?>
<svg xmlns:xlink="http://www.w3.org/1999/xlink" height="96.85px" width="80.15px" xmlns="http://www.w3.org/2000/svg">
  <g transform="matrix(1.0, 0.0, 0.0, 1.0, 40.1, 48.45)">
    <path d="M0.1 19.0 Q-0.9 19.0 -1.6 19.7 -2.3 20.4 -2.3 21.4 -2.3 22.4 -1.6 23.1 -0.9 23.8 0.1 23.8 1.1 23.8 1.75 23.1 2.45 22.4 2.45 21.4 2.45 20.4 1.75 19.7 1.05 19.0 0.1 19.0 M16.35 -8.3 Q15.5 -9.1 14.35 -9.1 L-11.35 -9.1 Q-12.55 -9.1 -13.35 -8.3 -14.2 -7.45 -14.2 -6.3 -14.2 -5.15 -13.35 -4.3 -12.55 -3.45 -11.35 -3.45 L14.35 -3.45 Q15.5 -3.45 16.35 -4.3 17.15 -5.15 17.15 -6.3 17.15 -7.45 16.35 -8.3 M24.9 -33.3 Q29.0 -29.2 31.6 -24.0 L17.95 -24.0 Q16.85 -24.0 16.85 -22.95 16.85 -22.5 17.15 -22.15 17.45 -21.85 17.95 -21.85 L23.95 -21.85 Q22.7 -21.2 22.7 -19.75 22.7 -18.75 23.4 -18.05 24.15 -17.35 25.1 -17.35 26.1 -17.35 26.8 -18.05 27.5 -18.75 27.5 -19.75 27.5 -21.2 26.25 -21.85 L32.6 -21.85 Q35.25 -15.4 35.25 -8.4 35.25 -1.2 32.5 5.35 29.8 11.65 24.9 16.55 20.05 21.4 13.75 24.1 7.2 26.85 0.0 26.85 -7.15 26.85 -13.75 24.1 -20.05 21.4 -24.95 16.55 -29.8 11.65 -32.5 5.35 -35.25 -1.25 -35.25 -8.4 -35.25 -15.4 -32.6 -21.85 L-23.25 -21.85 Q-24.5 -21.2 -24.5 -19.75 -24.5 -18.75 -23.8 -18.05 -23.1 -17.35 -22.15 -17.35 -21.15 -17.35 -20.45 -18.05 -19.75 -18.75 -19.75 -19.75 -19.75 -21.2 -21.0 -21.85 L-15.95 -21.85 Q-15.5 -21.85 -15.15 -22.15 -14.85 -22.5 -14.85 -22.95 -14.85 -23.4 -15.15 -23.7 -15.5 -24.05 -15.95 -24.05 L-31.6 -24.05 Q-30.2 -26.9 -28.2 -29.6 -22.5 -27.45 -17.35 -27.55 -6.65 -27.55 1.7 -35.6 5.35 -39.05 7.5 -42.85 17.6 -40.6 24.9 -33.3" fill="#ffffff" fill-rule="evenodd" stroke="none"/>
    <path d="M-2.9 -43.45 Q-5.6 -40.55 -8.8 -38.6 -13.65 -35.7 -18.6 -35.75 L-21.85 -36.05 Q-13.5 -42.7 -2.85 -43.5 L-2.9 -43.45" fill="#ffffff" fill-rule="evenodd" stroke="none"/>
    <path d="M-23.1 -35.0 Q-20.65 -34.45 -18.6 -34.45 -12.5 -34.5 -6.85 -38.35 -3.5 -40.6 -1.05 -43.6 L0.0 -43.65 3.65 -43.45 Q1.05 -39.65 -2.25 -36.85 -9.2 -31.1 -17.35 -31.1 -21.2 -31.1 -25.7 -32.5 L-23.1 -35.0" fill="#ffffff" fill-rule="evenodd" stroke="none"/>
    <path d="M-21.85 -36.05 L-18.6 -35.75 Q-13.65 -35.7 -8.8 -38.6 -5.6 -40.55 -2.9 -43.45 L-2.85 -43.5 Q-13.5 -42.7 -21.85 -36.05 M-18.6 -34.45 Q-20.65 -34.45 -23.1 -35.0 L-25.7 -32.5 Q-21.2 -31.1 -17.35 -31.1 -9.2 -31.1 -2.25 -36.85 1.05 -39.65 3.65 -43.45 L0.0 -43.65 -1.05 -43.6 Q-3.5 -40.6 -6.85 -38.35 -12.5 -34.5 -18.6 -34.45 M40.05 -8.4 Q40.05 4.2 32.9 14.5 25.85 24.55 14.5 28.95 13.25 35.9 17.1 42.85 19.05 46.35 21.2 48.4 L-18.55 48.4 -18.55 27.15 Q-28.3 22.05 -34.1 12.65 -40.1 3.0 -40.1 -8.4 -40.1 -25.0 -28.35 -36.7 -16.6 -48.45 0.0 -48.45 16.6 -48.45 28.3 -36.7 40.05 -24.95 40.05 -8.4 M32.6 -21.85 L26.25 -21.85 Q27.5 -21.2 27.5 -19.75 27.5 -18.75 26.8 -18.05 26.1 -17.35 25.1 -17.35 24.15 -17.35 23.4 -18.05 22.7 -18.75 22.7 -19.75 22.7 -21.2 23.95 -21.85 L17.95 -21.85 Q17.45 -21.85 17.15 -22.15 16.85 -22.5 16.85 -22.95 16.85 -24.0 17.95 -24.0 L31.6 -24.0 Q29.0 -29.2 24.9 -33.3 17.6 -40.6 7.5 -42.85 5.35 -39.05 1.7 -35.6 -6.65 -27.55 -17.35 -27.55 -22.5 -27.45 -28.2 -29.6 -30.2 -26.9 -31.6 -24.05 L-15.95 -24.05 Q-15.5 -24.05 -15.15 -23.7 -14.85 -23.4 -14.85 -22.95 -14.85 -22.5 -15.15 -22.15 -15.5 -21.85 -15.95 -21.85 L-21.0 -21.85 Q-19.75 -21.2 -19.75 -19.75 -19.75 -18.75 -20.45 -18.05 -21.15 -17.35 -22.15 -17.35 -23.1 -17.35 -23.8 -18.05 -24.5 -18.75 -24.5 -19.75 -24.5 -21.2 -23.25 -21.85 L-32.6 -21.85 Q-35.25 -15.4 -35.25 -8.4 -35.25 -1.25 -32.5 5.35 -29.8 11.65 -24.95 16.55 -20.05 21.4 -13.75 24.1 -7.15 26.85 0.0 26.85 7.2 26.85 13.75 24.1 20.05 21.4 24.9 16.55 29.8 11.65 32.5 5.35 35.25 -1.2 35.25 -8.4 35.25 -15.4 32.6 -21.85" fill="#000000" fill-rule="evenodd" stroke="none"/>
    <path d="M0.1 19.0 Q1.05 19.0 1.75 19.7 2.45 20.4 2.45 21.4 2.45 22.4 1.75 23.1 1.1 23.8 0.1 23.8 -0.9 23.8 -1.6 23.1 -2.3 22.4 -2.3 21.4 -2.3 20.4 -1.6 19.7 -0.9 19.0 0.1 19.0" fill="#000000" fill-rule="evenodd" stroke="none"/>
    <path d="M-11.35 -3.45 Q-12.55 -3.45 -13.35 -4.3 -14.2 -5.15 -14.2 -6.3 -14.2 -7.45 -13.35 -8.3 -12.55 -9.1 -11.35 -9.1 L14.35 -9.1 Q15.5 -9.1 16.35 -8.3 17.15 -7.45 17.15 -6.3 17.15 -5.15 16.35 -4.3 15.5 -3.45 14.35 -3.45 L-11.35 -3.45" fill="#000000" fill-rule="evenodd" stroke="none"/>
  </g>
</svg>
