<?xml version="1.0" encoding="UTF-8" standalone="no"?>
<svg xmlns:xlink="http://www.w3.org/1999/xlink" height="87.55px" width="62.9px" xmlns="http://www.w3.org/2000/svg">
  <g transform="matrix(1.0, 0.0, 0.0, 1.0, 31.45, 43.8)">
    <path d="M17.0 -5.35 Q18.5 -9.95 18.5 -14.95 L18.15 -19.4 10.2 -17.85 Q11.7 -17.25 11.7 -15.6 11.7 -14.55 11.0 -13.8 10.25 -13.1 9.2 -13.1 8.2 -13.1 7.45 -13.8 6.75 -14.55 6.75 -15.6 6.75 -16.65 7.45 -17.35 L-0.5 -15.8 -7.8 -17.45 Q-6.95 -16.7 -6.95 -15.6 -6.95 -14.55 -7.7 -13.8 -8.45 -13.1 -9.45 -13.1 -10.45 -13.1 -11.2 -13.8 -11.95 -14.55 -11.95 -15.6 -11.95 -16.4 -11.4 -17.05 L-10.15 -17.95 -16.95 -19.5 Q-17.3 -17.45 -17.3 -14.95 -17.3 -9.95 -15.8 -5.35 -14.4 -0.95 -11.85 2.4 -9.3 5.75 -6.15 7.5 -2.95 9.3 0.6 9.3 4.1 9.3 7.35 7.5 10.5 5.7 13.05 2.4 15.6 -0.95 17.0 -5.35 M13.05 -32.3 Q10.55 -35.6 7.35 -37.35 4.1 -39.15 0.6 -39.15 -6.65 -39.15 -11.85 -32.3 -15.1 -28.15 -16.45 -22.3 L-0.45 -18.7 17.65 -22.2 Q16.3 -28.05 13.05 -32.3 M0.6 -43.8 Q5.3 -43.8 9.6 -41.4 13.65 -39.15 16.75 -35.1 19.75 -31.1 21.4 -26.0 23.1 -20.7 23.1 -14.95 23.1 -9.55 21.65 -4.75 26.3 2.3 28.8 11.65 31.45 21.3 31.45 31.9 31.45 38.4 30.8 43.75 L-30.6 43.65 Q-31.45 37.85 -31.45 31.9 -31.45 20.85 -28.55 10.8 -25.8 1.15 -20.8 -5.95 -21.95 -10.3 -21.95 -14.95 -21.95 -20.7 -20.25 -26.0 -18.6 -31.1 -15.55 -35.1 -12.45 -39.15 -8.4 -41.4 -4.1 -43.8 0.6 -43.8" fill="#000000" fill-rule="evenodd" stroke="none"/>
    <path d="M0.5 -36.6 Q-2.35 -36.6 -4.35 -35.4 -6.4 -34.25 -6.4 -32.6 -6.4 -30.95 -4.35 -29.75 -2.35 -28.6 0.5 -28.6 3.3 -28.6 5.35 -29.75 7.35 -30.95 7.35 -32.6 7.35 -34.25 5.35 -35.4 3.3 -36.6 0.5 -36.6 M0.6 -39.15 Q4.1 -39.15 7.35 -37.35 10.55 -35.6 13.05 -32.3 16.3 -28.05 17.65 -22.2 L-0.45 -18.7 -16.45 -22.3 Q-15.1 -28.15 -11.85 -32.3 -6.65 -39.15 0.6 -39.15" fill="#ffffff" fill-rule="evenodd" stroke="none"/>
    <path d="M13.5 0.0 L13.2 -0.65 12.55 -0.95 -11.35 -0.95 -12.0 -0.65 -12.3 0.0 -12.0 0.7 -11.35 0.95 12.55 0.95 13.2 0.7 13.5 0.0 M18.5 -14.95 Q18.5 -9.95 17.0 -5.35 15.6 -0.95 13.05 2.4 10.5 5.7 7.35 7.5 4.1 9.3 0.6 9.3 -2.95 9.3 -6.15 7.5 -9.3 5.75 -11.85 2.4 -14.4 -0.95 -15.8 -5.35 -17.3 -9.95 -17.3 -14.95 -17.3 -17.45 -16.95 -19.5 L-10.15 -17.95 -11.4 -17.05 Q-11.95 -16.4 -11.95 -15.6 -11.95 -14.55 -11.2 -13.8 -10.45 -13.1 -9.45 -13.1 -8.45 -13.1 -7.7 -13.8 -6.95 -14.55 -6.95 -15.6 -6.95 -16.7 -7.8 -17.45 L-0.5 -15.8 7.45 -17.35 Q6.75 -16.65 6.75 -15.6 6.75 -14.55 7.45 -13.8 8.2 -13.1 9.2 -13.1 10.25 -13.1 11.0 -13.8 11.7 -14.55 11.7 -15.6 11.7 -17.25 10.2 -17.85 L18.15 -19.4 18.5 -14.95" fill="#ffffff" fill-rule="evenodd" stroke="none"/>
    <path d="M-4.35 -29.75 Q-6.4 -30.95 -6.4 -32.6 -6.4 -34.25 -4.35 -35.4 -2.35 -36.6 0.5 -36.6 3.3 -36.6 5.35 -35.4 7.35 -34.25 7.35 -32.6 7.35 -30.95 5.35 -29.75 3.3 -28.6 0.5 -28.6 -2.35 -28.6 -4.35 -29.75" fill="#000000" fill-rule="evenodd" stroke="none"/>
    <path d="M12.55 -0.95 L13.2 -0.65 13.5 0.0 13.2 0.7 12.55 0.95 -11.35 0.95 -12.0 0.7 -12.3 0.0 -12.0 -0.65 -11.35 -0.95 12.55 -0.95" fill="#000000" fill-rule="evenodd" stroke="none"/>
  </g>
</svg>
