<?xml version="1.0" encoding="UTF-8" standalone="no"?>
<svg xmlns:xlink="http://www.w3.org/1999/xlink" height="83.4px" width="64.3px" xmlns="http://www.w3.org/2000/svg">
  <g transform="matrix(1.0, 0.0, 0.0, 1.0, 32.15, 41.7)">
    <path d="M0.0 9.15 Q6.4 9.15 12.25 7.65 17.95 6.2 22.4 3.55 L23.15 3.1 23.15 3.5 Q23.15 12.5 21.85 19.75 9.2 25.9 -5.1 24.45 -14.2 23.5 -22.2 19.9 -23.25 14.5 -23.25 8.8 L-23.0 3.2 -22.4 3.55 Q-17.95 6.2 -12.25 7.65 -6.4 9.15 0.0 9.15" fill="#ffffff" fill-rule="evenodd" stroke="none"/>
    <path d="M20.4 1.0 L20.4 -2.6 15.7 -1.3 15.7 2.95 20.4 1.0 M20.4 -7.05 L20.4 -10.85 Q17.95 -9.85 15.7 -9.2 L15.7 -5.3 Q18.15 -6.05 20.4 -7.05 M27.45 -3.1 L25.65 -4.4 21.4 -2.9 21.4 0.5 Q25.25 -1.4 27.45 -3.1 M27.45 -14.4 Q24.8 -12.75 21.4 -11.25 L21.4 -7.5 Q24.2 -8.75 25.65 -9.85 L27.45 -14.4 M7.6 5.05 L7.6 0.3 0.0 0.95 0.0 5.7 7.6 5.05 M8.6 0.15 L8.6 4.85 14.65 3.3 14.65 -1.05 8.6 0.15 M8.6 -7.65 L8.6 -3.7 14.65 -5.0 14.65 -8.9 8.6 -7.65 M7.6 -3.55 L7.6 -7.5 0.0 -7.1 0.0 -3.15 7.6 -3.55 M-8.8 0.55 L-8.8 4.85 -1.0 5.7 -1.0 0.95 -8.8 0.55 M-22.4 3.55 L-23.0 3.2 -23.25 8.8 Q-23.25 14.5 -22.2 19.9 -14.2 23.5 -5.1 24.45 9.2 25.9 21.85 19.75 23.15 12.5 23.15 3.5 L23.15 3.1 22.4 3.55 Q17.95 6.2 12.25 7.65 6.4 9.15 0.0 9.15 -6.4 9.15 -12.25 7.65 -17.95 6.2 -22.4 3.55 M-21.4 -2.65 L-21.4 0.35 Q-18.9 1.7 -16.35 2.65 L-16.35 -0.9 Q-19.35 -1.7 -21.4 -2.65 M-26.2 -9.55 L-22.45 -7.95 -22.45 -11.4 -27.6 -13.6 -26.2 -9.55 M-25.2 -4.5 L-26.7 -2.75 Q-24.4 -1.25 -22.45 -0.2 L-22.45 -3.05 -25.2 -4.5 M-8.8 -7.85 L-8.8 -3.95 -1.0 -3.15 -1.0 -7.15 -8.8 -7.85 M-9.8 0.45 L-15.35 -0.65 -15.35 3.0 -9.8 4.65 -9.8 0.45 M-15.35 -9.2 L-15.35 -5.45 -9.8 -4.15 -9.8 -8.0 Q-12.95 -8.55 -15.35 -9.2 M-16.35 -5.75 L-16.35 -9.45 -21.4 -11.05 -21.4 -7.55 -16.35 -5.75 M-22.4 -25.25 Q-20.1 -26.65 -16.6 -28.0 L-22.95 -40.35 -11.15 -32.3 -5.05 -41.7 -0.7 -34.55 1.7 -39.9 4.05 -33.2 7.75 -36.3 9.8 -31.85 19.9 -38.1 19.15 -34.5 17.5 -27.65 Q20.2 -26.55 22.4 -25.25 26.9 -22.55 29.45 -18.95 32.1 -15.15 32.15 -10.85 32.15 -4.7 26.7 0.4 L26.7 3.5 Q26.75 21.05 21.9 32.75 19.45 38.65 16.75 41.25 L16.2 41.7 -14.9 41.7 -15.45 41.2 Q-26.8 29.8 -26.8 8.8 L-26.35 0.7 Q-32.15 -4.45 -32.15 -10.85 -32.15 -15.15 -29.45 -18.95 -26.9 -22.55 -22.4 -25.25 M0.0 -27.25 L-0.05 -27.25 Q-6.0 -27.25 -11.4 -25.9 -16.6 -24.55 -20.55 -22.2 -24.65 -19.75 -26.75 -16.55 -17.15 -11.75 -6.2 -10.55 11.15 -8.6 26.4 -17.05 24.35 -19.85 20.55 -22.2 16.6 -24.55 11.4 -25.9 5.95 -27.25 0.0 -27.25" fill="#000000" fill-rule="evenodd" stroke="none"/>
    <path d="M-12.75 -20.25 Q-13.35 -19.65 -13.35 -18.8 -13.35 -17.95 -12.75 -17.4 -12.15 -16.8 -11.3 -16.8 -10.45 -16.8 -9.9 -17.4 -9.3 -17.95 -9.3 -18.8 -9.3 -19.65 -9.9 -20.25 -10.45 -20.85 -11.3 -20.85 -12.15 -20.85 -12.75 -20.25 M-0.05 -27.25 L0.0 -27.25 Q5.95 -27.25 11.4 -25.9 16.6 -24.55 20.55 -22.2 24.35 -19.85 26.4 -17.05 11.15 -8.6 -6.2 -10.55 -17.15 -11.75 -26.75 -16.55 -24.65 -19.75 -20.55 -22.2 -16.6 -24.55 -11.4 -25.9 -6.0 -27.25 -0.05 -27.25 M12.35 -19.6 Q11.8 -20.2 10.95 -20.2 10.1 -20.2 9.5 -19.6 8.9 -19.0 8.9 -18.15 8.9 -17.35 9.5 -16.75 10.1 -16.15 10.95 -16.15 11.8 -16.15 12.35 -16.75 12.95 -17.3 12.95 -18.15 12.95 -19.0 12.35 -19.6" fill="#ffffff" fill-rule="evenodd" stroke="none"/>
    <path d="M8.6 -3.7 L8.6 -7.65 14.65 -8.9 14.65 -5.0 8.6 -3.7" fill="#ffffff" fill-rule="evenodd" stroke="none"/>
    <path d="M-8.8 -3.95 L-8.8 -7.85 -1.0 -7.15 -1.0 -3.15 -8.8 -3.95" fill="#ffffff" fill-rule="evenodd" stroke="none"/>
    <path d="M0.0 -7.1 L7.6 -7.5 7.6 -3.55 0.0 -3.15 0.0 -7.1" fill="#ffffff" fill-rule="evenodd" stroke="none"/>
    <path d="M15.7 -5.3 L15.7 -9.2 Q17.95 -9.85 20.4 -10.85 L20.4 -7.05 Q18.15 -6.05 15.7 -5.3" fill="#ffffff" fill-rule="evenodd" stroke="none"/>
    <path d="M-15.35 -5.45 L-15.35 -9.2 Q-12.95 -8.55 -9.8 -8.0 L-9.8 -4.15 -15.35 -5.45" fill="#ffffff" fill-rule="evenodd" stroke="none"/>
    <path d="M-21.4 -7.55 L-21.4 -11.05 -16.35 -9.45 -16.35 -5.75 -21.4 -7.55" fill="#ffffff" fill-rule="evenodd" stroke="none"/>
    <path d="M21.4 -7.5 L21.4 -11.25 Q24.8 -12.75 27.45 -14.4 L25.65 -9.85 Q24.2 -8.75 21.4 -7.5" fill="#ffffff" fill-rule="evenodd" stroke="none"/>
    <path d="M-22.45 -11.4 L-22.45 -7.95 -26.2 -9.55 -27.6 -13.6 -22.45 -11.4" fill="#ffffff" fill-rule="evenodd" stroke="none"/>
    <path d="M27.45 -3.1 Q25.25 -1.4 21.4 0.5 L21.4 -2.9 25.65 -4.4 27.45 -3.1" fill="#ffffff" fill-rule="evenodd" stroke="none"/>
    <path d="M-15.35 3.0 L-15.35 -0.65 -9.8 0.45 -9.8 4.65 -15.35 3.0" fill="#ffffff" fill-rule="evenodd" stroke="none"/>
    <path d="M15.7 2.95 L15.7 -1.3 20.4 -2.6 20.4 1.0 15.7 2.95" fill="#ffffff" fill-rule="evenodd" stroke="none"/>
    <path d="M0.0 5.7 L0.0 0.95 7.6 0.3 7.6 5.05 0.0 5.7" fill="#ffffff" fill-rule="evenodd" stroke="none"/>
    <path d="M-8.8 0.55 L-1.0 0.95 -1.0 5.7 -8.8 4.85 -8.8 0.55" fill="#ffffff" fill-rule="evenodd" stroke="none"/>
    <path d="M-22.45 -0.2 Q-24.4 -1.25 -26.7 -2.75 L-25.2 -4.5 -22.45 -3.05 -22.45 -0.2" fill="#ffffff" fill-rule="evenodd" stroke="none"/>
    <path d="M-21.4 0.35 L-21.4 -2.65 Q-19.35 -1.7 -16.35 -0.9 L-16.35 2.65 Q-18.9 1.7 -21.4 0.35" fill="#ffffff" fill-rule="evenodd" stroke="none"/>
    <path d="M8.6 4.85 L8.6 0.15 14.65 -1.05 14.65 3.3 8.6 4.85" fill="#ffffff" fill-rule="evenodd" stroke="none"/>
    <path d="M-11.3 -20.85 Q-10.45 -20.85 -9.9 -20.25 -9.3 -19.65 -9.3 -18.8 -9.3 -17.95 -9.9 -17.4 -10.45 -16.8 -11.3 -16.8 -12.15 -16.8 -12.75 -17.4 -13.35 -17.95 -13.35 -18.8 -13.35 -19.65 -12.75 -20.25 -12.15 -20.85 -11.3 -20.85" fill="#000000" fill-rule="evenodd" stroke="none"/>
    <path d="M10.95 -20.2 Q11.8 -20.2 12.35 -19.6 12.95 -19.0 12.95 -18.15 12.95 -17.3 12.35 -16.75 11.8 -16.15 10.95 -16.15 10.1 -16.15 9.5 -16.75 8.9 -17.35 8.9 -18.15 8.9 -19.0 9.5 -19.6 10.1 -20.2 10.95 -20.2" fill="#000000" fill-rule="evenodd" stroke="none"/>
  </g>
</svg>
