<?xml version="1.0" encoding="UTF-8" standalone="no"?>
<svg xmlns:xlink="http://www.w3.org/1999/xlink" height="121.35px" width="39.0px" xmlns="http://www.w3.org/2000/svg">
  <g transform="matrix(1.0, 0.0, 0.0, 1.0, 19.5, 60.7)">
    <path d="M9.2 -49.75 Q10.8 -46.2 11.9 -42.3 5.75 -36.05 -5.75 -31.5 L-9.9 -30.0 Q-9.0 -35.9 -7.9 -40.25 3.05 -43.75 9.2 -49.75" fill="#ffffff" fill-rule="evenodd" stroke="none"/>
    <path d="M2.3 -56.85 Q4.45 -56.85 6.7 -53.9 L8.25 -51.55 7.5 -50.8 Q1.95 -45.7 -7.3 -42.45 L-6.7 -44.4 Q-4.75 -50.55 -2.15 -53.9 0.1 -56.85 2.3 -56.85" fill="#ffffff" fill-rule="evenodd" stroke="none"/>
    <path d="M4.8 -31.45 Q9.65 -34.15 13.15 -37.25 15.75 -25.6 15.65 -11.75 15.65 -0.45 14.0 9.45 10.2 11.35 6.1 11.85 -0.25 12.55 -5.55 9.55 L-6.7 9.45 Q-7.65 9.65 -6.4 11.25 L-4.9 12.35 Q-3.0 13.55 -0.75 14.2 6.35 16.25 13.55 11.95 12.5 17.25 11.25 20.95 9.3 27.15 6.7 30.45 4.45 33.4 2.3 33.4 0.1 33.4 -2.15 30.45 -6.0 25.5 -8.5 14.15 -11.15 2.25 -11.1 -11.75 -11.1 -19.0 -10.45 -25.05 L-4.55 -27.1 -4.15 -26.55 0.65 -26.7 0.65 -10.8 Q-3.15 -10.35 -6.0 -8.35 -9.85 -5.6 -9.85 -1.65 -9.85 2.35 -6.0 5.0 -2.45 7.55 2.65 7.55 7.75 7.55 11.3 5.0 13.1 3.8 14.1 2.1 15.15 0.35 15.15 -1.65 15.15 -5.65 11.3 -8.35 7.8 -10.8 2.95 -10.9 L2.95 -26.8 9.2 -27.0 10.2 -27.2 Q11.15 -27.6 11.15 -28.6 11.15 -29.65 10.05 -30.65 L8.9 -31.45 4.8 -31.45" fill="#ffffff" fill-rule="evenodd" stroke="none"/>
    <path d="M-4.35 -6.0 Q-6.95 -4.1 -6.95 -1.65 -6.95 0.8 -4.35 2.65 -1.5 4.7 2.65 4.7 6.8 4.7 9.65 2.65 12.25 0.8 12.25 -1.65 12.25 -4.1 9.65 -6.0 6.75 -8.0 2.65 -8.0 -1.45 -8.0 -4.35 -6.0 M11.9 -42.3 Q10.8 -46.2 9.2 -49.75 3.05 -43.75 -7.9 -40.25 -9.0 -35.9 -9.9 -30.0 L-5.75 -31.5 Q5.75 -36.05 11.9 -42.3 M9.2 -27.0 L2.95 -26.8 2.95 -10.9 Q7.8 -10.8 11.3 -8.35 15.15 -5.65 15.15 -1.65 15.15 0.35 14.1 2.1 13.1 3.8 11.3 5.0 7.75 7.55 2.65 7.55 -2.45 7.55 -6.0 5.0 -9.85 2.35 -9.85 -1.65 -9.85 -5.6 -6.0 -8.35 -3.15 -10.35 0.65 -10.8 L0.65 -26.7 -4.15 -26.55 -4.55 -27.1 -10.45 -25.05 Q-11.1 -19.0 -11.1 -11.75 -11.15 2.25 -8.5 14.15 -6.0 25.5 -2.15 30.45 0.1 33.4 2.3 33.4 4.45 33.4 6.7 30.45 9.3 27.15 11.25 20.95 12.5 17.25 13.55 11.95 6.35 16.25 -0.75 14.2 -3.0 13.55 -4.9 12.35 L-6.4 11.25 Q-7.65 9.65 -6.7 9.45 L-5.55 9.55 Q-0.25 12.55 6.1 11.85 10.2 11.35 14.0 9.45 15.65 -0.45 15.65 -11.75 15.75 -25.6 13.15 -37.25 9.65 -34.15 4.8 -31.45 L8.9 -31.45 10.05 -30.65 Q11.15 -29.65 11.15 -28.6 11.15 -27.6 10.2 -27.2 L9.2 -27.0 M8.25 -51.55 L6.7 -53.9 Q4.45 -56.85 2.3 -56.85 0.1 -56.85 -2.15 -53.9 -4.75 -50.55 -6.7 -44.4 L-7.3 -42.45 Q1.95 -45.7 7.5 -50.8 L8.25 -51.55 M2.3 -60.7 Q6.4 -60.7 9.75 -56.25 12.7 -52.45 14.95 -45.6 L14.95 -45.5 18.45 -43.1 16.4 -40.45 Q19.5 -27.65 19.5 -11.75 L19.5 60.65 -14.8 60.65 -14.8 -5.35 -14.95 -11.75 Q-14.95 -17.4 -14.45 -23.9 L-18.65 -22.9 -19.5 -27.4 -13.95 -28.75 Q-12.8 -37.95 -10.6 -45.0 -8.3 -52.15 -5.2 -56.25 -1.85 -60.7 2.3 -60.7" fill="#000000" fill-rule="evenodd" stroke="none"/>
    <path d="M9.45 -3.5 Q8.6 -4.35 7.35 -4.35 6.1 -4.35 5.25 -3.5 4.35 -2.65 4.35 -1.4 4.35 -0.15 5.25 0.7 6.1 1.6 7.35 1.6 8.6 1.6 9.45 0.7 10.3 -0.15 10.3 -1.4 10.3 -2.65 9.45 -3.5 M-0.75 -3.5 Q-1.65 -4.35 -2.85 -4.35 -4.1 -4.35 -4.95 -3.5 -5.85 -2.65 -5.85 -1.4 -5.85 -0.15 -4.95 0.7 -4.1 1.6 -2.85 1.6 -1.65 1.6 -0.75 0.7 0.1 -0.15 0.1 -1.4 0.1 -2.65 -0.75 -3.5 M-6.95 -1.65 Q-6.95 -4.1 -4.35 -6.0 -1.45 -8.0 2.65 -8.0 6.75 -8.0 9.65 -6.0 12.25 -4.1 12.25 -1.65 12.25 0.8 9.65 2.65 6.8 4.7 2.65 4.7 -1.5 4.7 -4.35 2.65 -6.95 0.8 -6.95 -1.65" fill="#ffffff" fill-rule="evenodd" stroke="none"/>
    <path d="M-5.85 -1.4 Q-5.85 -2.65 -4.95 -3.5 -4.1 -4.35 -2.85 -4.35 -1.65 -4.35 -0.75 -3.5 0.1 -2.65 0.1 -1.4 0.1 -0.15 -0.75 0.7 -1.65 1.6 -2.85 1.6 -4.1 1.6 -4.95 0.7 -5.85 -0.15 -5.85 -1.4" fill="#000000" fill-rule="evenodd" stroke="none"/>
    <path d="M7.35 1.6 Q6.1 1.6 5.25 0.7 4.35 -0.15 4.35 -1.4 4.35 -2.65 5.25 -3.5 6.1 -4.35 7.35 -4.35 8.6 -4.35 9.45 -3.5 10.3 -2.65 10.3 -1.4 10.3 -0.15 9.45 0.7 8.6 1.6 7.35 1.6" fill="#000000" fill-rule="evenodd" stroke="none"/>
  </g>
</svg>
