<?xml version="1.0" encoding="UTF-8" standalone="no"?>
<svg xmlns:xlink="http://www.w3.org/1999/xlink" height="121.75px" width="54.95px" xmlns="http://www.w3.org/2000/svg">
  <g transform="matrix(1.0, 0.0, 0.0, 1.0, 27.45, 60.9)">
    <path d="M16.55 9.75 L16.55 -11.5 Q9.25 -5.95 0.0 -5.95 -9.2 -5.95 -16.5 -11.5 L-16.5 9.45 -14.15 8.25 Q-11.05 6.9 -7.45 6.25 4.1 4.15 16.55 9.75 M27.5 -33.45 Q27.5 -23.2 20.75 -15.4 L20.75 60.85 -20.7 60.85 -20.7 -15.4 Q-23.9 -19.1 -25.65 -23.65 -27.45 -28.35 -27.45 -33.45 -27.45 -44.8 -19.4 -52.85 -11.35 -60.9 0.0 -60.9 11.4 -60.9 19.45 -52.85 27.5 -44.8 27.5 -33.45 M-0.85 -16.05 L1.35 -16.05 1.35 -12.2 8.75 -12.2 Q12.75 -13.85 15.9 -16.85 19.05 -19.9 20.85 -23.8 11.7 -18.85 -1.65 -19.3 -10.55 -19.65 -20.0 -22.25 -16.15 -15.3 -8.7 -12.2 L-0.85 -12.2 -0.85 -16.05 M18.25 -47.4 L20.4 -42.25 Q19.4 -40.85 18.7 -41.4 L18.2 -42.25 Q17.15 -45.7 12.8 -50.8 15.25 -45.75 15.6 -41.65 14.8 -40.85 14.0 -41.15 L13.35 -41.65 Q12.3 -48.85 7.65 -54.8 9.6 -48.25 9.8 -41.3 8.8 -40.1 7.95 -40.45 L7.25 -41.0 Q7.5 -46.2 4.1 -56.0 L3.6 -56.1 Q4.45 -46.95 3.05 -40.65 2.4 -40.25 1.8 -40.2 0.5 -40.15 0.5 -41.95 0.85 -50.15 0.5 -55.4 -1.3 -49.7 -3.35 -39.4 -4.55 -39.0 -5.55 -39.65 L-6.25 -40.35 Q-6.25 -48.3 -2.4 -56.25 L-2.9 -56.2 Q-5.2 -52.8 -8.35 -46.25 L-11.05 -40.35 Q-12.65 -39.35 -13.6 -39.9 L-14.25 -40.65 Q-13.15 -47.75 -8.55 -54.05 -12.7 -50.4 -15.5 -44.85 L-17.5 -40.0 Q-18.5 -39.2 -19.2 -39.85 L-19.75 -40.65 Q-18.95 -46.05 -15.3 -50.5 -18.9 -47.3 -20.9 -42.95 -22.95 -38.45 -22.95 -33.45 -22.95 -29.05 -21.2 -24.75 L-21.55 -24.75 Q-11.9 -21.8 -2.3 -21.35 13.05 -20.6 22.5 -27.05 L22.05 -27.05 Q22.95 -30.1 22.95 -33.45 22.95 -41.2 18.25 -47.4" fill="#000000" fill-rule="evenodd" stroke="none"/>
    <path d="M0.0 -5.95 Q9.25 -5.95 16.55 -11.5 L16.55 9.75 Q4.1 4.15 -7.45 6.25 -11.05 6.9 -14.15 8.25 L-16.5 9.45 -16.5 -11.5 Q-9.2 -5.95 0.0 -5.95" fill="#ffffff" fill-rule="evenodd" stroke="none"/>
  </g>
</svg>
