<?xml version="1.0" encoding="UTF-8" standalone="no"?>
<svg xmlns:xlink="http://www.w3.org/1999/xlink" height="128.8px" width="74.25px" xmlns="http://www.w3.org/2000/svg">
  <g transform="matrix(1.0, 0.0, 0.0, 1.0, 37.1, 64.4)">
    <path d="M9.6 4.1 Q5.25 8.05 0.25 8.05 -4.55 8.05 -8.8 4.35 L-8.8 13.15 Q0.65 11.7 9.6 13.4 L9.6 4.1 M-19.0 -18.5 L-22.5 -18.65 -20.45 16.1 Q-17.5 15.0 -14.2 14.2 L-14.2 -2.65 Q-17.9 -9.55 -19.0 -18.5 M26.25 -55.05 Q37.15 -45.7 37.15 -32.45 37.15 -26.05 34.3 -20.2 31.55 -14.55 26.55 -10.15 L23.6 64.4 -20.9 64.4 -25.15 -9.0 Q-30.75 -13.45 -33.9 -19.45 -37.1 -25.65 -37.1 -32.45 -37.1 -45.7 -26.2 -55.05 -15.35 -64.4 0.05 -64.4 15.4 -64.4 26.25 -55.05 M23.6 -16.65 L19.3 -16.85 Q18.0 -9.0 15.0 -3.25 L15.0 14.7 Q18.65 15.85 22.25 17.6 L23.6 -16.65 M15.3 -13.75 Q16.7 -19.6 16.7 -26.0 16.7 -29.35 16.3 -32.85 L-15.8 -32.85 -16.0 -30.4 -3.85 -30.4 -3.85 -8.0 4.15 -12.45 5.2 -10.55 -6.05 -4.3 -6.05 -20.15 Q-6.5 -18.95 -7.55 -18.25 -8.6 -17.5 -9.9 -17.5 -11.6 -17.5 -12.8 -18.7 -14.05 -19.95 -14.05 -21.65 -14.05 -23.35 -12.8 -24.6 -11.6 -25.8 -9.9 -25.8 -8.6 -25.8 -7.55 -25.05 -6.5 -24.35 -6.05 -23.15 L-6.05 -28.25 -16.15 -28.25 -16.2 -26.0 Q-16.2 -19.6 -14.8 -13.75 -13.5 -8.15 -11.1 -3.9 -8.8 0.3 -5.8 2.55 -2.9 4.75 0.25 4.75 3.4 4.75 6.3 2.55 9.3 0.3 11.6 -3.9 14.0 -8.15 15.3 -13.75" fill="#000000" fill-rule="evenodd" stroke="none"/>
    <path d="M0.25 8.05 Q5.25 8.05 9.6 4.1 L9.6 13.4 Q0.65 11.7 -8.8 13.15 L-8.8 4.35 Q-4.55 8.05 0.25 8.05" fill="#ffffff" fill-rule="evenodd" stroke="none"/>
    <path d="M-22.5 -18.65 L-19.0 -18.5 Q-17.9 -9.55 -14.2 -2.65 L-14.2 14.2 Q-17.5 15.0 -20.45 16.1 L-22.5 -18.65" fill="#ffffff" fill-rule="evenodd" stroke="none"/>
    <path d="M19.3 -16.85 L23.6 -16.65 22.25 17.6 Q18.65 15.85 15.0 14.7 L15.0 -3.25 Q18.0 -9.0 19.3 -16.85" fill="#ffffff" fill-rule="evenodd" stroke="none"/>
    <path d="M0.4 -3.2 Q-0.6 -3.2 -1.3 -2.5 -2.0 -1.8 -2.0 -0.8 -2.0 0.2 -1.3 0.9 -0.55 1.6 0.4 1.6 1.4 1.6 2.1 0.9 2.8 0.2 2.8 -0.8 2.8 -1.8 2.1 -2.5 1.4 -3.2 0.4 -3.2 M13.5 -21.65 Q13.5 -23.35 12.3 -24.6 11.1 -25.8 9.35 -25.8 7.65 -25.8 6.4 -24.6 5.2 -23.35 5.2 -21.65 5.2 -19.9 6.4 -18.7 7.65 -17.5 9.35 -17.5 11.1 -17.5 12.3 -18.7 13.5 -19.9 13.5 -21.65 M16.3 -32.85 Q16.7 -29.35 16.7 -26.0 16.7 -19.6 15.3 -13.75 14.0 -8.15 11.6 -3.9 9.3 0.3 6.3 2.55 3.4 4.75 0.25 4.75 -2.9 4.75 -5.8 2.55 -8.8 0.3 -11.1 -3.9 -13.5 -8.15 -14.8 -13.75 -16.2 -19.6 -16.2 -26.0 L-16.15 -28.25 -6.05 -28.25 -6.05 -23.15 Q-6.5 -24.35 -7.55 -25.05 -8.6 -25.8 -9.9 -25.8 -11.6 -25.8 -12.8 -24.6 -14.05 -23.35 -14.05 -21.65 -14.05 -19.95 -12.8 -18.7 -11.6 -17.5 -9.9 -17.5 -8.6 -17.5 -7.55 -18.25 -6.5 -18.95 -6.05 -20.15 L-6.05 -4.3 5.2 -10.55 4.15 -12.45 -3.85 -8.0 -3.85 -30.4 -16.0 -30.4 -15.8 -32.85 16.3 -32.85" fill="#ffffff" fill-rule="evenodd" stroke="none"/>
    <path d="M9.35 -17.5 Q7.65 -17.5 6.4 -18.7 5.2 -19.9 5.2 -21.65 5.2 -23.35 6.4 -24.6 7.65 -25.8 9.35 -25.8 11.1 -25.8 12.3 -24.6 13.5 -23.35 13.5 -21.65 13.5 -19.9 12.3 -18.7 11.1 -17.5 9.35 -17.5" fill="#000000" fill-rule="evenodd" stroke="none"/>
    <path d="M0.4 1.6 Q-0.55 1.6 -1.3 0.9 -2.0 0.2 -2.0 -0.8 -2.0 -1.8 -1.3 -2.5 -0.6 -3.2 0.4 -3.2 1.4 -3.2 2.1 -2.5 2.8 -1.8 2.8 -0.8 2.8 0.2 2.1 0.9 1.4 1.6 0.4 1.6" fill="#000000" fill-rule="evenodd" stroke="none"/>
  </g>
</svg>
