<?xml version="1.0" encoding="UTF-8" standalone="no"?>
<svg xmlns:xlink="http://www.w3.org/1999/xlink" height="100.65px" width="68.2px" xmlns="http://www.w3.org/2000/svg">
  <g transform="matrix(1.0, 0.0, 0.0, 1.0, 34.1, 50.35)">
    <path d="M23.85 23.7 L22.5 46.35 -23.5 46.35 -25.5 23.7 -21.35 26.15 Q-16.05 28.85 -10.35 30.2 8.0 34.55 23.85 23.7" fill="#ffffff" fill-rule="evenodd" stroke="none"/>
    <path d="M-1.85 15.85 L-1.05 15.85 1.7 15.65 3.15 17.45 -1.5 22.5 0.85 26.7 -4.5 22.2 0.15 18.0 -1.85 15.85" fill="#ffffff" fill-rule="evenodd" stroke="none"/>
    <path d="M1.2 -43.9 Q7.85 -42.8 12.65 -36.2 15.0 -33.0 16.4 -29.05 L9.25 -27.65 Q6.85 -39.6 1.2 -43.9" fill="#ffffff" fill-rule="evenodd" stroke="none"/>
    <path d="M-11.65 -27.95 L-11.45 -23.6 -20.35 -21.9 Q-19.15 -30.3 -14.8 -36.2 -11.6 -40.5 -7.55 -42.55 -11.65 -37.85 -11.65 -27.95" fill="#ffffff" fill-rule="evenodd" stroke="none"/>
    <path d="M0.3 0.65 Q-3.35 0.65 -6.65 -1.5 -7.75 -2.1 -8.7 -2.95 L-9.35 -3.6 Q-9.75 -4.0 -10.35 -4.05 -11.0 -4.05 -11.4 -3.65 -11.85 -3.25 -11.9 -2.6 -11.9 -2.0 -11.5 -1.6 L-8.2 1.0 Q-4.15 3.5 0.3 3.55 2.85 3.55 5.55 2.6 L6.35 1.8 6.4 0.7 5.65 -0.1 4.55 -0.15 Q2.35 0.65 0.3 0.65 M13.85 -15.65 L13.0 -21.65 16.85 -19.45 14.75 -25.2 17.45 -25.75 Q18.65 -21.05 18.65 -16.3 18.65 -10.55 17.0 -5.25 15.45 -0.2 12.65 3.65 9.9 7.45 6.4 9.5 2.8 11.55 -1.05 11.55 -4.9 11.55 -8.5 9.5 -12.0 7.45 -14.8 3.65 -17.6 -0.2 -19.15 -5.25 -20.8 -10.55 -20.8 -16.3 L-20.7 -18.3 -18.95 -18.65 -12.4 -17.9 -12.6 -16.3 Q-12.6 -14.5 -11.9 -13.25 -11.25 -12.0 -10.3 -12.0 -9.3 -12.0 -8.65 -13.25 -7.95 -14.5 -7.95 -16.3 L-8.05 -17.35 -4.0 -16.9 -3.85 -16.9 Q-3.3 -16.9 -2.85 -17.25 -2.4 -17.65 -2.35 -18.2 -2.25 -18.85 -2.65 -19.35 -3.05 -19.8 -3.65 -19.9 L-9.25 -20.55 -2.05 -21.95 5.1 -19.1 Q4.7 -18.0 4.7 -16.65 4.7 -14.85 5.4 -13.55 6.05 -12.3 7.0 -12.3 7.95 -12.3 8.65 -13.55 9.3 -14.85 9.3 -16.65 L9.25 -17.45 13.85 -15.65" fill="#ffffff" fill-rule="evenodd" stroke="none"/>
    <path d="M-3.9 -43.8 L-1.75 -44.05 Q0.75 -43.25 2.9 -40.3 6.25 -35.85 8.0 -27.4 L-10.15 -23.9 -10.35 -27.95 Q-10.35 -33.05 -9.15 -36.85 -7.5 -41.9 -3.9 -43.8" fill="#ffffff" fill-rule="evenodd" stroke="none"/>
    <path d="M-11.45 -23.6 L-11.65 -27.95 Q-11.65 -37.85 -7.55 -42.55 -11.6 -40.5 -14.8 -36.2 -19.15 -30.3 -20.35 -21.9 L-11.45 -23.6 M22.5 46.35 L23.85 23.7 Q8.0 34.55 -10.35 30.2 -16.05 28.85 -21.35 26.15 L-25.5 23.7 -23.5 46.35 22.5 46.35 M3.15 17.45 L1.7 15.65 -1.05 15.85 -1.85 15.85 0.15 18.0 -4.5 22.2 0.85 26.7 -1.5 22.5 3.15 17.45 M17.0 -5.25 Q18.65 -10.55 18.65 -16.3 18.65 -21.05 17.45 -25.75 L14.75 -25.2 16.85 -19.45 13.0 -21.65 13.85 -15.65 9.25 -17.45 9.3 -16.65 Q9.3 -14.85 8.65 -13.55 7.95 -12.3 7.0 -12.3 6.05 -12.3 5.4 -13.55 4.7 -14.85 4.7 -16.65 4.7 -18.0 5.1 -19.1 L-2.05 -21.95 -9.25 -20.55 -3.65 -19.9 Q-3.05 -19.8 -2.65 -19.35 -2.25 -18.85 -2.35 -18.2 -2.4 -17.65 -2.85 -17.25 -3.3 -16.9 -3.85 -16.9 L-4.0 -16.9 -8.05 -17.35 -7.95 -16.3 Q-7.95 -14.5 -8.65 -13.25 -9.3 -12.0 -10.3 -12.0 -11.25 -12.0 -11.9 -13.25 -12.6 -14.5 -12.6 -16.3 L-12.4 -17.9 -18.95 -18.65 -20.7 -18.3 -20.8 -16.3 Q-20.8 -10.55 -19.15 -5.25 -17.6 -0.2 -14.8 3.65 -12.0 7.45 -8.5 9.5 -4.9 11.55 -1.05 11.55 2.8 11.55 6.4 9.5 9.9 7.45 12.65 3.65 15.45 -0.2 17.0 -5.25 M12.65 -36.2 Q7.85 -42.8 1.2 -43.9 6.85 -39.6 9.25 -27.65 L16.4 -29.05 Q15.0 -33.0 12.65 -36.2 M-1.75 -44.05 L-3.9 -43.8 Q-7.5 -41.9 -9.15 -36.85 -10.35 -33.05 -10.35 -27.95 L-10.15 -23.9 8.0 -27.4 Q6.25 -35.85 2.9 -40.3 0.75 -43.25 -1.75 -44.05 M-3.15 -50.3 L-0.45 -49.95 Q0.75 -49.45 0.8 -48.55 L0.8 -48.35 Q5.3 -47.85 9.3 -45.3 13.2 -42.8 16.15 -38.75 17.95 -36.3 19.45 -33.15 36.5 -36.1 32.4 -32.95 29.9 -31.05 21.4 -27.8 L22.2 -24.45 34.1 -27.85 25.8 50.3 -27.15 50.3 -34.1 -28.4 -24.15 -25.3 Q-22.5 -33.05 -18.3 -38.75 -13.5 -45.4 -6.6 -47.6 L-6.65 -47.7 Q-6.7 -48.6 -5.7 -49.35 -4.7 -50.1 -3.15 -50.3" fill="#000000" fill-rule="evenodd" stroke="none"/>
    <path d="M-6.65 -1.5 Q-3.35 0.65 0.3 0.65 2.35 0.65 4.55 -0.15 L5.65 -0.1 6.4 0.7 6.35 1.8 5.55 2.6 Q2.85 3.55 0.3 3.55 -4.15 3.5 -8.2 1.0 L-11.5 -1.6 Q-11.9 -2.0 -11.9 -2.6 -11.85 -3.25 -11.4 -3.65 -11.0 -4.05 -10.35 -4.05 -9.75 -4.0 -9.35 -3.6 L-8.7 -2.95 Q-7.75 -2.1 -6.65 -1.5" fill="#000000" fill-rule="evenodd" stroke="none"/>
  </g>
</svg>
