<?xml version="1.0" encoding="UTF-8" standalone="no"?>
<svg xmlns:xlink="http://www.w3.org/1999/xlink" height="93.9px" width="60.25px" xmlns="http://www.w3.org/2000/svg">
  <g transform="matrix(1.0, 0.0, 0.0, 1.0, 30.15, 46.95)">
    <path d="M3.6 -20.15 Q3.6 -21.5 2.65 -22.45 1.7 -23.45 0.3 -23.45 -1.05 -23.45 -2.0 -22.45 -2.95 -21.5 -2.95 -20.15 -2.95 -18.8 -2.0 -17.8 -1.05 -16.85 0.3 -16.85 1.7 -16.85 2.65 -17.8 3.6 -18.8 3.6 -20.15 M6.2 -24.25 Q7.5 -22.75 7.95 -21.05 L8.4 -19.45 13.1 -19.45 13.1 -17.25 10.45 -12.7 9.6 -12.7 Q8.95 -12.7 8.55 -12.25 8.1 -11.8 8.1 -11.2 8.1 -10.55 8.55 -10.15 8.95 -9.7 9.6 -9.7 L15.1 -9.7 15.1 -7.55 8.9 -7.05 -9.95 -20.15 -7.85 -20.0 Q-7.7 -22.1 -6.65 -23.95 -4.8 -27.3 -0.7 -27.3 3.65 -27.3 6.2 -24.25" fill="#ffffff" fill-rule="evenodd" stroke="none"/>
    <path d="M-23.05 0.65 L-24.75 8.3 -23.3 9.4 Q-27.85 7.45 -27.75 2.95 -27.7 1.7 -27.1 0.15 -25.85 -2.9 -22.8 -4.25 L-22.8 0.85 -23.05 0.65" fill="#ffffff" fill-rule="evenodd" stroke="none"/>
    <path d="M11.5 -23.65 Q10.15 -26.8 7.5 -28.85 4.05 -31.55 -0.7 -31.55 -6.3 -31.55 -9.45 -27.35 -11.85 -24.2 -12.1 -20.25 L-9.95 -20.15 8.9 -7.05 15.1 -7.55 15.1 -4.55 -4.1 -4.55 -4.4 -3.35 -4.0 -2.6 Q-3.45 -1.8 -2.55 -1.6 L-2.55 -1.55 10.55 -1.55 10.55 0.8 -18.55 0.8 -18.55 -24.95 Q-9.8 -37.8 5.45 -37.15 13.85 -36.8 21.05 -33.05 L20.85 -32.85 20.85 -23.65 11.5 -23.65" fill="#ffffff" fill-rule="evenodd" stroke="none"/>
    <path d="M13.1 -19.45 L8.4 -19.45 7.95 -21.05 Q7.5 -22.75 6.2 -24.25 3.65 -27.3 -0.7 -27.3 -4.8 -27.3 -6.65 -23.95 -7.7 -22.1 -7.85 -20.0 L-12.1 -20.25 Q-11.85 -24.2 -9.45 -27.35 -6.3 -31.55 -0.7 -31.55 4.05 -31.55 7.5 -28.85 10.15 -26.8 11.5 -23.65 L20.85 -23.65 20.85 -32.85 21.05 -33.05 Q13.85 -36.8 5.45 -37.15 -9.8 -37.8 -18.55 -24.95 L-18.55 0.8 10.55 0.8 10.55 -1.55 -2.55 -1.55 -2.55 -1.6 Q-3.45 -1.8 -4.0 -2.6 L-4.4 -3.35 -4.1 -4.55 15.1 -4.55 15.1 -9.7 9.6 -9.7 Q8.95 -9.7 8.55 -10.15 8.1 -10.55 8.1 -11.2 8.1 -11.8 8.55 -12.25 8.95 -12.7 9.6 -12.7 L13.1 -12.7 13.1 -19.45 M-22.8 0.85 L-22.8 -4.25 Q-25.85 -2.9 -27.1 0.15 -27.7 1.7 -27.75 2.95 -27.85 7.45 -23.3 9.4 -19.4 11.5 -9.6 10.7 L0.45 9.3 Q0.35 6.8 -1.95 5.95 L-4.2 5.6 Q-11.85 5.4 -17.5 3.45 -20.9 2.3 -22.8 0.85 M-30.15 3.45 Q-30.3 -1.35 -27.45 -4.25 -25.6 -6.2 -22.8 -7.05 L-22.8 -46.95 29.65 -46.95 30.0 -45.2 30.1 -43.35 Q30.1 -36.5 25.1 -31.15 L25.1 -19.45 19.3 -19.45 19.3 -1.55 16.0 -1.55 16.0 0.05 14.8 0.05 14.8 46.95 -22.75 46.95 -22.75 12.0 Q-29.95 9.1 -30.15 3.45" fill="#000000" fill-rule="evenodd" stroke="none"/>
    <path d="M0.3 -23.45 Q1.7 -23.45 2.65 -22.45 3.6 -21.5 3.6 -20.15 3.6 -18.8 2.65 -17.8 1.7 -16.85 0.3 -16.85 -1.05 -16.85 -2.0 -17.8 -2.95 -18.8 -2.95 -20.15 -2.95 -21.5 -2.0 -22.45 -1.05 -23.45 0.3 -23.45" fill="#000000" fill-rule="evenodd" stroke="none"/>
    <path d="M-23.3 9.4 L-24.75 8.3 -23.05 0.65 -22.8 0.85 Q-20.9 2.3 -17.5 3.45 -11.85 5.4 -4.2 5.6 L-1.95 5.95 Q0.35 6.8 0.45 9.3 L-9.6 10.7 Q-19.4 11.5 -23.3 9.4" fill="#ffffff" fill-rule="evenodd" stroke="none"/>
    <path d="M13.1 -12.7 L10.45 -12.7 13.1 -17.25 13.1 -12.7" fill="#ffffff" fill-rule="evenodd" stroke="none"/>
  </g>
</svg>
