<?xml version="1.0" encoding="UTF-8" standalone="no"?>
<svg xmlns:xlink="http://www.w3.org/1999/xlink" height="79.85px" width="66.0px" xmlns="http://www.w3.org/2000/svg">
  <g transform="matrix(1.0, 0.0, 0.0, 1.0, 33.0, 39.9)">
    <path d="M19.2 18.85 L20.5 18.9 22.85 18.7 22.75 35.6 -16.7 35.55 -16.75 20.65 Q-13.7 20.6 -11.05 19.1 L-5.3 20.65 Q-0.25 24.8 5.9 24.8 13.5 24.9 19.2 18.85" fill="#ffffff" fill-rule="evenodd" stroke="none"/>
    <path d="M22.85 18.7 L20.5 18.9 19.2 18.85 Q13.5 24.9 5.9 24.8 -0.25 24.8 -5.3 20.65 L-11.05 19.1 Q-13.7 20.6 -16.75 20.65 L-16.7 35.55 22.75 35.6 22.85 18.7 M-1.0 -3.75 Q-1.4 -3.75 -1.65 -4.0 L-1.95 -4.7 -1.65 -5.4 -1.0 -5.7 20.0 -5.7 Q18.55 -9.45 15.9 -12.1 12.9 -15.15 8.9 -16.1 3.9 -14.05 -1.35 -12.75 L-3.7 -12.2 Q-6.3 -9.65 -7.8 -6.0 -9.3 -2.2 -9.35 2.0 -9.35 6.15 -7.9 9.9 -6.45 13.65 -3.85 16.3 L-0.7 18.75 Q-3.15 15.1 -2.5 12.5 L-1.2 15.25 Q0.35 18.3 1.85 19.9 L5.95 20.6 Q12.3 20.65 16.85 15.25 21.35 9.85 21.4 2.15 L21.4 2.05 Q21.4 -1.05 20.6 -3.75 L-1.0 -3.75 M14.05 -24.25 Q19.95 -28.1 19.95 -30.9 L19.9 -31.3 Q19.75 -32.15 18.5 -32.95 15.65 -34.75 9.6 -34.95 2.6 -35.25 -5.65 -33.2 -15.9 -30.7 -22.6 -26.2 -28.65 -22.15 -28.05 -19.45 -27.9 -18.6 -26.65 -17.75 -23.8 -16.0 -17.7 -15.75 -10.75 -15.5 -2.5 -17.5 7.4 -19.9 14.05 -24.25 M9.55 -39.85 Q17.15 -39.6 21.1 -37.1 24.15 -35.2 24.7 -32.3 25.05 -30.7 24.6 -29.05 27.7 -27.25 29.5 -24.2 31.4 -21.0 31.35 -17.3 L31.3 -16.0 Q33.0 -11.5 33.0 -6.75 33.0 -2.25 31.35 2.05 32.45 4.5 32.45 7.1 32.45 10.1 31.0 12.7 29.6 15.25 27.2 16.85 L27.1 39.95 -21.05 39.95 -21.1 19.95 Q-24.8 18.7 -27.1 15.5 -29.45 12.25 -29.45 8.2 -29.35 5.65 -28.5 3.6 -30.85 -1.6 -30.8 -7.1 -30.8 -10.6 -29.8 -14.0 -32.35 -15.85 -32.85 -18.45 -34.05 -24.2 -25.65 -30.0 -18.1 -35.25 -6.8 -38.0 1.95 -40.1 9.55 -39.85" fill="#000000" fill-rule="evenodd" stroke="none"/>
    <path d="M14.25 13.2 Q14.0 12.95 13.6 12.95 L2.9 12.95 Q1.95 12.95 1.95 13.9 1.95 14.85 2.9 14.85 L13.6 14.85 14.25 14.6 14.55 13.9 14.25 13.2 M11.6 -0.45 Q11.6 0.7 12.4 1.5 13.25 2.3 14.35 2.3 15.5 2.3 16.3 1.5 17.1 0.7 17.1 -0.45 17.15 -1.55 16.35 -2.4 15.55 -3.2 14.4 -3.2 13.25 -3.2 12.45 -2.4 11.65 -1.6 11.6 -0.45 M1.05 -3.25 Q-0.1 -3.3 -0.9 -2.5 -1.7 -1.7 -1.7 -0.55 -1.75 0.6 -0.95 1.4 -0.15 2.2 1.0 2.25 2.15 2.25 2.95 1.45 3.75 0.65 3.8 -0.5 3.8 -1.65 3.0 -2.45 2.2 -3.25 1.05 -3.25 M-3.7 -12.2 L-1.35 -12.75 Q3.9 -14.05 8.9 -16.1 12.9 -15.15 15.9 -12.1 18.55 -9.45 20.0 -5.7 L-1.0 -5.7 -1.65 -5.4 -1.95 -4.7 -1.65 -4.0 Q-1.4 -3.75 -1.0 -3.75 L20.6 -3.75 Q21.4 -1.05 21.4 2.05 L21.4 2.15 Q21.35 9.85 16.85 15.25 12.3 20.65 5.95 20.6 L1.85 19.9 Q0.35 18.3 -1.2 15.25 L-2.5 12.5 Q-3.15 15.1 -0.7 18.75 L-3.85 16.3 Q-6.45 13.65 -7.9 9.9 -9.35 6.15 -9.35 2.0 -9.3 -2.2 -7.8 -6.0 -6.3 -9.65 -3.7 -12.2" fill="#ffffff" fill-rule="evenodd" stroke="none"/>
    <path d="M1.0 2.25 Q-0.15 2.2 -0.95 1.4 -1.75 0.6 -1.7 -0.55 -1.7 -1.7 -0.9 -2.5 -0.1 -3.3 1.05 -3.25 2.2 -3.25 3.0 -2.45 3.8 -1.65 3.8 -0.5 3.75 0.65 2.95 1.45 2.15 2.25 1.0 2.25" fill="#000000" fill-rule="evenodd" stroke="none"/>
    <path d="M14.35 2.3 Q13.25 2.3 12.4 1.5 11.6 0.7 11.6 -0.45 11.65 -1.6 12.45 -2.4 13.25 -3.2 14.4 -3.2 15.55 -3.2 16.35 -2.4 17.15 -1.55 17.1 -0.45 17.1 0.7 16.3 1.5 15.5 2.3 14.35 2.3" fill="#000000" fill-rule="evenodd" stroke="none"/>
    <path d="M-5.35 -27.35 L-9.4 -25.1 -5.3 -23.0 -4.6 -18.15 -1.5 -21.7 3.0 -20.9 0.85 -25.25 2.95 -29.6 -1.55 -28.7 -4.75 -32.2 -5.35 -27.35 M18.5 -32.95 Q19.75 -32.15 19.9 -31.3 L19.95 -30.9 Q19.95 -28.1 14.05 -24.25 7.4 -19.9 -2.5 -17.5 -10.75 -15.5 -17.7 -15.75 -23.8 -16.0 -26.65 -17.75 -27.9 -18.6 -28.05 -19.45 -28.65 -22.15 -22.6 -26.2 -15.9 -30.7 -5.65 -33.2 2.6 -35.25 9.6 -34.95 15.65 -34.75 18.5 -32.95" fill="#ffffff" fill-rule="evenodd" stroke="none"/>
    <path d="M-4.75 -32.2 L-1.55 -28.7 2.95 -29.6 0.85 -25.25 3.0 -20.9 -1.5 -21.7 -4.6 -18.15 -5.3 -23.0 -9.4 -25.1 -5.35 -27.35 -4.75 -32.2" fill="#000000" fill-rule="evenodd" stroke="none"/>
    <path d="M13.6 12.95 Q14.0 12.95 14.25 13.2 L14.55 13.9 14.25 14.6 13.6 14.85 2.9 14.85 Q1.95 14.85 1.95 13.9 1.95 12.95 2.9 12.95 L13.6 12.95" fill="#000000" fill-rule="evenodd" stroke="none"/>
  </g>
</svg>
