<?xml version="1.0" encoding="UTF-8" standalone="no"?>
<svg xmlns:xlink="http://www.w3.org/1999/xlink" height="96.3px" width="59.5px" xmlns="http://www.w3.org/2000/svg">
  <g transform="matrix(1.0, 0.0, 0.0, 1.0, 29.75, 48.15)">
    <path d="M-24.9 -3.05 L-24.9 2.85 -26.75 2.85 -26.75 -6.45 -24.9 -3.05" fill="#ffffff" fill-rule="evenodd" stroke="none"/>
    <path d="M26.8 -6.1 L26.8 4.2 24.6 4.2 24.6 -2.25 26.8 -6.1" fill="#ffffff" fill-rule="evenodd" stroke="none"/>
    <path d="M-11.95 -38.8 Q-7.65 -41.4 -2.7 -42.0 -7.1 -36.05 -19.0 -32.3 -16.15 -36.3 -11.95 -38.8" fill="#ffffff" fill-rule="evenodd" stroke="none"/>
    <path d="M2.9 -42.0 Q7.85 -41.4 12.15 -38.8 16.35 -36.3 19.2 -32.3 7.3 -36.05 2.9 -42.0" fill="#ffffff" fill-rule="evenodd" stroke="none"/>
    <path d="M-18.05 -10.25 Q-10.55 -5.4 -2.75 -4.35 8.5 -2.9 18.55 -9.75 9.45 -0.2 0.15 -0.15 -9.25 -0.15 -18.05 -10.25" fill="#ffffff" fill-rule="evenodd" stroke="none"/>
    <path d="M14.55 -24.15 Q13.75 -24.7 12.6 -24.7 11.45 -24.7 10.65 -24.15 9.85 -23.55 9.85 -22.75 9.85 -21.95 10.65 -21.35 11.45 -20.8 12.6 -20.8 13.75 -20.8 14.55 -21.35 15.35 -21.95 15.35 -22.75 15.35 -23.55 14.55 -24.15 M-23.4 -18.45 L-23.4 -18.65 Q-23.4 -23.85 -21.2 -28.55 -5.2 -32.9 0.1 -40.75 5.4 -32.85 21.4 -28.55 23.6 -23.85 23.6 -18.65 L23.6 -18.15 Q10.4 -9.8 -5.6 -12.3 -15.1 -13.75 -23.4 -18.45 M-10.95 -24.15 Q-11.75 -24.7 -12.9 -24.7 -14.05 -24.7 -14.85 -24.15 -15.65 -23.55 -15.65 -22.75 -15.65 -21.95 -14.85 -21.35 -14.05 -20.8 -12.9 -20.8 -11.75 -20.8 -10.95 -21.35 -10.15 -21.95 -10.15 -22.75 -10.15 -23.55 -10.95 -24.15" fill="#ffffff" fill-rule="evenodd" stroke="none"/>
    <path d="M-4.05 -5.45 Q-12.75 -7.0 -20.3 -13.05 L-20.9 -13.85 Q-12.05 -9.75 -2.75 -8.95 10.55 -7.75 22.05 -13.8 L21.85 -13.6 Q9.75 -3.0 -4.05 -5.45" fill="#ffffff" fill-rule="evenodd" stroke="none"/>
    <path d="M-13.2 0.7 Q-19.05 -3.35 -21.7 -9.95 -11.4 2.85 0.15 2.85 10.9 2.8 20.95 -7.9 18.0 -2.15 12.45 1.3 6.8 4.85 0.1 4.85 -7.2 4.85 -13.2 0.7" fill="#ffffff" fill-rule="evenodd" stroke="none"/>
    <path d="M26.8 -6.1 L24.6 -2.25 24.6 4.2 26.8 4.2 26.8 -6.1 M-21.7 -9.95 Q-19.05 -3.35 -13.2 0.7 -7.2 4.85 0.1 4.85 6.8 4.85 12.45 1.3 18.0 -2.15 20.95 -7.9 10.9 2.8 0.15 2.85 -11.4 2.85 -21.7 -9.95 M-2.75 -4.35 Q-10.55 -5.4 -18.05 -10.25 -9.25 -0.15 0.15 -0.15 9.45 -0.2 18.55 -9.75 8.5 -2.9 -2.75 -4.35 M-26.75 -6.45 L-26.75 2.85 -24.9 2.85 -24.9 -3.05 -26.75 -6.45 M-23.4 -18.65 L-23.4 -18.45 Q-15.1 -13.75 -5.6 -12.3 10.4 -9.8 23.6 -18.15 L23.6 -18.65 Q23.6 -23.85 21.4 -28.55 5.4 -32.85 0.1 -40.75 -5.2 -32.9 -21.2 -28.55 -23.4 -23.85 -23.4 -18.65 M-20.9 -13.85 L-20.3 -13.05 Q-12.75 -7.0 -4.05 -5.45 9.75 -3.0 21.85 -13.6 L22.05 -13.8 Q10.55 -7.75 -2.75 -8.95 -12.05 -9.75 -20.9 -13.85 M-2.7 -42.0 Q-7.65 -41.4 -11.95 -38.8 -16.15 -36.3 -19.0 -32.3 -7.1 -36.05 -2.7 -42.0 M12.15 -38.8 Q7.85 -41.4 2.9 -42.0 7.3 -36.05 19.2 -32.3 16.35 -36.3 12.15 -38.8 M0.1 -48.15 Q12.3 -48.15 20.95 -39.5 29.6 -30.85 29.6 -18.65 L29.6 -18.0 29.75 -18.0 29.75 7.15 24.6 7.15 24.6 48.15 -24.9 48.15 -24.9 5.85 -29.75 5.85 -29.75 -19.35 -29.4 -19.35 Q-29.15 -31.3 -20.55 -39.75 -11.95 -48.15 0.1 -48.15" fill="#000000" fill-rule="evenodd" stroke="none"/>
    <path d="M-12.9 -24.7 Q-11.75 -24.7 -10.95 -24.15 -10.15 -23.55 -10.15 -22.75 -10.15 -21.95 -10.95 -21.35 -11.75 -20.8 -12.9 -20.8 -14.05 -20.8 -14.85 -21.35 -15.65 -21.95 -15.65 -22.75 -15.65 -23.55 -14.85 -24.15 -14.05 -24.7 -12.9 -24.7" fill="#000000" fill-rule="evenodd" stroke="none"/>
    <path d="M12.6 -20.8 Q11.45 -20.8 10.65 -21.35 9.85 -21.95 9.85 -22.75 9.85 -23.55 10.65 -24.15 11.45 -24.7 12.6 -24.7 13.75 -24.7 14.55 -24.15 15.35 -23.55 15.35 -22.75 15.35 -21.95 14.55 -21.35 13.75 -20.8 12.6 -20.8" fill="#000000" fill-rule="evenodd" stroke="none"/>
  </g>
</svg>
