<?xml version="1.0" encoding="UTF-8" standalone="no"?>
<svg xmlns:xlink="http://www.w3.org/1999/xlink" height="149.9px" width="42.45px" xmlns="http://www.w3.org/2000/svg">
  <g transform="matrix(1.0, 0.0, 0.0, 1.0, 21.25, 74.95)">
    <path d="M2.0 -24.75 Q6.55 -24.75 10.35 -26.7 L11.8 -5.85 -7.5 -5.85 -5.95 -26.5 Q-2.2 -24.75 2.0 -24.75" fill="#ffffff" fill-rule="evenodd" stroke="none"/>
    <path d="M-2.1 -47.2 Q-1.6 -47.7 -1.6 -48.35 -1.6 -49.0 -2.1 -49.5 -2.55 -49.95 -3.2 -49.95 -3.85 -49.95 -4.35 -49.5 -4.8 -49.0 -4.8 -48.35 -4.8 -47.65 -4.35 -47.2 -3.85 -46.75 -3.2 -46.75 -2.55 -46.75 -2.1 -47.2 M9.0 -48.35 Q9.0 -49.0 8.5 -49.5 8.05 -49.95 7.4 -49.95 6.75 -49.95 6.25 -49.5 5.8 -49.0 5.8 -48.35 5.8 -47.65 6.25 -47.2 6.75 -46.75 7.4 -46.75 8.05 -46.75 8.5 -47.2 9.0 -47.7 9.0 -48.35 M13.35 -54.9 L13.35 -40.5 Q7.45 -35.35 -0.15 -36.75 -4.9 -37.6 -9.3 -40.7 L-9.3 -54.9 13.35 -54.9" fill="#ffffff" fill-rule="evenodd" stroke="none"/>
    <path d="M0.4 -34.35 Q7.55 -33.35 13.3 -37.5 13.2 -34.1 9.9 -31.7 6.6 -29.3 2.0 -29.3 -2.65 -29.3 -5.95 -31.8 -9.3 -34.3 -9.3 -37.8 L-9.3 -37.95 Q-4.45 -35.05 0.4 -34.35" fill="#ffffff" fill-rule="evenodd" stroke="none"/>
    <path d="M10.35 -26.7 Q6.55 -24.75 2.0 -24.75 -2.2 -24.75 -5.95 -26.5 L-7.5 -5.85 11.8 -5.85 10.35 -26.7 M2.0 -29.3 Q6.6 -29.3 9.9 -31.7 13.2 -34.1 13.3 -37.5 7.55 -33.35 0.4 -34.35 -4.45 -35.05 -9.3 -37.95 L-9.3 -37.8 Q-9.3 -34.3 -5.95 -31.8 -2.65 -29.3 2.0 -29.3 M-2.45 -57.4 Q-2.45 -56.55 -1.6 -56.55 -1.25 -56.55 -1.0 -56.8 -0.75 -57.05 -0.75 -57.4 L-1.0 -58.0 -1.6 -58.25 Q-2.45 -58.25 -2.45 -57.4 M1.85 -58.25 Q1.5 -58.25 1.3 -58.0 L1.05 -57.4 1.3 -56.8 Q1.5 -56.55 1.85 -56.55 2.7 -56.55 2.7 -57.4 2.7 -58.25 1.85 -58.25 M5.95 -56.55 L6.55 -56.8 6.8 -57.4 6.55 -58.0 5.95 -58.25 Q5.1 -58.25 5.1 -57.4 5.1 -56.55 5.95 -56.55 M13.35 -40.5 L13.35 -54.9 -9.3 -54.9 -9.3 -40.7 Q-4.9 -37.6 -0.15 -36.75 7.45 -35.35 13.35 -40.5 M-13.85 -60.75 L-13.85 -61.9 Q-13.85 -67.3 -9.2 -71.1 -4.55 -74.95 2.0 -74.95 8.55 -74.95 13.25 -71.1 17.9 -67.3 17.9 -61.9 L17.9 -37.8 Q17.9 -33.0 14.0 -29.25 L21.2 74.95 -17.55 74.95 -9.6 -28.9 Q-13.85 -32.75 -13.85 -37.8 L-13.85 -55.85 -21.25 -55.85 -13.85 -60.75" fill="#000000" fill-rule="evenodd" stroke="none"/>
    <path d="M-3.2 -49.95 Q-2.55 -49.95 -2.1 -49.5 -1.6 -49.0 -1.6 -48.35 -1.6 -47.7 -2.1 -47.2 -2.55 -46.75 -3.2 -46.75 -3.85 -46.75 -4.35 -47.2 -4.8 -47.65 -4.8 -48.35 -4.8 -49.0 -4.35 -49.5 -3.85 -49.95 -3.2 -49.95" fill="#000000" fill-rule="evenodd" stroke="none"/>
    <path d="M7.4 -49.95 Q8.05 -49.95 8.5 -49.5 9.0 -49.0 9.0 -48.35 9.0 -47.7 8.5 -47.2 8.05 -46.75 7.4 -46.75 6.75 -46.75 6.25 -47.2 5.8 -47.65 5.8 -48.35 5.8 -49.0 6.25 -49.5 6.75 -49.95 7.4 -49.95" fill="#000000" fill-rule="evenodd" stroke="none"/>
    <path d="M-1.6 -56.55 Q-2.45 -56.55 -2.45 -57.4 -2.45 -58.25 -1.6 -58.25 L-1.0 -58.0 -0.75 -57.4 Q-0.75 -57.05 -1.0 -56.8 -1.25 -56.55 -1.6 -56.55" fill="#ffffff" fill-rule="evenodd" stroke="none"/>
    <path d="M1.85 -58.25 Q2.7 -58.25 2.7 -57.4 2.7 -56.55 1.85 -56.55 1.5 -56.55 1.3 -56.8 L1.05 -57.4 1.3 -58.0 Q1.5 -58.25 1.85 -58.25" fill="#ffffff" fill-rule="evenodd" stroke="none"/>
    <path d="M5.95 -58.25 L6.55 -58.0 6.8 -57.4 6.55 -56.8 5.95 -56.55 Q5.1 -56.55 5.1 -57.4 5.1 -58.25 5.95 -58.25" fill="#ffffff" fill-rule="evenodd" stroke="none"/>
  </g>
</svg>
