<?xml version="1.0" encoding="UTF-8" standalone="no"?>
<svg xmlns:xlink="http://www.w3.org/1999/xlink" height="128.45px" width="59.3px" xmlns="http://www.w3.org/2000/svg">
  <g transform="matrix(1.0, 0.0, 0.0, 1.0, 29.65, 64.2)">
    <path d="M23.05 -23.95 L25.2 -23.95 23.15 13.2 -23.8 13.2 -25.25 -23.95 -23.3 -23.95 -12.1 -9.3 12.9 -9.3 23.05 -23.95" fill="#ffffff" fill-rule="evenodd" stroke="none"/>
    <path d="M13.65 -23.35 L13.65 -25.9 10.2 -25.15 10.2 -22.55 13.65 -23.35 M5.85 -24.5 L5.85 -21.95 9.3 -22.4 9.3 -24.95 5.85 -24.5 M4.5 -24.4 L0.15 -24.25 0.15 -21.65 4.5 -21.8 4.5 -24.4 M-3.45 -20.05 Q-10.5 -20.6 -16.9 -22.75 L-9.95 -13.65 10.6 -13.65 16.7 -22.45 Q7.1 -19.25 -3.45 -20.05 M-6.35 -24.75 L-9.85 -25.3 -9.85 -22.7 -6.35 -22.15 -6.35 -24.75 M-1.0 -24.3 L-5.35 -24.6 -5.35 -22.0 -1.0 -21.7 -1.0 -24.3 M-14.2 -26.3 L-14.2 -23.75 -10.7 -22.9 -10.7 -25.45 -14.2 -26.3 M16.9 -55.95 Q10.75 -59.4 3.8 -60.05 -6.5 -61.1 -16.35 -55.5 -10.55 -52.9 -3.75 -52.4 6.4 -51.7 16.9 -55.95 M19.7 -29.8 L20.05 -29.05 20.4 -50.7 14.1 -50.7 Q5.5 -48.0 -2.9 -48.4 -9.25 -48.7 -15.0 -50.7 L-19.4 -50.7 -19.4 -29.05 -19.05 -29.8 -15.7 -28.55 Q-11.6 -27.25 -7.1 -26.6 7.2 -24.5 19.7 -29.8 M25.2 -23.95 L23.05 -23.95 12.9 -9.3 -12.1 -9.3 -23.3 -23.95 -25.25 -23.95 -23.8 13.2 23.15 13.2 25.2 -23.95 M22.35 -57.15 L24.9 -55.15 24.65 -55.05 24.8 -55.05 24.65 -46.2 25.05 -46.3 Q26.2 -46.3 26.95 -43.85 27.75 -41.4 27.75 -37.9 27.75 -34.45 26.95 -32.0 26.15 -29.55 25.05 -29.55 24.75 -29.55 24.4 -29.8 L24.35 -28.2 29.65 -28.2 24.6 64.25 -26.05 64.25 -29.65 -28.2 -23.75 -28.2 -23.75 -29.9 Q-24.2 -29.55 -24.5 -29.55 -25.6 -29.55 -26.4 -32.0 -27.2 -34.45 -27.2 -37.9 -27.2 -41.4 -26.4 -43.85 -25.6 -46.3 -24.5 -46.3 -24.2 -46.3 -23.75 -45.95 L-23.75 -55.05 -23.4 -55.05 -23.9 -55.4 -21.45 -57.05 Q-6.75 -66.95 9.2 -63.1 17.2 -61.15 22.35 -57.15" fill="#000000" fill-rule="evenodd" stroke="none"/>
    <path d="M11.75 -39.7 Q10.8 -39.7 10.2 -39.0 9.55 -38.25 9.55 -37.25 9.55 -36.25 10.2 -35.5 10.8 -34.8 11.75 -34.8 12.65 -34.8 13.3 -35.5 13.9 -36.25 13.9 -37.25 13.9 -38.25 13.3 -39.0 12.65 -39.7 11.75 -39.7 M-9.85 -35.5 Q-9.25 -36.25 -9.25 -37.25 -9.25 -38.25 -9.85 -39.0 -10.5 -39.7 -11.4 -39.7 -12.35 -39.7 -12.95 -39.0 -13.6 -38.25 -13.6 -37.25 -13.6 -36.25 -12.95 -35.5 -12.35 -34.8 -11.4 -34.8 -10.5 -34.8 -9.85 -35.5 M20.4 -50.7 L20.05 -29.05 19.7 -29.8 Q7.2 -24.5 -7.1 -26.6 -11.6 -27.25 -15.7 -28.55 L-19.05 -29.8 -19.4 -29.05 -19.4 -50.7 -15.0 -50.7 Q-9.25 -48.7 -2.9 -48.4 5.5 -48.0 14.1 -50.7 L20.4 -50.7" fill="#ffffff" fill-rule="evenodd" stroke="none"/>
    <path d="M-16.9 -22.75 Q-10.5 -20.6 -3.45 -20.05 7.1 -19.25 16.7 -22.45 L10.6 -13.65 -9.95 -13.65 -16.9 -22.75" fill="#ffffff" fill-rule="evenodd" stroke="none"/>
    <path d="M20.0 -27.8 L19.9 -28.0 20.0 -28.05 20.0 -27.8" fill="#ffffff" fill-rule="evenodd" stroke="none"/>
    <path d="M16.9 -55.95 Q6.4 -51.7 -3.75 -52.4 -10.55 -52.9 -16.35 -55.5 -6.5 -61.1 3.8 -60.05 10.75 -59.4 16.9 -55.95" fill="#ffffff" fill-rule="evenodd" stroke="none"/>
    <path d="M-11.4 -34.8 Q-12.35 -34.8 -12.95 -35.5 -13.6 -36.25 -13.6 -37.25 -13.6 -38.25 -12.95 -39.0 -12.35 -39.7 -11.4 -39.7 -10.5 -39.7 -9.85 -39.0 -9.25 -38.25 -9.25 -37.25 -9.25 -36.25 -9.85 -35.5 -10.5 -34.8 -11.4 -34.8" fill="#000000" fill-rule="evenodd" stroke="none"/>
    <path d="M11.75 -34.8 Q10.8 -34.8 10.2 -35.5 9.55 -36.25 9.55 -37.25 9.55 -38.25 10.2 -39.0 10.8 -39.7 11.75 -39.7 12.65 -39.7 13.3 -39.0 13.9 -38.25 13.9 -37.25 13.9 -36.25 13.3 -35.5 12.65 -34.8 11.75 -34.8" fill="#000000" fill-rule="evenodd" stroke="none"/>
    <path d="M-5.35 -22.0 L-5.35 -24.6 -1.0 -24.3 -1.0 -21.7 -5.35 -22.0" fill="#ffffff" fill-rule="evenodd" stroke="none"/>
    <path d="M0.15 -24.25 L4.5 -24.4 4.5 -21.8 0.15 -21.65 0.15 -24.25" fill="#ffffff" fill-rule="evenodd" stroke="none"/>
    <path d="M-9.85 -22.7 L-9.85 -25.3 -6.35 -24.75 -6.35 -22.15 -9.85 -22.7" fill="#ffffff" fill-rule="evenodd" stroke="none"/>
    <path d="M-14.2 -23.75 L-14.2 -26.3 -10.7 -25.45 -10.7 -22.9 -14.2 -23.75" fill="#ffffff" fill-rule="evenodd" stroke="none"/>
    <path d="M10.2 -22.55 L10.2 -25.15 13.65 -25.9 13.65 -23.35 10.2 -22.55" fill="#ffffff" fill-rule="evenodd" stroke="none"/>
    <path d="M5.85 -21.95 L5.85 -24.5 9.3 -24.95 9.3 -22.4 5.85 -21.95" fill="#ffffff" fill-rule="evenodd" stroke="none"/>
  </g>
</svg>
