<?xml version="1.0" encoding="UTF-8" standalone="no"?>
<svg xmlns:xlink="http://www.w3.org/1999/xlink" height="104.65px" width="74.1px" xmlns="http://www.w3.org/2000/svg">
  <g transform="matrix(1.0, 0.0, 0.0, 1.0, 37.05, 52.3)">
    <path d="M-5.95 -38.7 Q7.4 -41.7 19.7 -31.7 L19.7 -27.2 19.6 -27.25 -19.7 -27.25 -19.7 -31.75 Q-13.65 -37.0 -5.95 -38.7" fill="#ffffff" fill-rule="evenodd" stroke="none"/>
    <path d="M-5.25 6.15 Q7.35 8.2 19.7 1.4 L19.7 14.1 -19.7 14.1 -19.7 0.5 Q-13.15 4.85 -5.25 6.15" fill="#ffffff" fill-rule="evenodd" stroke="none"/>
    <path d="M19.6 -25.0 L19.7 -25.05 19.7 -1.45 Q8.0 -13.5 -4.85 -10.8 -12.85 -9.15 -19.7 -2.5 L-19.7 -25.0 -14.8 -25.0 -15.15 -23.75 Q-15.15 -22.65 -14.35 -21.85 -13.6 -21.05 -12.5 -21.05 -11.35 -21.05 -10.6 -21.85 -9.8 -22.6 -9.8 -23.75 -9.8 -24.4 -10.15 -25.0 L10.15 -25.0 Q9.8 -24.4 9.8 -23.75 9.8 -22.6 10.6 -21.85 11.4 -21.05 12.5 -21.05 13.6 -21.05 14.35 -21.85 15.15 -22.65 15.15 -23.75 L14.85 -25.0 19.6 -25.0" fill="#ffffff" fill-rule="evenodd" stroke="none"/>
    <path d="M-14.1 -2.2 L-14.1 -4.35 Q-16.75 -2.75 -18.25 -1.3 L-18.1 0.35 Q-16.2 -1.1 -14.1 -2.2 M-8.45 -7.1 Q-11.1 -6.15 -13.2 -4.9 L-13.2 -2.7 Q-10.95 -3.8 -8.45 -4.55 L-8.45 -7.1 M18.3 0.05 Q16.4 -1.95 14.1 -3.65 L14.1 -1.35 Q16.75 0.1 18.3 1.35 L18.3 0.05 M19.7 14.1 L19.7 1.4 Q7.35 8.2 -5.25 6.15 -13.15 4.85 -19.7 0.5 L-19.7 14.1 19.7 14.1 M13.25 -1.85 L13.25 -4.3 Q10.35 -6.3 7.6 -7.25 L7.6 -4.15 Q10.25 -3.35 13.25 -1.85 M6.7 -7.6 Q3.15 -8.75 -0.45 -8.65 L-0.45 -5.55 6.7 -4.45 6.7 -7.6 M-1.35 -5.55 L-1.35 -8.6 Q-4.45 -8.45 -7.55 -7.4 L-7.55 -4.8 -1.35 -5.55 M15.15 -23.75 Q15.15 -22.65 14.35 -21.85 13.6 -21.05 12.5 -21.05 11.4 -21.05 10.6 -21.85 9.8 -22.6 9.8 -23.75 9.8 -24.4 10.15 -25.0 L-10.15 -25.0 Q-9.8 -24.4 -9.8 -23.75 -9.8 -22.6 -10.6 -21.85 -11.35 -21.05 -12.5 -21.05 -13.6 -21.05 -14.35 -21.85 -15.15 -22.65 -15.15 -23.75 L-14.8 -25.0 -19.7 -25.0 -19.7 -2.5 Q-12.85 -9.15 -4.85 -10.8 8.0 -13.5 19.7 -1.45 L19.7 -25.05 19.6 -25.0 14.85 -25.0 15.15 -23.75 M-3.25 -46.65 L0.9 -52.3 3.0 -46.65 9.5 -49.3 7.0 -42.6 Q15.3 -40.7 23.0 -34.2 L23.7 -33.6 23.7 -20.45 Q33.7 -12.4 36.3 0.9 40.8 23.95 17.8 52.35 L-17.8 52.35 Q-40.8 23.95 -36.3 0.85 -33.7 -12.25 -23.7 -20.5 L-23.7 -33.5 -23.1 -34.1 Q-21.45 -35.6 -18.75 -37.4 -13.35 -40.9 -7.5 -42.35 L-10.7 -48.7 -3.25 -46.65 M19.7 -31.7 Q7.4 -41.7 -5.95 -38.7 -13.65 -37.0 -19.7 -31.75 L-19.7 -27.25 19.6 -27.25 19.7 -27.2 19.7 -31.7" fill="#000000" fill-rule="evenodd" stroke="none"/>
    <path d="M-0.45 -8.65 Q3.15 -8.75 6.7 -7.6 L6.7 -4.45 -0.45 -5.55 -0.45 -8.65" fill="#ffffff" fill-rule="evenodd" stroke="none"/>
    <path d="M-13.2 -2.7 L-13.2 -4.9 Q-11.1 -6.15 -8.45 -7.1 L-8.45 -4.55 Q-10.95 -3.8 -13.2 -2.7" fill="#ffffff" fill-rule="evenodd" stroke="none"/>
    <path d="M7.6 -4.15 L7.6 -7.25 Q10.35 -6.3 13.25 -4.3 L13.25 -1.85 Q10.25 -3.35 7.6 -4.15" fill="#ffffff" fill-rule="evenodd" stroke="none"/>
    <path d="M18.3 1.35 Q16.75 0.1 14.1 -1.35 L14.1 -3.65 Q16.4 -1.95 18.3 0.05 L18.3 1.35" fill="#ffffff" fill-rule="evenodd" stroke="none"/>
    <path d="M-1.35 -8.6 L-1.35 -5.55 -7.55 -4.8 -7.55 -7.4 Q-4.45 -8.45 -1.35 -8.6" fill="#ffffff" fill-rule="evenodd" stroke="none"/>
    <path d="M-18.1 0.35 L-18.25 -1.3 Q-16.75 -2.75 -14.1 -4.35 L-14.1 -2.2 Q-16.2 -1.1 -18.1 0.35" fill="#ffffff" fill-rule="evenodd" stroke="none"/>
  </g>
</svg>
