<?xml version="1.0" encoding="UTF-8" standalone="no"?>
<svg xmlns:xlink="http://www.w3.org/1999/xlink" height="121.85px" width="82.5px" xmlns="http://www.w3.org/2000/svg">
  <g transform="matrix(1.0, 0.0, 0.0, 1.0, 41.25, 60.9)">
    <path d="M12.85 -24.95 Q18.1 -30.2 18.1 -37.55 18.1 -42.6 15.4 -46.9 L27.5 -46.9 36.2 -52.65 30.2 -4.1 24.65 -6.5 27.15 -35.65 Q27.2 -36.15 26.85 -36.55 26.5 -36.9 26.0 -37.0 25.5 -37.05 25.1 -36.7 24.7 -36.35 24.65 -35.85 L22.2 -7.35 Q10.7 -11.2 -2.15 -10.8 -11.55 -10.55 -20.95 -8.05 L-23.35 -35.85 Q-23.4 -36.35 -23.8 -36.7 -24.15 -37.05 -24.7 -37.0 L-25.55 -36.55 Q-25.9 -36.15 -25.85 -35.65 L-23.4 -7.35 -28.7 -5.55 -35.95 -52.6 -27.35 -46.9 -14.95 -46.9 Q-17.6 -42.55 -17.6 -37.55 -17.6 -30.2 -12.35 -24.95 -7.15 -19.75 0.25 -19.75 7.65 -19.75 12.85 -24.95" fill="#ffffff" fill-rule="evenodd" stroke="none"/>
    <path d="M14.1 -37.55 L14.05 -38.2 Q13.5 -36.8 12.25 -35.95 10.95 -35.05 9.4 -35.05 7.35 -35.05 5.85 -36.5 4.4 -38.0 4.4 -40.05 4.4 -42.15 5.85 -43.6 7.35 -45.05 9.4 -45.05 11.15 -45.05 12.5 -44.0 10.7 -47.35 7.5 -49.35 4.15 -51.4 0.25 -51.4 -3.85 -51.4 -7.25 -49.2 -10.55 -47.05 -12.25 -43.45 -10.8 -45.05 -8.6 -45.05 -6.55 -45.05 -5.05 -43.6 -3.6 -42.15 -3.6 -40.05 -3.6 -38.0 -5.05 -36.5 -6.55 -35.05 -8.6 -35.05 -10.4 -35.05 -11.8 -36.2 -13.15 -37.35 -13.5 -39.15 L-13.6 -37.55 Q-13.6 -31.85 -9.55 -27.8 -5.5 -23.75 0.25 -23.75 5.95 -23.75 10.05 -27.8 14.1 -31.85 14.1 -37.55 M36.2 -52.65 L27.5 -46.9 15.4 -46.9 Q18.1 -42.6 18.1 -37.55 18.1 -30.2 12.85 -24.95 7.65 -19.75 0.25 -19.75 -7.15 -19.75 -12.35 -24.95 -17.6 -30.2 -17.6 -37.55 -17.6 -42.55 -14.95 -46.9 L-27.35 -46.9 -35.95 -52.6 -28.7 -5.55 -23.4 -7.35 -25.85 -35.65 Q-25.9 -36.15 -25.55 -36.55 L-24.7 -37.0 Q-24.15 -37.05 -23.8 -36.7 -23.4 -36.35 -23.35 -35.85 L-20.95 -8.05 Q-11.55 -10.55 -2.15 -10.8 10.7 -11.2 22.2 -7.35 L24.65 -35.85 Q24.7 -36.35 25.1 -36.7 25.5 -37.05 26.0 -37.0 26.5 -36.9 26.85 -36.55 27.2 -36.15 27.15 -35.65 L24.65 -6.5 30.2 -4.1 36.2 -52.65 M26.3 -50.9 L41.25 -60.8 26.2 60.95 -23.7 60.95 -30.55 8.55 -41.25 -60.9 -26.15 -50.9 -11.55 -50.9 Q-6.5 -55.4 0.25 -55.4 7.0 -55.4 12.05 -50.9 L26.3 -50.9" fill="#000000" fill-rule="evenodd" stroke="none"/>
    <path d="M8.75 -28.45 Q10.7 -29.85 11.75 -31.35 L9.3 -33.1 Q8.85 -32.2 6.95 -30.85 4.0 -28.75 0.3 -28.75 -3.35 -28.75 -6.25 -30.7 L-8.5 -32.85 -10.95 -31.15 -8.05 -28.35 Q-4.4 -25.75 0.3 -25.75 4.95 -25.75 8.75 -28.45 M14.05 -38.2 L14.1 -37.55 Q14.1 -31.85 10.05 -27.8 5.95 -23.75 0.25 -23.75 -5.5 -23.75 -9.55 -27.8 -13.6 -31.85 -13.6 -37.55 L-13.5 -39.15 Q-13.15 -37.35 -11.8 -36.2 -10.4 -35.05 -8.6 -35.05 -6.55 -35.05 -5.05 -36.5 -3.6 -38.0 -3.6 -40.05 -3.6 -42.15 -5.05 -43.6 -6.55 -45.05 -8.6 -45.05 -10.8 -45.05 -12.25 -43.45 -10.55 -47.05 -7.25 -49.2 -3.85 -51.4 0.25 -51.4 4.15 -51.4 7.5 -49.35 10.7 -47.35 12.5 -44.0 11.15 -45.05 9.4 -45.05 7.35 -45.05 5.85 -43.6 4.4 -42.15 4.4 -40.05 4.4 -38.0 5.85 -36.5 7.35 -35.05 9.4 -35.05 10.95 -35.05 12.25 -35.95 13.5 -36.8 14.05 -38.2" fill="#ffffff" fill-rule="evenodd" stroke="none"/>
    <path d="M6.95 -30.85 Q8.85 -32.2 9.3 -33.1 L11.75 -31.35 Q10.7 -29.85 8.75 -28.45 4.95 -25.75 0.3 -25.75 -4.4 -25.75 -8.05 -28.35 L-10.95 -31.15 -8.5 -32.85 -6.25 -30.7 Q-3.35 -28.75 0.3 -28.75 4.0 -28.75 6.95 -30.85" fill="#000000" fill-rule="evenodd" stroke="none"/>
  </g>
</svg>
