<?xml version="1.0" encoding="UTF-8" standalone="no"?>
<svg xmlns:xlink="http://www.w3.org/1999/xlink" height="108.45px" width="61.0px" xmlns="http://www.w3.org/2000/svg">
  <g transform="matrix(1.0, 0.0, 0.0, 1.0, 30.5, 54.2)">
    <path d="M-13.75 4.4 L14.05 4.4 23.25 -7.45 23.25 15.05 -22.95 15.05 -22.95 -6.35 -13.75 4.4" fill="#ffffff" fill-rule="evenodd" stroke="none"/>
    <path d="M14.05 4.4 L-13.75 4.4 -22.95 -6.35 -22.95 15.05 23.25 15.05 23.25 -7.45 14.05 4.4 M-21.55 -26.85 L-21.55 -12.95 -11.5 -1.2 -11.5 -6.15 -8.75 -3.95 Q-4.9 -1.7 0.65 -1.6 L4.4 -1.75 Q8.7 -2.6 11.35 -6.15 L11.35 -0.95 11.45 -0.95 21.65 -14.1 21.9 -26.85 -21.55 -26.85 M-18.7 -41.95 Q-12.45 -38.05 -4.9 -37.2 6.7 -35.95 18.8 -42.5 12.15 -47.7 4.4 -48.8 -7.45 -50.55 -18.7 -41.95 M22.05 -36.7 L18.55 -36.7 Q6.95 -31.2 -4.45 -32.2 -12.5 -32.9 -19.6 -36.7 L-21.55 -36.7 -21.55 -29.2 21.95 -29.2 22.05 -36.7 M-29.6 -33.4 Q-28.75 -35.85 -27.5 -35.85 L-26.9 -35.65 -26.9 -42.05 -26.45 -42.05 -24.5 -43.75 Q-7.9 -58.3 10.1 -52.6 19.1 -49.75 24.95 -43.85 L26.75 -42.05 27.5 -42.05 27.4 -35.8 27.5 -35.85 Q28.75 -35.85 29.6 -33.4 30.5 -30.95 30.5 -27.55 30.5 -24.1 29.6 -21.65 28.75 -19.25 27.5 -19.25 L27.1 -19.35 27.0 54.25 -26.7 54.25 -26.7 -10.75 -26.9 -10.95 -26.9 -19.4 -27.5 -19.25 Q-28.75 -19.25 -29.6 -21.65 -30.5 -24.1 -30.5 -27.55 -30.5 -30.95 -29.6 -33.4" fill="#000000" fill-rule="evenodd" stroke="none"/>
    <path d="M18.55 -36.7 L22.05 -36.7 21.95 -29.2 -21.55 -29.2 -21.55 -36.7 -19.6 -36.7 Q-12.5 -32.9 -4.45 -32.2 6.95 -31.2 18.55 -36.7" fill="#ffffff" fill-rule="evenodd" stroke="none"/>
    <path d="M-21.55 -12.95 L-21.55 -26.85 21.9 -26.85 21.65 -14.1 11.45 -0.95 11.35 -0.95 11.35 -6.15 Q8.7 -2.6 4.4 -1.75 L0.65 -1.6 Q-4.9 -1.7 -8.75 -3.95 L-11.5 -6.15 -11.5 -1.2 -21.55 -12.95 M-11.95 -26.3 Q-12.95 -26.3 -13.7 -25.6 -14.4 -24.9 -14.4 -23.9 -14.4 -22.9 -13.7 -22.15 -12.95 -21.45 -11.95 -21.45 -10.95 -21.45 -10.25 -22.15 -9.55 -22.9 -9.55 -23.9 -9.55 -24.9 -10.25 -25.6 -10.95 -26.3 -11.95 -26.3 M-2.05 -15.85 Q-1.65 -15.85 -1.4 -16.1 -1.15 -16.35 -1.15 -16.75 L-1.4 -17.4 Q-1.65 -17.65 -2.05 -17.65 L-2.7 -17.4 -2.95 -16.75 -2.7 -16.1 -2.05 -15.85 M1.7 -16.1 Q2.0 -15.85 2.35 -15.85 2.75 -15.85 3.0 -16.1 L3.25 -16.75 3.0 -17.4 2.35 -17.65 1.7 -17.4 1.45 -16.75 Q1.45 -16.35 1.7 -16.1 M-3.65 -19.05 Q-3.35 -18.75 -2.9 -18.75 L2.95 -18.75 Q3.4 -18.75 3.75 -19.05 L4.05 -19.85 3.75 -20.6 2.95 -20.9 -2.9 -20.9 -3.65 -20.6 -3.95 -19.85 -3.65 -19.05 M13.45 -22.15 Q14.15 -22.9 14.15 -23.9 14.15 -24.9 13.45 -25.6 12.7 -26.3 11.7 -26.3 10.75 -26.3 10.0 -25.6 9.3 -24.85 9.3 -23.9 9.3 -22.9 10.0 -22.15 10.7 -21.45 11.7 -21.45 12.7 -21.45 13.45 -22.15" fill="#ffffff" fill-rule="evenodd" stroke="none"/>
    <path d="M-4.9 -37.2 Q-12.45 -38.05 -18.7 -41.95 -7.45 -50.55 4.4 -48.8 12.15 -47.7 18.8 -42.5 6.7 -35.95 -4.9 -37.2" fill="#ffffff" fill-rule="evenodd" stroke="none"/>
    <path d="M-14.4 -23.9 Q-14.4 -24.9 -13.7 -25.6 -12.95 -26.3 -11.95 -26.3 -10.95 -26.3 -10.25 -25.6 -9.55 -24.9 -9.55 -23.9 -9.55 -22.9 -10.25 -22.15 -10.95 -21.45 -11.95 -21.45 -12.95 -21.45 -13.7 -22.15 -14.4 -22.9 -14.4 -23.9" fill="#000000" fill-rule="evenodd" stroke="none"/>
    <path d="M-2.05 -17.65 Q-1.65 -17.65 -1.4 -17.4 L-1.15 -16.75 Q-1.15 -16.35 -1.4 -16.1 -1.65 -15.85 -2.05 -15.85 L-2.7 -16.1 -2.95 -16.75 -2.7 -17.4 -2.05 -17.65" fill="#000000" fill-rule="evenodd" stroke="none"/>
    <path d="M2.35 -17.65 L3.0 -17.4 3.25 -16.75 3.0 -16.1 Q2.75 -15.85 2.35 -15.85 2.0 -15.85 1.7 -16.1 1.45 -16.35 1.45 -16.75 L1.7 -17.4 2.35 -17.65" fill="#000000" fill-rule="evenodd" stroke="none"/>
    <path d="M9.3 -23.9 Q9.3 -24.85 10.0 -25.6 10.75 -26.3 11.7 -26.3 12.7 -26.3 13.45 -25.6 14.15 -24.9 14.15 -23.9 14.15 -22.9 13.45 -22.15 12.7 -21.45 11.7 -21.45 10.7 -21.45 10.0 -22.15 9.3 -22.9 9.3 -23.9" fill="#000000" fill-rule="evenodd" stroke="none"/>
    <path d="M-3.65 -20.6 L-2.9 -20.9 2.95 -20.9 3.75 -20.6 4.05 -19.85 3.75 -19.05 Q3.4 -18.75 2.95 -18.75 L-2.9 -18.75 Q-3.35 -18.75 -3.65 -19.05 L-3.95 -19.85 -3.65 -20.6" fill="#000000" fill-rule="evenodd" stroke="none"/>
  </g>
</svg>
