<?xml version="1.0" encoding="UTF-8" standalone="no"?>
<svg xmlns:xlink="http://www.w3.org/1999/xlink" height="128.05px" width="56.8px" xmlns="http://www.w3.org/2000/svg">
  <g transform="matrix(1.0, 0.0, 0.0, 1.0, 28.4, 64.0)">
    <path d="M-12.0 -8.4 L11.3 -8.4 15.0 -21.05 15.0 2.55 -16.0 2.55 -16.0 -22.7 -12.0 -8.4" fill="#ffffff" fill-rule="evenodd" stroke="none"/>
    <path d="M15.0 2.55 L15.0 -21.05 11.3 -8.4 -12.0 -8.4 -16.0 -22.7 -16.0 2.55 15.0 2.55 M-4.0 -39.65 L-4.0 -43.25 -9.95 -43.25 Q-9.6 -42.8 -9.6 -42.35 -9.6 -41.8 -10.0 -41.45 -10.4 -41.05 -10.95 -41.05 -11.5 -41.05 -11.9 -41.45 -12.3 -41.8 -12.3 -42.35 -12.3 -42.85 -11.9 -43.25 L-17.0 -43.25 -15.95 -39.65 -4.0 -39.65 M0.05 -19.85 L0.0 -19.85 Q-6.0 -19.85 -11.45 -23.45 L-8.55 -12.95 7.9 -12.95 10.9 -23.2 Q5.6 -19.85 0.05 -19.85 M0.8 -41.45 L-1.25 -41.45 -1.25 -36.85 -15.2 -36.85 -12.65 -27.75 -12.3 -27.45 -9.55 -25.45 Q-4.9 -22.55 0.0 -22.55 6.3 -22.55 12.15 -27.5 L14.85 -36.85 0.8 -36.85 0.8 -41.45 M9.7 -43.25 L3.55 -43.25 3.55 -39.65 15.65 -39.65 16.7 -43.25 11.7 -43.25 12.05 -42.35 Q12.05 -41.8 11.65 -41.45 11.25 -41.05 10.7 -41.05 10.15 -41.05 9.75 -41.45 9.35 -41.8 9.35 -42.35 9.35 -42.8 9.7 -43.25 M22.3 -46.05 L22.4 -46.05 22.4 -36.85 19.6 -36.85 19.15 -35.2 19.15 64.05 -20.1 64.05 -20.1 -36.85 -22.7 -36.85 -22.7 -46.0 -22.5 -46.0 -25.1 -55.45 -28.4 -64.0 28.4 -64.0 24.7 -54.3 22.3 -46.05 M17.55 -46.05 L19.1 -51.5 -19.25 -51.5 -17.75 -46.0 -1.25 -46.0 -1.25 -44.6 0.8 -44.6 0.8 -46.05 17.55 -46.05" fill="#000000" fill-rule="evenodd" stroke="none"/>
    <path d="M19.1 -51.5 L17.55 -46.05 0.8 -46.05 0.8 -44.6 -1.25 -44.6 -1.25 -46.0 -17.75 -46.0 -19.25 -51.5 19.1 -51.5" fill="#ffffff" fill-rule="evenodd" stroke="none"/>
    <path d="M-4.0 -43.25 L-4.0 -39.65 -15.95 -39.65 -17.0 -43.25 -11.9 -43.25 Q-12.3 -42.85 -12.3 -42.35 -12.3 -41.8 -11.9 -41.45 -11.5 -41.05 -10.95 -41.05 -10.4 -41.05 -10.0 -41.45 -9.6 -41.8 -9.6 -42.35 -9.6 -42.8 -9.95 -43.25 L-4.0 -43.25" fill="#ffffff" fill-rule="evenodd" stroke="none"/>
    <path d="M3.55 -43.25 L9.7 -43.25 Q9.35 -42.8 9.35 -42.35 9.35 -41.8 9.75 -41.45 10.15 -41.05 10.7 -41.05 11.25 -41.05 11.65 -41.45 12.05 -41.8 12.05 -42.35 L11.7 -43.25 16.7 -43.25 15.65 -39.65 3.55 -39.65 3.55 -43.25" fill="#ffffff" fill-rule="evenodd" stroke="none"/>
    <path d="M-1.25 -36.85 L-1.25 -41.45 0.8 -41.45 0.8 -36.85 14.85 -36.85 12.15 -27.5 Q6.3 -22.55 0.0 -22.55 -4.9 -22.55 -9.55 -25.45 L-12.3 -27.45 -12.65 -27.75 -15.2 -36.85 -1.25 -36.85" fill="#ffffff" fill-rule="evenodd" stroke="none"/>
    <path d="M0.0 -19.85 L0.05 -19.85 Q5.6 -19.85 10.9 -23.2 L7.9 -12.95 -8.55 -12.95 -11.45 -23.45 Q-6.0 -19.85 0.0 -19.85" fill="#ffffff" fill-rule="evenodd" stroke="none"/>
  </g>
</svg>
