<?xml version="1.0" encoding="UTF-8"?>
<svg width="59.3px" height="96.65px" version="1.1" xmlns="http://www.w3.org/2000/svg" xmlns:cc="http://creativecommons.org/ns#" xmlns:dc="http://purl.org/dc/elements/1.1/" xmlns:rdf="http://www.w3.org/1999/02/22-rdf-syntax-ns#">
 <metadata>
  <rdf:RDF>
   <cc:Work rdf:about="">
    <dc:format>image/svg+xml</dc:format>
    <dc:type rdf:resource="http://purl.org/dc/dcmitype/StillImage"/>
    <dc:title/>
   </cc:Work>
  </rdf:RDF>
 </metadata>
 <ellipse cx="29.734" cy="35.931" rx="20.751" ry="21.718" fill="#fff" stroke-width="1.171"/>
 <g transform="translate(29.65 48.3)" fill-rule="evenodd">
  <path d="m-17.75-19.6-0.3 4.15q0 9.55 5.25 16.35 5.2 6.75 12.6 6.75 6.15 0 11-4.9 4.75-4.8 6.3-12.3-0.4 0.8-1.9 1.6-1.5 0.85-3.6 1.4l-4.45 0.55q-1.9-0.1-2.15-0.95-0.3-1 1.9-2.25 1.7-2.8 0.65-5.5l0.7 1.65q0.6 1.95 0.1 3.15l2.2-0.7 0.4-0.1q1.15-2.45 0.25-4.75l0.65 1.5q0.6 1.8 0.25 3l2.4-0.2q1-2.35 0.15-4.5l0.65 1.55q0.6 1.8 0.25 3 1.45 0.25 1.65 0.9v0.1q0.45-2.6 0.45-5.35l-0.1-2.7h-7.9l-3.25-4.8v4.4l-5.6-0.4-1.6-9.65-2.85 9.25-14.1-0.25m17.35-25.45q16.8-0.5 23.95 13.15 3.55 6.85 3.75 13.75h-5.15l0.1 2.7q0 7.25-2.9 13.55-2.8 6.1-7.6 9.9v0.3q1.85 0.75 2.95 2.3 1.15 1.65 1.15 3.65 0 3-2.3 4.95 4.25 17.55 15.6 27.8l0.5 0.7q0.15 0.65-1.75 0.65h-56q-1.9 0-1.5-0.85l0.8-0.85q11-10 15.25-27.4-2.35-1.85-2.35-5 0-2.05 1.15-3.7 1.15-1.6 3-2.3-4.95-3.7-7.85-9.9-3-6.4-3-13.8l0.25-4.2-4.2-0.1q2.25-16.05 12.4-21.9 5.1-2.9 9.7-2.6l0.4-3.2 1.2 2 1.65-2.85 0.8 3.25"/>
  <path d="m-4.4 0.1 3 1.5q3.4 0.95 6.2-1.5l0.85-0.25q0.45 0.05 0.75 0.4 0.35 0.35 0.3 0.8 0 0.5-0.4 0.8-3.2 2.75-7.15 2.25-2.9-0.4-5.05-2.25l-0.4-0.8q-0.05-0.45 0.3-0.8l0.75-0.4 0.85 0.25"/>
  <path d="m-16.15-8.9q-1.55-1.2-1.3-2 0.2-0.7 1.75-0.85-0.1-1.1 0.45-2.6l0.55-1.3q-0.7 1.85-0.05 3.9l2.5 0.4q-0.15-1.2 0.4-2.75l0.6-1.35q-0.8 2 0.1 4.4l0.35 0.1 2.3 0.95q-0.4-1.25 0.2-3.1l0.6-1.5q-0.95 2.65 0.75 5.5 1.8 1.2 1.5 2.1-0.3 0.8-2.25 0.85-1.9 0-4.4-0.8-2.5-0.85-4.05-1.95"/>
 </g>
</svg>
