<?xml version="1.0" encoding="UTF-8" standalone="no"?>
<svg xmlns:xlink="http://www.w3.org/1999/xlink" height="143.35px" width="28.6px" xmlns="http://www.w3.org/2000/svg">
  <g transform="matrix(1.0, 0.0, 0.0, 1.0, 14.3, 71.65)">
    <path d="M3.4 -13.8 L0.35 -16.85 -2.65 -13.8 0.25 -10.9 -3.65 7.65 0.65 14.6 4.65 7.35 0.5 -10.9 3.4 -13.8 M-7.25 -22.65 Q-7.25 -22.0 -6.1 -21.35 -4.85 -20.65 -3.1 -20.65 L3.2 -20.65 Q4.95 -20.65 6.2 -21.35 7.35 -22.0 7.35 -22.65 L7.35 -27.7 -7.25 -31.0 -7.25 -22.65 M-3.95 -49.15 Q-3.95 -50.0 -4.55 -50.65 -5.2 -51.3 -6.05 -51.3 -6.95 -51.3 -7.55 -50.65 -8.2 -50.0 -8.2 -49.15 -8.2 -48.25 -7.55 -47.6 -6.95 -47.0 -6.05 -47.0 -5.2 -47.0 -4.55 -47.6 -3.95 -48.25 -3.95 -49.15 M2.3 -43.9 Q0.7 -45.1 0.0 -47.05 -0.65 -45.1 -2.3 -43.9 -3.95 -42.7 -6.05 -42.7 L-7.25 -42.8 -7.25 -33.2 7.35 -29.9 7.35 -42.85 6.1 -42.7 Q4.0 -42.7 2.3 -43.9 M7.6 -50.65 Q6.95 -51.3 6.1 -51.3 5.2 -51.3 4.6 -50.65 3.95 -50.0 3.95 -49.15 3.95 -48.25 4.6 -47.6 5.2 -47.0 6.1 -47.0 6.95 -47.0 7.6 -47.6 8.25 -48.25 8.25 -49.15 8.25 -50.0 7.6 -50.65 M4.0 -55.2 L-3.95 -55.2 Q-1.05 -54.15 0.0 -51.25 1.05 -54.2 4.0 -55.2 M-7.25 -65.6 L-7.25 -57.35 7.35 -57.35 7.35 -65.6 -7.25 -65.6 M-8.55 -70.05 Q-6.3 -71.65 -3.1 -71.65 L3.2 -71.65 Q6.45 -71.65 8.7 -70.05 10.9 -68.45 10.9 -66.1 L10.9 -53.35 Q12.0 -52.1 12.35 -50.55 L14.3 -50.55 14.3 -48.4 12.5 -48.4 Q12.25 -46.45 10.9 -44.9 L10.9 -22.65 Q10.9 -21.2 9.95 -19.9 9.0 -18.7 7.35 -17.95 L7.35 71.7 -6.6 71.7 -6.6 -17.7 Q-8.5 -18.4 -9.65 -19.7 -10.8 -21.05 -10.8 -22.65 L-10.8 -44.8 Q-12.2 -46.3 -12.45 -48.4 L-14.3 -48.4 -14.3 -50.55 -12.35 -50.55 Q-11.95 -52.2 -10.8 -53.45 L-10.8 -66.1 Q-10.8 -68.4 -8.55 -70.05" fill="#000000" fill-rule="evenodd" stroke="none"/>
    <path d="M6.1 -42.7 L7.35 -42.85 7.35 -29.9 -7.25 -33.2 -7.25 -42.8 -6.05 -42.7 Q-3.95 -42.7 -2.3 -43.9 -0.65 -45.1 0.0 -47.05 0.7 -45.1 2.3 -43.9 4.0 -42.7 6.1 -42.7" fill="#ffffff" fill-rule="evenodd" stroke="none"/>
    <path d="M-7.25 -65.6 L7.35 -65.6 7.35 -57.35 -7.25 -57.35 -7.25 -65.6" fill="#ffffff" fill-rule="evenodd" stroke="none"/>
    <path d="M-3.95 -55.2 L4.0 -55.2 Q1.05 -54.2 0.0 -51.25 -1.05 -54.15 -3.95 -55.2" fill="#ffffff" fill-rule="evenodd" stroke="none"/>
    <path d="M-3.1 -20.65 Q-4.85 -20.65 -6.1 -21.35 -7.25 -22.0 -7.25 -22.65 L-7.25 -31.0 7.35 -27.7 7.35 -22.65 Q7.35 -22.0 6.2 -21.35 4.95 -20.65 3.2 -20.65 L-3.1 -20.65" fill="#ffffff" fill-rule="evenodd" stroke="none"/>
    <path d="M-6.05 -51.3 Q-5.2 -51.3 -4.55 -50.65 -3.95 -50.0 -3.95 -49.15 -3.95 -48.25 -4.55 -47.6 -5.2 -47.0 -6.05 -47.0 -6.95 -47.0 -7.55 -47.6 -8.2 -48.25 -8.2 -49.15 -8.2 -50.0 -7.55 -50.65 -6.95 -51.3 -6.05 -51.3" fill="#ffffff" fill-rule="evenodd" stroke="none"/>
    <path d="M6.1 -51.3 Q6.95 -51.3 7.6 -50.65 8.25 -50.0 8.25 -49.15 8.25 -48.25 7.6 -47.6 6.95 -47.0 6.1 -47.0 5.2 -47.0 4.6 -47.6 3.95 -48.25 3.95 -49.15 3.95 -50.0 4.6 -50.65 5.2 -51.3 6.1 -51.3" fill="#ffffff" fill-rule="evenodd" stroke="none"/>
    <path d="M3.4 -13.8 L0.5 -10.9 4.65 7.35 0.65 14.6 -3.65 7.65 0.25 -10.9 -2.65 -13.8 0.35 -16.85 3.4 -13.8" fill="#ffffff" fill-rule="evenodd" stroke="none"/>
  </g>
</svg>
