<?xml version="1.0" encoding="UTF-8" standalone="no"?>
<svg xmlns:xlink="http://www.w3.org/1999/xlink" height="158.45px" width="73.15px" xmlns="http://www.w3.org/2000/svg">
  <g transform="matrix(1.0, 0.0, 0.0, 1.0, 36.55, 79.2)">
    <path d="M17.35 -52.65 L31.9 -52.65 24.5 -29.35 Q21.35 -32.9 19.5 -37.55 16.8 -44.4 17.35 -52.65" fill="#ffffff" fill-rule="evenodd" stroke="none"/>
    <path d="M-13.9 -52.65 L-13.7 -52.65 Q-11.85 -48.05 -8.4 -45.3 -4.85 -42.45 -0.65 -42.45 3.55 -42.45 7.1 -45.3 10.55 -48.05 12.4 -52.65 L12.6 -52.65 Q11.65 -47.0 9.4 -42.65 5.6 -35.4 -0.65 -35.4 -6.9 -35.4 -10.7 -42.65 -12.95 -47.0 -13.9 -52.65" fill="#ffffff" fill-rule="evenodd" stroke="none"/>
    <path d="M-32.0 -52.65 L-19.1 -52.65 Q-18.55 -47.1 -19.25 -41.8 -20.45 -32.9 -25.05 -28.55 L-32.0 -52.65" fill="#ffffff" fill-rule="evenodd" stroke="none"/>
    <path d="M6.15 -26.65 Q4.05 -28.3 -0.4 -28.3 -3.75 -28.3 -5.8 -26.95 -8.45 -25.2 -8.45 -22.45 -8.45 -20.8 -7.5 -19.45 -6.95 -18.55 -5.4 -17.75 -7.3 -17.0 -8.2 -15.65 -9.1 -14.3 -9.1 -12.35 -9.1 -10.3 -8.15 -8.75 -7.2 -7.15 -5.3 -6.3 -3.6 -5.45 0.05 -5.45 L3.6 -5.8 Q5.15 -6.15 6.35 -6.95 7.4 -7.7 8.25 -9.2 9.0 -10.6 9.0 -12.3 9.0 -14.0 8.1 -15.45 7.2 -16.85 5.4 -17.75 6.8 -18.65 7.4 -19.6 8.25 -20.8 8.25 -22.4 8.25 -24.9 6.15 -26.65 M31.9 -52.65 L17.35 -52.65 Q16.8 -44.4 19.5 -37.55 21.35 -32.9 24.5 -29.35 L31.9 -52.65 M-19.1 -52.65 L-32.0 -52.65 -25.05 -28.55 Q-20.45 -32.9 -19.25 -41.8 -18.55 -47.1 -19.1 -52.65 M8.9 -66.5 Q7.7 -70.3 5.1 -72.65 2.5 -75.05 -0.65 -75.05 -3.8 -75.05 -6.45 -72.65 -9.0 -70.3 -10.2 -66.5 L8.9 -66.5 M-10.8 -64.0 L-11.1 -60.8 Q-11.1 -54.95 -8.05 -50.75 -4.95 -46.6 -0.65 -46.6 3.65 -46.6 6.75 -50.75 9.8 -54.95 9.8 -60.8 L9.5 -64.0 -10.8 -64.0 M-13.7 -52.65 L-13.9 -52.65 Q-12.95 -47.0 -10.7 -42.65 -6.9 -35.4 -0.65 -35.4 5.6 -35.4 9.4 -42.65 11.65 -47.0 12.6 -52.65 L12.4 -52.65 Q10.55 -48.05 7.1 -45.3 3.55 -42.45 -0.65 -42.45 -4.85 -42.45 -8.4 -45.3 -11.85 -48.05 -13.7 -52.65 M-14.75 -56.1 Q-15.25 -58.25 -15.25 -60.8 -15.25 -68.4 -10.95 -73.8 -6.7 -79.2 -0.65 -79.2 5.4 -79.2 9.65 -73.8 13.95 -68.4 13.95 -60.8 13.95 -58.6 13.45 -56.1 L36.6 -56.1 22.05 -10.1 21.75 79.25 -23.05 79.25 -23.05 10.9 Q-15.95 7.15 -7.05 5.35 9.35 2.0 18.2 10.1 9.55 1.7 -2.95 2.0 -12.55 2.25 -23.05 7.5 L-23.05 -9.3 -36.55 -56.1 -14.75 -56.1" fill="#000000" fill-rule="evenodd" stroke="none"/>
    <path d="M-0.1 -15.9 Q1.1 -15.9 1.9 -14.95 2.8 -14.05 2.8 -12.55 2.8 -11.15 1.95 -10.15 1.0 -9.2 -0.05 -9.2 -1.15 -9.2 -2.1 -10.15 -2.95 -11.1 -2.95 -12.55 -2.95 -14.15 -2.1 -15.0 -1.25 -15.9 -0.1 -15.9" fill="#000000" fill-rule="evenodd" stroke="none"/>
    <path d="M0.0 -19.55 Q-1.15 -19.55 -1.95 -20.25 -2.65 -20.95 -2.65 -22.1 -2.65 -23.2 -1.95 -23.9 -1.25 -24.6 -0.15 -24.6 0.9 -24.6 1.7 -23.9 2.4 -23.1 2.4 -22.05 2.4 -20.95 1.7 -20.25 1.0 -19.55 0.0 -19.55" fill="#000000" fill-rule="evenodd" stroke="none"/>
    <path d="M1.9 -14.95 Q1.1 -15.9 -0.1 -15.9 -1.25 -15.9 -2.1 -15.0 -2.95 -14.15 -2.95 -12.55 -2.95 -11.1 -2.1 -10.15 -1.15 -9.2 -0.05 -9.2 1.0 -9.2 1.95 -10.15 2.8 -11.15 2.8 -12.55 2.8 -14.05 1.9 -14.95 M1.7 -20.25 Q2.4 -20.95 2.4 -22.05 2.4 -23.1 1.7 -23.9 0.9 -24.6 -0.15 -24.6 -1.25 -24.6 -1.95 -23.9 -2.65 -23.2 -2.65 -22.1 -2.65 -20.95 -1.95 -20.25 -1.15 -19.55 0.0 -19.55 1.0 -19.55 1.7 -20.25 M-5.8 -26.95 Q-3.75 -28.3 -0.4 -28.3 4.05 -28.3 6.15 -26.65 8.25 -24.9 8.25 -22.4 8.25 -20.8 7.4 -19.6 6.8 -18.65 5.4 -17.75 7.2 -16.85 8.1 -15.45 9.0 -14.0 9.0 -12.3 9.0 -10.6 8.25 -9.2 7.4 -7.7 6.35 -6.95 5.15 -6.15 3.6 -5.8 L0.05 -5.45 Q-3.6 -5.45 -5.3 -6.3 -7.2 -7.15 -8.15 -8.75 -9.1 -10.3 -9.1 -12.35 -9.1 -14.3 -8.2 -15.65 -7.3 -17.0 -5.4 -17.75 -6.95 -18.55 -7.5 -19.45 -8.45 -20.8 -8.45 -22.45 -8.45 -25.2 -5.8 -26.95" fill="#ffffff" fill-rule="evenodd" stroke="none"/>
    <path d="M8.9 -66.5 L-10.2 -66.5 Q-9.0 -70.3 -6.45 -72.65 -3.8 -75.05 -0.65 -75.05 2.5 -75.05 5.1 -72.65 7.7 -70.3 8.9 -66.5" fill="#ffffff" fill-rule="evenodd" stroke="none"/>
  </g>
</svg>
