<?xml version="1.0" encoding="UTF-8" standalone="no"?>
<svg xmlns:xlink="http://www.w3.org/1999/xlink" height="183.2px" width="64.75px" xmlns="http://www.w3.org/2000/svg">
  <g transform="matrix(1.0, 0.0, 0.0, 1.0, 32.35, 91.6)">
    <path d="M-27.5 -15.8 L-27.25 -15.95 Q-22.3 -19.75 -20.05 -25.35 -18.25 -29.8 -18.3 -34.9 -18.3 -39.35 -19.35 -42.9 -16.5 -44.35 -13.6 -44.65 L-13.6 -36.15 Q-13.6 -30.35 -9.5 -26.25 -5.35 -22.15 0.45 -22.15 L8.6 -22.15 17.2 12.15 Q4.6 11.2 -5.65 12.3 -21.75 14.0 -27.5 20.4 L-27.5 -15.8" fill="#ffffff" fill-rule="evenodd" stroke="none"/>
    <path d="M-27.5 -20.2 L-27.5 -29.25 Q-27.5 -32.65 -26.1 -35.7 -24.75 -38.6 -22.3 -40.8 -21.65 -37.75 -21.65 -34.9 -21.75 -25.85 -27.5 -20.2" fill="#ffffff" fill-rule="evenodd" stroke="none"/>
    <path d="M21.15 -56.6 Q22.05 -57.45 22.05 -58.6 22.05 -59.75 21.15 -60.6 20.3 -61.4 19.05 -61.4 17.8 -61.4 16.95 -60.6 16.05 -59.75 16.05 -58.6 16.05 -57.45 16.95 -56.6 17.8 -55.8 19.05 -55.8 20.3 -55.8 21.15 -56.6 M-3.4 -65.95 Q-3.9 -65.95 -4.3 -65.6 L-4.65 -64.7 Q-4.65 -64.2 -4.3 -63.85 -3.9 -63.5 -3.4 -63.5 L23.2 -63.5 Q23.7 -63.5 24.05 -63.85 24.4 -64.2 24.4 -64.7 L24.05 -65.6 Q23.7 -65.95 23.2 -65.95 L-3.4 -65.95 M3.75 -56.6 Q4.65 -57.45 4.65 -58.6 4.65 -59.75 3.75 -60.6 2.9 -61.4 1.65 -61.4 0.4 -61.4 -0.5 -60.6 -1.4 -59.75 -1.4 -58.6 -1.4 -57.45 -0.5 -56.6 0.4 -55.8 1.65 -55.8 2.9 -55.8 3.75 -56.6 M-8.75 -69.55 Q-8.75 -73.35 -6.05 -76.05 -3.35 -78.75 0.45 -78.75 L18.35 -78.75 Q22.2 -78.75 24.85 -76.05 27.55 -73.35 27.55 -69.55 L27.55 -45.2 Q17.5 -41.4 4.65 -42.7 -2.45 -43.45 -8.75 -45.5 L-8.75 -69.55" fill="#ffffff" fill-rule="evenodd" stroke="none"/>
    <path d="M-22.3 -40.8 Q-24.75 -38.6 -26.1 -35.7 -27.5 -32.65 -27.5 -29.25 L-27.5 -20.2 Q-21.75 -25.85 -21.65 -34.9 -21.65 -37.75 -22.3 -40.8 M0.45 -22.15 Q-5.35 -22.15 -9.5 -26.25 -13.6 -30.35 -13.6 -36.15 L-13.6 -44.65 Q-16.5 -44.35 -19.35 -42.9 -18.3 -39.35 -18.3 -34.9 -18.25 -29.8 -20.05 -25.35 -22.3 -19.75 -27.25 -15.95 L-27.5 -15.8 -27.5 20.4 Q-21.75 14.0 -5.65 12.3 4.6 11.2 17.2 12.15 L8.6 -22.15 0.45 -22.15 M6.85 -33.35 Q4.85 -33.35 3.05 -34.45 L2.0 -35.2 1.7 -35.5 1.0 -35.85 0.25 -35.6 Q-0.1 -35.3 -0.1 -34.85 L0.15 -34.1 2.0 -32.65 Q4.25 -31.3 6.85 -31.3 8.9 -31.3 10.75 -32.1 L11.3 -32.65 11.3 -33.45 10.75 -34.0 9.95 -34.0 Q8.45 -33.35 6.85 -33.35 M0.45 -78.75 Q-3.35 -78.75 -6.05 -76.05 -8.75 -73.35 -8.75 -69.55 L-8.75 -45.5 Q-2.45 -43.45 4.65 -42.7 17.5 -41.4 27.55 -45.2 L27.55 -69.55 Q27.55 -73.35 24.85 -76.05 22.2 -78.75 18.35 -78.75 L0.45 -78.75 M-13.6 -49.5 L-13.6 -69.55 Q-13.6 -75.35 -9.5 -79.5 -5.35 -83.6 0.45 -83.6 L0.6 -83.6 7.65 -90.95 Q8.3 -91.6 9.15 -91.6 10.0 -91.6 10.65 -90.95 L17.7 -83.6 18.35 -83.6 Q24.15 -83.6 28.3 -79.5 32.4 -75.35 32.4 -69.55 L32.4 -36.15 Q32.4 -30.35 28.3 -26.25 24.15 -22.15 18.35 -22.15 L13.6 -22.15 23.1 15.8 23.2 16.1 23.2 91.6 -32.35 91.6 -32.35 -29.25 Q-32.35 -37.25 -26.9 -43.1 -21.5 -48.9 -13.6 -49.5" fill="#000000" fill-rule="evenodd" stroke="none"/>
    <path d="M1.65 -61.4 Q2.9 -61.4 3.75 -60.6 4.65 -59.75 4.65 -58.6 4.65 -57.45 3.75 -56.6 2.9 -55.8 1.65 -55.8 0.4 -55.8 -0.5 -56.6 -1.4 -57.45 -1.4 -58.6 -1.4 -59.75 -0.5 -60.6 0.4 -61.4 1.65 -61.4" fill="#000000" fill-rule="evenodd" stroke="none"/>
    <path d="M19.05 -61.4 Q20.3 -61.4 21.15 -60.6 22.05 -59.75 22.05 -58.6 22.05 -57.45 21.15 -56.6 20.3 -55.8 19.05 -55.8 17.8 -55.8 16.95 -56.6 16.05 -57.45 16.05 -58.6 16.05 -59.75 16.95 -60.6 17.8 -61.4 19.05 -61.4" fill="#000000" fill-rule="evenodd" stroke="none"/>
    <path d="M-3.4 -63.5 Q-3.9 -63.5 -4.3 -63.85 -4.65 -64.2 -4.65 -64.7 L-4.3 -65.6 Q-3.9 -65.95 -3.4 -65.95 L23.2 -65.95 Q23.7 -65.95 24.05 -65.6 L24.4 -64.7 Q24.4 -64.2 24.05 -63.85 23.7 -63.5 23.2 -63.5 L-3.4 -63.5" fill="#000000" fill-rule="evenodd" stroke="none"/>
    <path d="M3.05 -34.45 Q4.85 -33.35 6.85 -33.35 8.45 -33.35 9.95 -34.0 L10.75 -34.0 11.3 -33.45 11.3 -32.65 10.75 -32.1 Q8.9 -31.3 6.85 -31.3 4.25 -31.3 2.0 -32.65 L0.15 -34.1 -0.1 -34.85 Q-0.1 -35.3 0.25 -35.6 L1.0 -35.85 1.7 -35.5 2.0 -35.2 3.05 -34.45" fill="#ffffff" fill-rule="evenodd" stroke="none"/>
  </g>
</svg>
