<?xml version="1.0" encoding="UTF-8" standalone="no"?>
<svg xmlns:xlink="http://www.w3.org/1999/xlink" height="107.3px" width="72.8px" xmlns="http://www.w3.org/2000/svg">
  <g transform="matrix(1.0, 0.0, 0.0, 1.0, 36.4, 53.65)">
    <path d="M-30.75 28.8 L-32.1 48.8 32.55 48.8 30.25 28.8 Q8.55 41.1 -13.25 36.2 -20.1 34.65 -26.1 31.55 L-30.75 28.8 M-12.3 -21.55 L-21.65 -21.55 -22.2 -21.65 -23.2 -18.4 Q-24.0 -15.55 -24.0 -12.7 -24.0 -8.05 -21.9 -3.6 -19.9 0.55 -16.35 3.95 -12.9 7.2 -8.65 9.05 -4.45 10.9 -0.5 10.9 3.55 10.9 7.8 9.4 12.2 7.8 15.6 5.0 23.5 -1.4 23.5 -10.75 23.5 -14.6 22.2 -18.3 L21.1 -21.55 10.35 -21.55 Q11.1 -20.7 11.1 -19.75 11.1 -18.65 10.35 -17.9 9.6 -17.15 8.5 -17.15 7.45 -17.15 6.7 -17.9 5.9 -18.65 5.9 -19.75 5.9 -20.7 6.65 -21.55 L-8.6 -21.55 Q-7.85 -20.7 -7.85 -19.75 -7.85 -18.65 -8.6 -17.9 -9.4 -17.15 -10.45 -17.15 -11.55 -17.15 -12.3 -17.9 -13.05 -18.65 -13.05 -19.75 -13.05 -20.7 -12.3 -21.55 M7.3 -45.65 Q6.15 -46.7 4.4 -47.7 0.2 -42.8 -5.85 -47.55 L-8.35 -45.9 Q-11.7 -43.2 -15.05 -37.8 -18.4 -32.3 -21.1 -24.85 L19.9 -24.85 Q13.85 -40.1 7.3 -45.65 M-11.25 -49.5 Q-6.2 -53.65 -0.5 -53.65 5.15 -53.65 10.35 -49.2 14.5 -45.6 18.1 -39.4 21.9 -33.0 25.75 -22.45 L30.65 -22.45 36.4 53.65 -36.4 53.65 -32.0 -22.45 -26.8 -22.45 Q-20.6 -41.9 -11.25 -49.5" fill="#000000" fill-rule="evenodd" stroke="none"/>
    <path d="M-8.35 -45.9 L-5.85 -47.55 Q0.2 -42.8 4.4 -47.7 6.15 -46.7 7.3 -45.65 13.85 -40.1 19.9 -24.85 L-21.1 -24.85 Q-18.4 -32.3 -15.05 -37.8 -11.7 -43.2 -8.35 -45.9" fill="#ffffff" fill-rule="evenodd" stroke="none"/>
    <path d="M-0.9 8.7 L2.9 2.15 -4.0 2.3 -0.9 8.7 M5.1 0.3 L6.2 -0.15 Q6.65 -0.6 6.65 -1.25 L6.2 -2.4 5.1 -2.85 -5.5 -2.85 Q-6.15 -2.85 -6.6 -2.4 -7.05 -1.9 -7.05 -1.25 -7.05 -0.6 -6.6 -0.15 -6.15 0.3 -5.5 0.3 L5.1 0.3 M8.45 -6.45 Q3.55 -9.4 -0.55 -9.4 -4.65 -9.4 -9.55 -6.45 L-13.6 -3.55 12.5 -3.55 8.45 -6.45 M-16.35 3.95 Q-19.9 0.55 -21.9 -3.6 -24.0 -8.05 -24.0 -12.7 -24.0 -15.55 -23.2 -18.4 L-22.2 -21.65 -21.65 -21.55 -12.3 -21.55 Q-13.05 -20.7 -13.05 -19.75 -13.05 -18.65 -12.3 -17.9 -11.55 -17.15 -10.45 -17.15 -9.4 -17.15 -8.6 -17.9 -7.85 -18.65 -7.85 -19.75 -7.85 -20.7 -8.6 -21.55 L6.65 -21.55 Q5.9 -20.7 5.9 -19.75 5.9 -18.65 6.7 -17.9 7.45 -17.15 8.5 -17.15 9.6 -17.15 10.35 -17.9 11.1 -18.65 11.1 -19.75 11.1 -20.7 10.35 -21.55 L21.1 -21.55 22.2 -18.3 Q23.5 -14.6 23.5 -10.75 23.5 -1.4 15.6 5.0 12.2 7.8 7.8 9.4 3.55 10.9 -0.5 10.9 -4.45 10.9 -8.65 9.05 -12.9 7.2 -16.35 3.95" fill="#ffffff" fill-rule="evenodd" stroke="none"/>
    <path d="M-0.55 -9.4 Q3.55 -9.4 8.45 -6.45 L12.5 -3.55 -13.6 -3.55 -9.55 -6.45 Q-4.65 -9.4 -0.55 -9.4" fill="#000000" fill-rule="evenodd" stroke="none"/>
    <path d="M5.1 -2.85 L6.2 -2.4 6.65 -1.25 Q6.65 -0.6 6.2 -0.15 L5.1 0.3 -5.5 0.3 Q-6.15 0.3 -6.6 -0.15 -7.05 -0.6 -7.05 -1.25 -7.05 -1.9 -6.6 -2.4 -6.15 -2.85 -5.5 -2.85 L5.1 -2.85" fill="#000000" fill-rule="evenodd" stroke="none"/>
    <path d="M-0.9 8.7 L-4.0 2.3 2.9 2.15 -0.9 8.7" fill="#000000" fill-rule="evenodd" stroke="none"/>
    <path d="M-32.1 48.8 L-30.75 28.8 -26.1 31.55 Q-20.1 34.65 -13.25 36.2 8.55 41.1 30.25 28.8 L32.55 48.8 -32.1 48.8" fill="#ffffff" fill-rule="evenodd" stroke="none"/>
  </g>
</svg>
