<?xml version="1.0" encoding="UTF-8" standalone="no"?>
<svg xmlns:xlink="http://www.w3.org/1999/xlink" height="105.45px" width="56.6px" xmlns="http://www.w3.org/2000/svg">
  <g transform="matrix(1.0, 0.0, 0.0, 1.0, 28.3, 52.7)">
    <path d="M-26.05 -34.65 L-22.8 -35.05 -22.25 -30.7 -24.3 -29.9 -23.85 -28.85 -22.1 -29.5 -21.5 -24.55 -23.4 -23.8 -23.0 -22.7 -21.35 -23.35 -20.7 -18.25 -22.85 -17.4 -22.4 -16.3 -20.5 -17.05 -20.2 -14.4 -23.45 -14.4 -26.05 -34.65" fill="#ffffff" fill-rule="evenodd" stroke="none"/>
    <path d="M23.05 52.75 L7.75 21.65 27.2 21.65 27.2 52.75 23.05 52.75" fill="#000000" fill-rule="evenodd" stroke="none"/>
    <path d="M-25.55 52.75 L-25.55 21.65 3.3 21.65 18.6 52.75 -25.55 52.75" fill="#000000" fill-rule="evenodd" stroke="none"/>
    <path d="M-22.8 -35.05 L-26.05 -34.65 -23.45 -14.4 -20.2 -14.4 -20.5 -17.05 -22.4 -16.3 -22.85 -17.4 -20.7 -18.25 -21.35 -23.35 -23.0 -22.7 -23.4 -23.8 -21.5 -24.55 -22.1 -29.5 -23.85 -28.85 -24.3 -29.9 -22.25 -30.7 -22.8 -35.05 M22.8 -20.85 L22.8 -37.1 -13.85 -37.1 -13.85 -20.85 22.8 -20.85 M10.65 7.8 L22.8 -8.7 22.8 -18.5 -13.85 -18.5 -13.85 -7.55 -1.4 7.65 1.85 7.65 1.85 4.6 5.95 4.6 5.95 7.8 10.65 7.8 M11.1 -44.85 L27.5 -44.85 27.5 -7.2 27.2 -6.85 27.2 20.65 7.25 20.65 4.9 15.85 0.3 15.55 2.8 20.65 -25.55 20.65 -25.55 -14.4 -25.5 -14.4 -28.3 -36.4 -21.05 -37.3 -18.55 -17.4 -18.55 -44.85 -1.7 -44.85 5.05 -52.7 11.1 -44.85" fill="#000000" fill-rule="evenodd" stroke="none"/>
    <path d="M22.8 -37.1 L22.8 -20.85 -13.85 -20.85 -13.85 -37.1 22.8 -37.1" fill="#ffffff" fill-rule="evenodd" stroke="none"/>
    <path d="M-6.75 -12.8 Q-5.65 -12.8 -4.9 -13.55 -4.1 -14.3 -4.1 -15.4 -4.1 -16.5 -4.9 -17.25 -5.65 -18.0 -6.75 -18.0 -7.85 -18.0 -8.6 -17.25 -9.35 -16.5 -9.35 -15.4 -9.35 -14.3 -8.6 -13.55 -7.85 -12.8 -6.75 -12.8 M12.25 0.65 Q11.85 0.25 11.35 0.25 L-2.6 0.25 Q-3.1 0.25 -3.5 0.65 -3.85 1.0 -3.85 1.5 -3.85 2.05 -3.5 2.4 -3.1 2.8 -2.6 2.8 L11.35 2.8 Q11.85 2.8 12.25 2.4 12.6 2.05 12.6 1.5 12.6 1.0 12.25 0.65 M22.8 -18.5 L22.8 -8.7 10.65 7.8 5.95 7.8 5.95 4.6 1.85 4.6 1.85 7.65 -1.4 7.65 -13.85 -7.55 -13.85 -18.5 22.8 -18.5 M13.3 -13.55 Q14.05 -12.8 15.15 -12.8 16.2 -12.8 17.0 -13.55 17.75 -14.3 17.75 -15.4 17.75 -16.5 17.0 -17.25 16.2 -18.0 15.15 -18.0 14.05 -18.0 13.3 -17.25 12.5 -16.5 12.5 -15.4 12.5 -14.3 13.3 -13.55" fill="#ffffff" fill-rule="evenodd" stroke="none"/>
    <path d="M12.6 1.5 Q12.6 2.05 12.25 2.4 11.85 2.8 11.35 2.8 L-2.6 2.8 Q-3.1 2.8 -3.5 2.4 -3.85 2.05 -3.85 1.5 -3.85 1.0 -3.5 0.65 -3.1 0.25 -2.6 0.25 L11.35 0.25 Q11.85 0.25 12.25 0.65 12.6 1.0 12.6 1.5" fill="#000000" fill-rule="evenodd" stroke="none"/>
    <path d="M-6.75 -18.0 Q-5.65 -18.0 -4.9 -17.25 -4.1 -16.5 -4.1 -15.4 -4.1 -14.3 -4.9 -13.55 -5.65 -12.8 -6.75 -12.8 -7.85 -12.8 -8.6 -13.55 -9.35 -14.3 -9.35 -15.4 -9.35 -16.5 -8.6 -17.25 -7.85 -18.0 -6.75 -18.0" fill="#000000" fill-rule="evenodd" stroke="none"/>
    <path d="M15.15 -12.8 Q14.05 -12.8 13.3 -13.55 12.5 -14.3 12.5 -15.4 12.5 -16.5 13.3 -17.25 14.05 -18.0 15.15 -18.0 16.2 -18.0 17.0 -17.25 17.75 -16.5 17.75 -15.4 17.75 -14.3 17.0 -13.55 16.2 -12.8 15.15 -12.8" fill="#000000" fill-rule="evenodd" stroke="none"/>
    <path d="M28.3 21.65 L7.75 21.65 23.05 52.75 18.6 52.75 3.3 21.65 -27.45 21.65 -27.45 20.65 2.8 20.65 0.3 15.55 4.9 15.85 7.25 20.65 28.3 20.65 28.3 21.65" fill="#ffffff" fill-rule="evenodd" stroke="none"/>
  </g>
</svg>
