<?xml version="1.0" encoding="UTF-8" standalone="no"?>
<svg xmlns:xlink="http://www.w3.org/1999/xlink" height="158.6px" width="58.45px" xmlns="http://www.w3.org/2000/svg">
  <g transform="matrix(1.0, 0.0, 0.0, 1.0, 29.2, 79.3)">
    <path d="M-0.7 3.15 Q3.05 3.15 6.6 1.5 L6.6 19.1 Q-0.2 14.55 -7.4 18.75 L-7.4 1.8 Q-4.15 3.15 -0.7 3.15" fill="#ffffff" fill-rule="evenodd" stroke="none"/>
    <path d="M6.6 1.5 Q3.05 3.15 -0.7 3.15 -4.15 3.15 -7.4 1.8 L-7.4 18.75 Q-0.2 14.55 6.6 19.1 L6.6 1.5 M12.5 -45.95 L12.5 -54.05 -13.95 -54.05 -13.95 -45.95 0.2 -45.95 0.2 -33.4 -13.95 -33.4 -13.95 -14.0 Q-13.95 -8.55 -10.05 -4.65 -6.2 -0.8 -0.7 -0.8 4.75 -0.8 8.6 -4.65 12.5 -8.55 12.5 -14.0 L12.5 -33.4 8.25 -33.4 8.25 -45.95 12.5 -45.95 M-12.9 -78.35 L-5.25 -69.7 0.4 -79.3 4.75 -68.35 12.0 -77.75 12.95 -66.35 23.95 -69.7 20.8 -60.5 29.25 -56.55 16.45 -49.4 16.45 -45.95 19.45 -45.95 19.45 -33.4 16.45 -33.4 16.45 -14.0 Q16.45 -10.25 14.85 -6.85 13.35 -3.55 10.6 -1.15 L10.6 79.3 -11.4 79.3 -11.4 -0.65 Q-14.4 -3.0 -16.1 -6.45 -17.85 -10.0 -17.85 -14.0 L-17.85 -33.4 -20.95 -33.4 -20.95 -45.95 -17.85 -45.95 -17.85 -48.75 -29.2 -52.05 -22.55 -56.95 -27.45 -69.1 -15.45 -67.15 -12.9 -78.35" fill="#000000" fill-rule="evenodd" stroke="none"/>
  </g>
</svg>
