<?xml version="1.0" encoding="UTF-8"?>
<svg width="60.25px" height="143.85px" version="1.1" xmlns="http://www.w3.org/2000/svg" xmlns:cc="http://creativecommons.org/ns#" xmlns:dc="http://purl.org/dc/elements/1.1/" xmlns:rdf="http://www.w3.org/1999/02/22-rdf-syntax-ns#">
 <metadata>
  <rdf:RDF>
   <cc:Work rdf:about="">
    <dc:format>image/svg+xml</dc:format>
    <dc:type rdf:resource="http://purl.org/dc/dcmitype/StillImage"/>
    <dc:title/>
   </cc:Work>
  </rdf:RDF>
 </metadata>
 <path d="m15.062 115.76c1.0154 0 35.37 0.84617 35.37 0.84617l-6.6002-104.93-12.523-5.2463-12.354 5.9232-2.0308 22.678-3.3847 54.663z" fill="#fff"/>
 <g transform="translate(30.15 71.9)" fill-rule="evenodd">
  <g>
   <path d="m-2.95-46.65q-0.65 0-1.15-0.5-0.5-0.45-0.5-1.15 0-0.65 0.5-1.15t1.15-0.5q0.7 0 1.15 0.5 0.5 0.5 0.5 1.15 0 0.7-0.5 1.15-0.45 0.5-1.15 0.5"/>
   <path d="m2.95-46.65q-0.65 0-1.15-0.5-0.5-0.45-0.5-1.15 0-0.65 0.5-1.15t1.15-0.5q0.7 0 1.15 0.5 0.5 0.5 0.5 1.15 0 0.7-0.5 1.15-0.45 0.5-1.15 0.5"/>
   <path d="m15.55 37.85v-2.95q-14.45-3.9-27.25-0.5v3q12.75-3.6 27.25 0.45m-16.85-37.95-5.9 16.2 7 12.5 6.8-12.05-5.3-16.85-2.6 0.2m-2.2-8.55 2.4 6.15h2.85l2-6.15h-7.25m-9.1-11.55-0.05 0.35q7.4 3.35 16.55 2.45 5.4-0.55 10.4-2.4l-2.4-6.1q-12.1 2.35-22.75 0.2l-1.75 5.5m-0.65 3.1-0.25 4.35h29.25l-0.4-4.55q-5.1 2.05-11 2.65-9.6 1-17.6-2.45m24.8-50.05-0.15 0.35q2.45 0.15 4.25 1.5 2.9 2.2 2.7 7-0.3 7.25-2.85 8.8l3.15 38h11.45l-4.8 49.85q-3-1.3-5.75-2.25v3q2.7 0.9 5.5 2.15l-3 30.7h-36.1l-6-31.15q2.3-1.25 4.35-2.05v-3.1q-2.35 0.9-4.95 2.25l-9.5-49.4h13.75l2.65-42.35-6.75-0.55q3.4-1 7-2.65v-0.1q-4.4 1.5-8.15 0.1 1.35-0.55 2.9-1.55 3.1-2 4.1-4.2-0.7 0.45-1.7 0.85-2 0.8-3.55 0.4 5.4-2.7 11.45-6.6 5.35-3.5 10.1-3.75 5.95-0.3 9.9 4.75m-0.1 39.4 1.9-8.25q-7.3 3.2-15.15 2.5-5.3-0.45-9.85-2.5l0.9 8q4.1 1.95 8.8 2.4 6.65 0.55 13.4-2.15m2.1-11.35-1.4-16.95v-0.05q-0.15-3.5-4.4-5.7-7.05 7.15-18.7 7.9l-0.9 14.8q4 2 8.9 2.7 8.75 1.25 16.5-2.7"/>
  </g>
  <path d="m-15.7 35.65v3.1q-2.05 0.8-4.35 2.05l-0.7 0.4-0.5-3 0.6-0.3q2.6-1.35 4.95-2.25" fill="#fff"/>
  <path d="m19.55 39.1v-3q2.75 0.95 5.75 2.25l0.35 0.1-0.15 3.45-0.4-0.6-0.05-0.05q-2.8-1.25-5.5-2.15" fill="#fff"/>
 </g>
</svg>
