<?xml version="1.0" encoding="UTF-8"?>
<svg width="50.05px" height="115.6px" version="1.1" xmlns="http://www.w3.org/2000/svg" xmlns:cc="http://creativecommons.org/ns#" xmlns:dc="http://purl.org/dc/elements/1.1/" xmlns:rdf="http://www.w3.org/1999/02/22-rdf-syntax-ns#">
 <metadata>
  <rdf:RDF>
   <cc:Work rdf:about="">
    <dc:format>image/svg+xml</dc:format>
    <dc:type rdf:resource="http://purl.org/dc/dcmitype/StillImage"/>
    <dc:title/>
   </cc:Work>
  </rdf:RDF>
 </metadata>
 <ellipse cx="24.412" cy="24.276" rx="20.332" ry="20.468" fill="#fff"/>
 <g transform="translate(25.05 57.8)" fill-rule="evenodd">
  <g>
   <path d="m-21.5 51.35v3.95h19.5v-3.95h-19.5m43 3.95v-3.95h-19.3v3.95h19.3m-3.2-82.3q1-3 1-6.1 0-6.55-4-11.8-3.9-5.1-10.1-6.9-3.1 2.9-6.3 2.45-2.35-0.4-4.45-2.5-6.2 1.75-10.15 6.9-4.05 5.25-4.05 11.85 0 8.05 5.75 13.8 5.7 5.7 13.8 5.7 5.7 0 10.5-3.05 4.65-3 7.05-8-8.05 3.45-19.85 2.5l-10.15-1.7q-1.35-1.7-0.5-2.2l1.1-0.2q8.65 3.1 18.35 2.1 6.3-0.65 12-2.85m-4.15-28.3q3.15 2.4 3.5 6.8l0.5 0.6h6.85v105.7h-50.05v-105.7h6.15q0.15-4.5 3.2-7.1 4.45-3.9 14.55-2.4l-0.1 0.1 1.45 0.1-0.25-0.2q9.7-1.4 14.2 2.1"/>
   <path d="m-8.75-44q0.8 0 1.3 1.2 0.55 1.15 0.55 2.9 0 1.7-0.55 2.9-0.5 1.2-1.3 1.2-0.75 0-1.25-1.2-0.55-1.2-0.55-2.9t0.55-2.9q0.5-1.2 1.25-1.2"/>
   <path d="m7.7-44q0.75 0 1.3 1.2 0.5 1.2 0.5 2.9t-0.5 2.9q-0.55 1.2-1.3 1.2-0.8 0-1.3-1.2-0.55-1.2-0.55-2.9 0-1.75 0.55-2.9 0.5-1.2 1.3-1.2"/>
  </g>
  <path d="m21.5 51.35v3.95h-19.3v-3.95h19.3" fill="#fff"/>
  <path d="m-2 51.35v3.95h-19.5v-3.95h19.5" fill="#fff"/>
 </g>
</svg>
