<?xml version="1.0" encoding="UTF-8" standalone="no"?>
<svg xmlns:xlink="http://www.w3.org/1999/xlink" height="115.6px" width="50.05px" xmlns="http://www.w3.org/2000/svg">
  <g transform="matrix(1.0, 0.0, 0.0, 1.0, 25.05, 57.8)">
    <path d="M-21.5 51.35 L-21.5 55.3 -2.0 55.3 -2.0 51.35 -21.5 51.35 M21.5 55.3 L21.5 51.35 2.2 51.35 2.2 55.3 21.5 55.3 M18.3 -27.0 Q19.3 -30.0 19.3 -33.1 19.3 -39.65 15.3 -44.9 11.4 -50.0 5.2 -51.8 2.1 -48.9 -1.1 -49.35 -3.45 -49.75 -5.55 -51.85 -11.75 -50.1 -15.7 -44.95 -19.75 -39.7 -19.75 -33.1 -19.75 -25.05 -14.0 -19.3 -8.3 -13.6 -0.2 -13.6 5.5 -13.6 10.3 -16.65 14.95 -19.65 17.35 -24.65 9.3 -21.2 -2.5 -22.15 L-12.65 -23.85 Q-14.0 -25.55 -13.15 -26.05 L-12.05 -26.25 Q-3.4 -23.15 6.3 -24.15 12.6 -24.8 18.3 -27.0 M14.15 -55.3 Q17.3 -52.9 17.65 -48.5 L18.15 -47.9 25.0 -47.9 25.0 57.8 -25.05 57.8 -25.05 -47.9 -18.9 -47.9 Q-18.75 -52.4 -15.7 -55.0 -11.25 -58.9 -1.15 -57.4 L-1.25 -57.3 0.2 -57.2 -0.05 -57.4 Q9.65 -58.8 14.15 -55.3" fill="#000000" fill-rule="evenodd" stroke="none"/>
    <path d="M-8.75 -44.0 Q-7.95 -44.0 -7.45 -42.8 -6.9 -41.65 -6.9 -39.9 -6.9 -38.2 -7.45 -37.0 -7.95 -35.8 -8.75 -35.8 -9.5 -35.8 -10.0 -37.0 -10.55 -38.2 -10.55 -39.9 -10.55 -41.6 -10.0 -42.8 -9.5 -44.0 -8.75 -44.0" fill="#000000" fill-rule="evenodd" stroke="none"/>
    <path d="M7.7 -44.0 Q8.45 -44.0 9.0 -42.8 9.5 -41.6 9.5 -39.9 9.5 -38.2 9.0 -37.0 8.45 -35.8 7.7 -35.8 6.9 -35.8 6.4 -37.0 5.85 -38.2 5.85 -39.9 5.85 -41.65 6.4 -42.8 6.9 -44.0 7.7 -44.0" fill="#000000" fill-rule="evenodd" stroke="none"/>
    <path d="M21.5 51.35 L21.5 55.3 2.2 55.3 2.2 51.35 21.5 51.35" fill="#ffffff" fill-rule="evenodd" stroke="none"/>
    <path d="M-2.0 51.35 L-2.0 55.3 -21.5 55.3 -21.5 51.35 -2.0 51.35" fill="#ffffff" fill-rule="evenodd" stroke="none"/>
  </g>
</svg>
