<?xml version="1.0" encoding="UTF-8" standalone="no"?>
<svg xmlns:xlink="http://www.w3.org/1999/xlink" height="88.9px" width="80.9px" xmlns="http://www.w3.org/2000/svg">
  <g transform="matrix(1.0, 0.0, 0.0, 1.0, 40.45, 44.45)">
    <path d="M-23.0 -1.05 L-24.15 -3.45 Q-27.85 4.0 -29.75 13.45 L-27.65 13.45 Q-26.05 5.7 -23.0 -1.05 M-25.3 -6.6 L-25.95 -9.25 Q-32.25 -0.4 -35.0 13.45 L-32.9 13.45 Q-30.45 1.65 -25.3 -6.6 M26.75 -8.55 L26.0 -5.9 Q30.8 2.0 33.2 13.45 L35.3 13.45 Q32.65 0.2 26.75 -8.55 M25.15 -3.5 L24.0 -1.1 Q27.05 5.45 28.7 13.45 L30.8 13.45 Q28.95 4.1 25.15 -3.5 M27.55 -15.45 L27.45 -12.95 Q40.45 -0.05 40.45 31.8 40.45 38.95 39.6 44.45 L-39.4 44.4 Q-40.45 38.35 -40.45 31.8 -40.45 0.3 -26.5 -13.0 L-26.6 -15.45 Q-26.6 -27.45 -18.65 -35.95 -10.75 -44.45 0.45 -44.45 11.65 -44.45 19.6 -35.95 27.55 -27.45 27.55 -15.45 M-5.4 -14.9 Q-4.55 -14.9 -4.4 -15.25 L-4.35 -19.25 Q-4.55 -19.65 -5.4 -19.65 L-16.65 -19.65 -17.35 -19.5 -17.65 -19.3 -17.7 -15.3 Q-17.55 -14.9 -16.65 -14.9 L-5.4 -14.9 M3.9 -13.0 Q2.8 -13.95 2.8 -15.25 L2.8 -16.35 -1.55 -16.35 -1.55 -15.25 Q-1.55 -13.9 -2.65 -13.0 -3.8 -12.1 -5.4 -12.1 L-16.65 -12.1 Q-18.25 -12.1 -19.4 -13.0 -20.5 -13.9 -20.5 -15.25 L-20.5 -17.35 -22.5 -17.35 -22.6 -15.45 Q-22.6 -5.1 -15.85 2.25 -9.1 9.55 0.45 9.55 10.0 9.55 16.8 2.25 23.55 -5.1 23.55 -15.45 L23.45 -17.35 21.2 -17.35 21.2 -15.25 Q21.2 -13.95 20.1 -13.0 19.0 -12.1 17.45 -12.1 L6.55 -12.1 Q5.0 -12.1 3.9 -13.0 M2.9 -19.9 Q3.15 -21.0 4.15 -21.7 5.15 -22.4 6.55 -22.4 L17.45 -22.4 Q18.7 -22.4 19.65 -21.8 20.6 -21.25 21.0 -20.3 L23.1 -20.3 Q22.05 -26.05 18.7 -30.75 L-17.75 -30.75 Q-21.1 -26.05 -22.15 -20.3 L-20.3 -20.3 -20.3 -20.2 Q-19.95 -21.2 -18.95 -21.8 -17.95 -22.45 -16.65 -22.45 L-5.4 -22.45 Q-4.0 -22.45 -2.9 -21.7 -1.9 -21.0 -1.65 -19.9 L2.9 -19.9 M5.85 -19.5 Q5.6 -19.4 5.6 -19.3 L5.6 -15.25 5.85 -15.0 6.55 -14.85 17.45 -14.85 Q18.25 -14.85 18.45 -15.25 L18.45 -19.25 Q18.3 -19.65 17.45 -19.65 L6.55 -19.65 5.85 -19.5 M9.0 -38.7 Q4.9 -40.45 0.45 -40.45 -4.0 -40.45 -8.05 -38.7 -12.0 -36.95 -15.15 -33.8 L16.1 -33.8 Q12.95 -36.95 9.0 -38.7" fill="#000000" fill-rule="evenodd" stroke="none"/>
    <path d="M-25.95 -9.25 L-25.3 -6.6 Q-30.45 1.65 -32.9 13.45 L-35.0 13.45 Q-32.25 -0.4 -25.95 -9.25" fill="#ffffff" fill-rule="evenodd" stroke="none"/>
    <path d="M-24.15 -3.45 L-23.0 -1.05 Q-26.05 5.7 -27.65 13.45 L-29.75 13.45 Q-27.85 4.0 -24.15 -3.45" fill="#ffffff" fill-rule="evenodd" stroke="none"/>
    <path d="M26.0 -5.9 L26.75 -8.55 Q32.65 0.2 35.3 13.45 L33.2 13.45 Q30.8 2.0 26.0 -5.9" fill="#ffffff" fill-rule="evenodd" stroke="none"/>
    <path d="M24.0 -1.1 L25.15 -3.5 Q28.95 4.1 30.8 13.45 L28.7 13.45 Q27.05 5.45 24.0 -1.1" fill="#ffffff" fill-rule="evenodd" stroke="none"/>
    <path d="M-1.65 -19.9 Q-1.9 -21.0 -2.9 -21.7 -4.0 -22.45 -5.4 -22.45 L-16.65 -22.45 Q-17.95 -22.45 -18.95 -21.8 -19.95 -21.2 -20.3 -20.2 L-20.3 -20.3 -22.15 -20.3 Q-21.1 -26.05 -17.75 -30.75 L18.7 -30.75 Q22.05 -26.05 23.1 -20.3 L21.0 -20.3 Q20.6 -21.25 19.65 -21.8 18.7 -22.4 17.45 -22.4 L6.55 -22.4 Q5.15 -22.4 4.15 -21.7 3.15 -21.0 2.9 -19.9 L-1.65 -19.9" fill="#ffffff" fill-rule="evenodd" stroke="none"/>
    <path d="M-8.05 -38.7 Q-4.0 -40.45 0.45 -40.45 4.9 -40.45 9.0 -38.7 12.95 -36.95 16.1 -33.8 L-15.15 -33.8 Q-12.0 -36.95 -8.05 -38.7" fill="#ffffff" fill-rule="evenodd" stroke="none"/>
    <path d="M18.3 -4.25 L19.05 -5.2 Q19.2 -5.85 18.85 -6.4 L17.9 -7.1 16.75 -6.9 Q5.95 -0.45 -5.9 -2.8 -9.65 -3.55 -13.1 -5.1 L-16.1 -6.7 -17.25 -6.95 Q-17.85 -6.8 -18.2 -6.25 -18.55 -5.75 -18.45 -5.1 -18.35 -4.5 -17.8 -4.15 L-14.75 -2.5 Q-10.9 -0.8 -6.75 0.1 6.5 2.8 18.3 -4.25 M-5.4 -12.1 Q-3.8 -12.1 -2.65 -13.0 -1.55 -13.9 -1.55 -15.25 L-1.55 -16.35 2.8 -16.35 2.8 -15.25 Q2.8 -13.95 3.9 -13.0 5.0 -12.1 6.55 -12.1 L17.45 -12.1 Q19.0 -12.1 20.1 -13.0 21.2 -13.95 21.2 -15.25 L21.2 -17.35 23.45 -17.35 23.55 -15.45 Q23.55 -5.1 16.8 2.25 10.0 9.55 0.45 9.55 -9.1 9.55 -15.85 2.25 -22.6 -5.1 -22.6 -15.45 L-22.5 -17.35 -20.5 -17.35 -20.5 -15.25 Q-20.5 -13.9 -19.4 -13.0 -18.25 -12.1 -16.65 -12.1 L-5.4 -12.1" fill="#ffffff" fill-rule="evenodd" stroke="none"/>
    <path d="M-5.4 -19.65 Q-4.55 -19.65 -4.35 -19.25 L-4.4 -15.25 Q-4.55 -14.9 -5.4 -14.9 L-16.65 -14.9 Q-17.55 -14.9 -17.7 -15.3 L-17.65 -19.3 -17.35 -19.5 -16.65 -19.65 -5.4 -19.65 M-9.85 -16.85 Q-9.45 -17.2 -9.45 -17.75 -9.45 -18.3 -9.85 -18.7 -10.2 -19.1 -10.75 -19.1 -11.3 -19.1 -11.7 -18.7 -12.05 -18.3 -12.05 -17.75 -12.05 -17.2 -11.7 -16.85 -11.3 -16.45 -10.75 -16.45 -10.2 -16.45 -9.85 -16.85" fill="#ffffff" fill-rule="evenodd" stroke="none"/>
    <path d="M10.8 -16.85 Q11.2 -16.45 11.75 -16.45 12.3 -16.45 12.65 -16.85 13.05 -17.2 13.05 -17.75 13.05 -18.3 12.65 -18.7 12.3 -19.1 11.75 -19.1 11.2 -19.1 10.8 -18.7 10.45 -18.3 10.45 -17.75 10.45 -17.2 10.8 -16.85 M6.55 -14.85 L5.85 -15.0 5.6 -15.25 5.6 -19.3 Q5.6 -19.4 5.85 -19.5 L6.55 -19.65 17.45 -19.65 Q18.3 -19.65 18.45 -19.25 L18.45 -15.25 Q18.25 -14.85 17.45 -14.85 L6.55 -14.85" fill="#ffffff" fill-rule="evenodd" stroke="none"/>
    <path d="M-5.9 -2.8 Q5.95 -0.45 16.75 -6.9 L17.9 -7.1 18.85 -6.4 Q19.2 -5.85 19.05 -5.2 L18.3 -4.25 Q6.5 2.8 -6.75 0.1 -10.9 -0.8 -14.75 -2.5 L-17.8 -4.15 Q-18.35 -4.5 -18.45 -5.1 -18.55 -5.75 -18.2 -6.25 -17.85 -6.8 -17.25 -6.95 L-16.1 -6.7 -13.1 -5.1 Q-9.65 -3.55 -5.9 -2.8" fill="#000000" fill-rule="evenodd" stroke="none"/>
    <path d="M-9.85 -18.7 Q-9.45 -18.3 -9.45 -17.75 -9.45 -17.2 -9.85 -16.85 -10.2 -16.45 -10.75 -16.45 -11.3 -16.45 -11.7 -16.85 -12.05 -17.2 -12.05 -17.75 -12.05 -18.3 -11.7 -18.7 -11.3 -19.1 -10.75 -19.1 -10.2 -19.1 -9.85 -18.7" fill="#000000" fill-rule="evenodd" stroke="none"/>
    <path d="M11.75 -19.1 Q12.3 -19.1 12.65 -18.7 13.05 -18.3 13.05 -17.75 13.05 -17.2 12.65 -16.85 12.3 -16.45 11.75 -16.45 11.2 -16.45 10.8 -16.85 10.45 -17.2 10.45 -17.75 10.45 -18.3 10.8 -18.7 11.2 -19.1 11.75 -19.1" fill="#000000" fill-rule="evenodd" stroke="none"/>
  </g>
</svg>
