<?xml version="1.0" encoding="UTF-8"?>
<svg width="145.8px" height="115.7px" version="1.1" xmlns="http://www.w3.org/2000/svg" xmlns:cc="http://creativecommons.org/ns#" xmlns:dc="http://purl.org/dc/elements/1.1/" xmlns:rdf="http://www.w3.org/1999/02/22-rdf-syntax-ns#">
 <metadata>
  <rdf:RDF>
   <cc:Work rdf:about="">
    <dc:format>image/svg+xml</dc:format>
    <dc:type rdf:resource="http://purl.org/dc/dcmitype/StillImage"/>
    <dc:title/>
   </cc:Work>
  </rdf:RDF>
 </metadata>
 <rect x="46.28" y="12.659" width="52.269" height="61.117" fill="#fff"/>
 <g transform="translate(72.9 57.85)" fill-rule="evenodd">
  <g>
   <path d="m8.35-4.05q0.7 0.05 1.15 0.55 0.45 0.55 0.4 1.25-0.05 0.65-0.55 1.15-0.5 0.45-1.2 0.4l-4.9-0.3q-1 2.4-4.95 2.4-3.5 0-4.05-2.95l-4.55-0.25q-0.7-0.05-1.15-0.55-0.5-0.55-0.45-1.25l0.55-1.15 1.25-0.4 4.45 0.25q0.35-3.05 2.15-3.05 1.45 0 2 1.25 0.3 0.6 0.25 1.2l0.5-1.05q0.75-0.95 1.85-0.75 1.8 0.3 2.25 2.95l5 0.3"/>
   <path d="m-8.55-22.9q0-1.05 0.75-1.75 0.75-0.75 1.8-0.75 1 0 1.75 0.75 0.75 0.7 0.75 1.75t-0.75 1.8q-0.75 0.7-1.75 0.7-1.05 0-1.8-0.7-0.75-0.75-0.75-1.8"/>
   <path d="m0.05-24.65q0.7-0.75 1.75-0.75t1.8 0.75q0.7 0.7 0.7 1.75t-0.7 1.8q-0.75 0.7-1.8 0.7t-1.75-0.7q-0.75-0.75-0.75-1.8t0.75-1.75"/>
   <path d="m15.1-24.9 0.4 0.85q0 0.5-0.35 0.9-0.35 0.35-0.9 0.4-0.5 0-0.9-0.35-9.15-9-19.7-6-3.4 0.95-6.55 3.05-1.75 1.15-2.7 2.1-0.35 0.35-0.9 0.35-0.5 0-0.9-0.4-0.35-0.35-0.35-0.9 0-0.5 0.4-0.85l2.85-2.2q3.5-2.35 7.3-3.45 12.1-3.55 22.3 6.5"/>
   <path d="m0 24.9q0.05-2.7 0.85-5.6 1.5-5.75 5-6.45l-13.4-0.25 3.8 3q3.75 4.05 3.75 9.3m5.75-5.55q-0.6 0.6-0.6 1.5 0 0.85 0.6 1.5 0.65 0.6 1.5 0.6 0.9 0 1.55-0.6 0.6-0.65 0.6-1.5 0-0.9-0.6-1.5-0.65-0.65-1.55-0.65-0.85 0-1.5 0.65m13.6-58.25q-4.6-4.65-11.15-4.65h-17.8q-6.55 0-11.2 4.65t-4.65 11.2v21.1q0 6.55 4.65 11.2t11.2 4.65h17.8q6.55 0 11.15-4.65 4.65-4.65 4.65-11.2v-21.1q0-6.55-4.65-11.2m4.1-7q1.25-1.15 2.5-1.3 1.85-0.25 3.4 1.95 2.05 2.95-1 6.4 2.6 0.55 3.5 2.8 1.4 3.5-3 5.55l0.2 2.8v9.85q3.1 1.5 5.7 3.2l2.55-0.15q11.15 0 19.05 7.9t7.9 19.05q0 3-0.7 6.05 9 18.35 9.35 39.65h-145.8q0.35-20.9 9.1-39.25-0.75-3.05-0.75-6.45 0-11.15 7.9-19.05t19.05-7.9l2.8 0.15 4.35-2.5v-10.55l0.15-2.4q-3.3-1.6-2.95-5.65 0.25-3.4 3.1-3.9-1.3-2.4 0.25-4.2 1.75-2.1 4.15-3.35l2-0.85q-0.35-1.4 0.05-2.85 0.75-2.95 4.4-3.3 3.05-0.3 4.5 0.8 0.95 0.7 1.05 1.85-0.05-2.1 0.8-3.7 1.45-2.6 5.1-2.6 4.2 0 5.3 2.7 0.6 1.3 0.3 2.65 0.3-1 1.1-1.85 1.6-1.65 4.2-0.95 2.65 0.7 3 2.65 0.15 0.95-0.2 1.8 0.7-1.6 1.95-3 2.45-2.8 5.05-1.75 2.65 1.05 3.8 4.15 0.6 1.55 0.65 2.85 0.35-1.2 1.15-2 1.6-1.7 3.9 0.05 2.95 2.25 1.1 4.65"/>
  </g>
  <path d="m5.85 12.85q-3.5 0.7-5 6.45-0.8 2.9-0.85 5.6 0-5.25-3.75-9.3l-3.8-3 13.4 0.25" fill="#fff"/>
  <path d="m7.25 18.7q0.9 0 1.55 0.65 0.6 0.6 0.6 1.5 0 0.85-0.6 1.5-0.65 0.6-1.55 0.6-0.85 0-1.5-0.6-0.6-0.65-0.6-1.5 0-0.9 0.6-1.5 0.65-0.65 1.5-0.65" fill="#fff"/>
 </g>
</svg>
