<?xml version="1.0" encoding="UTF-8" standalone="no"?>
<svg xmlns:xlink="http://www.w3.org/1999/xlink" height="115.7px" width="145.8px" xmlns="http://www.w3.org/2000/svg">
  <g transform="matrix(1.0, 0.0, 0.0, 1.0, 72.9, 57.85)">
    <path d="M8.35 -4.05 Q9.05 -4.0 9.5 -3.5 9.95 -2.95 9.9 -2.25 9.85 -1.6 9.35 -1.1 8.85 -0.65 8.15 -0.7 L3.25 -1.0 Q2.25 1.4 -1.7 1.4 -5.2 1.4 -5.75 -1.55 L-10.3 -1.8 Q-11.0 -1.85 -11.45 -2.35 -11.95 -2.9 -11.9 -3.6 L-11.35 -4.75 -10.1 -5.15 -5.65 -4.9 Q-5.3 -7.95 -3.5 -7.95 -2.05 -7.95 -1.5 -6.7 -1.2 -6.1 -1.25 -5.5 L-0.75 -6.55 Q0.0 -7.5 1.1 -7.3 2.9 -7.0 3.35 -4.35 L8.35 -4.05" fill="#000000" fill-rule="evenodd" stroke="none"/>
    <path d="M-8.55 -22.9 Q-8.55 -23.95 -7.8 -24.65 -7.05 -25.4 -6.0 -25.4 -5.0 -25.4 -4.25 -24.65 -3.5 -23.95 -3.5 -22.9 -3.5 -21.85 -4.25 -21.1 -5.0 -20.4 -6.0 -20.4 -7.05 -20.4 -7.8 -21.1 -8.55 -21.85 -8.55 -22.9" fill="#000000" fill-rule="evenodd" stroke="none"/>
    <path d="M0.05 -24.65 Q0.75 -25.4 1.8 -25.4 2.85 -25.4 3.6 -24.65 4.3 -23.95 4.3 -22.9 4.3 -21.85 3.6 -21.1 2.85 -20.4 1.8 -20.4 0.75 -20.4 0.05 -21.1 -0.7 -21.85 -0.7 -22.9 -0.7 -23.95 0.05 -24.65" fill="#000000" fill-rule="evenodd" stroke="none"/>
    <path d="M15.1 -24.9 L15.5 -24.05 Q15.5 -23.55 15.15 -23.15 14.8 -22.8 14.25 -22.75 13.75 -22.75 13.35 -23.1 4.2 -32.1 -6.35 -29.1 -9.75 -28.15 -12.9 -26.05 -14.65 -24.9 -15.6 -23.95 -15.95 -23.6 -16.5 -23.6 -17.0 -23.6 -17.4 -24.0 -17.75 -24.35 -17.75 -24.9 -17.75 -25.4 -17.35 -25.75 L-14.5 -27.95 Q-11.0 -30.3 -7.2 -31.4 4.9 -34.95 15.1 -24.9" fill="#000000" fill-rule="evenodd" stroke="none"/>
    <path d="M0.0 24.9 Q0.05 22.2 0.85 19.3 2.35 13.55 5.85 12.85 L-7.55 12.6 -3.75 15.6 Q0.0 19.65 0.0 24.9 M5.75 19.35 Q5.15 19.95 5.15 20.85 5.15 21.7 5.75 22.35 6.4 22.95 7.25 22.95 8.15 22.95 8.8 22.35 9.4 21.7 9.4 20.85 9.4 19.95 8.8 19.35 8.15 18.7 7.25 18.7 6.4 18.7 5.75 19.35 M19.35 -38.9 Q14.75 -43.55 8.2 -43.55 L-9.6 -43.55 Q-16.15 -43.55 -20.8 -38.9 -25.45 -34.25 -25.45 -27.7 L-25.45 -6.6 Q-25.45 -0.05 -20.8 4.6 -16.15 9.25 -9.6 9.25 L8.2 9.25 Q14.75 9.25 19.35 4.6 24.0 -0.05 24.0 -6.6 L24.0 -27.7 Q24.0 -34.25 19.35 -38.9 M23.45 -45.9 Q24.7 -47.05 25.95 -47.2 27.8 -47.45 29.35 -45.25 31.4 -42.3 28.35 -38.85 30.95 -38.3 31.85 -36.05 33.25 -32.55 28.85 -30.5 L29.05 -27.7 29.05 -17.85 Q32.15 -16.35 34.75 -14.65 L37.3 -14.8 Q48.45 -14.8 56.35 -6.9 64.25 1.0 64.25 12.15 64.25 15.15 63.55 18.2 72.55 36.55 72.9 57.85 L-72.9 57.85 Q-72.55 36.95 -63.8 18.6 -64.55 15.55 -64.55 12.15 -64.55 1.0 -56.65 -6.9 -48.75 -14.8 -37.6 -14.8 L-34.8 -14.65 -30.45 -17.15 -30.45 -27.7 -30.3 -30.1 Q-33.6 -31.7 -33.25 -35.75 -33.0 -39.15 -30.15 -39.65 -31.45 -42.05 -29.9 -43.85 -28.15 -45.95 -25.75 -47.2 L-23.75 -48.05 Q-24.1 -49.45 -23.7 -50.9 -22.95 -53.85 -19.3 -54.2 -16.25 -54.5 -14.8 -53.4 -13.85 -52.7 -13.75 -51.55 -13.8 -53.65 -12.95 -55.25 -11.5 -57.85 -7.85 -57.85 -3.65 -57.85 -2.55 -55.15 -1.95 -53.85 -2.25 -52.5 -1.95 -53.5 -1.15 -54.35 0.45 -56.0 3.05 -55.3 5.7 -54.6 6.05 -52.65 6.2 -51.7 5.85 -50.85 6.55 -52.45 7.8 -53.85 10.25 -56.65 12.85 -55.6 15.5 -54.55 16.65 -51.45 17.25 -49.9 17.3 -48.6 17.65 -49.8 18.45 -50.6 20.05 -52.3 22.35 -50.55 25.3 -48.3 23.45 -45.9" fill="#000000" fill-rule="evenodd" stroke="none"/>
    <path d="M5.85 12.85 Q2.35 13.55 0.85 19.3 0.05 22.2 0.0 24.9 0.0 19.65 -3.75 15.6 L-7.55 12.6 5.85 12.85" fill="#ffffff" fill-rule="evenodd" stroke="none"/>
    <path d="M7.25 18.7 Q8.15 18.7 8.8 19.35 9.4 19.95 9.4 20.85 9.4 21.7 8.8 22.35 8.15 22.95 7.25 22.95 6.4 22.95 5.75 22.35 5.15 21.7 5.15 20.85 5.15 19.95 5.75 19.35 6.4 18.7 7.25 18.7" fill="#ffffff" fill-rule="evenodd" stroke="none"/>
  </g>
</svg>
