<?xml version="1.0" encoding="UTF-8"?>
<svg width="50.75px" height="138.7px" version="1.1" xmlns="http://www.w3.org/2000/svg" xmlns:cc="http://creativecommons.org/ns#" xmlns:dc="http://purl.org/dc/elements/1.1/" xmlns:rdf="http://www.w3.org/1999/02/22-rdf-syntax-ns#">
 <metadata>
  <rdf:RDF>
   <cc:Work rdf:about="">
    <dc:format>image/svg+xml</dc:format>
    <dc:type rdf:resource="http://purl.org/dc/dcmitype/StillImage"/>
    <dc:title/>
   </cc:Work>
  </rdf:RDF>
 </metadata>
 <path d="m15.339 135.93h21.05v-88.768l9.9538-3.1004 2.6108-23.497-2.6108-13.87-38.346-0.81588-6.5271 8.322 1.7949 26.924 6.3639 6.8534 6.3639 0.32635z" fill="#fff"/>
 <g transform="translate(25.4 69.35)" fill-rule="evenodd">
  <path d="m-8.35 8.45v4.05q3.2 1.95 6.9 2.45 5.9 0.85 10.75-2.6v-3.65q-2.05 1.35-5.3 2-6.5 1.25-12.35-2.25m7.4 8.55q-3.75-0.4-7.4-2.25v50.85h17.65v-50.9q-4.7 2.85-10.25 2.3m22.4-82.25q3.9 4.1 3.9 9.85v22q0 5.5-3.6 9.5-3.55 4.05-8.75 4.4v88.85h-24.75v-88.8h-0.3q-5.5 0-9.45-4.1-3.9-4.1-3.9-9.85v-22q0-5.75 3.9-9.85 3.95-4.1 9.45-4.1h24.05q5.5 0 9.45 4.1m0 31.85v-22l-0.15-1.9q-2.25-4.8-8.6-4.65-11.75 5.7-23.05 0.15v0.1q-2.2-0.5-4.7 0-5 0.9-6.45 5.65v22.65q0 4.15 2.8 7.1 2.75 2.95 6.65 2.95h24.05q3.9 0 6.7-2.95 2.75-2.95 2.75-7.1"/>
  <path d="m-3.5-29.95-5.15-1.85-0.5-0.7 0.15-0.85 0.7-0.45 0.8 0.1 4.5 1.6q5.3 0.95 10.6-1.65l0.85-0.05 0.65 0.55 0.05 0.85-0.55 0.65q-6.05 2.9-12.1 1.8"/>
  <path d="m-9.35-44.7q0 1.1-0.8 1.85-0.75 0.8-1.85 0.8t-1.9-0.8q-0.8-0.75-0.8-1.85t0.8-1.9 1.9-0.8 1.85 0.8q0.8 0.8 0.8 1.9"/>
  <path d="m12-42.05q-1.1 0-1.9-0.8-0.8-0.75-0.8-1.85t0.8-1.9 1.9-0.8 1.85 0.8q0.8 0.8 0.8 1.9t-0.8 1.85q-0.75 0.8-1.85 0.8"/>
 </g>
</svg>
