<?xml version="1.0" encoding="UTF-8" standalone="no"?>
<svg xmlns:xlink="http://www.w3.org/1999/xlink" height="122.9px" width="124.6px" xmlns="http://www.w3.org/2000/svg">
  <g transform="matrix(1.0, 0.0, 0.0, 1.0, 62.3, 61.45)">
    <path d="M-41.1 -7.4 Q-36.4 -13.65 -30.3 -18.55 -28.55 -8.25 -22.2 -0.9 -18.1 3.9 -12.75 6.55 -7.2 9.3 -1.05 9.3 5.05 9.3 10.65 6.55 16.0 3.9 20.1 -0.9 26.95 -8.9 28.35 -20.0 35.25 -15.0 41.1 -7.4 51.5 6.1 55.75 24.35 23.2 11.45 -14.5 15.15 -37.05 17.35 -55.8 24.45 -51.45 6.0 -41.1 -7.4" fill="#ffffff" fill-rule="evenodd" stroke="none"/>
    <path d="M-1.05 -55.6 Q-6.25 -55.6 -11.0 -53.25 -15.6 -51.0 -19.2 -46.8 -25.05 -40.05 -26.45 -30.6 L-2.2 -28.45 Q0.55 -32.35 4.45 -35.2 10.9 -39.9 18.45 -39.95 L21.6 -39.75 Q19.9 -43.45 17.1 -46.8 13.5 -51.0 8.85 -53.25 4.15 -55.6 -1.05 -55.6 M-30.3 -18.55 Q-36.4 -13.65 -41.1 -7.4 -51.45 6.0 -55.8 24.45 -37.05 17.35 -14.5 15.15 23.2 11.45 55.75 24.35 51.5 6.1 41.1 -7.4 35.25 -15.0 28.35 -20.0 26.95 -8.9 20.1 -0.9 16.0 3.9 10.65 6.55 5.05 9.3 -1.05 9.3 -7.2 9.3 -12.75 6.55 -18.1 3.9 -22.2 -0.9 -28.55 -8.25 -30.3 -18.55 M-57.45 15.8 Q-52.8 1.35 -44.25 -9.8 -41.3 -13.6 -38.25 -16.65 -38.7 -19.65 -38.7 -22.75 -38.7 -38.75 -27.7 -50.1 -16.7 -61.45 -1.15 -61.45 14.4 -61.45 25.4 -50.1 36.4 -38.75 36.4 -22.75 L36.2 -18.65 Q40.55 -14.6 44.25 -9.8 52.8 1.35 57.5 15.8 62.3 30.7 62.3 47.05 62.3 53.55 61.55 59.75 L61.3 61.45 -61.3 61.45 -61.55 59.75 Q-62.3 53.55 -62.3 47.05 -62.3 30.7 -57.45 15.8 M-26.8 -27.65 L-26.9 -25.1 Q-26.9 -18.85 -24.85 -13.15 -22.85 -7.65 -19.2 -3.45 -17.75 -1.7 -15.55 0.1 L-13.3 -7.1 -13.25 -6.5 Q-13.0 -7.25 -12.3 -7.25 L-11.6 -6.95 -11.3 -6.25 -11.3 2.9 Q-7.65 4.75 -3.6 5.25 L-3.6 2.75 2.15 2.75 2.15 5.15 Q6.1 4.55 9.7 2.6 L9.7 -6.25 9.95 -6.95 10.65 -7.25 Q11.2 -7.25 11.45 -6.8 L11.5 -7.1 13.65 -0.1 Q15.6 -1.65 17.1 -3.45 20.7 -7.65 22.7 -13.15 24.75 -18.85 24.75 -25.1 24.75 -31.1 22.9 -36.5 L18.45 -37.0 Q11.8 -37.05 5.9 -32.6 2.35 -29.9 0.05 -26.55 L-0.7 -25.35 -10.25 -26.2 -10.0 -24.95 Q-10.0 -23.65 -10.9 -22.75 -11.8 -21.85 -13.1 -21.85 -14.4 -21.85 -15.35 -22.75 -16.25 -23.65 -16.25 -24.95 -16.25 -25.9 -15.7 -26.7 L-26.8 -27.65" fill="#000000" fill-rule="evenodd" stroke="none"/>
    <path d="M-0.85 -42.7 Q-3.55 -40.25 -5.3 -37.0 L-17.7 -38.4 Q-18.1 -38.45 -18.4 -38.15 L-18.75 -37.5 -18.55 -36.8 Q-18.3 -36.5 -17.9 -36.45 L-4.15 -34.9 -3.05 -36.95 Q-1.25 -39.9 1.25 -41.9 4.9 -44.8 9.15 -44.8 L9.5 -44.8 Q9.9 -44.75 10.2 -45.05 L10.5 -45.75 10.25 -46.45 9.55 -46.75 9.15 -46.75 Q3.6 -46.7 -0.85 -42.7 M-11.0 -53.25 Q-6.25 -55.6 -1.05 -55.6 4.15 -55.6 8.85 -53.25 13.5 -51.0 17.1 -46.8 19.9 -43.45 21.6 -39.75 L18.45 -39.95 Q10.9 -39.9 4.45 -35.2 0.55 -32.35 -2.2 -28.45 L-26.45 -30.6 Q-25.05 -40.05 -19.2 -46.8 -15.6 -51.0 -11.0 -53.25" fill="#ffffff" fill-rule="evenodd" stroke="none"/>
    <path d="M3.85 0.95 Q4.45 0.95 4.9 0.55 L5.35 -0.5 4.9 -1.55 Q4.45 -2.0 3.85 -2.0 L-5.5 -2.0 Q-6.1 -2.0 -6.5 -1.55 -6.95 -1.15 -6.95 -0.5 -6.95 0.1 -6.5 0.55 -6.1 0.95 -5.5 0.95 L3.85 0.95 M9.1 -27.15 Q8.2 -26.2 8.2 -24.95 8.2 -23.65 9.1 -22.75 10.05 -21.85 11.3 -21.85 12.6 -21.85 13.55 -22.75 14.45 -23.65 14.45 -24.95 14.45 -26.25 13.55 -27.15 12.6 -28.05 11.3 -28.05 10.05 -28.05 9.1 -27.15 M-26.9 -25.1 L-26.8 -27.65 -15.7 -26.7 Q-16.25 -25.9 -16.25 -24.95 -16.25 -23.65 -15.35 -22.75 -14.4 -21.85 -13.1 -21.85 -11.8 -21.85 -10.9 -22.75 -10.0 -23.65 -10.0 -24.95 L-10.25 -26.2 -0.7 -25.35 0.05 -26.55 Q2.35 -29.9 5.9 -32.6 11.8 -37.05 18.45 -37.0 L22.9 -36.5 Q24.75 -31.1 24.75 -25.1 24.75 -18.85 22.7 -13.15 20.7 -7.65 17.1 -3.45 15.6 -1.65 13.65 -0.1 L11.5 -7.1 11.45 -6.8 Q11.2 -7.25 10.65 -7.25 L9.95 -6.95 9.7 -6.25 9.7 2.6 Q6.1 4.55 2.15 5.15 L2.15 2.75 -3.6 2.75 -3.6 5.25 Q-7.65 4.75 -11.3 2.9 L-11.3 -6.25 -11.6 -6.95 -12.3 -7.25 Q-13.0 -7.25 -13.25 -6.5 L-13.3 -7.1 -15.55 0.1 Q-17.75 -1.7 -19.2 -3.45 -22.85 -7.65 -24.85 -13.15 -26.9 -18.85 -26.9 -25.1" fill="#ffffff" fill-rule="evenodd" stroke="none"/>
    <path d="M4.9 0.55 Q4.45 0.95 3.85 0.95 L-5.5 0.95 Q-6.1 0.95 -6.5 0.55 -6.95 0.1 -6.95 -0.5 -6.95 -1.15 -6.5 -1.55 -6.1 -2.0 -5.5 -2.0 L3.85 -2.0 Q4.45 -2.0 4.9 -1.55 L5.35 -0.5 4.9 0.55" fill="#000000" fill-rule="evenodd" stroke="none"/>
    <path d="M11.3 -28.05 Q12.6 -28.05 13.55 -27.15 14.45 -26.25 14.45 -24.95 14.45 -23.65 13.55 -22.75 12.6 -21.85 11.3 -21.85 10.05 -21.85 9.1 -22.75 8.2 -23.65 8.2 -24.95 8.2 -26.2 9.1 -27.15 10.05 -28.05 11.3 -28.05" fill="#000000" fill-rule="evenodd" stroke="none"/>
    <path d="M-5.3 -37.0 Q-3.55 -40.25 -0.85 -42.7 3.6 -46.7 9.15 -46.75 L9.55 -46.75 10.25 -46.45 10.5 -45.75 10.2 -45.05 Q9.9 -44.75 9.5 -44.8 L9.15 -44.8 Q4.9 -44.8 1.25 -41.9 -1.25 -39.9 -3.05 -36.95 L-4.15 -34.9 -17.9 -36.45 Q-18.3 -36.5 -18.55 -36.8 L-18.75 -37.5 -18.4 -38.15 Q-18.1 -38.45 -17.7 -38.4 L-5.3 -37.0" fill="#000000" fill-rule="evenodd" stroke="none"/>
  </g>
</svg>
