<?xml version="1.0" encoding="UTF-8" standalone="no"?>
<svg xmlns:xlink="http://www.w3.org/1999/xlink" height="126.75px" width="48.45px" xmlns="http://www.w3.org/2000/svg">
  <g transform="matrix(1.0, 0.0, 0.0, 1.0, 24.2, 63.35)">
    <path d="M0.2 5.6 L4.2 5.6 4.2 2.3 0.2 2.3 0.2 5.6 M8.55 2.55 L8.55 6.05 17.05 6.05 17.05 2.55 8.55 2.55 M-7.35 2.55 L-7.7 6.05 -3.8 6.05 -3.8 2.55 -7.35 2.55 M9.35 -16.75 Q4.9 -14.85 0.0 -14.85 -3.25 -14.85 -6.6 -15.8 L-7.1 -1.3 -3.8 -1.2 -3.8 -2.55 8.55 -2.55 8.55 -0.75 17.05 -0.45 17.05 -21.85 Q13.65 -18.55 9.35 -16.75 M-2.15 -57.95 L-2.15 -59.2 Q-7.55 -58.6 -11.95 -55.35 -16.3 -52.15 -18.45 -47.25 L-14.5 -48.05 Q-13.7 -51.2 -11.5 -53.6 -8.1 -57.35 -2.15 -57.95 M-0.4 -59.3 L-0.4 -58.05 Q5.65 -58.2 9.3 -55.3 11.6 -53.5 12.65 -50.85 L17.3 -49.55 Q14.6 -54.0 10.1 -56.6 5.4 -59.3 0.0 -59.3 L-0.4 -59.3 M17.15 -56.25 Q24.25 -49.1 24.25 -39.1 24.25 -31.65 20.0 -25.4 L20.0 63.4 -13.4 63.4 -9.55 -16.85 Q-16.1 -19.65 -20.1 -25.65 -24.2 -31.75 -24.2 -39.1 -24.2 -49.1 -17.1 -56.25 -10.0 -63.35 0.0 -63.35 10.0 -63.35 17.15 -56.25 M19.25 -32.85 L17.55 -34.2 16.65 -34.5 19.6 -34.15 Q20.25 -36.75 20.25 -39.1 20.25 -42.9 18.85 -46.4 L11.3 -48.5 Q10.5 -48.75 10.35 -49.5 9.95 -51.2 8.4 -52.7 5.3 -55.65 -0.65 -55.45 -7.1 -55.2 -10.25 -51.1 -11.25 -49.75 -11.75 -48.2 L-12.1 -46.8 Q-12.25 -45.8 -13.15 -45.65 L-19.5 -44.4 Q-20.2 -41.75 -20.2 -39.1 -20.2 -30.75 -14.3 -24.8 -8.35 -18.9 0.0 -18.9 6.65 -18.9 12.0 -22.85 17.25 -26.7 19.25 -32.85" fill="#000000" fill-rule="evenodd" stroke="none"/>
    <path d="M9.35 -16.75 Q13.65 -18.55 17.05 -21.85 L17.05 -0.45 8.55 -0.75 8.55 -2.55 -3.8 -2.55 -3.8 -1.2 -7.1 -1.3 -6.6 -15.8 Q-3.25 -14.85 0.0 -14.85 4.9 -14.85 9.35 -16.75" fill="#ffffff" fill-rule="evenodd" stroke="none"/>
    <path d="M8.55 6.05 L8.55 2.55 17.05 2.55 17.05 6.05 8.55 6.05" fill="#ffffff" fill-rule="evenodd" stroke="none"/>
    <path d="M-3.8 2.55 L-3.8 6.05 -7.7 6.05 -7.35 2.55 -3.8 2.55" fill="#ffffff" fill-rule="evenodd" stroke="none"/>
    <path d="M0.2 2.3 L4.2 2.3 4.2 5.6 0.2 5.6 0.2 2.3" fill="#ffffff" fill-rule="evenodd" stroke="none"/>
    <path d="M-2.15 -57.95 Q-8.1 -57.35 -11.5 -53.6 -13.7 -51.2 -14.5 -48.05 L-18.45 -47.25 Q-16.3 -52.15 -11.95 -55.35 -7.55 -58.6 -2.15 -59.2 L-2.15 -57.95" fill="#ffffff" fill-rule="evenodd" stroke="none"/>
    <path d="M12.65 -50.85 Q11.6 -53.5 9.3 -55.3 5.65 -58.2 -0.4 -58.05 L-0.4 -59.3 0.0 -59.3 Q5.4 -59.3 10.1 -56.6 14.6 -54.0 17.3 -49.55 L12.65 -50.85" fill="#ffffff" fill-rule="evenodd" stroke="none"/>
    <path d="M14.85 -31.45 Q14.3 -31.45 13.95 -31.05 7.4 -23.85 -2.0 -24.75 -5.0 -25.05 -7.95 -26.15 -9.1 -26.55 -10.55 -27.3 L-11.5 -27.4 Q-12.05 -27.3 -12.3 -26.8 -12.6 -26.3 -12.45 -25.8 -12.3 -25.25 -11.85 -25.0 L-9.1 -23.8 Q-5.75 -22.55 -2.35 -22.2 8.45 -21.1 15.9 -29.25 16.3 -29.65 16.25 -30.2 L15.8 -31.15 Q15.4 -31.5 14.85 -31.45 M-12.15 -37.85 Q-11.4 -37.4 -10.25 -37.4 -9.1 -37.4 -8.3 -37.85 -7.5 -38.35 -7.5 -39.0 -7.5 -39.65 -8.3 -40.15 L-10.25 -40.6 -12.15 -40.15 Q-12.95 -39.65 -12.95 -39.0 -12.95 -38.35 -12.15 -37.85 M-5.0 -43.2 L-5.7 -45.75 -18.5 -42.0 -17.8 -39.5 -5.0 -43.2 M18.85 -46.4 Q20.25 -42.9 20.25 -39.1 20.25 -36.75 19.6 -34.15 L16.65 -34.5 17.55 -34.2 19.25 -32.85 Q17.25 -26.7 12.0 -22.85 6.65 -18.9 0.0 -18.9 -8.35 -18.9 -14.3 -24.8 -20.2 -30.75 -20.2 -39.1 -20.2 -41.75 -19.5 -44.4 L-13.15 -45.65 Q-12.25 -45.8 -12.1 -46.8 L-11.75 -48.2 Q-11.25 -49.75 -10.25 -51.1 -7.1 -55.2 -0.65 -55.45 5.3 -55.65 8.4 -52.7 9.95 -51.2 10.35 -49.5 10.5 -48.75 11.3 -48.5 L18.85 -46.4 M17.4 -39.75 L17.2 -42.35 6.6 -41.55 6.8 -38.95 9.0 -39.1 Q8.4 -38.65 8.4 -38.15 8.4 -37.45 9.2 -37.0 10.05 -36.5 11.15 -36.5 12.25 -36.5 13.05 -37.0 13.85 -37.45 13.85 -38.15 13.85 -38.9 12.8 -39.4 L17.4 -39.75" fill="#ffffff" fill-rule="evenodd" stroke="none"/>
    <path d="M-10.25 -37.4 Q-11.4 -37.4 -12.15 -37.85 -12.95 -38.35 -12.95 -39.0 -12.95 -39.65 -12.15 -40.15 L-10.25 -40.6 -8.3 -40.15 Q-7.5 -39.65 -7.5 -39.0 -7.5 -38.35 -8.3 -37.85 -9.1 -37.4 -10.25 -37.4" fill="#000000" fill-rule="evenodd" stroke="none"/>
    <path d="M13.95 -31.05 Q14.3 -31.45 14.85 -31.45 15.4 -31.5 15.8 -31.15 L16.25 -30.2 Q16.3 -29.65 15.9 -29.25 8.45 -21.1 -2.35 -22.2 -5.75 -22.55 -9.1 -23.8 L-11.85 -25.0 Q-12.3 -25.25 -12.45 -25.8 -12.6 -26.3 -12.3 -26.8 -12.05 -27.3 -11.5 -27.4 L-10.55 -27.3 Q-9.1 -26.55 -7.95 -26.15 -5.0 -25.05 -2.0 -24.75 7.4 -23.85 13.95 -31.05" fill="#000000" fill-rule="evenodd" stroke="none"/>
    <path d="M17.2 -42.35 L17.4 -39.75 12.8 -39.4 Q13.85 -38.9 13.85 -38.15 13.85 -37.45 13.05 -37.0 12.25 -36.5 11.15 -36.5 10.05 -36.5 9.2 -37.0 8.4 -37.45 8.4 -38.15 8.4 -38.65 9.0 -39.1 L6.8 -38.95 6.6 -41.55 17.2 -42.35" fill="#000000" fill-rule="evenodd" stroke="none"/>
    <path d="M-5.7 -45.75 L-5.0 -43.2 -17.8 -39.5 -18.5 -42.0 -5.7 -45.75" fill="#000000" fill-rule="evenodd" stroke="none"/>
  </g>
</svg>
