<?xml version="1.0" encoding="UTF-8" standalone="no"?>
<svg xmlns:xlink="http://www.w3.org/1999/xlink" height="94.8px" width="64.15px" xmlns="http://www.w3.org/2000/svg">
  <g transform="matrix(1.0, 0.0, 0.0, 1.0, 32.05, 47.4)">
    <path d="M-0.55 0.55 L-0.15 0.55 2.65 3.55 7.0 -0.4 8.85 1.25 12.45 43.7 -12.6 43.7 -8.85 -0.7 -5.25 3.35 -2.45 0.85 -2.0 11.65 0.4 10.0 0.95 20.45 1.5 7.6 -0.7 8.7 -0.55 0.55" fill="#ffffff" fill-rule="evenodd" stroke="none"/>
    <path d="M32.1 -11.2 Q32.1 -3.4 29.2 3.75 L26.3 0.45 24.2 3.75 22.15 -0.15 19.05 3.1 14.95 -0.95 12.65 1.95 16.55 47.4 -16.65 47.4 -12.85 2.5 -14.05 3.45 -16.85 -0.95 -21.25 3.75 -25.4 -1.5 -29.45 2.95 Q-32.05 -3.9 -32.05 -11.2 -32.05 -26.2 -22.65 -36.8 -13.25 -47.4 0.05 -47.4 13.35 -47.4 22.7 -36.8 32.1 -26.2 32.1 -11.2 M-0.45 -3.25 Q7.2 -3.25 12.65 -8.65 18.05 -14.1 18.05 -21.75 18.05 -29.4 12.65 -34.8 7.2 -40.25 -0.45 -40.25 -8.1 -40.25 -13.5 -34.8 -18.95 -29.4 -18.95 -21.75 -18.95 -14.1 -13.5 -8.65 -8.1 -3.25 -0.45 -3.25 M-0.15 0.55 L-0.55 0.55 -0.7 8.7 1.5 7.6 0.95 20.45 0.4 10.0 -2.0 11.65 -2.45 0.85 -5.25 3.35 -8.85 -0.7 -12.6 43.7 12.45 43.7 8.85 1.25 7.0 -0.4 2.65 3.55 -0.15 0.55" fill="#000000" fill-rule="evenodd" stroke="none"/>
  </g>
</svg>
