<?xml version="1.0" encoding="UTF-8" standalone="no"?>
<svg xmlns:xlink="http://www.w3.org/1999/xlink" height="105.65px" width="82.35px" xmlns="http://www.w3.org/2000/svg">
  <g transform="matrix(1.0, 0.0, 0.0, 1.0, 41.15, 52.8)">
    <path d="M22.05 -7.65 L34.55 -9.65 20.1 48.75 0.95 48.75 0.95 41.5 4.6 41.5 Q5.15 41.5 5.6 41.1 6.0 40.65 6.0 40.1 6.0 39.5 5.6 39.1 5.15 38.7 4.6 38.7 L0.95 38.7 0.95 32.55 4.6 32.55 Q5.15 32.55 5.6 32.15 6.0 31.7 6.0 31.15 6.0 30.6 5.6 30.15 5.15 29.75 4.6 29.75 L0.95 29.75 0.95 23.1 4.6 23.1 Q5.15 23.1 5.6 22.7 6.0 22.3 6.0 21.7 6.0 21.15 5.6 20.7 5.15 20.3 4.6 20.3 L0.95 20.3 0.95 16.3 Q5.6 16.0 9.3 13.6 12.5 11.5 13.85 8.7 L22.05 -7.65" fill="#ffffff" fill-rule="evenodd" stroke="none"/>
    <path d="M-25.65 -12.25 L-24.0 -9.9 -35.0 -11.7 -35.65 -14.35 -25.65 -12.25" fill="#ffffff" fill-rule="evenodd" stroke="none"/>
    <path d="M23.6 -9.9 L25.25 -12.15 35.7 -14.35 35.05 -11.75 23.6 -9.9" fill="#ffffff" fill-rule="evenodd" stroke="none"/>
    <path d="M-22.1 -7.6 L-12.85 10.35 -12.75 10.45 Q-11.2 12.55 -8.5 14.05 -5.05 16.05 -0.95 16.3 L-0.95 20.3 -4.1 20.3 -5.05 20.7 Q-5.45 21.15 -5.45 21.7 -5.45 22.3 -5.05 22.7 -4.65 23.1 -4.1 23.1 L-0.95 23.1 -0.95 29.75 -4.1 29.75 -5.05 30.15 Q-5.45 30.6 -5.45 31.15 -5.45 31.7 -5.05 32.15 -4.65 32.55 -4.1 32.55 L-0.95 32.55 -0.95 38.7 -4.1 38.7 -5.05 39.1 Q-5.45 39.5 -5.45 40.1 -5.45 40.65 -5.05 41.1 -4.65 41.5 -4.1 41.5 L-0.95 41.5 -0.95 48.75 -20.05 48.75 -34.45 -9.6 -22.1 -7.6" fill="#ffffff" fill-rule="evenodd" stroke="none"/>
    <path d="M-35.65 -14.35 L-35.0 -11.7 -24.0 -9.9 -25.65 -12.25 -35.65 -14.35 M-22.1 -7.6 L-34.45 -9.6 -20.05 48.75 -0.95 48.75 -0.95 41.5 -4.1 41.5 Q-4.65 41.5 -5.05 41.1 -5.45 40.65 -5.45 40.1 -5.45 39.5 -5.05 39.1 L-4.1 38.7 -0.95 38.7 -0.95 32.55 -4.1 32.55 Q-4.65 32.55 -5.05 32.15 -5.45 31.7 -5.45 31.15 -5.45 30.6 -5.05 30.15 L-4.1 29.75 -0.95 29.75 -0.95 23.1 -4.1 23.1 Q-4.65 23.1 -5.05 22.7 -5.45 22.3 -5.45 21.7 -5.45 21.15 -5.05 20.7 L-4.1 20.3 -0.95 20.3 -0.95 16.3 Q-5.05 16.05 -8.5 14.05 -11.2 12.55 -12.75 10.45 L-12.85 10.35 -22.1 -7.6 M-3.95 -18.85 Q-3.2 -20.0 -2.85 -21.95 L-7.4 -22.85 -7.35 -22.7 Q-7.35 -21.65 -8.1 -20.9 -8.85 -20.15 -9.9 -20.15 -11.0 -20.15 -11.7 -20.9 -12.45 -21.65 -12.45 -22.7 L-12.2 -23.8 -20.5 -25.4 Q-20.05 -22.85 -19.4 -21.2 -18.25 -18.6 -16.7 -17.25 -14.65 -15.6 -11.45 -15.55 -6.1 -15.6 -3.95 -18.85 M1.8 11.0 L1.8 12.35 Q4.95 11.95 7.55 10.1 9.7 8.55 10.35 7.05 L12.1 7.9 10.4 7.0 17.7 -7.55 Q8.7 -4.2 -0.8 -4.15 -9.65 -4.15 -17.65 -7.4 L-9.6 8.25 Q-8.65 9.45 -6.95 10.5 -4.75 11.85 -2.25 12.25 L-2.25 11.0 Q-2.25 10.15 -1.65 9.55 -1.05 8.95 -0.2 8.95 0.65 8.95 1.2 9.55 1.8 10.15 1.8 11.0 M0.5 -21.4 L0.3 -23.0 Q0.3 -19.8 -1.4 -17.2 -2.7 -15.1 -5.0 -13.9 -7.65 -12.5 -11.3 -12.5 L-11.45 -12.5 -13.1 -12.6 -12.25 -11.4 Q-11.95 -11.1 -12.2 -10.75 L-12.6 -10.55 -12.85 -10.6 Q-14.2 -11.25 -14.85 -12.95 -19.35 -14.25 -21.65 -18.8 -21.35 -16.5 -20.05 -12.5 -11.15 -7.75 -0.8 -7.75 9.2 -7.75 18.35 -11.65 L19.85 -12.35 19.9 -12.35 21.0 -16.35 Q17.9 -12.45 12.55 -12.5 L12.4 -12.5 Q8.45 -12.5 5.55 -14.15 3.1 -15.55 1.85 -17.85 0.85 -19.5 0.5 -21.4 M13.7 -23.95 L14.05 -22.7 Q14.05 -21.65 13.3 -20.9 12.55 -20.15 11.5 -20.15 10.45 -20.15 9.7 -20.9 8.95 -21.65 8.95 -22.7 L9.0 -23.05 3.5 -21.95 Q3.8 -20.55 4.5 -19.4 5.55 -17.65 7.1 -16.8 9.2 -15.6 12.55 -15.55 15.5 -15.6 17.35 -17.0 18.85 -18.1 19.9 -20.4 20.8 -22.4 21.15 -25.4 L13.7 -23.95 M30.8 -27.8 Q30.8 -22.65 28.05 -16.9 L41.2 -19.7 23.3 52.85 -23.25 52.85 -41.15 -19.7 -28.25 -17.0 Q-30.85 -22.65 -30.85 -27.8 -30.85 -38.0 -21.55 -45.45 -12.45 -52.8 -0.5 -52.8 11.55 -52.8 21.05 -45.45 30.8 -37.95 30.8 -27.8 M34.55 -9.65 L22.05 -7.65 13.85 8.7 Q12.5 11.5 9.3 13.6 5.6 16.0 0.95 16.3 L0.95 20.3 4.6 20.3 Q5.15 20.3 5.6 20.7 6.0 21.15 6.0 21.7 6.0 22.3 5.6 22.7 5.15 23.1 4.6 23.1 L0.95 23.1 0.95 29.75 4.6 29.75 Q5.15 29.75 5.6 30.15 6.0 30.6 6.0 31.15 6.0 31.7 5.6 32.15 5.15 32.55 4.6 32.55 L0.95 32.55 0.95 38.7 4.6 38.7 Q5.15 38.7 5.6 39.1 6.0 39.5 6.0 40.1 6.0 40.65 5.6 41.1 5.15 41.5 4.6 41.5 L0.95 41.5 0.95 48.75 20.1 48.75 34.55 -9.65 M23.6 -9.9 L35.05 -11.75 35.7 -14.35 25.25 -12.15 23.6 -9.9 M11.75 -44.1 L1.1 -37.45 0.6 -37.3 0.1 -37.45 -11.15 -44.45 Q-15.35 -41.95 -18.1 -37.85 -20.9 -33.7 -21.6 -28.75 L-16.3 -27.7 Q-14.25 -32.5 -9.05 -34.25 -8.3 -34.5 -8.05 -33.8 -7.7 -33.1 -8.3 -32.7 L-8.85 -32.3 -10.2 -30.9 Q-11.75 -29.15 -12.5 -26.95 L0.25 -24.45 0.3 -23.25 0.3 -24.45 21.65 -28.65 Q21.0 -33.45 18.35 -37.55 15.75 -41.5 11.75 -44.1" fill="#000000" fill-rule="evenodd" stroke="none"/>
    <path d="M1.1 -37.45 L11.75 -44.1 Q15.75 -41.5 18.35 -37.55 21.0 -33.45 21.65 -28.65 L0.3 -24.45 0.3 -23.25 0.25 -24.45 -12.5 -26.95 Q-11.75 -29.15 -10.2 -30.9 L-8.85 -32.3 -8.3 -32.7 Q-7.7 -33.1 -8.05 -33.8 -8.3 -34.5 -9.05 -34.25 -14.25 -32.5 -16.3 -27.7 L-21.6 -28.75 Q-20.9 -33.7 -18.1 -37.85 -15.35 -41.95 -11.15 -44.45 L0.1 -37.45 0.6 -37.3 1.1 -37.45" fill="#ffffff" fill-rule="evenodd" stroke="none"/>
    <path d="M-9.9 -20.15 Q-8.85 -20.15 -8.1 -20.9 -7.35 -21.65 -7.35 -22.7 L-7.4 -22.85 -2.85 -21.95 Q-3.2 -20.0 -3.95 -18.85 -6.1 -15.6 -11.45 -15.55 -14.65 -15.6 -16.7 -17.25 -18.25 -18.6 -19.4 -21.2 -20.05 -22.85 -20.5 -25.4 L-12.2 -23.8 -12.45 -22.7 Q-12.45 -21.65 -11.7 -20.9 -11.0 -20.15 -9.9 -20.15" fill="#ffffff" fill-rule="evenodd" stroke="none"/>
    <path d="M11.5 -20.15 Q12.55 -20.15 13.3 -20.9 14.05 -21.65 14.05 -22.7 L13.7 -23.95 21.15 -25.4 Q20.8 -22.4 19.9 -20.4 18.85 -18.1 17.35 -17.0 15.5 -15.6 12.55 -15.55 9.2 -15.6 7.1 -16.8 5.55 -17.65 4.5 -19.4 3.8 -20.55 3.5 -21.95 L9.0 -23.05 8.95 -22.7 Q8.95 -21.65 9.7 -20.9 10.45 -20.15 11.5 -20.15" fill="#ffffff" fill-rule="evenodd" stroke="none"/>
    <path d="M17.7 -7.55 L10.4 7.0 12.1 7.9 10.35 7.05 Q9.7 8.55 7.55 10.1 4.95 11.95 1.8 12.35 L1.8 11.0 Q1.8 10.15 1.2 9.55 0.65 8.95 -0.2 8.95 -1.05 8.95 -1.65 9.55 -2.25 10.15 -2.25 11.0 L-2.25 12.25 Q-4.75 11.85 -6.95 10.5 -8.65 9.45 -9.6 8.25 L-17.65 -7.4 Q-9.65 -4.15 -0.8 -4.15 8.7 -4.2 17.7 -7.55" fill="#ffffff" fill-rule="evenodd" stroke="none"/>
    <path d="M1.85 -17.85 Q3.1 -15.55 5.55 -14.15 8.45 -12.5 12.4 -12.5 L12.55 -12.5 Q17.9 -12.45 21.0 -16.35 L19.9 -12.35 19.85 -12.35 18.35 -11.65 Q9.2 -7.75 -0.8 -7.75 -11.15 -7.75 -20.05 -12.5 -21.35 -16.5 -21.65 -18.8 -19.35 -14.25 -14.85 -12.95 -14.2 -11.25 -12.85 -10.6 L-12.6 -10.55 -12.2 -10.75 Q-11.95 -11.1 -12.25 -11.4 L-13.1 -12.6 -11.45 -12.5 -11.3 -12.5 Q-7.65 -12.5 -5.0 -13.9 -2.7 -15.1 -1.4 -17.2 0.3 -19.8 0.3 -23.0 L0.5 -21.4 Q0.85 -19.5 1.85 -17.85" fill="#ffffff" fill-rule="evenodd" stroke="none"/>
  </g>
</svg>
