<?xml version="1.0" encoding="UTF-8" standalone="no"?>
<svg xmlns:xlink="http://www.w3.org/1999/xlink" height="152.05px" width="73.95px" xmlns="http://www.w3.org/2000/svg">
  <g transform="matrix(1.0, 0.0, 0.0, 1.0, 36.95, 76.0)">
    <path d="M-9.6 -11.1 Q-10.4 -11.95 -10.4 -13.1 L-13.2 -13.1 -11.8 -7.8 Q-10.2 -2.9 -7.8 0.75 -7.1 0.05 -6.05 0.05 -5.05 0.05 -4.3 0.8 -3.55 1.5 -3.55 2.55 -3.55 3.9 -4.7 4.65 -2.5 6.85 -0.2 8.2 7.35 3.65 10.9 -6.95 L12.45 -13.1 10.3 -13.1 Q10.3 -11.95 9.5 -11.1 8.7 -10.3 7.55 -10.3 6.4 -10.3 5.6 -11.1 4.8 -11.95 4.8 -13.1 L-4.9 -13.1 Q-4.9 -11.95 -5.7 -11.1 -6.5 -10.3 -7.65 -10.3 -8.8 -10.3 -9.6 -11.1 M13.75 -26.9 L13.65 -30.15 -14.65 -28.4 -14.65 -28.3 Q-14.65 -21.7 -13.7 -16.05 L12.95 -16.05 Q13.75 -21.2 13.75 -26.9 M-24.95 -71.15 Q-18.7 -75.95 -12.05 -76.0 -5.9 -76.0 -0.15 -71.7 5.1 -74.4 11.15 -74.4 22.3 -74.5 30.4 -64.2 30.85 -63.7 30.5 -63.1 30.15 -62.5 29.5 -62.6 L24.75 -62.95 22.15 -62.85 Q24.2 -62.25 26.05 -61.3 34.35 -57.0 36.95 -46.85 37.1 -46.1 36.45 -45.75 35.85 -45.4 35.25 -45.9 L34.7 -46.4 33.25 -47.5 Q32.0 -48.45 30.45 -48.9 33.0 -43.8 33.0 -35.5 33.0 -30.75 32.1 -25.55 32.0 -24.95 31.4 -24.75 30.75 -24.6 30.35 -25.05 L27.8 -28.3 Q26.8 -23.1 24.7 -18.95 21.5 -12.55 16.15 -9.85 L14.95 -5.6 Q10.55 7.6 0.4 12.75 L0.25 12.5 0.15 13.0 -0.6 13.0 -0.7 12.5 -0.85 12.75 Q-4.45 10.95 -7.35 8.05 L-2.55 76.05 -19.8 76.05 -19.8 -5.2 -15.4 -5.2 -15.85 -6.5 -17.0 -10.65 Q-24.6 -16.3 -25.55 -23.15 L-25.7 -23.0 Q-27.3 -21.65 -28.2 -18.45 -28.35 -17.9 -28.9 -17.75 -29.45 -17.6 -29.9 -18.05 -31.05 -19.35 -32.1 -21.7 -34.25 -26.3 -34.3 -31.65 -34.3 -37.3 -31.75 -43.35 -33.2 -41.9 -34.65 -38.6 -34.9 -37.9 -35.65 -38.0 -36.35 -38.1 -36.55 -38.8 -36.95 -41.05 -36.95 -44.2 -36.95 -52.1 -33.7 -57.3 -30.3 -62.75 -23.55 -64.4 L-28.55 -64.7 -29.1 -64.7 Q-29.75 -64.7 -30.05 -65.25 -30.3 -65.8 -29.95 -66.3 L-24.95 -71.15" fill="#000000" fill-rule="evenodd" stroke="none"/>
    <path d="M-11.8 -7.8 L-13.2 -13.1 -10.4 -13.1 Q-10.4 -11.95 -9.6 -11.1 -8.8 -10.3 -7.65 -10.3 -6.5 -10.3 -5.7 -11.1 -4.9 -11.95 -4.9 -13.1 L4.8 -13.1 Q4.8 -11.95 5.6 -11.1 6.4 -10.3 7.55 -10.3 8.7 -10.3 9.5 -11.1 10.3 -11.95 10.3 -13.1 L12.45 -13.1 10.9 -6.95 Q7.35 3.65 -0.2 8.2 -2.5 6.85 -4.7 4.65 -3.55 3.9 -3.55 2.55 -3.55 1.5 -4.3 0.8 -5.05 0.05 -6.05 0.05 -7.1 0.05 -7.8 0.75 -10.2 -2.9 -11.8 -7.8" fill="#ffffff" fill-rule="evenodd" stroke="none"/>
    <path d="M13.65 -30.15 L13.75 -26.9 Q13.75 -21.2 12.95 -16.05 L-13.7 -16.05 Q-14.65 -21.7 -14.65 -28.3 L-14.65 -28.4 13.65 -30.15" fill="#ffffff" fill-rule="evenodd" stroke="none"/>
  </g>
</svg>
