<?xml version="1.0" encoding="UTF-8" standalone="no"?>
<svg xmlns:xlink="http://www.w3.org/1999/xlink" height="93.85px" width="83.45px" xmlns="http://www.w3.org/2000/svg">
  <g transform="matrix(1.0, 0.0, 0.0, 1.0, 41.7, 46.9)">
    <path d="M-6.5 -20.5 L-5.95 -24.95 -12.35 -25.75 -12.3 -25.25 Q-12.3 -24.35 -12.9 -23.7 -13.55 -23.1 -14.45 -23.1 -15.3 -23.1 -15.95 -23.7 -16.6 -24.35 -16.6 -25.25 L-16.3 -26.3 -28.1 -27.8 -28.1 -20.5 -6.5 -20.5 M17.1 -26.3 L17.35 -25.25 Q17.35 -24.35 16.75 -23.7 16.1 -23.1 15.2 -23.1 14.35 -23.1 13.7 -23.7 13.1 -24.35 13.1 -25.25 L13.15 -25.75 7.0 -24.9 7.0 -20.5 28.15 -20.5 28.15 -27.8 17.1 -26.3 M23.7 -9.6 L23.7 -10.75 Q12.75 -7.25 0.65 -7.25 -12.7 -7.25 -24.05 -10.9 L-24.05 -9.6 Q-24.05 -4.6 -20.55 -1.1 -17.05 2.4 -12.05 2.4 L11.7 2.4 Q16.7 2.4 20.2 -1.1 23.7 -4.6 23.7 -9.6 M23.7 -14.45 L23.7 -17.5 5.5 -17.5 Q4.85 -17.5 4.4 -17.95 4.0 -18.35 4.0 -19.0 L4.0 -23.0 3.45 -22.9 -3.2 -22.9 -3.7 -18.8 Q-3.75 -18.25 -4.2 -17.85 -4.65 -17.5 -5.2 -17.5 L-24.05 -17.5 -24.05 -14.6 -23.2 -14.3 -17.85 -12.85 Q-8.75 -10.75 0.65 -10.75 12.8 -10.75 23.7 -14.45 M23.05 -40.5 Q27.1 -36.45 27.7 -30.75 L29.45 -31.0 Q30.15 -31.1 30.65 -30.65 31.15 -30.15 31.15 -29.5 L31.15 -19.0 Q31.15 -18.3 30.7 -17.95 30.25 -17.5 29.65 -17.5 L27.8 -17.5 27.8 -10.0 40.95 -12.35 41.55 -8.1 Q42.0 -2.6 41.4 3.9 39.45 24.6 27.55 46.95 L-27.55 46.95 Q-39.45 24.6 -41.35 3.85 -41.95 -2.65 -41.5 -8.15 L-40.9 -12.4 -28.15 -10.15 -28.15 -17.5 -29.6 -17.5 Q-30.15 -17.5 -30.65 -17.9 -31.1 -18.35 -31.1 -19.0 L-31.1 -29.5 Q-31.1 -30.15 -30.6 -30.65 L-29.4 -31.0 -28.05 -30.8 Q-27.45 -36.25 -23.65 -40.2 -19.85 -44.1 -14.5 -44.95 -8.55 -46.9 -0.1 -46.9 7.4 -46.9 13.3 -45.05 18.95 -44.5 23.05 -40.5 M19.8 -37.9 Q16.35 -41.05 11.7 -41.05 L10.9 -41.05 Q12.25 -40.25 12.25 -39.45 12.25 -37.95 8.5 -36.9 4.8 -35.85 -0.55 -35.85 -5.85 -35.85 -9.55 -36.9 -13.3 -37.95 -13.3 -39.45 -13.3 -40.25 -11.95 -41.05 L-12.05 -41.05 Q-16.7 -41.05 -20.1 -37.95 -23.5 -34.85 -24.0 -30.3 L-4.05 -27.7 Q-3.4 -27.6 -3.1 -27.15 -2.8 -26.85 -2.8 -26.4 L3.45 -26.4 4.0 -26.3 Q4.0 -26.8 4.35 -27.2 4.75 -27.6 5.3 -27.7 L23.65 -30.2 Q23.2 -34.8 19.8 -37.9" fill="#000000" fill-rule="evenodd" stroke="none"/>
    <path d="M23.7 -9.6 Q23.7 -4.6 20.2 -1.1 16.7 2.4 11.7 2.4 L-12.05 2.4 Q-17.05 2.4 -20.55 -1.1 -24.05 -4.6 -24.05 -9.6 L-24.05 -10.9 Q-12.7 -7.25 0.65 -7.25 12.75 -7.25 23.7 -10.75 L23.7 -9.6 M9.75 -1.4 Q10.5 -1.4 11.0 -1.9 11.5 -2.45 11.5 -3.2 11.5 -3.9 11.0 -4.45 10.5 -4.95 9.75 -4.95 L-8.55 -4.95 Q-9.25 -4.95 -9.8 -4.45 -10.3 -3.9 -10.3 -3.2 -10.3 -2.45 -9.8 -1.9 -9.25 -1.4 -8.55 -1.4 L9.75 -1.4" fill="#ffffff" fill-rule="evenodd" stroke="none"/>
    <path d="M8.5 -36.9 Q12.25 -37.95 12.25 -39.45 12.25 -40.25 10.9 -41.05 L11.7 -41.05 Q16.35 -41.05 19.8 -37.9 23.2 -34.8 23.65 -30.2 L5.3 -27.7 Q4.75 -27.6 4.35 -27.2 4.0 -26.8 4.0 -26.3 L3.45 -26.4 -2.8 -26.4 Q-2.8 -26.85 -3.1 -27.15 -3.4 -27.6 -4.05 -27.7 L-24.0 -30.3 Q-23.5 -34.85 -20.1 -37.95 -16.7 -41.05 -12.05 -41.05 L-11.95 -41.05 Q-13.3 -40.25 -13.3 -39.45 -13.3 -37.95 -9.55 -36.9 -5.85 -35.85 -0.55 -35.85 4.8 -35.85 8.5 -36.9" fill="#ffffff" fill-rule="evenodd" stroke="none"/>
    <path d="M3.45 -22.9 L4.0 -23.0 4.0 -19.0 Q4.0 -18.35 4.4 -17.95 4.85 -17.5 5.5 -17.5 L23.7 -17.5 23.7 -14.45 Q12.8 -10.75 0.65 -10.75 -8.75 -10.75 -17.85 -12.85 L-23.2 -14.3 -24.05 -14.6 -24.05 -17.5 -5.2 -17.5 Q-4.65 -17.5 -4.2 -17.85 -3.75 -18.25 -3.7 -18.8 L-3.2 -22.9 3.45 -22.9" fill="#ffffff" fill-rule="evenodd" stroke="none"/>
    <path d="M-12.9 -23.7 Q-12.3 -24.35 -12.3 -25.25 L-12.35 -25.75 -5.95 -24.95 -6.5 -20.5 -28.1 -20.5 -28.1 -27.8 -16.3 -26.3 -16.6 -25.25 Q-16.6 -24.35 -15.95 -23.7 -15.3 -23.1 -14.45 -23.1 -13.55 -23.1 -12.9 -23.7" fill="#ffffff" fill-rule="evenodd" stroke="none"/>
    <path d="M13.7 -23.7 Q14.35 -23.1 15.2 -23.1 16.1 -23.1 16.75 -23.7 17.35 -24.35 17.35 -25.25 L17.1 -26.3 28.15 -27.8 28.15 -20.5 7.0 -20.5 7.0 -24.9 13.15 -25.75 13.1 -25.25 Q13.1 -24.35 13.7 -23.7" fill="#ffffff" fill-rule="evenodd" stroke="none"/>
    <path d="M9.75 -4.95 Q10.5 -4.95 11.0 -4.45 11.5 -3.9 11.5 -3.2 11.5 -2.45 11.0 -1.9 10.5 -1.4 9.75 -1.4 L-8.55 -1.4 Q-9.25 -1.4 -9.8 -1.9 -10.3 -2.45 -10.3 -3.2 -10.3 -3.9 -9.8 -4.45 -9.25 -4.95 -8.55 -4.95 L9.75 -4.95" fill="#000000" fill-rule="evenodd" stroke="none"/>
  </g>
</svg>
