<?xml version="1.0" encoding="UTF-8" standalone="no"?>
<svg xmlns:xlink="http://www.w3.org/1999/xlink" height="125.75px" width="63.65px" xmlns="http://www.w3.org/2000/svg">
  <g transform="matrix(1.0, 0.0, 0.0, 1.0, 31.8, 62.85)">
    <path d="M-31.8 -62.85 L31.85 -62.85 31.85 -2.4 20.35 -3.2 20.35 61.95 11.9 61.95 11.85 61.5 Q9.45 55.45 9.45 48.45 9.45 44.2 10.75 35.8 12.05 27.05 12.15 22.4 L12.15 21.4 Q12.15 12.6 9.7 3.9 L7.65 3.9 Q10.15 12.95 10.15 21.4 L10.15 22.35 Q10.1 26.75 8.75 35.5 7.45 43.95 7.45 48.45 7.45 55.7 9.85 61.95 L-19.85 61.95 -19.85 -2.95 -31.8 -2.95 -31.8 -62.85 M-11.65 -53.3 L-18.55 -53.35 -18.55 -38.3 -14.55 -38.6 Q-7.95 -38.5 -5.6 -35.35 -5.2 -34.8 -5.55 -34.05 L-5.45 -33.55 Q-5.45 -32.7 -6.6 -32.1 -7.8 -31.5 -9.45 -31.5 -11.1 -31.5 -12.25 -32.1 -13.45 -32.7 -13.45 -33.55 -13.45 -34.35 -12.4 -34.9 -11.4 -35.45 -9.9 -35.55 -11.85 -36.3 -14.55 -36.2 L-18.55 -35.95 -18.55 -22.0 -18.2 -21.8 -17.95 -21.6 -17.0 -21.05 Q-15.6 -20.25 -13.25 -19.2 -6.5 -16.55 0.65 -16.55 L7.95 -17.2 9.05 -16.95 9.7 -16.0 Q9.8 -15.4 9.45 -14.9 9.1 -14.35 8.5 -14.25 L0.65 -13.55 Q-9.65 -13.55 -17.75 -18.05 L-9.4 -3.1 9.85 -3.1 19.45 -19.5 19.45 -36.25 18.85 -36.75 17.1 -38.05 Q14.1 -39.85 11.5 -39.85 8.45 -39.75 5.95 -37.4 5.6 -37.05 5.15 -37.05 4.65 -37.05 4.3 -37.4 3.95 -37.75 3.95 -38.2 3.95 -38.7 4.3 -39.05 7.45 -42.2 11.5 -42.2 15.6 -42.15 19.45 -39.3 L19.45 -53.15 12.55 -53.15 -0.2 -45.9 -11.65 -53.3" fill="#000000" fill-rule="evenodd" stroke="none"/>
    <path d="M8.75 35.5 Q10.1 26.75 10.15 22.35 L10.15 21.4 Q10.15 12.95 7.65 3.9 L9.7 3.9 Q12.15 12.6 12.15 21.4 L12.15 22.4 Q12.05 27.05 10.75 35.8 9.45 44.2 9.45 48.45 9.45 55.45 11.85 61.5 L11.9 61.95 Q11.8 62.65 11.25 62.8 L10.9 62.9 Q10.2 62.9 9.95 62.25 L9.85 61.95 Q7.45 55.7 7.45 48.45 7.45 43.95 8.75 35.5" fill="#ffffff" fill-rule="evenodd" stroke="none"/>
    <path d="M4.45 -33.55 Q4.45 -32.55 5.85 -31.8 7.25 -31.05 9.25 -31.05 11.25 -31.05 12.7 -31.8 14.1 -32.55 14.1 -33.55 14.1 -34.55 12.7 -35.3 11.25 -36.0 9.25 -36.0 7.25 -36.0 5.85 -35.3 4.45 -34.55 4.45 -33.55 M-18.55 -53.35 L-11.65 -53.3 -0.2 -45.9 12.55 -53.15 19.45 -53.15 19.45 -39.3 Q15.6 -42.15 11.5 -42.2 7.45 -42.2 4.3 -39.05 3.95 -38.7 3.95 -38.2 3.95 -37.75 4.3 -37.4 4.65 -37.05 5.15 -37.05 5.6 -37.05 5.95 -37.4 8.45 -39.75 11.5 -39.85 14.1 -39.85 17.1 -38.05 L18.85 -36.75 19.45 -36.25 19.45 -19.5 9.85 -3.1 -9.4 -3.1 -17.75 -18.05 Q-9.65 -13.55 0.65 -13.55 L8.5 -14.25 Q9.1 -14.35 9.45 -14.9 9.8 -15.4 9.7 -16.0 L9.05 -16.95 7.95 -17.2 0.65 -16.55 Q-6.5 -16.55 -13.25 -19.2 -15.6 -20.25 -17.0 -21.05 L-17.95 -21.6 -18.2 -21.8 -18.55 -22.0 -18.55 -35.95 -14.55 -36.2 Q-11.85 -36.3 -9.9 -35.55 -11.4 -35.45 -12.4 -34.9 -13.45 -34.35 -13.45 -33.55 -13.45 -32.7 -12.25 -32.1 -11.1 -31.5 -9.45 -31.5 -7.8 -31.5 -6.6 -32.1 -5.45 -32.7 -5.45 -33.55 L-5.55 -34.05 Q-5.2 -34.8 -5.6 -35.35 -7.95 -38.5 -14.55 -38.6 L-18.55 -38.3 -18.55 -53.35" fill="#ffffff" fill-rule="evenodd" stroke="none"/>
    <path d="M14.1 -33.55 Q14.1 -32.55 12.7 -31.8 11.25 -31.05 9.25 -31.05 7.25 -31.05 5.85 -31.8 4.45 -32.55 4.45 -33.55 4.45 -34.55 5.85 -35.3 7.25 -36.0 9.25 -36.0 11.25 -36.0 12.7 -35.3 14.1 -34.55 14.1 -33.55" fill="#000000" fill-rule="evenodd" stroke="none"/>
  </g>
</svg>
