<?xml version="1.0" encoding="UTF-8" standalone="no"?>
<svg xmlns:xlink="http://www.w3.org/1999/xlink" height="110.7px" width="69.0px" xmlns="http://www.w3.org/2000/svg">
  <g transform="matrix(1.0, 0.0, 0.0, 1.0, 34.5, 55.35)">
    <path d="M33.8 0.7 Q34.5 12.85 34.5 36.4 34.5 47.95 34.05 55.35 L-34.0 55.35 Q-34.5 47.1 -34.5 36.4 -34.5 -8.6 -28.75 -28.5 -21.0 -55.35 0.0 -55.35 22.55 -55.35 29.8 -28.5 32.8 -17.25 33.8 0.7 M21.25 -13.5 L21.25 -29.4 -20.85 -29.4 -20.85 -13.5 21.25 -13.5" fill="#000000" fill-rule="evenodd" stroke="none"/>
    <path d="M-15.2 -24.35 Q-15.65 -25.0 -15.65 -25.95 -15.6 -26.45 -15.9 -26.8 -16.2 -27.15 -16.7 -27.2 -17.15 -27.25 -17.5 -26.9 L-17.9 -26.15 -17.95 -25.95 Q-17.75 -24.15 -17.1 -23.1 -16.45 -22.1 -15.3 -21.55 L-15.35 -21.45 Q-15.55 -20.35 -14.25 -19.25 -12.9 -18.2 -10.75 -17.7 -8.6 -17.2 -6.9 -17.65 -5.2 -18.05 -5.0 -19.1 -4.75 -20.2 -6.1 -21.25 -7.4 -22.35 -9.6 -22.85 L-12.0 -23.1 -12.25 -23.15 Q-14.3 -23.15 -15.2 -24.35 M21.25 -29.4 L21.25 -13.5 -20.85 -13.5 -20.85 -29.4 21.25 -29.4 M17.4 -23.1 Q18.2 -24.45 18.2 -25.95 L18.2 -26.1 17.85 -26.85 Q17.5 -27.2 17.05 -27.2 L16.25 -26.8 Q15.9 -26.5 15.95 -26.0 L15.95 -25.95 Q15.95 -25.0 15.5 -24.35 14.6 -23.15 12.55 -23.15 L12.25 -23.1 9.65 -22.85 Q7.5 -22.35 6.15 -21.25 4.85 -20.2 5.05 -19.1 5.3 -18.05 7.0 -17.65 8.65 -17.2 10.8 -17.7 13.0 -18.2 14.3 -19.25 15.65 -20.35 15.4 -21.45 16.75 -22.05 17.4 -23.1" fill="#ffffff" fill-rule="evenodd" stroke="none"/>
    <path d="M-15.65 -25.95 Q-15.65 -25.0 -15.2 -24.35 -14.3 -23.15 -12.25 -23.15 L-12.0 -23.1 -9.6 -22.85 Q-7.4 -22.35 -6.1 -21.25 -4.75 -20.2 -5.0 -19.1 -5.2 -18.05 -6.9 -17.65 -8.6 -17.2 -10.75 -17.7 -12.9 -18.2 -14.25 -19.25 -15.55 -20.35 -15.35 -21.45 L-15.3 -21.55 Q-16.45 -22.1 -17.1 -23.1 -17.75 -24.15 -17.95 -25.95 L-17.9 -26.15 -17.5 -26.9 Q-17.15 -27.25 -16.7 -27.2 -16.2 -27.15 -15.9 -26.8 -15.6 -26.45 -15.65 -25.95" fill="#000000" fill-rule="evenodd" stroke="none"/>
    <path d="M17.05 -27.2 Q17.5 -27.2 17.85 -26.85 L18.2 -26.1 18.2 -25.95 Q18.2 -24.45 17.4 -23.1 16.75 -22.05 15.4 -21.45 15.65 -20.35 14.3 -19.25 13.0 -18.2 10.8 -17.7 8.65 -17.2 7.0 -17.65 5.3 -18.05 5.05 -19.1 4.85 -20.2 6.15 -21.25 7.5 -22.35 9.65 -22.85 L12.25 -23.1 12.55 -23.15 Q14.6 -23.15 15.5 -24.35 15.95 -25.0 15.95 -25.95 L15.95 -26.0 Q15.9 -26.5 16.25 -26.8 L17.05 -27.2" fill="#000000" fill-rule="evenodd" stroke="none"/>
  </g>
</svg>
