<?xml version="1.0" encoding="UTF-8" standalone="no"?>
<svg xmlns:xlink="http://www.w3.org/1999/xlink" height="97.15px" width="136.7px" xmlns="http://www.w3.org/2000/svg">
  <g transform="matrix(1.0, 0.0, 0.0, 1.0, 68.35, 48.55)">
    <path d="M-7.7 -31.35 Q-8.15 -31.8 -8.25 -32.65 -13.7 -26.9 -17.1 -19.5 -21.15 -10.75 -17.6 -5.7 -15.25 -2.25 -9.4 -0.35 -9.0 -3.6 -7.7 -6.2 L-7.7 -20.4 -7.75 -20.6 -7.7 -21.4 -7.7 -31.35 M39.0 -0.35 L39.0 -3.35 Q37.2 -6.5 33.45 -9.2 26.9 -14.0 17.05 -14.85 12.9 -15.0 8.3 -13.95 -0.85 -11.85 -5.6 -5.75 L-6.3 -3.5 Q-6.95 -1.45 -6.95 -0.1 -6.95 8.05 -2.95 13.0 2.45 19.65 14.7 19.65 28.85 19.65 34.7 13.9 37.35 11.2 38.3 7.1 39.0 4.2 39.0 -0.35 M38.15 -9.2 L39.7 -7.5 Q41.3 -11.0 41.3 -15.3 41.3 -21.35 38.15 -28.85 L38.15 -9.2 M37.75 -38.5 L37.85 -38.4 37.95 -38.25 Q39.95 -35.35 41.8 -31.35 45.4 -23.55 45.75 -16.65 55.65 -4.95 61.45 10.85 55.9 17.15 45.5 21.55 29.4 28.4 5.65 28.55 -22.85 28.75 -42.0 14.2 -48.1 9.55 -52.6 3.9 -54.85 1.05 -56.1 -1.25 -47.65 -17.1 -35.1 -27.05 -22.2 -37.25 -7.25 -39.3 -2.2 -43.4 3.05 -45.4 8.3 -48.4 15.15 -48.55 27.5 -48.9 37.75 -38.5 M35.4 -22.4 L35.4 -30.85 Q32.45 -30.65 28.95 -32.3 26.6 -33.5 23.75 -35.75 21.55 -33.45 18.15 -32.05 12.9 -29.8 5.1 -29.7 L-4.95 -30.45 -4.95 -22.7 6.25 -24.8 7.35 -24.55 8.0 -23.6 Q8.1 -23.0 7.75 -22.5 7.4 -21.95 6.8 -21.85 L-4.95 -19.6 -4.95 -9.9 Q0.5 -15.35 9.1 -17.15 L17.15 -17.9 17.25 -17.9 Q28.1 -16.95 35.4 -11.55 L35.4 -19.55 24.7 -21.95 Q24.15 -22.05 23.85 -22.55 23.55 -23.05 23.65 -23.6 23.75 -24.2 24.25 -24.5 L25.35 -24.7 35.4 -22.4 M35.1 -34.75 L34.4 -35.9 Q25.15 -45.15 14.55 -44.55 11.15 -44.35 8.0 -43.15 6.2 -42.45 5.25 -41.85 L4.75 -41.65 1.4 -40.05 Q-2.55 -37.9 -6.2 -34.6 L-5.9 -34.55 -2.4 -34.0 5.65 -33.55 Q17.9 -33.8 22.05 -39.65 L23.35 -41.5 25.0 -39.85 28.4 -37.1 Q32.35 -34.45 35.1 -34.75" fill="#000000" fill-rule="evenodd" stroke="none"/>
    <path d="M62.65 14.25 L63.0 15.4 Q68.15 31.35 68.35 48.6 L-68.35 48.6 Q-68.0 23.7 -58.1 2.85 L-57.7 2.05 Q-51.2 12.15 -39.75 19.55 -20.75 31.85 5.65 31.65 28.9 31.5 45.05 25.2 56.15 20.85 62.65 14.25" fill="#000000" fill-rule="evenodd" stroke="none"/>
    <path d="M23.75 -35.75 Q26.6 -33.5 28.95 -32.3 L18.15 -32.05 Q21.55 -33.45 23.75 -35.75" fill="#ffffff" fill-rule="evenodd" stroke="none"/>
    <path d="M41.3 -15.3 Q41.3 -11.0 39.7 -7.5 L38.15 -9.2 38.15 -28.85 Q41.3 -21.35 41.3 -15.3" fill="#ffffff" fill-rule="evenodd" stroke="none"/>
    <path d="M14.55 -44.55 Q25.15 -45.15 34.4 -35.9 L35.1 -34.75 Q32.35 -34.45 28.4 -37.1 L25.0 -39.85 23.35 -41.5 22.05 -39.65 Q17.9 -33.8 5.65 -33.55 L-2.4 -34.0 -5.9 -34.55 -6.2 -34.6 Q-2.55 -37.9 1.4 -40.05 L4.75 -41.65 5.25 -41.85 Q6.2 -42.45 8.0 -43.15 11.15 -44.35 14.55 -44.55" fill="#ffffff" fill-rule="evenodd" stroke="none"/>
    <path d="M-8.25 -32.65 Q-8.15 -31.8 -7.7 -31.35 L-7.7 -21.4 -7.75 -20.6 -7.7 -20.4 -7.7 -6.2 Q-9.0 -3.6 -9.4 -0.35 -15.25 -2.25 -17.6 -5.7 -21.15 -10.75 -17.1 -19.5 -13.7 -26.9 -8.25 -32.65" fill="#ffffff" fill-rule="evenodd" stroke="none"/>
    <path d="M2.45 -16.7 Q3.2 -16.7 3.75 -17.25 4.3 -17.75 4.3 -18.55 4.3 -19.3 3.75 -19.85 3.2 -20.4 2.45 -20.4 1.7 -20.4 1.15 -19.85 0.6 -19.3 0.6 -18.55 0.6 -17.75 1.15 -17.25 1.7 -16.7 2.45 -16.7 M27.6 -17.25 Q28.15 -16.7 28.9 -16.7 29.7 -16.7 30.2 -17.25 30.75 -17.75 30.75 -18.55 30.75 -19.3 30.2 -19.85 29.7 -20.4 28.9 -20.4 28.15 -20.4 27.6 -19.85 27.05 -19.3 27.05 -18.55 27.05 -17.75 27.6 -17.25 M35.4 -30.85 L35.4 -22.4 25.35 -24.7 24.25 -24.5 Q23.75 -24.2 23.65 -23.6 23.55 -23.05 23.85 -22.55 24.15 -22.05 24.7 -21.95 L35.4 -19.55 35.4 -11.55 Q28.1 -16.95 17.25 -17.9 L17.15 -17.9 9.1 -17.15 Q0.5 -15.35 -4.95 -9.9 L-4.95 -19.6 6.8 -21.85 Q7.4 -21.95 7.75 -22.5 8.1 -23.0 8.0 -23.6 L7.35 -24.55 6.25 -24.8 -4.95 -22.7 -4.95 -30.45 5.1 -29.7 Q12.9 -29.8 18.15 -32.05 L28.95 -32.3 Q32.45 -30.65 35.4 -30.85" fill="#ffffff" fill-rule="evenodd" stroke="none"/>
    <path d="M2.45 -20.4 Q3.2 -20.4 3.75 -19.85 4.3 -19.3 4.3 -18.55 4.3 -17.75 3.75 -17.25 3.2 -16.7 2.45 -16.7 1.7 -16.7 1.15 -17.25 0.6 -17.75 0.6 -18.55 0.6 -19.3 1.15 -19.85 1.7 -20.4 2.45 -20.4" fill="#000000" fill-rule="evenodd" stroke="none"/>
    <path d="M28.9 -16.7 Q28.15 -16.7 27.6 -17.25 27.05 -17.75 27.05 -18.55 27.05 -19.3 27.6 -19.85 28.15 -20.4 28.9 -20.4 29.7 -20.4 30.2 -19.85 30.75 -19.3 30.75 -18.55 30.75 -17.75 30.2 -17.25 29.7 -16.7 28.9 -16.7" fill="#000000" fill-rule="evenodd" stroke="none"/>
  </g>
</svg>
