<?xml version="1.0" encoding="UTF-8" standalone="no"?>
<svg xmlns:xlink="http://www.w3.org/1999/xlink" height="104.95px" width="70.9px" xmlns="http://www.w3.org/2000/svg">
  <g transform="matrix(1.0, 0.0, 0.0, 1.0, 35.45, 52.45)">
    <path d="M-0.95 -24.3 Q2.35 -24.75 5.05 -22.5 L5.45 -21.75 5.2 -20.9 Q4.9 -20.55 4.45 -20.5 4.0 -20.45 3.6 -20.75 1.35 -22.6 -1.35 -21.9 L-3.75 -20.75 Q-4.15 -20.45 -4.6 -20.5 L-5.35 -20.9 -5.6 -21.75 -5.2 -22.5 Q-3.45 -24.0 -0.95 -24.3" fill="#000000" fill-rule="evenodd" stroke="none"/>
    <path d="M-7.1 39.7 Q-6.5 40.3 -5.6 40.3 -4.7 40.3 -4.05 39.7 -3.4 39.05 -3.4 38.15 -3.4 37.25 -4.05 36.6 -4.7 35.95 -5.6 35.95 -6.5 35.95 -7.1 36.6 -7.75 37.25 -7.75 38.15 -7.75 39.05 -7.1 39.7 M-9.1 25.35 Q-9.85 26.1 -9.85 27.1 -9.85 28.15 -9.1 28.9 -8.4 29.6 -7.35 29.6 -6.35 29.6 -5.6 28.9 -4.9 28.15 -4.9 27.1 -4.9 26.1 -5.6 25.35 -6.35 24.65 -7.35 24.65 -8.4 24.65 -9.1 25.35 M-8.6 12.55 Q-9.85 12.55 -10.75 13.45 -11.65 14.3 -11.65 15.55 -11.65 16.85 -10.75 17.7 -9.85 18.6 -8.6 18.6 -7.35 18.6 -6.5 17.7 -5.6 16.8 -5.6 15.55 -5.6 14.3 -6.5 13.45 -7.35 12.55 -8.6 12.55 M-4.25 -1.65 L-4.25 2.05 4.05 2.05 4.05 -1.65 -4.25 -1.65 M-14.3 -34.45 L-6.25 -34.45 Q-7.6 -36.8 -10.25 -36.8 -12.95 -36.8 -14.3 -34.45 M-14.9 -32.45 L-14.95 -32.15 Q-14.95 -30.2 -13.55 -28.8 -12.2 -27.45 -10.25 -27.45 -8.35 -27.45 -6.95 -28.8 -5.6 -30.2 -5.6 -32.15 L-5.65 -32.45 -8.2 -32.45 -8.15 -32.15 Q-8.15 -31.4 -8.7 -30.85 -9.25 -30.35 -10.0 -30.35 -10.75 -30.35 -11.25 -30.85 -11.8 -31.4 -11.8 -32.15 L-11.8 -32.45 -14.9 -32.45 M5.7 -34.45 L13.75 -34.45 Q12.4 -36.8 9.75 -36.8 7.05 -36.8 5.7 -34.45 M-2.95 -34.45 L2.4 -34.45 Q3.05 -36.5 4.75 -37.95 -5.35 -38.7 -16.95 -43.4 L-18.9 -43.4 -18.9 -34.45 -17.6 -34.45 Q-16.85 -36.8 -14.85 -38.3 -12.8 -39.8 -10.25 -39.8 -7.75 -39.8 -5.7 -38.3 -3.7 -36.8 -2.95 -34.45 M5.1 -32.45 L5.05 -32.15 Q5.05 -30.2 6.45 -28.8 7.8 -27.45 9.75 -27.45 11.65 -27.45 13.05 -28.8 14.4 -30.2 14.4 -32.15 L14.35 -32.45 11.8 -32.45 11.85 -32.15 Q11.85 -31.4 11.3 -30.85 10.75 -30.35 10.0 -30.35 9.25 -30.35 8.75 -30.85 8.2 -31.4 8.2 -32.15 L8.2 -32.45 5.1 -32.45 M19.1 -5.4 L19.1 -32.45 17.4 -32.45 17.4 -32.15 Q17.4 -28.95 15.15 -26.7 12.9 -24.45 9.75 -24.45 6.55 -24.45 4.3 -26.7 2.05 -28.95 2.05 -32.15 L2.1 -32.45 -2.6 -32.45 -2.6 -32.15 Q-2.6 -28.95 -4.85 -26.7 -7.1 -24.45 -10.25 -24.45 -13.45 -24.45 -15.7 -26.7 -17.95 -28.95 -17.95 -32.15 L-17.9 -32.45 -18.9 -32.45 -18.9 -5.4 19.1 -5.4 M17.05 -34.45 L19.1 -34.45 19.1 -40.25 Q16.7 -39.05 14.05 -38.45 16.2 -37.0 17.05 -34.45 M-22.6 -47.1 Q-8.55 -54.6 8.5 -51.6 17.05 -50.1 22.8 -47.1 L22.8 -33.85 22.9 -33.45 22.8 -33.05 22.8 -1.65 7.05 -1.65 7.05 2.05 21.6 2.05 35.45 52.5 -35.45 52.5 -21.05 2.05 -20.9 2.05 -13.75 47.4 -11.7 47.1 -18.75 2.05 -7.3 2.05 -7.3 -1.65 -22.6 -1.65 -22.6 -47.1" fill="#000000" fill-rule="evenodd" stroke="none"/>
    <path d="M-5.6 15.55 Q-5.6 16.8 -6.5 17.7 -7.35 18.6 -8.6 18.6 -9.85 18.6 -10.75 17.7 -11.65 16.85 -11.65 15.55 -11.65 14.3 -10.75 13.45 -9.85 12.55 -8.6 12.55 -7.35 12.55 -6.5 13.45 -5.6 14.3 -5.6 15.55" fill="#ffffff" fill-rule="evenodd" stroke="none"/>
    <path d="M-4.9 27.1 Q-4.9 28.15 -5.6 28.9 -6.35 29.6 -7.35 29.6 -8.4 29.6 -9.1 28.9 -9.85 28.15 -9.85 27.1 -9.85 26.1 -9.1 25.35 -8.4 24.65 -7.35 24.65 -6.35 24.65 -5.6 25.35 -4.9 26.1 -4.9 27.1" fill="#ffffff" fill-rule="evenodd" stroke="none"/>
    <path d="M-5.6 35.95 Q-4.7 35.95 -4.05 36.6 -3.4 37.25 -3.4 38.15 -3.4 39.05 -4.05 39.7 -4.7 40.3 -5.6 40.3 -6.5 40.3 -7.1 39.7 -7.75 39.05 -7.75 38.15 -7.75 37.25 -7.1 36.6 -6.5 35.95 -5.6 35.95" fill="#ffffff" fill-rule="evenodd" stroke="none"/>
    <path d="M-21.05 0.85 L-19.0 0.55 -11.7 47.1 -13.75 47.4 -21.05 0.85" fill="#ffffff" fill-rule="evenodd" stroke="none"/>
    <path d="M-11.15 -16.6 L-10.4 -16.05 -8.1 -14.75 Q-4.2 -12.8 -0.25 -12.8 5.1 -12.8 9.95 -16.65 L11.05 -16.95 Q11.7 -16.9 12.05 -16.4 12.45 -15.9 12.4 -15.3 12.35 -14.65 11.85 -14.3 6.2 -9.8 -0.2 -9.8 L-0.25 -9.8 Q-4.9 -9.85 -9.4 -12.05 L-13.05 -14.3 Q-13.55 -14.7 -13.6 -15.3 L-13.25 -16.4 -12.25 -16.95 -11.15 -16.6" fill="#000000" fill-rule="evenodd" stroke="none"/>
  </g>
</svg>
