<?xml version="1.0" encoding="UTF-8" standalone="no"?>
<svg xmlns:xlink="http://www.w3.org/1999/xlink" height="100.4px" width="110.0px" xmlns="http://www.w3.org/2000/svg">
  <g transform="matrix(1.0, 0.0, 0.0, 1.0, 55.0, 50.2)">
    <path d="M-19.6 -15.45 Q-19.6 -9.1 -17.9 -3.3 -16.3 2.2 -13.35 6.45 -10.45 10.65 -6.75 12.9 -3.05 15.15 1.0 15.15 5.05 15.15 8.75 12.9 12.4 10.65 15.3 6.45 18.25 2.25 19.85 -3.3 21.55 -9.1 21.55 -15.45 21.55 -20.15 20.65 -24.35 L12.6 -22.65 Q12.6 -21.65 11.95 -21.0 11.3 -20.35 10.3 -20.35 8.9 -20.35 8.2 -21.7 L1.05 -20.2 -16.7 -31.0 Q-19.6 -23.85 -19.6 -15.45 M-11.3 -39.9 L-13.35 -37.35 -15.45 -33.75 1.6 -23.35 19.95 -27.3 Q18.3 -33.05 15.3 -37.35 L14.05 -39.05 Q9.75 -36.55 3.3 -36.1 -4.4 -35.6 -11.3 -39.9 M-18.05 -37.65 L-16.75 -39.75 Q-13.4 -44.6 -8.9 -47.35 -4.2 -50.2 1.0 -50.2 6.2 -50.2 10.9 -47.35 15.35 -44.6 18.7 -39.75 L20.85 -36.25 Q36.1 -27.8 45.45 -9.35 55.0 9.6 55.0 32.55 55.0 41.6 53.4 50.2 L-53.45 50.2 Q-55.0 41.45 -55.0 32.55 -55.0 8.45 -44.6 -10.95 -34.4 -30.0 -18.05 -37.65" fill="#000000" fill-rule="evenodd" stroke="none"/>
    <path d="M1.6 -23.35 L-15.45 -33.75 -13.35 -37.35 -11.3 -39.9 Q-4.4 -35.6 3.3 -36.1 9.75 -36.55 14.05 -39.05 L15.3 -37.35 Q18.3 -33.05 19.95 -27.3 L1.6 -23.35" fill="#ffffff" fill-rule="evenodd" stroke="none"/>
    <path d="M6.45 11.2 Q7.3 10.7 6.75 9.8 L6.15 9.35 5.4 9.5 Q3.55 10.7 1.35 10.7 -0.3 10.7 -1.9 10.1 L-3.2 9.5 -3.95 9.4 -4.6 9.85 -4.7 10.6 -4.25 11.2 -2.6 11.95 Q-0.6 12.7 1.35 12.7 4.15 12.7 6.45 11.2 M2.0 -6.3 L1.55 -6.35 Q-2.9 -6.35 -7.1 -2.15 L-7.4 -1.45 -7.1 -0.75 Q-6.8 -0.45 -6.35 -0.45 -5.95 -0.45 -5.65 -0.75 -2.1 -4.3 1.55 -4.3 L1.9 -4.3 Q4.3 -4.15 6.5 -2.65 L8.3 -1.05 Q8.6 -0.7 9.05 -0.7 L9.7 -0.9 Q10.05 -1.2 10.05 -1.7 L9.85 -2.35 7.65 -4.3 Q4.9 -6.2 2.0 -6.3 M-10.8 -5.05 Q-10.05 -4.3 -9.0 -4.3 -7.95 -4.3 -7.25 -5.05 -4.4 -7.9 1.4 -7.95 7.65 -7.9 10.95 -4.4 11.7 -3.55 12.8 -3.55 13.7 -3.55 14.5 -4.2 15.25 -4.9 15.3 -5.95 15.35 -7.0 14.65 -7.75 12.6 -10.05 9.6 -11.4 5.95 -13.0 1.4 -12.95 -6.55 -12.95 -10.8 -8.6 -11.5 -7.85 -11.5 -6.8 -11.5 -5.75 -10.8 -5.05 M-17.9 -3.3 Q-19.6 -9.1 -19.6 -15.45 -19.6 -23.85 -16.7 -31.0 L1.05 -20.2 8.2 -21.7 Q8.9 -20.35 10.3 -20.35 11.3 -20.35 11.95 -21.0 12.6 -21.65 12.6 -22.65 L20.65 -24.35 Q21.55 -20.15 21.55 -15.45 21.55 -9.1 19.85 -3.3 18.25 2.25 15.3 6.45 12.4 10.65 8.75 12.9 5.05 15.15 1.0 15.15 -3.05 15.15 -6.75 12.9 -10.45 10.65 -13.35 6.45 -16.3 2.2 -17.9 -3.3 M-8.4 -24.95 Q-9.35 -24.95 -10.0 -24.25 -10.7 -23.6 -10.7 -22.65 -10.7 -21.7 -10.0 -21.0 -9.35 -20.35 -8.4 -20.35 -7.45 -20.35 -6.8 -21.0 -6.1 -21.7 -6.1 -22.65 -6.1 -23.6 -6.8 -24.25 -7.45 -24.95 -8.4 -24.95" fill="#ffffff" fill-rule="evenodd" stroke="none"/>
    <path d="M1.9 -4.3 L1.55 -4.3 Q-2.1 -4.3 -5.65 -0.75 -5.95 -0.45 -6.35 -0.45 -6.8 -0.45 -7.1 -0.75 L-7.4 -1.45 -7.1 -2.15 Q-2.9 -6.35 1.55 -6.35 L2.0 -6.3 Q4.9 -6.2 7.65 -4.3 L9.85 -2.35 10.05 -1.7 Q10.05 -1.2 9.7 -0.9 L9.05 -0.7 Q8.6 -0.7 8.3 -1.05 L6.5 -2.65 Q4.3 -4.15 1.9 -4.3" fill="#000000" fill-rule="evenodd" stroke="none"/>
    <path d="M-10.8 -8.6 Q-6.55 -12.95 1.4 -12.95 5.95 -13.0 9.6 -11.4 12.6 -10.05 14.65 -7.75 15.35 -7.0 15.3 -5.95 15.25 -4.9 14.5 -4.2 13.7 -3.55 12.8 -3.55 11.7 -3.55 10.95 -4.4 7.65 -7.9 1.4 -7.95 -4.4 -7.9 -7.25 -5.05 -7.95 -4.3 -9.0 -4.3 -10.05 -4.3 -10.8 -5.05 -11.5 -5.75 -11.5 -6.8 -11.5 -7.85 -10.8 -8.6" fill="#000000" fill-rule="evenodd" stroke="none"/>
    <path d="M-8.4 -20.35 Q-9.35 -20.35 -10.0 -21.0 -10.7 -21.7 -10.7 -22.65 -10.7 -23.6 -10.0 -24.25 -9.35 -24.95 -8.4 -24.95 -7.45 -24.95 -6.8 -24.25 -6.1 -23.6 -6.1 -22.65 -6.1 -21.7 -6.8 -21.0 -7.45 -20.35 -8.4 -20.35" fill="#000000" fill-rule="evenodd" stroke="none"/>
    <path d="M5.4 9.5 L6.15 9.35 6.75 9.8 Q7.3 10.7 6.45 11.2 4.15 12.7 1.35 12.7 -0.6 12.7 -2.6 11.95 L-4.25 11.2 -4.7 10.6 -4.6 9.85 -3.95 9.4 -3.2 9.5 -1.9 10.1 Q-0.3 10.7 1.35 10.7 3.55 10.7 5.4 9.5" fill="#000000" fill-rule="evenodd" stroke="none"/>
  </g>
</svg>
