<?xml version="1.0" encoding="UTF-8"?>
<svg width="51.55px" height="117.95px" version="1.1" xmlns="http://www.w3.org/2000/svg" xmlns:cc="http://creativecommons.org/ns#" xmlns:dc="http://purl.org/dc/elements/1.1/" xmlns:rdf="http://www.w3.org/1999/02/22-rdf-syntax-ns#">
 <metadata>
  <rdf:RDF>
   <cc:Work rdf:about="">
    <dc:format>image/svg+xml</dc:format>
    <dc:type rdf:resource="http://purl.org/dc/dcmitype/StillImage"/>
    <dc:title/>
   </cc:Work>
  </rdf:RDF>
 </metadata>
 <path d="m28.724 60.779 18.039-26.227 1.5264-14.848-9.436-13.876-14.154-4.0242-11.795 3.7466-9.5748 11.656-1.2489 13.183 16.791 27.753z" fill="#fff"/>
 <g transform="translate(25.75 58.95)" fill-rule="evenodd">
  <path d="m-5.85-20.7q-0.35-0.95-1.1-1.7-1.4-1.4-3.45-1.4-1.85 0-3.2 1.25l7.75 1.85m-6.2 2.65q0-0.5 0.35-0.85t0.85-0.35l-4.15-1-0.2 1.25q0 2 1.4 3.45 1.4 1.4 3.4 1.4 2.05 0 3.45-1.4 1-1.05 1.3-2.45l-4.7-1.15q0.7 0.3 0.7 1.1 0 0.5-0.35 0.85t-0.85 0.35-0.85-0.35-0.35-0.85m22.9 5.9q-1.6 0.8-3.35 0.8-2.75 0-4.85-1.8-2.1-1.75-2.6-4.4l-2.1 0.4-0.9-0.2q-0.45 2.15-2.05 3.75-2.25 2.25-5.4 2.25l-0.7-0.05 5.65 8.75 0.05 0.1q0.65 1.45 2.05 2.35 1.35 0.85 2.95 0.85 2.7 0 4.35-2.15l6.9-10.65m-6.05-10.8q-1.2 0.85-1.75 2.2l7.9-1.6q-1.35-1.45-3.45-1.45-1.5 0-2.7 0.85m2.45 3.95q0.5 0.4 0.5 0.95 0 0.5-0.35 0.85t-0.85 0.35-0.85-0.35-0.35-0.85l0.15-0.6-2.75 0.55q0.35 1.7 1.65 2.8 1.35 1.15 3.1 1.15 2 0 3.4-1.4 1.45-1.45 1.45-3.45l-0.1-1-5 1m-7.65-35.85q-8.75 0-15 6.25t-6.25 15q0 5.05 2.35 9.65l2.65 0.65q2.3-3.3 6.25-3.3 3.15 0 5.4 2.25 1.85 1.85 2.15 4.4l0.85 0.2 2-0.4q0.4-2.75 2.55-4.6 2.1-1.85 4.95-1.85 2.05 0 3.8 1 1.65 0.95 2.7 2.65l4.45-0.9q2.4-4.5 2.4-9.75 0-8.75-6.25-15-6.2-6.25-15-6.25m-17.9 3.35q7.4-7.45 17.9-7.45 10 0 17.35 6.9 7.25 6.8 7.95 16.75 0.9 3.4 0.9 7.25 0 8-3.85 14-3.8 5.95-9.45 6.95l-5.2 8-0.4 0.45v57.65h-9.25l-0.1-54.5q-2.15-0.45-3.9-1.85-1.8-1.4-2.75-3.45l0.1 0.25-11-17q-2.8-3.4-4.25-7.5-1.5-4.15-1.5-8.55 0-10.45 7.45-17.9"/>
  <path d="m8.3-34.05q-0.35 0.3-0.75 0.3h-19.55q-0.45 0-0.75-0.3l-0.3-0.75 0.3-0.75 0.75-0.3h19.55l0.75 0.3 0.3 0.75-0.3 0.75"/>
  <path d="m-11-39.35q-0.45 0-0.75-0.3l-0.3-0.75 0.3-0.75 0.75-0.3h19.55l0.75 0.3 0.3 0.75-0.3 0.75q-0.3 0.3-0.75 0.3h-19.55"/>
  <path d="m-4.15-8.75v-0.15l0.25-0.7 0.7-0.35 0.75 0.2q0.4 0.3 0.45 0.75 0.15 1.1 1.4 1.55l1.35 0.25q0.55 0.05 0.85 0.45l0.2 0.65-0.1 0.5q-0.35 0.6-1 0.6l-0.2-0.05h-1.55l-0.8 0.3-0.35 0.35-0.15 0.65-0.35 0.15-0.6-0.1-0.25-0.75-0.05-0.1 0.2-0.65 0.8-0.65-1-1.25-0.55-1.65"/>
 </g>
</svg>
