<?xml version="1.0" encoding="UTF-8" standalone="no"?>
<svg xmlns:xlink="http://www.w3.org/1999/xlink" height="112.8px" width="59.25px" xmlns="http://www.w3.org/2000/svg">
  <g transform="matrix(1.0, 0.0, 0.0, 1.0, 29.6, 56.4)">
    <path d="M21.2 52.45 L7.85 12.95 -14.95 12.95 -17.65 52.45 21.2 52.45 M8.0 8.65 L14.5 -0.2 7.45 -11.55 Q2.6 -5.35 -3.85 -5.35 -9.75 -5.35 -14.45 -10.7 L-21.35 0.55 -14.75 8.65 8.0 8.65 M10.15 -33.3 L10.0 -36.35 -17.65 -36.35 -17.8 -33.3 Q-17.8 -23.5 -13.65 -16.4 -9.5 -9.25 -3.85 -9.25 1.85 -9.25 6.0 -16.4 10.15 -23.5 10.15 -33.3 M8.85 -51.95 Q14.1 -47.55 14.75 -41.1 L29.65 18.75 13.95 18.75 26.7 56.4 -21.85 56.4 -19.3 18.75 -29.6 18.75 -21.95 -39.95 -21.5 -43.15 -21.4 -44.05 -21.25 -44.05 Q-19.6 -49.45 -14.75 -52.9 -9.8 -56.4 -3.55 -56.4 3.6 -56.4 8.85 -51.95" fill="#000000" fill-rule="evenodd" stroke="none"/>
    <path d="M7.85 12.95 L21.2 52.45 -17.65 52.45 -14.95 12.95 7.85 12.95" fill="#ffffff" fill-rule="evenodd" stroke="none"/>
    <path d="M7.45 -11.55 L14.5 -0.2 8.0 8.65 -14.75 8.65 -21.35 0.55 -14.45 -10.7 Q-9.75 -5.35 -3.85 -5.35 2.6 -5.35 7.45 -11.55" fill="#ffffff" fill-rule="evenodd" stroke="none"/>
  </g>
</svg>
