<?xml version="1.0" encoding="UTF-8"?>
<svg width="53.7px" height="121.05px" version="1.1" xmlns="http://www.w3.org/2000/svg" xmlns:cc="http://creativecommons.org/ns#" xmlns:dc="http://purl.org/dc/elements/1.1/" xmlns:rdf="http://www.w3.org/1999/02/22-rdf-syntax-ns#">
 <metadata>
  <rdf:RDF>
   <cc:Work rdf:about="">
    <dc:format>image/svg+xml</dc:format>
    <dc:type rdf:resource="http://purl.org/dc/dcmitype/StillImage"/>
    <dc:title/>
   </cc:Work>
  </rdf:RDF>
 </metadata>
 <path d="m14.384 56.965 25.207-0.14241 11.678-15.665-0.71206-24.21-44.005-0.28482-3.1331 13.956 3.1331 13.244z" fill="#fff"/>
 <g transform="translate(26.85 60.5)" fill-rule="evenodd">
  <path d="m11.65-5.55 5.7-7.7q-8.7 2.85-18.95 2.05-7.15-0.55-14.05-2.7l6.05 8.35h8.85l-0.9-2.65h5.85l-0.9 2.65h8.35m-28.75-35.85h-3.1v21.3l1.7 2.3q6.05 2.45 13.95 3.5 14.15 1.8 24.95-3.15l1.85-2.45 0.05-21.45-22.15 3.9-17.25-3.95m-7.6-2.25q0-0.85 0.55-1.5l1.3-0.75 19.5-7.4 3.95-7.2 3.95 6.95 21.35 7.85h-0.4q1.35 0.6 1.35 2.05l-0.1 24.6q0 0.75-0.45 1.25l-11.65 15.9q-0.75 0.9-1.85 0.9h-11.95l4.75 61.55h-32.45v-72.2h7.2l-4.6-6.35q-0.45-0.6-0.45-1.35v-24.3"/>
  <path d="m-16.95-29.85q-0.75-0.15-1.15-0.75-0.4-0.65-0.25-1.4l0.8-1.15 1.35-0.25 16.7 3.5 17.6-6 1.4 0.1q0.7 0.35 0.9 1.05 0.25 0.7-0.05 1.4-0.35 0.65-1.05 0.9l-18.1 6.15-0.95 0.05-17.2-3.6"/>
  <path d="m-10-27.8q1.15 0 1.9 0.8 0.8 0.8 0.8 1.9 0 1.15-0.8 1.9-0.75 0.8-1.9 0.8-1.1 0-1.9-0.8-0.8-0.75-0.8-1.9 0-1.1 0.8-1.9t1.9-0.8"/>
  <path d="m11.9-27.8q1.15 0 1.9 0.8 0.8 0.8 0.8 1.9 0 1.15-0.8 1.9-0.75 0.8-1.9 0.8-1.1 0-1.85-0.8-0.8-0.8-0.8-1.9t0.8-1.9q0.75-0.8 1.85-0.8"/>
 </g>
</svg>
