<?xml version="1.0" encoding="UTF-8" standalone="no"?>
<svg xmlns:xlink="http://www.w3.org/1999/xlink" height="147.35px" width="76.3px" xmlns="http://www.w3.org/2000/svg">
  <g transform="matrix(1.0, 0.0, 0.0, 1.0, 38.15, 73.65)">
    <path d="M0.85 7.65 Q5.2 7.15 9.1 3.75 12.9 0.4 15.7 -5.25 L15.7 20.1 0.85 20.1 0.85 7.65" fill="#ffffff" fill-rule="evenodd" stroke="none"/>
    <path d="M15.15 23.9 L12.5 23.9 12.5 69.4 15.15 69.4 15.15 23.9 M9.75 23.9 L7.15 23.9 7.15 69.4 9.75 69.4 9.75 23.9 M15.7 -5.25 Q12.9 0.4 9.1 3.75 5.2 7.15 0.85 7.65 L0.85 20.1 15.7 20.1 15.7 -5.25 M38.15 -44.25 Q38.15 -36.55 33.3 -29.9 28.6 -23.4 20.45 -19.45 L20.45 73.7 -3.9 73.7 -3.9 7.3 Q-10.1 5.65 -14.8 -1.75 -19.5 -9.1 -21.55 -20.0 -29.2 -24.05 -33.6 -30.35 -38.15 -36.85 -38.15 -44.25 -38.15 -56.45 -26.95 -65.05 -15.8 -73.65 0.0 -73.65 15.8 -73.65 27.0 -65.05 38.15 -56.45 38.15 -44.25 M17.0 -34.15 L16.7 -40.8 Q13.5 -38.45 9.15 -37.2 4.7 -35.85 -0.25 -35.85 -5.45 -35.85 -10.1 -37.3 -14.6 -38.75 -17.75 -41.25 -18.1 -37.95 -18.1 -34.15 -18.1 -19.05 -12.9 -8.0 -7.7 3.0 -0.55 3.0 6.6 3.0 11.8 -8.0 17.0 -19.05 17.0 -34.15" fill="#000000" fill-rule="evenodd" stroke="none"/>
  </g>
</svg>
