<?xml version="1.0" encoding="UTF-8" standalone="no"?>
<svg xmlns:xlink="http://www.w3.org/1999/xlink" height="119.0px" width="96.8px" xmlns="http://www.w3.org/2000/svg">
  <g transform="matrix(1.0, 0.0, 0.0, 1.0, 48.4, 59.5)">
    <path d="M5.4 -17.95 Q10.55 -19.55 13.9 -23.7 L26.65 55.1 5.4 55.1 5.4 -17.95" fill="#ffffff" fill-rule="evenodd" stroke="none"/>
    <path d="M1.65 -55.1 L2.1 -55.05 Q6.2 -54.7 9.7 -52.7 15.9 -49.15 18.2 -41.7 L42.75 55.1 28.55 55.1 15.45 -25.95 Q17.85 -30.1 17.85 -34.85 17.85 -42.0 12.85 -47.15 7.85 -52.25 0.7 -52.45 L0.7 -55.1 1.65 -55.1" fill="#ffffff" fill-rule="evenodd" stroke="none"/>
    <path d="M-12.05 -22.2 Q-9.35 -19.55 -5.85 -18.3 L-5.85 55.1 -25.45 55.1 -12.05 -22.2" fill="#ffffff" fill-rule="evenodd" stroke="none"/>
    <path d="M-2.3 -55.1 L-1.15 -55.1 -1.15 -52.4 Q-8.0 -51.85 -12.7 -46.85 -17.4 -41.75 -17.4 -34.85 -17.4 -28.8 -13.65 -24.0 L-27.35 55.1 -42.75 55.1 -18.25 -41.65 Q-15.35 -49.75 -9.35 -53.15 -5.9 -55.1 -2.3 -55.1" fill="#ffffff" fill-rule="evenodd" stroke="none"/>
    <path d="M1.8 -56.2 L2.0 -57.25 3.8 -57.05 Q3.75 -56.05 3.0 -55.55 2.6 -55.25 2.0 -55.1 L1.8 -56.2" fill="#ffffff" fill-rule="evenodd" stroke="none"/>
    <path d="M13.9 -23.7 Q10.55 -19.55 5.4 -17.95 L5.4 55.1 26.65 55.1 13.9 -23.7 M-5.85 -18.3 Q-9.35 -19.55 -12.05 -22.2 L-25.45 55.1 -5.85 55.1 -5.85 -18.3 M0.25 -21.6 Q3.45 -21.6 6.3 -23.1 9.05 -24.55 10.9 -27.05 6.0 -24.7 0.8 -24.7 -5.05 -24.7 -10.75 -27.5 -8.95 -24.8 -6.1 -23.2 -3.15 -21.6 0.25 -21.6 M-9.1 -44.2 Q-13.0 -40.3 -13.0 -34.85 -13.0 -32.8 -12.25 -30.45 L-12.3 -30.45 -9.4 -28.9 Q-4.4 -26.55 0.8 -26.55 7.25 -26.55 13.1 -30.45 L12.7 -30.45 Q13.45 -32.55 13.45 -34.85 13.45 -40.3 9.6 -44.2 5.75 -48.05 0.25 -48.05 -5.25 -48.05 -9.1 -44.2 M-1.15 -55.1 L-2.3 -55.1 Q-5.9 -55.1 -9.35 -53.15 -15.35 -49.75 -18.25 -41.65 L-42.75 55.1 -27.35 55.1 -13.65 -24.0 Q-17.4 -28.8 -17.4 -34.85 -17.4 -41.75 -12.7 -46.85 -8.0 -51.85 -1.15 -52.4 L-1.15 -55.1 M1.65 -55.1 L0.7 -55.1 0.7 -52.45 Q7.85 -52.25 12.85 -47.15 17.85 -42.0 17.85 -34.85 17.85 -30.1 15.45 -25.95 L28.55 55.1 42.75 55.1 18.2 -41.7 Q15.9 -49.15 9.7 -52.7 6.2 -54.7 2.1 -55.05 L1.65 -55.1 M3.35 -58.7 L2.85 -59.1 2.1 -58.0 1.8 -56.2 2.0 -55.1 Q2.6 -55.25 3.0 -55.55 3.75 -56.05 3.8 -57.05 L3.85 -57.15 Q3.85 -58.05 3.35 -58.7 M-22.45 -42.95 L-22.4 -43.05 Q-19.0 -52.8 -11.5 -57.0 -7.05 -59.5 -2.3 -59.5 L1.65 -59.5 4.25 -59.2 Q7.3 -58.7 10.15 -57.4 14.1 -55.6 17.05 -52.45 20.75 -48.55 22.45 -42.95 L22.45 -42.9 48.4 59.5 -48.4 59.5 -22.45 -42.95" fill="#000000" fill-rule="evenodd" stroke="none"/>
    <path d="M6.15 -39.65 Q5.4 -38.9 5.4 -37.8 5.4 -36.7 6.15 -35.95 6.95 -35.15 8.05 -35.15 9.15 -35.15 9.9 -35.95 10.7 -36.7 10.7 -37.8 10.7 -38.9 9.9 -39.65 9.15 -40.45 8.05 -40.45 6.95 -40.45 6.15 -39.65 M-13.0 -34.85 Q-13.0 -40.3 -9.1 -44.2 -5.25 -48.05 0.25 -48.05 5.75 -48.05 9.6 -44.2 13.45 -40.3 13.45 -34.85 13.45 -32.55 12.7 -30.45 L13.1 -30.45 Q7.25 -26.55 0.8 -26.55 -4.4 -26.55 -9.4 -28.9 L-12.3 -30.45 -12.25 -30.45 Q-13.0 -32.8 -13.0 -34.85 M-9.75 -39.65 Q-10.5 -38.9 -10.5 -37.8 -10.5 -36.7 -9.75 -35.95 -8.95 -35.15 -7.85 -35.15 -6.75 -35.15 -6.0 -35.95 -5.2 -36.7 -5.2 -37.8 -5.2 -38.9 -6.0 -39.65 -6.75 -40.45 -7.85 -40.45 -8.95 -40.45 -9.75 -39.65" fill="#ffffff" fill-rule="evenodd" stroke="none"/>
    <path d="M0.25 -21.6 Q-3.15 -21.6 -6.1 -23.2 -8.95 -24.8 -10.75 -27.5 -5.05 -24.7 0.8 -24.7 6.0 -24.7 10.9 -27.05 9.05 -24.55 6.3 -23.1 3.45 -21.6 0.25 -21.6" fill="#ffffff" fill-rule="evenodd" stroke="none"/>
    <path d="M-7.85 -35.15 Q-8.95 -35.15 -9.75 -35.95 -10.5 -36.7 -10.5 -37.8 -10.5 -38.9 -9.75 -39.65 -8.95 -40.45 -7.85 -40.45 -6.75 -40.45 -6.0 -39.65 -5.2 -38.9 -5.2 -37.8 -5.2 -36.7 -6.0 -35.95 -6.75 -35.15 -7.85 -35.15" fill="#000000" fill-rule="evenodd" stroke="none"/>
    <path d="M8.05 -35.15 Q6.95 -35.15 6.15 -35.95 5.4 -36.7 5.4 -37.8 5.4 -38.9 6.15 -39.65 6.95 -40.45 8.05 -40.45 9.15 -40.45 9.9 -39.65 10.7 -38.9 10.7 -37.8 10.7 -36.7 9.9 -35.95 9.15 -35.15 8.05 -35.15" fill="#000000" fill-rule="evenodd" stroke="none"/>
  </g>
</svg>
