<?xml version="1.0" encoding="UTF-8"?>
<svg width="114.15px" height="120.3px" version="1.1" xmlns="http://www.w3.org/2000/svg" xmlns:cc="http://creativecommons.org/ns#" xmlns:dc="http://purl.org/dc/elements/1.1/" xmlns:rdf="http://www.w3.org/1999/02/22-rdf-syntax-ns#">
 <metadata>
  <rdf:RDF>
   <cc:Work rdf:about="">
    <dc:format>image/svg+xml</dc:format>
    <dc:type rdf:resource="http://purl.org/dc/dcmitype/StillImage"/>
    <dc:title/>
   </cc:Work>
  </rdf:RDF>
 </metadata>
 <path d="m21.371 117.89 71.755 0.56612 19.673-69.774-7.501-20.805-22.928-6.7934-9.1994-17.125-27.881-0.42459-9.4825 8.9164-1.4153 8.3502-19.531 3.5382-13.728 19.39 8.2087 33.259z" fill="#fff"/>
 <g transform="translate(57.05 60.15)">
  <path d="m-32.05 55.65h3.45l-9.55-34.45-2.2 3.65 8.3 30.8m60.65 0h3.5l8.3-30.1-2.2-3.55-9.6 33.65m-21.6-35.9v-0.15q0-1.85-1.7-2.95-0.75 1-1.15 2.15l-0.05 0.35q0 0.5 0.6 1.25l1 0.65 0.8 0.05q0.5-0.25 0.5-1.35m-5.6-0.6q0-0.65 0.25-1.3l1.1-2.15-1-0.15-4.25-0.1q1.1 1.45 1.1 3.2l-0.05 0.8v-0.1l-0.05 0.3 0.05-0.2q-0.05 1.8-1.35 2.95-0.7 0.6-1.65 0.8 2.4 0.9 5.05 0.9l4.15-0.6q-1.1-0.4-1.9-1.2-1.45-1.45-1.45-3.15m6.4-4.05-0.15 0.05q2.05 1.8 2.05 4.45l-0.05 0.3-0.2 1.25q1.75-1.2 3.15-2.85-0.8-1.45-2.15-2.35-1.4-0.9-2.65-0.85m-19.35-0.65q2.2-1.6 5.55-0.9 3-1.3 8-0.65l2.75 0.6q1.35-0.95 2.85-1.05 1.85-0.1 3.65 0.9t3.1 2.75q3.25-4.85 4.15-10.8-5.05 3.75-11.1 3.75h-13.85q-6 0-10.9-3.6 1 6.05 4.25 10.75 0.55-1.05 1.55-1.75m2.2 5.9-0.35-1.8 0.05-0.7 0.6-1.7-0.9 0.45q-0.9 0.6-1.35 1.9l1.95 1.85m2.35-2.15v0.35q0 0.75 0.4 1.4 0.35 0.6 0.8 0.65l1.25-0.2 0.4-0.65 0.05-0.4v-0.25l0.05-0.55q0-1.55-1.65-2.15-1.15 0.75-1.3 1.8m27.6-27.6v-2.55h-40.2v2.55q0 5.45 3.85 9.3t9.3 3.85h13.85q5.45 0 9.3-3.85 3.9-3.85 3.9-9.3m0.7-22.15q0-1.6-1.05-3.55l-13.15 4.75q0.4 2.55 2.4 4.25t4.65 1.7q2.95 0 5.05-2.1t2.1-5.05m26.15 3.25q-5.7-7.2-17.5-8.55-1.4 12.45 0.15 25.25 2.6 22.4 13.6 34.7l7.9-26.6q0.8-3.5 0.8-8.1 0-10.35-4.95-16.7m-53.8-2.05-13.1-4.75q-1.05 1.8-1.05 3.55 0 2.95 2.1 5.05t5.05 2.1q2.6 0 4.6-1.7t2.4-4.25m7.7-24.55h-2.6v13.95h-6.4v-13.9q-5.05 0.5-8.5 4.25-3.45 3.8-3.45 8.9v2.5l18.45 7q0.7 0.25 0.95 0.9 0.3 0.65 0.05 1.3-0.25 0.7-0.9 0.95l-1.3 0.05-0.65-0.25q-0.8 3.6-3.65 5.95-2.95 2.4-6.7 2.4-3.4 0-6.25-2.05v7.2h40.2v-7.35q-2.95 2.2-6.45 2.2-3.8 0-6.7-2.4-2.9-2.35-3.7-6l-0.15 0.1-1.35-0.05q-0.65-0.3-0.9-0.95-0.2-0.65 0.05-1.3 0.3-0.65 0.95-0.9l18.25-6.9v-2.4q0-5.35-3.75-9.2t-9.1-3.95v13.9h-6.4v-13.95m-52.45 23.75q8.25-10.4 26.2-10.65 0.1-7.6 5.45-13 5.4-5.35 13-5.35h13.85q7.6 0 13 5.35 5.4 5.4 5.45 13 17.3 0.55 25.25 10.65 5.7 7.3 6 18.5 0.15 5.65-1 10.35l-18.5 62.45h-75.15l-18.55-62.55q-1.1-4.65-0.95-10.3 0.25-11.15 5.95-18.45m20.95-5.65q-11.7 1.45-17.25 8.5-5 6.35-5 16.7 0 4.6 0.8 8l7.85 26.5q10.9-12.3 13.5-34.55 1.45-12.8 0.1-25.15" fill-rule="evenodd"/>
 </g>
 <g>
  <ellipse cx="42.671" cy="31.066" rx="1.6276" ry="1.4861"/>
  <circle cx="72.18" cy="30.995" r="1.4153"/>
  <rect x="43.733" y="52.083" width="26.041" height="6.2273" ry="2.5882" stroke-width="1.5635"/>
 </g>
</svg>
