<?xml version="1.0" encoding="UTF-8" standalone="no"?>
<svg xmlns:xlink="http://www.w3.org/1999/xlink" height="113.7px" width="62.9px" xmlns="http://www.w3.org/2000/svg">
  <g transform="matrix(1.0, 0.0, 0.0, 1.0, 31.45, 56.85)">
    <path d="M-3.35 -8.2 Q4.8 -8.8 12.15 -5.45 6.55 -1.65 -0.4 -1.65 -7.55 -1.65 -13.55 -5.85 -8.65 -7.8 -3.35 -8.2" fill="#ffffff" fill-rule="evenodd" stroke="none"/>
    <path d="M-14.5 -31.0 Q-9.4 -35.0 -7.4 -40.2 -4.15 -32.95 0.5 -27.15 L-16.65 -27.15 -17.7 -26.7 Q-18.15 -26.3 -18.15 -25.65 -18.15 -25.05 -17.7 -24.6 -17.3 -24.15 -16.65 -24.15 L-13.9 -24.15 -14.1 -22.9 Q-14.1 -21.4 -13.25 -20.3 -12.4 -19.25 -11.15 -19.25 -9.95 -19.25 -9.1 -20.3 -8.25 -21.4 -8.25 -22.9 L-8.45 -24.15 3.1 -24.15 Q10.25 -16.5 19.25 -13.0 17.7 -10.35 15.65 -8.3 L15.45 -8.15 14.95 -8.55 Q5.15 -13.45 -5.7 -12.0 -11.95 -11.2 -16.9 -8.75 -23.15 -15.3 -23.15 -24.4 L-23.1 -26.15 Q-18.2 -28.1 -14.5 -31.0" fill="#ffffff" fill-rule="evenodd" stroke="none"/>
    <path d="M-0.4 -1.65 Q6.55 -1.65 12.15 -5.45 4.8 -8.8 -3.35 -8.2 -8.65 -7.8 -13.55 -5.85 -7.55 -1.65 -0.4 -1.65 M23.45 -35.15 Q15.45 -52.95 -2.5 -51.95 L1.55 -50.8 Q6.45 -49.05 10.8 -46.0 24.75 -36.2 27.85 -17.15 27.45 -26.25 23.45 -35.15 M-7.4 -40.2 Q-9.4 -35.0 -14.5 -31.0 -18.2 -28.1 -23.1 -26.15 L-23.15 -24.4 Q-23.15 -15.3 -16.9 -8.75 -11.95 -11.2 -5.7 -12.0 5.15 -13.45 14.95 -8.55 L15.45 -8.15 15.65 -8.3 Q17.7 -10.35 19.25 -13.0 10.25 -16.5 3.1 -24.15 L-8.45 -24.15 -8.25 -22.9 Q-8.25 -21.4 -9.1 -20.3 -9.95 -19.25 -11.15 -19.25 -12.4 -19.25 -13.25 -20.3 -14.1 -21.4 -14.1 -22.9 L-13.9 -24.15 -16.65 -24.15 Q-17.3 -24.15 -17.7 -24.6 -18.15 -25.05 -18.15 -25.65 -18.15 -26.3 -17.7 -26.7 L-16.65 -27.15 0.5 -27.15 Q-4.15 -32.95 -7.4 -40.2 M-23.75 -48.8 Q-20.9 -51.65 -17.0 -53.7 L-13.65 -55.15 Q19.15 -62.65 28.3 -37.15 32.85 -24.4 30.85 -10.15 L24.1 -11.4 Q22.15 -7.7 19.2 -4.8 12.9 1.6 3.9 3.0 2.3 23.35 9.65 42.15 13.35 51.55 17.35 56.85 L-25.35 56.85 Q-32.35 36.15 -31.3 14.25 -30.6 -0.8 -26.3 -14.45 -28.15 -19.1 -28.15 -24.4 L-28.1 -25.95 Q-32.9 -39.7 -23.75 -48.8" fill="#000000" fill-rule="evenodd" stroke="none"/>
    <path d="M10.8 -46.0 Q6.45 -49.05 1.55 -50.8 L-2.5 -51.95 Q15.45 -52.95 23.45 -35.15 27.45 -26.25 27.85 -17.15 24.75 -36.2 10.8 -46.0" fill="#ffffff" fill-rule="evenodd" stroke="none"/>
  </g>
</svg>
