<?xml version="1.0" encoding="UTF-8" standalone="no"?>
<svg xmlns:xlink="http://www.w3.org/1999/xlink" height="152.05px" width="121.5px" xmlns="http://www.w3.org/2000/svg">
  <g transform="matrix(1.0, 0.0, 0.0, 1.0, 60.75, 76.0)">
    <path d="M3.1 31.45 Q3.1 30.95 2.75 30.6 2.4 30.25 1.9 30.25 1.4 30.25 1.1 30.6 0.75 30.95 0.75 31.45 L0.75 36.5 -5.05 36.5 Q-5.45 36.5 -5.75 36.8 L-6.0 37.45 Q-6.0 38.4 -5.05 38.4 L0.75 38.4 0.75 43.25 -3.15 43.25 Q-3.5 43.25 -3.8 43.5 L-4.05 44.15 -3.8 44.75 -3.15 45.0 0.75 45.0 0.75 52.4 Q0.75 52.9 1.1 53.25 1.4 53.6 1.9 53.6 2.4 53.6 2.75 53.25 L3.1 52.4 3.1 45.0 7.0 45.0 Q7.85 45.0 7.85 44.15 7.85 43.25 7.0 43.25 L3.1 43.25 3.1 38.4 8.9 38.4 Q9.85 38.4 9.85 37.45 L9.6 36.8 Q9.3 36.5 8.9 36.5 L3.1 36.5 3.1 31.45 M0.6 -62.5 Q0.6 -64.05 1.0 -65.35 L-1.2 -65.35 -1.25 -65.2 Q-2.0 -63.6 -2.0 -61.75 L-1.75 -59.35 0.3 -59.5 0.95 -59.45 Q0.6 -61.0 0.6 -62.5 M-25.0 -40.15 L-25.9 -36.75 -27.95 -2.05 Q-17.7 1.3 -8.9 8.35 -2.85 13.25 1.75 19.15 L3.55 19.15 Q8.1 13.3 14.05 8.55 22.65 1.6 32.65 -1.8 L29.55 -36.65 29.55 -36.8 29.5 -36.9 29.45 -37.35 29.05 -39.25 Q28.2 -42.4 26.0 -45.25 23.95 -47.85 20.8 -49.8 19.1 -48.8 16.95 -48.75 13.5 -48.75 11.05 -51.1 L10.45 -51.8 Q9.6 -49.75 6.8 -48.45 3.95 -47.1 0.3 -47.1 -3.1 -47.1 -5.85 -48.25 -8.5 -49.4 -9.6 -51.25 -12.0 -48.35 -15.8 -48.3 L-18.5 -48.75 -21.45 -46.05 Q-23.75 -43.45 -25.0 -40.15 M13.4 -70.95 Q12.05 -69.55 12.1 -67.65 L12.15 -65.55 4.2 -65.4 Q3.65 -64.2 3.65 -62.5 3.65 -60.9 4.2 -59.05 L4.4 -59.0 10.4 -59.1 12.2 -58.8 12.25 -56.95 Q12.25 -55.05 13.65 -53.75 15.05 -52.35 16.9 -52.45 18.8 -52.45 20.1 -53.85 21.5 -55.2 21.4 -57.1 21.4 -59.55 19.3 -60.9 L17.0 -62.4 19.25 -63.95 Q21.35 -65.3 21.25 -67.8 21.25 -69.7 19.9 -71.0 18.5 -72.35 16.6 -72.3 14.7 -72.3 13.4 -70.95 M-10.95 -73.65 Q-8.75 -71.8 -8.15 -68.9 L3.25 -69.1 Q3.95 -69.35 4.55 -69.1 L8.65 -69.15 Q9.05 -71.4 10.25 -72.9 12.7 -75.9 16.55 -76.0 19.95 -76.05 22.4 -73.65 24.9 -71.25 24.95 -67.85 24.95 -64.85 23.1 -62.55 L22.9 -62.35 Q25.05 -59.9 25.1 -57.15 25.1 -55.35 24.4 -53.65 27.85 -51.35 30.1 -48.45 32.7 -45.1 33.9 -41.1 34.6 -38.9 34.7 -37.1 L36.3 -19.45 Q47.65 -11.0 54.1 1.55 60.75 14.55 60.75 29.3 60.75 43.95 53.9 56.15 47.55 67.45 35.6 76.05 L-35.6 76.05 Q-47.5 67.45 -53.85 56.15 -60.75 43.95 -60.75 29.3 -60.75 13.2 -52.85 -0.7 -45.15 -14.2 -31.95 -22.4 L-31.1 -37.05 -30.3 -40.75 Q-29.0 -44.95 -26.2 -48.45 -24.65 -50.4 -22.75 -51.95 -24.15 -54.1 -24.15 -56.45 -24.2 -59.4 -22.35 -61.75 L-22.1 -61.95 Q-24.3 -64.4 -24.3 -67.15 -24.35 -70.1 -22.5 -72.45 -20.05 -75.45 -16.15 -75.55 -13.2 -75.6 -10.95 -73.65 M-16.1 -71.85 Q-18.0 -71.85 -19.35 -70.5 -20.7 -69.1 -20.65 -67.2 -20.55 -64.7 -18.55 -63.4 L-16.2 -61.9 -18.5 -60.35 Q-20.5 -59.0 -20.5 -56.5 -20.4 -54.55 -19.1 -53.3 -17.8 -51.9 -15.85 -52.0 -13.95 -52.0 -12.6 -53.35 -11.3 -54.75 -11.3 -56.65 L-11.4 -58.75 -4.8 -58.85 -5.1 -61.75 Q-5.1 -63.55 -4.55 -65.3 L-9.65 -65.2 -11.45 -65.5 -11.45 -67.35 Q-11.5 -69.25 -12.85 -70.55 -14.25 -71.9 -16.1 -71.85" fill="#000000" fill-rule="evenodd" stroke="none"/>
    <path d="M-5.35 -11.85 Q-6.95 -11.85 -8.05 -10.75 -9.2 -9.6 -9.2 -8.0 -9.2 -6.4 -8.05 -5.3 -6.9 -4.15 -5.35 -4.15 -3.75 -4.15 -2.6 -5.3 -1.5 -6.4 -1.5 -8.0 -1.5 -9.6 -2.6 -10.75 -3.75 -11.85 -5.35 -11.85 M6.65 -4.15 Q8.25 -4.15 9.35 -5.3 10.5 -6.4 10.5 -8.0 10.5 -9.6 9.35 -10.75 8.25 -11.85 6.65 -11.85 5.05 -11.85 3.9 -10.75 2.8 -9.6 2.8 -8.0 2.8 -6.4 3.9 -5.3 5.05 -4.15 6.65 -4.15 M27.0 -8.35 Q27.55 -8.9 27.55 -9.7 27.55 -10.55 27.0 -11.1 11.35 -26.4 -7.15 -21.0 -12.95 -19.3 -18.35 -15.75 L-22.7 -12.4 Q-23.25 -11.85 -23.3 -11.05 -23.3 -10.25 -22.75 -9.65 -22.2 -9.1 -21.4 -9.1 -20.6 -9.05 -20.05 -9.6 -18.35 -11.2 -15.9 -12.85 -11.05 -16.05 -5.9 -17.5 10.3 -22.1 24.3 -8.35 24.85 -7.8 25.65 -7.8 26.5 -7.8 27.0 -8.35 M-25.9 -36.75 L-25.0 -40.15 Q-23.75 -43.45 -21.45 -46.05 L-18.5 -48.75 -15.8 -48.3 Q-12.0 -48.35 -9.6 -51.25 -8.5 -49.4 -5.85 -48.25 -3.1 -47.1 0.3 -47.1 3.95 -47.1 6.8 -48.45 9.6 -49.75 10.45 -51.8 L11.05 -51.1 Q13.5 -48.75 16.95 -48.75 19.1 -48.8 20.8 -49.8 23.95 -47.85 26.0 -45.25 28.2 -42.4 29.05 -39.25 L29.45 -37.35 29.5 -36.9 29.55 -36.8 29.55 -36.65 32.65 -1.8 Q22.65 1.6 14.05 8.55 8.1 13.3 3.55 19.15 L1.75 19.15 Q-2.85 13.25 -8.9 8.35 -17.7 1.3 -27.95 -2.05 L-25.9 -36.75" fill="#ffffff" fill-rule="evenodd" stroke="none"/>
    <path d="M-5.35 -11.85 Q-3.75 -11.85 -2.6 -10.75 -1.5 -9.6 -1.5 -8.0 -1.5 -6.4 -2.6 -5.3 -3.75 -4.15 -5.35 -4.15 -6.9 -4.15 -8.05 -5.3 -9.2 -6.4 -9.2 -8.0 -9.2 -9.6 -8.05 -10.75 -6.95 -11.85 -5.35 -11.85" fill="#000000" fill-rule="evenodd" stroke="none"/>
    <path d="M6.65 -11.85 Q8.25 -11.85 9.35 -10.75 10.5 -9.6 10.5 -8.0 10.5 -6.4 9.35 -5.3 8.25 -4.15 6.65 -4.15 5.05 -4.15 3.9 -5.3 2.8 -6.4 2.8 -8.0 2.8 -9.6 3.9 -10.75 5.05 -11.85 6.65 -11.85" fill="#000000" fill-rule="evenodd" stroke="none"/>
    <path d="M27.0 -11.1 Q27.55 -10.55 27.55 -9.7 27.55 -8.9 27.0 -8.35 26.5 -7.8 25.65 -7.8 24.85 -7.8 24.3 -8.35 10.3 -22.1 -5.9 -17.5 -11.05 -16.05 -15.9 -12.85 -18.35 -11.2 -20.05 -9.6 -20.6 -9.05 -21.4 -9.1 -22.2 -9.1 -22.75 -9.65 -23.3 -10.25 -23.3 -11.05 -23.25 -11.85 -22.7 -12.4 L-18.35 -15.75 Q-12.95 -19.3 -7.15 -21.0 11.35 -26.4 27.0 -11.1" fill="#000000" fill-rule="evenodd" stroke="none"/>
    <path d="M12.1 -67.65 Q12.05 -69.55 13.4 -70.95 14.7 -72.3 16.6 -72.3 18.5 -72.35 19.9 -71.0 21.25 -69.7 21.25 -67.8 21.35 -65.3 19.25 -63.95 L17.0 -62.4 19.3 -60.9 Q21.4 -59.55 21.4 -57.1 21.5 -55.2 20.1 -53.85 18.8 -52.45 16.9 -52.45 15.05 -52.35 13.65 -53.75 12.25 -55.05 12.25 -56.95 L12.2 -58.8 10.4 -59.1 4.4 -59.0 4.2 -59.05 Q3.65 -60.9 3.65 -62.5 3.65 -64.2 4.2 -65.4 L12.15 -65.55 12.1 -67.65" fill="#ffffff" fill-rule="evenodd" stroke="none"/>
    <path d="M0.95 -59.45 L0.3 -59.5 -1.75 -59.35 -2.0 -61.75 Q-2.0 -63.6 -1.25 -65.2 L-1.2 -65.35 1.0 -65.35 Q0.6 -64.05 0.6 -62.5 0.6 -61.0 0.95 -59.45" fill="#ffffff" fill-rule="evenodd" stroke="none"/>
    <path d="M-19.35 -70.5 Q-18.0 -71.85 -16.1 -71.85 -14.25 -71.9 -12.85 -70.55 -11.5 -69.25 -11.45 -67.35 L-11.45 -65.5 -9.65 -65.2 -4.55 -65.3 Q-5.1 -63.55 -5.1 -61.75 L-4.8 -58.85 -11.4 -58.75 -11.3 -56.65 Q-11.3 -54.75 -12.6 -53.35 -13.95 -52.0 -15.85 -52.0 -17.8 -51.9 -19.1 -53.3 -20.4 -54.55 -20.5 -56.5 -20.5 -59.0 -18.5 -60.35 L-16.2 -61.9 -18.55 -63.4 Q-20.55 -64.7 -20.65 -67.2 -20.7 -69.1 -19.35 -70.5" fill="#ffffff" fill-rule="evenodd" stroke="none"/>
    <path d="M0.75 31.45 Q0.75 30.95 1.1 30.6 1.4 30.25 1.9 30.25 2.4 30.25 2.75 30.6 3.1 30.95 3.1 31.45 L3.1 36.5 8.9 36.5 Q9.3 36.5 9.6 36.8 L9.85 37.45 Q9.85 38.4 8.9 38.4 L3.1 38.4 3.1 43.25 7.0 43.25 Q7.85 43.25 7.85 44.15 7.85 45.0 7.0 45.0 L3.1 45.0 3.1 52.4 2.75 53.25 Q2.4 53.6 1.9 53.6 1.4 53.6 1.1 53.25 0.75 52.9 0.75 52.4 L0.75 45.0 -3.15 45.0 -3.8 44.75 -4.05 44.15 -3.8 43.5 Q-3.5 43.25 -3.15 43.25 L0.75 43.25 0.75 38.4 -5.05 38.4 Q-6.0 38.4 -6.0 37.45 L-5.75 36.8 Q-5.45 36.5 -5.05 36.5 L0.75 36.5 0.75 31.45" fill="#ffffff" fill-rule="evenodd" stroke="none"/>
  </g>
</svg>
