<?xml version="1.0" encoding="UTF-8"?>
<svg width="82px" height="130.15px" version="1.1" xmlns="http://www.w3.org/2000/svg" xmlns:cc="http://creativecommons.org/ns#" xmlns:dc="http://purl.org/dc/elements/1.1/" xmlns:rdf="http://www.w3.org/1999/02/22-rdf-syntax-ns#">
 <metadata>
  <rdf:RDF>
   <cc:Work rdf:about="">
    <dc:format>image/svg+xml</dc:format>
    <dc:type rdf:resource="http://purl.org/dc/dcmitype/StillImage"/>
    <dc:title/>
   </cc:Work>
  </rdf:RDF>
 </metadata>
 <path d="m4.5935 52.902 9.723 3.9045 7.12 1.9905 13.474 6.1247 16.919-5.5122 5.3591-4.8998 12.556 2.8327 4.7466-3.6748 4.8998-9.7995-5.8185-2.9092-10.106-12.632-7.2731-18.91-8.1918-3.2155-12.709 3.5217-3.9811-4.0576-7.2731-3.8279-10.489 6.0481-5.3591 14.24 4.7466 14.852-0.3828 9.1105z" fill="#fff"/>
 <g transform="translate(41 65.05)" fill-rule="evenodd">
  <g>
   <path d="m2.65-11.25-0.3 0.6q-2.8 5-5.75 5.05-2.05 0.05-4.15-1.9l-1.65-2-0.1-0.25 0.1 0.05q0.8 0.2 1.5 0 0.95-0.3 2.6-1.6l0.15-0.15v-0.1h0.55l0.3-0.1 0.65-0.1-0.05 0.35q0.1 0.3 0.4 0.2l0.8-0.3 1.75 0.5 3.25-0.3-0.05 0.05"/>
   <path d="m2.7-11.95h0.2l0.4 0.35q0.2 0.45-0.2 0.9l-0.2 0.4q-2.85 5.1-6.05 5.35l-2.1-0.3q-1.65-0.65-3.2-2.25l-1.3-1.65q-0.45-0.6-0.15-1.05l0.8-0.15q0.7 0.15 1.2 0 0.85-0.3 2.4-1.5h0.2l1.05-0.45q1.5-0.3 2.75 0.4 2.15 0.65 4.2-0.05m-0.35 1.3 0.3-0.6 0.05-0.05-3.25 0.3-1.75-0.5-0.8 0.3q-0.3 0.1-0.4-0.2l0.05-0.35-0.65 0.1-0.3 0.1h-0.55v0.1l-0.15 0.15q-1.65 1.3-2.6 1.6-0.7 0.2-1.5 0l-0.1-0.05 0.1 0.25 1.65 2q2.1 1.95 4.15 1.9 2.95-0.05 5.75-5.05"/>
   <path d="m-19.2-24.6 3.75 0.2q2 0.6 3.2 1.9t0.85 2.55-2.1 1.7l-3.75-0.15q-2.05-0.6-3.25-1.9-1.15-1.3-0.8-2.6 0.4-1.25 2.1-1.7"/>
   <path d="m-27.65-10.4 1.45-0.1c-1.1333-1.8333-2.0167-3.7667-2.65-5.8-1.7333 1.7333-3.5667 2.7-5.5 2.9 1.8333 1.9667 4.0667 2.9667 6.7 3m43.45-38.6c-0.7-2.8333-1.85-4.85-3.45-6.05-1.2333-1-2.8667-1.5-4.9-1.5-2.1667-0.03333-4.7167 0.58333-7.65 1.85 1.5333 0.23333 2.9833 0.65 4.35 1.25 3.7333 1.6667 6.0667 4.45 7 8.35l1.95 8.45c0.86667 3.5333 1.8167 6.3833 2.85 8.55 0.73333 2.7333 2.1167 5.1833 4.15 7.35 2.0333 2.1 4.0833 3.25 6.15 3.45-5-0.26667-9.0333-3.6333-12.1-10.1-1.1333-2.4-2.1833-5.3333-3.15-8.8l-2.1-8.35c-0.76667-3.1-2.6667-5.35-5.7-6.75l-3-0.95 0.25 0.15c3.5333 2.3667 5.3 5.6 5.3 9.7l-0.1 2.75c0.033333 5.2 1 9.7 2.9 13.5 1.8333 3.7333 4.4 6.4833 7.7 8.25-3.9-2-6.95-4.6667-9.15-8-2.5333-3.9-3.7833-8.4833-3.75-13.75l0.05-2.75c0-2.8333-1.15-5.2167-3.45-7.15-1.2333-1-2.6667-1.7833-4.3-2.35l-0.1 2.85c0 9.9667 3.2333 18.75 9.7 26.35 3.8333 4.5333 8.2167 8.0667 13.15 10.6l1 0.55c2.4333 1.1667 4.6333 1.75 6.6 1.75 1.7333 0 3.25-0.46667 4.55-1.4 1.1667-0.83333 2.2333-2.0833 3.2-3.75 0.86667-1.5333 1.5833-3.3667 2.15-5.5h-0.1c-1.7-0.03333-3.6167-0.95-5.75-2.75-1.8-1.5667-3.6333-3.7167-5.5-6.45-4-5.8-6.9167-12.25-8.75-19.35m-36.45 11.5c-3.3667 3.9-5.05 8.45-5.05 13.65 0 5.8333 2.0667 10.8 6.2 14.9 4.1 4.1 9.05 6.15 14.85 6.15 3.4 0 6.6-0.76667 9.6-2.3 2.9-1.5 5.3333-3.55 7.3-6.15-2.6333-1.7667-5.15-3.8667-7.55-6.3l-1-1c-1.6-0.23333-2.55-0.85-2.85-1.85-0.13333-0.4-0.11667-0.86667 0.05-1.4-5.2333-6.8-8.25-14.4-9.05-22.8-5 0.83333-9.1667 3.2-12.5 7.1m-5.65 0.5c-0.73333-2.5-1.1-4.7667-1.1-6.8-0.06667-3.8667 1.2667-6.5667 4-8.1 1.7667-0.96667 3.5833-1.45 5.45-1.45 3.4667 0.03333 6.5833 1.5167 9.35 4.45l0.25-0.05 0.1-3.2-0.2-0.85-1.35-3.55c-1.6333-3.0667-3.7-4.6-6.2-4.6-1.8 0-3.8833 0.71667-6.25 2.15-5.1 3.1333-7.6833 7.85-7.75 14.15 0 3.2667 0.7 6.9167 2.1 10.95l1.6-3.1m1.2-6.8c0 1.2333 0.18333 2.65 0.55 4.25 2.4667-3.1333 5.4833-5.5333 9.05-7.2l-0.75-0.15-3-0.4c-1.3333-0.03333-2.25 0.16667-2.75 0.6l-0.25-0.05c1.4667-1.3333 3.25-1.9667 5.35-1.9 1.4667 0 2.8833 0.25 4.25 0.75l1.25-0.4-0.3-0.25c-2.0667-1.6667-4.15-2.4833-6.25-2.45-1.4667 0-2.9 0.38333-4.3 1.15-1.8333 1-2.7833 3.0167-2.85 6.05m-6.7-10.55c1.6333-3.3 4.15-5.9667 7.55-8 2.9667-1.8 5.7167-2.7 8.25-2.7 2.3 0 4.3667 0.73333 6.2 2.2 1.4 1.1667 2.5667 2.6833 3.5 4.55l0.8 1.85c4.5667-2.6333 8.8833-3.9667 12.95-4 2.8667 0 5.3 0.76667 7.3 2.3 2.3 1.8 3.9167 4.5167 4.85 8.15 1.2 4.8 3.1167 9.55 5.75 14.25 2.4333 4.3333 4.85 7.5333 7.25 9.6l2 1.4c0.56667 0.3 0.96667 0.43333 1.2 0.4l0.55-0.35c0.36667-0.5 0.61667-1.4333 0.75-2.8 0.06667-0.53333 0.3-0.96667 0.7-1.3s0.86667-0.48333 1.4-0.45c0.53333 0.03333 0.96667 0.25 1.3 0.65 0.36667 0.4 0.53333 0.86667 0.5 1.4v0.05l-0.05 0.35c-0.2 2.5333-0.6 4.95-1.2 7.25-1.1667 4.2667-2.9 7.6167-5.2 10.05-2.3667 2.4333-5.2 3.65-8.5 3.65h-0.05c-2.6667-0.066667-5.4167-0.8-8.25-2.2-0.1 0-0.71667-0.31667-1.85-0.95-1.2333 1.6333-2.5333 3.05-3.9 4.25 1.9333 0.23333 3.55 1.0833 4.85 2.55 1.3 1.4667 1.95 3.1833 1.95 5.15 0 1.7-0.51667 3.2333-1.55 4.6-1 1.3667-2.3 2.3-3.9 2.8 0.23333 11.167 0.9 20.733 2 28.7 1.5667 11.533 3.9333 18.917 7.1 22.15 1.0667 1.1 2.1833 1.65 3.35 1.65 0.33333 0 0.6 0.11667 0.8 0.35 0.23333 0.2 0.35 0.46667 0.35 0.8l-0.35 0.8c-0.2 0.2-0.46667 0.3-0.8 0.3h-60.2l-0.8-0.3-0.35-0.8c0-0.33333 0.11667-0.6 0.35-0.8 0.23333-0.23333 0.5-0.35 0.8-0.35 1.1667 0 2.3-0.55 3.4-1.65 3.1333-3.2 5.5-10.533 7.1-22 1.1-8.1 1.75-17.65 1.95-28.65-1.8-0.33333-3.3-1.2-4.5-2.6-1.2-1.4333-1.8-3.1-1.8-5 0-2 0.66667-3.7333 2-5.2 1.3333-1.4667 2.9833-2.3167 4.95-2.55l-2.3-2.25-4.05 0.55h-0.05c-2.3 0-4.4167-0.56667-6.35-1.7-1.5667-0.9-2.9167-2.1-4.05-3.6-0.83333-1.0667-1.55-2.25-2.15-3.55l-0.65-1.65 0.05-1.3 0.85-1 1.3-0.2c0.43333 0.06667 0.8 0.26667 1.1 0.6 0.93333 1.0667 1.85 1.6 2.75 1.6 1.0667 0.06667 2.3-0.68333 3.7-2.25l1.3-1.6-0.15-2.7 0.35-4c-2.8-5.9667-4.2167-11.633-4.25-17-0.03333-3.4667 0.66667-6.6333 2.1-9.5"/>
  </g>
  <path d="m-18.15 23.65v-3.15h27.35v3.15h-27.35" fill="#fff"/>
  <path d="m0.1 1.05-4.6 9.7-4.6-9.65 4.45 0.4 4.75-0.45" fill="#fff"/>
 </g>
</svg>
