<?xml version="1.0" encoding="UTF-8" standalone="no"?>
<svg xmlns:xlink="http://www.w3.org/1999/xlink" height="78.6px" width="78.6px" xmlns="http://www.w3.org/2000/svg">
  <g transform="matrix(1.0, 0.0, 0.0, 1.0, 39.3, 39.3)">
    <path d="M23.75 -10.9 L23.9 -11.65 35.5 -21.25 35.5 -14.5 31.35 -14.5 31.35 -13.2 35.5 -13.2 35.5 -10.7 31.35 -10.7 31.35 -9.4 35.5 -9.4 35.5 -7.2 31.35 -7.2 31.35 -5.9 35.5 -5.9 35.5 0.65 23.75 -10.9" fill="#ffffff" fill-rule="evenodd" stroke="none"/>
    <path d="M15.85 -26.55 Q20.45 -22.8 20.45 -16.4 L20.35 -14.25 Q5.05 -19.85 -9.45 -19.85 -23.9 -19.85 -35.2 -14.65 L-35.3 -16.4 Q-35.25 -20.65 -33.25 -23.7 -31.4 -26.55 -27.6 -28.65 L-26.9 -28.95 Q-26.2 -26.15 -23.95 -24.3 -21.65 -22.45 -18.7 -22.45 -15.2 -22.45 -12.75 -24.9 -10.25 -27.35 -10.25 -30.85 L-10.4 -32.45 -7.4 -32.5 0.3 -32.1 0.2 -30.85 Q0.2 -27.35 2.7 -24.9 5.15 -22.45 8.65 -22.45 10.9 -22.45 12.85 -23.6 14.75 -24.7 15.85 -26.55" fill="#ffffff" fill-rule="evenodd" stroke="none"/>
    <path d="M19.95 -12.25 Q18.35 -5.75 12.45 -1.1 8.6 1.95 3.6 3.7 -1.65 5.45 -7.4 5.45 -13.1 5.45 -18.4 3.7 -23.4 2.0 -27.3 -1.1 -33.35 -6.0 -34.85 -12.6 -30.7 -14.6 -25.45 -15.9 -17.8 -17.85 -9.45 -17.85 4.95 -17.85 19.95 -12.25" fill="#ffffff" fill-rule="evenodd" stroke="none"/>
    <path d="M-18.35 -32.45 Q-18.9 -32.95 -19.65 -32.95 -20.4 -32.95 -20.9 -32.45 -21.45 -31.9 -21.45 -31.2 -21.45 -30.45 -20.9 -29.9 -20.4 -29.4 -19.65 -29.4 -18.9 -29.4 -18.35 -29.9 -17.85 -30.45 -17.85 -31.2 -17.85 -31.9 -18.35 -32.45 M-22.85 -35.0 Q-21.15 -36.75 -18.7 -36.75 -16.25 -36.75 -14.55 -35.0 -12.8 -33.3 -12.8 -30.85 -12.8 -28.4 -14.55 -26.7 -16.25 -25.0 -18.7 -25.0 -21.15 -25.0 -22.85 -26.7 -24.55 -28.4 -24.55 -30.85 -24.55 -33.3 -22.85 -35.0" fill="#ffffff" fill-rule="evenodd" stroke="none"/>
    <path d="M10.1 -32.45 Q9.55 -32.95 8.8 -32.95 8.05 -32.95 7.55 -32.45 7.0 -31.9 7.0 -31.2 7.0 -30.45 7.55 -29.9 8.05 -29.4 8.8 -29.4 9.55 -29.4 10.1 -29.9 10.6 -30.45 10.6 -31.2 10.6 -31.9 10.1 -32.45 M8.65 -36.75 Q11.1 -36.75 12.8 -35.0 14.5 -33.3 14.5 -30.85 14.5 -28.4 12.8 -26.7 11.1 -25.0 8.65 -25.0 6.2 -25.0 4.5 -26.7 2.75 -28.4 2.75 -30.85 2.75 -33.3 4.5 -35.0 6.2 -36.75 8.65 -36.75" fill="#ffffff" fill-rule="evenodd" stroke="none"/>
    <path d="M-29.55 27.45 L-29.9 35.6 -9.45 35.55 -9.45 27.45 -29.55 27.45 M-18.7 -36.75 Q-21.15 -36.75 -22.85 -35.0 -24.55 -33.3 -24.55 -30.85 -24.55 -28.4 -22.85 -26.7 -21.15 -25.0 -18.7 -25.0 -16.25 -25.0 -14.55 -26.7 -12.8 -28.4 -12.8 -30.85 -12.8 -33.3 -14.55 -35.0 -16.25 -36.75 -18.7 -36.75 M12.45 -1.1 Q18.35 -5.75 19.95 -12.25 4.95 -17.85 -9.45 -17.85 -17.8 -17.85 -25.45 -15.9 -30.7 -14.6 -34.85 -12.6 -33.35 -6.0 -27.3 -1.1 -23.4 2.0 -18.4 3.7 -13.1 5.45 -7.4 5.45 -1.65 5.45 3.6 3.7 8.6 1.95 12.45 -1.1 M15.35 35.5 L15.25 27.45 -7.45 27.45 -7.45 35.55 15.35 35.5 M23.9 -11.65 L23.75 -10.9 35.5 0.65 35.5 -5.9 31.35 -5.9 31.35 -7.2 35.5 -7.2 35.5 -9.4 31.35 -9.4 31.35 -10.7 35.5 -10.7 35.5 -13.2 31.35 -13.2 31.35 -14.5 35.5 -14.5 35.5 -21.25 23.9 -11.65 M12.85 -23.6 Q10.9 -22.45 8.65 -22.45 5.15 -22.45 2.7 -24.9 0.2 -27.35 0.2 -30.85 L0.3 -32.1 -7.4 -32.5 -10.4 -32.45 -10.25 -30.85 Q-10.25 -27.35 -12.75 -24.9 -15.2 -22.45 -18.7 -22.45 -21.65 -22.45 -23.95 -24.3 -26.2 -26.15 -26.9 -28.95 L-27.6 -28.65 Q-31.4 -26.55 -33.25 -23.7 -35.25 -20.65 -35.3 -16.4 L-35.2 -14.65 Q-23.9 -19.85 -9.45 -19.85 5.05 -19.85 20.35 -14.25 L20.45 -16.4 Q20.45 -22.8 15.85 -26.55 14.75 -24.7 12.85 -23.6 M8.65 -36.75 Q6.2 -36.75 4.5 -35.0 2.75 -33.3 2.75 -30.85 2.75 -28.4 4.5 -26.7 6.2 -25.0 8.65 -25.0 11.1 -25.0 12.8 -26.7 14.5 -28.4 14.5 -30.85 14.5 -33.3 12.8 -35.0 11.1 -36.75 8.65 -36.75 M4.85 -38.35 Q6.65 -39.3 8.65 -39.3 12.15 -39.3 14.6 -36.8 17.05 -34.35 17.05 -30.85 L17.05 -30.7 Q24.25 -25.65 24.45 -17.05 L39.3 -29.35 39.3 9.75 22.25 -6.95 Q21.0 -4.3 19.1 -2.0 L19.1 39.3 -33.45 39.3 Q-33.45 18.2 -27.45 3.7 L-29.75 2.0 Q-34.2 -1.55 -36.7 -6.2 -39.3 -11.05 -39.3 -16.4 -39.35 -21.7 -36.6 -25.85 -34.05 -29.75 -29.45 -32.15 L-26.7 -33.4 Q-25.9 -36.0 -23.7 -37.6 -21.5 -39.3 -18.7 -39.3 -14.85 -39.3 -12.3 -36.35 L-7.4 -36.5 1.95 -35.95 Q3.1 -37.5 4.85 -38.35" fill="#000000" fill-rule="evenodd" stroke="none"/>
    <path d="M-19.65 -32.95 Q-18.9 -32.95 -18.35 -32.45 -17.85 -31.9 -17.85 -31.2 -17.85 -30.45 -18.35 -29.9 -18.9 -29.4 -19.65 -29.4 -20.4 -29.4 -20.9 -29.9 -21.45 -30.45 -21.45 -31.2 -21.45 -31.9 -20.9 -32.45 -20.4 -32.95 -19.65 -32.95" fill="#000000" fill-rule="evenodd" stroke="none"/>
    <path d="M8.8 -32.95 Q9.55 -32.95 10.1 -32.45 10.6 -31.9 10.6 -31.2 10.6 -30.45 10.1 -29.9 9.55 -29.4 8.8 -29.4 8.05 -29.4 7.55 -29.9 7.0 -30.45 7.0 -31.2 7.0 -31.9 7.55 -32.45 8.05 -32.95 8.8 -32.95" fill="#000000" fill-rule="evenodd" stroke="none"/>
    <path d="M15.25 27.45 L15.35 35.5 -7.45 35.55 -7.45 27.45 15.25 27.45" fill="#ffffff" fill-rule="evenodd" stroke="none"/>
    <path d="M-9.45 27.45 L-9.45 35.55 -29.9 35.6 -29.55 27.45 -9.45 27.45" fill="#ffffff" fill-rule="evenodd" stroke="none"/>
  </g>
</svg>
