<?xml version="1.0" encoding="UTF-8" standalone="no"?>
<svg xmlns:xlink="http://www.w3.org/1999/xlink" height="87.35px" width="49.7px" xmlns="http://www.w3.org/2000/svg">
  <g transform="matrix(1.0, 0.0, 0.0, 1.0, 24.85, 43.65)">
    <path d="M-14.6 -26.75 L-14.6 -38.65 13.05 -38.65 13.05 -26.75 -14.6 -26.75" fill="#ffffff" fill-rule="evenodd" stroke="none"/>
    <path d="M-5.25 -14.15 L-1.05 -15.7 2.95 -14.35 -0.85 -23.65 -5.25 -14.15 M-6.65 -17.0 Q-5.0 -18.6 -5.0 -20.9 -5.0 -22.45 -5.8 -23.75 L4.2 -23.75 Q3.4 -22.45 3.4 -20.9 3.4 -18.6 5.05 -17.0 6.7 -15.35 9.0 -15.35 11.45 -15.35 13.05 -17.1 L13.05 -1.3 9.9 -1.3 9.9 -8.85 8.4 -8.85 8.4 -1.3 5.15 -1.3 5.15 -8.85 3.65 -8.85 3.65 -1.3 -0.05 -1.3 -0.05 -9.1 -1.55 -9.1 -1.55 -1.3 -5.25 -1.3 -5.25 -8.85 -6.75 -8.85 -6.75 -1.3 -10.0 -1.3 -10.0 -9.1 -11.45 -9.1 -11.45 -1.3 -14.6 -1.3 -14.6 -17.0 Q-13.05 -15.35 -10.6 -15.35 -8.3 -15.35 -6.65 -17.0" fill="#ffffff" fill-rule="evenodd" stroke="none"/>
    <path d="M-5.25 -14.15 L-0.85 -23.65 2.95 -14.35 -1.05 -15.7 -5.25 -14.15" fill="#000000" fill-rule="evenodd" stroke="none"/>
    <path d="M20.15 13.35 L20.15 16.9 4.75 16.9 Q4.25 16.9 3.9 17.25 3.55 17.55 3.55 18.05 3.55 18.55 3.9 18.9 4.25 19.25 4.75 19.25 L20.15 19.25 20.15 22.8 4.75 22.8 Q4.25 22.8 3.9 23.15 3.55 23.5 3.55 24.0 3.55 24.5 3.9 24.8 4.25 25.15 4.75 25.15 L20.15 25.15 20.15 29.1 4.75 29.1 Q4.25 29.1 3.9 29.45 3.55 29.8 3.55 30.3 3.55 30.8 3.9 31.15 4.25 31.5 4.75 31.5 L20.15 31.5 20.15 39.0 -20.15 39.0 -20.15 31.5 -4.75 31.5 Q-4.25 31.5 -3.9 31.15 -3.55 30.8 -3.55 30.3 -3.55 29.8 -3.9 29.45 -4.25 29.1 -4.75 29.1 L-20.15 29.1 -20.15 25.15 -4.75 25.15 Q-4.25 25.15 -3.9 24.8 -3.55 24.5 -3.55 24.0 -3.55 23.5 -3.9 23.15 -4.25 22.8 -4.75 22.8 L-20.15 22.8 -20.15 19.25 -4.75 19.25 Q-4.25 19.25 -3.9 18.9 -3.55 18.55 -3.55 18.05 -3.55 17.55 -3.9 17.25 -4.25 16.9 -4.75 16.9 L-20.15 16.9 -20.15 13.35 20.15 13.35" fill="#ffffff" fill-rule="evenodd" stroke="none"/>
    <path d="M20.15 39.0 L20.15 31.5 4.75 31.5 Q4.25 31.5 3.9 31.15 3.55 30.8 3.55 30.3 3.55 29.8 3.9 29.45 4.25 29.1 4.75 29.1 L20.15 29.1 20.15 25.15 4.75 25.15 Q4.25 25.15 3.9 24.8 3.55 24.5 3.55 24.0 3.55 23.5 3.9 23.15 4.25 22.8 4.75 22.8 L20.15 22.8 20.15 19.25 4.75 19.25 Q4.25 19.25 3.9 18.9 3.55 18.55 3.55 18.05 3.55 17.55 3.9 17.25 4.25 16.9 4.75 16.9 L20.15 16.9 20.15 13.35 -20.15 13.35 -20.15 16.9 -4.75 16.9 Q-4.25 16.9 -3.9 17.25 -3.55 17.55 -3.55 18.05 -3.55 18.55 -3.9 18.9 -4.25 19.25 -4.75 19.25 L-20.15 19.25 -20.15 22.8 -4.75 22.8 Q-4.25 22.8 -3.9 23.15 -3.55 23.5 -3.55 24.0 -3.55 24.5 -3.9 24.8 -4.25 25.15 -4.75 25.15 L-20.15 25.15 -20.15 29.1 -4.75 29.1 Q-4.25 29.1 -3.9 29.45 -3.55 29.8 -3.55 30.3 -3.55 30.8 -3.9 31.15 -4.25 31.5 -4.75 31.5 L-20.15 31.5 -20.15 39.0 20.15 39.0 M-5.55 8.6 Q-6.0 7.65 -6.0 6.4 -6.0 5.0 -5.3 3.75 L-5.25 3.7 -19.6 3.7 -19.6 -43.65 18.05 -43.65 18.05 3.7 4.1 3.7 4.1 3.75 Q4.8 4.85 4.8 6.4 4.8 7.65 4.35 8.6 L24.85 8.6 24.85 43.7 -24.85 43.7 -24.85 8.6 -5.55 8.6 M-2.7 6.4 L-2.5 7.35 1.3 7.35 1.5 6.4 1.3 5.5 -2.5 5.5 -2.7 6.4 M13.05 -17.1 Q11.45 -15.35 9.0 -15.35 6.7 -15.35 5.05 -17.0 3.4 -18.6 3.4 -20.9 3.4 -22.45 4.2 -23.75 L-5.8 -23.75 Q-5.0 -22.45 -5.0 -20.9 -5.0 -18.6 -6.65 -17.0 -8.3 -15.35 -10.6 -15.35 -13.05 -15.35 -14.6 -17.0 L-14.6 -1.3 -11.45 -1.3 -11.45 -9.1 -10.0 -9.1 -10.0 -1.3 -6.75 -1.3 -6.75 -8.85 -5.25 -8.85 -5.25 -1.3 -1.55 -1.3 -1.55 -9.1 -0.05 -9.1 -0.05 -1.3 3.65 -1.3 3.65 -8.85 5.15 -8.85 5.15 -1.3 8.4 -1.3 8.4 -8.85 9.9 -8.85 9.9 -1.3 13.05 -1.3 13.05 -17.1 M13.05 -26.75 L13.05 -38.65 -14.6 -38.65 -14.6 -26.75 13.05 -26.75" fill="#000000" fill-rule="evenodd" stroke="none"/>
    <path d="M-2.7 6.4 L-2.5 5.5 1.3 5.5 1.5 6.4 1.3 7.35 -2.5 7.35 -2.7 6.4" fill="#ffffff" fill-rule="evenodd" stroke="none"/>
  </g>
</svg>
