<?xml version="1.0" encoding="UTF-8" standalone="no"?>
<svg xmlns:xlink="http://www.w3.org/1999/xlink" height="54.05px" width="48.1px" xmlns="http://www.w3.org/2000/svg">
  <g transform="matrix(1.0, 0.0, 0.0, 1.0, 24.05, 27.0)">
    <path d="M-24.05 -27.0 L-14.5 -12.3 1.0 -22.2 -9.75 11.55 Q8.15 3.1 17.9 14.25 22.75 19.8 24.05 27.05 L-24.05 27.05 -24.05 -27.0 M-16.5 -5.95 Q-16.5 -6.65 -16.85 -7.2 -17.25 -7.7 -17.8 -7.7 -18.3 -7.7 -18.7 -7.2 L-19.05 -5.95 Q-19.05 -5.2 -18.7 -4.65 -18.3 -4.15 -17.8 -4.15 -17.25 -4.15 -16.85 -4.65 -16.5 -5.2 -16.5 -5.95 M-11.7 -5.95 Q-11.7 -6.65 -12.1 -7.2 -12.45 -7.7 -13.0 -7.7 -13.5 -7.7 -13.9 -7.2 -14.3 -6.65 -14.3 -5.95 -14.3 -5.2 -13.9 -4.65 -13.55 -4.15 -13.0 -4.15 -12.45 -4.15 -12.1 -4.65 -11.7 -5.2 -11.7 -5.95" fill="#000000" fill-rule="evenodd" stroke="none"/>
    <path d="M-17.8 -7.7 Q-17.25 -7.7 -16.85 -7.2 -16.5 -6.65 -16.5 -5.95 -16.5 -5.2 -16.85 -4.65 -17.25 -4.15 -17.8 -4.15 -18.3 -4.15 -18.7 -4.65 -19.05 -5.2 -19.05 -5.95 L-18.7 -7.2 Q-18.3 -7.7 -17.8 -7.7" fill="#ffffff" fill-rule="evenodd" stroke="none"/>
    <path d="M-13.0 -7.7 Q-12.45 -7.7 -12.1 -7.2 -11.7 -6.65 -11.7 -5.95 -11.7 -5.2 -12.1 -4.65 -12.45 -4.15 -13.0 -4.15 -13.55 -4.15 -13.9 -4.65 -14.3 -5.2 -14.3 -5.95 -14.3 -6.65 -13.9 -7.2 -13.5 -7.7 -13.0 -7.7" fill="#ffffff" fill-rule="evenodd" stroke="none"/>
  </g>
</svg>
