<?xml version="1.0" encoding="UTF-8" standalone="no"?>
<svg xmlns:xlink="http://www.w3.org/1999/xlink" height="106.25px" width="48.7px" xmlns="http://www.w3.org/2000/svg">
  <g transform="matrix(1.0, 0.0, 0.0, 1.0, 24.35, 53.1)">
    <path d="M0.65 44.95 L20.25 44.95 20.25 49.05 0.65 49.05 0.65 44.95" fill="#ffffff" fill-rule="evenodd" stroke="none"/>
    <path d="M-20.25 23.85 L-1.05 23.85 -1.05 43.25 -20.25 43.25 -20.25 23.85" fill="#ffffff" fill-rule="evenodd" stroke="none"/>
    <path d="M0.65 23.85 L20.25 23.85 20.25 43.25 0.65 43.25 0.65 23.85" fill="#ffffff" fill-rule="evenodd" stroke="none"/>
    <path d="M-1.05 44.95 L-1.05 49.05 -20.25 49.05 -20.25 44.95 -1.05 44.95" fill="#ffffff" fill-rule="evenodd" stroke="none"/>
    <path d="M0.65 49.05 L20.25 49.05 20.25 44.95 0.65 44.95 0.65 49.05 M-1.05 49.05 L-1.05 44.95 -20.25 44.95 -20.25 49.05 -1.05 49.05 M-1.05 23.85 L-20.25 23.85 -20.25 43.25 -1.05 43.25 -1.05 23.85 M20.25 23.85 L0.65 23.85 0.65 43.25 20.25 43.25 20.25 23.85 M11.45 -44.2 Q9.1 -46.35 5.8 -46.35 L-6.1 -46.35 Q-9.4 -46.35 -11.75 -44.2 -14.1 -42.05 -14.1 -39.0 L-14.1 -20.45 Q-14.1 -17.4 -11.75 -15.25 -9.4 -13.1 -6.1 -13.1 L5.8 -13.1 Q9.1 -13.1 11.45 -15.25 13.75 -17.4 13.75 -20.45 L13.75 -39.0 Q13.75 -42.05 11.45 -44.2 M15.05 -45.85 Q17.55 -42.8 17.55 -39.0 L17.55 -20.45 Q17.55 -17.95 16.4 -15.7 15.3 -13.5 13.35 -11.95 L21.0 -11.95 24.35 22.35 24.35 53.15 -24.35 53.15 -24.35 18.1 -21.4 -11.95 -13.7 -11.95 Q-15.65 -13.5 -16.75 -15.7 -17.85 -17.95 -17.85 -20.45 L-17.85 -39.0 Q-17.85 -42.85 -15.35 -45.85 -12.9 -48.8 -9.1 -49.75 L-9.8 -49.75 -9.8 -53.1 8.8 -53.1 8.8 -49.75 Q12.6 -48.8 15.05 -45.85" fill="#000000" fill-rule="evenodd" stroke="none"/>
  </g>
</svg>
