<?xml version="1.0" encoding="UTF-8" standalone="no"?>
<svg xmlns:xlink="http://www.w3.org/1999/xlink" height="99.05px" width="66.95px" xmlns="http://www.w3.org/2000/svg">
  <g transform="matrix(1.0, 0.0, 0.0, 1.0, 33.45, 49.5)">
    <path d="M23.55 7.7 Q33.3 24.95 33.5 49.55 L-33.45 49.55 Q-33.2 24.95 -23.45 7.7 -13.7 -9.55 0.05 -9.55 13.75 -9.55 23.55 7.7" fill="#000000" fill-rule="evenodd" stroke="none"/>
    <path d="M-12.7 -18.75 Q-17.95 -24.05 -17.95 -31.5 -17.95 -38.95 -12.7 -44.25 -7.4 -49.5 0.05 -49.5 7.5 -49.5 12.75 -44.25 18.0 -38.95 18.0 -31.5 18.0 -24.05 12.75 -18.75 7.5 -13.5 0.05 -13.5 -7.4 -13.5 -12.7 -18.75" fill="#000000" fill-rule="evenodd" stroke="none"/>
  </g>
</svg>
