<?xml version="1.0" encoding="UTF-8" standalone="no"?>
<svg xmlns:xlink="http://www.w3.org/1999/xlink" height="50.65px" width="71.15px" xmlns="http://www.w3.org/2000/svg">
  <g transform="matrix(1.0, 0.0, 0.0, 1.0, 35.55, 25.3)">
    <path d="M10.7 -14.25 L10.1 -14.6 9.6 -14.4 Q9.1 -14.05 9.2 -13.2 9.35 -11.9 10.45 -11.5 11.25 -11.75 11.25 -13.0 11.25 -13.8 10.7 -14.25 M-0.35 -8.15 L0.9 -7.55 Q2.3 -6.75 3.2 -5.4 6.05 -1.15 2.5 6.4 0.0 8.75 -3.55 9.55 -10.65 11.15 -15.9 3.25 -16.15 1.3 -15.45 -0.4 -14.05 -3.85 -9.4 -2.75 L-8.1 -2.15 Q-6.55 -1.3 -5.3 0.2 -3.75 3.15 -6.0 3.95 L-8.55 4.2 Q-10.45 4.1 -10.55 3.0 L-10.25 1.9 -10.55 2.85 Q-10.65 3.85 -9.35 4.4 -6.2 5.15 -4.75 4.05 -3.95 3.45 -3.85 2.45 -3.9 0.75 -4.85 -1.0 -6.8 -4.65 -11.7 -4.85 -13.35 -4.7 -14.95 -3.75 -18.1 -1.75 -17.6 2.6 L-16.95 4.15 Q-16.0 6.05 -14.5 7.5 -9.6 12.25 -0.8 11.35 L0.6 10.8 3.5 8.7 Q7.65 4.5 6.8 -3.4 L6.2 -4.85 Q5.3 -6.6 3.5 -7.85 5.15 -14.0 4.9 -20.35 L6.5 -22.8 Q8.65 -24.75 11.25 -21.95 L13.75 -14.25 Q16.15 -4.55 15.35 5.15 15.5 6.65 14.45 8.55 12.35 12.25 6.3 14.05 L3.35 14.4 3.05 13.0 2.1 13.25 2.25 14.5 Q-15.5 15.75 -32.05 9.75 L-32.5 9.6 -27.2 6.15 Q-21.55 1.95 -19.35 -2.15 L-18.1 -3.5 Q-16.4 -5.05 -14.35 -6.2 -7.9 -9.95 -0.35 -8.15" fill="#ffffff" fill-rule="evenodd" stroke="none"/>
    <path d="M3.5 -7.85 Q5.3 -6.6 6.2 -4.85 L6.8 -3.4 Q7.65 4.5 3.5 8.7 L0.6 10.8 -0.8 11.35 Q-9.6 12.25 -14.5 7.5 -16.0 6.05 -16.95 4.15 L-17.6 2.6 Q-18.1 -1.75 -14.95 -3.75 -13.35 -4.7 -11.7 -4.85 -6.8 -4.65 -4.85 -1.0 -3.9 0.75 -3.85 2.45 -3.95 3.45 -4.75 4.05 -6.2 5.15 -9.35 4.4 -10.65 3.85 -10.55 2.85 L-10.25 1.9 -10.55 3.0 Q-10.45 4.1 -8.55 4.2 L-6.0 3.95 Q-3.75 3.15 -5.3 0.2 -6.55 -1.3 -8.1 -2.15 L-9.4 -2.75 Q-14.05 -3.85 -15.45 -0.4 -16.15 1.3 -15.9 3.25 -10.65 11.15 -3.55 9.55 0.0 8.75 2.5 6.4 6.05 -1.15 3.2 -5.4 2.3 -6.75 0.9 -7.55 L-0.35 -8.15 Q-7.9 -9.95 -14.35 -6.2 -16.4 -5.05 -18.1 -3.5 L-19.35 -2.15 Q-21.55 1.95 -27.2 6.15 L-32.5 9.6 -32.05 9.75 Q-15.5 15.75 2.25 14.5 L2.1 13.25 3.05 13.0 3.35 14.4 6.3 14.05 Q12.35 12.25 14.45 8.55 15.5 6.65 15.35 5.15 16.15 -4.55 13.75 -14.25 L11.25 -21.95 Q8.65 -24.75 6.5 -22.8 L4.9 -20.35 Q5.15 -14.0 3.5 -7.85 M4.45 -23.55 Q5.05 -24.45 5.7 -24.65 8.15 -25.95 10.6 -24.55 L12.5 -22.9 Q14.7 -20.3 16.05 -14.8 29.1 -2.95 35.6 6.65 33.7 6.65 30.5 5.4 24.1 2.9 17.75 -3.4 L18.05 2.15 Q18.05 7.2 16.1 10.65 L14.1 13.1 Q8.9 15.0 3.6 15.85 4.5 21.75 3.3 25.35 L2.4 16.05 -1.65 16.45 -1.2 25.1 Q-1.95 25.45 -2.15 24.0 L-3.0 16.55 Q-14.45 17.1 -26.15 13.4 L-35.55 9.6 Q-30.6 7.5 -26.0 3.35 -23.7 1.25 -22.4 -0.4 -19.0 -5.9 -12.9 -8.7 -9.85 -10.15 -7.5 -10.45 -0.65 -10.65 3.25 -8.05 L3.3 -8.0 3.35 -8.4 3.7 -14.7 3.8 -18.3 Q3.3 -21.75 4.45 -23.55" fill="#000000" fill-rule="evenodd" stroke="none"/>
    <path d="M10.45 -11.5 Q9.35 -11.9 9.2 -13.2 9.1 -14.05 9.6 -14.4 L10.1 -14.6 10.7 -14.25 Q11.25 -13.8 11.25 -13.0 11.25 -11.75 10.45 -11.5" fill="#000000" fill-rule="evenodd" stroke="none"/>
  </g>
</svg>
