<?xml version="1.0" encoding="UTF-8" standalone="no"?>
<svg xmlns:xlink="http://www.w3.org/1999/xlink" height="117.85px" width="73.95px" xmlns="http://www.w3.org/2000/svg">
  <g transform="matrix(1.0, 0.0, 0.0, 1.0, 36.95, 58.9)">
    <path d="M-7.6 -19.9 L-7.6 -17.3 -18.2 -17.3 -18.2 -19.9 -7.6 -19.9" fill="#000000" fill-rule="evenodd" stroke="none"/>
    <path d="M-4.8 48.7 L-4.8 43.05 -23.45 43.05 -23.45 48.7 -4.8 48.7 M24.05 48.45 L24.05 43.05 8.15 43.05 8.15 48.45 24.05 48.45 M19.5 -43.65 L19.5 -30.95 26.5 -30.95 26.5 -43.65 19.5 -43.65 M13.7 -30.95 L16.7 -30.95 16.7 -43.7 13.7 -43.7 13.7 -30.95 M10.95 -30.95 L10.95 -43.7 -20.85 -43.8 -20.85 -30.95 10.95 -30.95 M13.55 -22.5 L13.55 -25.3 10.9 -25.3 10.9 -22.5 7.9 -22.5 7.9 -25.3 5.4 -25.3 5.4 -22.5 3.05 -22.5 3.05 -20.2 5.95 -20.2 5.95 -17.55 8.0 -17.55 8.0 -19.95 11.05 -19.95 11.05 -17.55 13.4 -17.55 13.4 -19.9 16.45 -19.9 16.45 -17.55 18.8 -17.55 18.8 -25.3 16.6 -25.3 16.6 -22.5 13.55 -22.5 M-15.6 -54.4 L-15.6 -52.05 -18.1 -52.05 -18.1 -49.05 21.4 -49.05 21.4 -51.65 18.95 -51.65 18.95 -54.3 16.3 -54.3 16.3 -56.9 -12.85 -56.9 -12.85 -54.4 -15.6 -54.4 M24.6 -54.35 L24.6 -51.45 26.85 -51.45 26.85 -48.75 32.25 -48.75 32.25 -22.45 34.75 -22.45 34.75 -19.95 37.0 -19.95 37.0 17.1 31.65 17.1 31.65 27.45 26.25 27.45 26.25 51.5 21.5 51.5 21.5 54.4 29.35 54.4 29.35 58.55 10.9 58.55 10.9 51.3 5.55 51.3 5.55 27.65 -2.55 27.65 -2.55 51.5 -10.2 51.5 -10.2 54.2 -2.55 54.2 -2.55 58.95 -21.0 58.95 -21.0 51.05 -26.35 51.05 -26.35 26.85 -31.35 26.85 -31.35 17.1 -36.95 17.1 -36.95 -19.75 -33.8 -19.75 -33.8 0.95 -31.2 0.95 -31.2 3.7 -33.8 3.7 -33.8 14.2 -28.7 14.2 -28.7 9.1 -26.25 9.1 -26.25 14.35 -23.45 14.35 -23.45 9.1 -20.85 9.1 -20.85 14.35 -18.2 14.35 -18.2 -14.5 -15.6 -14.5 -15.6 16.7 -28.7 16.7 -28.7 24.7 29.3 24.7 29.3 16.95 24.05 16.95 24.05 -12.05 26.65 -12.05 26.65 1.25 29.3 1.25 29.3 3.55 26.95 3.55 26.95 14.2 29.4 14.2 29.4 9.1 32.05 9.1 32.05 14.2 34.8 14.2 34.8 4.0 32.05 4.0 32.05 1.25 34.65 1.25 34.65 -19.95 23.9 -19.95 23.9 -22.4 26.95 -22.4 26.8 -25.4 21.4 -25.4 21.4 -19.9 23.9 -19.9 23.9 -17.3 21.55 -17.3 21.55 -14.95 -7.45 -14.95 -7.45 -17.3 0.15 -17.3 0.15 -25.15 -20.85 -25.15 -20.85 -22.65 -31.15 -22.65 -31.15 -25.15 -25.95 -25.15 -25.95 -48.95 -23.25 -48.95 -23.25 -52.3 -20.55 -52.3 -20.55 -54.75 -17.85 -54.75 -17.85 -57.05 -15.2 -57.05 -15.2 -58.9 18.8 -58.9 18.8 -57.05 21.5 -57.05 21.5 -54.35 24.6 -54.35" fill="#000000" fill-rule="evenodd" stroke="none"/>
    <path d="M-18.35 -19.9 L-20.85 -19.9 -20.85 -22.65 -18.35 -22.65 -18.35 -19.9" fill="#000000" fill-rule="evenodd" stroke="none"/>
    <path d="M-31.15 -22.65 L-31.15 -20.2 -33.8 -19.75 -33.8 -22.65 -31.15 -22.65" fill="#000000" fill-rule="evenodd" stroke="none"/>
    <path d="M-15.6 -52.05 L-15.6 -54.4 -12.85 -54.4 -12.85 -56.9 16.3 -56.9 16.3 -54.3 18.95 -54.3 18.95 -51.65 21.4 -51.65 21.4 -49.05 -18.1 -49.05 -18.1 -52.05 -15.6 -52.05" fill="#ffffff" fill-rule="evenodd" stroke="none"/>
    <path d="M13.7 -43.7 L16.7 -43.7 16.7 -30.95 13.7 -30.95 13.7 -43.7" fill="#ffffff" fill-rule="evenodd" stroke="none"/>
    <path d="M10.95 -43.7 L10.95 -30.95 -20.85 -30.95 -20.85 -43.8 10.95 -43.7" fill="#ffffff" fill-rule="evenodd" stroke="none"/>
    <path d="M19.5 -30.95 L19.5 -43.65 26.5 -43.65 26.5 -30.95 19.5 -30.95" fill="#ffffff" fill-rule="evenodd" stroke="none"/>
    <path d="M5.4 -22.5 L5.4 -25.3 7.9 -25.3 7.9 -22.5 10.9 -22.5 10.9 -25.3 13.55 -25.3 13.55 -22.5 16.6 -22.5 16.6 -25.3 18.8 -25.3 18.8 -17.55 16.45 -17.55 16.45 -19.9 13.4 -19.9 13.4 -17.55 11.05 -17.55 11.05 -19.95 8.0 -19.95 8.0 -17.55 5.95 -17.55 5.95 -20.2 3.05 -20.2 3.05 -22.5 5.4 -22.5" fill="#ffffff" fill-rule="evenodd" stroke="none"/>
    <path d="M-23.45 1.35 L-23.45 3.55 -21.0 3.55 -21.0 1.35 -23.45 1.35 M-28.85 1.25 L-28.85 3.7 -26.1 3.7 -26.1 1.25 -28.85 1.25 M18.8 -12.05 L-12.95 -12.05 -12.95 19.45 18.8 19.45 18.8 -12.05 M-7.6 -17.3 L-7.6 -19.9 -18.2 -19.9 -18.2 -17.3 -7.6 -17.3 M23.9 -22.4 L23.9 -19.95 34.65 -19.95 34.65 1.25 32.05 1.25 32.05 4.0 34.8 4.0 34.8 14.2 32.05 14.2 32.05 9.1 29.4 9.1 29.4 14.2 26.95 14.2 26.95 3.55 29.3 3.55 29.3 1.25 26.65 1.25 26.65 -12.05 24.05 -12.05 24.05 16.95 29.3 16.95 29.3 24.7 -28.7 24.7 -28.7 16.7 -15.6 16.7 -15.6 -14.5 -18.2 -14.5 -18.2 14.35 -20.85 14.35 -20.85 9.1 -23.45 9.1 -23.45 14.35 -26.25 14.35 -26.25 9.1 -28.7 9.1 -28.7 14.2 -33.8 14.2 -33.8 3.7 -31.2 3.7 -31.2 0.95 -33.8 0.95 -33.8 -19.75 -31.15 -20.2 -31.15 -22.65 -20.85 -22.65 -20.85 -19.9 -18.35 -19.9 -18.35 -22.65 -20.85 -22.65 -20.85 -25.15 0.15 -25.15 0.15 -17.3 -7.45 -17.3 -7.45 -14.95 21.55 -14.95 21.55 -17.3 23.9 -17.3 23.9 -19.9 21.4 -19.9 21.4 -25.4 26.8 -25.4 26.95 -22.4 23.9 -22.4" fill="#ffffff" fill-rule="evenodd" stroke="none"/>
    <path d="M-26.1 1.25 L-26.1 3.7 -28.85 3.7 -28.85 1.25 -26.1 1.25" fill="#000000" fill-rule="evenodd" stroke="none"/>
    <path d="M-21.0 1.35 L-21.0 3.55 -23.45 3.55 -23.45 1.35 -21.0 1.35" fill="#000000" fill-rule="evenodd" stroke="none"/>
    <path d="M-4.8 43.05 L-4.8 48.7 -23.45 48.7 -23.45 43.05 -4.8 43.05" fill="#ffffff" fill-rule="evenodd" stroke="none"/>
    <path d="M24.05 43.05 L24.05 48.45 8.15 48.45 8.15 43.05 24.05 43.05" fill="#ffffff" fill-rule="evenodd" stroke="none"/>
    <path d="M-12.95 -12.05 L18.8 -12.05 18.8 19.45 -12.95 19.45 -12.95 -12.05" fill="#000000" fill-rule="evenodd" stroke="none"/>
  </g>
</svg>
