<?xml version="1.0" encoding="UTF-8"?>
<svg width="99.25px" height="117.95px" version="1.1" xmlns="http://www.w3.org/2000/svg" xmlns:cc="http://creativecommons.org/ns#" xmlns:dc="http://purl.org/dc/elements/1.1/" xmlns:rdf="http://www.w3.org/1999/02/22-rdf-syntax-ns#">
 <metadata>
  <rdf:RDF>
   <cc:Work rdf:about="">
    <dc:format>image/svg+xml</dc:format>
    <dc:type rdf:resource="http://purl.org/dc/dcmitype/StillImage"/>
    <dc:title/>
   </cc:Work>
  </rdf:RDF>
 </metadata>
 <path d="m25.116 116.01h6.5219l0.69382-17.901 7.6321-2.359 5.1343 4.4405 0.69382 15.819 5.2731 0.13877 4.8568-16.235 6.5778-3.1606 5.6335 7.046-2.6365 1.8039 3.3031 5.0001 1.5537 5.1298 4.6963-0.92976 2.25-8.35 6.9302-6.2619 7.3545 15.542 5.6894 0.27753-0.27753-17.901-6.9382-27.614-10.685-12.35-18.178-5.4118-13.599-2.4978-1.4463-4.2828-4.6594-0.99024-3.4691 2.0815-3.0528-2.0815 0.97135-21.092 5.7099-22.968-3.6219 4.9839-7.1601 18.821-4.7109 19.145h-7.1464l2.208-23.906 5.3312-19.193-4.1222 6.0321-6.434 15.884-4.9061 20.998-3.7286 2.1587-4.4965 8.8701 2.8105 2.8802 7.4409 25.408-1.5571 6.9481 3.6947 2.7929 9.3365-1.1613z" fill="#fff"/>
 <g transform="translate(49.6 58.95)" fill-rule="evenodd">
  <path d="m-2.45 55.55h2.55l0.2-1.25h-2.75v1.25m27.9 0.3v-1.55h-3.6l0.1 1.55h3.5m-45.15-0.3v-1.25h-3.1v1.25h3.1m44.1-9.85q2.45-0.65 4.6-0.55l4.15-4.15-1.5-1.35-3.35 3.8q-4.05 1.15-5.9 2.95l2-0.7m-2.25 4q0 0.85-0.55 1.4l-0.15 0.15 0.3 2.25h3.7v-5.9q-2.25 0.4-3.4 1.4l0.1 0.7m-4.95-1.95 0.6 1q0.45 0.5 0.95 0.65l0.75-0.05q0.25-0.2 0.05-0.7l-0.6-1-0.95-0.65-0.7 0.05q-0.25 0.2-0.1 0.7m1.2-7.3-0.2-1.95q0.15-1.7 0.55-2.55-3.35 0.3-5.85 1.85l0.45 0.3q2.8 2.1 4.6 4.75l0.45-2.4m-21.85-53.45-0.35 0.2-2.35 1.8q-3.55 3.35-5.35 8.85 5-1.1 7.1-6.25 0.9-2.65 0.95-4.6m-18 15.65 0.05-0.15h-3.35l-0.05 0.15q0.05 1.9 1.4 3.25t3.2 1.35q1.9 0 3.25-1.35t1.35-3.25v-0.15h-1.5v0.15q0 0.9-0.6 1.55-0.65 0.65-1.55 0.65t-1.55-0.65-0.65-1.55m-18.25 0.6v0.05q0 1.85 1.3 3.15t3.15 1.3 3.15-1.3 1.3-3.15v-0.05h-1.35v0.05q0 0.9-0.6 1.55-0.65 0.65-1.55 0.65t-1.55-0.65-0.65-1.55v-0.05h-3.2m-0.25-16.65-0.05 0.05-1.5 2.05q-1.65 2.5-2.95 5.2h1.95v0.25l20.65 2.1 1.65-0.25q2.75 0 4.7 1.95t1.95 4.7-1.95 4.7-4.7 1.95-4.65-1.95q-1.95-1.95-1.95-4.7 0-2.6 1.7-4.45l-7.35-0.75q1.7 0.8 2.7 2.35 1 1.6 1 3.5 0 2.7-1.9 4.6t-4.6 1.9-4.6-1.9-1.9-4.6q0-2.25 1.4-4.05 1.4-1.7 3.55-2.25l-6-0.6v1q0 4.3 1.3 9.35 2 7.85 6.65 15.8l0.75 1.25-1.15 0.95-0.15 0.15-0.45 0.6q-0.75 1.05-0.75 2.35l0.35 1.75q0.45 1.3 1.4 1.85 0.6 0.4 1.5 0.4l22.5-3.45h0.15l0.6-0.15 1.75-0.8q1.15-0.75 1.65-1.55 0.7-1.05 0.75-2.65v-0.35l-0.1-0.65q-0.1-0.75-0.45-1.4-0.5-0.85-1.1-1.2-0.85-0.55-2.4-0.6l-2.8 0.3-0.6-21.95 0.85-0.1q2.15-6.3 6.4-9.8-0.9 0.25-1.65 0.65-2.7 1.5-3.85 4.8l-3.3-0.55v-4.7l-25-1.1m8.5-8.7h-4.35l-0.8 5.4 4.75 0.25 0.4-5.65m1.4-11.35h-3.4q-1.25 4.9-2.25 10.8h4.3q0.4-4.95 1.35-10.8m-1.2-7.45-2.05 6.9h3.35l1.35-6.9h-2.65m10.75 18.25h4.2q0.55-5.6 1.45-10.8h-3.35q-1.4 5.4-2.3 10.8m4.15 0.55h-4.25l-0.9 6.1 4.7 0.2 0.45-6.3m1.55-11.9 1.4-6.9h-2.6l-2.05 6.9h3.25m-12.5-12.2h-1.95l-1.8 4.85h2.55l1.2-4.85m15.2 0h-1.95l-1.8 4.85h2.55l1.2-4.85m1.2-4h-1.4l-1.55 3.55h1.85l1.1-3.55m1-2.9 1.75-4.55 0.2-0.4-2.95 4.95h1m-0.15 0.35h-1l-1.1 2.2h1.35l0.75-2.2m-15.2 0h-1.05l-1.05 2.15h1.4l0.7-2.15m-0.85-0.35h1l1.85-4.65 0.2-0.45-3.05 5.1m0 2.9h-1.45l-1.55 3.55h1.95l1.05-3.55m72.25 105.6 0.05-1.1h-3.05l0.2 1.1h2.8m-1.25-36.75q4.75 13.8 4.75 32.25l-0.15 6.35-0.15 1.55h-9.1l-0.2-2.45-0.5-2.45q-0.9-4.1-2.6-7.5-1.1-2-2.2-3.45l-2.8 2.85-1.1 0.85q-1.3 0.85-2.5 0.9l-0.55-0.05h-0.1l-0.05 10.6h-7.95v-1.15q0-2.65-0.5-5.3-1.35-0.3-2.65-1.45-1.8-1.65-1.9-3.55 0-0.85 0.5-1.4 0.5-0.5 1.3-0.6-1.3-2-3-3.55l-2.5-1.9q-2.35 2.05-4 5.15-2.85 5.3-3.5 12.1l-0.15 2.55h-9.15v-15.6l-0.15-0.6q-0.2-1-0.7-1.75-1.4-2.35-4.45-2.4-2.65 0-4.1 1.9-0.9 1.35-1.05 2.8v15.65h-9.9l-0.05-24.75-7.1 1q-1.7 0-3.2-0.8-2.1-1.25-2.95-3.75-0.5-1.45-0.5-2.85 0.05-2.7 1.6-4.65-4.55-8.05-6.5-16-1.3-5.3-1.3-9.8v-0.1h-3.4l0.95-2.35q2.15-5.35 5.45-9.7l1.75-2.15 2.45 0.1q1.05-7.8 3.55-16.15 4.25-14.15 11.45-25.25 0.85-0.85 1.3-0.75l0.2 0.4q0.15 0.6-0.25 1.8-5.8 15.4-6.65 40.4l5.55 0.25q1-7.9 3.7-16.85 4.25-14.15 11.35-25.3 0.75-0.85 1.25-0.7l0.15 0.25q0.15 0.4-0.05 1.2-6.05 16-6.95 41.8l2.85 0.15v2.2l2.15-1.55q2.6-1.35 5.7-1.35l1.65 0.1 1.4 0.25v1.45l-0.1 2.35-0.25 1.7q11.45 1.55 20.15 3.45 9.75 1.9 16.6 9.4 5.75 6.3 9.15 16.2m1.35 34.85v-2.6q0-17.8-4.55-31.1-7.1-20.25-23.25-23.45l-9.75-1.8-10.65-1.65q-1.4 3.35-4 5.3-1.85 1.4-3.95 2.05l0.4 15.4q2.15 0.1 3.85 1.2 1.45 1 2.15 2.4 0.9 1.75 0.9 3.25l0.05 0.05v0.7q0 2.5-1.3 4.5-1.05 1.65-2.7 2.6-1.2 0.7-2.55 1.15l-1.25 0.3-12.5 1.9 0.05 19.8h3.1v-10.2l0.2-1.3q0.3-1.4 1-2.65 0.95-1.75 2.65-2.8 2.05-1.35 4.7-1.3 2.65-0.05 4.75 1.25 1.7 1.1 2.65 2.8 1.15 2 1.3 3.95v10.25h2.85q0.8-4.45 2.45-8.45 2.2-5.3 6.05-8.55 4.8-4.05 11.4-4.05 7.3-0.05 12.7 3.9 4.3 3.2 6.95 8.5 2 3.9 3.05 8.65h3.25"/>
  <path d="m-7.8 25.95q-0.95 0.9-2.3 0.9-1.3 0-2.25-0.9-0.95-0.95-0.95-2.3 0-1.3 0.95-2.25t2.25-0.95q1.35 0 2.3 0.95t0.95 2.25q0 1.35-0.95 2.3"/>
 </g>
</svg>
