<?xml version="1.0" encoding="UTF-8" standalone="no"?>
<svg xmlns:xlink="http://www.w3.org/1999/xlink" height="117.95px" width="99.25px" xmlns="http://www.w3.org/2000/svg">
  <g transform="matrix(1.0, 0.0, 0.0, 1.0, 49.6, 58.95)">
    <path d="M18.2 38.5 L18.4 40.45 17.95 42.85 Q16.15 40.2 13.35 38.1 L12.9 37.8 Q15.4 36.25 18.75 35.95 18.35 36.8 18.2 38.5" fill="#ffffff" fill-rule="evenodd" stroke="none"/>
    <path d="M21.95 55.85 L21.85 54.3 25.45 54.3 25.45 55.85 21.95 55.85" fill="#ffffff" fill-rule="evenodd" stroke="none"/>
    <path d="M25.45 47.6 L25.45 53.5 21.75 53.5 21.45 51.25 21.6 51.1 Q22.15 50.55 22.15 49.7 L22.05 49.0 Q23.2 48.0 25.45 47.6" fill="#ffffff" fill-rule="evenodd" stroke="none"/>
    <path d="M-25.1 -53.1 L-26.1 -53.1 -23.05 -58.2 -23.25 -57.75 -25.1 -53.1" fill="#ffffff" fill-rule="evenodd" stroke="none"/>
    <path d="M-27.55 -50.2 L-26.1 -50.2 -27.15 -46.65 -29.1 -46.65 -27.55 -50.2" fill="#ffffff" fill-rule="evenodd" stroke="none"/>
    <path d="M-26.3 -52.75 L-25.25 -52.75 -25.95 -50.6 -27.35 -50.6 -26.3 -52.75" fill="#ffffff" fill-rule="evenodd" stroke="none"/>
    <path d="M-35.8 -22.1 L-31.45 -22.1 -31.85 -16.45 -36.6 -16.7 -35.8 -22.1" fill="#ffffff" fill-rule="evenodd" stroke="none"/>
    <path d="M-31.25 -40.9 L-28.6 -40.9 -29.95 -34.0 -33.3 -34.0 -31.25 -40.9" fill="#ffffff" fill-rule="evenodd" stroke="none"/>
    <path d="M-33.45 -33.45 L-30.05 -33.45 Q-31.0 -27.6 -31.4 -22.65 L-35.7 -22.65 Q-34.7 -28.55 -33.45 -33.45" fill="#ffffff" fill-rule="evenodd" stroke="none"/>
    <path d="M-29.25 -46.2 L-27.3 -46.2 -28.5 -41.35 -31.05 -41.35 -29.25 -46.2" fill="#ffffff" fill-rule="evenodd" stroke="none"/>
    <path d="M-16.0 -40.9 L-13.4 -40.9 -14.8 -34.0 -18.05 -34.0 -16.0 -40.9" fill="#ffffff" fill-rule="evenodd" stroke="none"/>
    <path d="M-14.05 -46.2 L-12.1 -46.2 -13.3 -41.35 -15.85 -41.35 -14.05 -46.2" fill="#ffffff" fill-rule="evenodd" stroke="none"/>
    <path d="M-12.3 -50.2 L-10.9 -50.2 -12.0 -46.65 -13.85 -46.65 -12.3 -50.2" fill="#ffffff" fill-rule="evenodd" stroke="none"/>
    <path d="M-20.6 -22.1 L-16.35 -22.1 -16.8 -15.8 -21.5 -16.0 -20.6 -22.1" fill="#ffffff" fill-rule="evenodd" stroke="none"/>
    <path d="M-11.05 -52.75 L-10.05 -52.75 -10.8 -50.55 -12.15 -50.55 -11.05 -52.75" fill="#ffffff" fill-rule="evenodd" stroke="none"/>
    <path d="M-18.2 -33.45 L-14.85 -33.45 Q-15.75 -28.25 -16.3 -22.65 L-20.5 -22.65 Q-19.6 -28.05 -18.2 -33.45" fill="#ffffff" fill-rule="evenodd" stroke="none"/>
    <path d="M-9.9 -53.1 L-10.9 -53.1 -7.95 -58.05 -8.15 -57.65 -9.9 -53.1" fill="#ffffff" fill-rule="evenodd" stroke="none"/>
    <path d="M28.3 43.45 L31.65 39.65 33.15 41.0 29.0 45.15 Q26.85 45.05 24.4 45.7 L22.4 46.4 Q24.25 44.6 28.3 43.45" fill="#ffffff" fill-rule="evenodd" stroke="none"/>
    <path d="M43.35 55.4 L43.15 54.3 46.2 54.3 46.15 55.4 43.35 55.4" fill="#ffffff" fill-rule="evenodd" stroke="none"/>
    <path d="M-2.45 55.55 L-2.45 54.3 0.3 54.3 0.1 55.55 -2.45 55.55" fill="#ffffff" fill-rule="evenodd" stroke="none"/>
    <path d="M-22.8 55.55 L-22.8 54.3 -19.7 54.3 -19.7 55.55 -22.8 55.55" fill="#ffffff" fill-rule="evenodd" stroke="none"/>
    <path d="M41.7 19.8 Q46.25 33.1 46.25 50.9 L46.25 53.5 43.0 53.5 Q41.95 48.75 39.95 44.85 37.3 39.55 33.0 36.35 27.6 32.4 20.3 32.45 13.7 32.45 8.9 36.5 5.05 39.75 2.85 45.05 1.2 49.05 0.4 53.5 L-2.45 53.5 -2.45 43.25 Q-2.6 41.3 -3.75 39.3 -4.7 37.6 -6.4 36.5 -8.5 35.2 -11.15 35.25 -13.8 35.2 -15.85 36.55 -17.55 37.6 -18.5 39.35 -19.2 40.6 -19.5 42.0 L-19.7 43.3 -19.7 53.5 -22.8 53.5 -22.85 33.7 -10.35 31.8 -9.1 31.5 Q-7.75 31.05 -6.55 30.35 -4.9 29.4 -3.85 27.75 -2.55 25.75 -2.55 23.25 L-2.55 22.55 -2.6 22.5 Q-2.6 21.0 -3.5 19.25 -4.2 17.85 -5.65 16.85 -7.35 15.75 -9.5 15.65 L-9.9 0.25 Q-7.8 -0.4 -5.95 -1.8 -3.35 -3.75 -1.95 -7.1 L8.7 -5.45 18.45 -3.65 Q34.6 -0.45 41.7 19.8" fill="#ffffff" fill-rule="evenodd" stroke="none"/>
    <path d="M-2.45 55.55 L0.1 55.55 0.3 54.3 -2.45 54.3 -2.45 55.55 M25.45 55.85 L25.45 54.3 21.85 54.3 21.95 55.85 25.45 55.85 M-19.7 55.55 L-19.7 54.3 -22.8 54.3 -22.8 55.55 -19.7 55.55 M24.4 45.7 Q26.85 45.05 29.0 45.15 L33.15 41.0 31.65 39.65 28.3 43.45 Q24.25 44.6 22.4 46.4 L24.4 45.7 M22.15 49.7 Q22.15 50.55 21.6 51.1 L21.45 51.25 21.75 53.5 25.45 53.5 25.45 47.6 Q23.2 48.0 22.05 49.0 L22.15 49.7 M17.2 47.75 L17.8 48.75 Q18.25 49.25 18.75 49.4 L19.5 49.35 Q19.75 49.15 19.55 48.65 L18.95 47.65 18.0 47.0 17.3 47.05 Q17.05 47.25 17.2 47.75 M18.4 40.45 L18.2 38.5 Q18.35 36.8 18.75 35.95 15.4 36.25 12.9 37.8 L13.35 38.1 Q16.15 40.2 17.95 42.85 L18.4 40.45 M-3.45 -13.0 L-3.8 -12.8 -6.15 -11.0 Q-9.7 -7.65 -11.5 -2.15 -6.5 -3.25 -4.4 -8.4 -3.5 -11.05 -3.45 -13.0 M-21.45 2.65 L-21.4 2.5 -24.75 2.5 -24.8 2.65 Q-24.75 4.55 -23.4 5.9 -22.05 7.25 -20.2 7.25 -18.3 7.25 -16.95 5.9 -15.6 4.55 -15.6 2.65 L-15.6 2.5 -17.1 2.5 -17.1 2.65 Q-17.1 3.55 -17.7 4.2 -18.35 4.85 -19.25 4.85 -20.15 4.85 -20.8 4.2 -21.45 3.55 -21.45 2.65 M-39.7 3.25 L-39.7 3.3 Q-39.7 5.15 -38.4 6.45 -37.1 7.75 -35.25 7.75 -33.4 7.75 -32.1 6.45 -30.8 5.15 -30.8 3.3 L-30.8 3.25 -32.15 3.25 -32.15 3.3 Q-32.15 4.2 -32.75 4.85 -33.4 5.5 -34.3 5.5 -35.2 5.5 -35.85 4.85 -36.5 4.2 -36.5 3.3 L-36.5 3.25 -39.7 3.25 M-39.95 -13.4 L-40.0 -13.35 -41.5 -11.3 Q-43.15 -8.8 -44.45 -6.1 L-42.5 -6.1 -42.5 -5.85 -21.85 -3.75 -20.2 -4.0 Q-17.45 -4.0 -15.5 -2.05 -13.55 -0.1 -13.55 2.65 -13.55 5.4 -15.5 7.35 -17.45 9.3 -20.2 9.3 -22.95 9.3 -24.85 7.35 -26.8 5.4 -26.8 2.65 -26.8 0.05 -25.1 -1.8 L-32.45 -2.55 Q-30.75 -1.75 -29.75 -0.2 -28.75 1.4 -28.75 3.3 -28.75 6.0 -30.65 7.9 -32.55 9.8 -35.25 9.8 -37.95 9.8 -39.85 7.9 -41.75 6.0 -41.75 3.3 -41.75 1.05 -40.35 -0.75 -38.95 -2.45 -36.8 -3.0 L-42.8 -3.6 -42.8 -2.6 Q-42.8 1.7 -41.5 6.75 -39.5 14.6 -34.85 22.55 L-34.1 23.8 -35.25 24.75 -35.4 24.9 -35.85 25.5 Q-36.6 26.55 -36.6 27.85 L-36.25 29.6 Q-35.8 30.9 -34.85 31.45 -34.25 31.85 -33.35 31.85 L-10.85 28.4 -10.7 28.4 -10.1 28.25 -8.35 27.45 Q-7.2 26.7 -6.7 25.9 -6.0 24.85 -5.95 23.25 L-5.95 22.9 -6.05 22.25 Q-6.15 21.5 -6.5 20.85 -7.0 20.0 -7.6 19.65 -8.45 19.1 -10.0 19.05 L-12.8 19.35 -13.4 -2.6 -12.55 -2.7 Q-10.4 -9.0 -6.15 -12.5 -7.05 -12.25 -7.8 -11.85 -10.5 -10.35 -11.65 -7.05 L-14.95 -7.6 -14.95 -12.3 -39.95 -13.4 M-31.45 -22.1 L-35.8 -22.1 -36.6 -16.7 -31.85 -16.45 -31.45 -22.1 M-30.05 -33.45 L-33.45 -33.45 Q-34.7 -28.55 -35.7 -22.65 L-31.4 -22.65 Q-31.0 -27.6 -30.05 -33.45 M-31.25 -40.9 L-33.3 -34.0 -29.95 -34.0 -28.6 -40.9 -31.25 -40.9 M-20.5 -22.65 L-16.3 -22.65 Q-15.75 -28.25 -14.85 -33.45 L-18.2 -33.45 Q-19.6 -28.05 -20.5 -22.65 M-16.35 -22.1 L-20.6 -22.1 -21.5 -16.0 -16.8 -15.8 -16.35 -22.1 M-14.8 -34.0 L-13.4 -40.9 -16.0 -40.9 -18.05 -34.0 -14.8 -34.0 M-27.3 -46.2 L-29.25 -46.2 -31.05 -41.35 -28.5 -41.35 -27.3 -46.2 M-12.1 -46.2 L-14.05 -46.2 -15.85 -41.35 -13.3 -41.35 -12.1 -46.2 M-10.9 -50.2 L-12.3 -50.2 -13.85 -46.65 -12.0 -46.65 -10.9 -50.2 M-9.9 -53.1 L-8.15 -57.65 -7.95 -58.05 -10.9 -53.1 -9.9 -53.1 M-10.05 -52.75 L-11.05 -52.75 -12.15 -50.55 -10.8 -50.55 -10.05 -52.75 M-25.25 -52.75 L-26.3 -52.75 -27.35 -50.6 -25.95 -50.6 -25.25 -52.75 M-26.1 -53.1 L-25.1 -53.1 -23.25 -57.75 -23.05 -58.2 -26.1 -53.1 M-26.1 -50.2 L-27.55 -50.2 -29.1 -46.65 -27.15 -46.65 -26.1 -50.2 M46.15 55.4 L46.2 54.3 43.15 54.3 43.35 55.4 46.15 55.4 M44.9 18.65 Q49.65 32.45 49.65 50.9 L49.5 57.25 49.35 58.8 40.25 58.8 40.05 56.35 39.55 53.9 Q38.65 49.8 36.95 46.4 35.85 44.4 34.75 42.95 L31.95 45.8 30.85 46.65 Q29.55 47.5 28.35 47.55 L27.8 47.5 27.7 47.5 27.65 58.1 19.7 58.1 19.7 56.95 Q19.7 54.3 19.2 51.65 17.85 51.35 16.55 50.2 14.75 48.55 14.65 46.65 14.65 45.8 15.15 45.25 15.65 44.75 16.45 44.65 15.15 42.65 13.45 41.1 L10.95 39.2 Q8.6 41.25 6.95 44.35 4.1 49.65 3.45 56.45 L3.3 59.0 -5.85 59.0 -5.85 43.4 -6.0 42.8 Q-6.2 41.8 -6.7 41.05 -8.1 38.7 -11.15 38.65 -13.8 38.65 -15.25 40.55 -16.15 41.9 -16.3 43.35 L-16.3 59.0 -26.2 59.0 -26.25 34.25 -33.35 35.25 Q-35.05 35.25 -36.55 34.45 -38.65 33.2 -39.5 30.7 -40.0 29.25 -40.0 27.85 -39.95 25.15 -38.4 23.2 -42.95 15.15 -44.9 7.2 -46.2 1.9 -46.2 -2.6 L-46.2 -2.7 -49.6 -2.7 -48.65 -5.05 Q-46.5 -10.4 -43.2 -14.75 L-41.45 -16.9 -39.0 -16.8 Q-37.95 -24.6 -35.45 -32.95 -31.2 -47.1 -24.0 -58.2 -23.15 -59.05 -22.7 -58.95 L-22.5 -58.55 Q-22.35 -57.95 -22.75 -56.75 -28.55 -41.35 -29.4 -16.35 L-23.85 -16.1 Q-22.85 -24.0 -20.15 -32.95 -15.9 -47.1 -8.8 -58.25 -8.05 -59.1 -7.55 -58.95 L-7.4 -58.7 Q-7.25 -58.3 -7.45 -57.5 -13.5 -41.5 -14.4 -15.7 L-11.55 -15.55 -11.55 -13.35 -9.4 -14.9 Q-6.8 -16.25 -3.7 -16.25 L-2.05 -16.15 -0.65 -15.9 -0.65 -14.45 -0.75 -12.1 -1.0 -10.4 Q10.45 -8.85 19.15 -6.95 28.9 -5.05 35.75 2.45 41.5 8.75 44.9 18.65 M46.25 53.5 L46.25 50.9 Q46.25 33.1 41.7 19.8 34.6 -0.45 18.45 -3.65 L8.7 -5.45 -1.95 -7.1 Q-3.35 -3.75 -5.95 -1.8 -7.8 -0.4 -9.9 0.25 L-9.5 15.65 Q-7.35 15.75 -5.65 16.85 -4.2 17.85 -3.5 19.25 -2.6 21.0 -2.6 22.5 L-2.55 22.55 -2.55 23.25 Q-2.55 25.75 -3.85 27.75 -4.9 29.4 -6.55 30.35 -7.75 31.05 -9.1 31.5 L-10.35 31.8 -22.85 33.7 -22.8 53.5 -19.7 53.5 -19.7 43.3 -19.5 42.0 Q-19.2 40.6 -18.5 39.35 -17.55 37.6 -15.85 36.55 -13.8 35.2 -11.15 35.25 -8.5 35.2 -6.4 36.5 -4.7 37.6 -3.75 39.3 -2.6 41.3 -2.45 43.25 L-2.45 53.5 0.4 53.5 Q1.2 49.05 2.85 45.05 5.05 39.75 8.9 36.5 13.7 32.45 20.3 32.45 27.6 32.4 33.0 36.35 37.3 39.55 39.95 44.85 41.95 48.75 43.0 53.5 L46.25 53.5" fill="#000000" fill-rule="evenodd" stroke="none"/>
    <path d="M-10.1 20.45 Q-11.4 20.45 -12.35 21.4 -13.3 22.35 -13.3 23.65 -13.3 25.0 -12.35 25.95 -11.4 26.85 -10.1 26.85 -8.75 26.85 -7.8 25.95 -6.85 25.0 -6.85 23.65 -6.85 22.35 -7.8 21.4 -8.75 20.45 -10.1 20.45 M-41.5 -11.3 L-40.0 -13.35 -39.95 -13.4 -14.95 -12.3 -14.95 -7.6 -11.65 -7.05 Q-10.5 -10.35 -7.8 -11.85 -7.05 -12.25 -6.15 -12.5 -10.4 -9.0 -12.55 -2.7 L-13.4 -2.6 -12.8 19.35 -10.0 19.05 Q-8.45 19.1 -7.6 19.65 -7.0 20.0 -6.5 20.85 -6.15 21.5 -6.05 22.25 L-5.95 22.9 -5.95 23.25 Q-6.0 24.85 -6.7 25.9 -7.2 26.7 -8.35 27.45 L-10.1 28.25 -10.7 28.4 -10.85 28.4 -33.35 31.85 Q-34.25 31.85 -34.85 31.45 -35.8 30.9 -36.25 29.6 L-36.6 27.85 Q-36.6 26.55 -35.85 25.5 L-35.4 24.9 -35.25 24.75 -34.1 23.8 -34.85 22.55 Q-39.5 14.6 -41.5 6.75 -42.8 1.7 -42.8 -2.6 L-42.8 -3.6 -36.8 -3.0 Q-38.95 -2.45 -40.35 -0.75 -41.75 1.05 -41.75 3.3 -41.75 6.0 -39.85 7.9 -37.95 9.8 -35.25 9.8 -32.55 9.8 -30.65 7.9 -28.75 6.0 -28.75 3.3 -28.75 1.4 -29.75 -0.2 -30.75 -1.75 -32.45 -2.55 L-25.1 -1.8 Q-26.8 0.05 -26.8 2.65 -26.8 5.4 -24.85 7.35 -22.95 9.3 -20.2 9.3 -17.45 9.3 -15.5 7.35 -13.55 5.4 -13.55 2.65 -13.55 -0.1 -15.5 -2.05 -17.45 -4.0 -20.2 -4.0 L-21.85 -3.75 -42.5 -5.85 -42.5 -6.1 -44.45 -6.1 Q-43.15 -8.8 -41.5 -11.3" fill="#ffffff" fill-rule="evenodd" stroke="none"/>
    <path d="M-7.8 25.95 Q-8.75 26.85 -10.1 26.85 -11.4 26.85 -12.35 25.95 -13.3 25.0 -13.3 23.65 -13.3 22.35 -12.35 21.4 -11.4 20.45 -10.1 20.45 -8.75 20.45 -7.8 21.4 -6.85 22.35 -6.85 23.65 -6.85 25.0 -7.8 25.95" fill="#000000" fill-rule="evenodd" stroke="none"/>
    <path d="M17.3 47.05 L18.0 47.0 18.95 47.65 19.55 48.65 Q19.75 49.15 19.5 49.35 L18.75 49.4 Q18.25 49.25 17.8 48.75 L17.2 47.75 Q17.05 47.25 17.3 47.05" fill="#ffffff" fill-rule="evenodd" stroke="none"/>
    <path d="M-6.15 -11.0 L-3.8 -12.8 -3.45 -13.0 Q-3.5 -11.05 -4.4 -8.4 -6.5 -3.25 -11.5 -2.15 -9.7 -7.65 -6.15 -11.0" fill="#ffffff" fill-rule="evenodd" stroke="none"/>
    <path d="M-39.7 3.25 L-36.5 3.25 -36.5 3.3 Q-36.5 4.2 -35.85 4.85 -35.2 5.5 -34.3 5.5 -33.4 5.5 -32.75 4.85 -32.15 4.2 -32.15 3.3 L-32.15 3.25 -30.8 3.25 -30.8 3.3 Q-30.8 5.15 -32.1 6.45 -33.4 7.75 -35.25 7.75 -37.1 7.75 -38.4 6.45 -39.7 5.15 -39.7 3.3 L-39.7 3.25" fill="#ffffff" fill-rule="evenodd" stroke="none"/>
    <path d="M-24.75 2.5 L-21.4 2.5 -21.45 2.65 Q-21.45 3.55 -20.8 4.2 -20.15 4.85 -19.25 4.85 -18.35 4.85 -17.7 4.2 -17.1 3.55 -17.1 2.65 L-17.1 2.5 -15.6 2.5 -15.6 2.65 Q-15.6 4.55 -16.95 5.9 -18.3 7.25 -20.2 7.25 -22.05 7.25 -23.4 5.9 -24.75 4.55 -24.8 2.65 L-24.75 2.5" fill="#ffffff" fill-rule="evenodd" stroke="none"/>
  </g>
</svg>
