<?xml version="1.0" encoding="UTF-8" standalone="no"?>
<svg xmlns:xlink="http://www.w3.org/1999/xlink" height="84.35px" width="75.65px" xmlns="http://www.w3.org/2000/svg">
  <g transform="matrix(1.0, 0.0, 0.0, 1.0, 37.8, 42.15)">
    <path d="M-0.7 -39.25 L3.95 -38.95 4.15 -37.95 Q4.05 -36.6 2.8 -35.9 L-0.75 -36.1 -0.75 -39.25 -0.7 -39.25" fill="#ffffff" fill-rule="evenodd" stroke="none"/>
    <path d="M-4.85 -32.8 L-4.05 -33.4 -4.05 -32.65 -0.75 -32.65 -0.75 -35.15 2.9 -34.9 5.6 -34.3 7.65 -33.5 -6.0 -31.15 -4.85 -32.8" fill="#ffffff" fill-rule="evenodd" stroke="none"/>
    <path d="M15.95 -34.9 L15.75 -35.45 16.65 -35.0 15.95 -34.9" fill="#ffffff" fill-rule="evenodd" stroke="none"/>
    <path d="M5.1 -37.95 L5.0 -38.85 Q10.05 -38.1 14.3 -36.2 L14.9 -35.0 15.0 -34.7 8.9 -33.7 Q8.2 -34.5 5.9 -35.25 L4.1 -35.65 Q5.1 -36.6 5.1 -37.95" fill="#ffffff" fill-rule="evenodd" stroke="none"/>
    <path d="M-4.05 -36.3 L-6.15 -36.4 -4.35 -34.35 Q-6.55 -32.95 -7.05 -31.0 L-19.45 -28.9 Q-18.6 -30.4 -16.55 -31.25 L-13.7 -32.0 -10.6 -32.0 -10.6 -33.0 -13.15 -33.0 -12.95 -34.85 -17.2 -35.4 Q-11.3 -38.5 -4.05 -39.1 L-4.05 -36.3" fill="#ffffff" fill-rule="evenodd" stroke="none"/>
    <path d="M-19.8 -33.9 L-18.55 -34.65 -14.0 -34.0 -14.15 -32.95 Q-19.15 -32.15 -20.6 -28.7 L-25.65 -27.85 Q-23.65 -31.3 -19.8 -33.9" fill="#ffffff" fill-rule="evenodd" stroke="none"/>
    <path d="M-29.35 21.45 L-29.35 38.35 31.85 38.35 30.9 21.45 -29.35 21.45 M28.4 -22.05 L11.25 -16.55 11.25 13.75 -10.75 13.75 -10.75 -16.25 -29.35 -16.25 -29.35 16.65 30.65 16.65 28.4 -22.05 M28.3 -24.05 L27.8 -32.95 -29.35 -23.3 -29.35 -18.2 -8.8 -18.2 -8.8 11.85 9.35 11.85 9.35 -17.95 28.3 -24.05 M15.95 -34.9 L16.65 -35.0 15.75 -35.45 15.95 -34.9 M-20.6 -28.7 Q-19.15 -32.15 -14.15 -32.95 L-14.0 -34.0 -18.55 -34.65 -19.8 -33.9 Q-23.65 -31.3 -25.65 -27.85 L-20.6 -28.7 M-4.85 -32.8 L-6.0 -31.15 7.65 -33.5 5.6 -34.3 2.9 -34.9 -0.75 -35.15 -0.75 -32.65 -4.05 -32.65 -4.05 -33.4 -4.85 -32.8 M-6.15 -36.4 L-4.05 -36.3 -4.05 -39.1 Q-11.3 -38.5 -17.2 -35.4 L-12.95 -34.85 -13.15 -33.0 -10.6 -33.0 -10.6 -32.0 -13.7 -32.0 -16.55 -31.25 Q-18.6 -30.4 -19.45 -28.9 L-7.05 -31.0 Q-6.55 -32.95 -4.35 -34.35 L-6.15 -36.4 M14.3 -36.2 Q10.05 -38.1 5.0 -38.85 L5.1 -37.95 Q5.1 -36.6 4.1 -35.65 L5.9 -35.25 Q8.2 -34.5 8.9 -33.7 L15.0 -34.7 14.9 -35.0 14.3 -36.2 M-0.7 -39.25 L-0.75 -39.25 -0.75 -36.1 2.8 -35.9 Q4.05 -36.6 4.15 -37.95 L3.95 -38.95 -0.7 -39.25 M-0.7 -42.15 Q5.25 -42.15 10.65 -40.6 15.95 -39.05 20.05 -36.25 L20.85 -35.7 31.4 -37.5 32.9 -10.9 Q35.2 -9.1 36.5 -6.25 37.85 -3.3 37.85 0.1 37.85 6.1 34.1 10.0 L35.95 42.2 -33.2 42.2 -33.2 11.6 Q-35.3 10.05 -36.55 7.55 -37.8 4.9 -37.8 1.85 -37.8 -1.2 -36.55 -3.85 -35.3 -6.4 -33.2 -7.95 L-33.2 -26.6 -29.15 -27.25 Q-27.0 -32.5 -21.45 -36.25 -17.35 -39.05 -12.05 -40.6 -6.65 -42.15 -0.7 -42.15" fill="#000000" fill-rule="evenodd" stroke="none"/>
    <path d="M11.25 -16.55 L28.4 -22.05 30.65 16.65 -29.35 16.65 -29.35 -16.25 -10.75 -16.25 -10.75 13.75 11.25 13.75 11.25 -16.55 M23.15 -13.7 Q21.55 -15.3 19.3 -15.3 17.05 -15.3 15.45 -13.7 13.85 -12.1 13.85 -9.85 13.85 -7.6 15.45 -6.0 17.05 -4.4 19.3 -4.4 21.55 -4.4 23.15 -6.0 24.75 -7.6 24.75 -9.85 24.75 -12.1 23.15 -13.7 M-17.7 -11.4 Q-18.75 -12.4 -20.2 -12.4 -21.65 -12.4 -22.7 -11.4 -23.75 -10.35 -23.75 -8.9 -23.75 -7.45 -22.7 -6.4 -21.65 -5.35 -20.2 -5.35 -18.75 -5.35 -17.7 -6.4 -16.7 -7.45 -16.7 -8.9 -16.7 -10.35 -17.7 -11.4" fill="#ffffff" fill-rule="evenodd" stroke="none"/>
    <path d="M11.25 27.2 L-10.25 27.2 -10.25 29.25 11.25 29.25 11.25 27.2 M-29.35 38.35 L-29.35 21.45 30.9 21.45 31.85 38.35 -29.35 38.35" fill="#ffffff" fill-rule="evenodd" stroke="none"/>
    <path d="M27.8 -32.95 L28.3 -24.05 9.35 -17.95 9.35 11.85 -8.8 11.85 -8.8 -18.2 -29.35 -18.2 -29.35 -23.3 27.8 -32.95" fill="#ffffff" fill-rule="evenodd" stroke="none"/>
    <path d="M-22.7 -11.4 Q-21.65 -12.4 -20.2 -12.4 -18.75 -12.4 -17.7 -11.4 -16.7 -10.35 -16.7 -8.9 -16.7 -7.45 -17.7 -6.4 -18.75 -5.35 -20.2 -5.35 -21.65 -5.35 -22.7 -6.4 -23.75 -7.45 -23.75 -8.9 -23.75 -10.35 -22.7 -11.4" fill="#000000" fill-rule="evenodd" stroke="none"/>
    <path d="M19.3 -15.3 Q21.55 -15.3 23.15 -13.7 24.75 -12.1 24.75 -9.85 24.75 -7.6 23.15 -6.0 21.55 -4.4 19.3 -4.4 17.05 -4.4 15.45 -6.0 13.85 -7.6 13.85 -9.85 13.85 -12.1 15.45 -13.7 17.05 -15.3 19.3 -15.3" fill="#000000" fill-rule="evenodd" stroke="none"/>
    <path d="M11.25 29.25 L-10.25 29.25 -10.25 27.2 11.25 27.2 11.25 29.25" fill="#000000" fill-rule="evenodd" stroke="none"/>
  </g>
</svg>
