<?xml version="1.0" encoding="UTF-8"?>
<svg width="187.9px" height="109.65px" version="1.1" xmlns="http://www.w3.org/2000/svg" xmlns:cc="http://creativecommons.org/ns#" xmlns:dc="http://purl.org/dc/elements/1.1/" xmlns:rdf="http://www.w3.org/1999/02/22-rdf-syntax-ns#">
 <metadata>
  <rdf:RDF>
   <cc:Work rdf:about="">
    <dc:format>image/svg+xml</dc:format>
    <dc:type rdf:resource="http://purl.org/dc/dcmitype/StillImage"/>
    <dc:title/>
   </cc:Work>
  </rdf:RDF>
 </metadata>
 <g transform="translate(93.95 54.8)" fill-rule="evenodd">
  <path d="m47.9-34.65c8.4 6.2 15.35 13.817 20.85 22.85 5.6 9.1667 9.4 19.283 11.4 30.35 0.03333 0.36667 0.21667 0.71667 0.55 1.05l0.35 0.4c1.8 1.9 3.5 4.2167 5.1 6.95 2.5 4.2333 3.7333 8.05 3.7 11.45v0.3c0 4.1667-0.7 7.1167-2.1 8.85-1.6333 2.1-4.65 3.1667-9.05 3.2-43.061 2.2376-119.47 0.03763-160.75 0-2.5-0.03333-4.4333-1-5.8-2.9l-1-2.1-0.25-0.9-0.55-4.15-0.2-4.2c0-11.833 2.2833-23.15 6.85-33.95 4.4333-10.4 10.667-19.633 18.7-27.7 8.0667-8.0667 17.3-14.3 27.7-18.7 10.8-4.5667 22.117-6.85 33.95-6.85 17.167 0.06667 32.517 4.3833 46.05 12.95" fill="#fff"/>
  <g>
   <path d="m84.1 17.2 4.65 6.1q5.2 8.05 5.2 15.1v0.35q0 7.55-2.95 11.35-3.7 4.75-12.3 4.75h-160.85q-3.2 0-5.7-1.5-2.1-1.2-3.4-3.2-0.95-1.45-1.5-3.15l-0.4-1.55-0.6-4.35-0.2-4.6q0-18.6 7.2-35.55 6.9-16.4 19.55-29 12.65-12.65 29-19.6 17-7.15 35.55-7.15 33.15-0.05 57.15 20.15 23.65 19.9 29.6 51.85m-53.35-45.5q-0.9 0-1.55-0.8-0.55-0.65-0.45-1.5 0.05-0.8 0.7-1.35l4-2.55q4.8-2.55 9.95-3.25-20.3-12.85-46.05-12.95-17.75 0-33.95 6.85-15.6 6.6-27.7 18.7-12.05 12.1-18.7 27.7-6.85 16.2-6.85 33.95l0.2 4.2 0.55 4.15 0.25 0.9 1 2.1q2.05 2.85 5.8 2.9h60.6l0.5-0.25 0.3-0.05 1-0.35q1.45-0.55 2.95-1.7 4.25-3.45 4.3-9.95l-0.05-1.25q-0.5-7.25-5.75-10.85-3.15-2.15-7.15-2.65l-0.5-0.05h-0.05q-3.4-0.3-7.6-1.55-8.4-2.45-12.95-7.15-4.05-4.4-4.05-10.15 0-0.65 0.5-1.1 0.5-0.5 1.15-0.5t1.1 0.5q0.5 0.45 0.5 1.1 0 4.8 3.4 8.2l-0.15-1.85q0-2.25 0.85-4.2l0.6-0.55 0.75 0.05 0.6 0.6q0.15 0.4-0.05 0.75-0.7 1.55-0.7 3.35 0 2.3 1 4.15l0.05 0.05 0.2 0.15q4.55 2.95 11.65 4.4l3.45 0.55 2.6 0.45q2.75 0.6 5.15 1.9 3.45 1.8 5.6 5 2.7 3.9 3 9.2l0.05 1.45q0 7.9-5.3 12.3h75.6q-5.7-4.2-5.7-10.75l0.05-0.95q0.5-7 5.25-12.2v-0.1l1.25-3.65q1.85-3.8 5.15-5.2 0.4-0.15 0.75 0l0.55 0.6q0.2 0.4 0.05 0.75l-0.6 0.55q-2.45 0.95-4 4.2 3.35-2.45 6.45-3.2l1.15 0.2q0.55 0.35 0.7 0.95 0.15 0.65-0.2 1.2l-0.95 0.65q-1.65 0.4-3.55 1.5-2.25 1.3-4 3.1-4.5 4.6-4.9 10.85l-0.05 0.75q0 4.8 4.2 8.1 2.15 1.6 5.15 2.65h10.85q6.6-0.05 9.05-3.2 2.1-2.6 2.1-8.85v-0.3q0.05-5.1-3.7-11.45-2.4-4.1-5.1-6.95l-0.35-0.4q-0.5-0.5-0.55-1.05-3-16.6-11.4-30.35-8.25-13.55-20.85-22.85-0.55 0.8-1.55 0.8-3 0-6.35 1.05 2.1 0.25 5.15 1.75 0.9 0.45 0.45 1.4-0.3 0.55-0.9 0.55l-0.5-0.1q-3.25-1.6-5.1-1.6l-1.6 0.25q3.95 1.65 7.45 4.4l0.4 0.7-0.2 0.75q-0.3 0.4-0.8 0.4-0.4 0-0.65-0.2l-4.05-2.65q-3.05-1.8-5.65-2.4l-1 0.05-0.7 0.55-0.25 0.15q-0.6 0.5-1.3 0.5"/>
   <path d="m5.05 19.55q-1.75-2.8-3.9-2.45-2.25 0.35-1.2 3.5l5.1-1.05m5-6.7q-1.45-1.1-3-0.55t-1.55 2.55l0.35 1.9 0.85 2.3 5.6-2.25-1.15-2.7-1.1-1.25m9.1-3.1q-1.35-2.05-3.55-1.6-2.25 0.5-2.4 3.7-0.05 1.85 0.6 4.25l6.5-3.3q-0.35-1.85-1.15-3.05m-24.15 10.95 2.7 0.1 0.4-0.15 0.1-1.05q-0.2-1.05-1.4-0.8-1.2 0.2-1.7 1-0.35 0.45-0.35 0.85l0.25 0.05m-0.25-32.9-1.8-0.05q-0.75 0.2-1.1 1.45-0.35 1.2 0.2 1.65 0.25 0.25 0.6 0.2 1.4 0.6 2.05-0.35 0.7-0.95 0.85-1.5 0.15-0.3 0.15-0.65-0.05-0.7-0.95-0.75m6.55-3.3q1.2-1.6-0.85-2.15l-2.3-0.25h-0.85q-1 0.35-1.9 1.95-0.85 1.6 0.3 2.35 0.6 0.4 1.35 0.45l1.85-0.1q1.1-0.5 2.4-2.25m6-2.15q0.95-0.15 1.55-0.6 0.9-0.6 0.75-1.5l-0.05-0.05q0.15-1.8-0.9-2.35l-1.1-0.2-3.6 0.5q-1.1 0.3-1.35 1.25l-0.05 0.9 0.25 1.6 0.2 0.55q0.7 0.85 2.25 0.75l2.05-0.85m5.6-6.85-1.2 0.4q-1.2 0.7-0.95 2.2l0.05 1.7 0.5 0.75q0.75 0.75 2.15 0.65l3.3-0.5 1.1-0.5q1.1-0.7 0.9-1.9-0.25-1.5-0.95-2.2-0.8-0.75-2.35-0.7l-2.55 0.1m30.7 39.15q0.95-4.85-1.85-5.25-2.3-0.35-3 2.05l3.1 1.9 1.75 1.3m7.35 2.8q-2.5 1.45-6.4-0.15l-3.4-1.95q-5.95-4.5-12.4-3.4-3.9 0.65-11.5 4.75-5.05 2.7-9.05 4.1-5.3 1.8-10 1.8-9.85 0.1-13.75-4.75-2.6-3.2-2.9-9.65 0.1-5.25 1.55-10.25 4.35-14.55 17.75-21.75 13.35-7.2 27.9-2.85 12.65 3.8 19.95 14.75 7.2 10.85 6 23.75-0.9 4-3.75 5.6m-6.55-2.3q1.4 0.9 2.7 1.2l0.15-1.25q-0.15-1.05-1.15-1.1-1.3-0.05-1.7 1.15m-18.6-10.1q-3.1-0.2-3.85 2.85-0.4 1.55-0.15 3.15l0.15 1q4.35-1.85 7.5-2.25 0.65-4.4-3.65-4.75m5.85 4.6q3.2 0.1 6.15 1.35h0.2q0.3-1.4 0.05-2.8-0.5-2.85-3.35-2.9-3.55-0.05-3.05 4.35m5.15-15.45 1.9-1.25q0.35-0.6-0.35-1.45-0.45-0.55-1.2-0.45l-0.65 0.2-1.5 0.95q-0.5 0.25-0.45 0.75l0.45 1.05q0.45 0.8 1.8 0.2m-1.75-15.7-1.75-0.65-0.85-0.25-1.4-0.15q-1.5 0.2-1.7 2.05l-0.2 1.05q0.1 1.1 1.55 1.45l2.5 0.7 0.95 0.1q1.05-0.15 1.55-1.1 1.2-2.25-0.65-3.2m8.55 8.35-2-0.1-1.65 1.6-0.5 0.8q-0.3 0.95 0.5 1.9t1.65 0.65l0.75-0.5 1.25-1.2q0.95-1.05 0.6-2.2l-0.6-0.95m-2.45-1.15q1.1-1.1 1.05-1.75l-0.5-0.9-1.05-0.95-0.75-0.55q-0.35-0.3-0.85-0.45-0.95-0.35-1.65 0.4l-1.05 1.3-0.2 0.65q-0.05 0.8 0.65 1.25l1.7 1.35 0.75 0.5q0.9 0.25 1.9-0.85m-14-9.3-1.3-0.55-2.25-0.35q-2.1-0.4-2.65 0.25-0.15 0.15-0.8 2.3-0.4 1.4 0.55 2.05 0.45 0.3 1 0.35l1.7 0.35 2.35 0.15q1.25 0.35 1.85-0.5l0.35-0.95q0.4-2.15-0.8-3.1"/>
   <path d="m-15.65-35.6q-0.2-0.8 0.25-1.55 0.5-0.7 1.3-0.9l6.25-0.7q6.65 0.05 12.75 3 3.1 1.5 4.95 3.05 0.65 0.55 0.7 1.4t-0.5 1.5q-0.6 0.7-1.55 0.7-0.8 0-1.35-0.5l-1.45-1-0.7 0.1-3.8 1q-5.8 1.95-8.5 5.55-0.3 0.4-0.8 0.4l-0.65-0.2-0.4-0.7 0.2-0.75q2.7-3.45 7.8-5.6-4.65 0.4-6.6 1.55l-0.5 0.1q-0.6 0-0.9-0.5l-0.1-0.8 0.5-0.6q3.3-1.8 9.9-1.9-4.65-1.7-9-1.7l-5.35 0.6-1.55-0.25q-0.7-0.45-0.9-1.3"/>
  </g>
 </g>
</svg>
