<?xml version="1.0" encoding="UTF-8" standalone="no"?>
<svg xmlns:xlink="http://www.w3.org/1999/xlink" height="133.45px" width="76.65px" xmlns="http://www.w3.org/2000/svg">
  <g transform="matrix(1.0, 0.0, 0.0, 1.0, 38.3, 66.7)">
    <path d="M30.65 20.85 Q11.15 32.8 -11.85 27.85 -19.05 26.25 -25.7 23.2 L-30.95 20.45 -28.35 62.2 27.7 62.2 30.65 20.85 M13.5 -18.6 L12.45 -27.7 17.25 -31.05 15.75 -46.4 1.9 -46.4 1.9 -25.85 3.65 -21.5 11.5 -20.45 16.55 -14.25 17.55 -15.2 17.25 -15.05 16.2 -27.7 14.75 -26.65 15.65 -18.85 15.65 -18.75 Q15.65 -17.8 14.7 -17.7 14.25 -17.65 13.9 -17.9 L13.5 -18.6 M-1.5 -36.55 L-4.75 -36.55 Q-4.4 -35.95 -4.4 -35.3 -4.4 -34.2 -5.15 -33.45 -5.9 -32.7 -7.0 -32.7 -8.1 -32.7 -8.85 -33.45 -9.65 -34.2 -9.65 -35.3 L-9.3 -36.55 -15.2 -36.55 -19.0 2.6 20.55 2.6 18.9 -13.85 16.0 -10.95 10.1 -17.55 1.75 -18.85 -1.5 -25.55 -1.5 -36.55 M2.2 -53.1 L-13.55 -53.1 -14.95 -38.95 -1.5 -38.95 -1.5 -48.65 2.2 -53.1 M15.6 -47.5 L15.3 -50.95 4.25 -50.95 1.9 -48.3 1.9 -47.5 15.6 -47.5 M11.15 -66.7 Q16.3 -66.7 20.0 -62.65 23.7 -58.6 23.7 -52.95 L23.7 -46.65 Q23.7 -42.75 21.8 -39.45 L23.45 -23.0 38.35 -23.0 31.55 66.75 -32.3 66.75 -38.3 -23.0 -21.95 -23.0 -20.4 -38.45 Q-22.9 -42.15 -22.9 -46.65 L-22.9 -52.95 Q-22.9 -58.6 -19.2 -62.65 -15.5 -66.7 -10.35 -66.7 L11.15 -66.7" fill="#000000" fill-rule="evenodd" stroke="none"/>
    <path d="M-11.85 27.85 Q11.15 32.8 30.65 20.85 L27.7 62.2 -28.35 62.2 -30.95 20.45 -25.7 23.2 Q-19.05 26.25 -11.85 27.85" fill="#ffffff" fill-rule="evenodd" stroke="none"/>
    <path d="M15.3 -50.95 L15.6 -47.5 1.9 -47.5 1.9 -48.3 4.25 -50.95 15.3 -50.95" fill="#ffffff" fill-rule="evenodd" stroke="none"/>
    <path d="M-1.5 -48.65 L-1.5 -38.95 -14.95 -38.95 -13.55 -53.1 2.2 -53.1 -1.5 -48.65" fill="#ffffff" fill-rule="evenodd" stroke="none"/>
    <path d="M1.9 -25.85 L1.9 -35.2 Q1.95 -32.4 3.95 -30.4 6.05 -28.35 8.95 -28.35 11.9 -28.35 13.95 -30.4 16.0 -32.45 16.0 -35.4 16.0 -38.3 13.95 -40.4 11.9 -42.45 8.95 -42.45 6.05 -42.45 3.95 -40.4 1.95 -38.35 1.9 -35.55 L1.9 -46.4 15.75 -46.4 17.25 -31.05 12.45 -27.7 13.5 -18.6 13.9 -17.9 Q14.25 -17.65 14.7 -17.7 15.65 -17.8 15.65 -18.75 L15.65 -18.85 14.75 -26.65 16.2 -27.7 17.25 -15.05 17.55 -15.2 16.55 -14.25 11.5 -20.45 3.65 -21.5 1.9 -25.85" fill="#ffffff" fill-rule="evenodd" stroke="none"/>
  </g>
</svg>
