<?xml version="1.0" encoding="UTF-8" standalone="no"?>
<svg xmlns:xlink="http://www.w3.org/1999/xlink" height="87.8px" width="83.3px" xmlns="http://www.w3.org/2000/svg">
  <g transform="matrix(1.0, 0.0, 0.0, 1.0, 41.65, 43.9)">
    <path d="M-22.0 1.3 L-22.85 1.35 -23.4 2.0 -23.35 2.85 -22.7 3.4 -19.6 4.3 Q-20.45 8.4 -20.6 12.7 L-22.05 12.45 -22.55 12.6 -22.8 13.0 -23.45 17.45 -32.25 12.05 -32.65 12.0 -32.8 6.95 -32.75 3.75 Q-32.5 -8.85 -19.65 -18.6 -15.75 -21.5 -10.8 -24.0 L-9.25 -24.7 -9.25 -24.6 Q-9.15 -24.15 -8.7 -24.15 L-3.05 -24.0 Q-7.65 -19.85 -11.4 -14.35 L-12.5 -14.45 Q-16.75 -14.4 -19.25 -10.8 L-20.95 -7.15 -21.1 -4.7 Q-21.2 -0.4 -19.0 1.85 L-19.1 2.15 -22.0 1.3" fill="#ffffff" fill-rule="evenodd" stroke="none"/>
    <path d="M24.7 -6.75 Q24.7 -7.6 24.15 -8.2 23.55 -8.8 22.75 -8.8 21.9 -8.8 21.3 -8.2 L17.35 -4.25 17.3 -4.3 Q14.0 -15.0 6.45 -23.25 L13.0 -22.55 13.05 -22.55 Q13.35 -22.55 13.5 -22.8 L13.55 -22.85 Q17.0 -20.85 20.35 -18.1 31.0 -9.25 32.15 1.1 L32.4 5.95 Q32.4 9.2 31.85 12.5 L31.35 12.45 18.85 17.15 Q19.45 13.25 19.45 9.7 19.45 5.9 18.8 1.9 L22.5 4.8 Q22.95 5.2 23.75 5.2 24.7 5.2 25.3 4.45 25.85 3.8 25.75 2.95 25.65 2.15 24.95 1.65 L20.55 -1.8 24.15 -5.35 Q24.7 -5.95 24.7 -6.75" fill="#ffffff" fill-rule="evenodd" stroke="none"/>
    <path d="M33.5 5.95 L33.25 0.95 Q32.3 -7.35 25.45 -14.75 20.85 -19.75 14.15 -23.8 L14.55 -24.35 Q24.95 -20.45 31.35 -12.05 37.8 -3.55 37.8 6.7 L37.8 7.35 Q37.6 15.6 33.15 22.75 28.85 29.7 21.45 34.25 28.25 27.95 31.25 19.4 L31.45 19.05 31.5 18.65 Q33.5 12.75 33.5 5.95" fill="#ffffff" fill-rule="evenodd" stroke="none"/>
    <path d="M-37.8 6.35 L-37.75 5.75 -39.7 5.7 -37.75 5.7 Q-37.55 -5.6 -29.55 -14.45 -21.7 -23.2 -9.5 -25.95 L-9.5 -25.85 Q-17.95 -22.0 -23.9 -16.45 -33.6 -7.5 -33.85 3.75 L-33.9 6.95 Q-33.95 13.55 -33.15 18.05 -32.3 22.85 -30.3 26.4 -37.8 17.5 -37.8 6.35" fill="#ffffff" fill-rule="evenodd" stroke="none"/>
    <path d="M16.5 36.8 L11.0 38.65 Q13.45 34.45 15.1 30.35 L17.5 30.0 18.05 29.5 18.8 25.9 29.75 20.25 Q25.8 30.35 16.5 36.8" fill="#ffffff" fill-rule="evenodd" stroke="none"/>
    <path d="M2.55 -23.65 L4.75 -23.45 6.15 -21.95 Q12.5 -14.9 15.75 -5.55 L11.45 -8.85 Q10.8 -9.35 10.0 -9.25 9.2 -9.15 8.65 -8.5 8.15 -7.85 8.25 -7.05 8.35 -6.25 9.0 -5.7 L14.5 -1.4 10.3 2.8 Q9.75 3.4 9.75 4.25 9.75 5.05 10.3 5.65 10.95 6.2 11.75 6.2 12.5 6.2 13.15 5.65 L17.55 1.25 Q18.35 5.4 18.35 9.7 18.35 15.0 17.0 21.0 L12.75 21.6 12.8 19.05 12.6 18.55 12.1 18.4 3.4 18.65 Q2.75 18.75 2.75 19.35 L2.85 24.05 -3.05 23.95 Q-2.95 9.0 -0.1 -9.3 0.95 -16.1 2.55 -23.65" fill="#ffffff" fill-rule="evenodd" stroke="none"/>
    <path d="M-3.15 -22.45 L-1.4 -24.0 1.45 -23.8 Q-0.4 -15.3 -1.75 -5.75 -4.0 10.2 -4.15 23.95 L-6.6 23.9 -6.5 18.2 -6.75 17.7 Q-6.95 17.5 -7.2 17.55 L-15.3 17.95 -14.2 14.4 Q-14.05 14.2 -14.25 13.85 -14.4 13.65 -14.7 13.55 L-19.5 12.85 Q-19.4 8.6 -18.5 4.5 L-14.7 4.95 -14.6 4.95 Q-10.3 4.95 -8.5 2.55 -6.05 0.75 -4.75 -3.75 -4.35 -5.2 -4.35 -6.3 -4.4 -9.5 -6.95 -11.95 -8.3 -13.25 -10.2 -14.15 L-9.9 -14.6 Q-6.8 -18.9 -3.15 -22.45" fill="#ffffff" fill-rule="evenodd" stroke="none"/>
    <path d="M-19.2 25.15 L-18.65 27.15 -18.45 28.4 -18.15 28.85 Q-16.7 33.2 -14.5 37.4 -17.55 36.3 -20.35 34.7 -25.05 31.75 -27.6 28.5 -30.25 25.15 -31.45 20.55 L-19.2 25.15" fill="#ffffff" fill-rule="evenodd" stroke="none"/>
    <path d="M12.85 30.65 L13.85 30.5 Q11.8 35.15 9.5 39.0 5.1 40.05 0.2 40.05 L-0.7 40.05 -2.4 39.95 -2.9 33.3 3.35 33.4 3.95 33.0 5.5 28.9 11.85 28.05 12.1 30.1 12.35 30.55 12.85 30.65" fill="#ffffff" fill-rule="evenodd" stroke="none"/>
    <path d="M-11.5 27.2 L-7.25 27.3 -4.85 32.85 -4.25 33.25 -4.0 33.25 -3.5 39.9 Q-8.45 39.45 -12.95 37.95 -15.1 34.0 -16.8 29.4 L-13.65 30.6 Q-13.05 30.9 -12.8 30.25 L-11.5 27.2" fill="#ffffff" fill-rule="evenodd" stroke="none"/>
    <path d="M-11.5 27.2 L-12.8 30.25 Q-13.05 30.9 -13.65 30.6 L-16.8 29.4 Q-15.1 34.0 -12.95 37.95 -8.45 39.45 -3.5 39.9 L-4.0 33.25 -4.25 33.25 -4.85 32.85 -7.25 27.3 -11.5 27.2 M-18.65 27.15 L-19.2 25.15 -31.45 20.55 Q-30.25 25.15 -27.6 28.5 -25.05 31.75 -20.35 34.7 -17.55 36.3 -14.5 37.4 -16.7 33.2 -18.15 28.85 L-18.45 28.4 -18.65 27.15 M18.05 29.5 L17.5 30.0 15.1 30.35 Q13.45 34.45 11.0 38.65 L16.5 36.8 Q25.8 30.35 29.75 20.25 L18.8 25.9 18.05 29.5 M12.35 30.55 L12.1 30.1 11.85 28.05 5.5 28.9 3.95 33.0 3.35 33.4 -2.9 33.3 -2.4 39.95 -0.7 40.05 0.2 40.05 Q5.1 40.05 9.5 39.0 11.8 35.15 13.85 30.5 L12.85 30.65 12.35 30.55 M-1.4 -24.0 L-3.15 -22.45 Q-6.8 -18.9 -9.9 -14.6 L-10.2 -14.15 Q-8.3 -13.25 -6.95 -11.95 -4.4 -9.5 -4.35 -6.3 -4.35 -5.2 -4.75 -3.75 -6.05 0.75 -8.5 2.55 -10.3 4.95 -14.6 4.95 L-14.7 4.95 -18.5 4.5 Q-19.4 8.6 -19.5 12.85 L-14.7 13.55 Q-14.4 13.65 -14.25 13.85 -14.05 14.2 -14.2 14.4 L-15.3 17.95 -7.2 17.55 Q-6.95 17.5 -6.75 17.7 L-6.5 18.2 -6.6 23.9 -4.15 23.95 Q-4.0 10.2 -1.75 -5.75 -0.4 -15.3 1.45 -23.8 L-1.4 -24.0 M4.75 -23.45 L2.55 -23.65 Q0.95 -16.1 -0.1 -9.3 -2.95 9.0 -3.05 23.95 L2.85 24.05 2.75 19.35 Q2.75 18.75 3.4 18.65 L12.1 18.4 12.6 18.55 12.8 19.05 12.75 21.6 17.0 21.0 Q18.35 15.0 18.35 9.7 18.35 5.4 17.55 1.25 L13.15 5.65 Q12.5 6.2 11.75 6.2 10.95 6.2 10.3 5.65 9.75 5.05 9.75 4.25 9.75 3.4 10.3 2.8 L14.5 -1.4 9.0 -5.7 Q8.35 -6.25 8.25 -7.05 8.15 -7.85 8.65 -8.5 9.2 -9.15 10.0 -9.25 10.8 -9.35 11.45 -8.85 L15.75 -5.55 Q12.5 -14.9 6.15 -21.95 L4.75 -23.45 M-22.7 3.4 L-23.35 2.85 -23.4 2.0 -22.85 1.35 -22.0 1.3 -19.1 2.15 -19.0 1.85 Q-21.2 -0.4 -21.1 -4.7 L-20.95 -7.15 -19.25 -10.8 Q-16.75 -14.4 -12.5 -14.45 L-11.4 -14.35 Q-7.65 -19.85 -3.05 -24.0 L-8.7 -24.15 Q-9.15 -24.15 -9.25 -24.6 L-9.25 -24.7 -10.8 -24.0 Q-15.75 -21.5 -19.65 -18.6 -32.5 -8.85 -32.75 3.75 L-32.8 6.95 -32.65 12.0 -32.25 12.05 -23.45 17.45 -22.8 13.0 -22.55 12.6 -22.05 12.45 -20.6 12.7 Q-20.45 8.4 -19.6 4.3 L-22.7 3.4 M-37.75 5.7 L-39.7 5.7 -37.75 5.75 -37.8 6.35 Q-37.8 17.5 -30.3 26.4 -32.3 22.85 -33.15 18.05 -33.95 13.55 -33.9 6.95 L-33.85 3.75 Q-33.6 -7.5 -23.9 -16.45 -17.95 -22.0 -9.5 -25.85 L-9.5 -25.95 Q-21.7 -23.2 -29.55 -14.45 -37.55 -5.6 -37.75 5.7 M33.25 0.95 L33.5 5.95 Q33.5 12.75 31.5 18.65 L31.45 19.05 31.25 19.4 Q28.25 27.95 21.45 34.25 28.85 29.7 33.15 22.75 37.6 15.6 37.8 7.35 L37.8 6.7 Q37.8 -3.55 31.35 -12.05 24.95 -20.45 14.55 -24.35 L14.15 -23.8 Q20.85 -19.75 25.45 -14.75 32.3 -7.35 33.25 0.95 M21.3 -8.2 Q21.9 -8.8 22.75 -8.8 23.55 -8.8 24.15 -8.2 24.7 -7.6 24.7 -6.75 24.7 -5.95 24.15 -5.35 L20.55 -1.8 24.95 1.65 Q25.65 2.15 25.75 2.95 25.85 3.8 25.3 4.45 24.7 5.2 23.75 5.2 22.95 5.2 22.5 4.8 L18.8 1.9 Q19.45 5.9 19.45 9.7 19.45 13.25 18.85 17.15 L31.35 12.45 31.85 12.5 Q32.4 9.2 32.4 5.95 L32.15 1.1 Q31.0 -9.25 20.35 -18.1 17.0 -20.85 13.55 -22.85 L13.5 -22.8 Q13.35 -22.55 13.05 -22.55 L13.0 -22.55 6.45 -23.25 Q14.0 -15.0 17.3 -4.3 L17.35 -4.25 21.3 -8.2 M19.0 -31.45 L18.95 -31.0 16.75 -27.65 Q27.9 -23.2 34.7 -14.05 41.65 -4.6 41.65 6.7 L41.65 7.45 Q41.3 22.75 29.15 33.35 17.1 43.9 0.25 43.9 L-0.8 43.9 Q-17.75 43.55 -29.65 32.65 -41.6 21.7 -41.65 6.35 L-41.65 5.65 Q-41.35 -7.2 -32.4 -17.05 -23.7 -26.75 -10.25 -29.75 L-11.3 -35.1 Q-11.4 -35.45 -11.15 -35.6 L-10.65 -35.75 -0.15 -33.7 0.0 -34.3 -5.2 -41.65 -5.3 -42.1 -5.05 -42.45 -3.1 -43.8 -2.5 -43.8 5.95 -39.2 6.2 -38.85 7.55 -33.45 13.5 -34.15 13.8 -34.1 18.7 -31.8 19.0 -31.45" fill="#000000" fill-rule="evenodd" stroke="none"/>
  </g>
</svg>
