<?xml version="1.0" encoding="UTF-8" standalone="no"?>
<svg xmlns:xlink="http://www.w3.org/1999/xlink" height="75.55px" width="73.0px" xmlns="http://www.w3.org/2000/svg">
  <g transform="matrix(1.0, 0.0, 0.0, 1.0, 36.5, 37.75)">
    <path d="M-33.7 -2.9 Q-26.3 -35.35 -1.95 -37.6 22.7 -39.9 31.8 -5.65 36.35 11.5 36.0 29.1 L36.5 37.45 11.65 37.45 11.65 26.7 -12.0 26.6 -13.0 37.8 -36.2 37.8 -36.2 29.1 Q-37.35 13.35 -33.7 -2.9 M-13.25 -16.45 L-12.55 -18.0 -13.05 -18.65 Q-13.85 -19.35 -15.3 -19.35 -16.7 -19.35 -16.9 -17.85 L-16.85 -16.4 Q-14.45 -15.1 -13.25 -16.45 M18.6 10.95 L20.4 10.7 20.6 15.7 25.7 15.8 25.35 10.95 26.9 10.95 27.5 15.8 32.3 15.9 Q32.0 7.4 29.3 -2.2 L26.7 -10.1 -27.55 -10.45 Q-31.0 -4.6 -32.6 6.4 -33.35 11.9 -33.45 16.2 L-28.75 16.25 -28.95 10.4 -27.65 10.4 -27.25 16.3 -22.85 16.3 -22.2 10.7 -20.35 10.7 -20.15 16.35 -14.9 16.4 -13.35 -0.05 11.9 -0.4 13.15 15.6 18.7 15.7 18.6 10.95 M15.25 -17.0 Q15.55 -18.0 14.75 -18.95 13.8 -20.15 12.6 -19.5 L11.6 -18.65 Q11.15 -16.45 12.95 -16.15 L14.85 -16.25 15.25 -17.0" fill="#000000" fill-rule="evenodd" stroke="none"/>
    <path d="M26.7 -10.1 L29.3 -2.2 Q32.0 7.4 32.3 15.9 L27.5 15.8 26.9 10.95 25.35 10.95 25.7 15.8 20.6 15.7 20.4 10.7 18.6 10.95 18.7 15.7 13.15 15.6 11.9 -0.4 -13.35 -0.05 -14.9 16.4 -20.15 16.35 -20.35 10.7 -22.2 10.7 -22.85 16.3 -27.25 16.3 -27.65 10.4 -28.95 10.4 -28.75 16.25 -33.45 16.2 Q-33.35 11.9 -32.6 6.4 -31.0 -4.6 -27.55 -10.45 L26.7 -10.1" fill="#ffffff" fill-rule="evenodd" stroke="none"/>
    <path d="M-12.55 -18.0 L-13.25 -16.45 Q-14.45 -15.1 -16.85 -16.4 L-16.9 -17.85 Q-16.7 -19.35 -15.3 -19.35 -13.85 -19.35 -13.05 -18.65 L-12.55 -18.0" fill="#ffffff" fill-rule="evenodd" stroke="none"/>
    <path d="M14.85 -16.25 L12.95 -16.15 Q11.15 -16.45 11.6 -18.65 L12.6 -19.5 Q13.8 -20.15 14.75 -18.95 15.55 -18.0 15.25 -17.0 L14.85 -16.25" fill="#ffffff" fill-rule="evenodd" stroke="none"/>
  </g>
</svg>
