<?xml version="1.0" encoding="UTF-8" standalone="no"?>
<svg xmlns:xlink="http://www.w3.org/1999/xlink" height="103.2px" width="52.15px" xmlns="http://www.w3.org/2000/svg">
  <g transform="matrix(1.0, 0.0, 0.0, 1.0, 26.05, 51.6)">
    <path d="M16.35 -45.65 Q14.3 -44.55 13.55 -38.35 13.15 -35.55 12.95 -28.85 15.3 -32.1 16.2 -36.9 17.0 -41.35 16.35 -45.65 M-10.9 -3.0 L-10.8 -1.2 -12.4 -0.9 -14.0 -0.9 Q-13.95 -1.3 -14.2 -2.3 L-14.4 -3.75 Q-16.6 -4.0 -16.5 -1.9 -16.4 -0.4 -15.35 1.5 L-15.0 1.45 Q-14.95 2.35 -14.4 3.2 L-12.95 3.15 -11.55 3.05 -10.95 4.25 -10.45 5.45 -6.45 5.85 -6.6 4.0 Q-6.7 3.0 -7.05 2.3 -4.4 1.45 -3.2 3.7 -1.95 6.05 0.6 5.55 L0.35 1.6 5.4 1.15 6.15 2.65 6.55 4.3 10.15 3.95 10.3 0.3 Q15.45 -1.0 15.4 3.45 L20.1 3.05 Q20.8 0.7 19.65 -3.0 18.25 -7.4 18.25 -8.95 15.9 -9.15 13.6 -8.15 L13.45 -6.8 Q13.25 -5.9 13.4 -5.3 L11.65 -5.15 11.45 -6.55 Q11.2 -7.5 11.3 -7.95 8.5 -7.9 7.65 -7.3 6.5 -6.45 7.55 -4.0 4.8 -3.55 3.9 -4.0 2.6 -4.65 3.15 -7.2 -0.9 -6.65 -2.55 -5.95 -1.8 -4.1 -2.65 -3.15 -3.55 -2.15 -5.6 -2.45 L-5.8 -4.2 -6.05 -6.0 Q-7.65 -5.0 -11.05 -4.8 -10.9 -4.2 -10.9 -3.0 M-10.3 -10.5 Q-8.5 -10.8 -7.1 -12.35 -5.7 -13.95 -5.85 -15.6 -6.0 -17.45 -8.3 -18.45 -11.85 -19.95 -14.25 -16.0 -16.7 -12.1 -13.45 -10.2 L-13.6 -11.7 Q-12.35 -10.15 -10.3 -10.5 M-22.1 -36.05 Q-19.65 -25.5 -18.05 -23.95 L-18.1 -24.3 Q-18.5 -25.05 -19.8 -36.6 -20.95 -47.1 -22.4 -47.0 -24.55 -46.9 -22.1 -36.05 M12.15 -20.35 Q9.55 -23.15 5.65 -21.25 2.95 -19.95 3.3 -18.2 3.55 -17.1 5.2 -14.15 L5.1 -14.9 Q6.0 -13.7 8.0 -13.55 9.95 -13.4 11.6 -14.25 15.95 -16.35 12.15 -20.35 M14.55 -49.0 Q17.1 -51.95 18.3 -48.2 19.2 -45.4 18.95 -41.85 18.7 -38.2 16.65 -30.95 15.45 -24.55 18.45 -20.65 27.65 -8.85 25.8 0.35 24.8 5.4 18.95 8.25 15.4 9.95 8.6 11.2 L6.0 11.7 14.3 51.6 -15.0 51.6 -15.0 8.75 -18.35 5.5 Q-23.05 0.0 -23.2 -7.15 -23.3 -13.0 -20.35 -20.4 L-20.65 -20.0 Q-21.05 -22.55 -23.95 -33.1 -26.15 -41.3 -26.05 -46.3 -26.0 -49.1 -24.6 -50.65 -22.95 -52.4 -20.45 -50.9 -18.0 -49.45 -17.5 -44.65 L-16.95 -37.15 -16.3 -31.55 Q-15.9 -27.9 -15.25 -26.05 -14.2 -23.0 -11.4 -23.7 L-5.65 -25.8 0.4 -26.35 6.35 -25.9 Q10.3 -25.6 11.0 -29.4 11.1 -34.4 11.3 -36.7 11.6 -39.9 12.25 -43.05 13.25 -47.5 14.55 -49.0" fill="#000000" fill-rule="evenodd" stroke="none"/>
    <path d="M-13.45 -10.2 Q-16.7 -12.1 -14.25 -16.0 -11.85 -19.95 -8.3 -18.45 -6.0 -17.45 -5.85 -15.6 -5.7 -13.95 -7.1 -12.35 -8.5 -10.8 -10.3 -10.5 -12.35 -10.15 -13.6 -11.7 L-13.45 -10.2" fill="#ffffff" fill-rule="evenodd" stroke="none"/>
    <path d="M5.65 -21.25 Q9.55 -23.15 12.15 -20.35 15.95 -16.35 11.6 -14.25 9.95 -13.4 8.0 -13.55 6.0 -13.7 5.1 -14.9 L5.2 -14.15 Q3.55 -17.1 3.3 -18.2 2.95 -19.95 5.65 -21.25" fill="#ffffff" fill-rule="evenodd" stroke="none"/>
    <path d="M-10.8 -1.2 L-10.9 -3.0 Q-10.9 -4.2 -11.05 -4.8 -7.65 -5.0 -6.05 -6.0 L-5.8 -4.2 -5.6 -2.45 Q-3.55 -2.15 -2.65 -3.15 -1.8 -4.1 -2.55 -5.95 -0.9 -6.65 3.15 -7.2 2.6 -4.65 3.9 -4.0 4.8 -3.55 7.55 -4.0 6.5 -6.45 7.65 -7.3 8.5 -7.9 11.3 -7.95 11.2 -7.5 11.45 -6.55 L11.65 -5.15 13.4 -5.3 Q13.25 -5.9 13.45 -6.8 L13.6 -8.15 Q15.9 -9.15 18.25 -8.95 18.25 -7.4 19.65 -3.0 20.8 0.7 20.1 3.05 L15.4 3.45 Q15.45 -1.0 10.3 0.3 L10.15 3.95 6.55 4.3 6.15 2.65 5.4 1.15 0.35 1.6 0.6 5.55 Q-1.95 6.05 -3.2 3.7 -4.4 1.45 -7.05 2.3 -6.7 3.0 -6.6 4.0 L-6.45 5.85 -10.45 5.45 -10.95 4.25 -11.55 3.05 -12.95 3.15 -14.4 3.2 Q-14.95 2.35 -15.0 1.45 L-15.35 1.5 Q-16.4 -0.4 -16.5 -1.9 -16.6 -4.0 -14.4 -3.75 L-14.2 -2.3 Q-13.95 -1.3 -14.0 -0.9 L-12.4 -0.9 -10.8 -1.2" fill="#ffffff" fill-rule="evenodd" stroke="none"/>
    <path d="M-19.8 -36.6 Q-18.5 -25.05 -18.1 -24.3 L-18.05 -23.95 Q-19.65 -25.5 -22.1 -36.05 -24.55 -46.9 -22.4 -47.0 -20.95 -47.1 -19.8 -36.6" fill="#ffffff" fill-rule="evenodd" stroke="none"/>
    <path d="M16.35 -45.65 Q17.0 -41.35 16.2 -36.9 15.3 -32.1 12.95 -28.85 13.15 -35.55 13.55 -38.35 14.3 -44.55 16.35 -45.65" fill="#ffffff" fill-rule="evenodd" stroke="none"/>
  </g>
</svg>
