<?xml version="1.0" encoding="UTF-8" standalone="no"?>
<svg xmlns:xlink="http://www.w3.org/1999/xlink" height="106.5px" width="58.5px" xmlns="http://www.w3.org/2000/svg">
  <g transform="matrix(1.0, 0.0, 0.0, 1.0, 29.25, 53.25)">
    <path d="M27.4 28.7 L25.95 53.25 -24.85 53.25 -26.75 28.7 27.4 28.7" fill="#000000" fill-rule="evenodd" stroke="none"/>
    <path d="M-15.45 -19.05 Q-17.75 -19.05 -19.35 -17.45 -20.95 -15.85 -20.95 -13.55 -20.95 -11.25 -19.35 -9.65 -17.75 -8.05 -15.45 -8.05 -13.15 -8.05 -11.55 -9.65 -9.95 -11.25 -9.95 -13.55 -9.95 -15.85 -11.55 -17.45 -13.15 -19.05 -15.45 -19.05 M5.9 18.05 Q8.85 18.05 11.4 16.5 13.8 15.05 15.2 12.55 8.75 15.85 1.35 15.85 -7.4 15.8 -15.6 11.75 -14.3 14.6 -11.7 16.3 -9.05 18.05 -5.9 18.05 L5.9 18.05 M17.1 -31.75 Q21.75 -27.1 21.75 -20.55 L21.75 -20.25 Q24.85 -17.65 24.85 -13.55 24.85 -9.45 21.75 -6.85 L21.75 -3.05 29.25 -3.05 27.5 26.6 -26.9 26.6 -29.25 -3.05 -21.75 -3.05 -21.75 -7.35 Q-24.25 -9.95 -24.25 -13.55 -24.25 -17.15 -21.75 -19.75 L-21.75 -20.55 Q-21.75 -27.1 -17.1 -31.75 -12.45 -36.4 -5.9 -36.4 L-4.3 -36.4 -0.55 -53.25 3.85 -36.4 5.9 -36.4 Q12.45 -36.4 17.1 -31.75 M16.0 -22.35 L16.35 -22.35 Q15.7 -26.15 12.8 -28.6 9.8 -31.15 5.9 -31.15 L-5.9 -31.15 Q-9.8 -31.15 -12.75 -28.6 -15.7 -26.15 -16.35 -22.35 L-15.45 -22.35 Q-11.8 -22.35 -9.2 -19.75 -6.6 -17.2 -6.6 -13.55 -6.6 -9.85 -9.2 -7.3 -11.75 -4.7 -15.45 -4.7 L-16.5 -4.8 -16.4 8.85 -16.15 9.0 -12.15 10.9 Q-5.25 13.6 1.35 13.6 9.75 13.6 16.8 9.1 L16.4 9.1 16.55 7.4 16.55 -4.75 16.0 -4.7 Q12.35 -4.7 9.8 -7.3 7.2 -9.9 7.2 -13.55 7.2 -17.2 9.8 -19.75 12.35 -22.35 16.0 -22.35 M19.9 -17.45 Q18.3 -19.05 16.0 -19.05 13.7 -19.05 12.1 -17.45 10.5 -15.85 10.5 -13.55 10.5 -11.25 12.1 -9.65 13.7 -8.05 16.0 -8.05 18.3 -8.05 19.9 -9.65 21.5 -11.25 21.5 -13.55 21.5 -15.85 19.9 -17.45" fill="#000000" fill-rule="evenodd" stroke="none"/>
    <path d="M1.35 15.85 Q8.75 15.85 15.2 12.55 13.8 15.05 11.4 16.5 8.85 18.05 5.9 18.05 L-5.9 18.05 Q-9.05 18.05 -11.7 16.3 -14.3 14.6 -15.6 11.75 -7.4 15.8 1.35 15.85" fill="#ffffff" fill-rule="evenodd" stroke="none"/>
    <path d="M16.35 -22.35 L16.0 -22.35 Q12.35 -22.35 9.8 -19.75 7.2 -17.2 7.2 -13.55 7.2 -9.9 9.8 -7.3 12.35 -4.7 16.0 -4.7 L16.55 -4.75 16.55 7.4 16.4 9.1 16.8 9.1 Q9.75 13.6 1.35 13.6 -5.25 13.6 -12.15 10.9 L-16.15 9.0 -16.4 8.85 -16.5 -4.8 -15.45 -4.7 Q-11.75 -4.7 -9.2 -7.3 -6.6 -9.85 -6.6 -13.55 -6.6 -17.2 -9.2 -19.75 -11.8 -22.35 -15.45 -22.35 L-16.35 -22.35 Q-15.7 -26.15 -12.75 -28.6 -9.8 -31.15 -5.9 -31.15 L5.9 -31.15 Q9.8 -31.15 12.8 -28.6 15.7 -26.15 16.35 -22.35" fill="#ffffff" fill-rule="evenodd" stroke="none"/>
    <path d="M-15.45 -8.05 Q-17.75 -8.05 -19.35 -9.65 -20.95 -11.25 -20.95 -13.55 -20.95 -15.85 -19.35 -17.45 -17.75 -19.05 -15.45 -19.05 -13.15 -19.05 -11.55 -17.45 -9.95 -15.85 -9.95 -13.55 -9.95 -11.25 -11.55 -9.65 -13.15 -8.05 -15.45 -8.05" fill="#ffffff" fill-rule="evenodd" stroke="none"/>
    <path d="M16.0 -19.05 Q18.3 -19.05 19.9 -17.45 21.5 -15.85 21.5 -13.55 21.5 -11.25 19.9 -9.65 18.3 -8.05 16.0 -8.05 13.7 -8.05 12.1 -9.65 10.5 -11.25 10.5 -13.55 10.5 -15.85 12.1 -17.45 13.7 -19.05 16.0 -19.05" fill="#ffffff" fill-rule="evenodd" stroke="none"/>
    <path d="M28.35 26.6 L28.35 28.7 -27.6 28.7 -27.6 26.6 28.35 26.6" fill="#ffffff" fill-rule="evenodd" stroke="none"/>
  </g>
</svg>
