<?xml version="1.0" encoding="UTF-8" standalone="no"?>
<svg xmlns:xlink="http://www.w3.org/1999/xlink" height="94.4px" width="77.9px" xmlns="http://www.w3.org/2000/svg">
  <g transform="matrix(1.0, 0.0, 0.0, 1.0, 38.95, 47.2)">
    <path d="M21.55 -13.35 L21.55 -9.7 8.65 8.95 2.2 8.95 2.2 1.25 -3.15 1.25 -3.15 8.95 -8.6 8.95 -21.5 -10.65 -21.5 -13.3 Q-10.65 -9.85 0.85 -9.85 11.95 -9.85 21.55 -13.35" fill="#ffffff" fill-rule="evenodd" stroke="none"/>
    <path d="M-12.6 -22.75 Q-13.3 -22.1 -13.3 -21.15 -13.3 -20.2 -12.6 -19.55 -11.95 -18.85 -11.0 -18.85 -10.05 -18.85 -9.35 -19.55 -8.7 -20.2 -8.7 -21.15 -8.7 -22.1 -9.35 -22.75 -10.05 -23.45 -11.0 -23.45 -11.95 -23.45 -12.6 -22.75 M11.2 -19.55 Q11.85 -20.2 11.85 -21.15 11.85 -22.1 11.2 -22.75 10.5 -23.45 9.55 -23.45 8.6 -23.45 7.95 -22.75 7.25 -22.1 7.25 -21.15 7.25 -20.2 7.95 -19.55 8.6 -18.85 9.55 -18.85 10.5 -18.85 11.2 -19.55 M21.55 -31.55 L21.55 -17.5 Q11.9 -13.7 0.85 -13.7 -7.45 -13.7 -16.35 -15.85 -19.15 -16.55 -21.4 -17.35 L-21.5 -17.35 -21.5 -31.6 Q-18.3 -31.5 -11.6 -27.0 -8.25 -24.75 -5.55 -22.5 -5.55 -30.85 -14.15 -34.75 L13.4 -34.65 Q5.1 -30.7 5.1 -22.5 L11.45 -27.2 Q18.45 -31.85 21.55 -31.55" fill="#ffffff" fill-rule="evenodd" stroke="none"/>
    <path d="M-11.0 -18.85 Q-11.95 -18.85 -12.6 -19.55 -13.3 -20.2 -13.3 -21.15 -13.3 -22.1 -12.6 -22.75 -11.95 -23.45 -11.0 -23.45 -10.05 -23.45 -9.35 -22.75 -8.7 -22.1 -8.7 -21.15 -8.7 -20.2 -9.35 -19.55 -10.05 -18.85 -11.0 -18.85" fill="#000000" fill-rule="evenodd" stroke="none"/>
    <path d="M9.55 -18.85 Q8.6 -18.85 7.95 -19.55 7.25 -20.2 7.25 -21.15 7.25 -22.1 7.95 -22.75 8.6 -23.45 9.55 -23.45 10.5 -23.45 11.2 -22.75 11.85 -22.1 11.85 -21.15 11.85 -20.2 11.2 -19.55 10.5 -18.85 9.55 -18.85" fill="#000000" fill-rule="evenodd" stroke="none"/>
    <path d="M-35.75 -40.45 L-35.3 -39.9 Q-33.1 -36.85 -30.65 -35.25 L-33.35 -30.55 Q-35.15 -34.55 -35.75 -40.45" fill="#ffffff" fill-rule="evenodd" stroke="none"/>
    <path d="M-24.75 -33.35 L-25.4 -22.5 -25.5 -23.95 -25.55 -23.95 Q-28.45 -23.95 -31.0 -26.8 -32.0 -27.9 -32.85 -29.5 L-29.8 -34.75 Q-27.3 -33.4 -24.75 -33.35" fill="#ffffff" fill-rule="evenodd" stroke="none"/>
    <path d="M28.85 -34.25 L32.8 -29.3 31.0 -26.8 Q28.45 -23.95 25.6 -23.95 L25.5 -23.95 25.4 -22.5 24.75 -33.35 Q26.95 -33.4 28.85 -34.25" fill="#ffffff" fill-rule="evenodd" stroke="none"/>
    <path d="M35.35 -39.9 L35.75 -40.45 Q35.15 -34.15 33.25 -30.25 L29.7 -34.7 Q32.65 -36.25 35.35 -39.9" fill="#ffffff" fill-rule="evenodd" stroke="none"/>
    <path d="M-25.55 -23.95 L-25.5 -23.95 -25.4 -22.5 -24.75 -33.35 Q-27.3 -33.4 -29.8 -34.75 L-32.85 -29.5 Q-32.0 -27.9 -31.0 -26.8 -28.45 -23.95 -25.55 -23.95 M-35.3 -39.9 L-35.75 -40.45 Q-35.15 -34.55 -33.35 -30.55 L-30.65 -35.25 Q-33.1 -36.85 -35.3 -39.9 M21.55 -9.7 L21.55 -13.35 Q11.95 -9.85 0.85 -9.85 -10.65 -9.85 -21.5 -13.3 L-21.5 -10.65 -8.6 8.95 -3.15 8.95 -3.15 1.25 2.2 1.25 2.2 8.95 8.65 8.95 21.55 -9.7 M31.0 -26.8 L32.8 -29.3 28.85 -34.25 Q26.95 -33.4 24.75 -33.35 L25.4 -22.5 25.5 -23.95 25.6 -23.95 Q28.45 -23.95 31.0 -26.8 M21.55 -17.5 L21.55 -31.55 Q18.45 -31.85 11.45 -27.2 L5.1 -22.5 Q5.1 -30.7 13.4 -34.65 L-14.15 -34.75 Q-5.55 -30.85 -5.55 -22.5 -8.25 -24.75 -11.6 -27.0 -18.3 -31.5 -21.5 -31.6 L-21.5 -17.35 -21.4 -17.35 Q-19.15 -16.55 -16.35 -15.85 -7.45 -13.7 0.85 -13.7 11.9 -13.7 21.55 -17.5 M26.4 -39.4 L26.4 -36.5 Q28.85 -37.1 31.3 -39.55 33.5 -41.85 35.35 -45.45 L36.15 -47.2 38.95 -46.65 Q38.95 -31.35 33.2 -24.85 30.6 -21.95 27.25 -21.2 33.9 -4.0 36.25 23.3 37.4 37.0 37.25 47.2 L-36.25 47.2 Q-36.25 4.3 -27.0 -21.15 -30.6 -21.95 -33.15 -24.85 -38.95 -31.3 -38.95 -46.65 L-36.15 -47.2 -35.35 -45.45 -33.0 -41.6 Q-29.85 -37.35 -26.35 -36.45 L-26.35 -39.65 26.4 -39.4 M35.75 -40.45 L35.35 -39.9 Q32.65 -36.25 29.7 -34.7 L33.25 -30.25 Q35.15 -34.15 35.75 -40.45" fill="#000000" fill-rule="evenodd" stroke="none"/>
  </g>
</svg>
