<?xml version="1.0" encoding="UTF-8" standalone="no"?>
<svg xmlns:xlink="http://www.w3.org/1999/xlink" height="61.7px" width="94.45px" xmlns="http://www.w3.org/2000/svg">
  <g transform="matrix(1.0, 0.0, 0.0, 1.0, 47.2, 30.85)">
    <path d="M12.6 -15.7 Q11.45 -15.7 10.6 -14.85 9.8 -14.0 9.8 -12.85 9.8 -11.7 10.6 -10.85 11.45 -10.05 12.6 -10.05 13.8 -10.05 14.65 -10.85 15.45 -11.7 15.45 -12.85 15.45 -14.0 14.65 -14.85 13.8 -15.7 12.6 -15.7 M-2.5 -23.75 Q2.0 -23.75 6.1 -26.85 L5.85 -27.2 6.3 -27.2 Q14.0 -27.2 21.0 -25.1 27.75 -23.1 32.9 -19.45 38.7 -15.4 41.5 -10.0 L41.2 -10.25 Q39.45 -11.55 38.0 -12.25 L38.1 -12.85 Q38.1 -14.0 37.25 -14.85 36.4 -15.7 35.25 -15.7 34.4 -15.7 33.7 -15.2 33.0 -14.75 32.7 -14.0 L28.9 -14.35 Q21.85 -14.35 16.6 -10.25 14.1 -8.25 12.75 -5.65 11.25 -2.9 11.25 0.15 11.25 3.2 12.75 6.0 14.1 8.6 16.6 10.6 21.75 14.65 28.9 14.65 33.25 14.65 37.0 13.05 L34.15 15.6 -5.85 15.6 Q-6.3 15.6 -6.6 15.9 -6.9 16.2 -6.9 16.65 L-6.6 17.35 Q-6.3 17.65 -5.85 17.65 L31.1 17.65 Q26.1 20.75 19.85 22.45 13.35 24.2 6.3 24.2 -1.35 24.2 -8.4 22.1 -15.1 20.1 -20.3 16.5 -25.4 12.9 -28.15 8.3 -30.95 3.6 -30.95 -1.5 -30.95 -4.05 -30.3 -6.3 -23.3 -8.2 -19.5 -14.0 -17.2 -17.55 -16.5 -21.75 -12.6 -23.85 -8.3 -25.1 -5.45 -23.75 -2.5 -23.75" fill="#ffffff" fill-rule="evenodd" stroke="none"/>
    <path d="M-20.3 -19.45 L-18.2 -20.8 Q-19.15 -17.05 -21.25 -14.1 -24.4 -9.75 -29.75 -8.0 -27.25 -14.5 -20.3 -19.45" fill="#ffffff" fill-rule="evenodd" stroke="none"/>
    <path d="M3.9 -27.15 Q0.9 -25.3 -2.5 -25.2 -4.3 -25.2 -5.95 -25.75 -1.05 -26.95 3.9 -27.15" fill="#ffffff" fill-rule="evenodd" stroke="none"/>
    <path d="M19.35 -6.8 Q23.35 -9.95 28.9 -9.95 34.45 -9.95 38.45 -6.8 42.1 -3.85 42.1 0.15 42.1 4.2 38.45 7.15 34.55 10.25 28.9 10.25 23.25 10.25 19.35 7.15 15.7 4.2 15.7 0.15 15.7 -3.85 19.35 -6.8 M23.65 -5.0 Q21.55 -5.0 20.05 -3.25 18.55 -1.55 18.55 0.85 18.55 3.25 20.05 4.95 21.55 6.65 23.65 6.65 25.75 6.65 27.25 4.95 28.7 3.25 28.7 0.85 28.7 -1.55 27.25 -3.25 25.75 -5.0 23.65 -5.0 M34.95 -5.0 Q32.85 -5.0 31.4 -3.25 29.9 -1.55 29.9 0.85 29.9 3.25 31.4 4.95 32.85 6.65 34.95 6.65 37.05 6.65 38.55 4.95 40.05 3.25 40.05 0.85 40.05 -1.55 38.55 -3.25 37.05 -5.0 34.95 -5.0" fill="#ffffff" fill-rule="evenodd" stroke="none"/>
    <path d="M23.65 -5.0 Q25.75 -5.0 27.25 -3.25 28.7 -1.55 28.7 0.85 28.7 3.25 27.25 4.95 25.75 6.65 23.65 6.65 21.55 6.65 20.05 4.95 18.55 3.25 18.55 0.85 18.55 -1.55 20.05 -3.25 21.55 -5.0 23.65 -5.0" fill="#000000" fill-rule="evenodd" stroke="none"/>
    <path d="M34.95 6.65 Q32.85 6.65 31.4 4.95 29.9 3.25 29.9 0.85 29.9 -1.55 31.4 -3.25 32.85 -5.0 34.95 -5.0 37.05 -5.0 38.55 -3.25 40.05 -1.55 40.05 0.85 40.05 3.25 38.55 4.95 37.05 6.65 34.95 6.65" fill="#000000" fill-rule="evenodd" stroke="none"/>
    <path d="M28.9 -9.95 Q23.35 -9.95 19.35 -6.8 15.7 -3.85 15.7 0.15 15.7 4.2 19.35 7.15 23.25 10.25 28.9 10.25 34.55 10.25 38.45 7.15 42.1 4.2 42.1 0.15 42.1 -3.85 38.45 -6.8 34.45 -9.95 28.9 -9.95 M-39.6 -8.65 Q-41.3 -8.35 -41.4 -5.2 L-41.2 -2.15 Q-40.0 0.25 -37.7 0.05 -37.05 -2.1 -38.25 -5.6 L-39.6 -8.65 M-18.2 -20.8 L-20.3 -19.45 Q-27.25 -14.5 -29.75 -8.0 -24.4 -9.75 -21.25 -14.1 -19.15 -17.05 -18.2 -20.8 M22.05 -28.6 Q29.4 -26.45 35.05 -22.45 40.75 -18.45 43.95 -13.15 47.25 -7.6 47.25 -1.5 47.25 4.6 43.95 10.2 40.75 15.5 35.05 19.5 L33.3 20.65 33.3 30.85 28.15 27.55 23.4 30.45 23.4 25.25 20.1 26.2 20.1 30.85 14.95 27.55 10.2 30.45 10.2 27.75 6.3 27.9 -1.95 27.3 -1.95 30.85 -7.1 27.55 -11.85 30.45 -11.85 24.85 -15.9 23.2 -15.9 30.85 -21.05 27.55 -25.8 30.45 -25.8 16.75 Q-32.95 10.25 -34.35 2.05 L-36.55 2.0 Q-37.15 3.35 -38.15 4.0 L-39.05 4.35 Q-39.9 5.2 -41.05 5.0 L-42.05 4.6 Q-41.35 3.55 -44.2 0.35 L-47.2 -2.7 Q-44.65 -2.7 -42.4 0.0 -41.25 1.35 -40.65 2.7 -39.35 2.35 -38.6 1.6 -42.9 0.15 -42.9 -5.1 L-42.05 -10.05 Q-39.15 -11.25 -37.45 -9.0 -36.6 -7.85 -36.35 -6.5 -35.7 -3.05 -35.95 -0.4 L-34.6 -1.15 -34.65 -1.5 Q-34.65 -7.6 -31.3 -13.15 -28.1 -18.45 -22.4 -22.45 -16.7 -26.45 -9.45 -28.6 -1.95 -30.85 6.3 -30.85 14.55 -30.85 22.05 -28.6 M6.3 -27.2 L5.85 -27.2 6.1 -26.85 Q2.0 -23.75 -2.5 -23.75 -5.45 -23.75 -8.3 -25.1 -12.6 -23.85 -16.5 -21.75 -17.2 -17.55 -19.5 -14.0 -23.3 -8.2 -30.3 -6.3 -30.95 -4.05 -30.95 -1.5 -30.95 3.6 -28.15 8.3 -25.4 12.9 -20.3 16.5 -15.1 20.1 -8.4 22.1 -1.35 24.2 6.3 24.2 13.35 24.2 19.85 22.45 26.1 20.75 31.1 17.65 L-5.85 17.65 Q-6.3 17.65 -6.6 17.35 L-6.9 16.65 Q-6.9 16.2 -6.6 15.9 -6.3 15.6 -5.85 15.6 L34.15 15.6 37.0 13.05 Q33.25 14.65 28.9 14.65 21.75 14.65 16.6 10.6 14.1 8.6 12.75 6.0 11.25 3.2 11.25 0.15 11.25 -2.9 12.75 -5.65 14.1 -8.25 16.6 -10.25 21.85 -14.35 28.9 -14.35 L32.7 -14.0 Q33.0 -14.75 33.7 -15.2 34.4 -15.7 35.25 -15.7 36.4 -15.7 37.25 -14.85 38.1 -14.0 38.1 -12.85 L38.0 -12.25 Q39.45 -11.55 41.2 -10.25 L41.5 -10.0 Q38.7 -15.4 32.9 -19.45 27.75 -23.1 21.0 -25.1 14.0 -27.2 6.3 -27.2 M-2.5 -25.2 Q0.9 -25.3 3.9 -27.15 -1.05 -26.95 -5.95 -25.75 -4.3 -25.2 -2.5 -25.2" fill="#000000" fill-rule="evenodd" stroke="none"/>
    <path d="M10.6 -14.85 Q11.45 -15.7 12.6 -15.7 13.8 -15.7 14.65 -14.85 15.45 -14.0 15.45 -12.85 15.45 -11.7 14.65 -10.85 13.8 -10.05 12.6 -10.05 11.45 -10.05 10.6 -10.85 9.8 -11.7 9.8 -12.85 9.8 -14.0 10.6 -14.85" fill="#000000" fill-rule="evenodd" stroke="none"/>
  </g>
</svg>
