<?xml version="1.0" encoding="UTF-8" standalone="no"?>
<svg xmlns:xlink="http://www.w3.org/1999/xlink" height="150.7px" width="92.8px" xmlns="http://www.w3.org/2000/svg">
  <g transform="matrix(1.0, 0.0, 0.0, 1.0, 46.4, 75.35)">
    <path d="M-39.2 -32.0 Q-39.9 -33.75 -40.85 -34.8 -41.8 -35.85 -42.5 -35.6 -43.2 -35.35 -43.25 -33.9 -43.3 -32.5 -42.65 -30.75 -42.0 -29.0 -41.05 -27.95 -40.1 -26.9 -39.4 -27.15 -38.7 -27.4 -38.6 -28.8 -38.55 -30.25 -39.2 -32.0 M-20.4 26.65 L-25.65 26.15 -21.55 32.15 -20.4 26.65 M-9.3 22.85 L-16.8 26.6 -15.65 32.2 -9.3 22.85 M-22.75 -26.35 Q-27.35 -23.75 -31.1 -22.65 -33.15 -11.35 -32.95 1.05 -32.9 8.1 -32.3 12.15 -31.7 16.65 -28.1 19.45 -24.5 22.2 -20.0 21.6 -15.55 21.05 -12.75 17.45 -9.95 13.85 -10.5 9.35 -11.0 5.35 -11.05 0.8 -15.7 4.45 -21.3 4.0 L-26.05 2.85 Q-26.75 2.45 -26.95 1.75 -27.2 0.95 -26.85 0.3 -26.5 -0.4 -25.75 -0.65 L-24.3 -0.55 -22.95 -0.1 -19.9 0.25 Q-14.9 0.1 -11.0 -4.5 -10.75 -10.4 -10.1 -15.05 -15.85 -15.0 -19.85 -20.65 L-22.75 -26.35 M-15.1 -21.1 Q-14.45 -21.4 -14.5 -22.75 -14.55 -24.15 -15.3 -25.8 -16.05 -27.45 -17.05 -28.35 -18.05 -29.3 -18.75 -29.0 -19.4 -28.7 -19.35 -27.3 -19.3 -25.95 -18.55 -24.3 -17.75 -22.65 -16.75 -21.7 -15.75 -20.8 -15.1 -21.1 M2.4 -61.5 L10.4 -60.9 4.55 -68.9 2.4 -61.55 2.4 -61.5 M-0.9 -47.1 Q-0.9 -46.65 -1.2 -46.4 -2.95 -44.65 -4.95 -41.85 -8.9 -36.25 -10.25 -30.7 L-6.65 -29.7 Q-3.9 -37.45 0.35 -42.5 3.25 -46.0 2.8 -50.5 2.4 -55.05 -1.1 -57.95 -4.5 -60.85 -9.15 -60.45 -13.75 -59.95 -16.55 -56.55 L-16.55 -56.5 Q-23.75 -47.95 -27.8 -35.65 L-12.2 -31.25 Q-10.75 -37.2 -6.65 -43.0 L-2.6 -47.85 -1.15 -47.8 -0.9 -47.1 M46.4 47.15 Q46.4 54.95 44.1 62.3 41.85 69.4 37.7 75.35 L-28.3 75.35 Q-32.45 69.4 -34.65 62.3 -36.95 54.95 -36.95 47.15 -36.95 34.4 -31.05 23.45 -36.45 19.4 -37.25 12.8 L-37.65 8.7 -37.95 -0.75 Q-37.95 -11.95 -36.3 -21.9 -44.1 -22.0 -45.9 -31.45 -46.5 -34.4 -46.4 -37.9 L-46.2 -40.85 -32.6 -37.0 Q-28.2 -50.35 -20.4 -59.7 -16.2 -64.85 -9.6 -65.4 -5.1 -65.85 -1.1 -63.85 L1.9 -73.95 Q2.25 -75.1 3.45 -75.35 4.7 -75.5 5.45 -74.55 L16.2 -59.8 Q16.95 -58.7 16.3 -57.65 15.75 -56.5 14.4 -56.6 L5.85 -57.25 Q8.2 -53.0 7.8 -48.1 7.35 -43.15 4.15 -39.3 0.6 -35.0 -1.85 -28.35 L7.4 -25.75 Q0.85 -18.6 -4.9 -16.25 -6.35 -7.0 -6.0 2.5 -0.75 0.95 4.7 0.95 22.0 0.95 34.2 14.5 46.4 28.0 46.4 47.15" fill="#000000" fill-rule="evenodd" stroke="none"/>
    <path d="M-25.65 26.15 L-20.4 26.65 -21.55 32.15 -25.65 26.15" fill="#ffffff" fill-rule="evenodd" stroke="none"/>
    <path d="M-15.65 32.2 L-16.8 26.6 -9.3 22.85 -15.65 32.2" fill="#ffffff" fill-rule="evenodd" stroke="none"/>
    <path d="M-16.55 -56.5 L-16.55 -56.55 Q-13.75 -59.95 -9.15 -60.45 -4.5 -60.85 -1.1 -57.95 2.4 -55.05 2.8 -50.5 3.25 -46.0 0.35 -42.5 -3.9 -37.45 -6.65 -29.7 L-10.25 -30.7 Q-8.9 -36.25 -4.95 -41.85 -2.95 -44.65 -1.2 -46.4 -0.9 -46.65 -0.9 -47.1 L-1.15 -47.8 -2.6 -47.85 -6.65 -43.0 Q-10.75 -37.2 -12.2 -31.25 L-27.8 -35.65 Q-23.75 -47.95 -16.55 -56.5" fill="#ffffff" fill-rule="evenodd" stroke="none"/>
    <path d="M-31.1 -22.65 Q-27.35 -23.75 -22.75 -26.35 L-19.85 -20.65 Q-15.85 -15.0 -10.1 -15.05 -10.75 -10.4 -11.0 -4.5 -14.9 0.1 -19.9 0.25 L-22.95 -0.1 -24.3 -0.55 -25.75 -0.65 Q-26.5 -0.4 -26.85 0.3 -27.2 0.95 -26.95 1.75 -26.75 2.45 -26.05 2.85 L-21.3 4.0 Q-15.7 4.45 -11.05 0.8 -11.0 5.35 -10.5 9.35 -9.95 13.85 -12.75 17.45 -15.55 21.05 -20.0 21.6 -24.5 22.2 -28.1 19.45 -31.7 16.65 -32.3 12.15 -32.9 8.1 -32.95 1.05 -33.15 -11.35 -31.1 -22.65" fill="#ffffff" fill-rule="evenodd" stroke="none"/>
    <path d="M10.4 -60.9 L2.4 -61.5 2.4 -61.55 4.55 -68.9 10.4 -60.9" fill="#ffffff" fill-rule="evenodd" stroke="none"/>
    <path d="M-42.5 -35.6 Q-41.8 -35.85 -40.85 -34.8 -39.9 -33.75 -39.2 -32.0 -38.55 -30.25 -38.6 -28.8 -38.7 -27.4 -39.4 -27.15 -40.1 -26.9 -41.05 -27.95 -42.0 -29.0 -42.65 -30.75 -43.3 -32.5 -43.25 -33.9 -43.2 -35.35 -42.5 -35.6" fill="#ffffff" fill-rule="evenodd" stroke="none"/>
    <path d="M-18.75 -29.0 Q-18.05 -29.3 -17.05 -28.35 -16.05 -27.45 -15.3 -25.8 -14.55 -24.15 -14.5 -22.75 -14.45 -21.4 -15.1 -21.1 -15.75 -20.8 -16.75 -21.7 -17.75 -22.65 -18.55 -24.3 -19.3 -25.95 -19.35 -27.3 -19.4 -28.7 -18.75 -29.0" fill="#ffffff" fill-rule="evenodd" stroke="none"/>
  </g>
</svg>
