<?xml version="1.0" encoding="UTF-8"?>
<svg width="77px" height="153.3px" version="1.1" xmlns="http://www.w3.org/2000/svg" xmlns:cc="http://creativecommons.org/ns#" xmlns:dc="http://purl.org/dc/elements/1.1/" xmlns:rdf="http://www.w3.org/1999/02/22-rdf-syntax-ns#">
 <metadata>
  <rdf:RDF>
   <cc:Work rdf:about="">
    <dc:format>image/svg+xml</dc:format>
    <dc:type rdf:resource="http://purl.org/dc/dcmitype/StillImage"/>
    <dc:title/>
   </cc:Work>
  </rdf:RDF>
 </metadata>
 <path d="m31.381 97.932 34.267 0.18035 9.5587-95.407-53.024-0.18035z" fill="#fff"/>
 <g transform="translate(38.5 76.65)" fill-rule="evenodd">
  <path d="m17.5 13v2.2l-0.3 0.8-0.8 0.3q-0.45 0-0.75-0.3-0.35-0.35-0.35-0.8v-2l-3.6 0.25v1.75l-0.3 0.8-0.8 0.3q-0.45 0-0.75-0.3-0.35-0.35-0.35-0.8v-1.6l-3.6 0.3v1.3l-0.3 0.8-0.8 0.3q-0.45 0-0.75-0.3-0.35-0.35-0.35-0.8v-1.15l-3.6 0.25v0.9l-0.3 0.8q-0.35 0.3-0.8 0.3l-0.75-0.3-0.35-0.8v-0.7l-2.15 0.15 0.5 4.7h28.8l0.65-6.95-2.4 0.2v2.6l-0.3 0.8q-0.35 0.3-0.8 0.3t-0.75-0.3q-0.35-0.35-0.35-0.8v-2.45l-3.6 0.25m-35.75-89.65 56.75 0.1-9.5 100.25h-14.3l5.65 52.95h-48.25q-17.3-47.55-6.3-75.95 6.65-17.2 21.55-24.2l-5.6-53.15m52 4.7 0.05-0.3-45.95-0.05 9.3 49.6q0.1 0.45-0.15 0.85t-0.7 0.45q-0.45 0.1-0.8-0.2l-0.45-0.7-7.3-38.9 7.2 68.45h2.95v-2.2q0-0.45 0.35-0.75 0.3-0.35 0.75-0.35t0.8 0.35l0.3 0.75v2.25h3.6v-2.25q0-0.45 0.35-0.75 0.3-0.35 0.75-0.35t0.8 0.35q0.3 0.3 0.3 0.75v2.3l3.6 0.05v-2.35q0-0.45 0.35-0.75 0.3-0.35 0.75-0.35t0.8 0.35l0.3 0.75v2.35l3.6 0.05v-2.4q0-0.45 0.35-0.75 0.3-0.35 0.75-0.35t0.8 0.35l0.3 0.75v2.4l3.6 0.05v-2.45q0-0.45 0.35-0.75 0.3-0.35 0.75-0.35t0.8 0.35l0.3 0.75v2.45l2.85 0.05 1.35-14.05q-1.85 2.5-4.95 2.5-2.55 0-4.35-1.8t-1.8-4.35q0-1.2 0.5-2.45h-6.45q0.5 1.05 0.5 2.45 0 2.55-1.8 4.35t-4.35 1.8-4.35-1.8-1.8-4.35q0-1.4 0.5-2.45h-2.7q-0.95 0-1.6-0.65t-0.65-1.6 0.65-1.65q0.65-0.65 1.6-0.65h32.1l5.2-54.8"/>
  <path d="m17.2-0.9-3.45-1.65-4 1.4 4-9.55 3.45 9.8"/>
  <path d="m3.65-25.4q-0.45 0-0.75-0.3-0.35-0.3-0.35-0.75t0.35-0.75q0.3-0.35 0.75-0.35h18.75q0.45 0 0.8 0.35l0.3 0.75-0.3 0.75q-0.35 0.3-0.8 0.3h-18.75"/>
  <path d="m23.2-33.6 0.3 0.75-0.3 0.8q-0.35 0.3-0.8 0.3h-18.75q-0.45 0-0.75-0.3-0.35-0.35-0.35-0.8t0.35-0.75q0.3-0.35 0.75-0.35h18.75q0.45 0 0.8 0.35"/>
  <path d="m23.2-38.45q-0.35 0.3-0.8 0.3h-18.75q-0.45 0-0.75-0.3-0.35-0.35-0.35-0.8t0.35-0.75l0.75-0.3h18.75l0.8 0.3 0.3 0.75-0.3 0.8"/>
 </g>
</svg>
