<?xml version="1.0" encoding="UTF-8" standalone="no"?>
<svg xmlns:xlink="http://www.w3.org/1999/xlink" height="122.65px" width="77.5px" xmlns="http://www.w3.org/2000/svg">
  <g transform="matrix(1.0, 0.0, 0.0, 1.0, 38.75, 61.3)">
    <path d="M-29.25 0.1 L-29.3 1.75 Q-29.3 12.3 -20.65 19.8 -12.05 27.25 0.15 27.25 12.4 27.25 21.0 19.8 29.65 12.3 29.65 1.75 L29.6 0.1 -29.25 0.1 M0.3 -31.8 Q-5.15 -31.8 -9.0 -27.95 -12.85 -24.1 -12.85 -18.65 -12.85 -13.2 -9.0 -9.35 -5.15 -5.5 0.3 -5.5 5.75 -5.5 9.6 -9.35 13.45 -13.2 13.45 -18.65 13.45 -24.1 9.6 -27.95 5.75 -31.8 0.3 -31.8 M5.3 -36.25 Q5.7 -36.55 5.45 -36.9 L5.1 -37.5 Q14.55 -35.9 21.1 -28.8 24.9 -24.6 27.3 -18.9 29.6 -13.25 30.3 -6.7 L26.85 -6.7 Q26.2 -6.7 25.8 -6.25 25.35 -5.85 25.35 -5.2 25.35 -4.6 25.8 -4.15 26.2 -3.7 26.85 -3.7 L34.25 -3.7 34.25 -3.65 Q34.25 3.35 31.6 9.7 29.0 15.85 24.25 20.6 19.5 25.35 13.35 27.95 7.0 30.6 0.0 30.6 -6.95 30.6 -13.3 27.95 -19.45 25.35 -24.2 20.6 -28.9 15.85 -31.5 9.8 -34.2 3.45 -34.25 -3.45 L-26.5 -3.45 Q-25.85 -3.45 -25.45 -3.9 -25.0 -4.35 -25.0 -4.95 -25.0 -5.6 -25.45 -6.0 -25.85 -6.45 -26.5 -6.45 L-29.95 -6.45 Q-29.3 -13.1 -27.05 -18.75 -24.75 -24.5 -21.0 -28.7 -15.75 -34.5 -8.6 -36.65 -5.8 -33.8 -2.05 -33.8 L-2.0 -33.8 Q0.5 -33.8 3.15 -35.0 L5.3 -36.25" fill="#ffffff" fill-rule="evenodd" stroke="none"/>
    <path d="M0.0 -22.0 Q-1.4 -22.0 -2.35 -21.0 -3.35 -20.05 -3.35 -18.65 -3.35 -17.25 -2.35 -16.3 -1.4 -15.3 0.0 -15.3 1.4 -15.3 2.35 -16.3 3.35 -17.25 3.35 -18.65 3.35 -20.05 2.35 -21.0 1.4 -22.0 0.0 -22.0 M-6.75 -25.7 Q-3.8 -28.6 0.3 -28.6 4.4 -28.6 7.3 -25.7 10.2 -22.75 10.2 -18.65 10.2 -14.55 7.3 -11.65 4.4 -8.75 0.3 -8.75 -3.8 -8.75 -6.75 -11.65 -9.65 -14.55 -9.65 -18.65 -9.65 -22.75 -6.75 -25.7" fill="#ffffff" fill-rule="evenodd" stroke="none"/>
    <path d="M15.05 49.0 L15.15 48.25 14.65 47.65 Q7.45 43.75 -1.1 43.75 -7.15 43.75 -13.1 45.7 L-17.95 47.65 -18.45 48.25 -18.35 49.0 Q-18.1 49.55 -17.5 49.55 L-17.0 49.4 -15.85 48.85 Q-8.55 45.75 -1.1 45.75 6.85 45.75 13.7 49.4 14.6 49.85 15.05 49.0 M21.1 -28.8 Q14.55 -35.9 5.1 -37.5 L5.45 -36.9 Q5.7 -36.55 5.3 -36.25 L3.15 -35.0 Q0.5 -33.8 -2.0 -33.8 L-2.05 -33.8 Q-5.8 -33.8 -8.6 -36.65 -15.75 -34.5 -21.0 -28.7 -24.75 -24.5 -27.05 -18.75 -29.3 -13.1 -29.95 -6.45 L-26.5 -6.45 Q-25.85 -6.45 -25.45 -6.0 -25.0 -5.6 -25.0 -4.95 -25.0 -4.35 -25.45 -3.9 -25.85 -3.45 -26.5 -3.45 L-34.25 -3.45 Q-34.2 3.45 -31.5 9.8 -28.9 15.85 -24.2 20.6 -19.45 25.35 -13.3 27.95 -6.95 30.6 0.0 30.6 7.0 30.6 13.35 27.95 19.5 25.35 24.25 20.6 29.0 15.85 31.6 9.7 34.25 3.35 34.25 -3.65 L34.25 -3.7 26.85 -3.7 Q26.2 -3.7 25.8 -4.15 25.35 -4.6 25.35 -5.2 25.35 -5.85 25.8 -6.25 26.2 -6.7 26.85 -6.7 L30.3 -6.7 Q29.6 -13.25 27.3 -18.9 24.9 -24.6 21.1 -28.8 M13.9 -39.5 Q19.9 -36.8 24.4 -31.85 32.7 -22.7 34.6 -8.75 L36.7 -8.65 37.55 -8.3 Q38.5 -7.75 38.65 -6.55 L38.75 -3.65 Q38.75 9.0 31.35 19.2 24.05 29.15 12.4 33.05 17.15 41.6 18.05 52.35 18.5 57.7 18.0 61.35 L-21.55 61.35 Q-22.05 57.55 -21.6 52.0 -20.6 40.9 -15.5 32.2 L-15.5 31.9 Q-25.9 27.35 -32.25 17.85 -38.75 8.1 -38.75 -3.65 L-38.6 -6.35 Q-38.5 -7.55 -37.55 -8.1 L-37.0 -8.35 -36.55 -8.45 -36.2 -8.45 -35.4 -8.5 -34.25 -8.5 Q-32.5 -22.55 -24.35 -31.7 -18.9 -37.75 -11.35 -40.5 -12.3 -42.35 -12.3 -43.85 -12.25 -46.5 -9.85 -48.05 -8.6 -48.85 -7.4 -49.15 L-6.2 -49.45 -3.6 -50.35 Q0.15 -51.9 0.0 -53.65 0.0 -54.25 -0.4 -54.85 -1.55 -56.6 -1.55 -58.1 -1.55 -59.6 -0.45 -60.55 0.1 -61.05 0.7 -61.25 L1.25 -61.1 1.3 -60.55 1.1 -60.15 Q0.95 -59.75 0.95 -59.0 0.95 -56.65 3.65 -54.35 4.7 -53.5 4.7 -52.25 4.65 -50.55 2.85 -48.55 L0.7 -46.6 -0.2 -45.75 Q-0.9 -44.95 -0.9 -44.2 -0.9 -43.3 0.3 -42.4 7.6 -42.35 13.9 -39.5" fill="#000000" fill-rule="evenodd" stroke="none"/>
    <path d="M7.7 5.8 Q15.7 4.7 21.0 2.55 L-21.55 2.55 Q-8.25 7.95 7.7 5.8 M-11.45 22.95 Q-6.6 25.1 0.35 25.1 7.25 25.1 12.15 22.95 17.05 20.75 17.05 17.7 17.05 16.2 15.7 14.75 L14.7 14.75 14.85 15.65 Q14.85 18.3 10.6 20.2 6.35 22.1 0.35 22.1 -5.65 22.1 -9.9 20.2 -14.15 18.3 -14.15 15.65 L-14.0 14.75 -15.0 14.75 Q-16.35 16.1 -16.35 17.7 -16.35 20.8 -11.45 22.95 M-29.3 1.75 L-29.25 0.1 29.6 0.1 29.65 1.75 Q29.65 12.3 21.0 19.8 12.4 27.25 0.15 27.25 -12.05 27.25 -20.65 19.8 -29.3 12.3 -29.3 1.75" fill="#000000" fill-rule="evenodd" stroke="none"/>
    <path d="M0.35 25.1 Q-6.6 25.1 -11.45 22.95 -16.35 20.8 -16.35 17.7 -16.35 16.1 -15.0 14.75 L-14.0 14.75 -14.15 15.65 Q-14.15 18.3 -9.9 20.2 -5.65 22.1 0.35 22.1 6.35 22.1 10.6 20.2 14.85 18.3 14.85 15.65 L14.7 14.75 15.7 14.75 Q17.05 16.2 17.05 17.7 17.05 20.75 12.15 22.95 7.25 25.1 0.35 25.1" fill="#ffffff" fill-rule="evenodd" stroke="none"/>
    <path d="M21.0 2.55 Q15.7 4.7 7.7 5.8 -8.25 7.95 -21.55 2.55 L21.0 2.55" fill="#ffffff" fill-rule="evenodd" stroke="none"/>
    <path d="M0.3 -28.6 Q-3.8 -28.6 -6.75 -25.7 -9.65 -22.75 -9.65 -18.65 -9.65 -14.55 -6.75 -11.65 -3.8 -8.75 0.3 -8.75 4.4 -8.75 7.3 -11.65 10.2 -14.55 10.2 -18.65 10.2 -22.75 7.3 -25.7 4.4 -28.6 0.3 -28.6 M-9.0 -27.95 Q-5.15 -31.8 0.3 -31.8 5.75 -31.8 9.6 -27.95 13.45 -24.1 13.45 -18.65 13.45 -13.2 9.6 -9.35 5.75 -5.5 0.3 -5.5 -5.15 -5.5 -9.0 -9.35 -12.85 -13.2 -12.85 -18.65 -12.85 -24.1 -9.0 -27.95" fill="#000000" fill-rule="evenodd" stroke="none"/>
    <path d="M-2.35 -21.0 Q-1.4 -22.0 0.0 -22.0 1.4 -22.0 2.35 -21.0 3.35 -20.05 3.35 -18.65 3.35 -17.25 2.35 -16.3 1.4 -15.3 0.0 -15.3 -1.4 -15.3 -2.35 -16.3 -3.35 -17.25 -3.35 -18.65 -3.35 -20.05 -2.35 -21.0" fill="#000000" fill-rule="evenodd" stroke="none"/>
    <path d="M14.65 47.65 L15.15 48.25 15.05 49.0 Q14.6 49.85 13.7 49.4 6.85 45.75 -1.1 45.75 -8.55 45.75 -15.85 48.85 L-17.0 49.4 -17.5 49.55 Q-18.1 49.55 -18.35 49.0 L-18.45 48.25 -17.95 47.65 -13.1 45.7 Q-7.15 43.75 -1.1 43.75 7.45 43.75 14.65 47.65" fill="#ffffff" fill-rule="evenodd" stroke="none"/>
  </g>
</svg>
