<?xml version="1.0" encoding="UTF-8"?>
<svg width="67.8px" height="104.65px" version="1.1" xmlns="http://www.w3.org/2000/svg" xmlns:cc="http://creativecommons.org/ns#" xmlns:dc="http://purl.org/dc/elements/1.1/" xmlns:rdf="http://www.w3.org/1999/02/22-rdf-syntax-ns#">
 <metadata>
  <rdf:RDF>
   <cc:Work rdf:about="">
    <dc:format>image/svg+xml</dc:format>
    <dc:type rdf:resource="http://purl.org/dc/dcmitype/StillImage"/>
    <dc:title/>
   </cc:Work>
  </rdf:RDF>
 </metadata>
 <rect x="12.681" y="2.4624" width="42.229" height="41.368" ry="0" fill="#fff"/>
 <rect x="22.777" y="45.307" width="20.807" height="5.4172" fill="#fff"/>
 <g transform="translate(33.9 52.3)" fill-rule="evenodd">
  <g>
   <path d="m-13-37.4q0-1 0.7-1.7 0.75-0.7 1.75-0.7t1.7 0.7 0.7 1.7-0.7 1.75q-0.7 0.7-1.7 0.7t-1.75-0.7q-0.7-0.75-0.7-1.75"/>
   <path d="m6.9-37.4q0-1 0.7-1.7 0.75-0.7 1.75-0.7t1.7 0.7 0.7 1.7-0.7 1.75q-0.7 0.7-1.7 0.7t-1.75-0.7q-0.7-0.75-0.7-1.75"/>
   <path d="m-4.3-28.6q-0.35 0.3-0.85 0.25-0.45-0.05-0.75-0.45-0.35-0.35-0.3-0.8 0.05-0.5 0.45-0.8 1.8-1.5 4.25-1.8 3.3-0.4 6 1.8l0.4 0.8-0.25 0.85q-0.3 0.35-0.8 0.4-0.45 0.05-0.8-0.25-2.25-1.9-4.95-1.2l-2.4 1.2"/>
   <path d="m-5.35 29.2q-0.85 0-1.5 0.6-0.6 0.65-0.6 1.5t0.6 1.45q0.65 0.6 1.5 0.6t1.45-0.6 0.6-1.45-0.6-1.5q-0.6-0.6-1.45-0.6m-4.1-8.45q0 0.95 0.7 1.65t1.7 0.7 1.65-0.7q0.7-0.65 0.7-1.65t-0.7-1.7-1.65-0.7-1.7 0.7q-0.7 0.75-0.7 1.7m-1.7-11.05q0 1.2 0.85 2.05t2.05 0.85 2.05-0.85 0.85-2.05-0.85-2.05-2.05-0.85-2.05 0.85-0.85 2.05m26.35-20.3h3.3v-38h-37.95v38h3.55q1.5-3.55 5.75-5.75 4.35-2.3 9.8-2.3t9.8 2.3q4.25 2.2 5.75 5.75m-3.05 6.1-0.2 1.3h21.95l-13.75 55.55h-40.8l-13.25-55.55h20.55l-0.15-1.3q0-1.1 0.6-2.4h-10.3v-19.9l-3.55 1.8-4.6-20.15 8.15 10.6v-17.75h45.45v17.45l7.9-10.3-4.6 20.15-3.3-1.65v19.75h-10.75q0.65 1.2 0.65 2.4m-4.15-1-1.05-0.45h-15.3q-0.6 0-1 0.45l-0.45 1q0 0.9 0.8 1.3h16.65q0.75-0.4 0.75-1.3 0-0.6-0.4-1"/>
  </g>
  <g fill="#fff">
   <path d="m-5.35 9.7q0 1.2-0.85 2.05t-2.05 0.85-2.05-0.85-0.85-2.05 0.85-2.05 2.05-0.85 2.05 0.85 0.85 2.05"/>
   <path d="m-4.7 20.75q0 1-0.7 1.65-0.65 0.7-1.65 0.7t-1.7-0.7-0.7-1.65 0.7-1.7q0.75-0.7 1.7-0.7t1.65 0.7 0.7 1.7"/>
   <path d="m-5.35 29.2q0.85 0 1.45 0.6 0.6 0.65 0.6 1.5t-0.6 1.45-1.45 0.6-1.5-0.6q-0.6-0.6-0.6-1.45t0.6-1.5q0.65-0.6 1.5-0.6"/>
  </g>
 </g>
</svg>
