<?xml version="1.0" encoding="UTF-8" standalone="no"?>
<svg xmlns:xlink="http://www.w3.org/1999/xlink" height="53.35px" width="62.4px" xmlns="http://www.w3.org/2000/svg">
  <g transform="matrix(1.0, 0.0, 0.0, 1.0, 31.2, 26.65)">
    <path d="M-18.4 -19.2 Q-18.4 -17.0 -19.95 -15.4 -21.55 -13.8 -23.8 -13.8 -26.0 -13.8 -27.6 -15.4 -29.2 -17.0 -29.2 -19.2 L-29.15 -19.65 -25.05 -19.65 -25.15 -19.2 Q-25.15 -18.65 -24.75 -18.25 -24.35 -17.85 -23.8 -17.85 -23.25 -17.85 -22.85 -18.25 -22.45 -18.65 -22.45 -19.2 L-22.5 -19.65 -18.4 -19.65 -18.4 -19.2" fill="#ffffff" fill-rule="evenodd" stroke="none"/>
    <path d="M-23.8 -24.6 Q-22.25 -24.6 -20.95 -23.8 -19.7 -23.05 -19.0 -21.7 L-28.55 -21.7 Q-27.85 -23.0 -26.6 -23.8 -25.3 -24.6 -23.8 -24.6" fill="#ffffff" fill-rule="evenodd" stroke="none"/>
    <path d="M-6.65 -24.6 Q-5.1 -24.6 -3.8 -23.8 -2.55 -23.05 -1.85 -21.7 L-11.45 -21.7 Q-10.75 -23.0 -9.5 -23.8 -8.2 -24.6 -6.65 -24.6" fill="#ffffff" fill-rule="evenodd" stroke="none"/>
    <path d="M-1.25 -19.65 L-1.25 -19.2 Q-1.25 -17.0 -2.8 -15.4 -4.4 -13.8 -6.65 -13.8 -8.85 -13.8 -10.45 -15.4 -12.05 -17.0 -12.05 -19.2 L-12.0 -19.65 -7.8 -19.65 -7.9 -19.2 Q-7.9 -18.65 -7.55 -18.3 -7.15 -17.95 -6.65 -17.95 -6.1 -17.95 -5.75 -18.3 -5.4 -18.65 -5.4 -19.2 L-5.45 -19.65 -1.25 -19.65" fill="#ffffff" fill-rule="evenodd" stroke="none"/>
    <path d="M-9.05 24.7 L-9.15 24.7 -9.0 17.8 Q-8.85 23.45 -9.05 24.7" fill="#ffffff" fill-rule="evenodd" stroke="none"/>
    <path d="M-10.8 7.95 L-20.7 7.2 -21.0 -2.6 -10.65 -1.15 -10.6 -1.5 -10.8 7.95" fill="#ffffff" fill-rule="evenodd" stroke="none"/>
    <path d="M-19.4 24.7 L-20.1 16.0 -11.0 16.0 -11.2 24.7 -19.4 24.7" fill="#ffffff" fill-rule="evenodd" stroke="none"/>
    <path d="M1.3 -6.6 L1.7 -6.7 1.15 -6.3 1.3 -6.6" fill="#ffffff" fill-rule="evenodd" stroke="none"/>
    <path d="M2.15 -4.5 Q5.0 -6.95 9.45 -7.85 L15.8 -8.25 17.6 -7.8 Q19.5 -7.15 21.0 -5.85 25.8 -1.75 25.0 7.05 24.6 9.3 23.1 11.25 20.05 15.1 14.3 14.55 12.4 14.55 10.65 13.65 7.25 11.85 6.95 7.25 L6.95 5.5 Q7.2 3.6 8.3 2.25 10.35 -0.2 15.1 -0.45 16.0 -0.45 17.0 0.35 18.75 1.7 18.75 4.6 L18.75 5.5 Q18.65 6.4 18.1 6.9 17.25 7.8 15.05 7.65 13.65 7.1 13.6 6.6 13.6 6.15 14.65 5.4 L15.05 4.75 14.85 4.0 Q14.65 3.65 14.2 3.6 13.8 3.5 13.45 3.75 11.3 5.3 11.6 6.9 11.8 8.05 13.1 8.9 13.95 9.45 14.7 9.6 18.0 9.95 19.6 8.3 21.05 6.75 20.8 4.45 20.8 1.05 18.7 -0.9 17.15 -2.35 15.15 -2.5 9.25 -2.2 6.7 1.0 5.25 2.8 4.95 5.25 4.75 6.85 4.95 7.45 5.3 13.2 9.75 15.5 12.0 16.6 14.25 16.6 L17.3 16.6 Q16.1 21.0 18.8 24.7 L6.75 24.7 Q3.7 22.35 1.4 18.95 -2.8 12.65 -2.35 5.15 -1.95 -1.0 2.15 -4.5" fill="#ffffff" fill-rule="evenodd" stroke="none"/>
    <path d="M-10.65 -1.15 L-21.0 -2.6 -20.7 7.2 -10.8 7.95 -10.6 -1.5 -10.65 -1.15 M-20.1 16.0 L-19.4 24.7 -11.2 24.7 -11.0 16.0 -20.1 16.0 M-19.95 -15.4 Q-18.4 -17.0 -18.4 -19.2 L-18.4 -19.65 -22.5 -19.65 -22.45 -19.2 Q-22.45 -18.65 -22.85 -18.25 -23.25 -17.85 -23.8 -17.85 -24.35 -17.85 -24.75 -18.25 -25.15 -18.65 -25.15 -19.2 L-25.05 -19.65 -29.15 -19.65 -29.2 -19.2 Q-29.2 -17.0 -27.6 -15.4 -26.0 -13.8 -23.8 -13.8 -21.55 -13.8 -19.95 -15.4 M-19.0 -21.7 Q-19.7 -23.05 -20.95 -23.8 -22.25 -24.6 -23.8 -24.6 -25.3 -24.6 -26.6 -23.8 -27.85 -23.0 -28.55 -21.7 L-19.0 -21.7 M21.0 -5.85 Q19.5 -7.15 17.6 -7.8 L15.8 -8.25 9.45 -7.85 Q5.0 -6.95 2.15 -4.5 -1.95 -1.0 -2.35 5.15 -2.8 12.65 1.4 18.95 3.7 22.35 6.75 24.7 L18.8 24.7 Q16.1 21.0 17.3 16.6 L14.25 16.6 Q12.0 16.6 9.75 15.5 5.3 13.2 4.95 7.45 4.75 6.85 4.95 5.25 5.25 2.8 6.7 1.0 9.25 -2.2 15.15 -2.5 17.15 -2.35 18.7 -0.9 20.8 1.05 20.8 4.45 21.05 6.75 19.6 8.3 18.0 9.95 14.7 9.6 13.95 9.45 13.1 8.9 11.8 8.05 11.6 6.9 11.3 5.3 13.45 3.75 13.8 3.5 14.2 3.6 14.65 3.65 14.85 4.0 L15.05 4.75 14.65 5.4 Q13.6 6.15 13.6 6.6 13.65 7.1 15.05 7.65 17.25 7.8 18.1 6.9 18.65 6.4 18.75 5.5 L18.75 4.6 Q18.75 1.7 17.0 0.35 16.0 -0.45 15.1 -0.45 10.35 -0.2 8.3 2.25 7.2 3.6 6.95 5.5 L6.95 7.25 Q7.25 11.85 10.65 13.65 12.4 14.55 14.3 14.55 20.05 15.1 23.1 11.25 24.6 9.3 25.0 7.05 25.8 -1.75 21.0 -5.85 M-3.8 -23.8 Q-5.1 -24.6 -6.65 -24.6 -8.2 -24.6 -9.5 -23.8 -10.75 -23.0 -11.45 -21.7 L-1.85 -21.7 Q-2.55 -23.05 -3.8 -23.8 M-1.25 -19.2 L-1.25 -19.65 -5.45 -19.65 -5.4 -19.2 Q-5.4 -18.65 -5.75 -18.3 -6.1 -17.95 -6.65 -17.95 -7.15 -17.95 -7.55 -18.3 -7.9 -18.65 -7.9 -19.2 L-7.8 -19.65 -12.0 -19.65 -12.05 -19.2 Q-12.05 -17.0 -10.45 -15.4 -8.85 -13.8 -6.65 -13.8 -4.4 -13.8 -2.8 -15.4 -1.25 -17.0 -1.25 -19.2 M0.8 -19.2 Q0.8 -16.15 -1.4 -13.95 -3.55 -11.8 -6.65 -11.8 L-8.35 -12.0 -9.15 24.7 3.6 24.7 Q0.2 21.55 -1.85 17.55 -4.8 11.75 -4.35 5.05 -3.9 -2.05 0.85 -6.05 L1.7 -6.7 Q4.9 -9.05 9.45 -9.9 L16.0 -10.25 18.0 -9.75 Q20.3 -9.0 22.1 -7.5 27.95 -2.8 27.05 7.3 26.75 9.0 25.65 10.95 23.5 14.8 19.65 16.1 19.0 17.25 18.95 19.05 18.9 22.2 21.45 24.7 L30.15 24.7 Q30.6 24.7 30.9 25.0 L31.2 25.7 30.9 26.4 Q30.6 26.7 30.15 26.7 L-21.25 26.7 -22.7 9.05 -22.65 8.9 -23.3 -11.8 -23.8 -11.8 Q-26.85 -11.8 -29.05 -13.95 -31.2 -16.1 -31.2 -19.2 -31.2 -22.3 -29.05 -24.45 -26.85 -26.65 -23.8 -26.65 -20.7 -26.65 -18.55 -24.45 -16.35 -22.25 -16.35 -19.2 -16.35 -16.8 -17.75 -14.9 -19.1 -13.0 -21.3 -12.25 L-21.05 -4.65 -10.6 -3.2 -10.4 -12.8 Q-12.05 -13.8 -13.05 -15.45 -14.05 -17.2 -14.05 -19.2 -14.05 -22.3 -11.9 -24.45 -9.7 -26.65 -6.65 -26.65 -3.55 -26.65 -1.4 -24.45 0.8 -22.25 0.8 -19.2" fill="#000000" fill-rule="evenodd" stroke="none"/>
  </g>
</svg>
