<?xml version="1.0" encoding="UTF-8" standalone="no"?>
<svg xmlns:xlink="http://www.w3.org/1999/xlink" height="77.35px" width="60.1px" xmlns="http://www.w3.org/2000/svg">
  <g transform="matrix(1.0, 0.0, 0.0, 1.0, 30.05, 38.65)">
    <path d="M14.3 -29.2 Q8.8 -34.9 0.85 -35.2 L0.85 -9.25 19.85 -15.4 19.85 -15.5 Q19.85 -23.45 14.3 -29.2 M-23.05 -15.5 Q-23.05 -25.05 -16.25 -31.85 -9.45 -38.65 0.1 -38.65 9.65 -38.65 16.45 -31.85 23.25 -25.05 23.25 -15.5 23.25 -8.1 18.9 -2.0 L30.05 -2.0 18.05 18.85 Q7.6 14.15 -4.45 15.5 -11.7 16.3 -17.95 19.0 L-30.05 -2.0 -18.7 -2.0 Q-23.05 -8.1 -23.05 -15.5 M-13.85 -29.5 Q-19.55 -23.75 -19.65 -15.65 L0.0 -9.25 0.0 -35.25 Q-8.1 -35.2 -13.85 -29.5 M-15.35 -11.6 L-19.5 -12.95 Q-18.8 -7.6 -15.5 -3.35 -12.2 0.85 -7.3 2.8 -6.25 1.1 -4.25 0.05 -2.2 -1.0 0.2 -1.0 2.6 -1.0 4.6 0.05 6.6 1.05 7.65 2.75 12.4 0.8 15.6 -3.3 18.85 -7.45 19.65 -12.65 L15.4 -11.3 15.6 -10.0 Q15.6 -7.95 14.15 -6.5 12.65 -5.05 10.6 -5.05 9.05 -5.05 7.8 -5.95 6.55 -6.85 6.0 -8.25 L0.4 -6.45 -5.95 -8.5 Q-6.45 -6.95 -7.7 -6.0 -9.05 -5.05 -10.7 -5.05 -12.75 -5.05 -14.2 -6.5 -15.65 -7.95 -15.65 -10.0 L-15.35 -11.6" fill="#000000" fill-rule="evenodd" stroke="none"/>
    <path d="M17.4 19.95 L21.35 38.7 2.1 38.7 0.3 30.0 -0.05 30.0 -1.8 38.7 -21.05 38.7 -17.3 20.15 -17.3 20.1 Q-11.2 17.5 -4.2 16.75 7.4 15.45 17.4 19.95" fill="#000000" fill-rule="evenodd" stroke="none"/>
    <path d="M-19.65 -15.65 Q-19.55 -23.75 -13.85 -29.5 -8.1 -35.2 0.0 -35.25 L0.0 -9.25 -19.65 -15.65" fill="#ffffff" fill-rule="evenodd" stroke="none"/>
    <path d="M0.85 -35.2 Q8.8 -34.9 14.3 -29.2 19.85 -23.45 19.85 -15.5 L19.85 -15.4 0.85 -9.25 0.85 -35.2" fill="#ffffff" fill-rule="evenodd" stroke="none"/>
    <path d="M-19.5 -12.95 L-15.35 -11.6 -15.65 -10.0 Q-15.65 -7.95 -14.2 -6.5 -12.75 -5.05 -10.7 -5.05 -9.05 -5.05 -7.7 -6.0 -6.45 -6.95 -5.95 -8.5 L0.4 -6.45 6.0 -8.25 Q6.55 -6.85 7.8 -5.95 9.05 -5.05 10.6 -5.05 12.65 -5.05 14.15 -6.5 15.6 -7.95 15.6 -10.0 L15.4 -11.3 19.65 -12.65 Q18.85 -7.45 15.6 -3.3 12.4 0.8 7.65 2.75 6.6 1.05 4.6 0.05 2.6 -1.0 0.2 -1.0 -2.2 -1.0 -4.25 0.05 -6.25 1.1 -7.3 2.8 -12.2 0.85 -15.5 -3.35 -18.8 -7.6 -19.5 -12.95" fill="#ffffff" fill-rule="evenodd" stroke="none"/>
    <path d="M18.05 18.85 L19.5 19.55 18.95 20.7 17.4 19.95 Q7.4 15.45 -4.2 16.75 -11.2 17.5 -17.3 20.1 L-18.5 20.7 -19.1 19.55 -17.95 19.0 Q-11.7 16.3 -4.45 15.5 7.6 14.15 18.05 18.85" fill="#ffffff" fill-rule="evenodd" stroke="none"/>
  </g>
</svg>
