<?xml version="1.0" encoding="UTF-8" standalone="no"?>
<svg xmlns:xlink="http://www.w3.org/1999/xlink" height="93.8px" width="81.1px" xmlns="http://www.w3.org/2000/svg">
  <g transform="matrix(1.0, 0.0, 0.0, 1.0, 40.55, 46.9)">
    <path d="M26.85 -44.75 L27.0 -44.75 Q31.75 -44.75 35.05 -41.4 38.4 -38.05 38.4 -33.35 38.4 -30.0 36.65 -27.25 34.9 -24.5 32.0 -23.1 L31.4 -24.65 Q29.4 -29.55 25.75 -33.35 22.15 -37.15 17.35 -39.45 19.6 -42.85 23.2 -44.1 27.6 -42.7 29.8 -38.65 31.95 -34.55 30.7 -30.1 30.6 -29.7 30.8 -29.3 31.0 -28.9 31.45 -28.8 L32.25 -28.85 32.75 -29.5 Q34.0 -33.9 32.3 -38.2 30.65 -42.4 26.85 -44.75" fill="#ffffff" fill-rule="evenodd" stroke="none"/>
    <path d="M27.0 -44.75 L26.85 -44.75 Q30.65 -42.4 32.3 -38.2 34.0 -33.9 32.75 -29.5 L32.25 -28.85 31.45 -28.8 Q31.0 -28.9 30.8 -29.3 30.6 -29.7 30.7 -30.1 31.95 -34.55 29.8 -38.65 27.6 -42.7 23.2 -44.1 19.6 -42.85 17.35 -39.45 22.15 -37.15 25.75 -33.35 29.4 -29.55 31.4 -24.65 L32.0 -23.1 Q34.9 -24.5 36.65 -27.25 38.4 -30.0 38.4 -33.35 38.4 -38.05 35.05 -41.4 31.75 -44.75 27.0 -44.75 M-1.1 -36.8 Q-0.6 -34.95 -0.6 -33.35 -0.6 -27.75 -4.6 -23.75 -8.55 -19.8 -14.15 -19.8 L-17.6 -20.25 Q-19.95 -11.7 -16.05 -3.65 -12.15 4.5 -3.85 7.95 0.55 9.8 5.25 9.8 9.95 9.85 14.35 8.05 18.75 6.2 22.05 2.9 25.35 -0.4 27.2 -4.8 L27.35 -5.05 Q19.75 0.4 10.35 0.2 0.8 0.0 -6.65 -5.95 -7.4 -6.55 -7.5 -7.45 -7.6 -8.4 -7.0 -9.1 -6.45 -9.8 -5.5 -9.9 -4.6 -10.0 -3.9 -9.45 3.6 -3.4 13.25 -4.35 22.8 -5.3 29.05 -12.65 29.35 -17.9 27.3 -22.95 25.45 -27.35 22.15 -30.7 18.85 -34.0 14.45 -35.85 6.9 -39.05 -1.1 -36.8 M-14.15 -44.75 L-14.3 -44.75 Q-11.35 -42.95 -9.6 -39.8 -6.85 -34.85 -8.4 -29.5 -8.5 -29.1 -8.9 -28.85 L-9.75 -28.8 Q-10.15 -28.9 -10.4 -29.3 -10.6 -29.7 -10.45 -30.1 -9.2 -34.55 -11.4 -38.65 -13.6 -42.7 -17.95 -44.1 -21.35 -42.9 -23.4 -40.0 -25.55 -37.0 -25.55 -33.35 -25.55 -28.6 -22.2 -25.3 -18.85 -21.95 -14.15 -21.95 -9.4 -21.95 -6.1 -25.3 -2.75 -28.6 -2.75 -33.35 -2.75 -38.05 -6.1 -41.4 -9.4 -44.75 -14.15 -44.75 M-18.55 -46.15 L-18.3 -46.25 -14.15 -46.9 Q-10.7 -46.9 -7.7 -45.25 -4.8 -43.65 -2.95 -40.9 6.35 -43.75 15.4 -40.25 17.9 -44.55 22.6 -46.15 L22.85 -46.25 Q24.95 -46.9 27.0 -46.9 32.6 -46.9 36.55 -42.9 40.55 -38.95 40.55 -33.35 40.55 -29.3 38.35 -25.9 36.2 -22.65 32.6 -21.0 33.75 -16.65 33.45 -11.85 L33.4 -11.35 Q33.05 -7.15 31.35 -3.05 28.15 4.5 21.6 9.05 27.1 17.45 27.1 27.6 27.1 38.2 21.05 46.9 L-34.45 46.9 Q-40.55 38.25 -40.55 27.6 -40.55 17.5 -35.0 9.05 -29.65 0.9 -20.75 -3.2 -24.55 -12.5 -21.7 -22.1 -24.45 -23.95 -26.05 -26.85 -27.7 -29.9 -27.7 -33.35 -27.7 -37.75 -25.1 -41.3 -22.6 -44.75 -18.55 -46.15" fill="#000000" fill-rule="evenodd" stroke="none"/>
    <path d="M-0.6 -33.35 Q-0.6 -34.95 -1.1 -36.8 6.9 -39.05 14.45 -35.85 18.85 -34.0 22.15 -30.7 25.45 -27.35 27.3 -22.95 29.35 -17.9 29.05 -12.65 22.8 -5.3 13.25 -4.35 3.6 -3.4 -3.9 -9.45 -4.6 -10.0 -5.5 -9.9 -6.45 -9.8 -7.0 -9.1 -7.6 -8.4 -7.5 -7.45 -7.4 -6.55 -6.65 -5.95 0.8 0.0 10.35 0.2 19.75 0.4 27.35 -5.05 L27.2 -4.8 Q25.35 -0.4 22.05 2.9 18.75 6.2 14.35 8.05 9.95 9.85 5.25 9.8 0.55 9.8 -3.85 7.95 -12.15 4.5 -16.05 -3.65 -19.95 -11.7 -17.6 -20.25 L-14.15 -19.8 Q-8.55 -19.8 -4.6 -23.75 -0.6 -27.75 -0.6 -33.35" fill="#ffffff" fill-rule="evenodd" stroke="none"/>
    <path d="M-14.3 -44.75 L-14.15 -44.75 Q-9.4 -44.75 -6.1 -41.4 -2.75 -38.05 -2.75 -33.35 -2.75 -28.6 -6.1 -25.3 -9.4 -21.95 -14.15 -21.95 -18.85 -21.95 -22.2 -25.3 -25.55 -28.6 -25.55 -33.35 -25.55 -37.0 -23.4 -40.0 -21.35 -42.9 -17.95 -44.1 -13.6 -42.7 -11.4 -38.65 -9.2 -34.55 -10.45 -30.1 -10.6 -29.7 -10.4 -29.3 -10.15 -28.9 -9.75 -28.8 L-8.9 -28.85 Q-8.5 -29.1 -8.4 -29.5 -6.85 -34.85 -9.6 -39.8 -11.35 -42.95 -14.3 -44.75" fill="#ffffff" fill-rule="evenodd" stroke="none"/>
  </g>
</svg>
