<?xml version="1.0" encoding="UTF-8"?>
<svg width="86.9px" height="57.85px" version="1.1" xmlns="http://www.w3.org/2000/svg" xmlns:cc="http://creativecommons.org/ns#" xmlns:dc="http://purl.org/dc/elements/1.1/" xmlns:rdf="http://www.w3.org/1999/02/22-rdf-syntax-ns#">
 <metadata>
  <rdf:RDF>
   <cc:Work rdf:about="">
    <dc:format>image/svg+xml</dc:format>
    <dc:type rdf:resource="http://purl.org/dc/dcmitype/StillImage"/>
    <dc:title/>
   </cc:Work>
  </rdf:RDF>
 </metadata>
 <path d="m7.0315 56.634 14.98 0.07643 0.07643-6.5729 16.891 0.30572 0.30572 6.4201h14.751l0.22929-6.2672 11.541-1.2229 11.999-10.471-2.7515-4.9679 4.815-3.6686 4.8915-1.1464-0.15286-14.292-8.1015-6.1908-16.203 2.3693-2.9043 12.458 7.2608 6.4965-2.4457 11.235-3.0572 1.1464-8.4072-15.974-17.732-5.1208-18.725 4.28-10.012 15.668 1.5286 7.4901 1.5286 2.4457z" fill="#fff"/>
 <g transform="translate(43.45 28.9)" fill-rule="evenodd">
  <path d="m-0.45 22.65h-2.4v3.9h2.4v-3.9m9.95-1.9h-7.6v5.8h7.6v-5.8m15.15-31.9q-1.6-1.6-3.9-1.6t-3.9 1.6-1.6 3.9 1.6 3.9 3.9 1.6 3.9-1.6 1.6-3.9-1.6-3.9m-47.05 31.9h-7.6v5.8h7.6v-5.8m-10 1.9h-2.4v3.9h2.4v-3.9m21.85-28.05h-1.7l0.1 1.85-5.25 3.6-5.8-2.75-0.05-0.8q-4.55 1.75-7.6 4.9l-2.4 3 0.35 4.15-3.2 2.2-0.8 3.85 4.9-3.35 5.75 2.75 0.2 2h2.9l-0.05-1.15 5.25-3.6 5.8 2.75 0.15 2h2.6l-0.05-1.15 5.25-3.6 5.8 2.75 0.15 2h3.1l-0.1-1.15 5.3-3.6 3.65 1.75q-1.7-6.15-5.5-10.45l0.45 6-5.3 3.65-5.75-2.8-0.5-6.4 5.3-3.6 5.25 2.5q-3.1-3.3-7.45-5.1l-4.75 3.25-5.8-2.75-0.2-2.7m39.1-13.5-1 0.15-0.4 0.15q-2.6 1.25-4.25 3.35 2.7 0.7 4.4 2.95 1.75 2.2 1.75 5.05t-1.75 5.1q-1.7 2.2-4.4 2.9l0.1 1.6q0 5.8-3.45 11.05-1.75 2.6-3.55 4.1l-1.4 0.7 0.65 0.55q0.55 0.45 0.55 1.15 7-0.45 12-4.7 3.3-2.8 5.3-6.8h-2.35q-0.7 0-1.1-0.55-0.45-0.55-0.3-1.25 1-4.1 4-5.8 2.6-1.45 6.5-1 0.7-3.75 0.7-6.6 0-5.5-2.3-8.55-2.4-3.25-7.35-3.55h-0.05-2.3m-22.1 5-2.65-0.1q2.65-3.1 6.9-3.5l3.7 0.25q-0.5-3.85-4.25-5.7l-3.7-1.05q5.9-2.05 11.05-0.2 2.6 0.95 4 2.3 0.65-3-2.1-5.15l-2.9-1.6q6.05-1 9.8 1.95 2.35 1.85 3.45 4.9l1.35 0.05q6.25 0.4 9.45 4.65 2.9 3.8 2.9 10.35 0 3.7-1 8.6-0.15 0.65-0.7 0.95l-1.15 0.1-2-0.3q-2.3-0.15-3.85 0.7-1.15 0.7-1.85 2.2h2.35q0.75 0 1.2 0.6t0.2 1.3l-1.2 2.65q-1.6 3.05-3.95 5.55-7.4 7.9-19.1 7.2l-0.5-0.15v6.3h-17.15v-6.3h-14.75v6.3h-17.15v-6.3h-2.45q-1.6 0-2.75-0.95-1.1-1-1.1-2.35 0-1.1 0.8-1.95 0.75-0.85 1.95-1.2 0.25-3.85 1.5-7.6 1.9-5.65 5.75-9.65 7.65-7.95 21.8-7.95 13.1 0 20.9 7.55 5.45 5.2 7.8 13.4 3.05-4.45 3.05-9.5l-0.05-1.45q-3.05-0.25-5.2-2.45t-2.35-5.25q-1.65-1.85-4.5-2.25h-2.5q0.6-1.7 2.6-2.55l1.85-0.55q-0.7-1.45-3.5-1.85"/>
  <path d="m-24.15 12.2-5.75-2.8-0.5-6.4 5.3-3.6 5.75 2.8 0.5 6.35-5.3 3.65"/>
  <path d="m-10.4 12.2-5.75-2.8-0.5-6.4 5.3-3.6 5.75 2.8 0.5 6.35-5.3 3.65"/>
 </g>
 <ellipse cx="66.646" cy="22.356" rx="1.6814" ry="1.5668"/>
</svg>
