<?xml version="1.0" encoding="UTF-8"?>
<svg width="83.1px" height="143.65px" version="1.1" xmlns="http://www.w3.org/2000/svg" xmlns:cc="http://creativecommons.org/ns#" xmlns:dc="http://purl.org/dc/elements/1.1/" xmlns:rdf="http://www.w3.org/1999/02/22-rdf-syntax-ns#">
 <metadata>
  <rdf:RDF>
   <cc:Work rdf:about="">
    <dc:format>image/svg+xml</dc:format>
    <dc:type rdf:resource="http://purl.org/dc/dcmitype/StillImage"/>
    <dc:title/>
   </cc:Work>
  </rdf:RDF>
 </metadata>
 <path d="m6.422 141.79 68.952 0.676 6.253-14.196-6.084-22.815-4.732-4.394 4.732-13.858-9.093-22.104 0.305-18.456-10.14-12.168-27.378-1.014-12.337 11.83-0.507 14.365 1.8875 6.2713-8.6475 14.178 1.117 21.594-8.553 18.966z" fill="#fff"/>
 <g transform="translate(41.55 71.8)" fill-rule="evenodd">
  <g>
   <path d="m-6.9-6.3v-9.65l-25.55 6 25.55 3.65m11.25-24.35q-9.8-2.45-14.6-6.2-6.1 2.55-9.8 7.55-3.8 5.15-3.8 11.25 0 1.8 0.55 3.9l4.95-1.15q-1.15-1.55-1.15-4.55 0-2.2 0.75-3.8 0.7-1.55 1.75-1.55 1 0 1.75 1.55 0.7 1.6 0.7 3.8t-0.75 3.8l9.15-2.15h0.4q1.1 0 1.85 2.05t0.75 4.95q0 2.8-0.7 4.85-0.75 2-1.75 2.15h-0.15l-0.3 0.05-12.9-1.85-1.7 1.1q-4.95 3.85-7.65 9.05-2.85 5.4-2.85 11.35 0 6.55 5 14.2h-0.05l0.45 1.05-0.05 0.05q-5.25 4.55-8.3 10.55-3.1 6.15-3.35 13.05v1.25q0 8.4 4.2 12.15h66q2.45-1.85 3.7-5.95 1.05-3.4 1.05-7.5 0-6.9-2.65-12.9-2.65-5.9-7.5-10.3h-8.2l-0.65-0.25q-0.25-0.25-0.25-0.65 0-0.35 0.25-0.65 0.3-0.25 0.65-0.25h7.85l-0.05-0.05q4.3-6.35 4.3-13.8 0-5.9-2.8-11.2-2.65-5.15-7.5-9h-5.05q-0.45 0-0.75-0.3-0.35-0.35-0.35-0.8t0.35-0.75q0.3-0.35 0.75-0.35h4.3q3.7-5.1 3.7-11.15 0-5.95-3.65-11.05-6.1 1.05-15.9-1.55m-15.4-31.45q-0.45 0.25-0.55 0.7l-2.55 9.75 0.1 0.85 0.7 0.5 3.2 0.85 3.05-11.95-3.1-0.8-0.85 0.1m19.15 0.35-0.8 0.55q-0.3 0.4-0.2 0.95 0.1 0.5 0.55 0.8l0.95 0.2q0.5-0.1 0.8-0.55t0.2-0.95q-0.1-0.55-0.55-0.8l-0.95-0.2m3.05 2.05q-0.15 0.4 0 0.8l0.6 0.55q1.2 0.6 4.2 1.25 4.8 1.05 9.15 0.6l-5.2 18.45-0.05 0.25q0 0.8 0.75 1.05 1 0.25 1.35-0.75l5.65-20q0.15-0.5-0.25-1-0.45-0.45-1-0.3l-9.45-0.25-4.35-1.25h-0.8l-0.6 0.6m-29.25 11.25q-1.2-2.05-0.6-4.4l2.55-9.75q0.65-2.35 2.75-3.55 2.05-1.25 4.4-0.6l3.1 0.8 0.9-3.55q0.55-2.15 6.25-2.3t13.2 1.8q7.5 1.9 12.45 4.8 4.9 2.85 4.35 5l-7.45 29.05q4.15 5.95 4.15 13.1 0 6-3.05 11.35 4.9 4.35 7.6 10 2.8 5.85 2.8 12.2 0 7.35-3.7 14.05 4.8 4.85 7.35 11.1 2.6 6.4 2.6 13.7 0 4.25-1.05 8.1-1.75 6.3-5.9 9.05l-0.55 0.35h-68.8l-0.55-0.4q-6.65-5.2-6.2-17.2 0.25-6.95 3.1-13.3 2.75-6.1 7.6-11.05-4.4-7.8-4.4-14.4 0-6.4 2.85-12.25 2.7-5.7 7.65-10.05l-13.3-1.9q-0.85-0.1-0.85-0.95-0.1-0.8 0.75-1l10.9-2.55q-0.7-2.55-0.7-4.85 0-7.15 4.3-13.2 4.15-5.9 11.1-9.05l1.2-4.6-3.25-0.85q-2.3-0.6-3.55-2.7"/>
   <path d="m8.15-12.95q-1.15 0-2-1.8-0.8-1.8-0.8-4.35 0-2.5 0.8-4.3 0.85-1.8 2-1.8t1.95 1.8q0.85 1.8 0.85 4.3 0 2.55-0.85 4.35-0.8 1.8-1.95 1.8"/>
   <path d="m-11.1 14.6q-1.1 0-1.85-1.15-0.8-1.15-0.8-2.75 0-1.65 0.8-2.8 0.75-1.15 1.85-1.15t1.9 1.15q0.75 1.15 0.75 2.8 0 1.6-0.75 2.75-0.8 1.15-1.9 1.15"/>
   <path d="m-12.75 44.85q1.6 0 2.7 1.65 1.15 1.7 1.15 4.05t-1.15 4.05q-1.1 1.65-2.7 1.65t-2.75-1.65q-1.1-1.7-1.1-4.05t1.1-4.05q1.15-1.65 2.75-1.65"/>
   <path d="m-11.65 33q-1.3 0-2.25-1.4t-0.95-3.35q0-2 0.95-3.4t2.25-1.4q1.35 0 2.3 1.4t0.95 3.4q0 1.95-0.95 3.35t-2.3 1.4"/>
  </g>
  <path d="m11.75-58.35-0.6-0.55q-0.15-0.4 0-0.8l0.6-0.6h0.8l4.35 1.25 9.45 0.25q0.55-0.15 1 0.3 0.4 0.5 0.25 1l-5.65 20q-0.35 1-1.35 0.75-0.75-0.25-0.75-1.05l0.05-0.25 5.2-18.45q-4.35 0.45-9.15-0.6-3-0.65-4.2-1.25" fill="#fff"/>
  <path d="m8.6-59.25-0.95-0.2q-0.45-0.3-0.55-0.8-0.1-0.55 0.2-0.95l0.8-0.55 0.95 0.2q0.45 0.25 0.55 0.8 0.1 0.5-0.2 0.95t-0.8 0.55" fill="#fff"/>
  <path d="m-6.9-15.95v9.65l-25.55-3.65 25.55-6"/>
 </g>
</svg>
