<?xml version="1.0" encoding="UTF-8" standalone="no"?>
<svg xmlns:xlink="http://www.w3.org/1999/xlink" height="48.7px" width="82.15px" xmlns="http://www.w3.org/2000/svg">
  <g transform="matrix(1.0, 0.0, 0.0, 1.0, 41.05, 24.35)">
    <path d="M24.25 13.1 Q24.25 10.35 22.3 8.4 20.4 6.45 17.65 6.45 14.9 6.45 13.0 8.4 11.05 10.35 11.05 13.1 11.05 15.85 13.0 17.75 14.9 19.7 17.65 19.7 20.4 19.7 22.3 17.75 24.25 15.85 24.25 13.1 M7.05 -24.2 L4.3 -9.1 6.65 -8.65 17.15 -18.95 11.0 -7.15 12.5 -6.45 25.9 -11.1 16.4 -3.9 Q18.5 -2.25 20.2 -0.25 L39.15 15.55 Q40.05 16.1 40.55 17.25 41.1 18.35 41.1 19.7 41.1 21.6 40.05 23.0 38.95 24.35 37.45 24.35 L-24.0 24.35 -37.7 23.9 -24.95 20.35 -25.1 19.35 -41.05 13.75 -25.2 14.15 -25.0 12.7 -40.35 2.05 -23.6 7.15 -22.75 5.25 -35.05 -6.45 -20.05 0.8 -18.9 -0.6 -27.7 -16.4 -14.8 -4.35 -14.1 -4.9 -17.35 -21.75 -9.45 -7.4 -7.7 -8.05 -5.85 -24.35 -2.8 -9.2 -0.9 -9.35 7.05 -24.2" fill="#000000" fill-rule="evenodd" stroke="none"/>
    <path d="M19.15 9.05 Q18.5 9.05 18.05 9.5 17.6 10.0 17.6 10.65 17.6 11.3 18.05 11.75 18.5 12.2 19.15 12.2 19.8 12.2 20.3 11.75 20.75 11.3 20.75 10.65 20.75 10.0 20.3 9.5 19.85 9.05 19.15 9.05 M22.3 8.4 Q24.25 10.35 24.25 13.1 24.25 15.85 22.3 17.75 20.4 19.7 17.65 19.7 14.9 19.7 13.0 17.75 11.05 15.85 11.05 13.1 11.05 10.35 13.0 8.4 14.9 6.45 17.65 6.45 20.4 6.45 22.3 8.4" fill="#ffffff" fill-rule="evenodd" stroke="none"/>
    <path d="M19.15 12.2 Q18.5 12.2 18.05 11.75 17.6 11.3 17.6 10.65 17.6 10.0 18.05 9.5 18.5 9.05 19.15 9.05 19.85 9.05 20.3 9.5 20.75 10.0 20.75 10.65 20.75 11.3 20.3 11.75 19.8 12.2 19.15 12.2" fill="#000000" fill-rule="evenodd" stroke="none"/>
  </g>
</svg>
