<?xml version="1.0" encoding="UTF-8" standalone="no"?>
<svg xmlns:xlink="http://www.w3.org/1999/xlink" height="95.8px" width="79.0px" xmlns="http://www.w3.org/2000/svg">
  <g transform="matrix(1.0, 0.0, 0.0, 1.0, 39.5, 47.9)">
    <path d="M-11.5 32.15 L-11.8 31.7 -11.7 31.15 Q-11.35 30.5 -10.7 30.95 L-9.95 31.35 -7.85 32.25 Q-4.75 33.45 -1.2 33.6 L-0.35 33.65 Q4.95 33.65 9.85 30.9 10.5 30.55 10.85 31.2 L10.95 31.75 10.6 32.15 Q5.35 35.1 -0.35 35.1 L-1.8 35.05 Q-5.4 34.8 -8.75 33.45 L-11.5 32.15" fill="#ffffff" fill-rule="evenodd" stroke="none"/>
    <path d="M-13.0 -40.4 Q-6.9 -43.6 0.0 -43.6 6.8 -43.6 12.8 -40.45 18.65 -37.4 22.45 -32.1 12.25 -34.85 0.95 -34.85 -11.15 -34.85 -22.7 -31.8 -18.85 -37.25 -13.0 -40.4" fill="#ffffff" fill-rule="evenodd" stroke="none"/>
    <path d="M-17.05 -17.9 Q-15.8 -17.4 -14.35 -18.5 -12.85 -19.55 -12.0 -21.6 -11.15 -23.6 -11.45 -25.4 -11.7 -27.2 -12.9 -27.75 -14.15 -28.25 -15.6 -27.2 -17.05 -26.1 -17.9 -24.05 -18.75 -22.05 -18.5 -20.2 -18.25 -18.45 -17.05 -17.9 M13.7 0.7 Q13.3 0.55 12.9 0.7 7.7 2.75 1.2 2.75 -3.65 2.75 -8.15 1.7 L-10.95 1.0 -11.95 0.7 Q-12.35 0.55 -12.75 0.7 L-13.3 1.3 -13.25 2.15 -12.65 2.7 -8.65 3.8 Q-3.65 4.9 1.2 4.9 8.05 4.9 13.65 2.65 L14.25 2.1 Q14.45 1.7 14.25 1.3 L13.7 0.7 M15.3 -18.5 Q16.75 -17.4 18.0 -17.9 19.25 -18.4 19.5 -20.2 19.75 -22.0 18.9 -24.05 18.05 -26.1 16.55 -27.2 15.1 -28.25 13.9 -27.75 12.65 -27.2 12.4 -25.4 12.15 -23.6 13.0 -21.6 13.85 -19.6 15.3 -18.5 M24.9 -28.1 Q27.7 -22.35 27.7 -15.9 27.7 -10.3 25.55 -5.15 23.5 -0.2 19.7 3.6 L21.25 -5.5 Q21.35 -6.15 21.0 -6.7 L19.95 -7.35 Q19.3 -7.45 18.75 -7.05 18.2 -6.7 18.1 -6.05 L16.1 5.55 Q16.0 6.1 16.25 6.55 10.8 10.55 4.1 11.5 L4.1 7.0 -3.7 7.0 -3.7 11.55 Q-10.75 10.55 -16.3 6.45 -16.1 6.0 -16.2 5.55 L-18.2 -6.05 Q-18.3 -6.7 -18.85 -7.05 L-20.05 -7.35 Q-20.7 -7.25 -21.05 -6.7 -21.45 -6.15 -21.35 -5.5 L-19.8 3.45 Q-23.55 -0.35 -25.6 -5.25 -27.7 -10.35 -27.7 -15.9 -27.7 -22.15 -25.05 -27.75 L-23.2 -28.35 Q-11.95 -31.65 0.95 -31.65 13.6 -31.65 24.9 -28.1" fill="#ffffff" fill-rule="evenodd" stroke="none"/>
    <path d="M-12.9 -27.75 Q-11.7 -27.2 -11.45 -25.4 -11.15 -23.6 -12.0 -21.6 -12.85 -19.55 -14.35 -18.5 -15.8 -17.4 -17.05 -17.9 -18.25 -18.45 -18.5 -20.2 -18.75 -22.05 -17.9 -24.05 -17.05 -26.1 -15.6 -27.2 -14.15 -28.25 -12.9 -27.75" fill="#000000" fill-rule="evenodd" stroke="none"/>
    <path d="M13.9 -27.75 Q15.1 -28.25 16.55 -27.2 18.05 -26.1 18.9 -24.05 19.75 -22.0 19.5 -20.2 19.25 -18.4 18.0 -17.9 16.75 -17.4 15.3 -18.5 13.85 -19.6 13.0 -21.6 12.15 -23.6 12.4 -25.4 12.65 -27.2 13.9 -27.75" fill="#000000" fill-rule="evenodd" stroke="none"/>
    <path d="M12.9 0.7 Q13.3 0.55 13.7 0.7 L14.25 1.3 Q14.45 1.7 14.25 2.1 L13.65 2.65 Q8.05 4.9 1.2 4.9 -3.65 4.9 -8.65 3.8 L-12.65 2.7 -13.25 2.15 -13.3 1.3 -12.75 0.7 Q-12.35 0.55 -11.95 0.7 L-10.95 1.0 -8.15 1.7 Q-3.65 2.75 1.2 2.75 7.7 2.75 12.9 0.7" fill="#000000" fill-rule="evenodd" stroke="none"/>
    <path d="M-9.95 31.35 L-10.7 30.95 Q-11.35 30.5 -11.7 31.15 L-11.8 31.7 -11.5 32.15 -8.75 33.45 Q-5.4 34.8 -1.8 35.05 L-0.35 35.1 Q5.35 35.1 10.6 32.15 L10.95 31.75 10.85 31.2 Q10.5 30.55 9.85 30.9 4.95 33.65 -0.35 33.65 L-1.2 33.6 Q-4.75 33.45 -7.85 32.25 L-9.95 31.35 M27.7 -15.9 Q27.7 -22.35 24.9 -28.1 13.6 -31.65 0.95 -31.65 -11.95 -31.65 -23.2 -28.35 L-25.05 -27.75 Q-27.7 -22.15 -27.7 -15.9 -27.7 -10.35 -25.6 -5.25 -23.55 -0.35 -19.8 3.45 L-21.35 -5.5 Q-21.45 -6.15 -21.05 -6.7 -20.7 -7.25 -20.05 -7.35 L-18.85 -7.05 Q-18.3 -6.7 -18.2 -6.05 L-16.2 5.55 Q-16.1 6.0 -16.3 6.45 -10.75 10.55 -3.7 11.55 L-3.7 7.0 4.1 7.0 4.1 11.5 Q10.8 10.55 16.25 6.55 16.0 6.1 16.1 5.55 L18.1 -6.05 Q18.2 -6.7 18.75 -7.05 19.3 -7.45 19.95 -7.35 L21.0 -6.7 Q21.35 -6.15 21.25 -5.5 L19.7 3.6 Q23.5 -0.2 25.55 -5.15 27.7 -10.3 27.7 -15.9 M-19.4 -41.35 Q-10.8 -47.9 0.0 -47.9 10.8 -47.9 19.4 -41.35 27.85 -34.9 30.75 -24.8 L37.5 -38.75 Q37.85 -39.55 38.75 -39.3 39.6 -39.05 39.5 -38.15 L36.3 -15.25 Q36.2 -14.7 35.8 -14.5 35.6 -14.3 35.25 -14.3 L34.95 -14.35 31.95 -15.25 Q31.75 -6.2 26.9 1.4 22.15 8.8 14.25 12.7 17.15 19.6 14.9 27.85 12.5 36.7 13.65 43.2 14.25 46.45 15.3 47.9 L-16.4 47.9 Q-15.35 46.45 -14.75 43.2 -13.6 36.7 -16.05 27.85 -18.4 19.25 -15.15 12.25 -22.65 8.2 -27.15 1.0 -31.75 -6.45 -31.95 -15.25 L-34.95 -14.35 -35.25 -14.3 Q-35.6 -14.3 -35.8 -14.5 -36.25 -14.75 -36.3 -15.25 L-39.5 -38.15 Q-39.6 -39.05 -38.75 -39.3 -37.85 -39.55 -37.45 -38.75 L-30.7 -24.8 Q-27.75 -34.9 -19.4 -41.35 M0.0 -43.6 Q-6.9 -43.6 -13.0 -40.4 -18.85 -37.25 -22.7 -31.8 -11.15 -34.85 0.95 -34.85 12.25 -34.85 22.45 -32.1 18.65 -37.4 12.8 -40.45 6.8 -43.6 0.0 -43.6" fill="#000000" fill-rule="evenodd" stroke="none"/>
  </g>
</svg>
