<?xml version="1.0" encoding="UTF-8" standalone="no"?>
<svg xmlns:xlink="http://www.w3.org/1999/xlink" height="113.8px" width="99.8px" xmlns="http://www.w3.org/2000/svg">
  <g transform="matrix(1.0, 0.0, 0.0, 1.0, 49.9, 56.9)">
    <path d="M0.75 32.3 L11.75 32.3 11.75 34.8 0.75 35.35 0.75 32.3" fill="#ffffff" fill-rule="evenodd" stroke="none"/>
    <path d="M0.75 20.5 L11.75 20.5 11.75 25.2 0.75 25.2 0.75 20.5" fill="#ffffff" fill-rule="evenodd" stroke="none"/>
    <path d="M0.75 30.95 L0.75 26.55 11.75 26.55 11.75 30.95 0.75 30.95" fill="#ffffff" fill-rule="evenodd" stroke="none"/>
    <path d="M-0.4 32.3 L-0.4 35.35 -11.35 34.65 -11.35 32.3 -0.4 32.3" fill="#ffffff" fill-rule="evenodd" stroke="none"/>
    <path d="M21.2 5.05 L21.9 18.2 0.75 18.2 0.75 16.3 Q7.05 16.25 12.55 13.15 17.85 10.15 21.2 5.05" fill="#ffffff" fill-rule="evenodd" stroke="none"/>
    <path d="M22.8 20.5 L30.0 20.5 27.2 31.8 Q20.55 33.75 13.1 34.65 L13.1 20.5 22.0 20.5 22.2 24.6 22.8 20.5" fill="#ffffff" fill-rule="evenodd" stroke="none"/>
    <path d="M-11.35 20.5 L-0.4 20.5 -0.4 25.2 -11.35 25.2 -11.35 20.5" fill="#ffffff" fill-rule="evenodd" stroke="none"/>
    <path d="M-34.75 -0.1 L-25.2 -0.1 -22.45 18.2 -30.7 18.2 -34.75 -0.1" fill="#ffffff" fill-rule="evenodd" stroke="none"/>
    <path d="M-21.1 18.2 L-20.25 5.3 Q-16.95 10.2 -11.8 13.1 -6.5 16.1 -0.4 16.3 L-0.4 18.2 -21.1 18.2" fill="#ffffff" fill-rule="evenodd" stroke="none"/>
    <path d="M-11.35 30.95 L-11.35 26.55 -0.4 26.55 -0.4 30.95 -11.35 30.95" fill="#ffffff" fill-rule="evenodd" stroke="none"/>
    <path d="M-21.25 20.5 L-12.7 20.5 -12.7 34.5 Q-20.45 33.55 -27.7 31.6 L-30.15 20.5 -22.1 20.5 -21.5 24.6 -21.25 20.5" fill="#ffffff" fill-rule="evenodd" stroke="none"/>
    <path d="M25.9 -0.1 L35.05 -0.1 30.55 18.2 23.15 18.2 25.9 -0.1" fill="#ffffff" fill-rule="evenodd" stroke="none"/>
    <path d="M-25.2 -0.1 L-34.75 -0.1 -30.7 18.2 -22.45 18.2 -25.2 -0.1 M-0.4 35.35 L-0.4 32.3 -11.35 32.3 -11.35 34.65 -0.4 35.35 M0.75 35.35 L11.75 34.8 11.75 32.3 0.75 32.3 0.75 35.35 M-0.4 30.95 L-0.4 26.55 -11.35 26.55 -11.35 30.95 -0.4 30.95 M11.75 30.95 L11.75 26.55 0.75 26.55 0.75 30.95 11.75 30.95 M-0.4 20.5 L-11.35 20.5 -11.35 25.2 -0.4 25.2 -0.4 20.5 M11.75 20.5 L0.75 20.5 0.75 25.2 11.75 25.2 11.75 20.5 M-11.8 13.1 Q-16.95 10.2 -20.25 5.3 L-21.1 18.2 -0.4 18.2 -0.4 16.3 Q-6.5 16.1 -11.8 13.1 M-12.7 20.5 L-21.25 20.5 -21.5 24.6 -22.1 20.5 -30.15 20.5 -27.7 31.6 Q-20.45 33.55 -12.7 34.5 L-12.7 20.5 M15.65 -22.75 Q13.85 -19.35 9.65 -17.2 5.35 -15.05 0.05 -15.05 -5.05 -15.05 -9.25 -17.05 -13.35 -19.05 -15.3 -22.25 -17.8 -19.35 -19.15 -15.8 L0.0 -6.85 20.15 -15.2 Q18.75 -19.45 15.65 -22.75 M25.9 -0.1 L23.15 18.2 30.55 18.2 35.05 -0.1 25.9 -0.1 M30.0 20.5 L22.8 20.5 22.2 24.6 22.0 20.5 13.1 20.5 13.1 34.65 Q20.55 33.75 27.2 31.8 L30.0 20.5 M21.9 18.2 L21.2 5.05 Q17.85 10.15 12.55 13.15 7.05 16.25 0.75 16.3 L0.75 18.2 21.9 18.2 M21.2 -8.6 L20.75 -13.0 14.2 -10.25 15.05 -9.35 Q15.5 -8.3 14.6 -7.0 13.7 -5.75 11.95 -5.0 10.2 -4.25 8.65 -4.45 7.1 -4.7 6.65 -5.75 6.35 -6.4 6.6 -7.1 L-0.05 -4.3 -6.4 -7.3 Q-6.1 -6.4 -6.35 -5.75 -6.8 -4.7 -8.35 -4.45 -9.95 -4.25 -11.65 -5.0 -13.4 -5.75 -14.35 -7.0 -15.25 -8.3 -14.8 -9.35 -14.45 -10.15 -13.3 -10.55 L-19.8 -13.6 Q-20.45 -11.0 -20.45 -8.6 -20.45 -2.7 -17.3 2.3 -14.3 7.15 -9.2 9.85 L-9.25 9.4 Q-9.25 7.35 -6.4 5.9 -3.55 4.45 0.45 4.45 4.45 4.45 7.3 5.9 10.15 7.35 10.15 9.4 L10.1 9.8 Q15.15 7.15 18.15 2.25 21.2 -2.75 21.2 -8.6 M-11.6 -56.9 Q-13.75 -53.45 -13.75 -49.4 -13.75 -45.7 -11.95 -42.5 -10.2 -39.4 -7.2 -37.45 -3.7 -38.65 0.05 -38.65 4.25 -38.65 7.85 -37.25 11.0 -39.15 12.85 -42.35 14.75 -45.6 14.75 -49.4 14.75 -53.4 12.6 -56.85 23.15 -53.05 29.7 -43.85 36.4 -34.5 36.4 -22.95 36.4 -12.7 31.05 -4.05 L40.1 -4.05 31.95 29.15 49.9 47.45 Q47.85 46.25 44.45 43.75 37.7 38.75 31.2 32.2 L30.9 33.45 47.1 49.9 42.25 46.65 Q36.15 42.25 30.15 36.45 L29.8 37.85 44.2 52.45 39.9 49.6 Q34.5 45.8 29.1 40.75 L25.15 56.9 -26.1 56.9 -29.8 40.5 Q-34.75 45.85 -39.75 50.0 L-43.8 53.1 -30.45 37.35 -30.8 35.85 Q-36.4 42.2 -42.2 47.15 L-46.9 50.8 -31.55 32.6 -31.8 31.3 Q-37.95 38.6 -44.55 44.3 L-49.9 48.55 -32.55 28.0 -39.7 -4.05 -30.25 -4.05 Q-35.6 -12.7 -35.6 -22.95 -35.6 -34.6 -28.85 -43.95 -22.25 -53.2 -11.6 -56.9" fill="#000000" fill-rule="evenodd" stroke="none"/>
    <path d="M0.0 -6.85 L-19.15 -15.8 Q-17.8 -19.35 -15.3 -22.25 -13.35 -19.05 -9.25 -17.05 -5.05 -15.05 0.05 -15.05 5.35 -15.05 9.65 -17.2 13.85 -19.35 15.65 -22.75 18.75 -19.45 20.15 -15.2 L0.0 -6.85" fill="#ffffff" fill-rule="evenodd" stroke="none"/>
    <path d="M20.75 -13.0 L21.2 -8.6 Q21.2 -2.75 18.15 2.25 15.15 7.15 10.1 9.8 L10.15 9.4 Q10.15 7.35 7.3 5.9 4.45 4.45 0.45 4.45 -3.55 4.45 -6.4 5.9 -9.25 7.35 -9.25 9.4 L-9.2 9.85 Q-14.3 7.15 -17.3 2.3 -20.45 -2.7 -20.45 -8.6 -20.45 -11.0 -19.8 -13.6 L-13.3 -10.55 Q-14.45 -10.15 -14.8 -9.35 -15.25 -8.3 -14.35 -7.0 -13.4 -5.75 -11.65 -5.0 -9.95 -4.25 -8.35 -4.45 -6.8 -4.7 -6.35 -5.75 -6.1 -6.4 -6.4 -7.3 L-0.05 -4.3 6.6 -7.1 Q6.35 -6.4 6.65 -5.75 7.1 -4.7 8.65 -4.45 10.2 -4.25 11.95 -5.0 13.7 -5.75 14.6 -7.0 15.5 -8.3 15.05 -9.35 L14.2 -10.25 20.75 -13.0" fill="#ffffff" fill-rule="evenodd" stroke="none"/>
  </g>
</svg>
