<?xml version="1.0" encoding="UTF-8" standalone="no"?>
<svg xmlns:xlink="http://www.w3.org/1999/xlink" height="69.6px" width="96.3px" xmlns="http://www.w3.org/2000/svg">
  <g transform="matrix(1.0, 0.0, 0.0, 1.0, 48.15, 34.8)">
    <path d="M-4.85 -29.7 Q-4.25 -29.7 -3.8 -29.25 -3.35 -28.85 -3.35 -28.25 -3.35 -27.65 -3.8 -27.2 -4.25 -26.75 -4.85 -26.75 -5.45 -26.75 -5.85 -27.2 -6.3 -27.65 -6.3 -28.25 -6.3 -28.85 -5.85 -29.25 -5.45 -29.7 -4.85 -29.7" fill="#000000" fill-rule="evenodd" stroke="none"/>
    <path d="M-13.45 -26.75 Q-14.1 -26.75 -14.5 -27.2 -14.95 -27.65 -14.95 -28.25 -14.95 -28.85 -14.5 -29.25 -14.1 -29.7 -13.45 -29.7 -12.85 -29.7 -12.4 -29.25 -12.0 -28.85 -12.0 -28.25 -12.0 -27.65 -12.4 -27.2 -12.85 -26.75 -13.45 -26.75" fill="#000000" fill-rule="evenodd" stroke="none"/>
    <path d="M-3.65 -31.4 Q-4.9 -32.65 -6.7 -32.65 -8.55 -32.65 -9.85 -31.2 -9.15 -29.9 -9.15 -28.35 -9.15 -26.8 -9.85 -25.5 -8.5 -24.05 -6.7 -24.05 -4.9 -24.05 -3.65 -25.3 -2.4 -26.6 -2.4 -28.35 -2.4 -30.1 -3.65 -31.4 M-18.65 -31.4 Q-19.9 -30.1 -19.9 -28.35 -19.9 -26.6 -18.65 -25.3 -17.4 -24.05 -15.65 -24.05 -13.85 -24.05 -12.6 -25.3 -11.35 -26.6 -11.35 -28.35 -11.35 -30.1 -12.6 -31.4 -13.85 -32.65 -15.65 -32.65 -17.4 -32.65 -18.65 -31.4 M29.9 -11.35 Q26.3 -12.3 22.95 -14.55 17.95 -17.9 14.55 -23.5 L-2.4 -23.5 Q-4.25 -21.9 -6.7 -21.9 -9.1 -21.9 -10.95 -23.5 L-11.35 -23.5 Q-13.2 -21.9 -15.65 -21.9 -18.05 -21.9 -19.9 -23.5 L-26.5 -23.4 -22.1 -9.3 Q-19.5 -2.15 -19.5 4.2 -19.5 13.55 -24.85 21.5 -28.65 27.15 -34.65 31.5 L-15.85 31.5 -15.85 4.2 Q-15.85 -0.2 -12.2 -4.0 -9.6 -6.8 -5.3 -9.05 L-9.85 -8.9 -13.25 -8.3 -16.0 -7.65 -15.2 -10.35 Q-14.05 -14.25 -8.15 -15.35 L-1.55 -15.6 -1.35 -15.6 -1.15 -15.55 Q17.9 -8.65 29.9 -11.35 M48.15 -26.8 L47.9 -24.95 46.25 -19.85 Q43.55 -14.4 38.3 -11.15 24.65 -2.85 -2.0 -12.4 L-6.0 -12.35 Q-2.0 -12.15 0.3 -10.75 L3.2 -8.95 -0.05 -7.8 Q-3.25 -6.65 -6.35 -4.6 -12.6 -0.5 -12.6 4.3 L-12.55 4.7 -12.55 34.8 -40.35 34.8 -40.4 34.5 Q-45.35 32.45 -47.35 24.15 L-48.15 17.75 Q-47.35 23.3 -45.0 27.1 -43.2 30.0 -40.7 31.5 -33.15 27.65 -28.15 20.75 -19.1 8.2 -25.2 -8.25 L-29.25 -21.4 -29.45 8.45 Q-29.8 10.0 -30.4 10.75 -31.55 12.2 -32.7 8.2 L-30.45 -25.15 -30.9 -26.65 -21.9 -26.75 -22.1 -28.35 Q-22.1 -31.0 -20.2 -32.9 -18.3 -34.8 -15.65 -34.8 -12.95 -34.8 -11.15 -33.0 -9.35 -34.8 -6.7 -34.8 -4.0 -34.8 -2.1 -32.9 -0.2 -31.0 -0.2 -28.35 L-0.4 -26.8 48.15 -26.8" fill="#000000" fill-rule="evenodd" stroke="none"/>
  </g>
</svg>
