<?xml version="1.0" encoding="UTF-8"?>
<svg width="96.3px" height="69.6px" version="1.1" xmlns="http://www.w3.org/2000/svg" xmlns:cc="http://creativecommons.org/ns#" xmlns:dc="http://purl.org/dc/elements/1.1/" xmlns:rdf="http://www.w3.org/1999/02/22-rdf-syntax-ns#">
 <metadata>
  <rdf:RDF>
   <cc:Work rdf:about="">
    <dc:format>image/svg+xml</dc:format>
    <dc:type rdf:resource="http://purl.org/dc/dcmitype/StillImage"/>
    <dc:title/>
   </cc:Work>
  </rdf:RDF>
 </metadata>
 <path d="m10.418 67.842 24.054 0.25409v-33.286l11.18-9.2319-5.5053-3.896 7.4533-0.16939 25.07 5.0818 10.248-4.1501-20.581-13.213-15.669 0.25409-0.25409-5.5053-4.2348-3.0491-5.1789 0.86834-6.0011-0.27546-4.4042 3.7266 0.84697 4.4042-7.2839 1.1011 7.1992 27.272-3.0491 14.398z" fill="#fff"/>
 <g transform="translate(48.15 34.8)" fill-rule="evenodd">
  <path d="m-4.85-29.7q0.6 0 1.05 0.45 0.45 0.4 0.45 1t-0.45 1.05-1.05 0.45-1-0.45q-0.45-0.45-0.45-1.05t0.45-1q0.4-0.45 1-0.45"/>
  <path d="m-13.45-26.75q-0.65 0-1.05-0.45-0.45-0.45-0.45-1.05t0.45-1q0.4-0.45 1.05-0.45 0.6 0 1.05 0.45 0.4 0.4 0.4 1t-0.4 1.05q-0.45 0.45-1.05 0.45"/>
  <path d="m-3.65-31.4q-1.25-1.25-3.05-1.25-1.85 0-3.15 1.45 0.7 1.3 0.7 2.85t-0.7 2.85q1.35 1.45 3.15 1.45t3.05-1.25q1.25-1.3 1.25-3.05t-1.25-3.05m-15 0q-1.25 1.3-1.25 3.05t1.25 3.05q1.25 1.25 3 1.25 1.8 0 3.05-1.25 1.25-1.3 1.25-3.05t-1.25-3.05q-1.25-1.25-3.05-1.25-1.75 0-3 1.25m48.55 20.05q-3.6-0.95-6.95-3.2-5-3.35-8.4-8.95h-16.95q-1.85 1.6-4.3 1.6-2.4 0-4.25-1.6h-0.4q-1.85 1.6-4.3 1.6-2.4 0-4.25-1.6l-6.6 0.1 4.4 14.1q2.6 7.15 2.6 13.5 0 9.35-5.35 17.3-3.8 5.65-9.8 10h18.8v-27.3q0-4.4 3.65-8.2 2.6-2.8 6.9-5.05l-4.55 0.15-3.4 0.6-2.75 0.65 0.8-2.7q1.15-3.9 7.05-5l6.6-0.25h0.2l0.2 0.05q19.05 6.9 31.05 4.2m18.25-15.45-0.25 1.85-1.65 5.1q-2.7 5.45-7.95 8.7-13.65 8.3-40.3-1.25l-4 0.05q4 0.2 6.3 1.6l2.9 1.8-3.25 1.15q-3.2 1.15-6.3 3.2-6.25 4.1-6.25 8.9l0.05 0.4v30.1h-27.8l-0.05-0.3q-4.95-2.05-6.95-10.35l-0.8-6.4q0.8 5.55 3.15 9.35 1.8 2.9 4.3 4.4 7.55-3.85 12.55-10.75 9.05-12.55 2.95-29l-4.05-13.15-0.2 29.85q-0.35 1.55-0.95 2.3-1.15 1.45-2.3-2.55l2.25-33.35-0.45-1.5 9-0.1-0.2-1.6q0-2.65 1.9-4.55t4.55-1.9q2.7 0 4.5 1.8 1.8-1.8 4.45-1.8 2.7 0 4.6 1.9t1.9 4.55l-0.2 1.55h48.55"/>
 </g>
</svg>
