<?xml version="1.0" encoding="UTF-8" standalone="no"?>
<svg xmlns:xlink="http://www.w3.org/1999/xlink" height="116.5px" width="61.5px" xmlns="http://www.w3.org/2000/svg">
  <g transform="matrix(1.0, 0.0, 0.0, 1.0, 30.75, 58.25)">
    <path d="M-23.3 12.45 L-25.3 -5.55 -13.75 -5.55 -13.75 12.45 -23.3 12.45" fill="#ffffff" fill-rule="evenodd" stroke="none"/>
    <path d="M16.4 21.65 L16.4 13.55 22.8 13.55 22.25 18.5 Q19.35 20.4 16.4 21.65" fill="#ffffff" fill-rule="evenodd" stroke="none"/>
    <path d="M16.4 -5.55 L25.15 -5.55 22.95 12.45 16.4 12.45 16.4 -5.55" fill="#ffffff" fill-rule="evenodd" stroke="none"/>
    <path d="M-13.75 54.25 L-18.7 54.25 -19.1 50.65 -13.75 50.65 -13.75 54.25" fill="#ffffff" fill-rule="evenodd" stroke="none"/>
    <path d="M16.4 24.75 Q18.8 23.8 21.8 22.15 L19.95 37.35 16.4 37.35 16.4 24.75" fill="#ffffff" fill-rule="evenodd" stroke="none"/>
    <path d="M-25.4 -6.7 L-26.25 -14.45 -18.25 -14.45 Q-16.5 -10.85 -13.75 -7.95 L-13.75 -6.7 -25.4 -6.7" fill="#ffffff" fill-rule="evenodd" stroke="none"/>
    <path d="M16.35 -6.7 Q19.75 -9.9 22.05 -14.45 L26.2 -14.45 25.3 -6.7 16.35 -6.7" fill="#ffffff" fill-rule="evenodd" stroke="none"/>
    <path d="M16.4 50.65 L18.35 50.65 17.9 54.25 16.4 54.25 16.4 50.65" fill="#ffffff" fill-rule="evenodd" stroke="none"/>
    <path d="M-12.65 13.55 L15.3 13.55 15.3 22.1 Q2.3 27.25 -12.65 22.65 L-12.65 13.55" fill="#ffffff" fill-rule="evenodd" stroke="none"/>
    <path d="M-12.65 54.25 L-12.65 50.65 15.3 50.65 15.3 54.25 -12.65 54.25" fill="#ffffff" fill-rule="evenodd" stroke="none"/>
    <path d="M19.8 38.4 L18.45 49.6 16.4 49.6 16.4 38.4 19.8 38.4" fill="#ffffff" fill-rule="evenodd" stroke="none"/>
    <path d="M-12.65 37.35 L-12.65 25.65 Q2.25 29.9 15.3 25.2 L15.3 37.35 -12.65 37.35" fill="#ffffff" fill-rule="evenodd" stroke="none"/>
    <path d="M-12.65 49.6 L-12.65 38.4 15.3 38.4 15.3 49.6 -12.65 49.6" fill="#ffffff" fill-rule="evenodd" stroke="none"/>
    <path d="M-13.75 49.6 L-19.2 49.6 -20.45 38.4 -13.75 38.4 -13.75 49.6" fill="#ffffff" fill-rule="evenodd" stroke="none"/>
    <path d="M-13.75 37.35 L-20.55 37.35 -22.25 21.9 Q-18.4 23.9 -13.75 25.3 L-13.75 37.35" fill="#ffffff" fill-rule="evenodd" stroke="none"/>
    <path d="M-22.65 18.45 L-23.2 13.55 -13.75 13.55 -13.75 22.3 Q-18.45 20.75 -22.65 18.45" fill="#ffffff" fill-rule="evenodd" stroke="none"/>
    <path d="M15.05 -5.55 L15.3 -5.55 15.3 12.45 -12.65 12.45 -12.65 -5.55 -11.25 -5.55 Q-6.5 -1.65 -0.8 -0.85 L-1.45 0.4 -4.75 0.4 Q-5.25 0.4 -5.55 0.75 L-5.9 1.55 -5.55 2.35 -4.75 2.7 -2.1 2.7 -2.25 4.6 -2.25 5.2 -4.75 5.2 Q-5.25 5.2 -5.55 5.55 L-5.9 6.35 -5.55 7.15 -4.75 7.5 -1.9 7.5 Q-1.4 9.45 -0.35 10.65 0.75 11.85 2.1 11.85 3.4 11.85 4.5 10.65 5.55 9.45 6.1 7.5 L9.4 7.5 Q9.85 7.5 10.2 7.15 10.55 6.8 10.55 6.35 10.55 5.85 10.2 5.55 9.85 5.2 9.4 5.2 L6.45 5.2 6.45 4.6 6.3 2.7 9.4 2.7 Q9.85 2.7 10.2 2.35 10.55 2.0 10.55 1.55 10.55 1.05 10.2 0.75 9.85 0.4 9.4 0.4 L5.65 0.4 4.95 -0.9 Q10.45 -1.8 15.05 -5.55" fill="#ffffff" fill-rule="evenodd" stroke="none"/>
    <path d="M-12.65 22.65 Q2.3 27.25 15.3 22.1 L15.3 13.55 -12.65 13.55 -12.65 22.65 M16.4 50.65 L16.4 54.25 17.9 54.25 18.35 50.65 16.4 50.65 M19.8 38.4 L16.4 38.4 16.4 49.6 18.45 49.6 19.8 38.4 M16.4 24.75 L16.4 37.35 19.95 37.35 21.8 22.15 Q18.8 23.8 16.4 24.75 M-13.75 49.6 L-13.75 38.4 -20.45 38.4 -19.2 49.6 -13.75 49.6 M-12.65 38.4 L-12.65 49.6 15.3 49.6 15.3 38.4 -12.65 38.4 M-12.65 50.65 L-12.65 54.25 15.3 54.25 15.3 50.65 -12.65 50.65 M-19.1 50.65 L-18.7 54.25 -13.75 54.25 -13.75 50.65 -19.1 50.65 M-13.75 37.35 L-13.75 25.3 Q-18.4 23.9 -22.25 21.9 L-20.55 37.35 -13.75 37.35 M-12.65 25.65 L-12.65 37.35 15.3 37.35 15.3 25.2 Q2.25 29.9 -12.65 25.65 M-23.3 12.45 L-13.75 12.45 -13.75 -5.55 -25.3 -5.55 -23.3 12.45 M-23.2 13.55 L-22.65 18.45 Q-18.45 20.75 -13.75 22.3 L-13.75 13.55 -23.2 13.55 M-13.75 -6.7 L-13.75 -7.95 Q-16.5 -10.85 -18.25 -14.45 L-26.25 -14.45 -25.4 -6.7 -13.75 -6.7 M16.4 12.45 L22.95 12.45 25.15 -5.55 16.4 -5.55 16.4 12.45 M16.4 21.65 Q19.35 20.4 22.25 18.5 L22.8 13.55 16.4 13.55 16.4 21.65 M16.8 -13.4 L15.55 -13.55 -12.55 -13.55 -13.05 -13.5 -12.75 -13.0 -12.65 -13.0 -12.65 -12.85 Q-9.9 -9.0 -6.2 -6.9 -2.35 -4.7 1.9 -4.7 6.3 -4.7 10.25 -7.05 14.05 -9.3 16.8 -13.4 M15.3 -5.55 L15.05 -5.55 Q10.45 -1.8 4.95 -0.9 L5.65 0.4 9.4 0.4 Q9.85 0.4 10.2 0.75 10.55 1.05 10.55 1.55 10.55 2.0 10.2 2.35 9.85 2.7 9.4 2.7 L6.3 2.7 6.45 4.6 6.45 5.2 9.4 5.2 Q9.85 5.2 10.2 5.55 10.55 5.85 10.55 6.35 10.55 6.8 10.2 7.15 9.85 7.5 9.4 7.5 L6.1 7.5 Q5.55 9.45 4.5 10.65 3.4 11.85 2.1 11.85 0.75 11.85 -0.35 10.65 -1.4 9.45 -1.9 7.5 L-4.75 7.5 -5.55 7.15 -5.9 6.35 -5.55 5.55 Q-5.25 5.2 -4.75 5.2 L-2.25 5.2 -2.25 4.6 -2.1 2.7 -4.75 2.7 -5.55 2.35 -5.9 1.55 -5.55 0.75 Q-5.25 0.4 -4.75 0.4 L-1.45 0.4 -0.8 -0.85 Q-6.5 -1.65 -11.25 -5.55 L-12.65 -5.55 -12.65 12.45 15.3 12.45 15.3 -5.55 M25.3 -6.7 L26.2 -14.45 22.05 -14.45 Q19.75 -9.9 16.35 -6.7 L25.3 -6.7 M11.15 -39.2 Q9.4 -35.9 9.4 -31.35 9.4 -26.8 11.15 -23.5 12.9 -20.15 15.3 -20.15 17.65 -20.15 19.4 -23.5 21.15 -26.8 21.15 -31.35 21.15 -35.9 19.4 -39.2 17.65 -42.55 15.3 -42.55 12.9 -42.55 11.15 -39.2 M1.9 -54.2 Q-4.4 -54.2 -9.55 -49.55 L13.35 -49.55 Q8.15 -54.2 1.9 -54.2 M-21.7 -29.45 Q-21.7 -41.35 -14.8 -49.8 -7.9 -58.25 1.9 -58.25 11.65 -58.25 18.6 -49.8 25.5 -41.35 25.5 -29.45 25.5 -23.75 23.7 -18.45 L30.75 -18.45 21.45 58.25 -22.3 58.25 -30.75 -18.45 -19.95 -18.45 Q-21.7 -23.6 -21.7 -29.45 M-12.25 -42.55 Q-14.65 -42.55 -16.35 -39.2 -18.1 -35.9 -18.1 -31.35 -18.1 -26.8 -16.35 -23.5 -14.65 -20.15 -12.25 -20.15 -9.9 -20.15 -8.15 -23.5 -6.4 -26.8 -6.4 -31.35 -6.4 -35.9 -8.15 -39.2 -9.9 -42.55 -12.25 -42.55 M-3.5 -31.35 Q-3.5 -30.05 -3.8 -27.75 -4.0 -24.3 -5.0 -21.3 -6.55 -16.7 -9.7 -14.7 L12.65 -14.7 Q9.3 -16.8 7.75 -21.9 6.85 -25.0 6.75 -28.3 L6.55 -31.35 6.6 -32.7 -3.55 -32.7 -3.5 -31.35 M-10.7 -48.4 L-13.1 -45.35 -12.25 -45.4 Q-9.0 -45.4 -6.6 -42.1 -4.2 -38.85 -3.65 -33.85 L6.7 -33.85 Q7.25 -38.9 9.6 -42.1 12.05 -45.4 15.3 -45.4 L17.05 -45.15 14.5 -48.4 -10.7 -48.4" fill="#000000" fill-rule="evenodd" stroke="none"/>
    <path d="M-9.55 -49.55 Q-4.4 -54.2 1.9 -54.2 8.15 -54.2 13.35 -49.55 L-9.55 -49.55" fill="#ffffff" fill-rule="evenodd" stroke="none"/>
    <path d="M-3.8 -27.75 Q-3.5 -30.05 -3.5 -31.35 L-3.55 -32.7 6.6 -32.7 6.55 -31.35 6.75 -28.3 Q6.85 -25.0 7.75 -21.9 9.3 -16.8 12.65 -14.7 L-9.7 -14.7 Q-6.55 -16.7 -5.0 -21.3 -4.0 -24.3 -3.8 -27.75" fill="#ffffff" fill-rule="evenodd" stroke="none"/>
    <path d="M-3.65 -33.85 Q-4.2 -38.85 -6.6 -42.1 -9.0 -45.4 -12.25 -45.4 L-13.1 -45.35 -10.7 -48.4 14.5 -48.4 17.05 -45.15 15.3 -45.4 Q12.05 -45.4 9.6 -42.1 7.25 -38.9 6.7 -33.85 L-3.65 -33.85" fill="#ffffff" fill-rule="evenodd" stroke="none"/>
    <path d="M15.55 -13.55 L16.8 -13.4 Q14.05 -9.3 10.25 -7.05 6.3 -4.7 1.9 -4.7 -2.35 -4.7 -6.2 -6.9 -9.9 -9.0 -12.65 -12.85 L-12.65 -13.0 -12.75 -13.0 -13.05 -13.5 -12.55 -13.55 15.55 -13.55" fill="#ffffff" fill-rule="evenodd" stroke="none"/>
    <path d="M-18.1 -31.35 Q-18.1 -35.9 -16.35 -39.2 -14.65 -42.55 -12.25 -42.55 -9.9 -42.55 -8.15 -39.2 -6.4 -35.9 -6.4 -31.35 -6.4 -26.8 -8.15 -23.5 -9.9 -20.15 -12.25 -20.15 -14.65 -20.15 -16.35 -23.5 -18.1 -26.8 -18.1 -31.35" fill="#ffffff" fill-rule="evenodd" stroke="none"/>
    <path d="M9.4 -31.35 Q9.4 -35.9 11.15 -39.2 12.9 -42.55 15.3 -42.55 17.65 -42.55 19.4 -39.2 21.15 -35.9 21.15 -31.35 21.15 -26.8 19.4 -23.5 17.65 -20.15 15.3 -20.15 12.9 -20.15 11.15 -23.5 9.4 -26.8 9.4 -31.35" fill="#ffffff" fill-rule="evenodd" stroke="none"/>
  </g>
</svg>
