<?xml version="1.0" encoding="UTF-8"?>
<svg width="88.4px" height="77.25px" version="1.1" xmlns="http://www.w3.org/2000/svg" xmlns:cc="http://creativecommons.org/ns#" xmlns:dc="http://purl.org/dc/elements/1.1/" xmlns:rdf="http://www.w3.org/1999/02/22-rdf-syntax-ns#">
 <metadata>
  <rdf:RDF>
   <cc:Work rdf:about="">
    <dc:format>image/svg+xml</dc:format>
    <dc:type rdf:resource="http://purl.org/dc/dcmitype/StillImage"/>
    <dc:title/>
   </cc:Work>
  </rdf:RDF>
 </metadata>
 <g fill="#fff">
  <ellipse cx="44.805" cy="31.491" rx="31.991" ry="26.856" stroke-width=".90424"/>
  <path d="m13.269 24.084-6.8162-0.81794-2.9082-5.4529-1.0906-11.542 8.3612-1.7268 7.9976-2.9082 3.9988 2.8174 1.7268 6.6344z"/>
  <path d="m63.981 9.5426 12.178 13.814 8.0885-1.4541 2.2721-7.3615-0.72706-10.542-9.0882-0.45441-7.6341-2.5447z"/>
 </g>
 <g transform="translate(44.2 38.6)" fill-rule="evenodd">
  <path d="m6.2 4.95q0.55 0.15 0.8 0.65 0.25 0.55 0.05 1.1-0.5 1.65-1.9 2.9-1.85 1.65-4.4 1.45-2.85-0.2-4.75-2.05l-1.4-1.95q-0.25-0.55 0-1.05 0.2-0.55 0.75-0.75t1.05 0q0.55 0.2 0.75 0.7l0.85 1.15q1.2 1.05 2.9 1.15 1.6 0.15 2.65-1.05 0.6-0.6 0.85-1.4 0.2-0.55 0.7-0.8l1.1-0.05"/>
  <path d="m-24.45-35.25q-2.5-1.3-7.05 1.85-3.45 2.25-8.4 1.85 1.1 3.3 1.1 8.95v0.7q0 4.3 2.15 5.7 2.1 1.4 5.85 0.4 2.6-7.1 9.35-12.2-0.05-1.9-0.65-3.75-0.8-2.7-2.35-3.5m38.95 25.45q-1.45 0-2.5 1.05t-1.05 2.5 1.05 2.5 2.5 1.05 2.5-1.05 1.05-2.5-1.05-2.5-2.5-1.05m-27.95 3.55q0-1.45-1-2.5-1.05-1.05-2.5-1.05-1.5 0-2.5 1.05-1.05 1.05-1.05 2.5t1.05 2.5q1 1.05 2.5 1.05 1.45 0 2.5-1.05 1-1.05 1-2.5m-1.35-7.8q3.65 0 6.2 2.65t2.55 6.4l-0.25 2.15q1.25-2.1 1.9-4.35 0.95-3.15 0.7-7.1-0.3-4-1.7-6.7-5.7 1.65-11.7 1.45-3.7-0.15-6.8-0.9-3.15 4-4.2 8.7-0.85 5.25 1.45 9.7 2.35 4.5 6.65 5.8l4.3 0.25q-3.3-0.35-5.55-2.9-2.25-2.6-2.25-6.1 0-3.75 2.55-6.4t6.15-2.65m15.9-17.45q-7.05 0-13.25 2.5-6.05 2.45-10.2 6.75 6 1.15 12.25 0.15 10.1-1.65 18.15-8.75l-6.95-0.65m12 4.8 5.35-0.3q-3.5-2.1-7.9-3.25-6.5 6.05-14.15 8.65 1.45 3.05 1.75 7.25 0.3 4.25-0.75 7.7-1.1 3.65-3.3 6.55-2.25 2.9-5.25 4.5-4.7 2.55-9.4 1.15-2.7-0.85-4.85-2.8 3.7 5.95 10.7 9.5 7.25 3.65 15.8 3.65 8.7 0 16-3.75 7.1-3.65 10.75-9.75-2.25 2.25-5.1 3.15-4.7 1.4-9.4-1.15-2.95-1.6-5.2-4.5t-3.35-6.55q-2-6.7 0.45-12.55 2.4-5.9 7.85-7.5m16.2 12.7q-1-3.3-3-5.9-2.05-2.6-4.7-4.05-4-2.15-7.95-1-4.7 1.45-6.75 6.65-2.1 5.2-0.3 11.1 0.5 1.65 1.1 2.8l-0.05-0.6q0-3.75 2.55-6.4t6.2-2.65q3.6 0 6.15 2.65t2.55 6.4q0 3.4-2.15 5.95-2.15 2.5-5.35 3l4.6-0.2q3.95-1.2 6.1-5.2 1.45-2.65 1.7-5.95 0.3-3.3-0.7-6.6m11.15-10.15q-0.55-3.5-0.55-6.3 0-1.85 0.25-3.25-4.85 1.15-8.6-0.65-4.95-2.45-7.2-0.8-2.1 1.5-2 6.2 7.15 4.9 10.2 12l5.2-0.25 0.7-0.35 0.7-0.5q1.45-1.35 1.45-4.05l-0.15-2.05m-1.4-12.2q1.8-0.35 3.1-0.95h0.05l0.45-0.1 0.1-0.05q0.9 0 1.3 0.8l0.15 0.6q0 0.85-0.8 1.25l0.15-0.05-0.7 1.9q-0.5 2.95 0.35 8.4 0.9 5.8-2.15 8.55-2.6 2.35-7.45 2 0.85 3.1 0.85 6.2 0 9.5-7.15 16.95-7 7.35-17.95 9.65l2.65 19.85h-21.8l1.9-20.05q-10.6-2.45-17.4-9.7-6.95-7.4-6.95-16.7 0-2.45 0.55-4.95-3.95 0.6-6.55-1.1-3.4-2.35-3.35-8.2 0.05-5.5-0.85-8.35l-0.95-1.8q-0.8-0.35-0.8-1.3l0.05-0.4q0.35-1 1.35-1l0.35 0.05 0.05 0.05 3.25 0.5q3.7 0.2 6.1-1.45 6-4 9.9-2 3.6 1.9 4.35 7.95 8.75-5.45 19.9-5.45 10.1 0 18.5 4.6 0.4-4.85 3.1-6.8 3.55-2.55 10.1 0.55 2.6 1.3 6.25 0.55"/>
 </g>
</svg>
