<?xml version="1.0" encoding="UTF-8" standalone="no"?>
<svg xmlns:xlink="http://www.w3.org/1999/xlink" height="126.65px" width="76.85px" xmlns="http://www.w3.org/2000/svg">
  <g transform="matrix(1.0, 0.0, 0.0, 1.0, 38.4, 63.3)">
    <path d="M23.3 24.95 L18.0 24.95 18.0 29.85 22.45 29.85 23.3 24.95 M0.35 24.95 L0.35 29.85 16.45 29.85 16.45 24.95 0.35 24.95 M-1.25 24.95 L-18.25 24.95 -18.25 29.85 -1.25 29.85 -1.25 24.95 M0.1 1.85 Q-5.05 1.85 -8.7 3.7 -12.35 5.6 -12.35 8.25 -12.35 10.9 -8.7 12.75 -5.05 14.65 0.1 14.65 5.25 14.65 8.9 12.75 12.55 10.9 12.55 8.25 12.55 5.6 8.9 3.7 5.3 1.85 0.1 1.85 M-11.6 -9.3 Q-6.8 -2.65 -0.25 -2.65 6.45 -2.65 11.35 -9.65 16.2 -16.6 16.6 -26.7 7.15 -17.35 -3.75 -19.15 -10.7 -20.35 -17.1 -25.7 -16.4 -15.95 -11.6 -9.3 M-19.85 24.95 L-25.55 24.95 -24.65 29.85 -19.85 29.85 -19.85 24.95 M-8.1 -29.5 Q-6.8 -29.2 -6.45 -29.75 -6.1 -30.3 -6.95 -31.35 -7.75 -32.45 -9.25 -33.4 -10.8 -34.35 -12.1 -34.65 -13.4 -35.0 -13.75 -34.45 -14.1 -33.9 -13.25 -32.85 -12.4 -31.75 -10.9 -30.8 -9.4 -29.85 -8.1 -29.5 M8.8 -33.4 Q7.3 -32.4 6.45 -31.35 5.65 -30.25 6.0 -29.75 6.35 -29.2 7.65 -29.5 8.95 -29.85 10.45 -30.8 12.0 -31.75 12.8 -32.85 13.65 -33.9 13.3 -34.45 12.95 -35.0 11.65 -34.65 10.35 -34.35 8.8 -33.4 M11.55 -52.05 L13.55 -49.7 19.75 -63.3 19.75 -33.35 20.05 -28.4 19.85 -24.65 38.45 -24.75 18.15 63.35 -21.0 63.35 -38.4 -25.4 -20.4 -25.05 -20.55 -28.4 -20.25 -33.35 -20.25 -63.3 -14.6 -49.0 -12.05 -52.05 11.55 -52.05" fill="#000000" fill-rule="evenodd" stroke="none"/>
  </g>
</svg>
