<?xml version="1.0" encoding="UTF-8"?>
<svg width="70.45px" height="104.85px" version="1.1" xmlns="http://www.w3.org/2000/svg" xmlns:cc="http://creativecommons.org/ns#" xmlns:dc="http://purl.org/dc/elements/1.1/" xmlns:rdf="http://www.w3.org/1999/02/22-rdf-syntax-ns#">
 <metadata>
  <rdf:RDF>
   <cc:Work rdf:about="">
    <dc:format>image/svg+xml</dc:format>
    <dc:type rdf:resource="http://purl.org/dc/dcmitype/StillImage"/>
    <dc:title/>
   </cc:Work>
  </rdf:RDF>
 </metadata>
 <path d="m10.485 103.12 49.711 0.12335 7.0311-27.384-12.459-30.592 8.8814-10.115-0.98682-11.102-12.829-8.7581-2.8371-9.1281-11.965-4.194-14.186 4.8108-6.0443 11.472-8.388 6.4144-0.37006 12.705 10.485 8.6347-12.212 28.741z" fill="#fff"/>
 <g transform="translate(35.2 52.4)" fill-rule="evenodd">
  <path d="m-2.45 23.35v-9.25h-23.05q-1.3 4.55-1.75 9.25h24.8m29.15 0q-0.45-4.9-1.8-9.25h-24.9v9.25h26.7m-26.7 19.25v5.75h22.65q1.3-2.75 2.2-5.75h-24.85m-2.45 5.75v-5.75h-22.95q0.9 3 2.2 5.75h20.75m0-14.4v-8.15h-25l-0.05 2.45 0.3 5.7h24.75m2.45-8.15v8.15h26.65l0.3-5.7-0.05-2.45h-26.9m12.65-30.4h-12.65v16.2h24.1q-3.85-10.6-11.45-16.2m-15.1 16.2v-16.2h-10.8q-3.35 2.55-6.2 6.35-3.2 4.3-5.2 9.85h22.2m7.25-49.65q0 0.7 0.65 1.15 0.6 0.45 1.5 0.45t1.55-0.45q0.6-0.45 0.6-1.15 0-0.65-0.6-1.1-0.65-0.45-1.55-0.45t-1.5 0.45q-0.65 0.45-0.65 1.1m-12.35-9.15q-3.05 1.35-5.2 3.7h23.5q-2.2-2.35-5.25-3.7-3.1-1.35-6.5-1.35-3.45 0-6.55 1.35m-3.35 7.55q-0.65 0.45-0.65 1.1t0.65 1.15q0.65 0.45 1.5 0.45 0.9 0 1.55-0.45 0.6-0.45 0.6-1.15 0-0.65-0.6-1.1-0.65-0.45-1.55-0.45-0.85 0-1.5 0.45m-5.8 5.95-1.25 0.35q-4.55 1.3-7.35 4.65t-2.8 7.55q0 5.25 4.25 9 4.2 3.75 10.2 3.75h25.9q6 0 10.25-3.75 4.2-3.75 4.2-9 0-4.3-3-7.75-2.95-3.4-7.7-4.55l-1.05-0.25h-31.65m-16.45-3.55q1.45-2.9 6.6-3-3.1-1.1-6.2-2.95l-2.45-1.6q4.95-3.65 10.2-1.6 3.4 1.3 6.4 4.8l0.85-1.5v-0.4h0.25q2.6-4.1 6.9-6.45 4.45-2.45 9.6-2.45 5.1 0 9.55 2.45 4.3 2.4 6.9 6.45h0.25v0.4q1.8 2.8 2.4 6.3 5.55 1.7 9 6t3.45 9.65q0 4.2-2.2 7.85-2.15 3.55-5.85 5.85 5.95 5.95 9.3 14.35 3.45 8.65 3.45 18.35 0 7.6-2.2 14.7-2.1 6.85-6 12.5h-6.65l0.05-0.1h-20.45v0.1h-2.45v-0.1h-18.6l0.05 0.1h-5.95q-3.9-5.65-6-12.5-2.2-7.1-2.2-14.7 0-9.45 3.3-17.95 3.2-8.2 8.9-14.2-4.1-2.2-6.5-5.95-2.5-3.85-2.5-8.3 0-4.55 2.55-8.45 2.5-3.8 6.85-6l-7.25-0.4-3.35-1.25"/>
  <path d="m11.75-21q0.5-0.2 1 0l0.7 0.65 0.05 1-0.7 0.7q-4.25 1.95-9.6 2.55-10.6 1.3-18.25-4.2-1.5 2-3.85 3.15l-0.95 0.1-0.75-0.65-0.05-1 0.65-0.7q3.1-1.55 4.05-4.6l0.3-2.9q-0.05-0.55 0.25-0.95 0.35-0.4 0.85-0.5 0.55-0.05 0.95 0.25 0.45 0.35 0.5 0.85 0.3 2.15-0.7 4.7 6.9 5.1 16.85 3.85 5-0.6 8.7-2.3"/>
 </g>
</svg>
