<?xml version="1.0" encoding="UTF-8"?>
<svg width="77.41" height="120" version="1.1" viewBox="0 0 77.41 120" xmlns="http://www.w3.org/2000/svg" xmlns:cc="http://creativecommons.org/ns#" xmlns:dc="http://purl.org/dc/elements/1.1/" xmlns:rdf="http://www.w3.org/1999/02/22-rdf-syntax-ns#">
 <metadata>
  <rdf:RDF>
   <cc:Work rdf:about="">
    <dc:format>image/svg+xml</dc:format>
    <dc:type rdf:resource="http://purl.org/dc/dcmitype/StillImage"/>
    <dc:title/>
   </cc:Work>
  </rdf:RDF>
 </metadata>
 <g transform="translate(-131.38 -62)">
  <path d="m148.92 179.24c-1.4372-5.1124-9.1421-32.477-13.305-47.256-2.2714-8.063-4.1725-14.794-4.2247-14.959-0.0907-0.28574 0.25872-0.2988 7.9932-0.2988h8.088v-54.725h45.494v54.725h7.912c4.3516 0 7.912 0.058 7.912 0.12883 0 0.0709-0.26627 1.0537-0.5917 2.1841-2.2501 7.8154-16.215 57.821-16.778 60.077l-0.69883 2.8022-41.025 0.083zm38.253-2.5553c0.0919-0.29464 0.62126-2.1676 1.1764-4.1621 0.55512-1.9945 1.2604-4.5164 1.5673-5.6044s1.1584-4.1291 1.8924-6.7582c0.73394-2.6291 1.5874-5.6703 1.8966-6.7582 0.30918-1.0879 1.0877-3.8695 1.73-6.1813s1.3086-4.6854 1.4806-5.2747c0.80095-2.7433 5.4449-19.407 5.4449-19.538 0-0.0427-2.114-0.0776-4.6978-0.0776h-4.6978v8.2417h-22.253v13.48c0 14.765 0.0367 14.212-0.94417 14.212-1.1014 0-1.0338 0.92293-1.0338-14.119v-13.573h-21.264v-8.2417h-4.5329c-2.4931 0-4.5329 0.036-4.5329 0.08 0 0.0768 0.70015 2.5793 3.7362 13.354 0.76638 2.7198 1.7151 6.0947 2.1083 7.5 0.39318 1.4052 1.1642 4.1497 1.7134 6.0989 1.2266 4.3537 2.9389 10.437 5.7187 20.316l2.1219 7.5412h33.202zm-7.4464-17.332c-2.1576-0.59411-3.1173-2.9715-2.0128-4.9863l0.37489-0.68388-0.94156-1.5992-3e-3 -3.7244c-4e-3 -4.7355-0.32757-4.334 3.5549-4.4042l2.8647-0.0518 0.41518 0.41519c0.70792 0.70792 0.44128 7.5639-0.3379 8.6882l-0.41171 0.5941 0.43597 0.868c1.3584 2.7044-1.0426 5.6819-3.9388 4.8844zm1.7722-1.5786c1.0807-0.41087 1.3886-1.9514 0.57514-2.8779-1.2194-1.3888-3.2841-0.64589-3.2841 1.1817 0 1.3853 1.3323 2.2196 2.709 1.6962zm0.76756-5.4559c0.23811-0.30976 0.30817-0.68758 0.31101-1.6773l4e-3 -1.2775h-3.956v1.078c0 0.73229 0.10005 1.2741 0.31197 1.6896l0.31196 0.61156 1.355-0.0123c1.2326-0.0111 1.3828-0.0484 1.6624-0.41208zm0.47951-5.5921v-0.989h-3.956v1.978h3.956zm5.2224 12.462c-2.1576-0.59411-3.1173-2.9715-2.0128-4.9863l0.37489-0.68389-0.47078-0.79962-0.47077-0.79963-3e-3 -3.7244c-4e-3 -4.7354-0.32757-4.334 3.5549-4.4042l2.8647-0.0518 0.41518 0.41518c0.70792 0.70792 0.44128 7.5639-0.3379 8.6882l-0.41171 0.5941 0.43597 0.868c1.3584 2.7044-1.0426 5.6819-3.9388 4.8844zm1.7722-1.5786c1.0807-0.41086 1.3885-1.9514 0.57513-2.8779-1.2194-1.3888-3.2841-0.64589-3.2841 1.1817 0 1.3853 1.3323 2.2196 2.709 1.6962zm0.76755-5.4559c0.23812-0.30977 0.30817-0.68759 0.31101-1.6773l4e-3 -1.2775h-3.956v1.078c0 0.73228 0.10005 1.2741 0.31197 1.6896l0.31197 0.61156 1.355-0.0123c1.2326-0.0111 1.3828-0.0484 1.6624-0.41209zm0.47951-5.5921v-0.98901h-3.956v1.978h3.956zm-19.053 4.2045c-0.64083-0.97804 0.0462-1.5671 1.8276-1.5671 1.7814 0 2.4684 0.58909 1.8276 1.5671-0.25554 0.38999-0.34844 0.41088-1.8276 0.41088s-1.572-0.0209-1.8276-0.41088zm-0.28975-8.6268c-0.90764-1.0029-0.0422-1.724 1.9813-1.6508 1.9261 0.0697 2.6898 0.81095 1.7302 1.6794-0.46019 0.41646-3.3287 0.39432-3.7115-0.0286zm6.925-0.63263c-0.0604-0.0604-0.10989-1.8036-0.10989-3.8736v-3.7637h15.494l-5e-3 3.5852c-4e-3 2.7198-0.0581 3.6548-0.22422 3.8736-0.2251 0.29653-14.865 0.46903-15.155 0.17857zm13.736-3.7637v-2.5549h-12.363v2.445c0 3.012-0.81958 2.6648 6.2912 2.6648h6.0714zm-7.038 1.0426c-0.51701-0.25495-0.72116-0.94744-0.46141-1.5652 0.50421-1.1992 2.2247-0.77469 2.2247 0.54889 0 0.83274-0.98466 1.4003-1.7633 1.0163zm4.483 0.0638c-1.3501-0.28263-1.1327-2.3427 0.24726-2.3427 1.3304 0 1.604 1.9375 0.32966 2.3346-0.13598 0.0424-0.3956 0.046-0.57692 8e-3zm-8.477-0.46929c-0.78576-0.99895 0.12187-2.2617 1.3244-1.8425 1.2206 0.42548 0.87113 2.2768-0.42972 2.2768-0.40108 0-0.64685-0.11931-0.89463-0.43431zm-33.136 1.2155c4e-3 -0.11234 0.073-0.53804 0.15334-0.946 0.14401-0.73082 0.13519-0.75299-0.59839-1.5037l-0.74457-0.76194 0.63243-0.10908c1.492-0.25734 1.4757-0.24783 1.8723-1.0945 0.21032-0.44906 0.43123-0.81647 0.49089-0.81647 0.0597 0 0.28057 0.36741 0.4909 0.81647 0.39656 0.84668 0.38029 0.83717 1.8723 1.0945l0.63243 0.10908-0.74456 0.76194c-0.73359 0.7507-0.74241 0.77287-0.5984 1.5037 0.23418 1.1884 0.2356 1.1871-0.74607 0.70562l-0.90659-0.44463-0.90659 0.44463c-0.58481 0.28682-0.90404 0.37214-0.89941 0.24038zm6.7582-0.16304c4e-3 -0.11332 0.073-0.53983 0.15334-0.9478 0.14402-0.73089 0.13525-0.75292-0.59915-1.5044l-0.74531-0.7627 1.0274-0.18097c0.56508-0.0995 1.0451-0.20138 1.0666-0.22631 0.0216-0.0249 0.23485-0.43475 0.47393-0.91071s0.46928-0.86538 0.51155-0.86538c0.0423 0 0.27248 0.38942 0.51156 0.86538s0.45235 0.88578 0.47393 0.91071c0.0216 0.0249 0.50157 0.12677 1.0666 0.22631l1.0274 0.18097-1.4901 1.5254 0.16361 0.88231c0.20637 1.1129 0.18829 1.1256-0.85237 0.59821l-0.86285-0.43724-0.78298 0.42616c-0.86868 0.47279-1.154 0.52772-1.1433 0.22011zm6.923-0.16484c4e-3 -0.11332 0.0729-0.53983 0.15334-0.94779 0.1442-0.73179 0.13603-0.75213-0.60835-1.5138l-0.75451-0.77203 1.0262-0.11611 1.0262-0.1161 0.43347-0.88383c0.23841-0.48611 0.47675-0.88383 0.52964-0.88383 0.0529 0 0.29122 0.39772 0.52963 0.88383l0.43347 0.88383 1.0262 0.1161 1.0262 0.11611-1.5085 1.5441 0.16361 0.88231c0.2071 1.1169 0.17367 1.1405-0.83536 0.59135l-0.83529-0.45463-0.80527 0.43828c-0.91369 0.49729-1.0108 0.51982-1.0007 0.23224zm10.13-5.1008c-1.4556-0.82544-0.59269-1.781 1.6083-1.781 1.7629 0 2.1004 0.15934 2.1004 0.99144 0 0.88795-2.5703 1.4352-3.7088 0.78961zm16.598-8.4156c0.0572-0.1742 0.0448-31.785-0.0125-32.143-0.0109-0.06799-8.2533-0.12362-18.316-0.12362h-18.297v32.472h18.279c14.477 0 18.293-0.0429 18.347-0.20604zm-22.944-6.717c-1.3124-1.3123-0.35475-1.6483 4.6978-1.6483 4.7441 0 5.0274 0.0557 5.0274 0.989 0 0.93326-0.28337 0.98901-5.0274 0.98901-4.1483 0-4.3847-0.0166-4.6978-0.32967zm-4.4456-10.854c-1.6248-1.708-1.7918-7.7131-0.27659-9.9459l0.39497-0.58202-0.47877-0.28281c-1.1264-0.66535-1.4534-1.5813-0.79838-2.2362 0.67544-0.67544 1.1297-0.4896 5.4692 2.2374l4.085 2.567 5.1542-2.3476c6.0794-2.769 6.164-2.8018 6.7006-2.5978 0.88931 0.33811 1.0812 1.152 0.44887 1.9036-0.38975 0.46319-0.39084 0.4742-0.084 0.85312 1.6577 2.0472 1.381 8.7057-0.43759 10.53-2.4544 2.4619-4.9824-3.8014-3.473-8.6049 0.14109-0.44906 0.24072-0.83105 0.22138-0.84886-0.0193-0.01781-1.8896 0.81251-4.156 1.8451-5.0408 2.2967-4.2898 2.2553-7.2374 0.39837-0.86451-0.54464-1.6032-0.99026-1.6415-0.99026-0.0383 0-0.0302 0.9146 0.0181 2.0324 0.21755 5.0372-1.8447 8.2394-3.9089 6.0695zm11.369-29.283v-11.786h-2.967v9.324c0 10.276-3.3e-4 10.28-1.0584 10.289-0.94921 0.0076-0.91956 0.33245-0.91956-10.078v-9.5348h-15.659v23.571h20.604zm-16.612 8.8917-0.36634-0.2566v-8.3854c0-9.2162-0.0348-8.9035 0.99143-8.9035 0.99675 0 0.98658-0.0906 0.98658 8.7837 0 8.027-0.0323 8.5396-0.56039 8.8922-0.28794 0.19226-0.65569 0.14663-1.0513-0.13045zm7.268-5.0305c-0.68251-0.25374-0.71132-0.53684-0.71132-6.9898v-6.1996l0.41483-0.41483c0.30257-0.30257 0.51445-0.38525 0.78296-0.30553 0.77741 0.23082 0.78022 0.25595 0.78022 6.999 0 6.5621-0.0171 6.7431-0.65934 6.9608-0.13599 0.04609-0.4093 0.02355-0.60735-0.05008zm19.893-3.8612v-11.786h-8.4066v23.571h8.4066zm-5.3453 9.7134c-0.22935-0.22935-0.25903-1.3233-0.25903-9.5486 0-10.212-0.0409-9.8076 0.99143-9.8076 1.0059 0 0.98658-0.19192 0.98658 9.8076 0 7.9468-0.0319 9.1205-0.25659 9.4413-0.30472 0.43505-1.0779 0.49179-1.4624 0.10732zm10.866-9.6722-1e-3 -11.744-3.3767-0.09395v23.583h3.3791l-1e-3 -11.744z" stroke-width=".16483"/>
  <g fill="#fff" stroke-width=".17511">
   <path d="m153.64 176.29c-0.35234-1.2216-14.736-52.391-14.964-53.234l-0.17761-0.65667h8.9025v8.2303h21.16l0.0579 13.44c0.0454 10.541 0.10641 13.525 0.28292 13.834 0.16584 0.29033 0.38585 0.394 0.83612 0.394 0.5025 0 0.6458-0.0856 0.80652-0.48155 0.13523-0.33319 0.22165-4.5955 0.28047-13.834l0.085-13.352h22.195v-8.2303h4.5529c2.5041 0 4.5529 0.0426 4.5529 0.0946 0 0.15056-2.6964 9.8252-8.9293 32.038-3.1889 11.365-5.9251 21.116-6.0804 21.67l-0.28246 1.0069h-33.014zm28.605-17.116c1.7461-0.8908 2.3631-3.0249 1.413-4.8873-0.32427-0.63562-0.3244-0.66287-6e-3 -1.1663 0.59789-0.9443 1.0114-5.2044 0.71951-7.4136-0.25989-1.9674-0.22752-1.9513-3.6705-1.8217-2.3562 0.0887-2.9271 0.16177-3.2396 0.41465-0.36361 0.29424-0.38181 0.4599-0.43832 3.991l-0.059 3.684 0.49407 0.87892c0.475 0.84501 0.48297 0.89772 0.20636 1.3662-0.39984 0.67712-0.55603 1.6585-0.41433 2.6034 0.13629 0.90885 1.0513 2.0716 1.9332 2.4564 0.80136 0.34976 2.2679 0.29916 3.0613-0.10562zm8.2184-0.16905c1.747-0.89124 2.3815-2.8177 1.531-4.6482-0.39548-0.85117-0.39817-0.8898-0.0967-1.3866 0.48261-0.79522 0.74448-2.7478 0.75759-5.6488 0.0111-2.4423-0.0179-2.6976-0.35786-3.152l-0.36988-0.49443-2.7821 0.0569c-1.5302 0.0313-2.9201 0.0957-3.0888 0.1432-0.63366 0.17832-0.73972 0.75268-0.80293 4.3483l-0.0615 3.4977 0.97278 1.7983-0.38242 0.88897c-0.42586 0.98993-0.48076 1.7904-0.18383 2.6804 0.24488 0.73395 1.1136 1.6958 1.8152 2.0099 0.78815 0.35283 2.263 0.30753 3.0494-0.0937zm-15.285-7.8174c0.44801-0.12023 0.81814-0.85462 0.66845-1.3263-0.14877-0.46873-0.77779-0.6703-2.0918-0.6703-1.314 0-1.943 0.20157-2.0918 0.6703-0.1364 0.42977 0.21263 1.2158 0.58394 1.315 0.43306 0.11574 2.512 0.1237 2.9312 0.0112zm0.0651-8.8763c0.30721-0.1546 0.45424-0.3901 0.49296-0.7896 0.0491-0.50674-0.0128-0.59769-0.56349-0.82778-0.81527-0.34065-2.7745-0.33571-3.4404 9e-3 -0.79488 0.41105-0.62186 1.5024 0.27136 1.7115 0.74043 0.17339 2.822 0.10732 3.2396-0.10283zm18.566-1.0003c0.0913-0.14447 0.16719-1.8978 0.16867-3.8962l3e-3 -3.6336h-15.585v7.9141l7.6238-0.0608c6.5409-0.0522 7.6474-0.0981 7.7898-0.32345zm-44.619-1.9458 0.72493-0.36983 0.76123 0.36983c1.1038 0.53626 1.1595 0.5064 1.0274-0.55064-0.11285-0.90324-0.10175-0.93342 0.59272-1.6116 0.38924-0.38009 0.70772-0.74493 0.70772-0.81076 0-0.0658-0.37431-0.17581-0.83179-0.24441-1.127-0.16898-1.3298-0.30365-1.7025-1.1302-0.17636-0.3911-0.41492-0.71109-0.53014-0.71109-0.11521 0-0.35377 0.31999-0.53013 0.71109-0.37272 0.82654-0.57558 0.96121-1.7026 1.1302-0.45748 0.0686-0.83178 0.17858-0.83178 0.24441 0 0.0658 0.31848 0.43067 0.70772 0.81076 0.69447 0.67813 0.70557 0.70831 0.59272 1.6116-0.13239 1.0596-0.0601 1.0988 1.0145 0.55064zm7.0672-0.14979c0.51611-0.29546 0.56439-0.29501 1.1382 0.0106 0.3296 0.17556 0.7775 0.3225 0.99534 0.32653 0.3678 7e-3 0.38793-0.0458 0.28207-0.73688-0.0627-0.40933-0.13956-0.7742-0.1708-0.81082-0.0312-0.0366 0.2956-0.46946 0.72634-0.96185l0.78315-0.89527-1.0882-0.19679c-0.5985-0.10824-1.1128-0.26641-1.1428-0.35149-0.17533-0.4966-0.87373-1.553-1.0172-1.5386-0.0933 9e-3 -0.34092 0.32455-0.55037 0.70045-0.55926 1.0037-0.65396 1.0741-1.6233 1.2074-0.48689 0.067-0.88526 0.16093-0.88526 0.20882 0 0.0479 0.28134 0.41479 0.62519 0.81535 0.55359 0.64488 0.62129 0.82856 0.59116 1.6038-0.0187 0.48156-0.0242 0.93997-0.0123 1.0187 0.0277 0.18279 0.65618-4e-3 1.3487-0.40009zm6.5518-0.0826 0.78668-0.4113 0.82385 0.41748c0.96732 0.49017 1.0935 0.38644 0.93549-0.76912-0.10826-0.79173-0.0851-0.85059 0.59757-1.5159 0.39061-0.38072 0.7102-0.75502 0.7102-0.83179 0-0.0768-0.22655-0.13957-0.50344-0.13957-1.219 0-1.5375-0.1739-1.9563-1.0682-0.22103-0.47191-0.46723-0.85801-0.54711-0.85801-0.0799 0-0.3619 0.38809-0.62673 0.86242-0.49631 0.88893-0.82375 1.0638-1.9918 1.0638-0.2769 0-0.50345 0.0628-0.50345 0.13957 0 0.0768 0.3201 0.45107 0.71135 0.83179 0.70914 0.69006 0.71098 0.69532 0.59569 1.6991-0.0636 0.55379-0.0488 1.0033 0.0329 0.99898 0.0817-4e-3 0.50254-0.193 0.93521-0.41922zm12.04-4.9206c0.95209-0.39781 1.2014-0.99993 0.64468-1.5567-0.3473-0.3473-3.0898-0.38335-3.7524-0.0493-0.77114 0.38874-0.62667 1.3508 0.25659 1.7089 0.59281 0.24029 2.1657 0.18356 2.8511-0.10284z"/>
   <path d="m179.44 157.26c-0.67173-0.67173-0.70944-1.6905-0.0892-2.4115 0.35082-0.40784 0.56152-0.49132 1.2402-0.49132 0.70211 0 0.88968 0.0807 1.3285 0.57188 0.69826 0.78149 0.69794 1.6321-8.3e-4 2.3309-0.72079 0.7208-1.7577 0.7208-2.4785 0z"/>
   <path d="m179.05 152.09c-0.18264-0.38301-0.30325-1.0514-0.30325-1.6806v-1.0447h3.6774v1.2799c0 1.7606-0.1532 1.9341-1.7809 2.0163l-1.29 0.0651z"/>
   <path d="m178.93 146.74v-0.87556h3.6774v1.7511h-3.6774z"/>
   <path d="m187.16 146.56v-0.87556h3.6774v1.7511h-3.6774z"/>
   <path d="m187.27 151.83c-0.15885-0.397-0.28882-1.1142-0.28882-1.5938v-0.87201h3.6774v1.1923c0 1.6664-0.16831 1.8473-1.7953 1.9295l-1.3044 0.0659z"/>
   <path d="m187.67 157.08c-0.57917-0.57917-0.66816-1.3046-0.25745-2.0988 0.74665-1.4439 2.9638-0.90103 3.1894 0.78087 0.0796 0.59361 0.0185 0.79978-0.37662 1.2693-0.40165 0.47734-0.58835 0.56056-1.2576 0.56056-0.63516 0-0.8841-0.0982-1.2978-0.51187z"/>
   <path d="m180.78 140.08c-0.28073-0.0839-0.57502-0.25448-0.65399-0.37895-0.079-0.12448-0.14479-1.1522-0.14626-2.2839l-3e-3 -2.0576h12.258v4.9031l-5.4722-0.0151c-3.0097-8e-3 -5.7019-0.0837-5.9827-0.16768zm6.0702-1.5883c0.42872-0.51637 0.38164-1.1466-0.12337-1.6516-0.84378-0.84378-2.039-0.34336-2.0734 0.86807-0.0354 1.2493 1.3884 1.7571 2.1967 0.78353zm4.0276 0.0596c0.42038-0.36915 0.39638-1.3507-0.0438-1.7908-0.47328-0.47328-1.1509-0.44101-1.6715 0.0796-1.2132 1.2132 0.42325 2.8458 1.7153 1.7112zm-7.6995-0.24335c0.61426-0.8263 0.0546-1.8977-0.99135-1.8977-1.1547 0-1.6873 1.08-0.97768 1.9822 0.51004 0.6484 1.4543 0.6079 1.969-0.0845z"/>
   <path d="m151.96 109.69v-16.236l18.134 0.09483c9.9737 0.05216 18.189 0.14946 18.255 0.21622 0.17457 0.1745 0.15042 31.729-0.0244 31.904-0.0802 0.0803-8.2952 0.17099-18.255 0.20148l-18.11 0.0554zm23.176 9.4057c0.15905-0.13218 0.28919-0.45744 0.28919-0.72279 0-0.92799-0.18485-0.96311-5.0698-0.96311-4.0034 0-4.541 0.0336-4.9634 0.31048-0.60117 0.39411-0.59443 0.55875 0.0492 1.2024l0.52281 0.52281 4.4414-0.0547c3.4439-0.0424 4.5063-0.10871 4.7306-0.29506zm-11.396-10.88c0.96155-1.1234 1.2211-2.1563 1.3119-5.2203 0.0566-1.911 0.1369-2.6596 0.27935-2.6044 0.10995 0.0426 0.90912 0.52635 1.7759 1.075 1.5113 0.95649 1.6156 0.99437 2.5391 0.92222 0.74361-0.0581 1.7737-0.44447 4.5195-1.6952 1.956-0.891 3.6002-1.5761 3.6538-1.5225 0.0536 0.05361 3e-3 0.35759-0.11301 0.67552-0.36413 1.0001-0.42873 4.1008-0.1133 5.439 0.7271 3.0848 2.192 4.3608 3.6236 3.1562 1.8096-1.5226 2.3417-7.2895 0.93743-10.16-0.42915-0.87716-0.44014-0.96079-0.17863-1.3599 0.61769-0.94271 0.15892-2.0136-0.86263-2.0136-0.66658 0-1.6013 0.38118-7.2408 2.9528-2.3468 1.0701-4.3562 1.8941-4.4654 1.831-0.10912-0.06311-1.6168-0.99762-3.3504-2.0767-4.7245-2.9407-5.3781-3.2198-6.0714-2.5924-0.68455 0.61951-0.28001 1.852 0.80768 2.4607 0.31788 0.17789 0.31654 0.20215-0.0432 0.78416-0.61217 0.9905-0.92189 2.5195-0.92645 4.5735-9e-3 3.8511 0.96919 6.0728 2.6736 6.0751 0.53415 6.6e-4 0.74463-0.11784 1.2432-0.70029z"/>
   <path d="m151.96 78.882v-11.645h15.585l0.0175 9.3247c0.01 5.1286 0.0718 9.5217 0.13822 9.7625 0.0896 0.32464 0.25475 0.44957 0.63921 0.4834 0.28515 0.02509 0.62118-0.02157 0.74674-0.1037 0.44156-0.28882 0.55271-2.4731 0.5562-10.93l4e-3 -8.5367h2.8018v23.29h-20.488zm5.2757 8.904c0.19431-0.23397 0.25-1.8258 0.29078-8.3114 0.0277-4.4121-0.0162-8.281-0.0977-8.5975-0.13352-0.51853-0.21869-0.58074-0.86005-0.62828-0.54677-0.04053-0.74692 0.02038-0.86312 0.26267-0.0832 0.17349-0.17622 4.0861-0.20672 8.6946-0.0523 7.907-0.0377 8.3927 0.26043 8.6187 0.43479 0.32969 1.1868 0.30996 1.4764-0.03874zm7.1154-5.4665c0.0712-0.25335 0.12942-3.2657 0.12942-6.6941 0-6.7351-0.0105-6.8124-0.92699-6.8124-0.24548 0-0.59043 0.13041-0.76656 0.28981-0.29887 0.27048-0.32024 0.70778-0.32024 6.5553 0 3.5153 0.0727 6.4568 0.16568 6.7013 0.28689 0.75459 1.5034 0.72635 1.7187-0.03989z"/>
   <path d="m174.72 78.882v-11.645h8.2303v23.29h-8.2303zm4.4554 9.6798c0.23873-0.34084 0.27043-1.5102 0.25515-9.4123-0.01-4.9627-0.0718-9.2201-0.13825-9.4609-0.0956-0.34651-0.25026-0.44875-0.74176-0.49041-1.1592-0.09826-1.1163-0.47718-1.1163 9.8588 0 7.6375 0.0433 9.3668 0.24033 9.6043 0.35045 0.42236 1.1735 0.36778 1.5009-0.09954z"/>
   <path d="m185.23 78.882v-11.645h3.3271v23.29h-3.3271z"/>
  </g>
 </g>
</svg>
