<?xml version="1.0" encoding="UTF-8"?>
<svg width="77.41" height="120" version="1.1" viewBox="0 0 77.41 120" xmlns="http://www.w3.org/2000/svg" xmlns:cc="http://creativecommons.org/ns#" xmlns:dc="http://purl.org/dc/elements/1.1/" xmlns:rdf="http://www.w3.org/1999/02/22-rdf-syntax-ns#">
 <metadata>
  <rdf:RDF>
   <cc:Work rdf:about="">
    <dc:format>image/svg+xml</dc:format>
    <dc:type rdf:resource="http://purl.org/dc/dcmitype/StillImage"/>
    <dc:title/>
   </cc:Work>
  </rdf:RDF>
 </metadata>
 <path d="m21.459 117.74 36.847-0.14118 15.953-60.282-14.259-0.28235-0.70588-54.353h-40.376l-0.84706 54.212-14.259 1.4118z" fill="#fff"/>
 <g transform="translate(-131.38 -62)">
  <path d="m148.92 179.24c-1.4372-5.1124-9.1421-32.477-13.305-47.256-2.2714-8.063-4.1725-14.794-4.2247-14.959-0.0907-0.28574 0.25872-0.2988 7.9932-0.2988h8.088v-54.725h45.494v54.725h7.912c4.3516 0 7.912 0.058 7.912 0.12883 0 0.0709-0.26627 1.0537-0.5917 2.1841-2.2501 7.8154-16.215 57.821-16.778 60.077l-0.69883 2.8022-41.025 0.083zm38.253-2.5553c0.0919-0.29464 0.62126-2.1676 1.1764-4.1621 0.55512-1.9945 1.2604-4.5164 1.5673-5.6044s1.1584-4.1291 1.8924-6.7582c0.73394-2.6291 1.5874-5.6703 1.8966-6.7582 0.30918-1.0879 1.0877-3.8695 1.73-6.1813s1.3086-4.6854 1.4806-5.2747c0.80095-2.7433 5.4449-19.407 5.4449-19.538 0-0.0427-2.114-0.0776-4.6978-0.0776h-4.6978v8.2417h-22.253v13.48c0 14.765 0.0367 14.212-0.94417 14.212-1.1014 0-1.0338 0.92293-1.0338-14.119v-13.573h-21.264v-8.2417h-4.5329c-2.4931 0-4.5329 0.036-4.5329 0.08 0 0.0768 0.70015 2.5793 3.7362 13.354 0.76638 2.7198 1.7151 6.0947 2.1083 7.5 0.39318 1.4052 1.1642 4.1497 1.7134 6.0989 1.2266 4.3537 2.9389 10.437 5.7187 20.316l2.1219 7.5412h33.202zm-7.4464-17.332c-2.1576-0.59411-3.1173-2.9715-2.0128-4.9863l0.37489-0.68388-0.94156-1.5992-3e-3 -3.7244c-4e-3 -4.7355-0.32757-4.334 3.5549-4.4042l2.8647-0.0518 0.41518 0.41519c0.70792 0.70792 0.44128 7.5639-0.3379 8.6882l-0.41171 0.5941 0.43597 0.868c1.3584 2.7044-1.0426 5.6819-3.9388 4.8844zm1.7722-1.5786c1.0807-0.41087 1.3886-1.9514 0.57514-2.8779-1.2194-1.3888-3.2841-0.64589-3.2841 1.1817 0 1.3853 1.3323 2.2196 2.709 1.6962zm0.76756-5.4559c0.23811-0.30976 0.30817-0.68758 0.31101-1.6773l4e-3 -1.2775h-3.956v1.078c0 0.73229 0.10005 1.2741 0.31197 1.6896l0.31196 0.61156 1.355-0.0123c1.2326-0.0111 1.3828-0.0484 1.6624-0.41208zm0.47951-5.5921v-0.989h-3.956v1.978h3.956zm5.2224 12.462c-2.1576-0.59411-3.1173-2.9715-2.0128-4.9863l0.37489-0.68389-0.47078-0.79962-0.47077-0.79963-3e-3 -3.7244c-4e-3 -4.7354-0.32757-4.334 3.5549-4.4042l2.8647-0.0518 0.41518 0.41518c0.70792 0.70792 0.44128 7.5639-0.3379 8.6882l-0.41171 0.5941 0.43597 0.868c1.3584 2.7044-1.0426 5.6819-3.9388 4.8844zm1.7722-1.5786c1.0807-0.41086 1.3885-1.9514 0.57513-2.8779-1.2194-1.3888-3.2841-0.64589-3.2841 1.1817 0 1.3853 1.3323 2.2196 2.709 1.6962zm0.76755-5.4559c0.23812-0.30977 0.30817-0.68759 0.31101-1.6773l4e-3 -1.2775h-3.956v1.078c0 0.73228 0.10005 1.2741 0.31197 1.6896l0.31197 0.61156 1.355-0.0123c1.2326-0.0111 1.3828-0.0484 1.6624-0.41209zm0.47951-5.5921v-0.98901h-3.956v1.978h3.956zm-19.053 4.2045c-0.64083-0.97804 0.0462-1.5671 1.8276-1.5671s2.4684 0.58909 1.8276 1.5671c-0.25554 0.38999-0.34844 0.41088-1.8276 0.41088s-1.572-0.0209-1.8276-0.41088zm-0.28975-8.6268c-0.90764-1.0029-0.0422-1.724 1.9813-1.6508 1.9261 0.0697 2.6898 0.81095 1.7302 1.6794-0.46019 0.41646-3.3287 0.39432-3.7115-0.0286zm6.925-0.63263c-0.0604-0.0604-0.10989-1.8036-0.10989-3.8736v-3.7637h15.494l-5e-3 3.5852c-4e-3 2.7198-0.0581 3.6548-0.22422 3.8736-0.2251 0.29653-14.865 0.46903-15.155 0.17857zm13.736-3.7637v-2.5549h-12.363v2.445c0 3.012-0.81958 2.6648 6.2912 2.6648h6.0714zm-7.038 1.0426c-0.51701-0.25495-0.72116-0.94744-0.46141-1.5652 0.50421-1.1992 2.2247-0.77469 2.2247 0.54889 0 0.83274-0.98466 1.4003-1.7633 1.0163zm4.483 0.0638c-1.3501-0.28263-1.1327-2.3427 0.24726-2.3427 1.3304 0 1.604 1.9375 0.32966 2.3346-0.13598 0.0424-0.3956 0.046-0.57692 8e-3zm-8.477-0.46929c-0.78576-0.99895 0.12187-2.2617 1.3244-1.8425 1.2206 0.42548 0.87113 2.2768-0.42972 2.2768-0.40108 0-0.64685-0.11931-0.89463-0.43431zm-33.136 1.2155c4e-3 -0.11234 0.073-0.53804 0.15334-0.946 0.14401-0.73082 0.13519-0.75299-0.59839-1.5037l-0.74457-0.76194 0.63243-0.10908c1.492-0.25734 1.4757-0.24783 1.8723-1.0945 0.21032-0.44906 0.43123-0.81647 0.49089-0.81647 0.0597 0 0.28057 0.36741 0.4909 0.81647 0.39656 0.84668 0.38029 0.83717 1.8723 1.0945l0.63243 0.10908-0.74456 0.76194c-0.73359 0.7507-0.74241 0.77287-0.5984 1.5037 0.23418 1.1884 0.2356 1.1871-0.74607 0.70562l-0.90659-0.44463-0.90659 0.44463c-0.58481 0.28682-0.90404 0.37214-0.89941 0.24038zm6.7582-0.16304c4e-3 -0.11332 0.073-0.53983 0.15334-0.9478 0.14402-0.73089 0.13525-0.75292-0.59915-1.5044l-0.74531-0.7627 1.0274-0.18097c0.56508-0.0995 1.0451-0.20138 1.0666-0.22631 0.0216-0.0249 0.23485-0.43475 0.47393-0.91071s0.46928-0.86538 0.51155-0.86538c0.0423 0 0.27248 0.38942 0.51156 0.86538s0.45235 0.88578 0.47393 0.91071c0.0216 0.0249 0.50157 0.12677 1.0666 0.22631l1.0274 0.18097-1.4901 1.5254 0.16361 0.88231c0.20637 1.1129 0.18829 1.1256-0.85237 0.59821l-0.86285-0.43724-0.78298 0.42616c-0.86868 0.47279-1.154 0.52772-1.1433 0.22011zm6.923-0.16484c4e-3 -0.11332 0.0729-0.53983 0.15334-0.94779 0.1442-0.73179 0.13603-0.75213-0.60835-1.5138l-0.75451-0.77203 1.0262-0.11611 1.0262-0.1161 0.43347-0.88383c0.23841-0.48611 0.47675-0.88383 0.52964-0.88383 0.0529 0 0.29122 0.39772 0.52963 0.88383l0.43347 0.88383 1.0262 0.1161 1.0262 0.11611-1.5085 1.5441 0.16361 0.88231c0.2071 1.1169 0.17367 1.1405-0.83536 0.59135l-0.83529-0.45463-0.80527 0.43828c-0.91369 0.49729-1.0108 0.51982-1.0007 0.23224zm10.13-5.1008c-1.4556-0.82544-0.59269-1.781 1.6083-1.781 1.7629 0 2.1004 0.15934 2.1004 0.99144 0 0.88795-2.5703 1.4352-3.7088 0.78961zm16.598-8.4156c0.0572-0.1742 0.0448-31.785-0.0125-32.143-0.0109-0.06799-8.2533-0.12362-18.316-0.12362h-18.297v32.472h18.279c14.477 0 18.293-0.0429 18.347-0.20604zm-22.944-6.717c-1.3124-1.3123-0.35475-1.6483 4.6978-1.6483 4.7441 0 5.0274 0.0557 5.0274 0.989 0 0.93326-0.28337 0.98901-5.0274 0.98901-4.1483 0-4.3847-0.0166-4.6978-0.32967zm-4.4456-10.854c-1.6248-1.708-1.7918-7.7131-0.27659-9.9459l0.39497-0.58202-0.47877-0.28281c-1.1264-0.66535-1.4534-1.5813-0.79838-2.2362 0.67544-0.67544 1.1297-0.4896 5.4692 2.2374l4.085 2.567 5.1542-2.3476c6.0794-2.769 6.164-2.8018 6.7006-2.5978 0.88931 0.33811 1.0812 1.152 0.44887 1.9036-0.38975 0.46319-0.39084 0.4742-0.084 0.85312 1.6577 2.0472 1.381 8.7057-0.43759 10.53-2.4544 2.4619-4.9824-3.8014-3.473-8.6049 0.14109-0.44906 0.24072-0.83105 0.22138-0.84886-0.0193-0.01781-1.8896 0.81251-4.156 1.8451-5.0408 2.2967-4.2898 2.2553-7.2374 0.39837-0.86451-0.54464-1.6032-0.99026-1.6415-0.99026s-0.0302 0.9146 0.0181 2.0324c0.21755 5.0372-1.8447 8.2394-3.9089 6.0695zm11.369-29.283v-11.786h-2.967v9.324c0 10.276-3.3e-4 10.28-1.0584 10.289-0.94921 0.0076-0.91956 0.33245-0.91956-10.078v-9.5348h-15.659v23.571h20.604zm-16.612 8.8917-0.36634-0.2566v-8.3854c0-9.2162-0.0348-8.9035 0.99143-8.9035 0.99675 0 0.98658-0.0906 0.98658 8.7837 0 8.027-0.0323 8.5396-0.56039 8.8922-0.28794 0.19226-0.65569 0.14663-1.0513-0.13045zm7.268-5.0305c-0.68251-0.25374-0.71132-0.53684-0.71132-6.9898v-6.1996l0.41483-0.41483c0.30257-0.30257 0.51445-0.38525 0.78296-0.30553 0.77741 0.23082 0.78022 0.25595 0.78022 6.999 0 6.5621-0.0171 6.7431-0.65934 6.9608-0.13599 0.04609-0.4093 0.02355-0.60735-0.05008zm19.893-3.8612v-11.786h-8.4066v23.571h8.4066zm-5.3453 9.7134c-0.22935-0.22935-0.25903-1.3233-0.25903-9.5486 0-10.212-0.0409-9.8076 0.99143-9.8076 1.0059 0 0.98658-0.19192 0.98658 9.8076 0 7.9468-0.0319 9.1205-0.25659 9.4413-0.30472 0.43505-1.0779 0.49179-1.4624 0.10732zm10.866-9.6722-1e-3 -11.744-3.3767-0.09395v23.583h3.3791l-1e-3 -11.744z" stroke-width=".16483"/>
 </g>
</svg>
