<?xml version="1.0" encoding="UTF-8"?>
<svg width="93.767" height="120" version="1.1" viewBox="0 0 93.767 120" xmlns="http://www.w3.org/2000/svg" xmlns:cc="http://creativecommons.org/ns#" xmlns:dc="http://purl.org/dc/elements/1.1/" xmlns:rdf="http://www.w3.org/1999/02/22-rdf-syntax-ns#">
 <metadata>
  <rdf:RDF>
   <cc:Work rdf:about="">
    <dc:format>image/svg+xml</dc:format>
    <dc:type rdf:resource="http://purl.org/dc/dcmitype/StillImage"/>
    <dc:title/>
   </cc:Work>
  </rdf:RDF>
 </metadata>
 <g transform="translate(-112.76 -144.21)">
  <path d="m148.46 264.2-32.966-0.0535-0.57955-2.4198c-5.7491-24.005 0.25961-51.717 14.781-68.171 0.83429-0.94532 1.6814-1.9892 1.8824-2.3198l0.36549-0.601-0.67141-1.447c-11.68-25.172 11.824-51.861 38.185-43.362 17.75 5.7228 26.564 26.205 18.581 43.176l-0.87688 1.8642 1.3498 1.421c14.18 14.927 20.902 40.755 16.842 64.707-0.40965 2.4168-1.3653 6.9742-1.4817 7.0657-0.1501 0.11811-26.993 0.1857-55.412 0.13953zm13.698-30.995v-26.197l-2.6102-3e-3c-1.4356-2e-3 -2.8024-0.0541-3.0373-0.11706l-0.42712-0.11447v52.627h6.0746zm14.727 6.164c3.4194-2.1046 3.2685-7.134-0.26877-8.9599-4.4044-2.2735-9.0631 2.1347-7.0696 6.6896 1.1588 2.6477 4.8632 3.7938 7.3384 2.2703zm-0.94916-17.464c3.4194-2.1046 3.2685-7.134-0.26877-8.9599-4.4044-2.2735-9.0631 2.1347-7.0696 6.6896 1.1588 2.6477 4.8632 3.7938 7.3384 2.2703zm-11.12-19.929c10.932-2.3773 19.585-11.069 21.052-21.145 0.1003-0.68913 0.28355-1.9364 0.40724-2.7716 0.77819-5.2552-1.738-14.711-4.7065-17.687-0.33933-0.34021-0.61695-0.74739-0.61695-0.90483 0-0.37405-3.4041-3.9164-4.7458-4.9386-1.4082-1.0728-1.5008-1.1198-1.3928-0.70705 0.10999 0.4206-0.39066 0.87846-0.79211 0.7244-0.5114-0.19624-0.56863-0.72266-0.11821-1.0874l0.41778-0.3383-0.90816-0.5145c-0.49949-0.28297-1.0831-0.62064-1.297-0.75037-1.0688-0.64848-3.1001-1.3681-3.5949-1.2735-0.38417 0.0734-0.6138-3e-3 -0.83575-0.27768-0.30633-0.37931-1.8334-0.86725-3.4382-1.0986-0.46983-0.0677-0.98316-0.15883-1.1407-0.20246-0.21303-0.059-0.28603 0.0784-0.28474 0.5359 2e-3 0.53015-0.0639 0.61523-0.47285 0.61523-0.40843 0-0.47436-0.0853-0.47302-0.6122 3e-3 -1.2071-8.0782-0.89415-9.0308 0.34968-0.23579 0.30788-0.43147 0.36429-0.94915 0.27364-1.0916-0.19116-4.6184 1.3445-4.6997 2.0464-0.0719 0.62031-0.50657 0.8467-1.0155 0.52888-1.2302-0.76827-9.0282 6.8556-8.9183 8.7191 0.0387 0.65604-4e-3 0.72769-0.47103 0.78286-0.93237 0.11024-2.8063 4.5787-3.6078 8.6031-0.96684 4.8543 0.0418 12.485 2.2252 16.834 5.2537 10.464 18.166 16.741 29.408 14.296zm-9.059-6.32c-1.4436-0.10468-2.0783-1.5821-1.0822-2.519 0.59277-0.55747 6.5356-0.80838 7.4835-0.31596 0.9613 0.49937 1.1437 2.0209 0.30749 2.5649-0.23469 0.15269-5.4385 0.36214-6.7089 0.27003zm-8.156-13.788c-2.1489-0.94994-3.011-6.8123-1.5632-10.63 0.1956-0.5158 0.3363-0.9523 0.31267-0.96998-0.0236-0.0177-1.5379-0.5206-3.365-1.1176-4.1883-1.3685-5.0888-2.2488-3.7103-3.6273 0.7482-0.74821 1.1984-0.64038 11.068 2.6512l9.347 3.1171 9.347-3.1171c9.87-3.2915 10.32-3.3994 11.068-2.6512 1.3784 1.3784 0.47796 2.2587-3.7103 3.6273-1.8271 0.59701-3.3414 1.0999-3.365 1.1176-0.0236 0.0177 0.12099 0.46362 0.32137 0.99097 1.9355 5.0939-0.15221 12.043-3.1745 10.566-1.7496-0.85493-2.881-6.1008-1.9889-9.2219 0.25136-0.87942 0.66076-0.93786-3.8335 0.54718-4.7662 1.5749-4.563 1.5749-9.3292 0-4.4943-1.485-4.0855-1.4266-3.8311-0.54718 1.2969 4.4839-1.0021 10.411-3.5939 9.2654zm-8.6152-22.427c-0.33783-0.40706 2e-3 -0.93324 0.60338-0.93324 0.33397 0 0.47082 0.11972 0.51796 0.45311 0.10139 0.71714-0.65564 1.0413-1.1213 0.48013zm5.9666-0.36375c-0.26752-0.69712 0.50329-1.3128 1.0096-0.80644 0.42198 0.42198 0.15664 1.0912-0.43264 1.0912-0.25726 0-0.51692-0.12814-0.57701-0.28475zm32.081 0c-0.18022-0.46964 0.0796-0.85423 0.57701-0.85423 0.47668 0 0.82688 0.56303 0.58929 0.94745-0.18254 0.29536-1.0436 0.22654-1.1663-0.0932zm-33.732-0.0316c-0.23581-0.23581-0.12821-0.97118 0.15819-1.0811 0.60155-0.23084 1.1537 0.32133 0.92289 0.92288-0.1099 0.2864-0.84527 0.39401-1.0811 0.1582zm9.4385-0.52514c-0.20379-0.53107 0.0762-0.89674 0.63726-0.83221 0.41539 0.0478 0.52311 0.1579 0.52311 0.53475 0 0.571-0.96088 0.81732-1.1604 0.29746zm21.892 0.15348c-0.29402-0.29401-0.12715-0.9972 0.26627-1.1221 0.55922-0.17749 1.0952 0.36283 0.81046 0.81706-0.21914 0.34961-0.85267 0.52907-1.0767 0.30501zm-5.5131-0.19784c-0.37224-0.37223 3.8e-4 -1.2023 0.53981-1.2023 0.25712 0 0.61046 0.63236 0.52849 0.94582-0.0974 0.3723-0.78692 0.53783-1.0683 0.25644zm-5.9913-0.70362c-0.48176-0.58049 0.42066-1.4419 1.119-1.0681 0.42474 0.22732 0.49757 0.75532 0.15186 1.101-0.30656 0.30656-1.0041 0.28851-1.2709-0.0329zm-5.6369-0.37932c-0.21104-0.54994 4e-3 -0.97355 0.49408-0.97355 0.39786 0 0.47197 0.0894 0.47197 0.56949 0 0.63685-0.75547 0.95284-0.96605 0.40406zm8.5424-0.56949c-0.21103-0.54994 4e-3 -0.97355 0.49408-0.97355 0.39787 0 0.47198 0.0894 0.47198 0.56949 0 0.63685-0.75547 0.95283-0.96606 0.40406zm-17.738-0.60065c-0.34492-0.41559-0.0119-0.9424 0.59578-0.9424 0.37777 0 0.45389 0.0955 0.45389 0.5695 0 0.6667-0.62235 0.8878-1.0497 0.3729zm-5.7446-0.0169c-0.29401-0.29402-0.12715-0.99721 0.26627-1.1221 0.55923-0.1775 1.0952 0.36283 0.81047 0.81706-0.21914 0.3496-0.85268 0.52906-1.0767 0.30501zm32.779-0.15511c-0.178-0.46387 8e-3 -0.9524 0.39131-1.0262 0.50169-0.0966 0.90771 0.48493 0.66074 0.94639-0.22392 0.4184-0.90236 0.46984-1.052 0.0798zm-22.784-0.39076c-0.18041-0.47014 0.0797-0.85423 0.5786-0.85423 0.55969 0 0.74945 0.24639 0.58611 0.76102-0.1436 0.45245-1.0005 0.52104-1.1647 0.0932zm6.2687 0.0111c-0.2022-0.52693 0.0137-0.96024 0.4785-0.96024 0.59881 0 0.93801 0.52691 0.60079 0.93324-0.31165 0.37551-0.93952 0.39122-1.0793 0.027zm11.409-0.11407c-0.16372-0.51582 0.11165-0.80206 0.69253-0.71987 0.33545 0.0475 0.44901 0.18356 0.44901 0.53811 0 0.65299-0.94426 0.80333-1.1415 0.18176zm-25.651-0.0868c-0.17932-0.46728 0.0786-0.85423 0.56949-0.85423 0.25312 0 0.50939 0.12813 0.56949 0.28474 0.17931 0.46729-0.0787 0.85424-0.56949 0.85424-0.25313 0-0.5094-0.12814-0.56949-0.28475zm19.363-0.75932c-0.17931-0.46728 0.0787-0.85424 0.5695-0.85424 0.25312 0 0.50939 0.12814 0.56949 0.28475 0.17931 0.46728-0.0787 0.85424-0.56949 0.85424-0.25313 0-0.5094-0.12814-0.5695-0.28475zm-7.7737-0.16543c-0.21104-0.54994 4e-3 -0.97355 0.49408-0.97355 0.39786 0 0.47197 0.0894 0.47197 0.56949 0 0.63685-0.75547 0.95284-0.96605 0.40406zm13.051-0.28606c-0.44485-0.28197-0.18793-1.0599 0.37146-1.1248 0.60012-0.0696 0.86541 0.56623 0.42147 1.0102-0.32208 0.32208-0.43902 0.33899-0.79293 0.11466zm-2.8097-0.49766c-0.17931-0.46729 0.0787-0.85424 0.56949-0.85424 0.25313 0 0.5094 0.12814 0.5695 0.28475 0.17931 0.46728-0.0787 0.85423-0.5695 0.85423-0.25312 0-0.50939-0.12813-0.56949-0.28474zm-6.5862-0.4113c-0.23581-0.23581-0.12821-0.97118 0.15819-1.0811 0.49638-0.19048 0.85424 0.0854 0.85424 0.65845 0 0.53614-0.63419 0.80087-1.0124 0.42263zm-5.2576-0.35478c-0.34491-0.41559-0.0119-0.9424 0.59579-0.9424 0.37776 0 0.45389 0.0955 0.45389 0.5695 0 0.66671-0.62235 0.8878-1.0497 0.3729zm-5.1751-0.2067c-0.24234-0.24235-0.14099-0.97736 0.15019-1.0891 0.50732-0.19468 0.87854 0.0847 0.81705 0.61493-0.0567 0.48882-0.65786 0.78353-0.96724 0.47416zm13.611-0.1418c-0.21104-0.54995 4e-3 -0.97356 0.49408-0.97356 0.39786 0 0.47197 0.0894 0.47197 0.56949 0 0.63686-0.75547 0.95284-0.96605 0.40407zm-4.8162-1.9136c-0.36331-0.43776-0.15879-0.95136 0.40488-1.0168 0.37531-0.0436 0.53653 0.0437 0.63101 0.34132 0.23279 0.73346-0.55917 1.2499-1.0359 0.67545z" stroke-width=".18983"/>
  <g fill="#fff" stroke-width=".20144">
   <path d="m156.17 233.12-3.8e-4 -26.137 5.8425 0.1214v52.153h-5.8419z"/>
   <path d="m172.89 239.73c-3.0893-0.93974-4.5166-4.1876-3.0944-7.0416 0.99953-2.0058 3.3826-3.1687 5.4455-2.6574 2.0095 0.49809 3.492 2.004 3.898 3.9594 0.61145 2.9453-1.7994 5.9603-4.7262 5.9105-0.55991-0.01-1.2452-0.0864-1.5229-0.1709z"/>
   <path d="m171.17 221.91c-3.2829-1.552-3.908-5.7849-1.2049-8.1583 1.0459-0.91833 1.8798-1.2327 3.2632-1.2304 4.5693 8e-3 6.7469 5.438 3.4487 8.5996-1.4131 1.3546-3.6369 1.6732-5.507 0.78913z"/>
   <path d="m157.1 202.23c-7.4898-0.86907-14.76-4.9814-19.17-10.843-3.2749-4.3532-4.679-8.7487-4.8717-15.25-0.11562-3.9013 0.0848-5.3074 1.2749-8.9452 0.87257-2.6671 1.8189-4.4463 2.55-4.7944 0.38586-0.18368 0.55397-0.41624 0.55397-0.76633 0-0.53604 0.43703-1.5041 1.0127-2.2432 0.3487-0.4477 0.35229-0.44798 0.46014-0.0355 0.0833 0.31863 0.24156 0.40047 0.67766 0.3505 0.73885-0.0846 0.88204-0.80009 0.24889-1.2436-0.44156-0.30928-0.43697-0.31777 0.94424-1.7485 1.2834-1.3294 1.3962-1.4023 1.4978-0.96769 0.13137 0.56214 1.0066 0.74653 1.3842 0.29161 0.31003-0.37356-0.0357-1.131-0.51623-1.131-0.46504 0-0.0779-0.4104 1.2498-1.3248 0.85643-0.58984 1.272-0.74886 1.8936-0.7245 0.68419 0.0268 0.83346-0.0465 1.0603-0.52092 0.36486-0.76308 2.6094-1.8534 4.1296-2.0061 0.65331-0.0656 1.371-0.27592 1.6318-0.47814 0.70662-0.54799 2.5063-0.8579 5.0742-0.87376 2.7372-0.0169 3.3716 0.12246 3.6281 0.79708 0.27278 0.71746 0.93789 0.65815 1.1041-0.0985 0.11892-0.54144 0.19006-0.58618 0.77142-0.48515 1.5451 0.26851 3.1018 0.72435 3.7207 1.0895 0.3682 0.21724 0.91355 0.39713 1.2119 0.39976 0.67587 6e-3 2.3746 0.69684 4.1376 1.6828 1.2211 0.68285 1.3168 0.78197 1.0309 1.0679-0.38587 0.38586-0.31647 0.85347 0.17086 1.1511 0.29695 0.18138 0.4372 0.13524 0.75099-0.24707l0.38586-0.47012 0.6591 0.47012c0.60935 0.43461 0.626 0.47482 0.22049 0.53256-0.59954 0.0854-0.93138 0.53716-0.76939 1.0475 0.21247 0.66945 1.1879 0.47474 1.2718-0.25385 0.0351-0.30468 0.13807-0.55397 0.22891-0.55397 0.217 0 3.5506 3.5063 3.9909 4.1976 0.18787 0.29499 0.6915 0.98539 1.1192 1.5342 2.4769 3.1786 4.415 9.6701 4.4232 14.815 7e-3 4.2364-0.93681 8.4267-2.6877 11.936-4.7928 9.6049-16.071 15.847-26.455 14.642zm3.7635-6.6039c1.9592-0.14959 2.149-0.27791 2.154-1.4565 7e-3 -1.5332-1.5519-1.9696-5.7148-1.6003-2.5703 0.22806-3.1457 0.49895-3.1457 1.4809 0 0.71433 0.27022 1.1655 0.9065 1.5135 0.44467 0.24322 3.0621 0.27134 5.7999 0.0623zm-11.345-14.058c0.75388-0.63434 1.4619-1.9846 1.8347-3.499 0.32048-1.3018 0.33299-4.2033 0.0229-5.305-0.18255-0.6485-0.171-0.75472 0.0719-0.6615 0.15917 0.0611 1.763 0.58778 3.5641 1.1704 4.4302 1.4332 5.0448 1.4266 9.715-0.10468 1.8802-0.61648 3.4443-1.0951 3.4758-1.0636 0.0315 0.0315-0.045 0.35044-0.16991 0.70881-0.35466 1.0174-0.11253 4.8844 0.40737 6.5061 0.56213 1.7534 1.4827 2.7784 2.4954 2.7784 1.3028 0 2.4536-1.4536 2.968-3.7491 0.32333-1.4428 0.25767-4.6341-0.12389-6.0209-0.1829-0.66476-0.37343-1.3912-0.4234-1.6144-0.0797-0.35603 0.16365-0.48859 1.9883-1.083 2.3739-0.7733 4.512-1.6956 5.0413-2.1746 0.68272-0.61786 0.38071-1.7337-0.61247-2.2628-0.71763-0.38234-2.3034 0.0473-11.717 3.1748l-8.3599 2.7774-8.3599-2.7776c-9.4112-3.1269-10.999-3.5571-11.717-3.1746-0.99318 0.52913-1.2952 1.645-0.61247 2.2628 0.52926 0.47897 2.6674 1.4012 5.0413 2.1746 1.8247 0.5944 2.0681 0.72696 1.9883 1.083-0.05 0.22314-0.23774 0.94598-0.41728 1.6063-0.42079 1.5477-0.43 4.864-0.0179 6.4462 0.77182 2.9632 2.3677 4.1051 3.9162 2.802zm-3.6072-22.24c0.78053-0.41772 0.2416-1.575-0.60791-1.3054-0.66713 0.21174-0.55259 1.3212 0.15466 1.498 0.035 9e-3 0.23895-0.0779 0.45325-0.19263zm32.185 0.0316c0.14818-0.0939 0.23883-0.38716 0.20144-0.65161-0.0544-0.38485-0.18861-0.48083-0.67231-0.48083-0.5048 0-0.61456 0.0884-0.66643 0.53694-0.0579 0.5002 0.0455 0.60066 0.76715 0.74599 0.0554 0.0112 0.22196-0.0566 0.37015-0.15049zm-33.927-0.14677c0.41138-0.15786 0.41112-0.96031-3.8e-4 -1.3018-0.41281-0.3426-0.96411-0.0216-1.0583 0.61614-0.0929 0.62902 0.39052 0.94213 1.0587 0.68571zm9.5523-0.45757c0.14818-0.0939 0.23883-0.38715 0.20144-0.6516-0.0817-0.5778-0.90917-0.67445-1.243-0.14519-0.38382 0.60849 0.39667 1.2056 1.0416 0.79679zm21.675-0.0195c0.3157-0.12003 0.51672-0.35239 0.51672-0.59725 0-0.45808-0.63223-0.87179-1.0735-0.70247-0.39256 0.15064-0.57774 0.90347-0.30352 1.2339 0.26028 0.31361 0.21723 0.31032 0.86029 0.0658zm-5.4423-0.12727c0.62111-0.23834 0.25907-1.4893-0.43102-1.4893-0.34362 0-0.74937 0.88783-0.59253 1.2965 0.12678 0.33037 0.48774 0.39834 1.0236 0.19273zm-5.5575-0.65808c0.15218-0.0965 0.23921-0.42149 0.20145-0.75233-0.0841-0.7365-0.90665-0.9101-1.4528-0.3066-0.6812 0.75272 0.35338 1.6282 1.2514 1.0589zm-5.8867-0.74523c0.15101-0.60165-0.12176-0.96021-0.65268-0.85796-0.70764 0.13628-0.60203 1.3763 0.11721 1.3763 0.26747 0 0.44963-0.17634 0.53547-0.51836zm8.4389-0.79102c0-0.45843-0.092-0.60433-0.38093-0.60433-0.47639 0-0.83385 0.53896-0.65925 0.99396 0.0827 0.2156 0.30112 0.31964 0.58603 0.27919 0.35598-0.0505 0.45415-0.19512 0.45415-0.66882zm-17.518-0.32463c0.27042-0.85202-0.92234-1.3185-1.2419-0.48572-0.19287 0.50261 0.0809 0.91107 0.61056 0.91107 0.32817 0 0.54209-0.14412 0.63135-0.42535zm4.052-0.13171c0.23213-0.14828 0.34049-0.52105 0.29581-1.0175-0.0336-0.37293-1.0397-0.21988-1.3012 0.19794-0.36692 0.58621 0.39656 1.2086 1.0054 0.81957zm6.6068-0.43306c0.26353-0.4264-0.14646-0.84409-0.76891-0.78336-0.73596 0.0718-0.97575 0.69368-0.42326 1.0977 0.35098 0.25664 0.93436 0.10284 1.1922-0.31431zm11.183 0.29474c0.41947-0.50544 0.17022-1.0169-0.49558-1.0169-0.41624 0-0.62008 0.11043-0.66857 0.3622-0.08 0.41531 0.29544 0.94718 0.66857 0.94718 0.13906 0 0.36207-0.13162 0.49558-0.29249zm-25.583-0.20144c0.42033-0.50646 0.17019-1.0169-0.49833-1.0169-0.4808 0-0.61523 0.0965-0.66956 0.48083-0.1048 0.74116 0.69355 1.1076 1.1679 0.53607zm19.229-0.63556c0.41906-0.16081 0.41044-1.0081-0.0119-1.1701-0.54482-0.20907-1.0796 0.072-1.0796 0.56735 0 0.69962 0.34401 0.88961 1.0915 0.60278zm-7.7756-0.8493c0.0602-0.6272 0.0285-0.66531-0.50189-0.60433-0.3536 0.0406-0.59205 0.20183-0.63523 0.42937-0.11611 0.61198 0.13296 0.97784 0.61875 0.90886 0.35083-0.0498 0.46876-0.21678 0.51837-0.7339zm12.889 0.12551c0.13295-0.13295 0.24173-0.45023 0.24173-0.70505 0-0.37814-0.10861-0.46333-0.59076-0.46333-0.41845 0-0.62894 0.12033-0.72169 0.41256-0.23349 0.73566 0.54286 1.2837 1.0707 0.75582zm-2.414-0.81585c0.0574-0.49883 2e-3 -0.55397-0.56029-0.55397-0.65518 0-0.94743 0.36591-0.73481 0.91999 0.079 0.20585 0.31424 0.29344 0.67624 0.2518 0.43634-0.0502 0.56876-0.18239 0.61886-0.61782zm-6.9272-0.0648c0.37451-0.3745 0.37772-0.40143 0.10803-0.90535-0.30303-0.5662-0.96546-0.49722-1.1195 0.11658-0.12153 0.48421 0.17772 1.1053 0.53254 1.1053 0.0893 0 0.30484-0.14245 0.47894-0.31656zm-5-0.60469c0.14916-0.59431-0.12084-0.96103-0.63341-0.86028-0.88796 0.17454-0.89039 1.3786-3e-3 1.3786 0.37568 0 0.53962-0.13358 0.6362-0.51836zm-5.465-0.01c0.38793-0.38793 0.33486-0.8583-0.12987-1.1509-0.66927-0.42144-1.3091 0.65874-0.73201 1.2358 0.32017 0.32017 0.47176 0.30524 0.86188-0.0849zm13.561 0.0849c0.31707-0.31707 0.31055-1.1101-0.0101-1.2251-0.70476-0.25271-1.2533 0.68694-0.71512 1.2251 0.30294 0.30295 0.42225 0.30295 0.72519 0zm-4.601-2.0652c0.41948-0.50544 0.17022-1.0169-0.49557-1.0169-0.61489 0-0.86371 0.40394-0.6277 1.019 0.14402 0.37529 0.81111 0.37405 1.1233-2e-3z"/>
  </g>
 </g>
</svg>
