<?xml version="1.0" encoding="UTF-8"?>
<svg width="93.767" height="120" version="1.1" viewBox="0 0 93.767 120" xmlns="http://www.w3.org/2000/svg" xmlns:cc="http://creativecommons.org/ns#" xmlns:dc="http://purl.org/dc/elements/1.1/" xmlns:rdf="http://www.w3.org/1999/02/22-rdf-syntax-ns#">
 <metadata>
  <rdf:RDF>
   <cc:Work rdf:about="">
    <dc:format>image/svg+xml</dc:format>
    <dc:type rdf:resource="http://purl.org/dc/dcmitype/StillImage"/>
    <dc:title/>
   </cc:Work>
  </rdf:RDF>
 </metadata>
 <path d="m47.012 2.1176 21.035 7.3412 8.3294 20.612-6.3529 26.541 0.84706 60.141-34.024 0.14118-13.412-67.765-6.6353-18.494 7.9059-19.2 11.859-7.7647z" fill="#fff"/>
 <g transform="translate(-112.76 -144.21)">
  <path d="m148.46 264.2-32.966-0.0535-0.57955-2.4198c-5.7491-24.005 0.25961-51.717 14.781-68.171 0.83429-0.94532 1.6814-1.9892 1.8824-2.3198l0.36549-0.601-0.67141-1.447c-11.68-25.172 11.824-51.861 38.185-43.362 17.75 5.7228 26.564 26.205 18.581 43.176l-0.87688 1.8642 1.3498 1.421c14.18 14.927 20.902 40.755 16.842 64.707-0.40965 2.4168-1.3653 6.9742-1.4817 7.0657-0.1501 0.11811-26.993 0.1857-55.412 0.13953zm13.698-30.995v-26.197l-2.6102-3e-3c-1.4356-2e-3 -2.8024-0.0541-3.0373-0.11706l-0.42712-0.11447v52.627h6.0746zm14.727 6.164c3.4194-2.1046 3.2685-7.134-0.26877-8.9599-4.4044-2.2735-9.0631 2.1347-7.0696 6.6896 1.1588 2.6477 4.8632 3.7938 7.3384 2.2703zm-0.94916-17.464c3.4194-2.1046 3.2685-7.134-0.26877-8.9599-4.4044-2.2735-9.0631 2.1347-7.0696 6.6896 1.1588 2.6477 4.8632 3.7938 7.3384 2.2703zm-11.12-19.929c10.932-2.3773 19.585-11.069 21.052-21.145 0.1003-0.68913 0.28355-1.9364 0.40724-2.7716 0.77819-5.2552-1.738-14.711-4.7065-17.687-0.33933-0.34021-0.61695-0.74739-0.61695-0.90483 0-0.37405-3.4041-3.9164-4.7458-4.9386-1.4082-1.0728-1.5008-1.1198-1.3928-0.70705 0.10999 0.4206-0.39066 0.87846-0.79211 0.7244-0.5114-0.19624-0.56863-0.72266-0.11821-1.0874l0.41778-0.3383-0.90816-0.5145c-0.49949-0.28297-1.0831-0.62064-1.297-0.75037-1.0688-0.64848-3.1001-1.3681-3.5949-1.2735-0.38417 0.0734-0.6138-3e-3 -0.83575-0.27768-0.30633-0.37931-1.8334-0.86725-3.4382-1.0986-0.46983-0.0677-0.98316-0.15883-1.1407-0.20246-0.21303-0.059-0.28603 0.0784-0.28474 0.5359 2e-3 0.53015-0.0639 0.61523-0.47285 0.61523-0.40843 0-0.47436-0.0853-0.47302-0.6122 3e-3 -1.2071-8.0782-0.89415-9.0308 0.34968-0.23579 0.30788-0.43147 0.36429-0.94915 0.27364-1.0916-0.19116-4.6184 1.3445-4.6997 2.0464-0.0719 0.62031-0.50657 0.8467-1.0155 0.52888-1.2302-0.76827-9.0282 6.8556-8.9183 8.7191 0.0387 0.65604-4e-3 0.72769-0.47103 0.78286-0.93237 0.11024-2.8063 4.5787-3.6078 8.6031-0.96684 4.8543 0.0418 12.485 2.2252 16.834 5.2537 10.464 18.166 16.741 29.408 14.296zm-9.059-6.32c-1.4436-0.10468-2.0783-1.5821-1.0822-2.519 0.59277-0.55747 6.5356-0.80838 7.4835-0.31596 0.9613 0.49937 1.1437 2.0209 0.30749 2.5649-0.23469 0.15269-5.4385 0.36214-6.7089 0.27003zm-8.156-13.788c-2.1489-0.94994-3.011-6.8123-1.5632-10.63 0.1956-0.5158 0.3363-0.9523 0.31267-0.96998-0.0236-0.0177-1.5379-0.5206-3.365-1.1176-4.1883-1.3685-5.0888-2.2488-3.7103-3.6273 0.7482-0.74821 1.1984-0.64038 11.068 2.6512l9.347 3.1171 9.347-3.1171c9.87-3.2915 10.32-3.3994 11.068-2.6512 1.3784 1.3784 0.47796 2.2587-3.7103 3.6273-1.8271 0.59701-3.3414 1.0999-3.365 1.1176s0.12099 0.46362 0.32137 0.99097c1.9355 5.0939-0.15221 12.043-3.1745 10.566-1.7496-0.85493-2.881-6.1008-1.9889-9.2219 0.25136-0.87942 0.66076-0.93786-3.8335 0.54718-4.7662 1.5749-4.563 1.5749-9.3292 0-4.4943-1.485-4.0855-1.4266-3.8311-0.54718 1.2969 4.4839-1.0021 10.411-3.5939 9.2654zm-8.6152-22.427c-0.33783-0.40706 2e-3 -0.93324 0.60338-0.93324 0.33397 0 0.47082 0.11972 0.51796 0.45311 0.10139 0.71714-0.65564 1.0413-1.1213 0.48013zm5.9666-0.36375c-0.26752-0.69712 0.50329-1.3128 1.0096-0.80644 0.42198 0.42198 0.15664 1.0912-0.43264 1.0912-0.25726 0-0.51692-0.12814-0.57701-0.28475zm32.081 0c-0.18022-0.46964 0.0796-0.85423 0.57701-0.85423 0.47668 0 0.82688 0.56303 0.58929 0.94745-0.18254 0.29536-1.0436 0.22654-1.1663-0.0932zm-33.732-0.0316c-0.23581-0.23581-0.12821-0.97118 0.15819-1.0811 0.60155-0.23084 1.1537 0.32133 0.92289 0.92288-0.1099 0.2864-0.84527 0.39401-1.0811 0.1582zm9.4385-0.52514c-0.20379-0.53107 0.0762-0.89674 0.63726-0.83221 0.41539 0.0478 0.52311 0.1579 0.52311 0.53475 0 0.571-0.96088 0.81732-1.1604 0.29746zm21.892 0.15348c-0.29402-0.29401-0.12715-0.9972 0.26627-1.1221 0.55922-0.17749 1.0952 0.36283 0.81046 0.81706-0.21914 0.34961-0.85267 0.52907-1.0767 0.30501zm-5.5131-0.19784c-0.37224-0.37223 3.8e-4 -1.2023 0.53981-1.2023 0.25712 0 0.61046 0.63236 0.52849 0.94582-0.0974 0.3723-0.78692 0.53783-1.0683 0.25644zm-5.9913-0.70362c-0.48176-0.58049 0.42066-1.4419 1.119-1.0681 0.42474 0.22732 0.49757 0.75532 0.15186 1.101-0.30656 0.30656-1.0041 0.28851-1.2709-0.0329zm-5.6369-0.37932c-0.21104-0.54994 4e-3 -0.97355 0.49408-0.97355 0.39786 0 0.47197 0.0894 0.47197 0.56949 0 0.63685-0.75547 0.95284-0.96605 0.40406zm8.5424-0.56949c-0.21103-0.54994 4e-3 -0.97355 0.49408-0.97355 0.39787 0 0.47198 0.0894 0.47198 0.56949 0 0.63685-0.75547 0.95283-0.96606 0.40406zm-17.738-0.60065c-0.34492-0.41559-0.0119-0.9424 0.59578-0.9424 0.37777 0 0.45389 0.0955 0.45389 0.5695 0 0.6667-0.62235 0.8878-1.0497 0.3729zm-5.7446-0.0169c-0.29401-0.29402-0.12715-0.99721 0.26627-1.1221 0.55923-0.1775 1.0952 0.36283 0.81047 0.81706-0.21914 0.3496-0.85268 0.52906-1.0767 0.30501zm32.779-0.15511c-0.178-0.46387 8e-3 -0.9524 0.39131-1.0262 0.50169-0.0966 0.90771 0.48493 0.66074 0.94639-0.22392 0.4184-0.90236 0.46984-1.052 0.0798zm-22.784-0.39076c-0.18041-0.47014 0.0797-0.85423 0.5786-0.85423 0.55969 0 0.74945 0.24639 0.58611 0.76102-0.1436 0.45245-1.0005 0.52104-1.1647 0.0932zm6.2687 0.0111c-0.2022-0.52693 0.0137-0.96024 0.4785-0.96024 0.59881 0 0.93801 0.52691 0.60079 0.93324-0.31165 0.37551-0.93952 0.39122-1.0793 0.027zm11.409-0.11407c-0.16372-0.51582 0.11165-0.80206 0.69253-0.71987 0.33545 0.0475 0.44901 0.18356 0.44901 0.53811 0 0.65299-0.94426 0.80333-1.1415 0.18176zm-25.651-0.0868c-0.17932-0.46728 0.0786-0.85423 0.56949-0.85423 0.25312 0 0.50939 0.12813 0.56949 0.28474 0.17931 0.46729-0.0787 0.85424-0.56949 0.85424-0.25313 0-0.5094-0.12814-0.56949-0.28475zm19.363-0.75932c-0.17931-0.46728 0.0787-0.85424 0.5695-0.85424 0.25312 0 0.50939 0.12814 0.56949 0.28475 0.17931 0.46728-0.0787 0.85424-0.56949 0.85424-0.25313 0-0.5094-0.12814-0.5695-0.28475zm-7.7737-0.16543c-0.21104-0.54994 4e-3 -0.97355 0.49408-0.97355 0.39786 0 0.47197 0.0894 0.47197 0.56949 0 0.63685-0.75547 0.95284-0.96605 0.40406zm13.051-0.28606c-0.44485-0.28197-0.18793-1.0599 0.37146-1.1248 0.60012-0.0696 0.86541 0.56623 0.42147 1.0102-0.32208 0.32208-0.43902 0.33899-0.79293 0.11466zm-2.8097-0.49766c-0.17931-0.46729 0.0787-0.85424 0.56949-0.85424 0.25313 0 0.5094 0.12814 0.5695 0.28475 0.17931 0.46728-0.0787 0.85423-0.5695 0.85423-0.25312 0-0.50939-0.12813-0.56949-0.28474zm-6.5862-0.4113c-0.23581-0.23581-0.12821-0.97118 0.15819-1.0811 0.49638-0.19048 0.85424 0.0854 0.85424 0.65845 0 0.53614-0.63419 0.80087-1.0124 0.42263zm-5.2576-0.35478c-0.34491-0.41559-0.0119-0.9424 0.59579-0.9424 0.37776 0 0.45389 0.0955 0.45389 0.5695 0 0.66671-0.62235 0.8878-1.0497 0.3729zm-5.1751-0.2067c-0.24234-0.24235-0.14099-0.97736 0.15019-1.0891 0.50732-0.19468 0.87854 0.0847 0.81705 0.61493-0.0567 0.48882-0.65786 0.78353-0.96724 0.47416zm13.611-0.1418c-0.21104-0.54995 4e-3 -0.97356 0.49408-0.97356 0.39786 0 0.47197 0.0894 0.47197 0.56949 0 0.63686-0.75547 0.95284-0.96605 0.40407zm-4.8162-1.9136c-0.36331-0.43776-0.15879-0.95136 0.40488-1.0168 0.37531-0.0436 0.53653 0.0437 0.63101 0.34132 0.23279 0.73346-0.55917 1.2499-1.0359 0.67545z" stroke-width=".18983"/>
 </g>
</svg>
