<?xml version="1.0" encoding="UTF-8"?>
<svg width="87.117" height="120" version="1.1" viewBox="0 0 87.117 120" xmlns="http://www.w3.org/2000/svg" xmlns:cc="http://creativecommons.org/ns#" xmlns:dc="http://purl.org/dc/elements/1.1/" xmlns:rdf="http://www.w3.org/1999/02/22-rdf-syntax-ns#">
 <metadata>
  <rdf:RDF>
   <cc:Work rdf:about="">
    <dc:format>image/svg+xml</dc:format>
    <dc:type rdf:resource="http://purl.org/dc/dcmitype/StillImage"/>
    <dc:title/>
   </cc:Work>
  </rdf:RDF>
 </metadata>
 <path d="m18.212 26.259 49.271-3.3882 3.2471 17.647-7.9059 27.529 0.14118 49.412-28.518-0.14117-13.271-64.094-5.0824-14.541z" fill="#fff"/>
 <g transform="translate(-112.76 -95.961)">
  <path d="m145.93 215.95-30.628-0.0498-0.53844-2.2482c-5.3414-22.302 0.2412-48.05 13.733-63.337 0.77513-0.87828 1.5621-1.8482 1.7489-2.1553l0.33957-0.55838-0.6238-1.3444c-2.82-6.0774-3.6236-13.393-2.1091-19.202 0.23461-0.89978 0.23095-0.92604-0.12956-0.92942-1.8574-0.0174-7.1226-0.74059-8.4074-1.1547-2.8787-0.92785-2.7203-3.7639 0.30203-5.4075 1.9006-1.0336 7.7314-2.7527 12.466-3.6756 1.7549-0.34205 1.7091-0.25352 3.7318-7.2114 2.0453-7.0357 2.0925-7.1218 4.6293-8.4351 7.1904-3.7227 24.447-5.6582 28.014-3.1421 0.20093 0.14173 2.1762 3.279 4.3894 6.9718l4.0241 6.7141h4.2872c18.97 0 19.96 5.3688 1.8011 9.7639l-0.47703 0.11546 0.50853 1.1334c3.38 7.5333 3.2705 16.718-0.28935 24.287l-0.8147 1.732 1.2541 1.3202c13.174 13.869 19.42 37.865 15.648 60.118-0.3806 2.2455-1.2685 6.4796-1.3766 6.5647-0.13945 0.10973-25.079 0.17253-51.482 0.12964zm12.727-28.797v-24.339l-2.4251-2e-3c-1.3338-1e-3 -2.6036-0.0503-2.8219-0.10876l-0.39683-0.10635v48.895h5.6438zm13.682 5.7268c3.1769-1.9554 3.0368-6.6281-0.24971-8.3246-4.0921-2.1123-8.4204 1.9834-6.5683 6.2152 1.0766 2.4599 4.5184 3.5247 6.818 2.1093zm-0.88184-16.226c3.1769-1.9554 3.0368-6.6281-0.24971-8.3245-4.0921-2.1123-8.4204 1.9834-6.5683 6.2152 1.0766 2.4599 4.5184 3.5247 6.818 2.1093zm-10.331-18.516c10.157-2.2087 18.197-10.284 19.559-19.645 0.0932-0.64027 0.26344-1.799 0.37836-2.5751 0.64283-4.3411-1.7811-14.776-3.3216-14.3-2.6212 0.81029-20.579 3.1977-28.609 3.8035-4.7718 0.35999-4.9172 0.14293 1.5432 2.3044l5.6879 1.903 8.6842-2.8961c9.1701-3.0581 9.5884-3.1583 10.284-2.4632 1.2807 1.2807 0.44407 2.0986-3.4472 3.37-1.6976 0.55467-3.1044 1.0219-3.1264 1.0384-0.0219 0.0164 0.11241 0.43074 0.29858 0.9207 1.7983 4.7326-0.14141 11.189-2.9494 9.8166-1.6255-0.7943-2.6766-5.6682-1.8478-8.5679 0.23353-0.81706 0.6139-0.87135-3.5617 0.50837-2.2526 0.74433-3.8288 1.1698-4.3338 1.1698s-2.0812-0.42542-4.3338-1.1698c-4.1756-1.3797-3.7952-1.3254-3.5617-0.50837 0.82881 2.8998-0.22233 7.7736-1.8478 8.5679-2.8026 1.3695-4.7478-5.0833-2.9549-9.8021 0.1892-0.49794 0.32604-0.91878 0.30409-0.9352-0.022-0.0164-1.4288-0.4867-3.1264-1.045s-3.2118-1.125-3.3649-1.2593c-0.30395-0.2665-2.1408-0.3269-4.0077-0.13177l-1.0751 0.11236-0.35467 1.519c-1.5075 6.4567-0.26 14.366 3.0354 19.244 5.7471 8.5076 16.563 13.084 26.049 11.021zm-8.4166-5.8718c-1.3413-0.0973-1.931-1.4699-1.0054-2.3403 0.55073-0.51794 6.0721-0.75106 6.9528-0.29356 0.89313 0.46396 1.0626 1.8776 0.28568 2.383-0.21804 0.14185-5.0529 0.33645-6.2331 0.25087z" stroke-width=".17637"/>
 </g>
</svg>
