<?xml version="1.0" encoding="UTF-8"?>
<svg width="87.117" height="120" version="1.1" viewBox="0 0 87.117 120" xmlns="http://www.w3.org/2000/svg" xmlns:cc="http://creativecommons.org/ns#" xmlns:dc="http://purl.org/dc/elements/1.1/" xmlns:rdf="http://www.w3.org/1999/02/22-rdf-syntax-ns#">
 <metadata>
  <rdf:RDF>
   <cc:Work rdf:about="">
    <dc:format>image/svg+xml</dc:format>
    <dc:type rdf:resource="http://purl.org/dc/dcmitype/StillImage"/>
    <dc:title/>
   </cc:Work>
  </rdf:RDF>
 </metadata>
 <g transform="translate(-112.76 -95.961)">
  <path d="m145.93 215.95-30.628-0.0498-0.53844-2.2482c-5.3414-22.302 0.2412-48.05 13.733-63.337 0.77513-0.87828 1.5621-1.8482 1.7489-2.1553l0.33957-0.55838-0.6238-1.3444c-2.82-6.0774-3.6236-13.393-2.1091-19.202 0.23461-0.89978 0.23095-0.92604-0.12956-0.92942-1.8574-0.0174-7.1226-0.74059-8.4074-1.1547-2.8787-0.92785-2.7203-3.7639 0.30203-5.4075 1.9006-1.0336 7.7314-2.7527 12.466-3.6756 1.7549-0.34205 1.7091-0.25352 3.7318-7.2114 2.0453-7.0357 2.0925-7.1218 4.6293-8.4351 7.1904-3.7227 24.447-5.6582 28.014-3.1421 0.20093 0.14173 2.1762 3.279 4.3894 6.9718l4.0241 6.7141h4.2872c18.97 0 19.96 5.3688 1.8011 9.7639l-0.47703 0.11546 0.50853 1.1334c3.38 7.5333 3.2705 16.718-0.28935 24.287l-0.8147 1.732 1.2541 1.3202c13.174 13.869 19.42 37.865 15.648 60.118-0.3806 2.2455-1.2685 6.4796-1.3766 6.5647-0.13945 0.10973-25.079 0.17253-51.482 0.12964zm12.727-28.797v-24.339l-2.4251-2e-3c-1.3338-1e-3 -2.6036-0.0503-2.8219-0.10876l-0.39683-0.10635v48.895h5.6438zm13.682 5.7268c3.1769-1.9554 3.0368-6.6281-0.24971-8.3246-4.0921-2.1123-8.4204 1.9834-6.5683 6.2152 1.0766 2.4599 4.5184 3.5247 6.818 2.1093zm-0.88184-16.226c3.1769-1.9554 3.0368-6.6281-0.24971-8.3245-4.0921-2.1123-8.4204 1.9834-6.5683 6.2152 1.0766 2.4599 4.5184 3.5247 6.818 2.1093zm-10.331-18.516c10.157-2.2087 18.197-10.284 19.559-19.645 0.0932-0.64027 0.26344-1.799 0.37836-2.5751 0.64283-4.3411-1.7811-14.776-3.3216-14.3-2.6212 0.81029-20.579 3.1977-28.609 3.8035-4.7718 0.35999-4.9172 0.14293 1.5432 2.3044l5.6879 1.903 8.6842-2.8961c9.1701-3.0581 9.5884-3.1583 10.284-2.4632 1.2807 1.2807 0.44407 2.0986-3.4472 3.37-1.6976 0.55467-3.1044 1.0219-3.1264 1.0384-0.0219 0.0164 0.11241 0.43074 0.29858 0.9207 1.7983 4.7326-0.14141 11.189-2.9494 9.8166-1.6255-0.7943-2.6766-5.6682-1.8478-8.5679 0.23353-0.81706 0.6139-0.87135-3.5617 0.50837-2.2526 0.74433-3.8288 1.1698-4.3338 1.1698s-2.0812-0.42542-4.3338-1.1698c-4.1756-1.3797-3.7952-1.3254-3.5617-0.50837 0.82881 2.8998-0.22233 7.7736-1.8478 8.5679-2.8026 1.3695-4.7478-5.0833-2.9549-9.8021 0.1892-0.49794 0.32604-0.91878 0.30409-0.9352-0.022-0.0164-1.4288-0.4867-3.1264-1.045s-3.2118-1.125-3.3649-1.2593c-0.30395-0.2665-2.1408-0.3269-4.0077-0.13177l-1.0751 0.11236-0.35467 1.519c-1.5075 6.4567-0.26 14.366 3.0354 19.244 5.7471 8.5076 16.563 13.084 26.049 11.021zm-8.4166-5.8718c-1.3413-0.0973-1.931-1.4699-1.0054-2.3403 0.55073-0.51794 6.0721-0.75106 6.9528-0.29356 0.89313 0.46396 1.0626 1.8776 0.28568 2.383-0.21804 0.14185-5.0529 0.33645-6.2331 0.25087z" stroke-width=".17637"/>
  <g fill="#fff" stroke-width=".18716">
   <path d="m153.09 187.07-3.6e-4 -24.284 5.4282 0.1128v48.455h-5.4276z"/>
   <path d="m168.62 193.22c-2.8703-0.87309-4.1963-3.8906-2.8749-6.5423 0.92866-1.8636 3.1427-2.944 5.0594-2.4689 1.867 0.46277 3.2444 1.8618 3.6216 3.6786 0.56809 2.7365-1.6718 5.5376-4.391 5.4914-0.52021-9e-3 -1.1569-0.0803-1.4149-0.15878z"/>
   <path d="m167.03 176.66c-3.0501-1.4419-3.6309-5.3747-1.1194-7.5798 0.97176-0.85321 1.7464-1.1453 3.0318-1.1431 4.2452 7e-3 6.2685 5.0523 3.2041 7.9897-1.3129 1.2585-3.379 1.5546-5.1165 0.73317z"/>
   <path d="m153.84 158.38c-5.8903-0.75605-11.262-3.3836-15.453-7.5584-3.5868-3.5733-5.2728-6.7187-6.3853-11.913-0.48013-2.2417-0.47746-8.0024 5e-3 -10.381 0.18975-0.93591 0.40433-1.7976 0.47683-1.915 0.0754-0.12205 0.9389-0.26619 2.0183-0.33692l1.8864-0.12363 3.4827 1.2432c1.9155 0.68373 3.578 1.2432 3.6944 1.2432 0.22959 0 0.19737 0.22259-0.28449 1.9652-0.35894 1.298-0.42106 4.227-0.11824 5.5751 0.48365 2.153 1.5477 3.5021 2.7622 3.5021 0.94087 0 1.7962-0.95232 2.3184-2.5814 0.48303-1.5067 0.70799-5.0995 0.37849-6.0447-0.11607-0.33295-0.18836-0.62805-0.16063-0.65577 0.0277-0.0277 1.522 0.41338 3.3207 0.98023s3.6608 1.0769 4.138 1.1334c0.90673 0.10739 3.0515-0.41928 6.6084-1.6228 0.9184-0.31073 1.6978-0.53696 1.7321-0.50273 0.0342 0.0342-0.0327 0.33466-0.1488 0.66761-0.3295 0.94522-0.10454 4.538 0.37849 6.0447 0.52227 1.6291 1.3776 2.5814 2.3184 2.5814 1.2104 0 2.2796-1.3505 2.7575-3.4832 0.3004-1.3404 0.23939-4.3055-0.11511-5.5939-0.16992-0.61763-0.34694-1.2926-0.39337-1.4999-0.0741-0.33078 0.15205-0.45395 1.8473-1.0062 2.2056-0.71847 4.1921-1.5753 4.6838-2.0204 0.6343-0.57404 0.3537-1.6107-0.56904-2.1023-0.66713-0.35543-2.1426 0.0444-10.891 2.9516l-7.7724 2.5828-4.8836-1.6292c-2.686-0.89605-5.0406-1.717-5.2325-1.8244-0.32228-0.18036-0.31341-0.20233 0.11639-0.28842 0.25589-0.0513 2.1497-0.23228 4.2084-0.40228 6.6982-0.55313 20.622-2.3497 25.421-3.28 1.6946-0.3285 1.9131-0.33619 2.1991-0.0774 0.83075 0.75181 1.9658 4.3923 2.513 8.0602 0.76361 5.1182-0.014 10.402-2.1654 14.713-4.4621 8.9421-15.144 14.825-24.693 13.599zm3.6106-6.1308c1.8203-0.13898 1.9966-0.2582 2.0013-1.3532 6e-3 -1.4245-1.4419-1.83-5.3095-1.4868-2.388 0.21189-2.9226 0.46357-2.9226 1.3759 0 0.66368 0.25106 1.0828 0.84222 1.4062 0.41314 0.22597 2.845 0.2521 5.3886 0.0579z"/>
  </g>
 </g>
</svg>
