<?xml version="1.0" encoding="UTF-8"?>
<svg width="67.959" height="120" version="1.1" viewBox="0 0 67.959 120" xmlns="http://www.w3.org/2000/svg" xmlns:cc="http://creativecommons.org/ns#" xmlns:dc="http://purl.org/dc/elements/1.1/" xmlns:rdf="http://www.w3.org/1999/02/22-rdf-syntax-ns#">
 <metadata>
  <rdf:RDF>
   <cc:Work rdf:about="">
    <dc:format>image/svg+xml</dc:format>
    <dc:type rdf:resource="http://purl.org/dc/dcmitype/StillImage"/>
    <dc:title/>
   </cc:Work>
  </rdf:RDF>
 </metadata>
 <g transform="translate(-109.81 -49.742)">
  <path d="m128.63 169.41c0.041-0.18533 0.58372-3.9762 1.2061-8.4243 1.3703-9.7929 3.7259-26.52 5.2452-37.246 0.61483-4.3405 1.1179-7.9966 1.1179-8.1247 0-0.20384-0.42533-0.23311-3.4072-0.23444l-3.4071-2e-3 -0.24134-0.575-0.24135-0.57499-1.1814-0.10577c-7.5033-0.67175-15.454-5.8864-11.327-7.4288 3.2376-1.2098 4.1124-3.3366 3.6268-8.8173l-0.18343-2.0702-1.057 0.2775c-2.2706 0.59612-3.6981 0.29417-3.6981-0.78218 0-0.48362 0.071-0.56338 1.4449-1.6232 2.7168-2.0958 3.7464-5.526 3.0662-10.216-0.32708-2.2557-0.40992-5.0191-0.18014-6.0086l0.13042-0.56162-0.92026-5.99e-4c-1.2554-7.49e-4 -3.4193-0.36778-4.8687-0.82564-4.643-1.4667-5.297-3.9712-1.3682-5.2394 4.6718-1.5081 7.2744-3.8935 9.7636-8.9485 3.9884-8.0998 8.6302-10.104 13.849-5.9787l0.75925 0.60015 0.0821-1.2981c0.3065-4.8475 1.6816-6.2225 3.2925-3.2923 0.54435 0.99017 0.98752 1.2622 2.8844 1.7705l1.1417 0.30596 1.3424-1.2636c6.38-6.0059 17.747-2.4888 21.585 6.6785 0.96471 2.3046 1.2161 3.7182 1.9121 10.752 0.74935 7.5734 0.84576 7.9713 2.9603 12.218 0.57071 1.1463 1.2164 2.3463 1.4348 2.6667 1.0285 1.5087 0.25145 3.0071-1.5117 2.9149l-1.011-0.05284-0.34058 2.546c-0.80352 6.0066-0.0952 11.315 1.5779 11.825 0.4526 0.13796 1.3477-0.17028 1.4524-0.50016 0.46263-1.4576 2.0472-1.1469 2.4944 0.48914 0.70371 2.5748-0.73953 4.9404-3.2216 5.2806-0.89826 0.12312-1.0503 0.24116-0.92975 0.72162 0.2221 0.8849 1.5352 1.012 3.7382 0.36177 4.8244-1.4239 0.64286 5.6467-4.5158 7.6357-2.903 1.1193-6.3424 1.6075-7.9829 1.1332-0.2109-0.061-0.19995 0.12782 0.0938 1.6185 0.46645 2.3669 0.78559 4.4903 1.0415 6.9293 0.12099 1.1532 0.28769 2.5685 0.37046 3.1451 0.0828 0.57659 0.21769 1.5247 0.29982 2.107 0.30075 2.1323 0.37309 17.205 0.0974 20.283-0.29282 3.2687-0.61861 7.2808-0.8452 10.409-0.0895 1.2356-0.25996 3.2237-0.37877 4.4181-0.11882 1.1944-0.21593 2.458-0.2158 2.8081l2.2e-4 0.63649h-35.051zm29.135-39.96c0-1.5246 0.14306-1.9371 0.67177-1.9371 0.54636 0 0.65674 0.37164 0.56535 1.9035l-0.083 1.3913h0.77764c1.5914 0 1.6742-0.29031 1.1241-3.9375-1.1795-7.819-2.6536-9.0874-3.9436-3.3934-0.32562 1.4373-0.80418 3.3883-1.0635 4.3356s-0.50577 1.8673-0.54776 2.0446c-0.14224 0.60061 0.41951 0.95069 1.5255 0.95069h0.97347zm-5.1785 0.99781c0.67147-0.28056 0.79453-0.72704 0.92028-3.339l0.10237-2.1264 0.46794-0.0988c1.4189-0.29965 1.7081-3.9993 0.33945-4.3428-0.36391-0.0913-3.1084 0.14683-4.1261 0.35807-1.5326 0.31809-1.723 4.024-0.2212 4.3058l0.54355 0.10197-0.10609 2.3412c-0.098 2.1613-0.085 2.3596 0.16895 2.5812 0.53813 0.46964 1.1443 0.53904 1.9109 0.21875zm-12.39-0.96424c1.7886-0.91246 2.6547-3.0425 1.8487-4.5464l-0.29452-0.54951 0.4022-0.71961c1.2582-2.2512-1.6124-5.4884-3.3373-3.7635-0.20749 0.20749-1.0093 9.8869-0.82831 9.9988 0.2633 0.16272 1.5447-0.0808 2.2093-0.41983zm5.3489-0.0734c1.3422-0.36811 1.648-0.66191 1.802-1.7315l0.0947-0.65798-0.76074 0.0901c-0.99093 0.11736-1.4961-0.0725-1.4961-0.56235 0-0.49143 0.39128-0.68291 1.3955-0.68291 0.94301 0 0.99528-0.0803 0.99873-1.5351l2e-3 -0.86115h-1.2702c-1.2498 0-1.2717-6e-3 -1.37-0.39771-0.14981-0.59687 0.2432-0.8004 1.5455-0.8004h1.0946l-2e-3 -0.48674c-9e-3 -1.9456-3.7169-1.6703-4.02 0.29841-1.181 7.6716-1.0487 8.1596 1.9862 7.3273zm23.003-14.547c2.5278-0.69678 4.3972-1.7787 5.5128-3.1905l0.44157-0.55883h-1.2175c-1.9443 0-3.3282-1.0774-3.6217-2.8198-0.0609-0.36161-0.2549-0.76376-0.46048-0.95464-1.0687-0.99226-0.26685-1.8418 1.7384-1.8418 1.7674 0 2.5928-0.25913 2.9353-0.92154l0.22501-0.43512-0.41797 0.11671c-4.9641 1.3862-6.7533-4.7935-4.8968-16.913 0.0827-0.54002 0.0618-0.5706-0.74083-1.0841-0.45428-0.2906-0.86809-0.59653-0.91959-0.67986-0.3171-0.51307-0.37549 0.22348-0.37549 4.7362v4.8877l-3.819 6.0436c-2.1004 3.324-3.819 6.0816-3.819 6.128 0 0.0464 0.45086 0.90415 1.0019 1.9061 0.68843 1.2518 1.1947 2.4324 1.6181 3.7735l0.61617 1.9518 0.66585 0.1849c1.0825 0.30061 3.844 0.13619 5.5332-0.32945zm-16.572-3.1128c0.27344-0.43244 2.8336-4.5347 5.6892-9.1161l5.192-8.3298-1e-3 -3.4267-1e-3 -3.4267-0.35025 0.74882c-1.3788 2.9478-5.6671 4.1535-10.488 2.9489-3.8548-0.96322-5.0572-2.016-5.4329-4.7569l-0.0876-0.63889-0.92961-0.16188c-2.2597-0.39352-3.6756-0.13901-3.6756 0.6607 0 4.9851-9.8031 7.5345-14.565 3.7876l-0.56161-0.44195v10.346l5.7314 12.593h18.984zm-12.075-5.3583c-2.02-0.5096-3.126-2.2151-3.2268-4.9764-0.0962-2.6322 0.29122-2.8095 8.25-3.7747 1.0508-0.12745 2.317-0.37235 2.8136-0.54423 1.8498-0.64015 2.2928 1.0054 1.2086 4.4889-1.0375 3.3334-5.4952 5.7021-9.0454 4.8065zm0.41447-3.8073c1.92-0.85312 3.6619-1.3514 5.5446-1.5859 1.6886-0.21035 1.7158-0.23066 1.719-1.283l2e-3 -0.76466-1.0858 0.18643c-0.59718 0.10254-1.5912 0.23375-2.209 0.29158-1.2879 0.12057-4.4128 0.6186-5.3541 0.85329l-0.6365 0.15871v0.82599c0 0.80149 0.25826 1.984 0.43331 1.984 0.0475 0 0.76132-0.2999 1.5863-0.66645zm-12.601 8.7912c-0.1279-0.30889-1.3376-3.2054-2.6881-6.4368l-2.4556-5.8751v-22.341l-0.40915 0.04739c-0.86485 0.10017-0.99674 2.9411-0.33593 7.2361 0.54659 3.5526-0.015 6.3995-1.7345 8.7929l-0.53546 0.74532 0.44364-0.09744c1.3452-0.29545 1.7389 0.32026 2.0436 3.1962 0.69339 6.5431-0.30977 9.8329-3.4967 11.467l-0.50501 0.259 0.72965 0.52859c1.7523 1.2694 6.6886 2.9737 8.7719 3.0285l0.40421 0.0106zm8.2433-22.789c3.121-0.74176 3.1646-0.80493 3.154-4.5752-0.0111-3.9649-0.0477-4.0197-2.9873-4.476-1.8175-0.2821-6.9582-0.47382-7.7878-0.29044l-0.59905 0.13243v0.96643c0 8.1874 1.6196 9.8114 8.2201 8.2427zm-3.3213-0.98268c-2.1325-1.7944-1.4782-7.7122 0.85303-7.7158 1.8343-0.0028 3.0212 4.7075 1.7596 6.9834-0.64557 1.1646-1.7358 1.4702-2.6126 0.73238zm23.899 1.2643c3.5133-0.57013 3.9548-1.3517 4.1531-7.3506l0.0773-2.3388-0.56411-0.09324c-2.1166-0.34982-9.1951 0.26218-10.164 0.87875-0.74334 0.47311-1.1042 5.9104-0.46941 7.072 0.42323 0.77442 3.2099 1.7176 5.8008 1.9633 0.12355 0.01173 0.64833-0.04745 1.1662-0.13148zm-2.8572-1.4271c-1.5306-1.5306-1.1705-6.3681 0.55214-7.4186 2.5974-1.5838 4.0638 4.6066 1.7228 7.2729-0.61242 0.69751-1.6563 0.76438-2.2749 0.14572zm-7.145-4.8554c0-4.6651 2.0806-5.9953 9.7721-6.2473 1.5444-0.05061 2.8081-0.12299 2.8081-0.16084 0-0.29902-3.1554-4.2431-4.9103-6.1376-1.937-2.0911-3.2961-2.8799-5.1568-2.9931l-1.0904-0.06631-0.65052 1.288c-1.5067 2.9832-4.627 6.3531-7.707 8.3236l-1.0191 0.65197 0.70739 0.26852c1.6008 0.60764 2.5239 2.3861 2.5991 5.0072 5e-3 0.16777 4.6473 0.23357 4.6473 0.06587zm21.417-1.2379c-1.1175-2.386-1.4394-4.028-2.092-10.671-0.53286-5.4246-0.67259-6.4737-1.0763-8.0806-2.2026-8.7674-11.83-12.607-17.649-7.0394-1.7688 1.6926-2.2428 1.825-3.258 0.90988-0.38999-0.35152-0.86006-0.58092-1.5355-0.74933-0.53541-0.1335-1.4927-0.49764-2.1274-0.8092l-1.1539-0.56647-0.1009 0.80762c-0.0988 0.79099-0.0141 2.9274 0.17746 4.4754 0.26997 2.1815-1.5062 2.2807-3.5398 0.19774-4.3776-4.484-7.1453-3.551-10.651 3.5907-2.4128 4.9155-4.5828 7.2166-8.7012 9.227-1.0801 0.52723-1.0746 0.5857 0.0749 0.79996 6.8473 1.2763 12.874-1.4441 15.604-7.0431 1.2408-2.5452 1.8742-3.0808 2.9766-2.517 1.0962 0.5606 1.1013 1.3599 0.0235 3.6538-0.45531 0.96901-0.80272 1.787-0.77201 1.8177 0.0785 0.0785 2.8559-0.65413 3.4998-0.9232 1.6908-0.70644 2.2416 0.23189 2.1119 3.5976-0.0838 2.1759-0.18599 2.1432 1.584 0.50689 1.659-1.5338 3.0563-3.4134 4.2421-5.7064 1.4226-2.7508 1.6566-2.9639 3.2556-2.9639 4.0501 0 7.4636 2.7786 12.905 10.505 2.43 3.4502 6.3406 8.2155 6.742 8.2155 0.0209 0-0.22235-0.556-0.54064-1.2356zm-30.793-4.8689c-0.0455-0.22739 0.0198-0.98557 0.14496-1.6849 0.25341-1.4153 0.47415-4.0421 0.33969-4.0421-0.0476 0-0.74559 0.16778-1.551 0.37284-0.8054 0.20506-2.0372 0.45338-2.7374 0.55183-1.2552 0.17649-1.2879 0.19195-2.3362 1.1058-1.0912 0.95119-2.0865 1.6354-3.4672 2.3836-0.68709 0.37232-0.78626 0.48446-0.78619 0.889l8e-5 0.46293 4.1559 0.01903c2.2857 0.01047 4.4929 0.08678 4.9047 0.16959 1.3117 0.26373 1.4269 0.24405 1.3326-0.22764z" stroke-width=".14976"/>
  <g fill="#fff" stroke-width=".16915">
   <path d="m143.42 129.43c-0.58054-0.36808-0.56395-2.2532 0.054-6.139 0.26702-1.679 0.46232-2.071 1.2085-2.425 1.1994-0.56915 2.7669-0.083 2.7669 0.85806 0 0.37469-0.0702 0.41206-0.80344 0.42745-1.326 0.0278-1.6418 0.17502-1.7022 0.79323l-0.053 0.54307h2.5586v1.0049c0 1.1505-0.0788 1.2362-1.2511 1.3601-0.93824 0.0992-1.3284 0.47464-1.014 0.9756 0.13368 0.21298 0.45368 0.31024 1.1409 0.34674 0.82537 0.0438 0.95508 0.0967 0.95508 0.38898 0 0.56989-0.46636 1.2792-0.96461 1.4671-1.4912 0.56243-2.433 0.69214-2.8957 0.39878z"/>
   <path d="m138.09 129.79c-0.10231-0.16775 0.14949-3.9394 0.48309-7.2362 0.29568-2.9221 0.3955-3.0976 1.6854-2.964 0.89465 0.0927 2.1143 1.6933 2.1143 2.7746 0 0.25574-0.15824 0.8328-0.35164 1.2824-0.3282 0.76292-0.33384 0.85181-0.0846 1.3338 0.7836 1.5153-0.2307 3.7852-2.0164 4.5124-0.70852 0.28854-1.7339 0.45493-1.8302 0.297z"/>
   <path d="m150.93 130.23-0.45651-0.35909 0.11785-2.3216 0.11785-2.3216-0.5226-0.10452c-0.95824-0.19164-1.3457-1.7246-0.7881-3.1181 0.34045-0.85086 0.64327-1.0111 2.3051-1.2194 2.4307-0.30479 2.8042-0.26106 3.1912 0.37362 0.74104 1.2154 0.0405 3.6789-1.0462 3.6789-0.2063 0-0.31014 0.12634-0.31282 0.38058-0.0135 1.2776-0.33844 4.3855-0.48777 4.6645-0.16529 0.30885-0.98411 0.70584-1.4558 0.70584-0.11312 0-0.4111-0.16159-0.66218-0.35909z"/>
   <path d="m155.86 130.56c-0.25584-0.0934-0.46495-0.29675-0.46471-0.4518 1e-3 -0.63009 2.0614-8.4555 2.4124-9.1621 0.48521-0.97689 0.90674-1.0056 1.4167-0.0966 0.94229 1.6799 2.1215 8.7239 1.5986 9.5496-0.0817 0.12899-0.52512 0.27071-0.98541 0.31494l-0.83688 0.0804 0.0779-1.3455c0.0844-1.4573-0.10156-2.0753-0.62432-2.0753-0.50644 0-0.64446 0.34066-0.77099 1.9029l-0.11987 1.48-0.61911-0.0134c-0.34051-7e-3 -0.82843-0.0898-1.0843-0.18324z"/>
   <path d="m132.33 111.94c-0.129-0.30235-1.424-3.1522-2.8778-6.333l-2.6432-5.7833v-10.003l0.88802 0.58887c1.4241 0.94436 2.6493 1.2953 4.8816 1.3983 2.2532 0.10391 3.9497-0.18628 5.6478-0.9661 2.1641-0.99384 3.2104-2.1062 3.6387-3.8685 0.2619-1.0777 0.30058-1.1331 0.93898-1.3456 0.51848-0.1726 0.9619-0.18196 2.0036-0.04229 0.73578 0.09865 1.3932 0.17936 1.4608 0.17936 0.0677 0 0.17526 0.36155 0.23907 0.80344 0.35455 2.4553 1.639 3.6108 5.0384 4.5323 4.7594 1.2902 9.0589 0.31686 10.812-2.4478l0.479-0.75531-1e-3 3.12-1e-3 3.12-11.415 18.34-18.855 0.012zm11.833-5.7653c2.0245-0.72568 3.6636-2.0938 4.4694-3.7305 0.61631-1.2519 1.1049-3.527 0.94286-4.3905-0.23078-1.2302-0.46235-1.279-3.4835-0.73498-0.79076 0.14239-2.6454 0.42402-4.1215 0.62583-3.234 0.44216-4.2388 0.72141-4.8711 1.3537-0.44666 0.44666-0.47961 0.57244-0.47961 1.8307 0 1.4973 0.40078 3.056 1.0034 3.9023 0.51827 0.72784 1.7194 1.3872 2.7653 1.5179 1.0794 0.13493 2.8415-0.0398 3.7748-0.37436z"/>
   <path d="m138.59 102.79c-0.16119-0.67987-0.32225-2.3156-0.22801-2.3156 0.0511 0 0.62471-0.11185 1.2746-0.24855 0.94396-0.19857 7.2562-1.1046 7.6956-1.1046 0.0603 0 0.10972 0.30178 0.10972 0.67063 0 0.82862-0.1451 0.91337-2.0257 1.1831-1.572 0.22551-3.4882 0.78482-5.0207 1.4655-1.7236 0.76556-1.7075 0.76244-1.8054 0.34945z"/>
   <path d="m162.77 115.06c-0.21621-0.0923-0.54579-0.78555-1.0248-2.1556-0.38835-1.1108-1.1012-2.786-1.5842-3.7228-0.48294-0.93676-0.87808-1.758-0.87808-1.825 0-0.067 1.6936-2.8019 3.7635-6.0775l3.7635-5.9557 0.1692-9.722 0.84573 0.64381c0.52904 0.40273 0.83968 0.76619 0.82957 0.97063-9e-3 0.17975-0.15043 1.4686-0.31453 2.864-0.34224 2.9103-0.39601 7.5856-0.10602 9.2185 0.6599 3.7157 2.2447 5.4653 4.6903 5.1778 0.85719-0.10075 0.93149-0.085 0.73217 0.15516-0.40443 0.48731-0.9111 0.64596-2.4486 0.76669-2.4621 0.19334-3.023 0.66093-2.2065 1.8392 0.24493 0.35345 0.5255 0.93817 0.62349 1.2994 0.46333 1.7081 1.7284 2.602 3.6825 2.602h1.1028l-0.91905 0.9306c-1.0674 1.0808-2.8926 2.0922-4.7404 2.6268-1.344 0.3888-5.3511 0.63277-5.9805 0.36412z"/>
   <path d="m166.56 80.402c-0.766-0.91212-2.4116-3.0285-3.6569-4.703-4.0385-5.4305-4.6866-6.2308-6.5748-8.119-2.8148-2.8148-4.5876-3.7068-7.3861-3.7162-1.8272-0.0062-1.9088 0.06002-3.349 2.7177-1.3264 2.4476-2.6322 4.1998-4.3368 5.8192l-1.3352 1.2686-0.0846-2.291c-0.12553-3.4005-0.39089-3.6443-3.0446-2.7967-0.69772 0.22284-1.5503 0.45798-1.8946 0.52254l-0.62596 0.11737 0.69689-1.5792c0.38329-0.86858 0.73042-1.9282 0.7714-2.3546 0.0678-0.70609 0.0263-0.81594-0.46449-1.2289-0.63365-0.53318-1.3187-0.58219-1.8872-0.13501-0.22271 0.17519-0.89899 1.2137-1.5028 2.3077-2.2316 4.0433-5.1418 6.267-9.3062 7.1108-1.0806 0.21896-1.9306 0.26346-3.7014 0.1938-1.2642-0.04974-2.517-0.15707-2.784-0.23851-0.47236-0.14412-0.44313-0.17213 1.0919-1.0467 3.7122-2.115 5.1627-3.7296 7.7662-8.6456 1.5602-2.9461 2.5129-4.3691 3.5553-5.3109 1.9619-1.7725 3.7147-1.4404 6.6578 1.2613 1.9894 1.8263 3.062 2.2632 3.7336 1.521 0.27064-0.29906 0.28697-0.58703 0.17594-3.1039-0.0673-1.5259-0.0725-2.9315-0.0115-3.1237 0.10834-0.34136 0.13879-0.3365 1.3303 0.21219 0.67068 0.30885 1.5312 0.64476 1.9122 0.74646 0.38104 0.1017 0.98996 0.39896 1.3532 0.66057 0.36321 0.26161 0.79783 0.52748 0.96583 0.59083 0.48089 0.18132 1.2886-0.25845 2.57-1.3993 1.9668-1.751 3.9304-2.5521 6.2662-2.5562 0.7485-0.0013 1.7241 0.07899 2.168 0.17848 3.4411 0.77116 6.6375 3.4926 8.2317 7.0086 0.92311 2.0359 1.2331 3.6875 1.8601 9.9111 0.65482 6.4997 1.0665 8.7803 1.9427 10.761 0.23389 0.52889 0.39476 0.99212 0.35747 1.0294-0.0373 0.03729-0.69452-0.67848-1.4605-1.5906z"/>
   <path d="m141.96 82.169c-0.0424-0.20932-0.12342-0.71986-0.17998-1.1345-0.21961-1.6101-1.1328-3.0069-2.3209-3.5499l-0.62636-0.2863 1.0492-0.69276c3.0308-2.0011 6.2769-5.5945 7.6185-8.4336l0.48004-1.0158 1.2024 0.12848c2.119 0.22642 3.4761 1.1744 6.1002 4.2613 1.8299 2.1526 3.6933 4.5323 3.6124 4.6132-0.0301 0.03011-1.4377 0.1337-3.1279 0.23019-4.4645 0.25486-6.3049 0.67786-7.7522 1.7818-0.75525 0.57605-1.3833 1.9544-1.5205 3.337l-0.11329 1.1417h-2.1723c-2.1172 0-2.1743-0.0097-2.2495-0.38058z"/>
   <path d="m154.1 88.72c-2.5093-0.44164-4.3578-1.279-4.5808-2.075-0.23984-0.85645-0.11541-4.6205 0.18692-5.6546 0.26096-0.89256 0.33122-0.97976 0.91392-1.1342 1.8459-0.48938 7.1636-0.93558 8.9584-0.75169l1.0604 0.10864-3e-3 1.2875c-4e-3 2.0946-0.3068 5.1382-0.59048 5.9423-0.45807 1.2983-1.1831 1.8605-2.7898 2.1631-1.6987 0.31997-1.9367 0.32856-3.156 0.11396zm1.4616-1.0102c0.32424-0.16767 0.67187-0.62632 1.0372-1.3685 0.50007-1.0158 0.54922-1.2557 0.54594-2.6656-3e-3 -1.2391-0.0815-1.7283-0.39254-2.4435-0.89728-2.0629-2.5087-2.1029-3.4951-0.0868-0.39481 0.80696-0.48532 1.2404-0.53919 2.5823-0.0794 1.9785 0.15299 2.9276 0.89969 3.6743 0.62227 0.62226 1.1686 0.70874 1.944 0.30775z"/>
   <path d="m130.43 88.669c-0.88221-0.41602-1.6463-1.3469-1.9971-2.4331-0.37779-1.1698-0.64492-3.6421-0.58103-5.3777l0.0529-1.4377 0.84573-0.08457c1.4218-0.14218 6.6895 0.1252 8.0292 0.40756 0.8876 0.18708 1.3907 0.39352 1.6915 0.69406 0.41579 0.4155 0.42975 0.50399 0.48623 3.0824 0.0642 2.93-0.0845 3.7782-0.73751 4.2061-0.74932 0.49097-3.4652 1.0943-5.3253 1.183-1.515 0.07225-1.8772 0.03698-2.4646-0.23999zm4.2576-0.95918c1.025-0.6624 1.4129-3.5041 0.76803-5.6272-0.42624-1.4033-1.1548-2.2393-1.9515-2.2393-1.0746 0-1.7838 0.95598-2.1315 2.8732-0.62108 3.4251 1.2891 6.3024 3.3149 4.9933z"/>
   <path d="m135.61 76.623c-0.51167-0.07073-2.7053-0.13613-4.8747-0.14533l-3.9444-0.01673 0.0541-0.37394c0.0376-0.26038 0.46499-0.62458 1.4072-1.1993 0.74424-0.45392 1.9101-1.2846 2.5907-1.846l1.2376-1.0207 2.3145-0.46584c1.273-0.25621 2.531-0.5232 2.7955-0.59331l0.48101-0.12747-0.11418 1.164c-0.0628 0.64023-0.18353 1.6207-0.26829 2.1789-0.0848 0.55818-0.1547 1.3764-0.1554 1.8183-1e-3 0.89326 0.0997 0.85161-1.5236 0.62721z"/>
   <path d="m125.2 111.39c-2.5149-0.66278-4.4359-1.4145-5.9624-2.333-0.48841-0.29391-0.88801-0.58039-0.88801-0.63664 0-0.0562 0.29366-0.26731 0.65258-0.46903 1.543-0.86722 2.7072-2.7076 3.0849-4.8768 0.25438-1.4607 0.0981-6.8673-0.23759-8.221-0.30427-1.2269-0.49694-1.4521-1.2967-1.5157l-0.64591-0.05137 0.66455-1.0969c1.3901-2.2945 1.7684-4.905 1.2616-8.7066-0.32405-2.4306-0.35257-5.5857-0.0558-6.1675 0.61316-1.2018 0.63181-0.89058 0.63181 10.545v11.094l5.3778 12.854-0.5323-8e-3c-0.29276-5e-3 -1.2173-0.18885-2.0546-0.40951z"/>
  </g>
 </g>
</svg>
