<?xml version="1.0" encoding="UTF-8"?>
<svg width="67.959" height="120" version="1.1" viewBox="0 0 67.959 120" xmlns="http://www.w3.org/2000/svg" xmlns:cc="http://creativecommons.org/ns#" xmlns:dc="http://purl.org/dc/elements/1.1/" xmlns:rdf="http://www.w3.org/1999/02/22-rdf-syntax-ns#">
 <metadata>
  <rdf:RDF>
   <cc:Work rdf:about="">
    <dc:format>image/svg+xml</dc:format>
    <dc:type rdf:resource="http://purl.org/dc/dcmitype/StillImage"/>
    <dc:title/>
   </cc:Work>
  </rdf:RDF>
 </metadata>
 <path d="m26.329 82.165 26.329-0.07059-0.98824-16.165 6.9882 0.70588 7.5529-5.2235-4.8-1.9059-0.42353-2.6118 3.8824-1.2706v-2.6824l-4.1647-0.28235-1.4118-6.2118 1.2-14.118-3.5294-18.776-5.5059-10.094-9.5294-1.4118-7.1294 3.3882-4.7294-2.1882-2.3294 1.2-0.42353 3.1765-9.0353-1.6235-11.224 14.753-3.2471 3.3176 6.6353 2.4 0.28235 12.141-2.1176 5.9294 2.1213 0.25274-0.14483 10.759-3.5294 3.1059 7.5529 4.2353 12.918 1.2706z" fill="#fff"/>
 <g transform="translate(-109.81 -49.742)">
  <path d="m128.63 169.41c0.041-0.18533 0.58372-3.9762 1.2061-8.4243 1.3703-9.7929 3.7259-26.52 5.2452-37.246 0.61483-4.3405 1.1179-7.9966 1.1179-8.1247 0-0.20384-0.42533-0.23311-3.4072-0.23444l-3.4071-2e-3 -0.24134-0.575-0.24135-0.57499-1.1814-0.10577c-7.5033-0.67175-15.454-5.8864-11.327-7.4288 3.2376-1.2098 4.1124-3.3366 3.6268-8.8173l-0.18343-2.0702-1.057 0.2775c-2.2706 0.59612-3.6981 0.29417-3.6981-0.78218 0-0.48362 0.071-0.56338 1.4449-1.6232 2.7168-2.0958 3.7464-5.526 3.0662-10.216-0.32708-2.2557-0.40992-5.0191-0.18014-6.0086l0.13042-0.56162-0.92026-5.99e-4c-1.2554-7.49e-4 -3.4193-0.36778-4.8687-0.82564-4.643-1.4667-5.297-3.9712-1.3682-5.2394 4.6718-1.5081 7.2744-3.8935 9.7636-8.9485 3.9884-8.0998 8.6302-10.104 13.849-5.9787l0.75925 0.60015 0.0821-1.2981c0.3065-4.8475 1.6816-6.2225 3.2925-3.2923 0.54435 0.99017 0.98752 1.2622 2.8844 1.7705l1.1417 0.30596 1.3424-1.2636c6.38-6.0059 17.747-2.4888 21.585 6.6785 0.96471 2.3046 1.2161 3.7182 1.9121 10.752 0.74935 7.5734 0.84576 7.9713 2.9603 12.218 0.57071 1.1463 1.2164 2.3463 1.4348 2.6667 1.0285 1.5087 0.25145 3.0071-1.5117 2.9149l-1.011-0.05284-0.34058 2.546c-0.80352 6.0066-0.0952 11.315 1.5779 11.825 0.4526 0.13796 1.3477-0.17028 1.4524-0.50016 0.46263-1.4576 2.0472-1.1469 2.4944 0.48914 0.70371 2.5748-0.73953 4.9404-3.2216 5.2806-0.89826 0.12312-1.0503 0.24116-0.92975 0.72162 0.2221 0.8849 1.5352 1.012 3.7382 0.36177 4.8244-1.4239 0.64286 5.6467-4.5158 7.6357-2.903 1.1193-6.3424 1.6075-7.9829 1.1332-0.2109-0.061-0.19995 0.12782 0.0938 1.6185 0.46645 2.3669 0.78559 4.4903 1.0415 6.9293 0.12099 1.1532 0.28769 2.5685 0.37046 3.1451 0.0828 0.57659 0.21769 1.5247 0.29982 2.107 0.30075 2.1323 0.37309 17.205 0.0974 20.283-0.29282 3.2687-0.61861 7.2808-0.8452 10.409-0.0895 1.2356-0.25996 3.2237-0.37877 4.4181-0.11882 1.1944-0.21593 2.458-0.2158 2.8081l2.2e-4 0.63649h-35.051zm29.135-39.96c0-1.5246 0.14306-1.9371 0.67177-1.9371 0.54636 0 0.65674 0.37164 0.56535 1.9035l-0.083 1.3913h0.77764c1.5914 0 1.6742-0.29031 1.1241-3.9375-1.1795-7.819-2.6536-9.0874-3.9436-3.3934-0.32562 1.4373-0.80418 3.3883-1.0635 4.3356s-0.50577 1.8673-0.54776 2.0446c-0.14224 0.60061 0.41951 0.95069 1.5255 0.95069h0.97347zm-5.1785 0.99781c0.67147-0.28056 0.79453-0.72704 0.92028-3.339l0.10237-2.1264 0.46794-0.0988c1.4189-0.29965 1.7081-3.9993 0.33945-4.3428-0.36391-0.0913-3.1084 0.14683-4.1261 0.35807-1.5326 0.31809-1.723 4.024-0.2212 4.3058l0.54355 0.10197-0.10609 2.3412c-0.098 2.1613-0.085 2.3596 0.16895 2.5812 0.53813 0.46964 1.1443 0.53904 1.9109 0.21875zm-12.39-0.96424c1.7886-0.91246 2.6547-3.0425 1.8487-4.5464l-0.29452-0.54951 0.4022-0.71961c1.2582-2.2512-1.6124-5.4884-3.3373-3.7635-0.20749 0.20749-1.0093 9.8869-0.82831 9.9988 0.2633 0.16272 1.5447-0.0808 2.2093-0.41983zm5.3489-0.0734c1.3422-0.36811 1.648-0.66191 1.802-1.7315l0.0947-0.65798-0.76074 0.0901c-0.99093 0.11736-1.4961-0.0725-1.4961-0.56235 0-0.49143 0.39128-0.68291 1.3955-0.68291 0.94301 0 0.99528-0.0803 0.99873-1.5351l2e-3 -0.86115h-1.2702c-1.2498 0-1.2717-6e-3 -1.37-0.39771-0.14981-0.59687 0.2432-0.8004 1.5455-0.8004h1.0946l-2e-3 -0.48674c-9e-3 -1.9456-3.7169-1.6703-4.02 0.29841-1.181 7.6716-1.0487 8.1596 1.9862 7.3273zm23.003-14.547c2.5278-0.69678 4.3972-1.7787 5.5128-3.1905l0.44157-0.55883h-1.2175c-1.9443 0-3.3282-1.0774-3.6217-2.8198-0.0609-0.36161-0.2549-0.76376-0.46048-0.95464-1.0687-0.99226-0.26685-1.8418 1.7384-1.8418 1.7674 0 2.5928-0.25913 2.9353-0.92154l0.22501-0.43512-0.41797 0.11671c-4.9641 1.3862-6.7533-4.7935-4.8968-16.913 0.0827-0.54002 0.0618-0.5706-0.74083-1.0841-0.45428-0.2906-0.86809-0.59653-0.91959-0.67986-0.3171-0.51307-0.37549 0.22348-0.37549 4.7362v4.8877l-3.819 6.0436c-2.1004 3.324-3.819 6.0816-3.819 6.128s0.45086 0.90415 1.0019 1.9061c0.68843 1.2518 1.1947 2.4324 1.6181 3.7735l0.61617 1.9518 0.66585 0.1849c1.0825 0.30061 3.844 0.13619 5.5332-0.32945zm-16.572-3.1128c0.27344-0.43244 2.8336-4.5347 5.6892-9.1161l5.192-8.3298-2e-3 -6.8534-0.35025 0.74882c-1.3788 2.9478-5.6671 4.1535-10.488 2.9489-3.8548-0.96322-5.0572-2.016-5.4329-4.7569l-0.0876-0.63889-0.92961-0.16188c-2.2597-0.39352-3.6756-0.13901-3.6756 0.6607 0 4.9851-9.8031 7.5345-14.565 3.7876l-0.56161-0.44195v10.346l5.7314 12.593h18.984zm-12.075-5.3583c-2.02-0.5096-3.126-2.2151-3.2268-4.9764-0.0962-2.6322 0.29122-2.8095 8.25-3.7747 1.0508-0.12745 2.317-0.37235 2.8136-0.54423 1.8498-0.64015 2.2928 1.0054 1.2086 4.4889-1.0375 3.3334-5.4952 5.7021-9.0454 4.8065zm0.41447-3.8073c1.92-0.85312 3.6619-1.3514 5.5446-1.5859 1.6886-0.21035 1.7158-0.23066 1.719-1.283l2e-3 -0.76466-1.0858 0.18643c-0.59718 0.10254-1.5912 0.23375-2.209 0.29158-1.2879 0.12057-4.4128 0.6186-5.3541 0.85329l-0.6365 0.15871v0.82599c0 0.80149 0.25826 1.984 0.43331 1.984 0.0475 0 0.76132-0.2999 1.5863-0.66645zm-12.601 8.7912c-0.1279-0.30889-1.3376-3.2054-2.6881-6.4368l-2.4556-5.8751v-22.341l-0.40915 0.04739c-0.86485 0.10017-0.99674 2.9411-0.33593 7.2361 0.54659 3.5526-0.015 6.3995-1.7345 8.7929l-0.53546 0.74532 0.44364-0.09744c1.3452-0.29545 1.7389 0.32026 2.0436 3.1962 0.69339 6.5431-0.30977 9.8329-3.4967 11.467l-0.50501 0.259 0.72965 0.52859c1.7523 1.2694 6.6886 2.9737 8.7719 3.0285l0.40421 0.0106zm8.2433-22.789c3.121-0.74176 3.1646-0.80493 3.154-4.5752-0.0111-3.9649-0.0477-4.0197-2.9873-4.476-1.8175-0.2821-6.9582-0.47382-7.7878-0.29044l-0.59905 0.13243v0.96643c0 8.1874 1.6196 9.8114 8.2201 8.2427zm-3.3213-0.98268c-2.1325-1.7944-1.4782-7.7122 0.85303-7.7158 1.8343-0.0028 3.0212 4.7075 1.7596 6.9834-0.64557 1.1646-1.7358 1.4702-2.6126 0.73238zm23.899 1.2643c3.5133-0.57013 3.9548-1.3517 4.1531-7.3506l0.0773-2.3388-0.56411-0.09324c-2.1166-0.34982-9.1951 0.26218-10.164 0.87875-0.74334 0.47311-1.1042 5.9104-0.46941 7.072 0.42323 0.77442 3.2099 1.7176 5.8008 1.9633 0.12355 0.01173 0.64833-0.04745 1.1662-0.13148zm-2.8572-1.4271c-1.5306-1.5306-1.1705-6.3681 0.55214-7.4186 2.5974-1.5838 4.0638 4.6066 1.7228 7.2729-0.61242 0.69751-1.6563 0.76438-2.2749 0.14572zm-7.145-4.8554c0-4.6651 2.0806-5.9953 9.7721-6.2473 1.5444-0.05061 2.8081-0.12299 2.8081-0.16084 0-0.29902-3.1554-4.2431-4.9103-6.1376-1.937-2.0911-3.2961-2.8799-5.1568-2.9931l-1.0904-0.06631-0.65052 1.288c-1.5067 2.9832-4.627 6.3531-7.707 8.3236l-1.0191 0.65197 0.70739 0.26852c1.6008 0.60764 2.5239 2.3861 2.5991 5.0072 5e-3 0.16777 4.6473 0.23357 4.6473 0.06587zm21.417-1.2379c-1.1175-2.386-1.4394-4.028-2.092-10.671-0.53286-5.4246-0.67259-6.4737-1.0763-8.0806-2.2026-8.7674-11.83-12.607-17.649-7.0394-1.7688 1.6926-2.2428 1.825-3.258 0.90988-0.38999-0.35152-0.86006-0.58092-1.5355-0.74933-0.53541-0.1335-1.4927-0.49764-2.1274-0.8092l-1.1539-0.56647-0.1009 0.80762c-0.0988 0.79099-0.0141 2.9274 0.17746 4.4754 0.26997 2.1815-1.5062 2.2807-3.5398 0.19774-4.3776-4.484-7.1453-3.551-10.651 3.5907-2.4128 4.9155-4.5828 7.2166-8.7012 9.227-1.0801 0.52723-1.0746 0.5857 0.0749 0.79996 6.8473 1.2763 12.874-1.4441 15.604-7.0431 1.2408-2.5452 1.8742-3.0808 2.9766-2.517 1.0962 0.5606 1.1013 1.3599 0.0235 3.6538-0.45531 0.96901-0.80272 1.787-0.77201 1.8177 0.0785 0.0785 2.8559-0.65413 3.4998-0.9232 1.6908-0.70644 2.2416 0.23189 2.1119 3.5976-0.0838 2.1759-0.18599 2.1432 1.584 0.50689 1.659-1.5338 3.0563-3.4134 4.2421-5.7064 1.4226-2.7508 1.6566-2.9639 3.2556-2.9639 4.0501 0 7.4636 2.7786 12.905 10.505 2.43 3.4502 6.3406 8.2155 6.742 8.2155 0.0209 0-0.22235-0.556-0.54064-1.2356zm-30.793-4.8689c-0.0455-0.22739 0.0198-0.98557 0.14496-1.6849 0.25341-1.4153 0.47415-4.0421 0.33969-4.0421-0.0476 0-0.74559 0.16778-1.551 0.37284-0.8054 0.20506-2.0372 0.45338-2.7374 0.55183-1.2552 0.17649-1.2879 0.19195-2.3362 1.1058-1.0912 0.95119-2.0865 1.6354-3.4672 2.3836-0.68709 0.37232-0.78626 0.48446-0.78619 0.889l8e-5 0.46293 4.1559 0.01903c2.2857 0.01047 4.4929 0.08678 4.9047 0.16959 1.3117 0.26373 1.4269 0.24405 1.3326-0.22764z" stroke-width=".14976"/>
 </g>
</svg>
