<?xml version="1.0" encoding="UTF-8"?>
<svg width="46.487" height="120" version="1.1" viewBox="0 0 46.487 120" xmlns="http://www.w3.org/2000/svg" xmlns:cc="http://creativecommons.org/ns#" xmlns:dc="http://purl.org/dc/elements/1.1/" xmlns:rdf="http://www.w3.org/1999/02/22-rdf-syntax-ns#">
 <metadata>
  <rdf:RDF>
   <cc:Work rdf:about="">
    <dc:format>image/svg+xml</dc:format>
    <dc:type rdf:resource="http://purl.org/dc/dcmitype/StillImage"/>
    <dc:title/>
   </cc:Work>
  </rdf:RDF>
 </metadata>
 <path d="m9.2471 83.435 24.776 0.28235-3.0353-42.776-3.2471-1.9765 4.9412-2.8941 10.447 0.63529-4.3765-9.1765 0.77647-10.659-5.4353-10.8-11.788-5.2235-10.588 2.6824-8.1176 10.235-0.98824 9.5294 1.1294 8.6824-0.28235 4.4471 9.3882 0.07059 2.3294 3.8118-3.9529 1.9765z" fill="#fff"/>
 <g transform="translate(-503.03 -531.55)">
  <g transform="matrix(.076704 0 0 .076704 464.45 490.78)">
   <path d="m742.11 729.11c9.3902-10.804 19.36-22.385 27.971-32.159-9.5114-12.747-20.769-24.993-29.383-35.516 11.367-2.6184 18.703-1.4109 34.198-1.4109l2.742 3.75c8.4564 11.565 10.443 12.234 16.362 5.5099l4.1724-4.7401c5.5027 7.6465 11.87 15.365 16.711 21.39l-9.158 11.124c10.211 11.087 18.33 20.733 28.159 32.052l4.3868 4.9152h-35.901l-6.9353-8c-8.0221-9.2536-7.414-8.9865-10.528-4.6247-1.3253 1.8564-4.3315 5.4564-6.6803 8l-4.2706 4.6247h-36.232z" fill="#fc0302"/>
   <path d="m572.41 2088.8c0.34927-3.9875 1.0596-14.9 1.5786-24.25 0.51896-9.35 1.4349-25.325 2.0354-35.5 1.4011-23.741 2.4979-44.125 3.8203-71 1.5136-30.761 3.05-58.268 4.1892-75 0.54297-7.975 0.98272-20.436 0.97723-27.691-6e-3 -7.7266 0.40427-13.447 0.99002-13.809 0.60634-0.3747 1-7.6574 1-18.5s0.39366-18.125 1-18.5c0.58079-0.3589 1.0201-6.1479 1.0478-13.809 0.0263-7.2551 0.48156-20.841 1.0117-30.191 0.53009-9.35 1.4111-25.325 1.9578-35.5 0.94155-17.523 1.6088-29.162 4.0132-70 0.56669-9.625 1.2386-21.55 1.4932-26.5s0.71047-12.825 1.0131-17.5c1.4133-21.831 2.5192-42.947 3.0638-58.5 0.32742-9.35 0.94019-17.45 1.3617-18s0.84882-6.625 0.94957-13.5c0.10076-6.875 0.63904-20.15 1.1962-29.5 0.99785-16.746 2.1812-40.161 3.8661-76.5 0.47179-10.175 1.1878-21.364 1.5911-24.865 0.70486-6.1185 0.6572-6.3244-1.2299-5.3144-1.0798 0.5779-8.122 1.3701-15.649 1.7605l-13.686 0.7099v-8.0962c0-4.453 0.4182-10.256 0.92933-12.896s1.637-10.424 2.502-17.299 1.8424-14.525 2.172-17c3.0011-22.534 4.1177-31.385 5.2983-42 0.97921-8.8042 1.8124-15.01 4.0953-30.5 0.48633-3.3 1.3841-9.6 1.995-14s1.5109-10.475 1.9998-13.5 1.4048-9.55 2.0353-14.5c0.63043-4.95 1.5652-11.196 2.0772-13.881 0.51201-2.6845 1.2164-9.547 1.5654-15.25 0.34894-5.7029 0.97912-10.369 1.4004-10.369s1.0026-3.0375 1.2918-6.75c0.5394-6.925 0.89954-9.6405 4.476-33.75 5.5214-37.221 10.804-50.048 27.286-66.252 10.63-10.451 34.889-26.248 40.308-26.248 1.0523 0-1.4095-2.572-6.0822-6.3547-4.3175-3.4951-9.763-8.2201-12.101-10.5l-4.2512-4.1453h-76.999c-42.349 0-76.984-0.3375-76.965-0.75s2.2712-3.225 5.0055-6.25 5.2244-6.2875 5.5334-7.25c0.30903-0.9625 0.92695-1.75 1.3732-1.75s1.3705-1.35 2.0539-3 1.5677-3 1.9649-3c0.99035 0 10.367-20.119 12.816-27.5 3.5353-10.653 5.804-21.597 6.8403-33 1.4208-15.632 1.176-18.394-2.7025-30.5-4.156-12.972-9.2672-33.266-10.83-43-0.57394-3.575-1.4783-9.2-2.0097-12.5-3.6793-22.849-3.6729-58.137 0.0152-83.5 3.4691-23.857 9.3741-46.501 17.863-68.5 33.587-87.037 109.65-152.51 195.54-168.32 3.3-0.60736 9.15-1.6786 13-2.3805 10.552-1.9237 55.27-1.5424 67.5 0.57566 16.394 2.8392 19.365 3.4511 24.5 5.0471 2.75 0.85464 6.4025 1.5588 8.1166 1.5647 2.9519 0.0102 8.5975 1.9216 18.122 6.1354 2.3315 1.0315 4.5171 1.8754 4.8569 1.8754 4.4062 0 46.874 25.101 54.67 32.313 0.70583 0.65296 3.2972 2.7447 5.7586 4.6482 82.679 63.94 123.59 189.9 96.89 298.32-2.6529 10.772-2.6327 11.137 1.7221 31.173 3.5003 16.104 16.095 45.171 21.47 49.551 0.3375 0.275 1.3164 1.85 2.1754 3.5 2.0514 3.941 14.089 16.897 36.002 38.75l17.799 17.75h-202.25l-5.166 4.9082c-2.8413 2.6996-7.7485 7.0256-10.905 9.6134-5.5087 4.5164-6.4381 6.4784-3.0686 6.4784 16.705 0 51.425 33.504 61.141 59 0.73361 1.925 1.7135 4.4 2.1776 5.5 1.1095 2.6299 3.0454 15.206 3.6946 24 0.2842 3.85 0.87373 7.45 1.3101 8 0.43634 0.55 1.0814 4.15 1.4335 8 0.35209 3.85 1.0418 9.7 1.5327 13s1.3974 9.6 2.0146 14c0.61715 4.4 1.524 10.7 2.0153 14s1.396 9.825 2.0105 14.5 1.5126 10.975 1.9959 14 1.355 8.875 1.9371 13c0.58212 4.125 2.1802 15.295 3.5513 24.822s2.4929 18.95 2.4929 20.94 0.4394 6.1195 0.97643 9.1776c0.53704 3.0581 1.4466 9.8352 2.0212 15.06 0.57461 5.225 1.4867 12.65 2.0268 16.5 0.54014 3.85 1.3997 10.375 1.9102 14.5 0.51043 4.125 1.2321 8.2875 1.6037 9.25 0.60032 1.5549-0.0387 1.75-5.7313 1.75-3.5238 0-6.8361 0.4291-7.3605 0.9535-0.52442 0.5244-4.5519 1.0869-8.95 1.25l-7.9965 0.2965-0.29568 7.3425c-0.16262 4.0384 0.11454 7.8634 0.61591 8.5 0.50138 0.6366 0.97755 7.2325 1.0582 14.658 0.0806 7.425 0.60656 19.35 1.1688 26.5s1.4886 24.25 2.0586 38c2.1981 53.019 2.514 59.076 3.134 60.079 0.35162 0.569 0.72083 7.9839 0.82046 16.478 0.0996 8.4938 0.53709 15.893 0.97214 16.443 0.43504 0.55 1.0501 8.425 1.3669 17.5 0.52378 15.006 1.5337 34.395 3.0472 58.5 0.31079 4.95 0.77378 13.05 1.0289 18s0.94185 17.1 1.5262 27c0.58429 9.9 1.3606 24.525 1.7251 32.5 1.4592 31.923 2.7514 56.881 5.2812 102 2.1045 37.534 2.8665 52.256 4.4252 85.5 0.87679 18.7 1.8115 37.15 2.0771 41 0.55312 8.0174 1.2584 21.122 1.9913 37 0.27926 6.05 0.74866 13.7 1.0431 17s0.96172 13.65 1.4828 23c3.0086 53.985 4.6209 81.271 5.5691 94.25l0.60269 8.25h-422.42zm354.59-495.73c0-3.8398-0.44338-10.027-0.98528-13.75-0.54191-3.7227-1.4947-20.044-2.1173-36.269-1.1163-29.09-1.7334-41.597-3.8484-78-0.59117-10.175-1.5132-26.15-2.049-35.5-0.53575-9.35-1.4338-24.875-1.9957-34.5s-1.3028-23.503-1.6464-30.84l-0.62483-13.34-4.6165 0.6421c-2.5391 0.3531-7.9915 0.8775-12.116 1.1652-4.125 0.2878-7.9275 0.9394-8.45 1.4481-0.5225 0.5086-3.6725 0.9328-7 0.9426-3.3275 0.01-10.1 0.501-15.05 1.0917s-13.05 1.4913-18 2.0013c-4.95 0.5099-12.375 1.3417-16.5 1.8484-7.6165 0.9354-20.421 2.4539-34 4.0321-4.125 0.4794-12.002 1.3143-17.505 1.8554-5.5028 0.541-12.028 1.2912-14.5 1.667-2.4722 0.3759-8.9949 1.1044-14.495 1.619s-13.712 1.3702-18.25 1.9015c-18.576 2.1747-25.486 2.9281-40.75 4.4429-16.063 1.5941-27.97 2.9207-36.681 4.0867l-4.6806 0.6265-0.52833 6.1549c-0.29058 3.3851-1.0189 17.18-1.6185 30.655-0.59961 13.475-1.5176 31.925-2.0399 41-0.52232 9.075-1.4163 24.825-1.9866 35-0.57032 10.175-1.4818 26.375-2.0255 36-0.54371 9.625-1.4188 25.15-1.9445 34.5-0.52579 9.35-1.2435 21.388-1.595 26.75l-0.63898 9.75h288.24zm-161-25.866c-7.9098-2.0651-10.444-11.704-3.9857-15.16 3.1718-1.6974 35.15-1.2656 37.684 0.5089 4.5846 3.2112 3.221 12.867-1.9665 13.925-4.0174 0.8192-29.171 1.3952-31.732 0.7265zm31.885-524.21c35.37-5.6749 62.447-19.929 87.732-46.185 27.763-28.829 48.524-71.132 55.335-112.75 0.67506-4.125 1.6713-9.75 2.2138-12.5 2.6434-13.399 2.0401-53.951-1.1085-74.5-3.0624-19.986-3.7367-21.48-11.057-24.494-3.025-1.2451-8.65-3.6595-12.5-5.3653s-5.879-2.3229-4.509-1.3713c12.058 8.3751 25.988 32.522 26.015 45.095 3e-3 1.4494 0.50365 4.4293 1.1124 6.6221 16.156 58.193-75.419 104.73-125.18 63.611-6.1431-5.0755-13.999-14.921-16.301-20.43-0.81659-1.9544-2.6434-5.2586-4.0596-7.3428s-2.5749-4.9449-2.5749-6.3572c-6.8084-25.28-0.78412-53.751 12.277-72.307 9.5786-9.28 20.078-19.387 32.587-22.344 4.7054-6.8929 38.046-7.7887 50.085-1.3457 4.712 2.5218 1.3684-0.34318-9.1982-7.8815-41.239-29.42-78.91-70.247-97.312-105.46-3.6567-6.998-8.8537-7.1768-32.825-1.1294-60.297 15.211-111.7 78.322-125.44 154-0.59912 3.3-1.6676 9.15-2.3745 13-2.0411 11.117-1.633 62.466 0.58812 74 0.95324 4.95 2.1469 11.25 2.6525 14 16.998 92.447 98.584 163.51 173.85 151.44zm12.115-62.953c-2.475-0.4107-7.875-1.2497-12-1.8644s-10.2-1.6125-13.5-2.2174-18.6-1.3933-34-1.752c-30.129-0.70189-31.29-0.91126-33.99-6.1323-3.0361-5.8712-1.3625-11.855 4.4021-15.74 3.6868-2.4846 50.425-3.5409 60.395-1.365 2.306 0.50328 8.0178 1.4263 12.693 2.0511 29.476 3.9395 34.516 6.0052 35.672 14.621 1.386 10.336-5.5938 14.735-19.672 12.399zm-179.2-132.49c-11.652-21.814-7.8188-51.388 9.8736-76.182 6.6511-9.3207 22.734-20.989 30.034-21.791 19.592-7.6658 43.899-7.7597 61.453 0.0997 28.623 13.664 50.055 49.198 44.954 74.536-0.59089 2.9354-1.539 7.7549-2.107 10.71-32.23 72.026-111.88 72.24-144.21 12.627zm86.43 14.492c13.067-4.4116 22.516-14.216 27.31-28.337 3.9512-11.637 3.9368-11.654-9.8026-11.654h-11.33l-1.1881 3.2856c-7.648 21.15-34.452 20.953-38.752-0.28558l-1.1136-5.5-4.9241-0.66239c-9.5206-1.2807-23.424-0.96858-23.424 0.5259 0 17.334 14.634 37.6 31.945 44.24 5.5167 2.116 22.889 1.2206 31.279-1.6122zm21.775-69.788c0-1.0241-6.3465-7.0007-11.5-10.83-17.268-12.83-44.326-10.827-60.825 4.502l-2.8253 2.6249 7.3253 0.71148c4.0289 0.39131 15.163 1.1789 24.742 1.7502 9.5793 0.57133 17.642 1.2637 17.917 1.5385 0.84145 0.84145 25.166 0.55409 25.166-0.2973zm-112 195.95c0-0.46553-2.2695-4.628-5.0433-9.25-33.523-55.859-44.704-124.17-32.067-195.9 18.646-105.84 101.33-185 193.24-185h12.809l7.0241 14.297c30.209 61.487 100.42 122.95 159.79 139.87 4.8846 1.3925 6.8124 5.3366 9.2035 18.83 0.43859 2.475 1.4791 8.1 2.3122 12.5 6.9537 36.724 6.8795 67.124-0.26673 109.3-4.7558 28.065-18.011 63.12-33.013 87.309-2.6437 4.2626-4.5492 8.0078-4.2342 8.3227 0.77645 0.77645 91.239 0.73385 91.239-0.043 0-0.33853-2.1122-3.7926-4.6937-7.6758-14.36-21.6-24.318-48.461-28.37-76.521-1.1721-8.1176-0.95278-12.517 1.131-22.688 5.7183-27.91 7.0332-38.648 7.6531-62.5 0.6311-24.285-0.2931-34.541-5.7667-64-11.306-60.848-53.765-124.09-106.07-157.98-16.62-10.77-46.942-25.017-53.244-25.017-1.4084 0-6.2906-0.83471-10.849-1.8549-175.28-39.227-318.63 143.74-259.21 330.85 7.3664 23.197 5.4928 58.02-4.5415 84.413-0.49804 1.31-0.63426 2.653-0.30271 2.9846 0.9452 0.94519 63.269 0.70523 63.269-0.24361zm250.13-121.05c15.524-4.4394 25.541-13.345 30.758-27.345 4.9958-13.406 5.144-13.206-10.018-13.54l-12.632-0.27899-0.68914 4.779c-3.466 24.036-37.069 22.665-39.27-1.6024l-0.53229-5.8702-5.1224-0.61548c-9.7243-1.1684-21.622-0.76639-21.622 0.73064 0 29.732 30.143 52.032 59.128 43.743zm25.872-70.904c0-1.0453-6.4447-7.0868-11.5-10.78-17.421-12.728-43.133-11.066-60.216 3.8929l-3.6369 3.1846 7.4266 0.70962c4.0846 0.39029 15.302 1.1865 24.927 1.7693s17.95 1.2405 18.5 1.4614c1.9207 0.77159 24.5 0.55277 24.5-0.23744z" fill="#010101"/>
  </g>
 </g>
</svg>
