<?xml version="1.0" encoding="UTF-8"?>
<svg width="46.37" height="120" version="1.1" viewBox="0 0 46.37 120" xmlns="http://www.w3.org/2000/svg" xmlns:cc="http://creativecommons.org/ns#" xmlns:dc="http://purl.org/dc/elements/1.1/" xmlns:rdf="http://www.w3.org/1999/02/22-rdf-syntax-ns#">
 <metadata>
  <rdf:RDF>
   <cc:Work rdf:about="">
    <dc:format>image/svg+xml</dc:format>
    <dc:type rdf:resource="http://purl.org/dc/dcmitype/StillImage"/>
    <dc:title/>
   </cc:Work>
  </rdf:RDF>
 </metadata>
 <path d="m17.769 118.64h19.866l7.3373-22.96-1.9965-11.28-11.43-6.7882-0.29948-14.675-1.1979-9.2839 6.9879-11.879 1.4475-13.227-4.592-7.0378 2.6454-4.1927 5.6901-6.339-3.4939-6.2891-6.339-3.7934-2.895 1.8967-1.0482 15.623-14.924-1.2977-8.3355 9.1841-0.19965 16.272 3.2943 7.2874 4.9414 3.9432-4.4922 11.38-1.6971 9.5335 3.4939 5.6402 3.9432 1.2977z" fill="#fff"/>
 <g transform="translate(-144.36 -47.522)">
  <path d="m161.02 167.49c-5.9e-4 -0.0163-0.36838-3.7327-0.81735-8.2587-0.44896-4.526-1.2832-12.95-1.8538-18.72l-1.0375-10.491-1.0307-0.48539c-4.35-2.0485-6.0524-4.6563-6.2388-9.5569-0.14149-3.7205 0.57651-5.8252 4.261-12.49 1.2321-2.2288 1.6526-3.4024 1.9197-5.3578 0.0719-0.52636-0.0453-0.74893-0.2337-0.44401-0.27729 0.44865-1.1248-0.0873-1.1248-0.71124 0-0.20576-0.10533-0.36556-0.32741-0.49675-0.51099-0.30184-2.3038-2.0228-2.9958-2.8757-0.344-0.42398-0.71085-0.77088-0.81524-0.77088-0.415 0-0.71609-0.35128-0.71609-0.83544 0-0.32869-0.2085-0.89596-0.7047-1.9174-0.70467-1.4505-0.82067-1.7869-1.419-4.1146-0.29969-1.1658-0.3707-1.3086-1.1404-2.2928-0.45145-0.57723-1.0022-1.3232-1.224-1.6577-0.22175-0.33448-0.53927-0.81359-0.70561-1.0647-1.0734-1.6205-0.15918-2.793 2.1841-2.8012 1.072-0.0037 0.97684 0.37396 1.0247-4.0657l0.0423-3.925 0.42306-1.184c3.131-8.763 12.173-12.605 22.156-9.4129l1.0401 0.33254 0.71726-1.2208-0.0685-2.1905c-0.0377-1.2048-0.101-3.2388-0.14076-4.5201-0.20398-6.5743 2.8562-9.9726 7.0026-7.7764 5.1206 2.7123 9.0571 8.5635 8.0266 11.931-0.25714 0.84024-1.7284 2.3318-4.3561 4.4162-2.3862 1.8929-2.3673 1.8734-2.9727 3.0786l-0.53074 1.0568 0.94466 0.99796c3.6263 3.831 4.6111 8.536 3.096 14.793-0.12615 0.52098-0.36934 1.9063-0.54042 3.0785-0.72092 4.9396-2.0107 7.8996-4.6899 10.763-0.81544 0.87156-0.92716 1.041-0.81925 1.2426 0.40286 0.75276-0.43665 1.4636-1.0611 0.89843-0.70469-0.63773-0.97989 0.5785-0.64342 2.8435 0.0967 0.65123 0.23033 1.6369 0.29688 2.1905 0.21624 1.7986 0.34857 2.6286 0.77404 4.8546 1.02 5.3365 1.1226 6.1104 1.1932 8.9987 0.0557 2.2817 0.0364 2.6674-0.18622 3.719-0.13662 0.64531-0.2484 1.2134-0.2484 1.2624s0.22644 0.1256 0.50321 0.17016c1.6212 0.26101 6.591 3.1669 8.4411 4.9356 3.1028 2.9663 4.316 6.2215 4.316 11.581 4e-5 3.5264-0.39809 5.2983-2.4741 11.012-0.20114 0.55354-0.52887 1.5659-0.7283 2.2497-0.19943 0.68379-0.54083 1.6961-0.75867 2.2497-0.21785 0.55354-0.74338 2.0721-1.1679 3.3745s-1.0452 3.0874-1.3794 3.9665-0.7694 2.0647-0.96711 2.6345l-0.35945 1.036h-10.942c-6.018 0-10.942-0.0133-10.943-0.0296zm19.78-3.0028c0.89923-2.0978 5.4-15.133 6.1073-17.688 0.75558-2.7294 0.7736-2.84 0.83896-5.1493 0.16911-5.9746-1.3773-9.2173-5.6236-11.792-2.6319-1.5961-4.003-2.2948-4.8804-2.487-0.29305-0.0642-0.61798-0.14239-0.72206-0.17381-0.12959-0.0391-0.38251 0.20279-0.80244 0.76751-1.5162 2.039-2.9715 2.5535-3.5186 1.244-0.26087-0.62436-0.12434-0.99806 0.62874-1.7209 2.6459-2.5398 3.3004-6.9172 2.0342-13.604-0.81025-4.2791-1.056-5.6706-1.2402-7.0224l-0.2067-1.5166-0.22211 0.35081c-0.2871 0.45344-0.96859 0.78153-1.6046 0.77248l-0.50322-7e-3 -2.3e-4 0.54417c-4.8e-4 1.2735-1.0824 2.1816-2.2791 1.9128l-0.38481-0.0864v0.62312c0 1.6415-1.9815 2.4493-3.2265 1.3153l-0.26641-0.24265v0.33013c0 2.1063-3.2807 2.3114-3.8028 0.23772-0.12298-0.4884-0.13716-0.49958-0.70203-0.55386-1.0954-0.10525-1.8484-1.0152-1.7435-2.107l0.054-0.56166-0.47226-7e-3c-0.25975-4e-3 -0.62602-0.0702-0.81393-0.14804-0.18792-0.0778-0.35624-0.12103-0.37405-0.096-0.48366 0.68028-2.7173 4.9828-3.3736 6.4986-1.7437 4.0267-1.5689 8.803 0.40239 10.996 2.0838 2.3176 5.6047 3.3313 11.571 3.3313h2.5889l0.3461 0.34611c1.7018 1.7018-2.4356 2.7488-7.587 1.9197-0.35817-0.0576-0.65566-0.0982-0.6611-0.0901-5e-3 8e-3 0.24466 2.5722 0.55576 5.6981 1.0663 10.714 2.8286 28.553 2.8286 28.633 0 0.0439 3.7849 0.0798 8.4109 0.0798h8.4109zm-16.967-53.153c0.35316-0.40646 0.33849-0.89999-0.0401-1.35-0.64489-0.76641-1.8247-0.32322-1.8247 0.68543 0 0.98716 1.2099 1.4183 1.8649 0.66453zm3.2225-1.061c0.90971-0.47043 0.55448-1.9557-0.46773-1.9557-0.811 0-1.3584 0.79595-1.0263 1.4923 0.29014 0.60843 0.8674 0.78748 1.4941 0.46342zm-6.0487-0.66612c1.0861-0.37863 0.75983-2.0474-0.40034-2.0474-1.1684 0-1.407 1.6889-0.29601 2.095 0.26379 0.0964 0.28784 0.0948 0.69635-0.0476zm4.1759-1.6038c0.44276-0.45681 1.1348-0.6875 1.7284-0.57615 0.36771 0.069 0.39875 0.0538 0.33023-0.16214-0.31582-0.99507 1.1118-2.4478 2.1495-2.1874 0.25582 0.0642 0.27362 0.0337 0.27362-0.46927 0-0.29587 0.052-0.67462 0.11548-0.84166 0.0635-0.16705 0.0852-0.30372 0.0482-0.30372s-0.60846 0.11565-1.2699 0.25699c-2.5551 0.54599-6.0383 0.34067-8.7034-0.51304-1.2273-0.39315-1.3151-0.37104-1.3185 0.33202-1e-3 0.29973 0.0562 0.38655 0.29718 0.44702 0.85465 0.2145 1.5765 1.3724 1.4097 2.2613-0.0769 0.40994-0.0746 0.41266 0.35398 0.41266 0.94102 0 1.7796 0.67666 1.919 1.5484 0.0695 0.43484 0.1 0.46445 0.47736 0.46445 0.48481 0 1.1017 0.24205 1.3356 0.52406 0.15596 0.18804 0.18298 0.16308 0.31782-0.2936 0.0811-0.27452 0.32218-0.67947 0.53582-0.8999zm4.7276-0.26868c0.67325-0.67325 0.20393-1.7852-0.75348-1.7852-0.92795 0-1.3698 1.1142-0.71353 1.7992 0.43894 0.45815 1.0002 0.45279 1.467-0.014zm-10.911-1.0261c0.64467-0.54246 0.25222-1.8247-0.55848-1.8247-0.37266 0-0.96401 1.7575-0.66493 1.9762 0.33325 0.24368 0.82639 0.18264 1.2234-0.15143zm13.071-1.2521c0.85254-0.45407 0.70063-1.7151-0.2349-1.9499-1.1116-0.279-1.7712 1.3624-0.76676 1.9081 0.38561 0.20948 0.66494 0.22114 1.0017 0.0418zm0.97091-2.8139c-0.0893-0.40665-0.12267-0.41962-0.51689-0.20099l-0.27823 0.1543 0.39352 0.24916c0.46664 0.29546 0.50655 0.27534 0.4016-0.20247zm-5.4733-1.2507c3.2192-0.56138 8.254-3.3596 8.254-4.5874 0-0.31476 0.3257-0.68264 0.60439-0.68264 1.1365 0 3.2908-5.3792 3.494-8.7245 0.12089-1.9905 0.0602-2.1039-0.66155-1.2365-5.8692 7.0525-13.069 7.2327-14.79 0.37027-0.26261-1.0469-0.45738-1.159-2.0409-1.1749-1.3587-0.01369-1.6429 0.06794-1.6429 0.47197 0 1.9451-1.6379 4.8381-3.213 5.675-1.2354 0.65641-4.5121 0.7864-5.9122 0.23454-0.32598-0.12849-0.61658-0.23362-0.64578-0.23362-0.0935 0 0.42073 1.213 0.92672 2.1862 2.9007 5.5787 9.4089 8.7861 15.628 7.7016zm-5.6485-3.1277c-0.82512-0.91175 0.89304-1.8661 3.4503-1.9165 2.2011-0.04336 2.0602 1.3833-0.15416 1.5604-0.64617 0.05169-1.4896 0.20374-1.8742 0.3379-0.86752 0.30257-1.1611 0.30633-1.4219 0.01819zm-6.1558-10.229c1.3596-0.68947 1.244-1.5289-0.34953-2.5367-2.2554-1.4264-4.748-6e-3 -3.1982 1.8225 0.96012 1.1328 2.2216 1.3867 3.5478 0.71423zm16.011-0.62733c1.5699-0.78232 1.8825-2.2929 0.61053-2.9507-1.6138-0.83454-4.9596 1.0329-4.0111 2.2388 0.71674 0.91118 2.325 1.2478 3.4006 0.71187zm-7.4017-3.6889c0.31267-1.556 2.6745-2.4994 6.2988-2.5159l1.7761-0.0081-0.47362-0.38084c-2.8885-2.3227-5.0557-4.9205-6.3102-7.564l-0.55723-1.1742-0.59202 0.07005c-4.7843 0.56614-10.143 3.2286-13.248 6.5827l-0.78273 0.84542v2.3393h2.2936c3.6275 0 5.6983 0.47051 7.0401 1.5996 0.35943 0.30244 0.39319 0.30799 1.0472 0.17222 0.74863-0.15542 1.9816-0.07712 2.7898 0.17715 0.27777 0.0874 0.53834 0.16418 0.57904 0.17062 0.0407 0.0064 0.10345-0.13482 0.13943-0.3139zm16.702-1.2278c2.4083-9.2514-9.2738-18.503-20.603-16.317-5.0924 0.98272-8.5444 4.2293-9.682 9.1058l-0.16327 0.69987 0.90561-0.74682c3.9704-3.2743 10.103-5.6339 14.642-5.6339h0.64015l0.25269 0.85843c1.3605 4.6218 7.8046 10.77 12.257 11.694 0.72912 0.15136 1.3532 0.62144 1.3532 1.0193 0 0.38199 0.21865 0.0083 0.3978-0.67994zm-1.6469-17.561c2.6708-1.8285 5.6735-4.5169 5.9395-5.3178 0.76589-2.3059-2.0709-6.7522-5.8406-9.1546l-1.2713-0.81015h-1.2555c-3.0882 0-3.4536 1.6512-2.7315 12.343l0.0739 1.0947 2.0721 1.1763c2.4517 1.3918 2.0779 1.3089 3.0134 0.66836z" stroke-width=".1184"/>
  <circle cx="180.44" cy="99.64" r=".65825"/>
  <circle cx="179.47" cy="98.28" r=".65825"/>
  <circle cx="180.9" cy="101.39" r=".65825"/>
  <circle cx="179.85" cy="103.11" r=".65825"/>
  <circle cx="178.02" cy="103.7" r=".65825"/>
  <circle cx="177.08" cy="101.95" r=".65825"/>
  <circle cx="176.23" cy="94.938" r=".65825"/>
  <circle cx="176.04" cy="92.768" r=".65825"/>
  <circle cx="176.03" cy="90.598" r=".65825"/>
  <circle cx="150.53" cy="98.024" r=".65825"/>
  <circle cx="150.55" cy="99.948" r=".65825"/>
  <circle cx="150.66" cy="101.85" r=".65825"/>
  <circle cx="151.43" cy="103.67" r=".65825"/>
  <circle cx="153.38" cy="104.26" r=".65825"/>
  <circle cx="154.69" cy="102.75" r=".65825"/>
 </g>
</svg>
