<?xml version="1.0" encoding="UTF-8"?>
<svg width="46.37" height="120" version="1.1" viewBox="0 0 46.37 120" xmlns="http://www.w3.org/2000/svg" xmlns:cc="http://creativecommons.org/ns#" xmlns:dc="http://purl.org/dc/elements/1.1/" xmlns:rdf="http://www.w3.org/1999/02/22-rdf-syntax-ns#">
 <metadata>
  <rdf:RDF>
   <cc:Work rdf:about="">
    <dc:format>image/svg+xml</dc:format>
    <dc:type rdf:resource="http://purl.org/dc/dcmitype/StillImage"/>
    <dc:title/>
   </cc:Work>
  </rdf:RDF>
 </metadata>
 <g transform="translate(-144.36 -47.522)">
  <path d="m161.02 167.49c-5.9e-4 -0.0163-0.36838-3.7327-0.81735-8.2587-0.44896-4.526-1.2832-12.95-1.8538-18.72l-1.0375-10.491-1.0307-0.48539c-4.35-2.0485-6.0524-4.6563-6.2388-9.5569-0.14149-3.7205 0.57651-5.8252 4.261-12.49 1.2321-2.2288 1.6526-3.4024 1.9197-5.3578 0.0719-0.52636-0.0453-0.74893-0.2337-0.44401-0.27729 0.44865-1.1248-0.0873-1.1248-0.71124 0-0.20576-0.10533-0.36556-0.32741-0.49675-0.51099-0.30184-2.3038-2.0228-2.9958-2.8757-0.344-0.42398-0.71085-0.77088-0.81524-0.77088-0.415 0-0.71609-0.35128-0.71609-0.83544 0-0.32869-0.2085-0.89596-0.7047-1.9174-0.70467-1.4505-0.82067-1.7869-1.419-4.1146-0.29969-1.1658-0.3707-1.3086-1.1404-2.2928-0.45145-0.57723-1.0022-1.3232-1.224-1.6577-0.22175-0.33448-0.53927-0.81359-0.70561-1.0647-1.0734-1.6205-0.15918-2.793 2.1841-2.8012 1.072-0.0037 0.97684 0.37396 1.0247-4.0657l0.0423-3.925 0.42306-1.184c3.131-8.763 12.173-12.605 22.156-9.4129l1.0401 0.33254 0.71726-1.2208-0.0685-2.1905c-0.0377-1.2048-0.101-3.2388-0.14076-4.5201-0.20398-6.5743 2.8562-9.9726 7.0026-7.7764 5.1206 2.7123 9.0571 8.5635 8.0266 11.931-0.25714 0.84024-1.7284 2.3318-4.3561 4.4162-2.3862 1.8929-2.3673 1.8734-2.9727 3.0786l-0.53074 1.0568 0.94466 0.99796c3.6263 3.831 4.6111 8.536 3.096 14.793-0.12615 0.52098-0.36934 1.9063-0.54042 3.0785-0.72092 4.9396-2.0107 7.8996-4.6899 10.763-0.81544 0.87156-0.92716 1.041-0.81925 1.2426 0.40286 0.75276-0.43665 1.4636-1.0611 0.89843-0.70469-0.63773-0.97989 0.5785-0.64342 2.8435 0.0967 0.65123 0.23033 1.6369 0.29688 2.1905 0.21624 1.7986 0.34857 2.6286 0.77404 4.8546 1.02 5.3365 1.1226 6.1104 1.1932 8.9987 0.0557 2.2817 0.0364 2.6674-0.18622 3.719-0.13662 0.64531-0.2484 1.2134-0.2484 1.2624 0 0.049 0.22644 0.1256 0.50321 0.17016 1.6212 0.26101 6.591 3.1669 8.4411 4.9356 3.1028 2.9663 4.316 6.2215 4.316 11.581 4e-5 3.5264-0.39809 5.2983-2.4741 11.012-0.20114 0.55354-0.52887 1.5659-0.7283 2.2497-0.19943 0.68379-0.54083 1.6961-0.75867 2.2497-0.21785 0.55354-0.74338 2.0721-1.1679 3.3745s-1.0452 3.0874-1.3794 3.9665-0.7694 2.0647-0.96711 2.6345l-0.35945 1.036h-10.942c-6.018 0-10.942-0.0133-10.943-0.0296zm19.78-3.0028c0.89923-2.0978 5.4-15.133 6.1073-17.688 0.75558-2.7294 0.7736-2.84 0.83896-5.1493 0.16911-5.9746-1.3773-9.2173-5.6236-11.792-2.6319-1.5961-4.003-2.2948-4.8804-2.487-0.29305-0.0642-0.61798-0.14239-0.72206-0.17381-0.12959-0.0391-0.38251 0.20279-0.80244 0.76751-1.5162 2.039-2.9715 2.5535-3.5186 1.244-0.26087-0.62436-0.12434-0.99806 0.62874-1.7209 2.6459-2.5398 3.3004-6.9172 2.0342-13.604-0.81025-4.2791-1.056-5.6706-1.2402-7.0224l-0.2067-1.5166-0.22211 0.35081c-0.2871 0.45344-0.96859 0.78153-1.6046 0.77248l-0.50322-7e-3 -2.3e-4 0.54417c-4.8e-4 1.2735-1.0824 2.1816-2.2791 1.9128l-0.38481-0.0864v0.62312c0 1.6415-1.9815 2.4493-3.2265 1.3153l-0.26641-0.24265v0.33013c0 2.1063-3.2807 2.3114-3.8028 0.23772-0.12298-0.4884-0.13716-0.49958-0.70203-0.55386-1.0954-0.10525-1.8484-1.0152-1.7435-2.107l0.054-0.56166-0.47226-7e-3c-0.25975-4e-3 -0.62602-0.0702-0.81393-0.14804-0.18792-0.0778-0.35624-0.12103-0.37405-0.096-0.48366 0.68028-2.7173 4.9828-3.3736 6.4986-1.7437 4.0267-1.5689 8.803 0.40239 10.996 2.0838 2.3176 5.6047 3.3313 11.571 3.3313h2.5889l0.3461 0.34611c1.7018 1.7018-2.4356 2.7488-7.587 1.9197-0.35817-0.0576-0.65566-0.0982-0.6611-0.0901-5e-3 8e-3 0.24466 2.5722 0.55576 5.6981 1.0663 10.714 2.8286 28.553 2.8286 28.633 0 0.0439 3.7849 0.0798 8.4109 0.0798h8.4109zm-16.967-53.153c0.35316-0.40646 0.33849-0.89999-0.0401-1.35-0.64489-0.76641-1.8247-0.32322-1.8247 0.68543 0 0.98716 1.2099 1.4183 1.8649 0.66453zm3.2225-1.061c0.90971-0.47043 0.55448-1.9557-0.46773-1.9557-0.811 0-1.3584 0.79595-1.0263 1.4923 0.29014 0.60843 0.8674 0.78748 1.4941 0.46342zm-6.0487-0.66612c1.0861-0.37863 0.75983-2.0474-0.40034-2.0474-1.1684 0-1.407 1.6889-0.29601 2.095 0.26379 0.0964 0.28784 0.0948 0.69635-0.0476zm4.1759-1.6038c0.44276-0.45681 1.1348-0.6875 1.7284-0.57615 0.36771 0.069 0.39875 0.0538 0.33023-0.16214-0.31582-0.99507 1.1118-2.4478 2.1495-2.1874 0.25582 0.0642 0.27362 0.0337 0.27362-0.46927 0-0.29587 0.052-0.67462 0.11548-0.84166 0.0635-0.16705 0.0852-0.30372 0.0482-0.30372s-0.60846 0.11565-1.2699 0.25699c-2.5551 0.54599-6.0383 0.34067-8.7034-0.51304-1.2273-0.39315-1.3151-0.37104-1.3185 0.33202-1e-3 0.29973 0.0562 0.38655 0.29718 0.44702 0.85465 0.2145 1.5765 1.3724 1.4097 2.2613-0.0769 0.40994-0.0746 0.41266 0.35398 0.41266 0.94102 0 1.7796 0.67666 1.919 1.5484 0.0695 0.43484 0.1 0.46445 0.47736 0.46445 0.48481 0 1.1017 0.24205 1.3356 0.52406 0.15596 0.18804 0.18298 0.16308 0.31782-0.2936 0.0811-0.27452 0.32218-0.67947 0.53582-0.8999zm4.7276-0.26868c0.67325-0.67325 0.20393-1.7852-0.75348-1.7852-0.92795 0-1.3698 1.1142-0.71353 1.7992 0.43894 0.45815 1.0002 0.45279 1.467-0.014zm-10.911-1.0261c0.64467-0.54246 0.25222-1.8247-0.55848-1.8247-0.37266 0-0.96401 1.7575-0.66493 1.9762 0.33325 0.24368 0.82639 0.18264 1.2234-0.15143zm13.071-1.2521c0.85254-0.45407 0.70063-1.7151-0.2349-1.9499-1.1116-0.279-1.7712 1.3624-0.76676 1.9081 0.38561 0.20948 0.66494 0.22114 1.0017 0.0418zm0.97091-2.8139c-0.0893-0.40665-0.12267-0.41962-0.51689-0.20099l-0.27823 0.1543 0.39352 0.24916c0.46664 0.29546 0.50655 0.27534 0.4016-0.20247zm-5.4733-1.2507c3.2192-0.56138 8.254-3.3596 8.254-4.5874 0-0.31476 0.3257-0.68264 0.60439-0.68264 1.1365 0 3.2908-5.3792 3.494-8.7245 0.12089-1.9905 0.0602-2.1039-0.66155-1.2365-5.8692 7.0525-13.069 7.2327-14.79 0.37027-0.26261-1.0469-0.45738-1.159-2.0409-1.1749-1.3587-0.01369-1.6429 0.06794-1.6429 0.47197 0 1.9451-1.6379 4.8381-3.213 5.675-1.2354 0.65641-4.5121 0.7864-5.9122 0.23454-0.32598-0.12849-0.61658-0.23362-0.64578-0.23362-0.0935 0 0.42073 1.213 0.92672 2.1862 2.9007 5.5787 9.4089 8.7861 15.628 7.7016zm-5.6485-3.1277c-0.82512-0.91175 0.89304-1.8661 3.4503-1.9165 2.2011-0.04336 2.0602 1.3833-0.15416 1.5604-0.64617 0.05169-1.4896 0.20374-1.8742 0.3379-0.86752 0.30257-1.1611 0.30633-1.4219 0.01819zm-6.1558-10.229c1.3596-0.68947 1.244-1.5289-0.34953-2.5367-2.2554-1.4264-4.748-6e-3 -3.1982 1.8225 0.96012 1.1328 2.2216 1.3867 3.5478 0.71423zm16.011-0.62733c1.5699-0.78232 1.8825-2.2929 0.61053-2.9507-1.6138-0.83454-4.9596 1.0329-4.0111 2.2388 0.71674 0.91118 2.325 1.2478 3.4006 0.71187zm-7.4017-3.6889c0.31267-1.556 2.6745-2.4994 6.2988-2.5159l1.7761-0.0081-0.47362-0.38084c-2.8885-2.3227-5.0557-4.9205-6.3102-7.564l-0.55723-1.1742-0.59202 0.07005c-4.7843 0.56614-10.143 3.2286-13.248 6.5827l-0.78273 0.84542v2.3393h2.2936c3.6275 0 5.6983 0.47051 7.0401 1.5996 0.35943 0.30244 0.39319 0.30799 1.0472 0.17222 0.74863-0.15542 1.9816-0.07712 2.7898 0.17715 0.27777 0.0874 0.53834 0.16418 0.57904 0.17062 0.0407 0.0064 0.10345-0.13482 0.13943-0.3139zm16.702-1.2278c2.4083-9.2514-9.2738-18.503-20.603-16.317-5.0924 0.98272-8.5444 4.2293-9.682 9.1058l-0.16327 0.69987 0.90561-0.74682c3.9704-3.2743 10.103-5.6339 14.642-5.6339h0.64015l0.25269 0.85843c1.3605 4.6218 7.8046 10.77 12.257 11.694 0.72912 0.15136 1.3532 0.62144 1.3532 1.0193 0 0.38199 0.21865 0.0083 0.3978-0.67994zm-1.6469-17.561c2.6708-1.8285 5.6735-4.5169 5.9395-5.3178 0.76589-2.3059-2.0709-6.7522-5.8406-9.1546l-1.2713-0.81015h-1.2555c-3.0882 0-3.4536 1.6512-2.7315 12.343l0.0739 1.0947 2.0721 1.1763c2.4517 1.3918 2.0779 1.3089 3.0134 0.66836z" stroke-width=".1184"/>
  <g fill="#fff">
   <path d="m164.43 164.88c-0.44728-0.0468-0.5969-0.13883-0.65092-0.4003-0.11348-0.54929-3.3378-33.651-3.2831-33.706 0.0274-0.0274 0.5312 0.0198 1.1195 0.10479 2.4441 0.35329 5.562 0.13581 6.7512-0.47091 0.72481-0.36977 0.86342-0.7777 0.48481-1.4268l-0.29141-0.49964-3.17-0.10373c-6.1439-0.20104-9.0977-1.0747-11.128-3.2912-1.8011-1.9666-2.1969-5.6697-1.0104-9.4524 0.34485-1.0994 3.1153-6.8498 3.6557-7.5878 0.15758-0.2152 0.3367-0.24831 0.91446-0.16901l0.7185 0.0986 0.0741 0.77099c0.0925 0.96232 0.72062 1.6682 1.6137 1.8133 0.52034 0.0846 0.63659 0.18658 0.93932 0.82421 0.40417 0.8513 0.97416 1.2054 1.9402 1.2054 1.0004 0 1.8109-0.63624 1.8202-1.4289l5e-3 -0.42114 0.54954 0.32424c1.217 0.71807 2.7861-0.0191 2.9708-1.3957l0.0864-0.64444h0.67954c0.97938 0 1.758-0.7272 1.8732-1.7495 0.0793-0.70357 0.10128-0.73112 0.58325-0.73112 0.27856 0 0.75433-0.17202 1.072-0.3876 0.31414-0.21318 0.59394-0.3876 0.62177-0.3876 0.0278 0 0.0993 0.43605 0.15883 0.969 0.0595 0.53295 0.41326 2.6434 0.78609 4.69 0.90603 4.9734 1.016 5.8598 1.0159 8.1897-1.2e-4 2.2434-0.17533 3.4352-0.71635 4.8725-0.41875 1.1125-0.71909 1.5892-1.7993 2.8559-0.85479 1.0023-0.99636 1.7425-0.43975 2.2991 0.73322 0.73321 2.0027 0.16703 3.2733-1.4599 0.37185-0.47612 0.79751-0.86567 0.94592-0.86567 1.0929 0 5.7936 2.5921 7.6264 4.2054 0.93073 0.81927 2.0244 2.3574 2.4887 3.5 0.69637 1.7138 0.90917 3.1553 0.89947 6.0932-8e-3 2.5162-0.0433 2.8426-0.48204 4.4962-0.77065 2.9045-5.9044 17.892-6.5272 19.056-0.17263 0.32256-0.20847 0.32391-7.8812 0.29797-4.2393-0.0143-7.9691-0.0534-8.2886-0.0868z" stroke-width=".15504"/>
   <path d="m163.85 108.84c-0.29845-0.14985-0.6909-0.27257-0.8721-0.2727-0.2435-1.2e-4 -0.35425-0.12422-0.42449-0.47542-0.13814-0.69068-0.87397-1.3568-1.6328-1.4782-0.60932-0.0974-0.63656-0.1258-0.63711-0.66337-7.1e-4 -0.7224-0.47581-1.495-1.1718-1.9056-0.39751-0.23454-0.5364-0.41502-0.5024-0.65286 0.0554-0.38731 0.13315-0.38557 1.7523 0.039 2.6014 0.6822 5.6783 0.8357 7.9841 0.39831 0.70077-0.13294 1.2903-0.22015 1.31-0.1938 0.0197 0.0263 5e-3 0.34441-0.033 0.70682-0.0661 0.63215-0.0902 0.65892-0.5948 0.65892-0.75175 0-1.7353 0.90915-1.8657 1.7246-0.0886 0.55385-0.13533 0.60101-0.596 0.60101-0.63521 0-1.4588 0.55148-1.8612 1.2463l-0.31244 0.53944z" stroke-width=".15504"/>
   <g stroke-width=".03876">
    <path d="m166.09 110.33c-0.2109-0.0963-0.39769-0.29333-0.51312-0.54117-0.0787-0.16901-0.0933-0.25028-0.0801-0.44574 0.0196-0.29032 0.1-0.46639 0.30928-0.67782 0.28726-0.29012 0.79628-0.39954 1.1376-0.24451 0.44747 0.20327 0.6997 0.76987 0.56188 1.2621-0.1501 0.53611-0.90393 0.88074-1.4155 0.6471z"/>
    <path d="m168.94 108.04c-0.46081-0.15042-0.78233-0.58471-0.78009-1.0537 3e-3 -0.6001 0.45866-1.0337 1.0487-0.99771 0.29818 0.0182 0.48224 0.0978 0.68259 0.29539 0.51835 0.51111 0.34243 1.3326-0.36199 1.6904-0.15128 0.0768-0.4522 0.11034-0.58925 0.0656z"/>
    <path d="m171.25 105.48c-0.40855-0.15742-0.64424-0.47198-0.64777-0.86452-6e-3 -0.63753 0.48806-1.1521 1.0561-1.1006 0.27322 0.0248 0.48592 0.13209 0.67363 0.33987 0.19376 0.21446 0.2608 0.38652 0.26246 0.67355 2e-3 0.2886-0.0787 0.49507-0.27076 0.69589-0.29878 0.31238-0.6869 0.40484-1.0737 0.25581z"/>
    <path d="m160.24 109.59c-0.49917-0.23615-0.73476-0.74272-0.585-1.2579 0.13633-0.46897 0.48633-0.74176 0.94922-0.73982 0.42635 2e-3 0.76481 0.22545 0.94098 0.62184 0.26357 0.59304-0.0103 1.1942-0.63797 1.4002-0.33552 0.11015-0.3868 0.10827-0.66723-0.0244z"/>
    <path d="m157.91 106.91c-0.13079-0.0647-0.16853-0.10711-0.18804-0.21109-0.054-0.28768 0.19408-1.133 0.44908-1.5304 0.16545-0.25783 0.23262-0.29128 0.45814-0.22814 0.37135 0.10397 0.66581 0.56212 0.66501 1.0347-7.1e-4 0.43032-0.25484 0.77669-0.68907 0.93926-0.26355 0.0987-0.48988 0.0973-0.69512-4e-3z"/>
    <path d="m169.93 87.569c-0.47607-0.09992-0.99291-0.35958-1.3145-0.66043-0.2883-0.26969-0.37948-0.43784-0.37748-0.69612 8e-3 -1.0122 2.2694-2.1835 3.6572-1.8941 0.473 0.09864 0.93586 0.41753 1.1146 0.76792 0.39537 0.77498-0.14326 1.7579-1.2581 2.2957-0.54734 0.26405-1.1566 0.32661-1.8217 0.18702z"/>
    <path d="m163.72 83.867c-0.61588-0.18538-1.149-0.25875-1.906-0.26232-0.46273-0.0022-0.73518 0.01578-0.98548 0.06495-0.58581 0.1151-0.66234 0.10195-0.99128-0.17029-0.92807-0.7681-2.2686-1.25-4.031-1.4492-0.9582-0.10827-1.7469-0.13935-3.5362-0.13935h-1.7739v-2.3156l0.3363-0.36354c1.465-1.5837 2.65-2.5763 4.3536-3.6468 2.5745-1.6178 5.6527-2.8168 8.4303-3.2835 0.50817-0.0854 1.4572-0.20712 1.4724-0.18885 5e-3 0.0063 0.21126 0.42595 0.45783 0.93258 0.24658 0.50663 0.53917 1.0822 0.65021 1.2791 0.29036 0.51478 1.0993 1.7208 1.488 2.2184 1.1425 1.4626 2.6187 2.9498 4.1821 4.2133l0.4939 0.39915-1.3014 0.02455c-1.3013 0.02455-1.6893 0.04379-2.3075 0.1144-2.1716 0.24804-3.6765 0.92774-4.2035 1.8985-0.0629 0.11585-0.15068 0.34132-0.19509 0.50105-0.0505 0.18159-0.10204 0.29327-0.13759 0.29802-0.0313 0.0042-0.25441-0.05185-0.49586-0.12454z"/>
    <path d="m153.77 88.307c-0.34619-0.09211-0.52476-0.16868-0.7926-0.33984-0.28118-0.17969-0.74389-0.63018-0.92039-0.8961-0.57449-0.8655-0.2854-1.6735 0.72461-2.0251 0.21259-0.07402 0.33066-0.08755 0.75582-0.08666 0.43278 9.48e-4 0.55195 0.01564 0.84452 0.10434 0.64389 0.19523 1.3489 0.61474 1.8258 1.0864 0.70186 0.69414 0.61336 1.2404-0.28663 1.7691-0.69907 0.41069-1.5135 0.55751-2.1512 0.38783z"/>
    <path d="m180.69 83.17c0-0.43224-0.61487-0.86163-1.5504-1.0827-1.8323-0.43302-4.2012-1.8318-6.3954-3.7765-0.59996-0.53173-1.6359-1.5714-2.1865-2.1945-1.2621-1.428-2.1398-2.6904-2.8118-4.0437-0.3462-0.69719-0.50145-1.0952-0.72641-1.8624l-0.18612-0.63467-0.93023 0.02249c-1.2485 0.03019-2.2085 0.14942-3.513 0.43634-3.0952 0.68077-6.3739 2.0732-9.0259 3.833-0.82964 0.55056-1.2217 0.84107-2.0464 1.5162-0.32747 0.2681-0.60505 0.47781-0.61684 0.46602-0.0374-0.03742 0.25813-1.1839 0.46028-1.7854 1.2067-3.591 3.7669-6.1344 7.4139-7.3652 1.8232-0.61531 4.1148-0.91333 6.1681-0.80213 2.7375 0.14827 5.2376 0.79469 7.6715 1.9835 1.9383 0.94677 3.5074 2.0547 4.9652 3.506 2.4352 2.4244 3.7832 5.1661 3.9685 8.0716 0.0751 1.1771-0.12748 2.702-0.47355 3.5649-0.0975 0.24312-0.18485 0.31256-0.18485 0.14694z"/>
    <path d="m178.24 65.249c-0.13857-0.06031-0.49613-0.2483-0.79458-0.41776-0.29845-0.16946-1.1068-0.62854-1.7962-1.0202-0.83314-0.47326-1.2633-0.73903-1.2825-0.79244-0.0467-0.12995-0.27423-3.8247-0.35432-5.7539-0.0505-1.2171-0.027-3.8372 0.0396-4.4041 0.154-1.3115 0.3983-2.0254 0.86324-2.5224 0.17269-0.18461 0.30831-0.28609 0.51056-0.38204 0.46436-0.2203 0.73961-0.26335 1.8166-0.28413l0.95981-0.01852 0.35802 0.22465c1.4452 0.90681 2.1402 1.417 3.0373 2.2295 1.919 1.7381 3.4908 4.2082 3.7964 5.9662 0.0859 0.49444 0.0607 1.2107-0.0531 1.5046-0.26525 0.68504-1.9705 2.3273-4.3049 4.1461-0.62073 0.4836-2.0798 1.5162-2.2326 1.5801-0.18781 0.07847-0.27506 0.06986-0.56328-0.05558z"/>
   </g>
   <path d="m162.89 111.71c-0.41637-0.0549-0.75272-0.32933-0.87235-0.71174-0.0688-0.22005-0.064-0.48144 0.0129-0.7025 0.12097-0.34755 0.39563-0.59132 0.75748-0.67229 0.0946-0.0212 0.29829-0.023 0.38974-4e-3 0.24762 0.0528 0.45908 0.18504 0.62478 0.3907 0.14183 0.17605 0.22653 0.34841 0.26332 0.53584 0.0147 0.0751 0.0165 0.22462 3e-3 0.2978-0.0231 0.12993-0.0884 0.28182-0.17039 0.39656-0.16896 0.23642-0.40648 0.39503-0.67924 0.45361-0.0648 0.0139-0.26897 0.0236-0.32968 0.0155z" stroke-width=".0068519"/>
  </g>
  <g>
   <circle cx="180.44" cy="99.64" r=".65825"/>
   <circle cx="179.47" cy="98.28" r=".65825"/>
   <circle cx="180.9" cy="101.39" r=".65825"/>
   <circle cx="179.85" cy="103.11" r=".65825"/>
   <circle cx="178.02" cy="103.7" r=".65825"/>
   <circle cx="177.08" cy="101.95" r=".65825"/>
   <circle cx="176.23" cy="94.938" r=".65825"/>
   <circle cx="176.04" cy="92.768" r=".65825"/>
   <circle cx="176.03" cy="90.598" r=".65825"/>
   <circle cx="150.53" cy="98.024" r=".65825"/>
   <circle cx="150.55" cy="99.948" r=".65825"/>
   <circle cx="150.66" cy="101.85" r=".65825"/>
   <circle cx="151.43" cy="103.67" r=".65825"/>
   <circle cx="153.38" cy="104.26" r=".65825"/>
   <circle cx="154.69" cy="102.75" r=".65825"/>
  </g>
  <path transform="translate(144.36 47.522)" d="m18.139 53.824c-2.9739-0.58273-5.5965-1.9233-7.76-3.9666-0.52919-0.49978-1.5746-1.7406-1.9763-2.3458-0.35367-0.53278-0.92983-1.5669-1.2084-2.1688-0.2261-0.48857-0.5571-1.3062-0.53541-1.3226 0.00934-7e-3 0.17158 0.04749 0.36055 0.1212 0.99753 0.38906 2.3969 0.5254 3.9591 0.38574 1.1562-0.10336 1.9967-0.34203 2.567-0.729 0.58529-0.39708 1.2519-1.179 1.7939-2.1045 0.60076-1.0256 0.92724-1.9242 1.0435-2.8718 0.09202-0.75014 0.09961-0.77358 0.27375-0.84593 0.33413-0.13882 2.081-0.16023 2.5692-0.03149 0.51541 0.13592 0.63169 0.29672 0.89256 1.2343 0.29145 1.0475 0.65328 1.846 1.1698 2.5814 0.73352 1.0444 1.745 1.7671 2.9606 2.1154 0.49071 0.14059 1.7389 0.22212 2.302 0.15037 1.4603-0.1861 3.0219-0.8149 4.5349-1.826 0.2842-0.18994 0.90364-0.67388 1.3765-1.0754 0.88226-0.74915 1.5026-1.3665 2.2849-2.2739 0.24519-0.28438 0.50288-0.56217 0.57266-0.61731 0.12264-0.09692 0.12866-0.09732 0.18062-0.01216 0.09523 0.15605 0.09158 0.47497-0.02061 1.7995-0.09469 1.118-0.13197 1.3931-0.26744 1.9733-0.62616 2.6821-1.7249 5.3148-2.6022 6.235-0.19485 0.20439-0.28508 0.26176-0.52889 0.33625-0.39479 0.12062-0.57807 0.31667-0.64333 0.68814-0.06282 0.3576-0.24335 0.61875-0.73023 1.0563-0.9526 0.85614-2.6426 1.83-4.5094 2.5985-1.7461 0.71881-2.917 1.0042-4.6163 1.1251-0.45852 0.03262-0.8469 0.02212-1.8377-0.04968-0.69098-0.05007-1.4134-0.12182-1.6054-0.15944zm0.62849-3.0062c0.65028-0.19995 1.0611-0.28266 1.9567-0.39394 1.2533-0.15574 1.8379-0.44222 1.8784-0.92062 0.01549-0.18252-0.17482-0.41576-0.42589-0.52199-0.43932-0.18587-1.3157-0.21704-2.3156-0.08235-0.63 0.08487-1.0322 0.18917-1.5472 0.40125-0.69698 0.28699-1.0624 0.69245-0.97935 1.0867 0.03856 0.18307 0.22596 0.44213 0.37951 0.52464 0.17021 0.09146 0.56582 0.05629 1.0534-0.09364zm13.345-2.7706c0.0879-0.03305 0.21642-0.13181 0.28561-0.21948 0.10581-0.13409 0.12582-0.1971 0.12596-0.39682 2.25e-4 -0.3042-0.11242-0.49707-0.3598-0.61604-0.44244-0.21279-0.9227 0.0575-0.96325 0.54212-0.04324 0.51676 0.42656 0.87251 0.91148 0.69021zm-0.11178-2.2088c0.58728-0.33273 0.4026-1.1973-0.26763-1.2529-0.29238-0.02424-0.49981 0.0789-0.6311 0.31382-0.1232 0.22046-0.13451 0.32315-0.06175 0.56076 0.11737 0.38332 0.60951 0.57716 0.96048 0.37832zm-0.02034-2.1626c0.22715-0.11541 0.33206-0.30866 0.33228-0.61208 1.62e-4 -0.21934-0.01993-0.27826-0.14554-0.4268-0.1279-0.15126-0.17679-0.17696-0.39982-0.21012-0.29658-0.0441-0.49332 0.03229-0.65577 0.25462-0.22448 0.30724-0.10204 0.84444 0.22726 0.99703 0.15468 0.07168 0.49809 0.07026 0.64158-0.0026z" fill="#fff" stroke-width=".044194"/>
 </g>
</svg>
