<?xml version="1.0" encoding="UTF-8"?>
<svg width="79.985" height="120" version="1.1" viewBox="0 0 79.985 120" xmlns="http://www.w3.org/2000/svg" xmlns:cc="http://creativecommons.org/ns#" xmlns:dc="http://purl.org/dc/elements/1.1/" xmlns:rdf="http://www.w3.org/1999/02/22-rdf-syntax-ns#">
 <metadata>
  <rdf:RDF>
   <cc:Work rdf:about="">
    <dc:format>image/svg+xml</dc:format>
    <dc:type rdf:resource="http://purl.org/dc/dcmitype/StillImage"/>
    <dc:title/>
   </cc:Work>
  </rdf:RDF>
 </metadata>
 <g transform="translate(-101.73 -44.317)">
  <path d="m120.02 164.05c0.0436-0.14589 1.4514-7.1885 3.1284-15.65s3.0856-15.538 3.1304-15.726l0.0814-0.34105h-24.628l0.0839-6.9346c0.32811-27.108 6.771-51.279 17.667-66.277 23.319-32.098 54.769-9.5384 61.173 43.881 0.94652 7.8952 1.1471 12.872 1.0311 25.578l-0.0343 3.7515h-24.285l0.0814 0.34105c0.0447 0.18757 1.4534 7.2643 3.1304 15.726 1.677 8.4617 3.0847 15.504 3.1284 15.65 0.0753 0.25177-1.0354 0.26526-21.844 0.26526s-21.919-0.0135-21.844-0.26526zm-11.361-35.393c0.0467-0.35431 0.15646-1.3604 0.24394-2.2358 1.529-15.302 5.9554-39.033 7.3814-39.575 1.4956-0.56861 1.7227 0.42307 0.893 3.8987-2.4453 10.243-4.7406 23.91-5.9283 35.298-0.13042 1.2505-0.26559 2.4953-0.30038 2.7663l-0.0633 0.49262 7.6355 1.5e-4 -0.0129-2.6906c-0.0708-14.784 2.4974-37.629 4.2302-37.629 0.84042 0 0.86918 0.37401 0.26005 3.3815-0.84077 4.1512-1.5428 9.5522-2.1218 16.323-0.5197 6.0779-0.62529 8.2135-0.71764 14.513l-0.0894 6.1009h3.4158c2.5955 0 3.432-0.0455 3.4835-0.18947 0.0372-0.1042 0.67191-3.2289 1.4104-6.9437l1.3427-6.7542-6.705-11.925 0.34949-0.54611c0.19222-0.30036 2.3647-3.6763 4.8278-7.5022l4.4783-6.9561-0.55794-0.37672c-15.445-10.428-8.0428-34.746 10.576-34.746 18.908 0 26.172 24.98 10.184 35.024l-1.3434 0.84398 4.2407 6.5832c2.3324 3.6208 4.3978 6.829 4.5897 7.1294l0.34905 0.54611-6.705 11.925 1.3427 6.7542c0.73848 3.7148 1.3732 6.8395 1.4104 6.9437 0.0444 0.12436 0.39581 0.18947 1.0225 0.18947h0.9548l0.0912-0.71998c0.36872-2.9096 0.84417-10.915 0.84568-14.238 1e-3 -2.7628 0.27561-3.4297 1.2061-2.9317 0.48098 0.25741 0.50216 0.61529 0.32 5.4064-0.15065 3.9623-0.31394 6.5609-0.7059 11.233l-0.1049 1.2505h3.8144l0.094-0.64419c0.73073-5.0081 0.18779-27.479-0.83381-34.508-0.38028-2.6167 0.0826-3.6217 1.3005-2.8236 1.406 0.92124 2.462 22.073 1.7768 35.589l-0.12104 2.3874 5.8312-1.9e-4 -0.0786-3.221c-0.34969-14.323-1.5607-27.486-3.399-36.947-0.60235-3.0999-0.53562-3.4862 0.60217-3.4862 0.80594 0 0.977 0.3529 1.4996 3.0937 1.9435 10.192 3.4669 27.595 3.5008 39.992l2e-3 0.56841h3.594l0.0966-1.0231c1.1488-12.164-1.4869-34.365-5.6101-47.254-19.559-61.14-65.8-31.471-67.152 43.085l-0.0942 5.1915h3.3632zm37.181-41.491c3.2594-0.68803 6.2422-2.4653 8.454-5.0374 0.69719-0.81072 1.8916-2.6316 1.8926-2.8853 2.5e-4 -0.06252-6.0702-0.11368-13.49-0.11368s-13.49 0.0311-13.49 0.06912c0 0.16596 0.98993 1.7258 1.5909 2.5068 3.4144 4.4373 9.4722 6.6363 15.042 5.4605zm11.83-12.091c1.5671-3.8162-1.5506-11.664-5.9259-14.916-10.788-8.0195-26.748 1.6948-24.008 14.613l0.12055 0.56841h14.852c14.003 0 14.859-0.01518 14.961-0.26526zm-8.863-4.5969c-1.4729-0.94345-1.7441-4.3435-0.45647-5.7226 1.6831-1.8026 3.8201-0.33298 3.8201 2.627 0 2.6146-1.6885 4.1685-3.3636 3.0955zm-13.187-0.30315c-1.4729-0.94345-1.7441-4.3435-0.45647-5.7226 1.6831-1.8026 3.8201-0.33298 3.8201 2.627 0 2.6146-1.6885 4.1685-3.3636 3.0955z" stroke-width=".15158"/>
  <g fill="#fff" stroke-width=".17725">
   <path d="m105.36 125.65c0.39686-16.089 1.978-27.654 5.3982-39.483 2.685-9.2867 6.7411-18.108 11.124-24.192 5.532-7.6788 11.911-12.341 18.443-13.48 10.518-1.8342 20.756 6.1718 27.908 21.824 5.164 11.302 8.2152 24.582 9.6285 41.905 0.32417 3.9734 0.43276 12.914 0.18786 15.465l-0.14886 1.551h-3.4592l-0.1096-5.2733c-0.21627-10.407-1.4354-23.953-2.9711-33.014-0.59154-3.4902-0.92887-4.819-1.302-5.1286-0.14042-0.11653-0.55999-0.18679-0.93238-0.15613-0.65731 0.05412-0.67864 0.07731-0.73087 0.79461-0.0296 0.40638 0.18601 2.0814 0.47911 3.7223 1.7865 10.002 3.1984 26.164 3.2066 36.706l2e-3 2.3486h-5.4295l0.0783-9.2616c0.1-11.825-0.30918-21.21-1.1418-26.189-0.329-1.9675-0.61407-2.6118-1.2232-2.7647-1.0702-0.2686-1.283 0.6649-0.90182 3.9569 0.71217 6.1514 1.0558 15.391 0.95101 25.573-0.0446 4.3383-0.14184 8.0673-0.21602 8.2866-0.12787 0.37811-0.22718 0.39882-1.9122 0.39882h-1.7773l0.12264-1.6396c0.0675-0.90178 0.19495-2.5968 0.28333-3.7667 0.29911-3.9594 0.54129-11.338 0.38977-11.876-0.0969-0.34365-0.31813-0.59101-0.62554-0.69924-0.93587-0.32951-0.88587-0.67162-1.3587 9.2961-0.1917 4.0416-0.45255 7.4709-0.63032 8.2866-0.0745 0.34172-0.20125 0.39882-0.88557 0.39882-0.66647 0-0.82301-0.066-0.9458-0.39882-0.0809-0.21935-0.73357-3.3168-1.4503-6.8832l-1.3032-6.4844 3.3262-5.9188c1.8294-3.2553 3.2927-6.0405 3.2517-6.1893-0.041-0.1488-2.0766-3.3742-4.5236-7.1676l-4.4492-6.897 1.6829-1.1443c3.8658-2.6286 6.376-6.0162 7.6164-10.278 2.3685-8.1388-1.179-17.462-8.3159-21.854-3.3825-2.0816-7.3754-2.9764-11.765-2.6363-6.2718 0.48584-11.889 4.159-14.79 9.6715-0.99583 1.8921-1.4211 3.0071-1.9513 5.1161-0.3402 1.3533-0.39887 2.0389-0.38682 4.52 0.0124 2.5474 0.0727 3.1447 0.46796 4.6297 0.87538 3.2892 2.4325 5.9946 4.8316 8.3949 0.78151 0.78189 1.872 1.7297 2.4233 2.1062l1.0024 0.68459-0.81082 1.2652c-0.44595 0.69586-2.6026 4.0486-4.7926 7.4504l-3.9818 6.1852 0.26344 0.55046c0.1449 0.30276 1.6298 2.975 3.2998 5.9383 1.67 2.9633 3.0364 5.5184 3.0364 5.678 0 0.51564-2.6052 13.312-2.7371 13.444-0.0702 0.0704-1.6045 0.15301-3.4096 0.18351l-3.282 0.0555 0.11379-5.2845c0.26687-12.394 1.2016-22.707 2.8519-31.465 0.5392-2.8615 0.54684-3.2611 0.0673-3.5178-0.51794-0.27719-0.9112 0.12345-1.2667 1.2904-1.6201 5.3185-3.1132 20.016-3.4397 33.858l-0.12019 5.0961h-7.3263l0.49595-4.387c1.256-11.11 3.1965-22.669 5.5542-33.085 0.4464-1.972 0.62241-3.1434 0.58598-3.8996l-0.0521-1.0809h-0.70901c-0.66685 0-0.73335 0.04901-1.1179 0.82388-1.5369 3.0965-5.196 23.173-6.6828 36.665-0.25244 2.291-0.49648 4.345-0.54232 4.5643-0.0789 0.37765-0.16749 0.39882-1.6684 0.39882h-1.5851z"/>
   <path d="m140.13 87.14c-4.3803-0.83086-8.1379-3.4405-10.397-7.2206l-0.39725-0.6647h26.796l-0.66531 1.0858c-1.3604 2.2202-4.0219 4.5325-6.5212 5.6657-2.7123 1.2298-6.0472 1.6588-8.8148 1.1338z"/>
   <path d="m127.85 74.869c-0.0708-0.17116-0.16938-1.2709-0.21904-2.4438-0.076-1.795-0.0305-2.3691 0.28772-3.6274 0.89887-3.5545 3.0018-6.5113 6.1366-8.6281 3.1582-2.1326 7.0618-3.1603 10.385-2.734 4.0842 0.52377 7.22 2.2426 9.7014 5.3177 1.1696 1.4494 2.909 4.9519 3.3975 6.8412 0.42888 1.6588 0.50259 4.2553 0.14214 5.0074l-0.23364 0.48751-14.735 0.04533c-13.909 0.04279-14.742 0.02788-14.863-0.26588zm23.059-4.2792c0.76783-0.46822 1.1988-1.4686 1.2822-2.9767 0.13569-2.4509-1.1592-4.1154-2.8155-3.6192-1.2028 0.36037-1.9354 1.6417-1.9354 3.3851 0 2.6106 1.7684 4.2476 3.4687 3.2108zm-13.229-0.28131c1.7039-0.88112 1.8056-5.2144 0.14954-6.3743-0.58421-0.4092-1.7661-0.35533-2.3542 0.1073-1.4046 1.1049-1.5788 4.4606-0.30507 5.8778 0.60176 0.66953 1.6526 0.83249 2.5098 0.38922z"/>
  </g>
 </g>
</svg>
