<?xml version="1.0" encoding="UTF-8"?>
<svg width="79.985" height="120" version="1.1" viewBox="0 0 79.985 120" xmlns="http://www.w3.org/2000/svg" xmlns:cc="http://creativecommons.org/ns#" xmlns:dc="http://purl.org/dc/elements/1.1/" xmlns:rdf="http://www.w3.org/1999/02/22-rdf-syntax-ns#">
 <metadata>
  <rdf:RDF>
   <cc:Work rdf:about="">
    <dc:format>image/svg+xml</dc:format>
    <dc:type rdf:resource="http://purl.org/dc/dcmitype/StillImage"/>
    <dc:title/>
   </cc:Work>
  </rdf:RDF>
 </metadata>
 <path d="m1.6941 86.4c5.4063 0.023198 74.059 1.3689 77.506 0s-6.9266-84.329-37.976-84.565-44.936 84.542-39.529 84.565z" fill="#fff"/>
 <g transform="translate(-101.73 -44.317)">
  <path d="m120.02 164.05c0.0436-0.14589 1.4514-7.1885 3.1284-15.65s3.0856-15.538 3.1304-15.726l0.0814-0.34105h-24.628l0.0839-6.9346c0.32811-27.108 6.771-51.279 17.667-66.277 23.319-32.098 54.769-9.5384 61.173 43.881 0.94652 7.8952 1.1471 12.872 1.0311 25.578l-0.0343 3.7515h-24.285l0.0814 0.34105c0.0447 0.18757 1.4534 7.2643 3.1304 15.726s3.0847 15.504 3.1284 15.65c0.0753 0.25177-1.0354 0.26526-21.844 0.26526s-21.919-0.0135-21.844-0.26526zm-11.361-35.393c0.0467-0.35431 0.15646-1.3604 0.24394-2.2358 1.529-15.302 5.9554-39.033 7.3814-39.575 1.4956-0.56861 1.7227 0.42307 0.893 3.8987-2.4453 10.243-4.7406 23.91-5.9283 35.298-0.13042 1.2505-0.26559 2.4953-0.30038 2.7663l-0.0633 0.49262 7.6355 1.5e-4 -0.0129-2.6906c-0.0708-14.784 2.4974-37.629 4.2302-37.629 0.84042 0 0.86918 0.37401 0.26005 3.3815-0.84077 4.1512-1.5428 9.5522-2.1218 16.323-0.5197 6.0779-0.62529 8.2135-0.71764 14.513l-0.0894 6.1009h3.4158c2.5955 0 3.432-0.0455 3.4835-0.18947 0.0372-0.1042 0.67191-3.2289 1.4104-6.9437l1.3427-6.7542-6.705-11.925 0.34949-0.54611c0.19222-0.30036 2.3647-3.6763 4.8278-7.5022l4.4783-6.9561-0.55794-0.37672c-15.445-10.428-8.0428-34.746 10.576-34.746 18.908 0 26.172 24.98 10.184 35.024l-1.3434 0.84398 4.2407 6.5832c2.3324 3.6208 4.3978 6.829 4.5897 7.1294l0.34905 0.54611-6.705 11.925 1.3427 6.7542c0.73848 3.7148 1.3732 6.8395 1.4104 6.9437 0.0444 0.12436 0.39581 0.18947 1.0225 0.18947h0.9548l0.0912-0.71998c0.36872-2.9096 0.84417-10.915 0.84568-14.238 1e-3 -2.7628 0.27561-3.4297 1.2061-2.9317 0.48098 0.25741 0.50216 0.61529 0.32 5.4064-0.15065 3.9623-0.31394 6.5609-0.7059 11.233l-0.1049 1.2505h3.8144l0.094-0.64419c0.73073-5.0081 0.18779-27.479-0.83381-34.508-0.38028-2.6167 0.0826-3.6217 1.3005-2.8236 1.406 0.92124 2.462 22.073 1.7768 35.589l-0.12104 2.3874 5.8312-1.9e-4 -0.0786-3.221c-0.34969-14.323-1.5607-27.486-3.399-36.947-0.60235-3.0999-0.53562-3.4862 0.60217-3.4862 0.80594 0 0.977 0.3529 1.4996 3.0937 1.9435 10.192 3.4669 27.595 3.5008 39.992l2e-3 0.56841h3.594l0.0966-1.0231c1.1488-12.164-1.4869-34.365-5.6101-47.254-19.559-61.14-65.8-31.471-67.152 43.085l-0.0942 5.1915h3.3632zm37.181-41.491c3.2594-0.68803 6.2422-2.4653 8.454-5.0374 0.69719-0.81072 1.8916-2.6316 1.8926-2.8853 2.5e-4 -0.06252-6.0702-0.11368-13.49-0.11368s-13.49 0.0311-13.49 0.06912c0 0.16596 0.98993 1.7258 1.5909 2.5068 3.4144 4.4373 9.4722 6.6363 15.042 5.4605zm11.83-12.091c1.5671-3.8162-1.5506-11.664-5.9259-14.916-10.788-8.0195-26.748 1.6948-24.008 14.613l0.12055 0.56841h14.852c14.003 0 14.859-0.01518 14.961-0.26526zm-8.863-4.5969c-1.4729-0.94345-1.7441-4.3435-0.45647-5.7226 1.6831-1.8026 3.8201-0.33298 3.8201 2.627 0 2.6146-1.6885 4.1685-3.3636 3.0955zm-13.187-0.30315c-1.4729-0.94345-1.7441-4.3435-0.45647-5.7226 1.6831-1.8026 3.8201-0.33298 3.8201 2.627 0 2.6146-1.6885 4.1685-3.3636 3.0955z" stroke-width=".15158"/>
 </g>
</svg>
