<?xml version="1.0" encoding="UTF-8"?>
<svg width="19.661mm" height="15.875mm" version="1.1" viewBox="0 0 19.661 15.875" xmlns="http://www.w3.org/2000/svg" xmlns:cc="http://creativecommons.org/ns#" xmlns:dc="http://purl.org/dc/elements/1.1/" xmlns:rdf="http://www.w3.org/1999/02/22-rdf-syntax-ns#">
 <metadata>
  <rdf:RDF>
   <cc:Work rdf:about="">
    <dc:format>image/svg+xml</dc:format>
    <dc:type rdf:resource="http://purl.org/dc/dcmitype/StillImage"/>
    <dc:title/>
   </cc:Work>
  </rdf:RDF>
 </metadata>
 <g transform="translate(-16.765 -94.07)">
  <path d="m28.074 109.91c-0.41788-0.22829-0.40864-0.84981 0.0323-2.1708 0.17181-0.51474 0.62066-1.6355 0.78952-1.9713 0.10202-0.20293 0.21896-0.1881-1.5786-0.20018-1.6698-0.0112-1.6932-0.01-1.5863 0.10473 0.27387 0.29309 1.1163 2.2792 1.2236 2.8847 0.15603 0.88058-0.40251 1.0578-1.1878 0.37683-0.18154-0.15743-0.8009-0.7908-0.96328-0.98508-0.08491-0.10158-0.21149-0.25312-0.28128-0.33675-0.40995-0.49117-0.35562-0.46924-0.53985-0.21798-2.6128 3.5634-3.7911 2.872-2.0674-1.2132 0.31646-0.74999 0.31-0.69384 0.07474-0.65035-3.7844 0.6996-6.5645-4.4025-4.5475-8.3458 0.45288-0.88538 0.58405-0.8263 1.2812 0.57711l0.46543 0.93693 3.997-0.0158 0.51944-1.123c0.73604-1.5913 0.87775-1.6207 1.5317-0.31831 0.501 0.99782 0.7151 2.0083 0.67204 3.1718l-0.01847 0.49912 2.7155 0.01c2.7136 0.01 2.7157 0.01 2.9407 0.0787l0.22519 0.0691 0.09804-0.0678c0.7165-0.49573 1.1755-1.1549 1.1755-1.6882v-0.32323l-0.14178-0.27705c-0.07798-0.15238-0.19659-0.36709-0.26357-0.47715-0.43513-0.71494-0.53311-1.6078-0.24218-2.2071 0.87528-1.8031 3.5239-2.6563 3.9466-1.2714 0.22003 0.72084 0.0054 1.2031-0.74503 1.6742-0.74689 0.46885-0.79826 0.54975-0.64742 1.0195 0.17801 0.55439 0.21131 0.74747 0.19561 1.1342-0.03061 0.75395-0.64237 1.8701-1.3958 2.5465-0.10242 0.092-0.27558 0.25207-0.3848 0.3558-0.10921 0.10374-0.25067 0.23534-0.31435 0.29245l-0.11578 0.10384 0.085 0.20009c0.1922 0.45245 0.10428 1.3426-0.20855 2.1114l-0.11558 0.28405 0.06273 0.10288c0.25047 0.41081 0.78906 1.4921 1.025 2.0576 0.79819 1.9137 0.8126 2.7788 0.04495 2.6984-0.16395-0.0172-0.46522-0.15261-0.58692-0.26385-0.02938-0.0268-0.10272-0.0835-0.16298-0.12579-0.2563-0.18003-1.0517-1.0277-1.5339-1.6346-0.18824-0.23694-0.35201-0.41975-0.36394-0.40624-0.01192 0.0135-0.14767 0.21158-0.30164 0.44014-1.1676 1.7333-2.3494 2.8116-2.8072 2.5615zm0.84811-1.1275c0.65815-0.65998 1.1949-1.3868 2.4913-3.3733 1.5675-2.4018 1.4439-3.7233-0.35884-3.8391l-0.26706-0.0172-0.03605 0.13497c-0.1329 0.49763-0.72516 1.3817-0.92563 1.3817-0.05398 0-0.06223-0.0126-0.0454-0.0693 0.09251-0.31152 0.13976-0.65927 0.14013-1.0312l3.49e-4 -0.40788h-0.92113l-0.03305 0.13083c-0.11419 0.452-0.44986 1.0594-0.75303 1.3625-0.153 0.153-0.28538 0.18956-0.24955 0.0689 0.09777-0.32925 0.13975-0.65665 0.14013-1.0928l3.49e-4 -0.46945h-0.85463l-0.03653 0.14507c-0.124 0.49247-0.7241 1.3941-0.92785 1.3941-0.05398 0-0.06223-0.0126-0.0454-0.0693 0.09401-0.3166 0.13976-0.65861 0.14013-1.0477l4.13e-4 -0.42435-0.62514 0.018-0.06975 0.26166c-0.37343 1.401-1.2364 2.571-2.3749 3.2198-0.46246 0.26354-1.8511 3.6597-1.5994 3.9115 0.12323 0.12323 1.4638-1.4732 2.2919-2.7292 0.29579-0.44867 0.57074-0.865 0.611-0.92517 0.25767-0.38511 0.13472-0.36766 2.5943-0.36827l2.1118-6e-4 0.07249-0.0764c0.4014-0.42318 0.60495 0.12968 0.27788 0.75473-0.57936 1.1072-1.2008 2.7975-1.2712 3.458l-0.01915 0.17951 0.10061-0.0693c0.05533-0.0381 0.25369-0.22276 0.44079-0.41038zm-2.4973-0.21315c-0.1211-0.5777-0.91343-2.3628-1.2897-2.9056-0.0088-0.0127-0.64714 0.98667-0.65759 1.0295-0.0056 0.0229 0.0851 0.15547 0.20151 0.29458 0.11642 0.13911 0.27261 0.32913 0.3471 0.42225 0.33189 0.4149 1.3139 1.3545 1.4156 1.3545 0.01319 0 0.0056-0.0879-0.01696-0.19526zm7.3143-0.15377c-0.04106-0.21142-0.25477-0.89194-0.33991-1.0824-0.03028-0.0677-0.14786-0.34478-0.26131-0.61568-0.18118-0.43264-0.29237-0.66103-0.70044-1.4388l-0.09269-0.17664-0.12823 0.20742c-0.13354 0.21602-0.50932 0.79532-0.60561 0.93361l-0.05551 0.0797 0.38663 0.48978c0.59352 0.75186 1.2624 1.4622 1.6266 1.7272 0.20879 0.15198 0.22224 0.14217 0.17049-0.12425zm-11.986-3.4695c2.934-0.39216 4.5182-4.4304 2.925-7.4559-0.15933-0.30258-0.09851-0.37125-0.55935 0.63158-0.21967 0.47802-0.43211 0.928-0.47208 0.99996l-0.07267 0.13083h-4.7971l-0.42249-0.84564c-0.28755-0.57555-0.43032-0.83164-0.44702-0.80181-1.7418 3.1124 0.69416 7.7623 3.8457 7.341zm-0.82124-0.51026c-0.04233-0.0298-0.08869-0.0734-0.10302-0.097-0.02114-0.0348-0.04022-0.0296-0.10104 0.0275-0.29264 0.27492-0.73618 0.0145-0.71344-0.41887 0.01673-0.31891 0.2114-0.32676 0.24026-0.01 0.01685 0.18513 0.06742 0.27092 0.15971 0.27092 0.18868 0 0.27126-0.18582 0.27126-0.61041v-0.30132l-0.2476-0.27492c-0.19127-0.21238-0.24555-0.2925-0.23857-0.35221l9e-3 -0.0773h1.2929l0.0091 0.0777c0.0071 0.061-0.05102 0.14388-0.26936 0.38421-0.26948 0.29662-0.27856 0.31144-0.28256 0.46098-0.02114 0.79028 0.20158 0.9875 0.38307 0.33921 0.06416-0.2292 0.25486-0.23986 0.24767-0.0139-0.01433 0.45041-0.38541 0.78626-0.65739 0.595zm-1.8369-1.9167c-1.1663-0.43062-0.94338-2.1375 0.29268-2.2412 0.88796-0.0744 1.5148 0.85716 1.1184 1.6622-0.25159 0.51106-0.8879 0.7721-1.4111 0.57892zm0.7427-0.76144c0.14817-0.0569 0.16286-0.30354 0.02455-0.41234-0.20663-0.16253-0.48433 0.0714-0.36309 0.30581 0.06098 0.11793 0.19717 0.16078 0.33854 0.10653zm-0.60114-0.46218c0.07094-0.0902 0.08612-0.28443 0.02686-0.3437-0.13307-0.13308-0.3384 0.1256-0.26555 0.33456 0.04078 0.11696 0.15057 0.12117 0.23869 9e-3zm2.9984 1.0389c-1.1663-0.43062-0.94338-2.1375 0.29268-2.2412 0.88795-0.0744 1.5148 0.85716 1.1184 1.6622-0.25159 0.51105-0.8879 0.7721-1.4111 0.57891zm0.7427-0.76143c0.14817-0.0569 0.16286-0.30355 0.02455-0.41234-0.20663-0.16253-0.48433 0.0714-0.36309 0.30581 0.06098 0.11792 0.19717 0.16078 0.33854 0.10653zm-0.60114-0.46218c0.07094-0.0902 0.08612-0.28444 0.02686-0.3437-0.13307-0.13307-0.33839 0.1256-0.26555 0.33456 0.04078 0.11696 0.15057 0.12117 0.23869 9e-3zm10.377 0.36831c0.04186-0.0283 0.16318-0.12685 0.2696-0.21905l0.19349-0.16763-0.14858-0.15804c-0.08172-0.0869-0.17129-0.19092-0.19904-0.2311l-0.05045-0.073-0.63536 0.57994 0.23088 0.15734c0.27156 0.18506 0.24408 0.17602 0.33947 0.11158zm1.1462-1.0706c0.37925-0.41402 0.50936-0.61166 0.44986-0.68334-0.1187-0.14302-0.84357-0.46663-0.90582-0.40438-0.0088 0.0088-0.0299 0.10442-0.04688 0.21248-0.01706 0.10853-0.0813 0.29981-0.14352 0.42735-0.14115 0.28931-0.1496 0.23519 0.08415 0.53874 0.24424 0.31717 0.17875 0.32775 0.5622-0.0909zm0.80405-1.404c0.08041-0.23549 0.12958-0.75983 0.07626-0.81316-0.0065-0.0065-0.408-0.01626-0.89225-0.02172l-0.88045-0.0099 0.1574 0.31483c0.12185 0.24373 0.17158 0.31499 0.22019 0.31553 0.19565 0.0024 0.91371 0.2891 1.107 0.44234 0.09464 0.07504 0.11639 0.05166 0.21186-0.22796zm-0.20312-1.5018c0.02174-0.01379 0.03118-0.04682 0.02098-0.07341-0.01021-0.02658-0.02798-0.11376-0.03952-0.19373l-0.02098-0.1454-0.40019-0.22965c-1.3973-0.80185-1.5827-0.77923-1.4799 0.18057 0.03379 0.31549 0.07817 0.33624 0.87959 0.41122 0.80075 0.07492 0.98711 0.08394 1.04 0.05039zm0.4429-1.0408c0.25395-0.22982-0.28379-1.4515-0.75134-1.707-0.11541-0.06306-1.1291 0.7024-1.0375 0.78343 0.0074 0.0066 0.17977 0.09648 0.38294 0.19976 0.39864 0.20265 0.72801 0.39073 1.0928 0.62406 0.27 0.17268 0.24228 0.16385 0.31311 0.09976z" stroke-width=".030784"/>
  <g fill="#fff" stroke-width=".031096">
   <path d="m20.766 104.9c-1.1903-0.26613-2.1961-1.1528-2.8404-2.5041-0.26338-0.55239-0.41054-1.016-0.5229-1.6474-0.06186-0.34761-0.05415-1.3413 0.01321-1.7017 0.06817-0.36472 0.21407-0.82094 0.37068-1.1592l0.1224-0.26432 0.07644 0.12438c0.04204 0.06841 0.23359 0.43561 0.42566 0.816l0.34921 0.69162 4.8348 6.36e-4 0.125-0.24861c0.06875-0.13674 0.2659-0.55292 0.43812-0.92485 0.30738-0.66383 0.3555-0.7545 0.4005-0.7545 0.04049 0 0.33995 0.66653 0.44816 0.9975 0.35086 1.0731 0.37422 2.2737 0.06501 3.3408-0.25012 0.86311-0.63728 1.557-1.1937 2.1394-0.47045 0.49241-1.0823 0.86884-1.6817 1.0347-0.37203 0.10295-1.1009 0.13337-1.4304 0.0597zm0.49131-0.43254c0.16828-0.0876 0.29989-0.28808 0.33559-0.51131 0.02983-0.18654-0.0032-0.2846-0.09601-0.2846-0.08954 0-0.1429 0.0741-0.21556 0.29953-0.0611 0.18953-0.1604 0.29929-0.20615 0.22787-0.06064-0.0947-0.09116-0.27213-0.09133-0.53095-1.9e-4 -0.29846-0.01986-0.26019 0.36521-0.71053 0.11685-0.13666 0.16325-0.21699 0.16325-0.28261v-0.0917h-0.654c-0.83184 0-0.83178-6e-5 -0.40673 0.48619l0.22113 0.25297-7.8e-4 0.22902c-0.0013 0.39821-0.09982 0.64882-0.25502 0.64882-0.06133 0-0.14847-0.16282-0.14847-0.2774 0-0.1779-0.13086-0.2781-0.22112-0.16934-0.06059 0.073-0.0519 0.37767 0.01433 0.50253 0.11343 0.21385 0.41671 0.2916 0.62802 0.161l0.10205-0.0631 0.11586 0.0786c0.13095 0.0889 0.22752 0.0985 0.34972 0.0349zm-1.4097-1.9366c0.31534-0.1097 0.55546-0.32638 0.69592-0.62801 0.0696-0.14947 0.08146-0.21751 0.08194-0.47017 4.92e-4 -0.25614-0.01052-0.31905-0.08278-0.47322-0.28866-0.61589-0.96883-0.86085-1.5926-0.57357-0.55333 0.25485-0.79762 1.0028-0.51334 1.5717 0.25948 0.51926 0.86212 0.76415 1.4108 0.57329zm2.9409-0.13444c0.39631-0.0752 0.70872-0.30604 0.87721-0.64831 0.09261-0.18813 0.10106-0.23009 0.10106-0.50201 0-0.27237-0.0084-0.31369-0.10181-0.50353-0.208-0.4225-0.58258-0.65655-1.0487-0.6553-0.41623 1e-3 -0.74248 0.17152-0.9617 0.50229-0.14673 0.22139-0.1869 0.36937-0.18669 0.68764 1.53e-4 0.22385 0.01368 0.29394 0.08838 0.45781 0.15014 0.32938 0.47971 0.58981 0.83517 0.65997 0.18513 0.0365 0.21156 0.0367 0.39712 1e-3z"/>
   <path d="m22.712 101.51c-0.10072-0.10072-0.10201-0.21873-0.0035-0.31726 0.09325-0.0933 0.16949-0.0965 0.27708-0.0119 0.06287 0.0494 0.08193 0.092 0.08193 0.18276 0 0.13298-0.03998 0.17902-0.1797 0.20697-0.07687 0.0154-0.11197 3e-3 -0.17584-0.0606z"/>
   <path d="m22.183 101.13c-0.06104-0.0611-0.06215-0.14622-0.0034-0.25988 0.08847-0.17109 0.23437-0.14368 0.23437 0.044 0 0.0961-0.09906 0.26471-0.15552 0.26471-0.01464 0-0.04861-0.022-0.07548-0.0488z"/>
   <path d="m19.571 101.7c-0.10072-0.10072-0.10201-0.21872-0.0035-0.31726 0.09325-0.0932 0.16949-0.0965 0.27709-0.0119 0.06287 0.0494 0.08193 0.092 0.08193 0.18277 0 0.13298-0.03998 0.17902-0.1797 0.20697-0.07687 0.0154-0.11197 3e-3 -0.17584-0.0606z"/>
   <path d="m19.043 101.32c-0.06611-0.0661-0.06128-0.16362 0.01424-0.28748 0.04594-0.0753 0.0815-0.10047 0.13204-0.0933 0.10045 0.0143 0.11394 0.22861 0.02176 0.3458-0.07625 0.0969-0.10093 0.10207-0.16804 0.035z"/>
   <path d="m28.416 109.12c0.0033-0.42646 0.55311-1.9955 1.0927-3.1182 0.29158-0.60677 0.34931-0.78538 0.32982-1.0204-0.02516-0.30345-0.20313-0.36306-0.42938-0.14382l-0.11015 0.10674-2.0199 1.7e-4c-1.1731 9e-5 -2.0981 0.013-2.2064 0.0307-0.10252 0.0168-0.22147 0.0559-0.26432 0.0868-0.04285 0.031-0.3088 0.39962-0.591 0.8193-0.61216 0.91039-0.80438 1.1782-1.2579 1.7528-0.61017 0.77303-1.1568 1.3512-1.233 1.3041-0.16127-0.0997 0.37225-1.671 0.98651-2.9055 0.36534-0.73423 0.45526-0.85184 0.85167-1.1139 1.0355-0.68453 1.7816-1.7739 2.1602-3.1541l0.04905-0.1788h0.59791l-0.01884 0.48977c-0.01663 0.43219-0.04334 0.62816-0.12926 0.94843-0.01981 0.0738-0.01384 0.0855 0.04372 0.0855 0.106 0 0.20553-0.0829 0.38622-0.32158 0.22629-0.29894 0.43175-0.66836 0.53456-0.96114l0.08463-0.24099h0.80792l-0.01617 0.58305c-0.011 0.39684-0.03195 0.63768-0.06556 0.75408-0.0674 0.23337-0.06439 0.27987 0.01807 0.27987 0.08464 0 0.34771-0.26605 0.50281-0.50852 0.16787-0.26243 0.34477-0.62892 0.42623-0.88303l0.07226-0.22545h0.89899l-0.01946 0.45867c-0.01707 0.40236-0.04747 0.62347-0.13038 0.94844-0.03562 0.13959 0.10342 0.11515 0.26535-0.0466 0.26034-0.26013 0.68214-0.98451 0.73388-1.2603l0.02045-0.10901 0.29889 0.0195c0.66962 0.0437 1.0821 0.25435 1.2782 0.65273 0.27562 0.55987 0.05942 1.4303-0.656 2.641-0.45453 0.76917-1.6357 2.5026-2.1169 3.1066-0.2587 0.32474-1.0201 1.1263-1.1213 1.1805-0.04631 0.0248-0.05471 0.0159-0.05414-0.0572z"/>
   <path d="m26.255 108.61c-0.46624-0.38755-1.4341-1.4227-1.6862-1.8033l-0.07538-0.11385 0.18298-0.2904c0.10064-0.15972 0.24638-0.3849 0.32388-0.50039l0.14089-0.20998 0.15916 0.28772c0.47369 0.85628 1.1616 2.52 1.1207 2.7103-0.0081 0.0377-0.04673 0.0191-0.16606-0.08z"/>
   <path d="m33.531 108.48c-0.19508-0.14574-0.72893-0.68153-1.0764-1.0804-0.20191-0.23172-0.80418-0.9772-0.84606-1.0472-0.01243-0.0208 0.09035-0.20882 0.23799-0.43534 0.14294-0.21931 0.31212-0.48115 0.37597-0.58187l0.11608-0.18312 0.06097 0.10025c0.15165 0.24936 0.61002 1.2056 0.83196 1.7355 0.26093 0.62307 0.51289 1.4086 0.49624 1.5471l-0.01015 0.0844z"/>
   <path d="m32.44 101.36c-0.10118-0.0704-0.19096-0.13486-0.19951-0.14318-0.0086-8e-3 0.11623-0.13752 0.27729-0.28711l0.29284-0.27199 0.14947 0.17962c0.08221 0.0988 0.16383 0.18848 0.18138 0.19932 0.01755 0.0109 0.03191 0.0317 0.03191 0.0464 0 0.038-0.46197 0.40494-0.50978 0.40494-0.0218 0-0.12243-0.0576-0.2236-0.12805z"/>
   <path d="m33.348 100.48c-0.09614-0.12773-0.1748-0.25242-0.1748-0.27708 0-0.0247 0.04167-0.13294 0.0926-0.24063 0.05093-0.10769 0.11499-0.29643 0.14235-0.41942l0.04975-0.22362 0.1142 0.03018c0.17201 0.04548 0.66655 0.29086 0.73209 0.36328 0.05623 0.06213 0.05587 0.06644-0.01499 0.18175-0.13183 0.21452-0.67739 0.81777-0.73957 0.81777-0.01477 0-0.1055-0.1045-0.20163-0.23224z"/>
   <path d="m34.314 99.112c-0.21869-0.11824-0.68092-0.2934-0.89642-0.33968-0.06606-0.01422-0.11098-0.07328-0.22818-0.30022-0.08026-0.15539-0.14083-0.28764-0.1346-0.29387 0.0062-0.0062 0.39357-3e-3 0.86075 0.0074 0.72157 0.0159 0.85217 0.02586 0.86766 0.06623 0.02626 0.06844-0.04417 0.58379-0.10478 0.76664-0.07965 0.24029-0.08864 0.2426-0.36443 0.09349z"/>
   <path d="m33.718 97.461c-0.81788-0.07378-1.0349-0.12416-1.0884-0.25268-0.0404-0.09694-0.05479-0.67183-0.01911-0.76339 0.05392-0.13833 0.16006-0.16796 0.36991-0.10328 0.18152 0.05596 0.71413 0.32443 1.1881 0.59892 0.2639 0.15282 0.26391 0.15283 0.30251 0.32243 0.02123 0.09328 0.03235 0.1871 0.02471 0.20848-0.01699 0.04754-0.15517 0.04567-0.7777-0.01048z"/>
  </g>
 </g>
</svg>
