<?xml version="1.0" encoding="UTF-8"?>
<svg width="19.661mm" height="15.875mm" version="1.1" viewBox="0 0 19.661 15.875" xmlns="http://www.w3.org/2000/svg" xmlns:cc="http://creativecommons.org/ns#" xmlns:dc="http://purl.org/dc/elements/1.1/" xmlns:rdf="http://www.w3.org/1999/02/22-rdf-syntax-ns#">
 <metadata>
  <rdf:RDF>
   <cc:Work rdf:about="">
    <dc:format>image/svg+xml</dc:format>
    <dc:type rdf:resource="http://purl.org/dc/dcmitype/StillImage"/>
    <dc:title/>
   </cc:Work>
  </rdf:RDF>
 </metadata>
 <path d="m15.161 7.0918 0.97726-0.88482 0.39619-1.3338-0.96406-1.9545 0.4226-1.3338 1.3602-1.0829 1.0565 0.80558-0.05282 1.2282-0.48863 0.56787 0.31695 1.347-0.40939 1.3867-1.8489 1.9017z" fill="#fff"/>
 <path d="m4.9738 15.121 2.2971-2.377 2.2372 2.1773 0.51935-0.29963-1.4382-3.216 4.015-0.03995-1.2385 3.9351 0.65918 0.03995 2.3171-2.8564 2.6767 2.437 0.33958-0.49938-1.7578-3.995 0.32624-2.6881-2.4636-0.54785-4.5943-0.019976s-0.33052-4.2851-0.97878-4.1948c-0.64825 0.090385-1.3383 1.9176-1.3383 1.9176l-4.3146-0.03995-1.0587-1.8177-0.81898 2.0974s-0.56993 2.4011 0.81898 4.1548c1.3889 1.7537 3.8951 1.9176 3.8951 1.9176l0.8789 0.25968-1.3383 3.236z" fill="#fff"/>
 <g transform="translate(-16.765 -94.07)">
  <path d="m28.074 109.91c-0.41788-0.22829-0.40864-0.84981 0.0323-2.1708 0.17181-0.51474 0.62066-1.6355 0.78952-1.9713 0.10202-0.20293 0.21896-0.1881-1.5786-0.20018-1.6698-0.0112-1.6932-0.01-1.5863 0.10473 0.27387 0.29309 1.1163 2.2792 1.2236 2.8847 0.15603 0.88058-0.40251 1.0578-1.1878 0.37683-0.18154-0.15743-0.8009-0.7908-0.96328-0.98508-0.08491-0.10158-0.21149-0.25312-0.28128-0.33675-0.40995-0.49117-0.35562-0.46924-0.53985-0.21798-2.6128 3.5634-3.7911 2.872-2.0674-1.2132 0.31646-0.74999 0.31-0.69384 0.07474-0.65035-3.7844 0.6996-6.5645-4.4025-4.5475-8.3458 0.45288-0.88538 0.58405-0.8263 1.2812 0.57711l0.46543 0.93693 3.997-0.0158 0.51944-1.123c0.73604-1.5913 0.87775-1.6207 1.5317-0.31831 0.501 0.99782 0.7151 2.0083 0.67204 3.1718l-0.01847 0.49912 2.7155 0.01c2.7136 0.01 2.7157 0.01 2.9407 0.0787l0.22519 0.0691 0.09804-0.0678c0.7165-0.49573 1.1755-1.1549 1.1755-1.6882v-0.32323l-0.14178-0.27705c-0.07798-0.15238-0.19659-0.36709-0.26357-0.47715-0.43513-0.71494-0.53311-1.6078-0.24218-2.2071 0.87528-1.8031 3.5239-2.6563 3.9466-1.2714 0.22003 0.72084 0.0054 1.2031-0.74503 1.6742-0.74689 0.46885-0.79826 0.54975-0.64742 1.0195 0.17801 0.55439 0.21131 0.74747 0.19561 1.1342-0.03061 0.75395-0.64237 1.8701-1.3958 2.5465-0.10242 0.092-0.27558 0.25207-0.3848 0.3558-0.10921 0.10374-0.25067 0.23534-0.31435 0.29245l-0.11578 0.10384 0.085 0.20009c0.1922 0.45245 0.10428 1.3426-0.20855 2.1114l-0.11558 0.28405 0.06273 0.10288c0.25047 0.41081 0.78906 1.4921 1.025 2.0576 0.79819 1.9137 0.8126 2.7788 0.04495 2.6984-0.16395-0.0172-0.46522-0.15261-0.58692-0.26385-0.02938-0.0268-0.10272-0.0835-0.16298-0.12579-0.2563-0.18003-1.0517-1.0277-1.5339-1.6346-0.18824-0.23694-0.35201-0.41975-0.36394-0.40624-0.01192 0.0135-0.14767 0.21158-0.30164 0.44014-1.1676 1.7333-2.3494 2.8116-2.8072 2.5615zm0.84811-1.1275c0.65815-0.65998 1.1949-1.3868 2.4913-3.3733 1.5675-2.4018 1.4439-3.7233-0.35884-3.8391l-0.26706-0.0172-0.03605 0.13497c-0.1329 0.49763-0.72516 1.3817-0.92563 1.3817-0.05398 0-0.06223-0.0126-0.0454-0.0693 0.09251-0.31152 0.13976-0.65927 0.14013-1.0312l3.49e-4 -0.40788h-0.92113l-0.03305 0.13083c-0.11419 0.452-0.44986 1.0594-0.75303 1.3625-0.153 0.153-0.28538 0.18956-0.24955 0.0689 0.09777-0.32925 0.13975-0.65665 0.14013-1.0928l3.49e-4 -0.46945h-0.85463l-0.03653 0.14507c-0.124 0.49247-0.7241 1.3941-0.92785 1.3941-0.05398 0-0.06223-0.0126-0.0454-0.0693 0.09401-0.3166 0.13976-0.65861 0.14013-1.0477l4.13e-4 -0.42435-0.62514 0.018-0.06975 0.26166c-0.37343 1.401-1.2364 2.571-2.3749 3.2198-0.46246 0.26354-1.8511 3.6597-1.5994 3.9115 0.12323 0.12323 1.4638-1.4732 2.2919-2.7292 0.29579-0.44867 0.57074-0.865 0.611-0.92517 0.25767-0.38511 0.13472-0.36766 2.5943-0.36827l2.1118-6e-4 0.07249-0.0764c0.4014-0.42318 0.60495 0.12968 0.27788 0.75473-0.57936 1.1072-1.2008 2.7975-1.2712 3.458l-0.01915 0.17951 0.10061-0.0693c0.05533-0.0381 0.25369-0.22276 0.44079-0.41038zm-2.4973-0.21315c-0.1211-0.5777-0.91343-2.3628-1.2897-2.9056-0.0088-0.0127-0.64714 0.98667-0.65759 1.0295-0.0056 0.0229 0.0851 0.15547 0.20151 0.29458 0.11642 0.13911 0.27261 0.32913 0.3471 0.42225 0.33189 0.4149 1.3139 1.3545 1.4156 1.3545 0.01319 0 0.0056-0.0879-0.01696-0.19526zm7.3143-0.15377c-0.04106-0.21142-0.25477-0.89194-0.33991-1.0824-0.03028-0.0677-0.14786-0.34478-0.26131-0.61568-0.18118-0.43264-0.29237-0.66103-0.70044-1.4388l-0.09269-0.17664-0.12823 0.20742c-0.13354 0.21602-0.50932 0.79532-0.60561 0.93361l-0.05551 0.0797 0.38663 0.48978c0.59352 0.75186 1.2624 1.4622 1.6266 1.7272 0.20879 0.15198 0.22224 0.14217 0.17049-0.12425zm-11.986-3.4695c2.934-0.39216 4.5182-4.4304 2.925-7.4559-0.15933-0.30258-0.09851-0.37125-0.55935 0.63158-0.21967 0.47802-0.43211 0.928-0.47208 0.99996l-0.07267 0.13083h-4.7971l-0.42249-0.84564c-0.28755-0.57555-0.43032-0.83164-0.44702-0.80181-1.7418 3.1124 0.69416 7.7623 3.8457 7.341zm-0.82124-0.51026c-0.04233-0.0298-0.08869-0.0734-0.10302-0.097-0.02114-0.0348-0.04022-0.0296-0.10104 0.0275-0.29264 0.27492-0.73618 0.0145-0.71344-0.41887 0.01673-0.31891 0.2114-0.32676 0.24026-0.01 0.01685 0.18513 0.06742 0.27092 0.15971 0.27092 0.18868 0 0.27126-0.18582 0.27126-0.61041v-0.30132l-0.2476-0.27492c-0.19127-0.21238-0.24555-0.2925-0.23857-0.35221l9e-3 -0.0773h1.2929l0.0091 0.0777c0.0071 0.061-0.05102 0.14388-0.26936 0.38421-0.26948 0.29662-0.27856 0.31144-0.28256 0.46098-0.02114 0.79028 0.20158 0.9875 0.38307 0.33921 0.06416-0.2292 0.25486-0.23986 0.24767-0.0139-0.01433 0.45041-0.38541 0.78626-0.65739 0.595zm-1.8369-1.9167c-1.1663-0.43062-0.94338-2.1375 0.29268-2.2412 0.88796-0.0744 1.5148 0.85716 1.1184 1.6622-0.25159 0.51106-0.8879 0.7721-1.4111 0.57892zm0.7427-0.76144c0.14817-0.0569 0.16286-0.30354 0.02455-0.41234-0.20663-0.16253-0.48433 0.0714-0.36309 0.30581 0.06098 0.11793 0.19717 0.16078 0.33854 0.10653zm-0.60114-0.46218c0.07094-0.0902 0.08612-0.28443 0.02686-0.3437-0.13307-0.13308-0.3384 0.1256-0.26555 0.33456 0.04078 0.11696 0.15057 0.12117 0.23869 9e-3zm2.9984 1.0389c-1.1663-0.43062-0.94338-2.1375 0.29268-2.2412 0.88795-0.0744 1.5148 0.85716 1.1184 1.6622-0.25159 0.51105-0.8879 0.7721-1.4111 0.57891zm0.7427-0.76143c0.14817-0.0569 0.16286-0.30355 0.02455-0.41234-0.20663-0.16253-0.48433 0.0714-0.36309 0.30581 0.06098 0.11792 0.19717 0.16078 0.33854 0.10653zm-0.60114-0.46218c0.07094-0.0902 0.08612-0.28444 0.02686-0.3437-0.13307-0.13307-0.33839 0.1256-0.26555 0.33456 0.04078 0.11696 0.15057 0.12117 0.23869 9e-3zm10.377 0.36831c0.04186-0.0283 0.16318-0.12685 0.2696-0.21905l0.19349-0.16763-0.14858-0.15804c-0.08172-0.0869-0.17129-0.19092-0.19904-0.2311l-0.05045-0.073-0.63536 0.57994 0.23088 0.15734c0.27156 0.18506 0.24408 0.17602 0.33947 0.11158zm1.1462-1.0706c0.37925-0.41402 0.50936-0.61166 0.44986-0.68334-0.1187-0.14302-0.84357-0.46663-0.90582-0.40438-0.0088 0.0088-0.0299 0.10442-0.04688 0.21248-0.01706 0.10853-0.0813 0.29981-0.14352 0.42735-0.14115 0.28931-0.1496 0.23519 0.08415 0.53874 0.24424 0.31717 0.17875 0.32775 0.5622-0.0909zm0.80405-1.404c0.08041-0.23549 0.12958-0.75983 0.07626-0.81316-0.0065-0.0065-0.408-0.01626-0.89225-0.02172l-0.88045-0.0099 0.1574 0.31483c0.12185 0.24373 0.17158 0.31499 0.22019 0.31553 0.19565 0.0024 0.91371 0.2891 1.107 0.44234 0.09464 0.07504 0.11639 0.05166 0.21186-0.22796zm-0.20312-1.5018c0.02174-0.01379 0.03118-0.04682 0.02098-0.07341-0.01021-0.02658-0.02798-0.11376-0.03952-0.19373l-0.02098-0.1454-0.40019-0.22965c-1.3973-0.80185-1.5827-0.77923-1.4799 0.18057 0.03379 0.31549 0.07817 0.33624 0.87959 0.41122 0.80075 0.07492 0.98711 0.08394 1.04 0.05039zm0.4429-1.0408c0.25395-0.22982-0.28379-1.4515-0.75134-1.707-0.11541-0.06306-1.1291 0.7024-1.0375 0.78343 0.0074 0.0066 0.17977 0.09648 0.38294 0.19976 0.39864 0.20265 0.72801 0.39073 1.0928 0.62406 0.27 0.17268 0.24228 0.16385 0.31311 0.09976z" stroke-width=".030784"/>
 </g>
</svg>
