<?xml version="1.0" encoding="UTF-8"?>
<svg width="74.622" height="120" version="1.1" viewBox="0 0 74.622 120" xmlns="http://www.w3.org/2000/svg" xmlns:cc="http://creativecommons.org/ns#" xmlns:dc="http://purl.org/dc/elements/1.1/" xmlns:rdf="http://www.w3.org/1999/02/22-rdf-syntax-ns#">
 <metadata>
  <rdf:RDF>
   <cc:Work rdf:about="">
    <dc:format>image/svg+xml</dc:format>
    <dc:type rdf:resource="http://purl.org/dc/dcmitype/StillImage"/>
    <dc:title/>
   </cc:Work>
  </rdf:RDF>
 </metadata>
 <g transform="translate(-153.72 -22.737)">
  <path d="m160.11 82.476h45.354l-0.3372-28.157h20.232l-14.331-19.726-21.581-9.7789-15.68 4.7209-11.296 15.849z" fill="#fff"/>
  <path d="m153.82 140.95c0.23782-4.2861 0.81867-14.281 0.88416-15.214 0.0797-1.1357 0.0842-1.2114 0.59654-10.143 0.20031-3.4916 0.4934-8.5155 0.65131-11.164 0.15792-2.6488 0.48593-8.2638 0.72892-12.478 0.243-4.214 0.57101-9.829 0.72892-12.478 0.15792-2.6488 0.45134-7.6727 0.65206-11.164 0.20072-3.4916 0.39727-6.808 0.43678-7.3699 0.0395-0.56186 0.14438-2.4007 0.23305-4.0863 0.8121-15.438 6.3784-25.02 18.6-32.019 9.461-5.4181 25.774-0.06382 39.449 12.948 5.0038 4.7612 10.348 13.021 11.467 17.721l0.0955 0.40133h-21.31l0.0724 0.98509c0.0398 0.5418 0.16942 3.1851 0.28795 5.874 0.11853 2.6889 0.25016 5.5457 0.29251 6.3483 0.0423 0.80266 0.20774 4.2833 0.36753 7.7348 0.15979 3.4514 0.38826 8.344 0.50771 10.872 0.11945 2.5284 0.34999 7.4538 0.5123 10.945 0.58959 12.683 0.87512 18.784 0.94933 20.285 0.10165 2.0566 0.32949 6.9422 0.50703 10.872 0.21762 4.8173 0.28909 6.3074 0.44449 9.2671 0.078 1.4849 0.14179 2.9133 0.14184 3.1742l8e-5 0.4743h-57.395zm35.259-62.141c4.6834-0.46158 10.288-1.7434 13.337-3.0501l0.60009-0.2572-0.0961-2.2464c-0.0529-1.2355-0.13546-3.0673-0.18356-4.0707-0.18606-3.8805-0.51425-11.06-0.54373-11.894-0.0534-1.5129 0.20751-1.3864-2.8614-1.3864-4.2292 0-5.9721-2.2922-3.2954-4.3341l0.536-0.40888 24.46-0.14594-0.95329-1.5324c-2.048-3.2921-4.3083-6.2067-6.6496-8.5747-3.3885-3.4272-7.803-6.8642-10.632-8.2775-0.60199-0.30078-1.193-0.62968-1.3134-0.73089-1.7209-1.4465-9.7192-3.7019-14.229-4.0123-9.701-0.66774-20.348 9.7152-22.893 22.325-0.34967 1.7327-0.41631 2.5175-0.89837 10.581-0.53238 8.9049-0.79935 13.469-0.79947 13.668-1.1e-4 0.17008 0.50953 0.45679 1.7225 0.96908 6.9552 2.9374 16.257 4.2102 24.692 3.3789zm5.1078-16.295c-0.85272-0.31172-1.1131-1.2099-0.54299-1.8727l0.33263-0.38671 2.2428 0.01102c2.7923 0.01372 3.3927 0.33041 2.9307 1.5457-0.25948 0.6825-3.6897 1.1681-4.9631 0.70267zm-11.333-17.706c-4.7215-0.94626-3.029-7.6852 1.92-7.6451 2.4422 0.01977 3.4319 0.98008 3.4281 3.3263-4e-3 2.6647-2.7079 4.848-5.3481 4.3188zm1.7887-2.9727c0.86494-0.86494 0.54282-1.8388-0.6082-1.8388-0.5847 0-0.94137 0.39621-1.0437 1.1595-0.15786 1.1769 0.772 1.5593 1.6519 0.67937z" stroke-width=".14594"/>
 </g>
</svg>
