<?xml version="1.0" encoding="UTF-8"?>
<svg width="720" height="1038" version="1.1" viewBox="0 0 720 1038" xmlns="http://www.w3.org/2000/svg" xmlns:cc="http://creativecommons.org/ns#" xmlns:dc="http://purl.org/dc/elements/1.1/" xmlns:rdf="http://www.w3.org/1999/02/22-rdf-syntax-ns#">
 <metadata>
  <rdf:RDF>
   <cc:Work rdf:about="">
    <dc:format>image/svg+xml</dc:format>
    <dc:type rdf:resource="http://purl.org/dc/dcmitype/StillImage"/>
    <dc:title/>
   </cc:Work>
  </rdf:RDF>
 </metadata>
 <path d="m158.75 893.9 415.2 6.1059-80.598-553.19 48.542-2.7476 1.8318 44.878 47.931 0.91588 0.30529-119.98-48.236-0.91588-2.7476 42.741-39.383-1.2212-7.675-239.68-259.05 10.362 5.181 232.28-45.734-2.0513-3.4857-42.419-47.061 0.86351 0.8635 114.85 45.766 4.3175 3.0222-46.197 44.902 2.1588z" fill="#fff"/>
 <path d="m149.32 909.25c0.32353-2.0625 1.4811-9.6 2.5724-16.75 13.188-86.407 18.362-120.37 32.598-214 9.1155-59.95 21.958-144.32 28.539-187.5l11.966-78.5-3.1e-4 -30.25-3e-4 -30.25h-27v45h-61v-136h61v44h27v-253h286v253h24v-44h61v136h-61v-45h-24v26.329c0 30.019-2.1941 12.188 21.493 174.67 33.394 229.07 46.503 319.28 47.444 326.5 0.57341 4.4 1.7183 12.95 2.5443 19 0.82596 6.05 1.5055 11.788 1.51 12.75 8e-3 1.6613-11.019 1.75-217.62 1.75h-217.63zm401.2-24.5c-0.81789-4.6755-15.522-105.99-15.522-106.95 0-0.44149-75.339-0.80271-167.42-0.80271h-167.42l-0.5756 2.75c-0.31657 1.5125-3.9405 25.025-8.0532 52.25s-7.7348 50.962-8.0492 52.75l-0.57161 3.25h368.18zm-20.483-138.5c0.0216-0.4125-3.2124-23.338-7.1868-50.946l-7.2261-50.196-38.151-38.113-14.474 29.003c-7.9606 15.952-14.705 28.994-14.988 28.982-0.52332-0.0211-2.0608-1.392-38.389-34.229-11.409-10.312-21.111-18.75-21.561-18.75-0.6288 0-33.616 37.582-51.276 58.417l-2.4726 2.9172-3.2406-4.4172c-1.7823-2.4295-8.4235-11.842-14.758-20.917-6.3347-9.075-12.301-17.316-13.259-18.314-1.6626-1.732-2.3374-0.0417-14.973 37.5-15.383 45.706-14.777 44.083-16.261 43.588-0.6308-0.21027-11.462-21.733-24.07-47.829-12.608-26.095-23.001-47.524-23.095-47.619-0.24144-0.24343-19.746 128.9-19.698 130.42 0.0442 1.4097 325 1.9095 325.08 0.5zm-235.95-133.34c5.8463-5.8463 8.7635-3.4226 26.826 22.288l13.137 18.7 3.7816-4.1996c2.0799-2.3098 11.141-12.75 20.137-23.2 32.368-37.602 25.894-36.791 58.267-7.3036 12.864 11.717 24.357 22.146 25.54 23.176l2.1507 1.8723 7.6311-15.872c4.1971-8.7298 10.104-21.272 13.128-27.872 8.9531-19.546 6.637-19.812 29.764 3.4116 9.3227 9.3616 17.075 16.896 17.228 16.743 0.15282-0.15281-5.3175-38.725-12.156-85.716-6.8388-46.991-13.346-91.738-14.461-99.438s-2.2798-15.462-2.5894-17.25l-0.56287-3.25h-30.486c-23.524 0-30.571 0.28547-30.858 1.25-0.20461 0.6875-1.1424 4.625-2.084 8.75-17.235 75.502-83.78 72.689-100.55-4.25l-1.2531-5.75h-61.591l-0.58445 3.25c-0.32144 1.7875-6.5957 42.849-13.943 91.247l-13.358 87.997 2.2673 4.003c2.8163 4.9722 22.682 43.742 33.002 64.408l7.6934 15.405 11.004-33.243c6.3783-19.269 11.808-34.047 12.916-35.155zm81.596-146.24c13.341-4.9186 31.316-33.782 31.316-50.286 0-1.1601-6.3234-1.3881-38.5-1.3881-21.175 0-38.5 0.17466-38.5 0.38813 0 25.358 28.68 57.555 45.684 51.286zm-191.68-138.17v-53.5h-33v107h33zm299 40.282v-12.782h-227v25.575l227-0.01v-12.782zm99-40.282v-53.5h-33v107h33zm-357.21 0.25 0.28894-8.75h-27.078v18.058l26.5-0.55805zm258.21-67.25v-76.5h-75v124h-77v-124h-75v153h227zm52 67.5v-9h-24v18h24zm-143-90v-54h-45v108h45zm90.981-81.75-0.0187-10.75-10.04-11.5c-5.522-6.325-10.692-12.163-11.489-12.972-1.2718-1.292-2.5988-0.3275-10.835 7.8746-10.871 10.826-9.6271 10.972-17.761-2.0847-3.4853-5.5944-6.6608-10.655-7.0567-11.245-0.43536-0.6489-4.2471 2.4343-9.6446 7.8012-6.1895 6.1545-9.3401 8.6303-10.28 8.0786-0.7455-0.4376-10.876-6.7955-22.512-14.129-22.979-14.482-22.442-14.332-26.889-7.5012-24.355 37.409-22.411 36.343-36.797 20.185l-11.567-12.993-2.4391 3.2427c-1.3415 1.7835-5.46 7.5177-9.1522 12.743s-7.1077 9.3899-7.59 9.2554c-0.48235-0.13453-8.0843-4.9559-16.893-10.714l-16.016-10.47v45.928h227l-0.0187-10.75z"/>
</svg>
