<?xml version="1.0" encoding="UTF-8"?>
<svg width="63.972" height="120" version="1.1" viewBox="0 0 63.972 120" xmlns="http://www.w3.org/2000/svg" xmlns:cc="http://creativecommons.org/ns#" xmlns:dc="http://purl.org/dc/elements/1.1/" xmlns:rdf="http://www.w3.org/1999/02/22-rdf-syntax-ns#">
 <metadata>
  <rdf:RDF>
   <cc:Work rdf:about="">
    <dc:format>image/svg+xml</dc:format>
    <dc:type rdf:resource="http://purl.org/dc/dcmitype/StillImage"/>
    <dc:title/>
   </cc:Work>
  </rdf:RDF>
 </metadata>
 <path d="m3.0321 117.34 57.868 0.85099-11.233-77.1 6.7654-0.38294 0.2553 6.2548 6.6803 0.12765 0.0426-16.722-6.7228-0.12765-0.38295 5.9569-5.4889-0.1702-1.0697-33.405-36.105 1.4442 0.72209 32.374-6.3741-0.2859-0.48582-5.9121-6.559 0.12035 0.12035 16.007 6.3785 0.60174 0.42122-6.4386 6.2581 0.30088z" fill="#fff" stroke-width=".13937"/>
 <path d="m1.7178 119.48c0.0451-0.28746 0.20643-1.338 0.35852-2.3345 1.8381-12.043 2.5592-16.776 4.5433-29.826 1.2705-8.3554 3.0604-20.114 3.9776-26.132l1.6677-10.941-5e-5 -4.216-4e-5 -4.216h-3.7631v6.2718h-8.5018v-18.955h8.5018v6.1324h3.7631v-35.261h39.861v35.261h3.345v-6.1324h8.5018v18.955h-8.5018v-6.2718h-3.345v3.6696c0 4.1838-0.3058 1.6987 2.9955 24.344 4.6542 31.926 6.4813 44.499 6.6124 45.505 0.0799 0.61324 0.23949 1.8049 0.35461 2.6481 0.11511 0.84321 0.20982 1.6429 0.21045 1.777 1e-3 0.23154-1.5358 0.2439-30.33 0.2439h-30.332zm55.916-3.4146c-0.11399-0.65164-2.1633-14.772-2.1633-14.906 0-0.0615-10.5-0.11187-23.334-0.11187h-23.334l-0.0802 0.38327c-0.0441 0.2108-0.5492 3.4878-1.1224 7.2822s-1.078 7.1027-1.1218 7.3519l-0.0797 0.45297h51.314zm-2.8548-19.303c3e-3 -0.0575-0.44773-3.2527-1.0016-7.1005l-1.0071-6.996-5.3172-5.3119-2.0173 4.0422c-1.1095 2.2233-2.0495 4.041-2.0889 4.0393-0.0729-3e-3 -0.28722-0.19401-5.3504-4.7706-1.5901-1.4372-2.9423-2.6132-3.005-2.6132-0.0876 0-4.6852 5.2379-7.1465 8.1418l-0.34461 0.40658-0.45165-0.61564c-0.24841-0.3386-1.174-1.6504-2.0569-2.9153-0.88289-1.2648-1.7144-2.4134-1.848-2.5525-0.23172-0.24139-0.32577-6e-3 -2.0868 5.2265-2.144 6.3702-2.0595 6.144-2.2663 6.075-0.0879-0.0293-1.5975-3.029-3.3547-6.6661-1.7572-3.6369-3.2057-6.6236-3.2188-6.6368-0.0336-0.0339-2.7521 17.965-2.7454 18.177 6e-3 0.19647 45.296 0.26613 45.307 0.0697zm-32.885-18.584c0.81482-0.81482 1.2214-0.47702 3.7388 3.1064l1.8309 2.6063 0.52706-0.58531c0.28988-0.32192 1.5528-1.777 2.8066-3.2334 4.5112-5.2407 3.6089-5.1277 8.1208-1.0179 1.7929 1.633 3.3947 3.0866 3.5596 3.2301l0.29975 0.26095 1.0636-2.2121c0.58496-1.2167 1.4082-2.9647 1.8297-3.8846 1.2478-2.7242 0.92502-2.7613 4.1483 0.47548 1.2993 1.3048 2.3798 2.3548 2.4011 2.3335 0.0213-0.0213-0.74111-5.3972-1.6942-11.946-0.95315-6.5493-1.8601-12.786-2.0155-13.859s-0.31774-2.155-0.36089-2.4042l-0.0784-0.45296h-4.2489c-3.2786 0-4.2608 0.0398-4.3008 0.17422-0.0285 0.0958-0.15922 0.6446-0.29046 1.2195-2.4021 10.523-11.677 10.131-14.014-0.59233l-0.17465-0.8014h-8.5841l-0.0815 0.45296c-0.0448 0.24913-0.91926 5.972-1.9433 12.717l-1.8617 12.264 0.316 0.55791c0.39252 0.693 3.1613 6.0965 4.5996 8.9767l1.0722 2.147 1.5337-4.6332c0.88896-2.6856 1.6457-4.7452 1.8001-4.8996zm11.372-20.382c1.8594-0.68552 4.3646-4.7083 4.3646-7.0085 0-0.16169-0.88131-0.19347-5.3659-0.19347-2.9512 0-5.3659 0.0243-5.3659 0.0541 0 3.5342 3.9972 8.0216 6.3671 7.1479zm-26.715-19.257v-7.4565h-4.5993v14.913h4.5993zm41.673 5.6142v-1.7815h-31.638v3.5645l31.638-0.0014v-1.7815zm13.798-5.6142v-7.4565h-4.5993v14.913h4.5993zm-49.785 0.03484 0.0403-1.2195h-3.7739v2.5168l3.6934-0.07778zm35.988-9.3728v-10.662h-10.453v17.282h-10.732v-17.282h-10.453v21.324h31.638zm7.2474 9.4077v-1.2544h-3.345v2.5087h3.345zm-19.93-12.544v-7.5261h-6.2718v15.052h6.2718zm12.68-11.394-3e-3 -1.4983-1.3993-1.6028c-0.76962-0.88153-1.4902-1.6952-1.6013-1.8079-0.17725-0.18007-0.3622-0.04564-1.5101 1.0975-1.5151 1.5089-1.3418 1.5292-2.4754-0.29055-0.48576-0.77971-0.92833-1.485-0.98351-1.5672-0.0607-0.09044-0.59193 0.33928-1.3442 1.0873-0.86265 0.85777-1.3018 1.2028-1.4328 1.1259-0.10391-0.06099-1.5158-0.94711-3.1376-1.9692-3.2026-2.0184-3.1278-1.9975-3.7476-1.0455-3.3944 5.2138-3.1235 5.0652-5.1285 2.8132l-1.6121-1.8109-0.33995 0.45194c-0.18697 0.24857-0.76097 1.0478-1.2756 1.776-0.51459 0.72826-0.99062 1.3087-1.0578 1.29-0.0672-0.01875-1.1267-0.69072-2.3544-1.4932l-2.2322-1.4592v6.4011h31.638l-3e-3 -1.4983z" stroke-width=".13937"/>
</svg>
