<?xml version="1.0" encoding="UTF-8"?>
<svg width="54.616px" height="120px" version="1.1" viewBox="0 0 54.616 120" xmlns="http://www.w3.org/2000/svg" xmlns:cc="http://creativecommons.org/ns#" xmlns:dc="http://purl.org/dc/elements/1.1/" xmlns:rdf="http://www.w3.org/1999/02/22-rdf-syntax-ns#">
 <metadata>
  <rdf:RDF>
   <cc:Work rdf:about="">
    <dc:format>image/svg+xml</dc:format>
    <dc:type rdf:resource="http://purl.org/dc/dcmitype/StillImage"/>
    <dc:title/>
   </cc:Work>
  </rdf:RDF>
 </metadata>
 <g transform="translate(-31.6 -26.342)">
  <rect x="57.964" y="76.329" width="14.647" height="34.49" fill="#fff" stroke-width=".26458"/>
  <ellipse cx="57.869" cy="57.714" rx="19.371" ry="17.859" fill="#fff" fill-rule="evenodd" stroke-width=".26048"/>
  <path d="m38.786 145.68c4.0605-5.1094 5.0326-6.5827 7.5348-11.42 9.7349-17.641 9.9481-39.265 9.8254-55.558 0-0.57962-0.04017-0.67165-0.31432-0.72-12.692-2.2387-20.51-12.721-18.179-24.375l0.08812-0.44062h-6.0019l-0.09461-1.3737c-0.5318-7.7213 3.7264-15.928 10.66-20.544 17.973-11.966 43.235-0.72436 43.839 19.508l0.07193 2.4098h-7.8884l0.07586 0.31431c1.6269 6.7412-1.6363 15.555-7.4271 20.06l-0.74594 0.5803h1.2838c2.5706 0 2.5808 0.04197 3.2126 13.131-0.15309 21.38-0.22859 38.116-4.6796 57.45l-0.37771 1.6414h-31.411zm33.017-38.067c-0.27732-10.318 0.43255-20.868-0.54353-29.72l-0.09579-0.76833-3.2702-0.03754c-3.1141-0.03575-3.3375-0.02049-4.6798 0.3199-0.77529 0.1966-2.0298 0.43248-2.7877 0.52417l-1.3781 0.1667 0.09039 1.1199c0.79662 9.3995 0.46534 19.816-0.61705 28.525 0 0.15756 13.272 0.0286 13.282-0.12909zm-10.897-33.434c9.5151-1.6006 16.187-11.5 13.808-20.488l-0.13864-0.52385h-16.539c-15.631 0-16.543 0.01341-16.611 0.24447-3.2966 11.191 7.5671 22.772 19.481 20.768zm-0.49924-4.1396c-0.8285-0.27883-4.0003-0.41966-5.9762-0.26535-1.0799 0.08434-1.7188-1.0284-0.97362-1.6958 1.1977-1.0727 8.5276-0.44952 9.0398 0.76862 0.50912 1.2108-0.4349 1.7495-2.09 1.1925zm3.6886-9.0028c-0.72736-0.45154-1.0755-2.6382-0.75751-4.7584 0.21421-1.4285 1.8002-1.9703 2.8104-0.9601l0.47496 0.47496v4.5261l-0.47496 0.47497c-0.5454 0.5454-1.4019 0.64655-2.0529 0.24243zm-13.83-0.55878c-0.72736-0.45154-1.0755-2.6382-0.75752-4.7584 0.21421-1.4285 1.8002-1.9703 2.8104-0.9601l0.47497 0.47496v4.5261l-0.47497 0.47496c-0.5454 0.5454-1.4019 0.64655-2.0529 0.24244z" stroke-width=".1397"/>
 </g>
</svg>
