<?xml version="1.0" encoding="UTF-8"?>
<svg width="59.856mm" height="120mm" version="1.1" viewBox="0 0 59.856 120" xmlns="http://www.w3.org/2000/svg" xmlns:cc="http://creativecommons.org/ns#" xmlns:dc="http://purl.org/dc/elements/1.1/" xmlns:rdf="http://www.w3.org/1999/02/22-rdf-syntax-ns#">
 <metadata>
  <rdf:RDF>
   <cc:Work rdf:about="">
    <dc:format>image/svg+xml</dc:format>
    <dc:type rdf:resource="http://purl.org/dc/dcmitype/StillImage"/>
    <dc:title/>
   </cc:Work>
  </rdf:RDF>
 </metadata>
 <g transform="translate(-55.298 -29.217)">
  <rect x="66.732" y="44.809" width="35.813" height="50.554" fill="#fff" stroke-width=".26458"/>
  <rect x="70.511" y="95.174" width="27.12" height="27.876" fill="#fff" stroke-width=".26458"/>
  <path d="m64.445 149.06c-2.0598-13.685-4.3256-27.13-6.2648-39.326-1.585-9.9678-2.8818-18.284-2.8818-18.48 0-1.0894 3.5639-3.8309 7.5954-5.8426l2.0518-1.0239v-26.393c0-14.516 0.04982-26.393 0.11072-26.393 0.06089 0 0.56714 0.19177 1.125 0.42615 6.9688 2.928 19.56 2.0462 28.83-2.0191 2.2987-1.008 2.1443-0.99014 2.7005-0.31232 6.2677 7.6379 9.7082 35.089 6.7108 53.545l-0.12008 0.73944 0.80382 0.32744c4.2589 1.7349 10.325 5.8836 10.038 6.8656-3.5594 22.073-6.024 37.755-9.2377 57.995l-20.701 0.0365c-16.489 0.0291-20.713-2.9e-4 -20.761-0.14399zm19.219-51.657h-9.0713v23.902h9.0713zm11.807 0h-10.223v23.902h10.223zm-5.7291 17.413c-0.64731-0.19837-1.5631-1.1499-1.7482-1.8165-0.96686-3.4818 3.7728-5.5394 5.3934-2.3413 1.224 2.4154-1.0114 4.965-3.6453 4.1578zm1.7499-1.0525c0.97768-0.4085 1.4433-1.4923 1.0478-2.4388-0.73627-1.7621-3.5492-1.2424-3.5475 0.65541 0.0011 1.4238 1.2419 2.309 2.4997 1.7834zm-2.3532-7.1299c-3.8287-1.3641-3.1535-6.9688 0.89689-7.4449 4.3244-0.50825 5.9816 5.3177 2.079 7.3087-0.83749 0.42725-2.0085 0.48085-2.9759 0.13619zm2.5824-1.2357c1.664-0.86046 1.9896-2.7916 0.70558-4.1846-2.3794-2.5813-6.2241 0.87509-3.9893 3.5863 0.72324 0.87741 2.2175 1.1497 3.2837 0.59828zm7.3865-12.746c0.1414-0.51476 0.31367-1.1789 0.38283-1.4759l0.12574-0.53996h-31.503v3.0251c10.246-0.02449 20.492-0.04887 30.737-0.07331zm-29.484-4.3197c-0.11992-1.1346-0.03875-1.0538-0.84309-0.8387l-0.66732 0.17848v1.6263l0.80466-0.01508 0.80467-0.01507zm3.5615 0.13529c-0.11822-2.3298-0.034122-2.2304-1.5176-1.7939l-0.6025 0.17728-0.04408 0.84266c-0.07945 1.5189 0.0027 1.6107 1.412 1.5765l0.79194-0.01927zm4.5433-1.329c0.04332-2.3017 0.06166-2.2546-0.7743-1.9819-0.2296 0.07492-0.88722 0.27205-1.4614 0.43806l-1.0439 0.30185v0.54814c0 0.30148 0.04163 1.0405 0.09248 1.6422l0.09248 1.0941 0.44748 0.04544c0.24611 0.02498 0.93344 0.04201 1.5274 0.03782l1.0799-0.0076 0.03984-2.1181zm7.1992-0.2162 0.03956-2.3339h-5.7667v2.2798c0 2.7433-0.40527 2.4091 2.9075 2.3976l2.7801-0.0097 0.03957-2.3339zm5.7459 2.2239c0.07641-0.07641 0.46361-3.5389 0.47345-4.2338 0.0044-0.32307-0.0022-0.32398-2.3712-0.32398h-2.3758v4.5885l0.39597 0.04952c0.61152 0.07652 3.7866 0.01072 3.8776-0.08034zm5.3072-0.30941c0.0425-0.23794 0.22849-1.2912 0.41327-2.3405l0.33596-1.9079h-4.1209l-0.07847 0.61196c-0.55147 4.3007-0.64494 4.0675 1.6312 4.0684l1.7416 5.45e-4 0.07731-0.43262zm4.0937-0.27717c0.15179-0.74156 0.72445-3.8457 0.72445-3.9269 0-0.02433-0.60574-0.04424-1.3461-0.04424h-1.3461l-0.32381 1.9799c-0.1781 1.0889-0.35461 2.1418-0.39226 2.3398l-0.06845 0.35998 2.6026 0.02296 0.14971-0.7314zm-31.119-2.5454c0.44808-0.1562 0.45345-0.16956 0.45345-1.1279 0-1.171-0.01474-1.1894-0.72886-0.90892l-0.56704 0.22274v0.98608c0 1.0749 0.03512 1.1094 0.84245 0.82801zm3.2347-0.92227 0.6025-0.18045-0.02476-1.1822c-0.03037-1.4511 0.03995-1.3921-1.1096-0.93186-1.0593 0.42406-1.0721 0.45355-0.86222 1.9848 0.10121 0.73844 0.02169 0.72076 1.3941 0.30974zm4.0942-1.1662 1.4759-0.41323v-1.5596c0-1.4422-0.0197-1.5534-0.26185-1.4765-0.14402 0.04571-0.96613 0.36626-1.8269 0.71233l-1.5651 0.62922 0.03331 0.84526c0.05371 1.3627 0.16671 1.8148 0.43504 1.7405 0.12853-0.03559 0.89785-0.25067 1.7096-0.47795zm8.6754-3.6005c0-2.628-0.01741-2.8168-0.25198-2.7308-0.13859 0.05083-1.4338 0.55993-2.8783 1.1313l-2.6264 1.0389-0.0016 1.6919-0.0016 1.6919h5.7596v-2.8232zm6.3988 2.3552c0.35382-2.4602 0.33115-4.508 0.72864-7.0656l0.06892-0.40613-0.82637 0.09351c-1.0425 0.11796-1.4697 0.24217-3.3813 0.9831l-1.547 0.5996c-5.45e-4 2.0878-0.0016 4.1757-0.0022 6.2635h4.8826zm6.442-5.9759c-0.65693-0.52498-3.9544-1.4922-4.2113-1.2353-0.08897 0.08896-0.85405 6.9005-0.85405 7.6036 0 0.04577 0.95271 0.06533 2.1171 0.04343l2.1171-0.03984c0.088-1.0222 1.2699-5.9839 0.83109-6.3719zm3.383 5.0759c0.30619-2.3484 0.31085-2.3261-0.68311-3.2719-1.212-1.1533-1.1647-1.2013-1.6239 1.652-0.21983 1.3661-0.43322 2.5997-0.47419 2.7414-0.06836 0.23632 0.03619 0.25411 1.2689 0.21598l1.3434-0.04152zm-22.631-3.2423c10.471-4.1935 11.093-4.4182 12.747-4.6055 2.8173-0.31915 6.535 0.82535 9.3751 2.8862l0.95558 0.69338 0.10516-1.3936c0.31306-4.1486 0.41159-10.334 0.22758-14.286l-0.0841-1.8054-0.8278-1.6504c-5.3077-10.582-20.351-15.335-32.31-10.209l-0.62807 0.26922v4.9059h15.119v0.58632c0 0.63287-1.5223 18.511-1.6652 19.557l-0.08648 0.63266 0.3592-0.27268c0.19755-0.14997 1.6988-1.3742 3.3362-2.7205 3.7249-3.0628 4.0139-3.2037 4.3999-2.1463 0.10294 0.28197-8.5162 7.4828-9.3308 7.7954-0.32331 0.12406 0.77751-14.384 1.6113-21.236l0.07447-0.61195h-13.817v27.786l0.68395-0.27063c0.37617-0.14885 4.766-1.9054 9.7553-3.9034zm-4.2876-13.684c-1.9051-0.31417-3.1718-1.8813-3.1529-3.9004 0.04718-5.0304 7.4438-5.1975 7.7696-0.17556 0.16962 2.6147-1.9783 4.5111-4.6167 4.076zm1.7213-1.7324c1.9586-0.94814 1.8539-3.6142-0.17229-4.388-2.1267-0.81218-4.04 1.493-2.8809 3.4708 0.64811 1.1059 1.8916 1.4795 3.0532 0.91719zm15.644 0.10169c-4.5083-1.4743-4.3921-7.7688 0.16782-9.0944 4.5776-1.3308 7.9755 4.546 4.5652 7.8957-1.2108 1.1893-3.212 1.6961-4.733 1.1987zm2.7025-2.0082c1.9833-1.047 2.0972-3.6832 0.21415-4.9566-2.7245-1.8424-5.9637 1.7564-3.7995 4.2212 0.95765 1.0907 2.3654 1.3794 3.5854 0.73533z" stroke-width=".14399"/>
 </g>
</svg>
