<?xml version="1.0" encoding="UTF-8"?>
<svg width="62.836px" height="120px" version="1.1" viewBox="0 0 62.836 120" xmlns="http://www.w3.org/2000/svg" xmlns:cc="http://creativecommons.org/ns#" xmlns:dc="http://purl.org/dc/elements/1.1/" xmlns:rdf="http://www.w3.org/1999/02/22-rdf-syntax-ns#">
 <metadata>
  <rdf:RDF>
   <cc:Work rdf:about="">
    <dc:format>image/svg+xml</dc:format>
    <dc:type rdf:resource="http://purl.org/dc/dcmitype/StillImage"/>
    <dc:title/>
   </cc:Work>
  </rdf:RDF>
 </metadata>
 <g transform="translate(-65.006 -34.982)">
  <path d="m70.693 122.01 9.889-5.0781 12.829 5.6127 9.889-3.0736 12.963 2.6727 9.2208-3.0736-0.66817-5.0781-10.557-16.17-1.6036-16.838-0.93545-30.335-4.8108-10.424-8.9535-4.4099-9.0872 3.4745-6.4145 9.6217-2.4054 10.156-0.05801 3.5357-8.7407 3.3545 3.4018 2.2206 5.4807 2.6931 0.33073 18.804-8.3155 18.19-3.26 8.9769z" fill="#fff" stroke="#000" stroke-width=".26458px"/>
  <path d="m79.089 154.8c-1.3222-0.8065-0.69804-2.3535 0.94961-2.3535 0.62427 0 3.9261-0.64953 5.2646-1.0356l0.8312-0.23978 1.62e-4 -4.3099c1.25e-4 -2.3704-0.07076-5.058-0.15751-5.9723-0.08676-0.91432-0.23359-2.9448-0.3263-4.5122-0.25738-4.3515-0.30932-4.9606-0.54682-6.4121-0.1211-0.74016-0.36891-2.6994-0.55069-4.3539-0.18177-1.6545-0.40688-3.5988-0.50024-4.3208l-0.16974-1.3126-0.97225-0.50173c-2.0135-1.039-3.696-0.58637-6.763 1.8196-3.928 3.0814-4.9703 3.5461-6.684 2.9805-2.9464-0.97241-3.0594-8.0744-0.22427-14.102 0.3072-0.65308 0.73851-1.6149 0.95846-2.1374 0.21995-0.52246 0.94118-1.983 1.6027-3.2456 0.66155-1.2626 1.4764-2.8656 1.8107-3.5623 2.208-4.6004 2.6209-5.4907 2.9736-6.4121 1.7894-4.6747 2.4663-9.8268 2.0282-15.437-0.136-1.7416-0.31838-4.4808-0.40527-6.0871-0.1896-3.5049 0.88139-2.7244-6.7521-4.9202l-6.4499-1.8553 3.5583-1.1401c1.9571-0.62704 4.9282-1.5802 6.6025-2.1182l3.0442-0.97808 0.0035-0.64336c0.0057-1.0361 0.65481-5.5217 1.3473-9.31 2.0945-11.458 10.891-18.724 20.735-17.126 5.109 0.82928 10.404 6.4051 12.56 13.226 1.4703 4.6512 1.5556 6.0362 1.4744 23.922-0.0577 12.709-0.0375 14.226 0.21487 16.149 0.95559 7.2809 3.6475 14.165 7.1608 18.311 0.46128 0.54444 1.1893 1.4719 1.6178 2.061 0.42849 0.58912 1.3956 1.8179 2.149 2.7307 5.6385 6.8304 0.92215 11.871-11.107 11.871h-2.7428l-0.025 0.83119c-0.0137 0.45716-0.0209 0.92438-0.016 1.0383 5e-3 0.11388-0.0558 1.1826-0.13473 2.3748-0.12918 1.95-0.15675 7.1517-0.0715 13.488 0.0369 2.7368 0.55964 9.5028 0.75412 9.7595 0.2368 0.31266 3.9788 0.88879 5.7232 0.88118 1.7356-8e-3 2.4876 0.6602 1.9852 1.7628-0.38133 0.83693-1.2976 0.94925-4.4947 0.55099-4.1627-0.51855-5.1505-0.83306-5.5394-1.7637-0.78423-1.877-1.2622-18.211-0.79331-27.11l0.12553-2.3823-1.4878-0.44232c-0.81828-0.24328-2.129-0.64589-2.9127-0.89468-2.4498-0.77773-2.6855-0.77332-3.8824 0.0726-4.5585 3.2218-8.6362 3.5568-12.804 1.0519l-1.2834-0.77134v0.4716c0 0.53428 0.52035 4.9496 0.86445 7.335 0.28315 1.963 0.34811 2.7178 0.55857 6.4913 0.09228 1.6545 0.23733 3.7053 0.32232 4.5575 0.25656 2.5721 0.20088 10.937-0.07722 11.602-0.5265 1.2601-8.0539 3.2106-9.3468 2.4219zm17.7-34.854c0.80152-0.399 1.8411-1.013 2.3103-1.3644 1.6943-1.2692 3.4851-1.3915 6.4299-0.43927 5.1097 1.6522 5.4911 1.7354 8.3119 1.8118 8.795 0.23825 13.002-2.6749 8.8657-6.1384-1.9909-1.6669-6.6644-8.5708-8.0351-11.87-1.7229-4.1469-2.2076-5.6514-2.9341-9.1076-0.93962-4.4702-0.94929-4.6888-0.88868-20.093 0.0775-19.695-0.0736-21.221-2.6094-26.354-1.2921-2.6156-2.1987-3.7613-4.4926-5.6774-2.9415-2.457-7.4702-2.9751-11.133-1.2737-5.8828 2.7323-8.9856 8.0032-10.277 17.459-0.09517 0.69662-0.27019 1.9078-0.38894 2.6915-0.11875 0.7837-0.1961 1.4455-0.17188 1.4706 0.02422 0.02513 3.0357-0.91888 6.6921-2.0978 3.6564-1.1789 6.7263-2.1435 6.822-2.1435 0.3175 0 0.81962 0.68648 0.81962 1.1206 0 1.002 0.49306 0.81236-17.057 6.5588-3.1551 1.0331-5.6994 1.9154-5.6541 1.9607 0.0453 0.0453 5.1125 1.5267 11.26 3.292 12.891 3.7015 12.858 3.687 11.806 5.0962-0.45653 0.61208-0.19366 0.66364-7.8003-1.5296l-7.0483-2.0323 0.04752 1.6725c0.02614 0.91988 0.11378 2.2425 0.19478 2.9391 0.97967 8.4262 0.03233 16.044-2.7269 21.928-1.2228 2.6076-2.7201 5.706-2.9838 6.1746-0.5255 0.93401-2.7526 5.4141-3.1088 6.2538-0.1847 0.43539-0.54989 1.2903-0.81153 1.8999-1.084 2.5254-1.8683 6.6738-1.4189 7.5048 0.514 0.95041 0.68566 0.88257 3.559-1.4066 4.5871-3.6545 7.7816-3.7164 12.875-0.2493 4.6539 3.1681 6.3802 3.5195 9.5462 1.9434zm-9.5199-61.941c-1.6235-1.3661-1.1869-6.0933 0.56279-6.0933 1.3039 0 1.8419 0.94099 1.8555 3.2456 0.0158 2.6633-1.09 3.9654-2.4183 2.8476zm15.188-0.0097c-1.2878-1.0836-1.2445-5.4802 0.0589-5.9804 1.4001-0.53727 2.4558 0.77885 2.457 3.0633 1e-3 2.6849-1.1732 4.047-2.516 2.9171z" stroke-width=".15832"/>
 </g>
</svg>
