<?xml version="1.0" encoding="UTF-8"?>
<svg width="54.942px" height="120px" version="1.1" viewBox="0 0 54.942 120" xmlns="http://www.w3.org/2000/svg" xmlns:cc="http://creativecommons.org/ns#" xmlns:dc="http://purl.org/dc/elements/1.1/" xmlns:rdf="http://www.w3.org/1999/02/22-rdf-syntax-ns#">
 <metadata>
  <rdf:RDF>
   <cc:Work rdf:about="">
    <dc:format>image/svg+xml</dc:format>
    <dc:type rdf:resource="http://purl.org/dc/dcmitype/StillImage"/>
    <dc:title/>
   </cc:Work>
  </rdf:RDF>
 </metadata>
 <g transform="translate(-49.183 -15.125)">
  <path d="m53.578 70.02 24.568 12.757 23.529-9.0714-3.3073-40.065-8.6935-13.607-12.662-3.4963-14.93 7.276-6.5201 23.812z" fill="#fff" stroke="#000" stroke-width=".26458px"/>
  <g>
   <path d="m49.424 134.69c-0.61105-10.894-0.02151-34.103 1.3091-51.534 0.39994-5.2395 0.42147-5.4927 1.0176-11.963 0.84272-10.668 3.0082-24.378 4.4618-34.739 0.06645-0.48324 0.21319-1.5477 0.32609-2.3655 2.4745-17.924 24.131-25.3 36.919-12.573 3.1583 3.1431 5.1199 6.7685 6.6926 12.369 1.3023 4.6379 2.994 25.308 3.8001 46.433 0.23037 6.0365 0.23315 30.608 4e-3 36.226-0.28419 6.9706-0.86047 16.822-1.0576 18.079l-0.0795 0.50689h-53.369zm35.007-56.929c5.1871-0.78115 9.9233-2.5548 13.934-5.2182l1.6746-1.112-0.09143-1.9772c-0.32349-6.9954-1.2989-19.88-1.9047-25.159-0.38464-3.3522-2.0626-11.555-2.7789-13.585-0.6906-1.957-0.90981-2.3239-1.202-2.0118-0.13112 0.14004-1.3631 1.5016-2.7378 3.0256-2.9367 3.2558-2.8057 3.136-3.4276 3.136-0.68182 0-1.1419-0.45419-1.1419-1.1273 0-0.58904-0.2509-0.2722 3.5489-4.4816l2.6703-2.9581-0.25625-0.35968c-0.14094-0.19783-0.50186-0.63341-0.80205-0.96796l-0.5458-0.60827-0.33642 0.33793c-0.18503 0.18586-2.14 2.3452-4.3443 4.7986-4.5988 5.1183-4.8582 5.3156-5.743 4.3659-0.73185-0.78555-0.69166-0.84582 4.119-6.1784 2.4162-2.6783 4.3931-4.9286 4.3931-5.0007 0-0.15036-2.1855-1.6351-2.4068-1.6351-0.1438 0-1.5372 1.5168-8.1959 8.9213-4.4406 4.9381-4.3912 4.8983-5.1699 4.1667-0.7646-0.71831-1.0189-0.37231 5.8925-8.0176 4.0765-4.5094 5.4147-6.0711 5.2756-6.1571-0.26113-0.16138-1.7941-0.6345-2.7706-0.85508l-0.81921-0.18505-0.56618 0.67162c-2.2953 2.7227-11.436 12.659-11.708 12.727-0.68425 0.17174-1.429-0.39673-1.429-1.0908 0-0.40232 0.57041-1.0821 5.3958-6.4309 2.9677-3.2895 5.3552-6.0174 5.3055-6.0618-0.04971-0.04446-0.53078-0.05283-1.069-0.01861l-0.97868 0.06221-5.3744 5.9571c-2.9559 3.2764-6.6413 7.3602-8.1898 9.0751-3.1745 3.5158-2.9626 3.1816-3.2703 5.1562-1.7337 11.086-2.7 19.454-3.8798 29.592l1.1304 1.0584c4.7476 4.4452 11.297 7.4093 18.094 8.1888 0.70627 0.081 1.4666 0.1725 1.6896 0.20333 0.93494 0.12923 6.6959-0.04853 8.0161-0.24734zm-10.095-18.683c-1.0463-0.73287-0.65316-2.3199 0.62716-2.5316 0.846-0.13984 7.0916-0.0956 7.6305 0.05405 1.1459 0.31826 1.4053 1.6952 0.46311 2.4584-0.42554 0.3447-8.2315 0.36183-8.7207 0.01911zm3.2084-7.8986c-3.7118-2.1297-9.8261-3.9014-14.714-4.2635-1.6348-0.12112-2.3166-0.82623-1.545-1.5978 0.24428-0.24428 0.26529-0.24904 2.4161-0.54697 3.0895-0.42796 6.4416-1.4372 9.2017-2.7704 1.6678-0.80559 2.0361-1.1047 3.813-3.097 0.8851-0.9924 2.4799-0.73036 2.5788 0.42373 0.14882 1.7366-4.2294 4.4326-9.9393 6.1204l-1.7672 0.52239 3.0616 0.76652c3.3824 0.84682 3.867 1.0175 6.0321 2.1243 1.7049 0.87156 2.0984 1.2023 2.0984 1.7637 0 0.67649-0.57473 0.93427-1.2365 0.5546zm-11.374-24.881c6.2757-6.944 5.9668-6.5646 5.0481-6.2025-5.0931 2.0075-9.5146 6.9804-10.609 11.932-0.12713 0.57522-0.26888 0.72126 5.5608-5.7293z" stroke-width=".13517"/>
   <ellipse cx="70.823" cy="38.506" rx="2.0316" ry="2.1261" stroke-width=".26458"/>
   <ellipse cx="85.706" cy="38.365" rx="2.0316" ry="2.1261" stroke-width=".26458"/>
  </g>
 </g>
</svg>
