<?xml version="1.0" encoding="UTF-8"?>
<svg width="70.425pt" height="90pt" version="1.0" viewBox="0 0 70.425 90" xmlns="http://www.w3.org/2000/svg" xmlns:cc="http://creativecommons.org/ns#" xmlns:dc="http://purl.org/dc/elements/1.1/" xmlns:rdf="http://www.w3.org/1999/02/22-rdf-syntax-ns#">
 <metadata>
  <rdf:RDF>
   <cc:Work rdf:about="">
    <dc:format>image/svg+xml</dc:format>
    <dc:type rdf:resource="http://purl.org/dc/dcmitype/StillImage"/>
    <dc:title/>
   </cc:Work>
  </rdf:RDF>
 </metadata>
 <rect x="15.739" y="60.831" width="33.81" height="26.727" fill="#fff" stroke-width=".75118"/>
 <ellipse cx="31.799" cy="43.779" rx="22.391" ry="22.203" fill="#fff" stroke-width=".75118"/>
 <g transform="matrix(.015008 0 0 -.015008 -21.032 114.91)">
  <path d="m3222 7649c-91-14-219-60-309-110-107-60-262-215-322-322-51-91-98-224-107-303-6-51-9-55-28-49-12 3-68 9-126 12-288 16-536-128-659-382-51-105-71-190-71-307 0-161 55-319 153-440l43-53-61-30c-85-42-211-169-257-260-72-140-93-279-64-425 44-219 191-394 395-472 46-18 85-37 86-43 80-299 213-544 409-751l96-102-31-38c-52-65-107-166-138-250-60-164-61-178-61-955v-709h2680v1897l42 28c98 65 205 185 271 304l35 63 133 2c155 2 224 17 344 76 151 75 273 196 345 345 65 135 75 181 74 345 0 130-3 153-27 225-38 113-98 215-173 295l-65 69 60 76c72 90 122 192 152 306 31 118 24 298-15 414-96 283-326 478-619 525-72 12-200 9-267-6-25-5-26-3-38 74-43 274-212 467-468 532-158 41-322 17-475-67-4-2-25 29-49 68-84 142-240 279-395 350-138 63-345 91-493 68zm885-1620c441-232 715-681 716-1174 0-213-38-387-128-582-89-193-280-413-457-527l-27-18v377l-35 33c-40 36-79 41-125 17-55-28-61-59-61-312v-230l-87-27c-137-41-218-55-358-62-580-29-1117 342-1304 902-47 140-63 227-68 379-6 161 10 291 52 423l26 82h799c483 0 809 4 824 10 36 13 61 57 60 103-1 30-9 47-33 71l-31 31-756 3-755 2 32 48c97 142 207 255 338 347l74 52 71-48c137-92 298-139 481-139 234 0 433 75 590 223 33 31 65 56 72 57 7 0 47-18 90-41zm433-3269v-810h-2071l3 573c3 505 6 579 21 632 22 78 79 190 121 240l34 40 88-47c172-89 355-146 563-173 393-53 819 56 1152 295 46 33 85 60 87 60 1 0 2-364 2-810z"/>
  <path d="m2675 5156c-70-30-114-119-94-191 16-58 43-90 95-115 110-54 236 29 236 155 0 120-125 200-237 151z"/>
  <path d="m3665 5126c-70-30-114-119-94-191 16-58 43-90 95-115 110-54 236 29 236 155 0 120-125 200-237 151z"/>
  <path d="m2877 4156c-21-8-40-16-41-18-40-53-46-93-20-137 33-56 29-56 424-59 408-3 414-2 454 67 18 31 18 37 5 74-8 22-27 50-42 61-27 20-41 21-385 23-284 2-365 0-395-11z"/>
 </g>
</svg>
