<?xml version="1.0" encoding="UTF-8"?>
<svg width="32.166pt" height="90pt" version="1.0" viewBox="0 0 32.166 90" xmlns="http://www.w3.org/2000/svg" xmlns:cc="http://creativecommons.org/ns#" xmlns:dc="http://purl.org/dc/elements/1.1/" xmlns:rdf="http://www.w3.org/1999/02/22-rdf-syntax-ns#">
 <metadata>
  <rdf:RDF>
   <cc:Work rdf:about="">
    <dc:format>image/svg+xml</dc:format>
    <dc:type rdf:resource="http://purl.org/dc/dcmitype/StillImage"/>
    <dc:title/>
   </cc:Work>
  </rdf:RDF>
 </metadata>
 <rect x="11.559" y="1.3125" width="9.2038" height="37.146" fill="#fff" stroke-width=".75118"/>
 <rect x=".64678" y="10.847" width="30.973" height="7.2198" fill="#fff" stroke-width=".75118"/>
 <g transform="matrix(.010651 0 0 -.010651 -24.497 101.72)">
  <path d="m3310 9528c-1-13-2-221-3-463l-2-440-195-2c-107-1-333-2-502-2l-308-1v-840l503-2 502-3v-1200l-187-3-188-2v-73c0-39 13-434 30-877 16-443 43-1176 59-1630 17-454 33-881 35-950 3-69 8-199 11-290s8-205 10-255c3-49 14-373 26-720 11-346 22-640 25-652l4-23h1208l6 63c7 65 316 5345 316 5385 0 22 0 22-170 22h-170v1210h1e3v840l-312 1c-172 0-397 1-500 1h-188v928h-1010zm810-1568v-1390h-305c-283 0-305 1-306 18-1 22-1 2733 0 2750 1 9 69 12 306 12h305zm-1356 459c4-3-9-22-28-42-45-47-59-94-54-173 5-84 41-138 117-176 115-59 245-17 303 95 21 43 29 121 15 169-7 26-6 27 19 18 35-14 74-12 74 3-1 6-38 35-83 62l-82 50 124 3c92 2 126-1 132-10 5-7 8-111 8-230v-218h-859v462l154-4c85-1 157-6 160-9zm1786-9c-14-10-51-34-82-52-32-18-58-39-58-45 0-15 39-17 74-3 25 9 26 8 19-18-14-48-6-126 15-169 58-112 188-154 303-95 76 38 112 92 117 176 5 79-9 126-54 173-19 20-32 39-28 42 3 3 75 8 160 9l154 4v-462h-850v460h255zm-1585-92c90-71 49-208-63-208-74 0-131 66-118 135 15 79 120 122 181 73zm1829-9c110-96-15-256-141-179-42 25-60 84-39 133 33 80 117 102 180 46zm-784-1989v-180h-420v360h420z"/>
 </g>
</svg>
