<?xml version="1.0" encoding="UTF-8" standalone="no"?>
<svg xmlns:xlink="http://www.w3.org/1999/xlink" height="34.6px" width="54.7px" xmlns="http://www.w3.org/2000/svg">
  <g transform="matrix(1.0, 0.0, 0.0, 1.0, 27.35, 17.3)">
    <path d="M24.55 -2.25 L24.35 0.2 21.9 0.35 21.9 0.7 24.35 0.55 24.2 2.5 21.75 2.65 21.75 2.95 24.2 2.8 23.8 8.35 14.8 0.1 14.9 -0.6 25.05 -9.75 24.55 -2.55 21.7 -2.4 21.7 -2.1 24.55 -2.25" fill="#ffffff" fill-rule="evenodd" stroke="none"/>
    <path d="M7.35 -9.35 Q5.15 -11.05 1.85 -11.0 L-0.15 -10.85 Q-3.35 -10.35 -5.3 -7.4 -6.5 -5.55 -6.95 -3.35 L-18.85 -1.85 -16.3 -7.4 -14.85 -9.65 Q-10.85 -14.55 -3.15 -14.55 L1.95 -14.0 4.1 -13.5 Q12.05 -9.65 12.05 -1.45 12.05 1.15 11.4 3.1 7.7 9.65 0.6 12.8 -1.8 13.85 -3.85 14.2 L-5.65 14.5 Q-14.6 14.25 -20.4 7.65 -22.15 5.55 -23.4 3.1 L-24.05 1.7 -7.15 -1.0 Q-6.45 2.4 -3.4 4.05 -1.85 4.85 -0.45 5.0 5.8 5.0 8.5 0.1 9.85 -2.35 9.95 -4.8 L9.95 -4.9 Q9.5 -7.7 7.35 -9.35" fill="#ffffff" fill-rule="evenodd" stroke="none"/>
    <path d="M1.7 -9.4 Q0.4 -9.4 -1.1 -8.55 -4.05 -6.9 -5.0 -2.85 L-3.9 0.25 Q-1.85 3.15 2.7 2.45 L6.15 -0.35 Q9.2 -3.85 7.05 -7.4 L5.5 -8.4 Q3.55 -9.45 1.7 -9.4 M-14.85 -9.65 L-16.3 -7.4 -18.85 -1.85 -6.95 -3.35 Q-6.5 -5.55 -5.3 -7.4 -3.35 -10.35 -0.15 -10.85 L1.85 -11.0 Q5.15 -11.05 7.35 -9.35 9.5 -7.7 9.95 -4.9 L9.95 -4.8 Q9.85 -2.35 8.5 0.1 5.8 5.0 -0.45 5.0 -1.85 4.85 -3.4 4.05 -6.45 2.4 -7.15 -1.0 L-24.05 1.7 -23.4 3.1 Q-22.15 5.55 -20.4 7.65 -14.6 14.25 -5.65 14.5 L-3.85 14.2 Q-1.8 13.85 0.6 12.8 7.7 9.65 11.4 3.1 12.05 1.15 12.05 -1.45 12.05 -9.65 4.1 -13.5 L1.95 -14.0 -3.15 -14.55 Q-10.85 -14.55 -14.85 -9.65 M25.8 13.4 L14.35 2.4 Q12.35 9.0 5.55 13.55 4.25 14.5 2.05 15.4 -2.3 17.25 -6.65 17.3 L-6.7 17.3 Q-13.95 17.3 -20.05 12.05 -21.7 10.6 -23.45 8.3 -26.9 3.8 -27.3 -0.25 L-27.35 -0.8 -22.1 -1.45 Q-21.1 -5.9 -18.4 -9.7 -13.65 -16.3 -5.55 -17.25 L-3.8 -17.3 Q2.4 -17.3 7.0 -14.95 13.9 -11.35 14.8 -3.25 L27.35 -14.7 25.8 13.4 M24.2 2.5 L24.35 0.55 21.9 0.7 21.9 0.35 24.35 0.2 24.55 -2.25 21.7 -2.1 21.7 -2.4 24.55 -2.55 25.05 -9.75 14.9 -0.6 14.8 0.1 23.8 8.35 24.2 2.8 21.75 2.95 21.75 2.65 24.2 2.5" fill="#000000" fill-rule="evenodd" stroke="none"/>
    <path d="M-0.35 -3.1 L-1.0 -3.75 -1.95 -3.7 -2.6 -3.0 -2.55 -2.1 Q-2.35 -1.65 -1.85 -1.45 L-0.9 -1.5 Q-0.45 -1.7 -0.3 -2.2 -0.1 -2.65 -0.35 -3.1 M-1.1 -8.55 Q0.4 -9.4 1.7 -9.4 3.55 -9.45 5.5 -8.4 L7.05 -7.4 Q9.2 -3.85 6.15 -0.35 L2.7 2.45 Q-1.85 3.15 -3.9 0.25 L-5.0 -2.85 Q-4.05 -6.9 -1.1 -8.55" fill="#ffffff" fill-rule="evenodd" stroke="none"/>
    <path d="M-1.85 -1.45 Q-2.35 -1.65 -2.55 -2.1 L-2.6 -3.0 -1.95 -3.7 -1.0 -3.75 -0.35 -3.1 Q-0.1 -2.65 -0.3 -2.2 -0.45 -1.7 -0.9 -1.5 L-1.85 -1.45" fill="#000000" fill-rule="evenodd" stroke="none"/>
  </g>
</svg>
