<?xml version="1.0" encoding="UTF-8"?>
<svg width="86.765pt" height="90pt" version="1.0" viewBox="0 0 86.765 90" xmlns="http://www.w3.org/2000/svg" xmlns:cc="http://creativecommons.org/ns#" xmlns:dc="http://purl.org/dc/elements/1.1/" xmlns:rdf="http://www.w3.org/1999/02/22-rdf-syntax-ns#">
 <metadata>
  <rdf:RDF>
   <cc:Work rdf:about="">
    <dc:format>image/svg+xml</dc:format>
    <dc:type rdf:resource="http://purl.org/dc/dcmitype/StillImage"/>
    <dc:title/>
   </cc:Work>
  </rdf:RDF>
 </metadata>
 <path d="m33.646 90.288 37.761-0.24206-3.5099-18.881 0.96824-12.466v-27.232l-3.1468-18.881-3.994-7.6249-2.4206 12.103-1.8154 15.008-34.493 4.5991-9.3193-0.36309-3.5099-29.773-3.5099 2.4206-2.5416 11.982-2.4206 17.186 1.6944 20.817 16.944 0.24206 3.3888 15.492" fill="#fff"/>
 <g transform="matrix(.016068 0 0 -.016068 -14.578 118.12)">
  <path d="m4603 7338c-13-6-25-18-28-27-4-14-155-1643-155-1678 0-12-79-14-477-13-297 1-511-3-565-10-302-38-596-173-824-377l-59-53h-654l-5 33c-3 17-46 483-96 1034-50 552-93 1009-96 1017-7 17-48 36-80 36-56 0-105-43-177-155-248-388-417-1109-473-2025-11-176-8-687 5-860 19-251 61-552 98-697l5-23 522-2 521-3 8-65c36-316 134-675 263-968 114-257 304-558 453-714l35-38h456v134c0 130 1 135 26 165 37 44 91 44 128 0 25-30 26-35 26-165v-134h696l30 117c28 107 32 117 53 117 25 0 23 5 85-161l28-73h457l20 56c31 82 40 131 41 212 0 68 2 76 29 103 40 40 82 39 123-1l31-31-6-107c-3-67-12-130-25-169l-20-63h606l44 53c258 301 474 752 573 1193 71 318 93 598 77 991-12 293-26 405-66 543-124 428-450 790-861 956-49 20-91 37-92 38s-7 44-13 96c-81 703-236 1260-437 1575-90 140-154 180-230 143zm203-659c92-274 175-668 214-1024 6-55 13-113 15-130 36-279 42-1065 10-1360-11-96-47-340-51-347-3-5-300-8-660-8h-654v1180h420v-882l29-29c49-48 126-35 156 26 13 28 15 95 15 459v426h156l84-217c90-234 121-283 175-283 56 0 104 45 105 96 0 17-47 152-105 300l-106 269 16 167c8 91 15 172 15 178s34-16 75-50c59-49 81-62 108-62 48 0 76 18 93 59 26 61 8 88-126 199-110 89-120 101-120 131 0 18 13 178 30 355 16 178 34 377 40 443 14 158 21 217 27 212 2-3 20-51 39-108zm-3321-210c51-554 65-712 65-743 0-29-12-42-120-130-134-111-152-138-126-199 17-41 45-59 93-59 27 0 49 13 108 62 41 34 75 56 75 50s7-87 15-178l16-167-106-269c-58-148-105-283-105-300 1-51 49-96 105-96 54 0 85 49 175 283l84 217h156v-426c0-364 2-431 15-459 30-61 107-74 156-26l29 29v882h410v-1180h-649c-358 0-652 3-655 8-4 7-40 251-51 347-31 291-26 1106 10 1355 2 14 6 54 10 90 24 236 80 562 135 780 43 168 118 405 126 397 3-2 15-123 29-268zm1983-2012c52-55 50-137-5-198-43-47-96-64-152-49-39 10-95 54-89 69 4 12 209 201 218 201 3 0 16-11 28-23zm-654-84 106-98-36-34c-35-32-39-33-100-29-68 4-101 24-130 80-30 57-2 178 40 178 8 0 62-44 120-97zm556-796c200-52 388-164 448-266 35-59 38-164 7-226-43-88-136-145-234-145-53 0-99 20-189 78-78 51-133 69-242 81-142 16-277-10-379-71-29-18-69-43-89-55-79-48-198-36-276 28-85 71-111 205-60 308 31 61 124 136 241 195 101 50 162 68 333 100 14 3 97 3 185 1 130-3 178-8 255-28z"/>
  <path d="m2904 3436c-214-35-424-145-424-223 0-34 30-70 66-79 18-5 40 3 83 30 136 84 259 116 444 116 204 0 331-34 462-124 72-49 84-53 118-34 47 25 61 74 32 115-22 31-140 107-215 138-159 64-392 90-566 61z"/>
 </g>
</svg>
