<?xml version="1.0" encoding="UTF-8"?>
<svg width="50.044px" height="118.34px" enable-background="new 0 0 50.044 118.335" version="1.0" viewBox="0 0 50.044 118.34" xml:space="preserve" xmlns="http://www.w3.org/2000/svg" xmlns:cc="http://creativecommons.org/ns#" xmlns:dc="http://purl.org/dc/elements/1.1/" xmlns:rdf="http://www.w3.org/1999/02/22-rdf-syntax-ns#"><metadata><rdf:RDF><cc:Work rdf:about=""><dc:format>image/svg+xml</dc:format><dc:type rdf:resource="http://purl.org/dc/dcmitype/StillImage"/><dc:title/></cc:Work></rdf:RDF></metadata>


	<path d="m12.788 41.143c-0.54043 0.62873-1.4896 1.3033-1.899 1.8023 0.8503 0.08635 1.6328 0.10333 2.445-0.10765 0.46613-0.10514 1.1532-0.01054 0.83384-0.74714-0.04076-0.76927 0.18181-2.0264 0.08416-2.5225-0.48116 0.5313-0.9694 1.0562-1.464 1.575z" fill="none"/>
	<path d="m47.631 20.169c-0.66096-0.03522-0.43447 0.20449-0.03542 0.49767 0.337 0.25431-0.24289 0.78444-0.53179 0.69725-0.30135 0.03025-0.9565-0.3187-1.0279-0.04199 0.12148 1.276 0.28121 2.5507 0.18284 3.8342 0.01051 1.0181-0.40578 1.9796-0.59427 2.9713-0.43757 1.742-0.8123 3.5009-1.3515 5.2156 0.44648-0.49464 0.44789-0.31062 0.22101 0.2215-0.26023 0.54986-0.15279 1.1652-0.19701 1.7535 0.27941 0.52901 0.5037 0.79513 0.499-0.03504 0.38029-2.7989 1.3179-5.4704 2.0448-8.189 0.64561-2.2506 1.3159-4.502 1.6261-6.8294 0.25724-0.53538-0.1974-0.53856-0.53607-0.2575-0.09994 0.05396-0.19988 0.10792-0.29983 0.16188zm-0.102 2.814c-0.254 0.36535-0.81262 0.34252-0.79418-0.17541-0.04741-0.33092-0.25074-0.97939 0.26507-0.59554 0.25673 0.23534 0.68932 0.34172 0.52912 0.77095z" fill="#ab9079"/>
	<path d="m49.175 11.022c-0.047788-1.544 0.41966-3.0703 0.26456-4.6087-0.26631-1.2189-1.7693-1.2166-2.7666-1.2443-2.4822-2.7089-5.8284-5.07-9.6334-5.1173-1.7989-0.045071-3.449 0.77506-4.9669 1.6396-1.3219 0.84292-2.322 2.4676-4.0295 2.5113-0.67201 0.14504-1.6835-1.0164-1.3459 0.15598-0.04605 1.9551-1.2787 3.6907-1.2201 5.6546-0.08327 1.6205 2.2747 0.92133 2.1533 2.4145 0.10954 1.3738-0.1308 2.7529 0.04213 4.1259 0.06165 1.0465 0.22923 2.4955-0.9106 3.0421-1.5608 0.49671-2.9154 1.4897-4.3951 2.1884-1.181 1.1132-2.2345-0.25622-3.0801-1.1111-1.8807-2.0262-2.7099-4.7181-3.8428-7.1808-1.1898-2.8346-2.2644-5.7157-3.439-8.5564-2.0692 6.0141-2.9475 12.356-3.497 18.668-2.2548 2.2155-3.1448 5.3539-4.9241 7.9017-0.58046 1.0101 0.45742 2.1177 0.00481 3.1209-0.59901 0.50003-1.7488 0.28629-1.3742 1.4171 0.18618 1.2487 0.8389 2.7857-0.20448 3.8363-0.78411 2.311-0.40992 4.7702-0.384 7.154 0.90898 1.0369 0.45763 2.5534 0.16121 3.7459-0.15933 0.81825-1.0379 1.8867 0.30024 1.947 1.5386 0.63188 3.2097 1.5551 4.9108 1.007 1.8334-0.30881 3.1817-1.7094 4.5558-2.8449 0.69256 1.4846 1.7025-0.58731 2.0897-1.2653 0.83056-0.93828 0.47788 1.3997 0.77598 1.9034 0.05141 1.0264 0.52624 2.3612-0.23355 3.1917-1.3807 0.03688-1.4139 1.8713-1.457 2.8936-0.29958 1.2024 0.93253 2.2963 0.15838 3.3051-2.621 5.5423-4.1765 11.494-6.191 17.265-1.6108 2.7967-1.7402 6.0887-2.2427 9.1984-0.74353 1.7339-0.41073 3.708-0.96283 5.4902-0.39387 0.68832-1.3418-0.59657-1.839 0.34716-0.74044 1.2611-0.46872 2.8079-0.41408 4.2019 0.13481 1.0428 0.00497 2.1415 0.58871 3.0612 0.58617 1.4762 0.4462 3.1271 0.038495 4.6293-1.3931-0.71055-1.2326 1.5335-1.0138 2.342 0.63127 1.2411 0.41668 2.4849-0.15886 3.7335-0.53877 1.3738-0.89882 3.1408 0.2291 4.3332 1.4536 1.5338 3.5818 2.5292 5.7143 2.4514 1.0921-0.0238 2.0092-0.77506 2.4457-1.7324 0.87258-1.348-1.4861-0.97174-2.1611-1.4308-1.3679-0.73422-1.0316-2.5285-0.48998-3.6883 0.56006-0.94611 0.73735-2.3677 1.713-2.8684 0.74924-0.48782 1.2709-2.1064 0.34967-2.5602-0.50394 0.18986-0.82351 0.91849-0.57819 3e-3 0.49718-2.555 2.7636-4.3132 3.2902-6.8605 1.3661-0.41061 1.7837-2.1342 1.5927-3.3975 0.08019-0.91814-1.2013-0.55115-1.1512-0.52743 1.4406-3.1421 2.1204-6.6173 3.9574-9.578 1.229-3.5292 2.4788-7.0594 4.0564-10.451 0.23924-1.2573 0.84914-2.6873 2.0972-3.2189 1.2543-0.21498 1.3936 1.413 1.7511 2.2329 1.6792 3.5676 3.736 6.9413 5.4444 10.494-0.0052 1.9945 0.0028 3.9996 0.06004 5.9873 0.38771 0.91629 0.25022 1.9781-0.91123 1.4963-1.4144 1.669-1.5144 4.0515-1.0642 6.1093 0.28436 1.488 0.71084 2.9511 0.86535 4.4621 1.3081-0.0752 1.6665 1.2744 1.3129 2.2975 0.1024 0.98395-1.7418 0.25981-1.1875 1.5088 0.20548 0.96767 1.0984 1.6625 1.1791 2.7028 0.42849 2.318-0.54736 4.5713-0.67059 6.8689 3.102 1.2366 6.3605 2.1346 9.694 2.431 0.89314-0.27779 2.5486-0.87238 1.9726-2.068-0.92556-1.075-2.4766-0.59132-3.6702-1.0077-1.7694-0.64114-2.236-2.8083-1.9359-4.4757 0.20085-1.2069 0.6983-2.4419 1.6735-3.2276 0.49271-1.1457-1.2414-3.0769 0.32279-3.6519 1.3727-0.40575 1.649-1.988 1.6055-3.226-3.6e-5 -1.3275 0.01539-2.8227 1.0584-3.8017 0.58747-1.2504 0.10374-2.7808-0.6545-3.8541-0.56207-0.747-0.74474 0.91735-0.56503-0.21941 0.29332-2.5741 0.76779-5.2016 2.1286-7.4465 0.28188-1.1283 0.30896-2.3569-0.0098-3.4799-0.52008-1.1299-1.0128 1.2905-1.3024-0.04079-4.2262-7.1988-6.7551-15.213-10.514-22.641 0.27754-1.2596 0.83546-2.6931 0.23142-3.9334-0.54892-1.0069-2.4587 0.26124-2.4196 0.08883 1.728-1.5719 1.7504-4.1866 3.3407-5.8576 1.5644-2.6652 4.0246-4.8007 5.0115-7.7949 1.911-1.5963 2.2371-4.2535 2.291-6.59 0.1321-0.48023 0.44721-1.492 0.32541-0.41591-0.33112 0.87932 0.89974 2.241 1.2015 0.83162 0.55826-1.3815 0.59634-2.8977 0.55213-4.3667 1.6949 0.10551 2.8516 1.5072 4.233 2.312 1.7923-6.218 3.5847-12.436 5.377-18.654 1.29-0.0358 0.8191-1.8711 0.80108-2.7516-0.033972-0.31944-0.081983-0.63734-0.11008-0.9574zm-39.512 32.313c0.89022-0.5045 2.0515-0.44183 3.0289-0.25184-0.7067 0.38464-1.8917 0.91459-2.8274 1.1271-0.41618-0.065619-0.26908-0.60141-0.20152-0.87527zm1.17 4.682c-0.37567 0.97721-1.8052 0.55826-1.1661-0.46288 0.45402-0.65763 1.495-0.58911 2.1118-0.70387-0.22922 0.44882-0.67217 0.74544-0.94569 1.1668zm2.792 1.373c0.07135 0.90265-0.94803 1.8992-1.8163 1.6994-0.1774-0.89498 1.5739-2.0607 1.9191-1.8702zm0.677-9.799c0.37503 1.1226 0.31695 2.7466-0.94734 3.2706-0.63423 0.28265-1.9892 0.36456-2.2394-0.02723 1.0031-1.1371 2.1449-2.1428 3.1867-3.2433zm8.269 0.138c1.4456 0.79326-2.1407 1.1456-0.85844 0.10131 0.28692-0.33109 0.5208-0.19237 0.85844-0.10131zm-1.516-1.065c-1.1797-1.2707 2.399-1.0625 0.86416-0.17392-0.27375 0.1837-0.55421 0.1877-0.86416 0.17392zm1.695 4.446c-0.70376 0.82513-1.8692-0.24911-0.7239-0.73387 0.49418-0.0475 2.0999 0.37008 0.7239 0.73387zm4.896-1.734c-0.30336 1.0175-1.7272 1.8993-1.5883 0.19781 0.0324-0.9728-0.77039-1.9573 0.12436-2.822 0.48898-0.90417 1.6926-0.87368 1.6493 0.31563 0.28254 0.74033 0.52254 1.7154-0.18535 2.3086zm16.849-29.797c-0.2847-0.45924 0.43159-2.183 0.51767-0.97657-0.0742 0.36737-0.28403 0.69082-0.51767 0.97657z" fill="#ab9079"/>
	<path d="m47.002 15.52c-0.48967 0.30367-0.97933 0.60733-1.469 0.911 0.0085-0.5998 0.29414-1.1876 0.757-1.57-0.46609 0.1464-0.92913 0.42908-1.3926 0.50201-0.68139-0.22702-1.2833-0.61842-1.9054-0.96801 0.43496 0.51436 0.96816 0.99822 1.2342 1.6196 0.2008 0.47797 0.21351 0.71738-0.29007 0.36888-0.98208-0.49264-2.0568-0.7481-3.0682-1.1735-0.97311-0.067567-1.9491-0.27831-2.9163-0.05238-0.50442 0.065469-1.01 0.12419-1.5057 0.24138-0.86533-0.55329-1.6366-1.2809-2.6366-1.5848-0.56957-0.2277-1.1397-0.45406-1.7094-0.68125-0.16175 0.4633-0.4734 0.90975-0.27776 1.4132 0.01009 0.74961 0.51876 1.3322 0.82776 1.9818 0.38033 0.14467 0.76067 0.28933 1.141 0.434-0.63072 0.53923-1.3723 0.90518-2.1724 1.1195-0.21724 0.21982-0.5516 0.64071-0.39098 0.98139 0.08442 0.44808 0.27953 0.83276 0.63433 1.126 0.25958 0.32595 0.52954 0.63064 0.98522 0.555 0.77872 0.13402 1.5145-0.26323 2.2719-0.39215 0.78977-0.17185 1.5848-0.44676 2.3714-0.5559 0.83708 0.36086 1.7453 0.53267 2.6566 0.49616-0.80712 0.20796-1.6669 0.32858-2.4038 0.71686-0.44882 0.33663 0.45125 0.34131 0.66319 0.51533 0.54206 0.29457 1.1481-0.03924 1.7226-0.06251 0.84913-0.07053 1.6439-0.36881 2.4471-0.63168-0.41504 0.27459-0.7383 0.62638-0.9284 1.0902-0.38271 0.61427-0.68225 1.2632-0.83528 1.9733-0.18089 0.74804-0.56712 1.4711-0.42433 2.2585 0.06545 0.79672 0.0056 1.623 0.14959 2.4012 0.54292 1.1494 0.9984 2.3489 1.5963 3.4667 0.32336 0.45336 0.64673 0.90673 0.97009 1.3601-0.94192-0.61358-1.809-1.3555-2.8028-1.8801-0.47288-0.16746-0.90153-0.60522-1.4302-0.4319-0.06566 0.41308-0.26489 0.77929 0.06952 0.95827 1.2992 1.7976 2.5983 3.5952 3.8975 5.3927 0.46967-1.1933 0.93933-2.3867 1.409-3.58 0.13487 0.47562-0.28755 1.0333 0.02535 1.4429 0.06082-0.21948 0.02786-0.77318 0.05271-1.1209 0.0597-0.41352 0.25824-0.80232 0.37294-1.206-0.44111 0.49634-0.45359 0.30882-0.24622-0.22946 0.6623-2.3023 1.1585-4.6493 1.7502-6.9705 0.04164-1.1851 0.08325-2.3703-0.08576-3.5482 0.06488-0.29231-0.30126-1.0466 0.09596-0.9827 0.36879-0.0041 0.81875 0.26533 1.1348 0.08339 0.4457-0.22769 0.42917-0.66377-0.01505-0.8772-0.52205-0.34824 0.40312-0.13828 0.58046-0.41347 0.16797-0.20627 0.9463-0.18308 0.50861-0.4158-0.23297 0.15384 0.04987-0.55645 0.02781-0.75506 0.23543-1.3484 0.44177-2.7005 0.4962-4.0699-0.56432-0.18493-0.99665 0.29723-1.4845 0.49863-0.15282 0.081789-0.30565 0.16358-0.45848 0.24537z" fill="#88c4cf"/>
	<path d="m27.384 37.792c-0.55401 0.448-1.1449 0.85609-1.5465 1.4555-0.37174 0.26787 0.05762 0.71043 0.08069 1.0644 0.21682 0.83291 0.33419 1.7009 0.26981 2.5631 0.25526 0.29965 0.51182-0.48075 0.76764-0.65036 0.48054-0.54193 0.89422-1.1302 1.2314-1.7716-0.26112-0.88887-0.38158-1.8281-0.803-2.661z" fill="#a1b8bf"/><g fill="#f34a15">
	<path d="m21.652 39.645c-0.0947 0.33038-0.3785 0.8481 0.02421 1.0246 0.5686-0.04808 1.0577-0.38473 1.5008-0.72055-0.49337-0.16292-0.99322-0.43683-1.525-0.304z"/>
	<path d="m21.876 38.431c0.19339-0.1955 0.9411-0.60362 0.28252-0.61337-0.41113-0.09571-0.8232-0.20338-1.2079 0.03592-0.32236 0.201-0.22459 0.78899 0.16862 0.81045 0.31011 0.05262 0.51522-0.04691 0.75676-0.233z"/>
	<path d="m22.306 42.497c-0.34186-0.25336-0.81155-0.17992-0.83579 0.30751-0.19769 0.35206 0.06229 0.82534 0.48583 0.60764 0.48829-0.17128 0.9662-0.36479 1.404-0.64415-0.33344-0.15427-0.69954-0.18938-1.054-0.271z"/>
	<path d="m11.847 46.767c-0.76312 0.24047-1.6077 0.38153-2.2684 0.82806-0.29785 0.31612-0.29858 0.73562 0.048335 0.99517 0.38246 0.25657 0.74768 0.04734 0.963-0.30628 0.42482-0.4967 0.8978-0.9739 1.257-1.517z"/>
	<path d="m10.392 44.125c0.81707-0.42875 1.6739-0.75594 2.563-1.001-0.14407-0.25529-0.76002-0.02994-1.0919-0.09391-0.5756 0.030516-1.1493-1.26e-4 -1.7221-0.05909-0.37406 0.19831-0.59044 0.49879-0.60983 0.92694 0.10499 0.32649 0.551 0.39838 0.86083 0.22706z"/>
	<path d="m12.258 50.057c-0.29321 0.27325-0.69211 0.50016-0.556 0.96169 0.03155 0.37985 0.71262 0.30837 0.92149 0.0506 0.636-0.52567 0.8467-1.3559 1.1805-2.0803-0.53889 0.32564-1.075 0.64581-1.546 1.068z"/>
	<path d="m20.785 25.526c-0.49756-0.58439-1.2812-0.75484-1.931-1.119-0.34446-0.01961-0.87557-0.24845-1.1066-0.14091 0.10157 1.0335 0.12993 2.0674 0.02427 3.1019-0.05739 0.95011-0.10416 1.901-0.19066 2.849 0.85635 0.29811 1.7357 0.54614 2.4876 1.0718 0.45626 0.43136 0.5285 0.10708 0.51922-0.37764 0.13256-1.2753 0.32738-2.548 0.22854-3.8332-0.010473-0.51732-0.020941-1.0346-0.03141-1.552z"/>
	<path d="m39.685 23.646c0.54635-0.04126 0.6598-0.72942 0.89043-1.1327 0.38245-0.52009-0.1733-0.31061-0.52298-0.2211-0.42783 0.09722-0.87578 0.15842-1.1365 0.55482-0.11675 0.46603 0.38843 0.72058 0.769 0.799z"/>
	<path d="m46.644 22.063c0.07439 0.41013-0.02609 0.94314 0.358 1.213 0.36501-0.0123 0.79641-0.50556 0.40027-0.75683-0.22987-0.19858-0.46428-0.36642-0.75827-0.45617z"/>
	<path d="m44.905 9.91c-0.29441 0.35913-0.38131 0.78448-0.37552 1.2394-0.07151 0.89401 0.04199 1.7919 0.05153 2.6876 0.20463 0.59836 0.56106 0.17453 0.4963-0.26734 0.14184-1.2188 0.057834-2.4564-0.1723-3.6597z"/>
	<path d="m35.199 87.18c0.59179 0.44794 1.4364 0.62514 2.1374 0.35888 0.44296-0.2695 0.83026-0.59334 1.0681-1.0632 0.50837-0.70659 0.59108-1.6219 0.64314-2.4635 2.85e-4 -0.7023-0.25413-1.3793-0.75341-1.8797-0.37154-0.44517-0.95072-0.76036-1.4967-0.86228-0.6087 0.192-1.1431 0.51367-1.6202 0.93513-0.36683 0.25838-0.62813 0.67784-0.80443 1.0772-0.19284 0.68038-0.16504 1.407-0.10349 2.0999 0.16418 0.52514 0.2217 1.1067 0.66757 1.4828 0.08734 0.1049 0.17469 0.20979 0.26203 0.31469z"/>
	<path d="m13.423 81.523c-0.26713-0.28562-0.50144-0.62609-0.92996-0.6419-0.38527-0.18326-0.76864-0.12105-1.1513 0.03291-0.43987 0.09681-0.77428 0.46161-1.1008 0.74421-0.27051 0.58018-0.77619 1.0921-0.69646 1.7739-0.048812 0.45432-0.083381 0.90648 0.1584 1.3165 0.15279 0.31981 0.36463 0.7786 0.79912 0.65633 0.74823-0.0076 1.5631 0.0034 2.1903-0.45889 0.48296-0.26769 1.0824-0.55292 1.2411-1.117 0.13223-0.39134 0.12958-0.77484-0.05837-1.1476-0.12714-0.3946-0.30356-0.77169-0.45203-1.1586z"/>
	</g><g fill="#414042">
		<path d="m10.087 32.953c-2.0065-0.31356-3.853-1.2311-5.59-2.245 1.8937 1.7572 4.4334 2.6676 6.9914 2.7969 1.536 0.1318 3.082 0.12171 4.6194 0.02073-2.0124-0.118-4.032-0.22251-6.0207-0.57267z"/>
		<path d="m14.11 23.748c-0.7952-3.6378-1.498-7.311-1.6564-11.04-0.13454-1.8081-0.26908-3.6162-0.40361-5.4243-0.03914 4.4833 0.03987 9.0105 1.0737 13.397 0.87213 4.312 1.9361 8.5823 3.0383 12.84-0.68684-3.2571-1.3809-6.5126-2.052-9.773z"/>
		<path d="m11.032 27.48c1.4586 2.0238 3.1131 3.8979 4.835 5.7-2.1092-2.6436-4.1949-5.3076-6.0892-8.111-0.32184-0.43808-1.5115-2.0645-0.75043-0.79865 0.61795 1.1002 1.2912 2.1689 2.0046 3.2097z"/>
		<path d="m9.277 30.266c2.052 0.95182 4.1129 1.886 6.202 2.754-2.9744-1.5542-6.1453-2.7109-9.0641-4.3706-0.37374-0.22312-0.97063-0.61936-0.24892-0.12005 0.97992 0.67442 2.03 1.2422 3.111 1.7366z"/>
		<path d="m20.832 25.499c-0.67333-0.99242-1.9145-1.5874-3.111-1.507-0.24482 1.4273-0.08416 2.9318-0.19355 4.3891-0.02163 0.9996-0.36018 2.2293 0.99364 2.2649 0.74487 0.10712 1.7317 1.2563 2.1506 0.93834 0.34508-2.0048 0.52788-4.0696 0.16033-6.0854zm-0.269 1.542c-0.05172 1.4662-0.19541 2.9334-0.103 4.401-0.74592-0.70364-1.7174-1.1271-2.7247-1.2708-0.03824-1.3624 0.25548-2.8721 0.23131-4.2948 0.05589-0.70638-0.53487-2.0815 0.61457-1.3701 0.70535 0.40221 2.3715 0.54552 2.044 1.6509-0.02747 0.29404-0.04688 0.58879-0.06215 0.88369z"/>
		<path d="m21.743 40.846c0.63128-0.16956 2.3397-0.98012 0.89188-1.2218-0.87906-0.74237-2.0706 0.82948-0.89188 1.2218zm0.135-1.095c0.64479-0.05117 1.6247 0.28152 0.54288 0.62187-0.67805 0.52596-1.2317 0.057483-0.54288-0.62187z"/>
		<path d="m31.247 35.737c-1.208 0.55006-2.581 0.14582-3.828-0.061 1.2625 0.49468 2.763 1.0209 4.0735 0.41173 1.1298-0.62015 2.2415-1.9228 1.7164-3.2846-0.10115-0.06769-0.12089 1.3702-0.62814 1.7468-0.35694 0.4815-0.82358 0.87611-1.3338 1.187z"/>
		<path d="m24.292 50.183c-0.77534 0.74901-1.5539 1.5229-2.701 1.1125-0.74472-0.06311-1.5826 0.13331-2.1716-0.45968-1.0267-0.94498 0.5121 1.0209 1.1427 0.67071 1.2841 0.02324 2.6017 0.49436 3.3249-0.85055 0.1391-0.1541 0.27196-0.31365 0.40491-0.47302z"/>
		<path d="m19.469 54.862c-1.0572-0.44241-0.93504-2.7375-1.1035-2.8747-0.02388 1.3468 0.07406 3.0247 1.7206 3.2809 0.47755 0.14433 1.1119 0.31119 0.28892 0.02995-0.30666-0.12923-0.63959-0.23206-0.90604-0.43616z"/>
		<path d="m23.745 54.25c0.23506-1.1295 0.39809-2.28 0.41-3.435-0.2639 1.1243-0.36885 2.283-0.41 3.435z"/>
		<path d="m28.428 43.765c0.25304 0.53188 1.7906 1.7459 0.78148 0.63038-0.18117-0.25433-1.5687-1.9871-0.78148-0.63038z"/>
		<path d="m9.664 85.351c0.48865-0.02363 0.70093 0.39793 0.65152 0.08495 1.3121 0.18639 2.7831-0.17879 3.6245-1.2567 0.49646-0.96162-6e-3 -2.118-0.55152-2.9531-0.77268-1.0843-2.4829-0.8448-3.1801 0.19986-0.94427 1.0739-1.186 2.8513-0.16724 3.9487-0.12565-0.009043-0.2517-0.011471-0.37714-0.023668zm-0.077-1.341c-0.058248-1.2903 0.77956-2.7566 2.0901-3.0513 1.3825-0.15696 2.045 1.443 2.1336 2.5777-0.21253 1.2069-1.6852 1.736-2.7654 1.8246-1.0399 0.32524-1.3509-0.48245-1.4583-1.351z"/>
		<path d="m8.55 103.83c-0.045305-0.72516 0.62247-1.0975 1.2283-1.1595-1.9386-0.0895-4.0666 0.30401-5.7909-0.82742-0.80952-0.45542-1.4283-1.3074-2.4454-1.2671 1.4751 0.17023 0.26192 2.1514 0.47246 3.1205-0.012121 1.0052-0.19836 1.5211-0.54605 0.91311 0.36139 1.8646 2.4213 3.0392 4.2319 2.607 1.1788-0.15362 2.4298-0.64264 3.0407-1.7275-0.13904 0.92632 0.074211 2.1188-1.063 2.4994-0.93991 0.70695-1.0755 2.0055-1.5299 3.0242-0.19683 1.1064-0.99421 2.6302 0.074082 3.4895 0.57643 0.86204 1.6944 0.81597 2.5939 1.0125 0.20572 0.90547-1.1295 2.6121-2.33 2.0335-1.4564-0.23928-2.936-0.50926-4.2846-1.1292-0.74075-0.77384-1.2327-1.7825-1.7272-2.7334-0.36057-1.1212 0.84618-2.0936 0.92285-3.2284 0.14277-1.1105 0.59117-2.424-0.12537-3.4183-1.0064-0.55444 0.31908-2.2163 0.10594-2.5021-0.312 0.87993-1.3673 2.0071-0.3046 2.7484 0.53575 0.84731 0.18484 1.938 0.05891 2.8714-0.17058 1.0781-0.81011 1.9942-1.1197 3.0169 0.20351 1.2243 1.0849 2.2355 1.6916 3.2983 1.1772 0.87303 2.7215 0.96039 4.1014 1.3113 1.0997 0.36093 2.3971 0.25629 2.9048-0.94159 0.44866-0.53786 1.1133-1.7088-0.13896-1.6482-1.2936 3e-3 -3.09-0.90206-2.502-2.4372 0.29937-1.4804 0.8476-2.9276 1.5687-4.2456 0.77376-0.46137 1.598-1.0459 1.3483-2.0889 0.044618-0.64776-0.26244-1.2757-0.70129-0.45331-0.864 0.5619 0.27946-1.4496 0.2312-1.9892zm-1 2.622c-1.6802 0.80807-4.0256 0.84435-5.2787-0.72442-0.46482-1.2883 0.18112-2.7682 0.13939-4.1302 0.00506-0.55464 0.083082-0.95879 0.48354-0.32895 0.91478 1.1307 2.2445 2.037 3.7604 1.9262 0.80324 0.10283 2.412-0.70845 1.7012 0.68405-0.21668 0.8731-0.50381 1.7267-0.8059 2.5734z"/>
		<path d="m32.614 82.257v0z"/>
		<path d="m1.566 97.249c0.036184-1.0299-0.73872-2.0705-0.13056-3.0508 0.21847-0.52556 0.90387-1.8973 0.85484-1.8919-0.47577 0.9531-1.3041 1.8665-1.3116 2.9687 0.47517 1.7064 0.33596 3.4845 0.44227 5.2341-0.044224-1.0895 0.13885-2.1717 0.145-3.26z"/>
		<path d="m15.316 85.978c0.67171-1.2555 1.1203-2.6146 1.577-3.959-0.66462 1.5175-1.3389 3.0324-2.0652 4.5189-0.19131 0.49098-0.13096 0.95355 0.13031 0.24618 0.12252-0.26727 0.22442-0.54381 0.35789-0.80609z"/>
		<path d="m12.858 96.536c-0.06685-0.61731-0.34207-2.092-0.43131-2.1262-0.10918 0.95841 0.6659 2.2669-0.12123 2.9817-1.5277 1.0596-1.9165 2.9734-2.313 4.666-0.29782 1.3342 0.22603-0.66343 0.38877-1.101 0.38459-1.2772 0.90976-2.5984 2.0528-3.3847 0.42845-0.2322 0.53343-0.56947 0.42392-1.0358z"/>
		<path d="m32.101 13.134c-0.94472 1.3553-0.07698 3.7132 1.6395 3.8503-0.89588 0.74409-3.1714 0.8662-2.5039 2.5179 0.45146 1.2926 2.0131 1.7044 3.1886 1.1635 1.0834-0.19528 2.1428-0.78684 3.2281-0.77984 0.61212 0.34087 2.1834 0.46206 2.3359 0.41219-1.0745 0.16176-2.0405-0.68322-3.0645-0.44281-1.3193 0.27826-2.6076 0.8673-3.9682 0.85774-0.94629-0.13815-1.8886-1.1707-1.5787-2.143 0.42974-0.80108 2.524-0.83069 2.2004-1.6989-1.3642-0.64356-1.9758-2.3393-1.4771-3.737z"/>
		<path d="m47.092 5.578c-2.2194-2.4028-4.9032-4.6196-8.1465-5.404-3.1502-0.69816-6.2814 0.87821-8.6621 2.8276-0.75179 0.67324-1.3797 1.568-2.4564 0.93793-0.60105-0.087188-1.5467-0.71975-1.3297 0.42743-0.30576 1.968-0.49757 3.9575-1.105 5.8653-0.48924 0.67143 0.33491 0.64995 0.74428 0.84269 1.1597 0.05295 0.40699 1.1852 0.43321 1.949 0.05379 1.2951 0.2573 2.5531-0.86459 3.4562-1.4806 1.8516-2.538 4.0273-4.2702 5.6754-0.64708 0.04004-1.5441-1.1949-2.2879-1.6168-0.98309-0.98958-1.4659-2.3338-2.1078-3.5468-1.8742-3.8652-3.2524-7.9465-4.9581-11.881-0.1312-0.66637-0.35882 0.87068-0.51586 1.1054-1.0761 3.5457-1.9175 7.1671-2.3486 10.851-0.29142 2.1662-0.55923 4.337-0.72485 6.5169-1.0978 1.2282-2.1019 2.556-2.7319 4.09-0.37795 0.86161-1.1991 1.4826-1.3451 2.4574-0.15035 0.81236-1.038 1.2616-1.124 2.1376 0.013531 0.71558 0.59747 1.5284 0.5285 2.0788-0.4357 0.51906-1.5773 0.50981-1.8275 0.87725 0.26109 0.98881 0.45897 1.9899 0.669 2.99-0.45658 1.1417-0.98734 2.2754-1.224 3.482 0.50047 0.74341 0.055005 1.4547-0.14419 2.2312-0.042686 0.65794 0.90903 1.2118 0.40327 2.0575-0.4355 0.77736 0.22607 1.4985 0.54734 1.8829-0.41055 1.0383-0.83073 2.1444-0.53922 3.2747 0.44505 0.64187-0.80051 1.1866-0.4422 1.4607 0.31454 0.15366 0.97547 0.26432 1.4386 0.3159 0.81289 0.12985 1.438 0.82579 2.2682 0.98891 1.0046 0.31508 2.0594-0.1271 2.9122-0.64881 0.79864 0.58385 1.4191-0.60649 2.094-0.92175 0.55986-0.35602 1.1895-1.505 1.552-1.4522 0.18223 1.3742 1.6722 0.12466 1.8602-0.66898 0.15489-0.45904 0.72538-1.6338 0.67093-0.47777 0.04575 0.4687 0.21516 0.91198 0.32788 1.3668 0.20852 0.14919 0.28043 1.1158-0.10444 0.94692-0.24019 0.87461 0.14081 2.3154 0.19471 2.7926-0.44847-0.03847-1.2128-0.76381-1.1821 0.06107-0.36794 1.3222-0.64593 2.6725-0.59844 4.0537-0.29533 0.70104 1.1947 0.47439 0.564 1.1288-0.97214 1.8564-1.8364 3.7694-2.4566 5.7735-1.425 4.1922-2.8822 8.3751-4.2109 12.599-0.50829 0.82343-1.0224 2.0456-1.2318 3.1385-0.31981 1.2817-0.61686 2.5752-0.85648 3.8711 0.74873-2.2253 1.2335-4.5259 1.931-6.766 0.59991 0.34268 1.2929 0.58051 1.73 1.145-1.161 1.7683-1.5386 3.9784-1.131 6.044-0.59848-0.42916-2.2767-0.5603-2.3456-0.42575 0.3152 0.35947-0.22483 1.3708-0.28648 2.0317-0.44619 2.0047-0.96159 4.0075-1.0239 6.072-0.36116-0.29627-1.3047-2.0684-0.79171-0.86123 1.1068 2.6365 4.2064 4.5091 7.0423 3.6763 1.068-0.24946 2.3989-1.5019 2.6961-2.0515-0.54596 0.63329-0.80028 0.70087-0.34423-0.13831 0.92026-2.2809 1.7706-4.5914 2.5405-6.9272 0.38502-0.23263-1.9356-0.11606-0.5972-0.6 1.0414-0.56885 1.7253-1.5736 1.7156-2.7763 0.14691-0.91673-0.11773-2.3381 1.2516-1.8737-0.09321-0.82906 0.82302-1.9569 1.0624-2.9287 0.8833-2.5112 2.068-4.9005 3.2006-7.3053 0.74771-0.17618 1.2996-0.33489 1.5229 0.58513 1.6887 2.9046 2.9116 6.0529 4.641 8.9332 0.58065 0.81286 1.0124 1.7443 1.4696 2.6975 0.36868 0.88121 0.02585 1.8552 0.10097 2.7771-0.05684 0.87935 0.01936 1.6643 0.09531 2.2361-0.02874 1.079-0.06594 2.1577-0.08378 3.2369-0.31511-0.18281-0.56617-0.54048-0.916-0.624-0.24326 0.69988-0.16735 1.5437-0.52588 2.2354-0.61486 1.0381-1.3973 2.1226-0.75641 3.3633 0.2984 1.4381 1.2188 2.7459 1.0527 4.2633-0.10681 0.90787 0.43756 2.1022 1.3846 1.205 0.13176 0.93364 0.04691 1.8712 0.028 2.808-0.48401-0.28285-1.1636-1.5246-1.0831-0.23575-0.27652 1.0818 0.26101 1.9648 0.85854 2.8046 0.56767 1.3537 0.25257 2.8723 0.14983 4.2875-0.06082 1.1223-0.58947 2.158-0.66925 3.2697 0.31545 0.62092 1.2203 0.50956 1.7776 0.83338 2.4045 0.95944 4.9927 1.3074 7.5094 1.8586 1.12 0.02 2.0287-0.84551 2.8075-1.5559 0.66414-1.1336-1.4058-0.87118-2.0492-1.1387-1.1701-0.36722-2.4079-0.7002-3.4075-1.4321-0.72914-1.0357-0.37128-2.4048-0.25868-3.5743 0.20078-0.93064 0.26283-1.9719 0.79438-2.7758 1.2617-0.18561 0.70377-1.4651 0.49605-2.292-0.28722-0.47877 0.02251-1.0497 0.06338-1.5691 1.0387-0.2265 2.0627-1.128 2.0122-2.263 0.15211-1.1675-0.04277-2.3821 0.27521-3.5208 0.31393-0.97603 1.4693-1.7533 1.0889-2.8744-0.27602-1.0331-0.67842-2.0265-1.0774-3.0169-0.22858 0.41552-0.58531 1.3895-0.344 0.411 0.21432-1.4245 0.54142-2.8496 0.486-4.299 1.3307-1.5447 2.0262-3.6933 1.752-5.722-0.08189-0.30037-0.29827-1.9215-0.562-1.333-0.08804 0.45395-1.0179 1.3351-0.14 0.564 0.4703-0.46046 0.4259 1.1963 0.46253 1.6617-0.13486 1.9557-0.9082 4.0521-2.565 5.2136-1.2664 0.86291-3.0587 0.66776-4.1594-0.39133-1.1341-1.0387-2.0646-2.4379-2.2725-3.9834-6e-3 -1.019 0.43008-1.98 0.91838-2.8526 0.22587 0.4941 0.80262 0.96537 0.25039 0.18322-0.52867-0.61102 1.3655-0.87191 0.63005-0.21066-0.19511 0.43235-0.41776 0.99759-0.08074 0.23623 0.51245-1.1885 1.56-2.0224 2.5326-2.8193 0.37184-0.45973 0.46748-1.3302 0.91516-0.37848 0.87378 0.68979 1.6319 1.4893 2.1744 2.4806 0.3143 0.48028 1.0645 1.7506 0.40042 0.57938-0.57808-1.1148-1.3944-2.087-1.8428-3.2671-1.783-3.9192-3.6287-7.8122-5.2168-11.816-1.0783-2.5008-2.1849-4.9927-3.4417-7.4099 0.26645-0.91491 0.43316-1.9163 0.43777-2.886 4.55e-4 -0.47868 1.44e-4 -0.95735 2.34e-4 -1.436-0.75179 0.1737-2.2843 0.69092-2.5576 0.45123 0.3101-0.28959 1.1707-1.3761 0.40639-0.56369-0.38212 0.36472-0.60176 0.85636-1.2168 0.69645 0.97952 0.27287 2.4905-0.42139 3.126-0.09027 0.04437 1.2302-0.08556 2.454-0.367 3.6533-1.6633 1.2362-3.8295 1.4525-5.8216 1.7529-3.207 0.35018-6.4537-0.34897-9.4194-1.5529-0.04384-1.3809 0.17065-2.7448 0.55823-4.0666 0.18738-0.77806 1.4546 0.36946 2.0714 0.22785 1.5641 0.34087 3.2143 0.41598 4.7884 0.14975-0.74308 0.0022-2.2348 0.41026-2.5852-0.18636-0.0791-0.88425-0.09879-2.137-0.81048-2.6816-0.70595-0.15274-1.4325-0.20288-2.1073-0.48099-0.34693-0.75481-0.06002-1.2402 0.73267-1.069 0.60277-0.020492 1.2056-0.039791 1.8083-0.061037-0.23217-1.3104-0.41927-2.6377-0.25797-3.9672 0.18682-0.49465 0.91873-0.66982 1.325-1.0508 1.0466-0.24339 2.1521-0.53596 3.2051-0.63012 1.1221 0.01538 2.2678-0.05426 3.3239-0.47188-0.54621-0.38643-1.9214-0.49434-1.884-0.95188 0.8608-0.66636 1.947-0.57771 2.9632-0.52563 0.04587 0.02913 0.87432 0.09907 0.31048-0.19473 0.4561-0.7761 1.3251-1.4383 1.6896-2.3385 0.57338-1.0172-0.41375-2.172-0.53526-3.2253-0.4146-0.49888-1.4708 1.9461-1.816 0.662-0.92153-0.84602-2.157-1.3839-3.3532-0.79442-0.97876-0.012612-1.7806 0.22326-2.2021 1.1777-0.88134 1.15-1.6058 2.4251-2.5817 3.4987-1.7851 0.20261-3.5499 0.60587-5.332 0.78617-0.53673-0.04378-1.881 0.12387-0.85759-0.48162 1.0468-0.88147 1.9664-1.8976 2.8846-2.9085 0.04332 0.94708-0.43142 2.4944 0.07578 3.0707 0.44411-0.60891-0.09412-2.1125 0.08051-3.0474 0.47503-0.92476 1.2718-1.9166 2.4068-2.0699 2.154-0.73791 4.0659-2.3304 4.8136-4.5283 0.67885-2.0963 1.0806-4.306 1.1128-6.5124-0.09804-0.83075 0.01371-0.61895 0.23825-0.02997 0.4719 1.3342 0.77243 2.7413 1.4397 4.0063 0.73684 1.6234 2.0925 2.8996 3.5587 3.8683 1.0017 0.62718 2.3776 0.73129 3.3135-0.08526 0.9484-0.74791 1.5749-1.8212 1.8364-2.9361 0.18282 0.45744-0.24698 1.096 0.57014 1.0908 0.57043 0.11474 1.0469 0.31486 0.55168 0.9575 0.20668 0.19562 0.70032 0.25448 1.0138 0.3991 0.80243-0.05683 0.0063 0.82064 0.53332 0.92508 1.0043 0.06081 0.78652 0.95949 0.6947 1.7402-0.11549 1.5364-0.19594 3.2219-1.3368 4.3961-0.34825 0.39463-1.2599 1.6917-0.77188 0.4571 0.14199-0.54079 0.48398-1.9705 0.03825-0.71047-0.58044 1.2942-0.90209 2.7314-1.7099 3.9078-0.30976 0.50905-1.9011 1.1105-1.624 1.1875 0.55977-0.1159 1.1385-0.43169 0.53612 0.24159-0.44166 0.81629-0.79126 1.6808-1.8296 1.0588-1.1554-0.23759-2.3617-0.42868-3.3088-1.1945-1.1592-0.83165 0.64615 0.98373 1.2159 1.0722 0.66807 0.37828 2.243 0.29291 2.4053 0.69581-0.20198 0.23368-0.83282 0.83663-0.22939 0.37683 0.23632-0.11406 1.0076-0.79074 0.8032-0.44185-0.73739 1.1889-1.5201 2.3489-2.304 3.5075-0.82102 0.01783-1.633 0.13718-2.443 0.264-0.42225-0.15558-1.7426-1.2239-1.4699-0.91681 0.61293 0.31337 1.0414 1.379 1.8492 1.1054 0.60253-0.09575 1.207-0.18054 1.8177-0.19756-0.21082 0.88008-0.91358 2.7472-1.0285 2.8914 0.44916-0.99008 1.0343-2.2597 1.3223-3.1466 0.64786-1.02 1.5721-2.1922 2.2883-3.297 0.70595-1.2462 1.5675-2.3756 2.6009-3.3329 0.62286-1.2055 0.727-2.6319 1.8808-3.4971 1.3487-1.3404 1.3578-3.3318 1.5567-5.0958-0.0038-0.56577 0.22652-0.89135 0.29036-1.5011 0.16126-0.66553-0.19395 0.2954-0.31186 0.50906-0.51886-0.17715-1.1528-0.25837-0.884-0.987-0.06638-0.54088-0.17975-1.1171-0.11394-0.18498-0.04494 0.65216 0.05448-0.98467-0.07472-0.38508-0.0047 0.61284-0.50425 0.22761-0.85762 0.1372-0.56828 0.09846 0.0106-1.7913-0.45288-0.9872-0.316-0.18952-1.1608-0.1112-0.89584-0.66292 0.19929-0.648-0.50521-0.68178-0.91604-0.86165-0.54353-0.13664-0.058437-1.1092-0.88072-1.0626-0.48572-0.14074-0.92174-0.24151-0.65224-0.83675 0.18719-0.48667-0.40115-0.34847-0.71094-0.43699-1.0724 0.15093-0.20053-0.86308-0.51706-1.477-0.30842-0.45008-1.6178 0.031775-1.0009-0.875 0.15026-1.9674-0.24228-3.9272-0.40347-5.8861-0.36574-2.8903-0.36759-5.8152-0.78766-8.6989-0.68967-0.31867-1.3793-0.63733-2.069-0.956 0.50239-1.7495 0.7978-3.542 0.97473-5.3508 0.097852-0.81279 0.028448-1.8913 1.0926-1.2304 3.9197 1.0169 7.8869 2.028 11.947 2.2363 3.5212 0.055417 7.0516-0.28168 10.497-1.0121-1.2092 2.3769-1.1837 5.1271-0.84 7.707-0.24159 0.33376-0.08132 1.9963-0.05314 1.6934 0.04577-1.0848 0.47599-2.0661 0.10006-3.1588-0.24856-2.1042-0.11129-4.2958 0.79208-6.2406-0.98458 0.11062-1.9699 0.2148-2.956 0.311zm-33.269 81.697c0.8732-0.02744-0.32643 1.2699-0.34617 1.8492-0.76756 1.985-1.3943 4.0201-2.0748 6.0358-1.3923 1.1363-3.3602 1.362-5.0015 0.66325-1.1032-0.42479-2.0725-1.1567-2.8425-2.0483 0.39893-2.41 0.90382-4.7999 1.2949-7.2111-0.031031-0.82055 0.25399-1.365 1.1021-0.88291 1.3743 0.11244 1.2601 1.6086 2.2496 2.24 1.3256 0.71819 2.9229 0.16234 4.2084-0.39302 0.45751-0.31213 0.87214-0.3419 1.41-0.253zm22.181 18.636c0.1702 0.72613 0.52947 1.6389-0.52661 1.768-0.6154 0.81361-0.66622 1.9284-0.88863 2.9034-0.13219 1.2354-0.49793 2.6873 0.30124 3.77 1.1113 0.83405 2.5039 1.2101 3.822 1.5995 0.57625 0.0951 2.4701 0.14222 1.276 0.94327-0.74365 0.59112-1.6685 1.411-2.6858 1.0467-2.5629-0.53108-5.1719-0.95399-7.6062-1.9499-0.60211-0.117-1.343-0.35122-0.87589-1.1238 0.58918-1.9244 0.8107-3.9696 0.65375-5.9747 6e-3 -1.0603-1.1124-1.6856-1.1535-2.6826 0.09854-0.58153-0.3224-2.158 0.31427-0.88972 0.99542 1.3904 2.7218 2.1499 4.4194 1.9896 0.88177-0.0391 1.7996-0.16106 2.572-0.61675 0.07489-0.27006 0.33059-2.0239 0.378-0.783zm2e-3 -1.766c-0.15063 0.80994-0.24307 1.6457-0.629 2.388-1.9236 0.50211-4.195 0.51679-5.842-0.75075-0.42477-0.22797-0.14664-0.80769-0.20319-1.2112 0.26993-0.68447-0.6918-2.2236 0.60232-2.034 1.6502 0.14031 3.0936 1.1278 4.7204 1.4126 0.36816 0.20481 1.2583-0.08 1.3515 0.19542zm2.151-9.806c0.30504-0.31212 0.32191-1.7508 0.55914-0.70836 0.33962 1.0505 1.0816 2.3492 0.09665 3.289-0.60399 0.75402-0.93502 1.6809-0.9075 2.6451-0.09461 0.96557-0.01209 1.9922-0.33322 2.908-0.62247 0.98702-1.8953 1.2941-2.967 0.94322-1.5602-0.33806-2.9737-1.2344-4.5731-1.3799-0.73759-0.21959-1.5876 0.98255-1.7529 0.86537-0.39404-1.1962 0.02823-2.5093-0.55339-3.6629-0.38301-1.1336-0.85132-2.2838-0.92402-3.485 0.53947-1.0366 1.2538-2.0392 1.2953-3.2615-0.12557-0.91571 0.41981-0.09305 0.74871 0.11924 0.36874 0.42157 1.2201 0.9431 1.7693 1.4308 1.4215 0.96534 2.8513 2.3059 4.678 2.269 1.243-0.04644 2.3301-0.87336 2.864-1.972zm-5.152-5.749c1.1984 1.2159 3.2152 1.5765 4.6661 0.59406 0.53118-0.34503 1.0161-0.99604 0.7146 0.01494-0.16184 1.5146-0.47464 3.0104-0.5857 4.531-0.45992 1.1975-1.4888 2.5306-2.9256 2.3165-2.0041-0.85371-3.7743-2.168-5.5164-3.4605 0.01005-1.4199-0.0061-2.8403-0.013-4.26 0.49058-0.65276 1.2264-0.94345 2.0137-1.0067 0.84333-0.42515 0.93118 0.91739 1.6463 1.2707zm-1.723-6.143c-0.55495 1.0816-0.68789 2.3909-0.11014 3.4934 0.29863 0.64857 0.86524 1.275-0.24886 1.1346-0.99427 0.02081-1.5846 0.92537-2.021 1.697 0.18606-1.3981 0.33553-2.8063 0.38-4.216-0.01105-0.95267-1.2904-2.0386-1.31-2.5259 1.2964-0.05105 2.5913-0.18623 3.838-0.5621-0.195 0.31557-0.37425 0.64126-0.528 0.979zm-14.706-21.66c3.4182 0.92693 7.1622 0.71673 10.42-0.68934 0.76792-0.24599 1.4978-1.5419 1.6662-0.13857 1.4373 3.4394 3.028 6.8131 4.4235 10.27 1.4113 3.1081 2.9041 6.1785 4.4153 9.2391-0.55895-0.52763-1.185-1.0089-1.566-1.703-0.41431-0.14363-0.31118 0.74685-0.62325 0.94212-0.76401 0.68441-1.4726 1.5191-2.1876 2.2152-0.8931 0.2463-1.0761 0.19552-1.9173 0.54766-1.0098 0.32844-2.0679 0.43258-3.1189 0.538-2.0277-2.785-3.2434-6.0485-5.0133-8.9901-0.26058-0.68056-1.4101-1.6053-0.15112-1.7958 0.51215-0.23722 1.8925-1.1064 1.7723-1.1375-1.4811 0.68089-2.9585 1.6681-4.6568 1.5104 0.54775 0.32103 1.4991-0.02915 0.80576 0.80803-1.2372 2.4193-2.3964 4.8782-3.387 7.4088-0.38489 0.69798-0.85419 2.6576-1.6328 1.7202-0.0098-0.43127 0.04833-1.0018-0.34264-0.26158-0.78595 1.0091-0.4479-0.72002-0.60307-1.2413 0.037-1.1176-0.4929-2.1526-0.48206-3.2544 0.10436-0.62918 0.31317-1.2453-0.27064-0.47426-0.87688 1.1465-2.4454 1.2949-3.4511 2.2855-0.74167 0.47511-1.7726 2.2512-2.0965 0.59401 0.053373 0.66309 0.42284 1.806 1.0067 0.69986 0.91803-0.89691 1.9101-1.7319 3.1006-2.2359 0.55982-0.25644 1.1038-0.55418 1.4877-1.056-0.13282 1.1482 0.50684 2.2111 0.45553 3.3666 0.17955 0.50198-0.07895 2.2006 0.29332 2.1069 0.33041-0.3727 0.7004-0.7342 0.87815-1.2056-0.0386 1.4963-0.23712 3.0118-0.69075 4.4361-1.097 1.2289-2.6606 1.9922-4.2255 2.4467-1.0641 0.28339-2.5278 0.35506-3.1191-0.78637-0.75724-1.4782-0.68045-3.2445-0.41447-4.8399 0.26204-1.0319 0.73664-1.9934 1.2258-2.9335-0.28086 0.85772-0.97229-0.24175-1.6006-0.26973-0.88353-0.16364 0.1947-1.1809 0.18896-1.7562 1.5855-4.5088 3.1079-9.0395 4.6658-13.558 0.49616-1.3187 1.0025-2.6369 1.6288-3.9004 1.0026 0.45793 2.0492 0.81665 3.116 1.092zm-9.861-7.381c-1.2377 0.49305-2.4625-0.19918-3.582-0.669-0.52537-0.060188-1.0506-0.12678-1.574-0.196 0.95418-0.44213 0.55637-1.6179 0.63338-2.4379 0.28916-1.3342 1.0556-2.5152 1.4731-3.8139 0.033234-0.92455 1.8484-2.0701 2.0936-1.2341-0.65784 1.7589-1.1824 3.7759-0.56033 5.6194 0.44725 1.0727 1.3517 1.8938 2.3642 2.4296-0.27831 0.11226-0.55971 0.21797-0.848 0.302zm3.944-2.265c-0.6953 0.75537-1.5017 1.3879-2.276 2.058-1.5983-0.79434-3.1361-2.3212-2.98-4.2439 0.028485-1.5409 0.42325-3.0595 1.028-4.4711 1.0599-0.0029 2.1562 0.18099 3.168-0.235 0.35625 1.1858-0.28679 2.6274-0.44083 3.8815 0.46578 0.97001 1.9989 1.0591 2.2248 2.3135-0.24716 0.22622-0.48415 0.46315-0.724 0.697zm-1.021-3.378c0.62105-0.48128 1.4096-0.64065 2.137-0.9-0.67893 0.5014-1.1072 1.5332-1.949 1.681-0.29771-0.13497-0.54585-0.54772-0.188-0.781zm3.769 1.912c-0.25804 0.4558-1.27 2.195-1.5879 1.1439 0.3719-0.7723 1.191-1.2064 1.8629-1.7079-0.08792 0.18979-0.17906 0.37812-0.275 0.564zm1.582 2.878c0.57293 0.65224 2.1195-0.20315 2.1288 0.81816-0.03036 0.54591 0.84437 2.06 7e-3 1.9508-0.70039-0.07334-1.4193-0.048091-2.0878-0.30291-0.19347-0.72041-0.78307-2.3885-0.275-2.5679zm2.252-1.677c-0.86633-0.02967-1.7327-0.05933-2.599-0.089-0.18234-0.65451-0.23816-1.3298-0.232-2.008 0.75178-0.69254 1.652-1.1873 2.498-1.751-0.11998 1.3027 0.07079 2.5707 0.333 3.848zm6.416-6.262c0.66477 0.12968 0.74333 0.33452 0.0019 0.40347-0.55544-0.02156-1.9657 0.29862-1.9422-0.01752 0.7283-0.67153 1.043-0.9302 1.9404-0.38595zm-1.302-2.499c-0.73097-0.8698 0.88743-1.1003 1.4538-1.14 0.90307-0.03622 2.2989 0.25488 2.2657 1.3831 0.16527 1.281-1.3438-1.0281-2.3249-0.32467-0.45722-0.04792-0.9916 0.25909-1.3945 0.0816zm0.244 0.54c1.2656 0.07509-0.44554 0.74572-0.93608 0.6445-0.52068-0.74046 0.37566-0.98323 0.93608-0.6445zm3.501-3.427c0.27907 0.24637-0.02774-0.69518 0.5955-0.74622 0.96959-1.3761 0.96212 0.89135 1.2909 1.6016 0.10613 0.92055-1.3442 2.5089-1.6669 2.5264-0.05394-1.0558-0.06991-2.1485-0.55454-3.1158 0.123-0.04033 0.16093-0.4213 0.335-0.266zm-0.585 0.299c0.24268 0.52515 0.42846 0.94946-0.16181 0.34228-0.34508-0.42424-1.807-0.64125-1.5557-0.94528 0.47854-0.10658 2.487-0.1784 1.7175 0.603zm-4.644-1.441c0.32222-0.59555 2.2232-0.23734 0.96362 0.2555-0.25962 0.22884-1.1983 0.34547-0.96362-0.2555zm-7.417 5.006c1.4457-0.1005 2.9014-0.18732 4.335-0.391 0.92629-0.73234 1.3926-1.8886 2.131-2.7961 0.46113-0.7653 0.86491-1.344 1.774-1.2469 0.62127-0.43352 1.114-1.0052 1.9637-1.0105 0.75995 0.03663 2.176 0.83088 2.172 1.3206-0.97562-0.48529-2.0385-0.2649-3.0377-0.11912-0.60519 0.22179-1.3522 0.60316-0.28962 0.42262 1.0877-0.1277 2.2029 0.52832 3.1376 1.1024 0.37535 0.45529 0.79401 2.0754-0.03548 0.85745-1.0989-0.58317-2.5566-0.58725-3.5855 0.16055-0.29614 0.49038 0.69336 1.1698-0.29177 0.84584-1.1419 0.37052-0.19532 2.086 0.73352 1.1942 0.50146-0.27607 1.6325-0.74142 0.53442-0.8635-1.1441-0.25872 0.80068-0.29986 1.2248-0.3225 0.58809-0.21334 1.7835 0.79298 1.5503 0.91682-0.84515-0.04043-1.7143-0.09216-2.4778 0.35995-1.2161 0.7336-2.2883 1.8972-3.8415 1.7662-0.67649-0.01724-1.2983 0.197-1.831 0.597-1.4711 0.90252-3.1233 1.7005-4.0858 3.1906-0.70056 0.29184-1.5637 1.3103-1.938 1.2091-0.07325-1.0063-1.9866-1.342-0.78276-2.0925 0.26274-0.47376 1.2362-1.2456 1.0765-1.5421-0.78789 0.14-1.5972 0.30711-2.282 0.74 0.40867-0.94006 0.38888-2.2218 0.51648-3.0195 1.0026-0.32378 1.8786-0.96292 2.9302-1.1643 0.13309-0.0384 0.26618-0.07679 0.39928-0.11519zm-2.2 0.037c0.59169 0.06071 2.3587-0.15791 0.87852 0.1445-0.81075 0.02457-1.7737 1.2136-2.4268 0.61362-0.062339-0.94379 0.92203-0.80682 1.5482-0.75812zm2.924-4.501c-0.68455 1.1579-1.8855 0.0488-2.8915-0.0085-2.6703-0.70062-5.4608-0.68434-8.1935-0.4665 2.9006 0.01463 5.8261 0.05545 8.6618 0.74012 0.58198 0.12214 1.1622 0.25264 1.7432 0.37888-0.77134 0.47689-1.203 1.772-2.2247 1.5985-2.4168 0.0042-4.8744-0.08741-7.2483 0.4343-0.54588 0.06877-1.7631 0.67591-1.7455 0.7326 2.1904-1.0986 4.7207-0.8854 7.096-1.0482 0.8218-0.03132 1.6437-0.060715 2.4655-0.091267-0.78182 0.73556-1.5991 1.4324-2.407 2.139-2.4301-0.7398-4.9745 0.1781-7.068 1.421 2.0044-0.80304 4.1396-1.4808 6.327-1.225 0.95775-0.10418-0.096391 0.44336-0.31079 0.71728-0.31996 0.45467-0.88902 0.17755-1.3502 0.20718-0.92824 0.012159-1.8889-0.40301-2.757 0.11754-1.1244 0.59587-1.38 1.9263-1.807 3.01-1.197-0.47967 0.089535-2.0697-0.72325-2.8905-0.53387-0.71944 0.60824-1.609 0.077759-2.3509-0.23062-0.8224 0.32528-1.6519 0.55059-2.4387 0.2483-0.71315 0.68806-1.3992 0.5339-2.1859 0.24002-0.85957-1.3059-2.3623 0.214-2.072 0.64308-0.09632 1.0937-1.0941 1.3854-0.0628 1.0729 1.4612 2.9546 1.9494 4.6221 2.3899 1.8771 0.40102 3.8211 0.54258 5.7325 0.34093-0.22992 0.2018-0.45835 0.40533-0.683 0.613zm7.52-10.256c-0.51996 2.306-0.93795 4.9528-2.9357 6.4898-1.6073 1.2072-3.6424 1.7355-5.6366 1.6484-2.4313-0.060889-4.9136-0.38288-7.1617-1.3531-1.0808-0.67458-1.7848-1.8054-2.43-2.869 0.07066-0.91147 1.0174-1.3672 1.102-2.267 0.34725-1.1116 1.2-1.9582 1.715-2.989 0.65907-1.199 1.5189-2.2696 2.266-3.41 1.1222-4.5283 1.7177-9.1618 2.69-13.721 0.25438-1.0951 0.4945-3.0061 0.69919-3.6045 0.84689 4.574 2.8734 8.8401 5.2002 12.835 0.60424 1.1559 1.4857 2.1507 2.5987 2.8437 1.6966 1.1187 2.3437 3.2814 2.0596 5.2238-0.03834 0.39318-0.09679 0.78417-0.16666 1.1729zm22.461-22.543c-2.9361 0.24791-5.9047 0.23875-8.807-0.321-2.1415-0.3488-4.2618-0.81435-6.376-1.299 2.293-2.1641 5.2106-4.0589 8.4699-4.0513 3.1911 0.10603 5.9431 2.0745 8.217 4.1507 0.19168 0.35979 1.7078 1.2728 0.92067 1.3179-0.80758 0.07446-1.6157 0.14319-2.4245 0.20271z"/>
		<path d="m48.145 14.776c-0.90401 0.49682-1.7646 1.069-2.612 1.656 0.06022-0.81091 1.2894-1.9087 1.3124-2.1115-0.73845 0.36825-1.5501 1.2613-2.4195 0.79682-0.60465-0.29412-1.1789-0.64489-1.7639-0.9753 0.51482 0.72744 1.7637 1.7499 1.6281 2.4135-2.094-1.0397-4.4329-1.9447-6.8103-1.484-1.1623 0.64011-1.8823-0.64742-2.9031-1.0109-0.66858-0.29263-2.143-0.75835-2.3354-0.86013 1.2126 0.55617 2.5327 0.92331 3.5489 1.8347 0.80078 1.1444 2.1041-0.21009 3.2121 0.08972 1.9005-0.02407 3.6978 0.71941 5.3998 1.4891 0.17857-0.7659-0.91898-1.8276-1.0503-1.9671 0.70974 0.58192 1.8008 1.1235 2.5343 0.44214-0.7509 0.79014-0.3784 1.7621 0.53888 0.83712 0.69092-0.2504 1.8451-1.4232 2.3107-0.94845 0.02138 1.5556-0.21013 3.0945-0.37657 4.6373-0.374 0.37088-0.88066 0.48928-1.38 0.593 0.86212 0.26536 0.7641 1.374-0.223 1.016-0.68131-0.22636-1.1275-0.24686-0.75988 0.59037 0.36133 2.3203 0.0696 4.6812-0.5758 6.9244-0.42909 1.7119-0.91498 3.4089-1.4153 5.1012 0.38911-0.42191 0.33544-0.18284 0.16513 0.18664-0.45804 0.99179-0.91609 1.9836-1.3741 2.9754-1.3223-1.7477-2.6447-3.4953-3.967-5.243 0.19368-1.4022 1.8997 0.27322 2.6014 0.54312 0.5627 0.3546 1.1173 0.7219 1.6766 1.0819-1.2168-0.9652-2.4373-2.0996-3.971-2.499-1.1171 0.2764-0.20168 1.7761-0.1253 2.4238-0.37256 0.8554-0.74513 1.7108-1.1177 2.5662-0.80896 0.04812-0.40544-0.83816-0.64365-1.358-0.10909-0.53912-0.15153-0.66397-0.07516-0.03629 0.24788 0.4926-0.41198 1.4595 0.24902 1.5291 0.35915 0.11086 0.74539 0.27014 0.75826-0.25354 0.29293-0.85505 0.59048-1.7104 0.88054-2.5653-0.18972-0.67413-0.3823-1.6978 0.18695-0.69028 1.2012 1.6625 2.4036 3.3242 3.604 4.9873 0.45789-1.1606 0.91386-2.3221 1.371-3.483 0.10373 0.46334-0.32627 1.005 0.08323 1.3818 0.29232 0.54935 0.52204 0.8091 0.51774-0.06117 0.40861-2.9139 1.3784-5.6995 2.1379-8.532 0.60194-2.0846 1.2119-4.1726 1.51-6.3273-0.0097-0.28956 0.24177-0.70094 0.0021-0.90093-0.27811 0.10518 0.07185-0.58244 0.02095-0.77387 0.22932-1.3168 0.43217-2.6371 0.48405-3.9745 0.47284-0.05619-0.65264-0.35116-0.835-0.041zm0.132 5.394c-0.31006 2.2727-0.9403 4.4783-1.5781 6.6761-0.58574 2.1784-1.2901 4.3278-1.7734 6.5314-0.19209 0.46934-0.15562 1.943-0.4526 1.816-0.23232-0.39845 0.07193-0.94453 0.03554-1.3877 0.17919-0.51224 0.35838-1.0245 0.53758-1.5367-0.30477 0.27991-0.75337 1.1761-0.39624 0.21871 0.67606-2.5572 1.5583-5.0993 1.7279-7.7556 0.15265-1.0689-0.24955-2.5672-0.07157-3.3547 0.86336 0.49035 2.2095-0.51437 0.96189-1.1054 0.33536 0.12242 1.2604-0.64921 1.009-0.102zm0.257-0.387 3e-3 -2e-3z"/>
		<path d="m41.501 30.454c-1.0934-2.3563-1.3681-5.1815-0.2203-7.5727 0.0651-0.619 1.3775-1.8721 1.1103-1.9978-1.306 0.29394-2.6464 0.78706-3.9983 0.57542-1.7584-0.45284 1.72-1.0961 1.5847-1.1342-0.93929 0.13958-1.8829 0.32889-2.7074 0.82527 1.2005 1.061 2.8777 0.48869 4.2609 0.20402 0.79801-0.21959-0.69656 1.132-0.6936 1.6897-1.2047 2.6032-0.63662 5.6583 0.75002 8.0698 0.43431 0.80099 0.9422 1.5715 1.5187 2.2715-0.62289-0.92534-1.1599-1.9082-1.605-2.931z"/>
		<path d="m43.852 31.525c0.75856-4.1112 1.1435-8.2843 1.1595-12.465 0.0036-1.1635 0.03244-2.3724-0.03348-3.5074-0.11397 5.0562-0.28171 10.13-1.1349 15.126-0.30527 2.0364-0.6312 4.0697-0.96611 6.1014 0.34883-1.7471 0.67999-3.4979 0.975-5.255z"/>
		<path d="m44.462 10.356c-0.08534 1.1777-0.05347 2.3762 0.04241 3.5518 0.63826 1.1832 0.89767-0.96895 0.78052-1.4654-0.056885-0.90435-0.012586-1.9049-0.39293-2.7253-0.28552 0.016336-0.32463 0.44195-0.43 0.639zm0.578 2.274c0.13179 0.6167-0.31087 2.1231-0.34675 0.71475 0.04336-1.074-0.21785-2.2086 0.12575-3.2398 0.12153 0.83464 0.25505 1.6792 0.221 2.525z"/>
		<path d="m36.928 81.256c0.7962-0.12688-0.90458-0.06859-0.17-0.026-1.567 0.29558-2.841 1.798-2.6658 3.4148-0.01615 1.2444 0.51908 2.7467 1.8811 3.0326 1.3267 0.49298 2.5693-0.6943 2.8826-1.9132 0.46678-1.3417 0.45901-3.1182-0.84963-3.9941-0.32426-0.23524-0.69354-0.40494-1.0782-0.51419zm1.999 2.23c0.12956 1.3878-0.21528 3.0482-1.453 3.858-1.2037 0.67208-2.8231-0.26756-3.0272-1.5922-0.34393-1.2774-0.2034-2.8505 0.96131-3.68 0.95898-1.0063 2.398-0.84317 3.1024 0.38985 0.21993 0.30472 0.34621 0.65794 0.41646 1.0243z"/>
		<path d="m39.046 23.415c0.90722 1.0434 1.7418-1.0406 1.608-1.1376-0.31418 0.72292-0.99524 1.9978-1.688 0.81564 0.04775-0.73376 1.7169-0.76766 1.6141-0.94386-0.63788 4e-3 -2.3896 0.32594-1.5341 1.2659z"/>
		<path d="m47.428 22.395c-0.52953-0.33509-1.0523-0.42445-0.24521 0.01964 0.85593 0.54928-0.60487 1.1436-0.44409 0.07602-0.37776-1.1088 0.02866 1.9172 0.87626 0.54857 0.14535-0.23014 0.03117-0.50742-0.18697-0.64424z"/>
	</g>

</svg>
