<?xml version="1.0" encoding="UTF-8" standalone="no"?>
<svg
   xmlns:dc="http://purl.org/dc/elements/1.1/"
   xmlns:cc="http://creativecommons.org/ns#"
   xmlns:rdf="http://www.w3.org/1999/02/22-rdf-syntax-ns#"
   xmlns:svg="http://www.w3.org/2000/svg"
   xmlns="http://www.w3.org/2000/svg"
   xmlns:sodipodi="http://sodipodi.sourceforge.net/DTD/sodipodi-0.dtd"
   xmlns:inkscape="http://www.inkscape.org/namespaces/inkscape"
   inkscape:version="1.0 (4035a4fb49, 2020-05-01)"
   sodipodi:docname="firelord-07.svg"
   id="svg78"
   xml:space="preserve"
   style="enable-background:new 0 0 64.574 118.488;"
   viewBox="0 0 64.574 118.488"
   height="118.488px"
   width="64.574px"
   y="0px"
   x="0px"
   version="1.0"><metadata
   id="metadata84"><rdf:RDF><cc:Work
       rdf:about=""><dc:format>image/svg+xml</dc:format><dc:type
         rdf:resource="http://purl.org/dc/dcmitype/StillImage" /></cc:Work></rdf:RDF></metadata><defs
   id="defs82" /><sodipodi:namedview
   inkscape:current-layer="svg78"
   inkscape:window-maximized="1"
   inkscape:window-y="-8"
   inkscape:window-x="-8"
   inkscape:cy="59.243999"
   inkscape:cx="32.286999"
   inkscape:zoom="7.1737223"
   showgrid="false"
   id="namedview80"
   inkscape:window-height="1017"
   inkscape:window-width="1920"
   inkscape:pageshadow="2"
   inkscape:pageopacity="0"
   guidetolerance="10"
   gridtolerance="10"
   objecttolerance="10"
   borderopacity="1"
   bordercolor="#666666"
   pagecolor="#ffffff" />
<g
   style="display:none;"
   id="Layer_1">
</g>
<g
   id="Layer_2">
	<g
   id="g7">
		<path
   d="m 22.177,113.401 c -1.654932,1.32968 -3.34477,2.66988 -5.358391,3.42197 -1.036284,1.83418 2.119626,1.88478 3.300391,1.43603 1.816442,-0.46212 3.742018,-0.25411 5.523141,-0.7002 1.911205,-1.26049 -0.410096,-3.37696 0.238281,-5.26816 -0.01262,-2.48003 0.502107,-4.9217 1.157578,-7.30164 -1.65331,0.0521 -3.909814,-0.69644 -5.169231,-0.32739 -0.09931,2.91467 -0.02144,5.84064 0.308231,8.73939 z"
   style="fill:#588ccc"
   id="path3" />
		<path
   d="m 37.959,110.544 c -0.64713,0.95774 -2.037864,2.67089 -0.931281,4.16884 1.77153,1.34703 4.276411,1.41779 6.430576,1.69777 1.952386,-0.0211 3.9227,-0.0928 5.843705,-0.45761 2.381044,-1.41343 -0.631508,-3.13946 -2.290373,-2.70168 -1.558076,-0.33689 -4.014453,0.22683 -3.525254,-2.17256 -0.30291,-2.21819 -0.601396,-4.43704 -0.877373,-6.65876 -2.007558,0.5256 -5.039509,0.17608 -6.436449,0.95742 0.425697,1.7734 0.999163,3.51945 1.786449,5.16658 z"
   style="fill:#588ccc"
   id="path5" />
	</g>
	<g
   id="g35">
		<path
   d="m 23.236,86.138 c 0.05009,1.682028 -0.484846,3.520424 0.292156,5.089422 -0.276111,1.947436 -0.721645,4.016535 -0.950972,6.031471 -0.320506,2.378981 -0.620328,4.764837 -0.702184,7.166107 1.648222,-0.0515 4.255285,1.1532 5.296714,0.0691 1.045882,-3.86476 2.551197,-7.579113 3.888286,-11.34708 1.771575,0.316618 4.091345,-2.37037 2.344,-3.731 0.06212,-1.211979 1.218276,-3.286502 -0.862,-2.666 -3.110931,7.5e-5 -6.221991,-0.203171 -9.306,-0.612 z"
   style="fill:#46bedf"
   id="path9" />
		<path
   d="M 5.528,82.794 C 5.3809952,84.348798 4.69246,86.285097 6.1394687,87.357703 6.0976549,88.47594 5.8525076,89.972098 4.5422031,88.811844 2.5865175,88.212951 2.1934076,91.299316 1.6206406,91.827313 2.9226984,89.949885 4.9331589,91.307821 6.605,91.264 8.4079687,90.709321 7.4609994,87.879697 8.6288031,87.435654 8.9542275,88.606578 9.0134743,90.329374 9.833,91.3 c -0.7901733,0.545343 -2.9624911,0.533903 -2.4195938,2.396562 0.6087597,0.250847 1.4730504,2.584492 1.1524532,0.974688 0.7086394,-1.420199 3.3256726,-0.978978 3.3180156,-3.18175 0.536367,-1.345931 -1.8894656,-3.064259 -0.741625,-3.95275 2.031058,-0.694255 2.147497,2.707807 4.252422,2.328938 2.238174,-0.388476 0.891556,2.289161 0.934234,3.767218 -0.211507,0.889252 -0.731564,2.62238 -0.09024,0.798678 0.296195,-1.93474 3.00355,-2.91104 2.341397,-5.002568 C 17.581279,87.842466 15.567166,87.486139 14.4,85.971 13.128676,85.678734 14.29592,83.622331 12.548596,83.847168 10.073559,83.102687 7.6415387,82.214375 5.272,81.182 c 0.1083887,0.532865 0.2241512,1.06776 0.256,1.612 z"
   style="fill:#46bedf"
   id="path11" />
		<path
   d="m 35.455,86.88 c -0.515105,1.123887 -2.048743,3.428461 -0.0054,4.425312 0.367101,1.571711 -0.17407,3.750257 -0.01076,5.540625 0.0045,2.752511 0.01721,5.534633 0.663203,8.227063 2.05966,-0.2844 4.958408,-0.0331 6.47152,-0.93569 C 41.984775,100.62199 42.476701,97.062488 42.6,93.53 c 1.640116,-1.519414 2.548225,-3.630497 3.545317,-5.585667 0.365952,-1.144458 0.741511,-3.286156 -1.089508,-2.308206 C 41.904722,86.205371 38.714292,86.555672 35.515,86.688 Z"
   style="fill:#46bedf"
   id="path13" />
		<path
   d="m 17.031,85.542 c -0.136786,-0.949675 -0.349487,-0.636937 0,0 z"
   style="fill:#46bedf"
   id="path15" />
		<g
   id="g33">
			<path
   d="m 2.245,62.952 c 0.055216,2.76541 0.6286782,5.503614 1.494,8.124 -1.9473397,0.504946 -3.25572626,3.4874 -1.2382617,4.712139 2.4396727,0.30881 1.9881107,3.154452 2.6894927,5.008335 1.00221,1.237119 3.1896798,1.463082 4.7035922,2.189452 1.0747288,0.168908 3.3492598,1.539548 3.6437078,0.76809 -0.837111,-2.165626 1.598586,-0.06766 2.495057,0.115183 0.532455,0.369658 1.092238,1.930115 0.790412,0.358051 C 17.469983,81.905419 15.083883,81.179911 13.5165,80.322 12.468398,79.452478 10.724408,77.430892 12.596812,76.517937 13.244979,74.734454 12.963888,72.263342 11.151,71.25 10.867006,69.490626 12.597188,66.395413 9.9344566,66.217285 7.3014374,65.265168 4.729621,64.143017 2.244,62.854 Z"
   style="fill:#4fd9c7"
   id="path17" />
			<path
   d="m 53.755,67.589 c 1.625889,-0.548669 3.123934,0.3691 4.867187,0.4475 1.856387,-0.0049 4.12971,0.379467 5.544813,-1.1295 -0.117292,-1.04328 1.161173,-3.668053 -0.28657,-3.736589 C 60.487757,64.882061 56.939445,66.281863 53.3,67.373 l 0.215875,0.12075 z"
   style="fill:#4fd9c7"
   id="path19" />
			<path
   d="m 17.195,68.383 c 1.337196,1.448379 3.243084,2.507851 5.267,2.325 -0.767535,3.137139 -1.41984,6.308946 -1.495516,9.549125 -0.234178,2.098813 3.937188,0.628031 3.321516,2.834 -0.05635,0.887166 -2.351582,3.373845 0.08986,3.187633 3.151995,0.364937 6.328621,0.519858 9.501141,0.457242 -0.392439,-1.425318 1.073441,-2.58654 1.96,-2.015 0.183755,0.950903 -0.952305,2.45698 0.720133,1.91604 C 39.85617,86.451715 43.140328,86.034193 46.378,85.384 45.582392,84.137653 45.285407,82.581813 45.657047,80.821291 45.073069,79.345856 45.531695,78.527603 46.902125,77.875156 46.393274,76.367319 45.085779,74.522267 44.28075,72.890219 43.112086,71.471327 42.208778,69.027373 39.996718,69.948625 32.378955,70.662745 24.641144,70.151509 17.195,68.383 Z"
   style="fill:#4fd9c7"
   id="path21" />
			<g
   id="g31">
				<path
   d="m 42.767,60.244 c 1.494911,-0.887046 2.881485,0.798964 4.357295,1.424118 1.663534,1.021685 3.301544,2.084208 4.939705,3.145882 -0.164557,1.830986 1.396038,3.241742 3.01655,1.996706 3.13064,-1.034646 6.185116,-2.302313 9.12045,-3.804706 -2.082074,-0.217661 -1.262961,-4.47135 -3.52852,-3.22261 -0.868188,1.101697 -1.545242,1.973096 -3.08448,1.53961 -1.334171,1.903818 -2.292412,-1.68095 -3.83,-0.12 -1.986868,-1.570939 -2.95693,-4.014525 -4.339,-6.073 -3.29962,0.751134 -6.658659,1.239595 -10.035,1.466 0.990568,1.312675 2.006019,2.721382 3.383,3.648 z"
   style="fill:#5deab3"
   id="path23" />
				<path
   d="m 14.826,55.244 c 0.446083,3.263123 1.356751,6.66302 3.621,9.154 -1.724267,0.472533 -2.717957,3.798782 -0.527058,4.154097 C 25.738504,70.31832 33.86039,70.708655 41.817,69.755 40.287781,68.668765 43.515969,69.180936 43.393625,67.567609 44.141794,65.417078 43.463649,62.5894 41.150874,61.735132 39.620802,60.627973 37.015233,61.55925 35.953645,60.418548 35.03542,58.772083 35.442186,55.909376 32.813894,56.716565 26.66857,56.526028 20.544805,55.480569 14.703,53.557 c 0.01331,0.563865 0.05134,1.127455 0.123,1.687 z"
   style="fill:#5deab3"
   id="path25" />
				<path
   d="m 3.259,48.726 c -1.8468589,-0.170049 -2.0813088,1.814412 -1.014,2.94 -1.87593229,0.360995 -3.05993196,2.837437 -1.52590161,4.273691 1.07961761,0.967485 2.33387041,1.570565 1.65930171,3.203677 -0.00663,1.738644 -0.9029397,4.190216 1.5173504,4.538547 2.4427577,1.176952 4.9611009,2.19632 7.5322495,3.057085 0.196896,-3.156088 0.381036,-6.313082 0.48,-9.474 2.298426,0.147358 2.676159,-3.042698 1.431701,-4.175797 C 10.065455,51.926527 6.8884883,50.486432 3.867,48.77 L 3.505625,48.721 Z"
   style="fill:#5deab3"
   id="path27" />
				<path
   d="m 49.333,53.846 c 0.309009,-1.177525 1.317791,-2.403597 1.009019,-3.945782 0.0993,-2.046517 0.05667,-4.162375 0.198106,-6.165468 1.423591,0.01254 2.303398,-3.426988 0.611625,-1.41175 -1.063023,1.492876 -0.942112,-2.340345 -0.469875,-2.59 1.550456,-1.461867 0.439447,1.977505 1.798998,0.791293 0.840375,-0.782828 -0.02653,-2.618638 1.236127,-2.297293 -0.619753,-2.383382 0.725423,1.118314 0.144486,1.985203 -0.660962,1.965505 -1.593828,4.35609 -0.219763,6.240797 0.245914,0.989198 2.93639,1.347518 2.413277,1.2175 -1.945259,-0.380297 -2.299868,-2.759849 -2.031334,-4.403826 0.450993,-1.769148 1.18323,-3.674527 0.370334,-5.429549 0.7645,-1.470947 -0.04129,-2.872456 -1.369,-3.388 -0.285635,-0.85307 -0.01299,-1.265859 -0.789665,-2.382064 -0.409195,-1.59048 -2.469411,-1.964587 -2.916429,-3.361139 1.731214,-1.349578 -0.08771,-3.258753 0.551094,-4.938172 0.873822,-0.589049 3.519274,0.109022 5.032819,-0.610477 2.192076,-0.228167 -1.012951,-1.52956 -1.665651,-2.289417 C 51.246249,19.487836 49.212594,18.170804 47.177,16.858 46.631023,14.530696 45.379684,12.295892 45.79975,9.826 45.761895,8.728755 46.627489,7.1479309 45.076,8.432125 44.324721,7.5495229 44.151144,5.1017867 43.894842,3.5534711 43.634824,2.6112468 43.792147,-0.86444335 42.998599,1.5785513 42.012324,3.857983 41.886474,6.4082387 41.662844,8.8506245 41.861742,10.151634 42.182959,10.895492 41.145302,9.6713023 40.153757,9.3042351 39.840419,6.3191138 40.096,8.399 39.718312,9.1579595 40.302737,11.285265 39.808625,11.061125 38.437406,10.025972 35.679546,11.301606 36.21325,8.73675 36.355364,7.3449926 35.696668,8.237642 35.18,8.786 34.385645,6.6711224 33.456499,4.5637755 33.432178,2.2635308 33.255983,1.4956164 33.412758,-1.0768237 32.673219,0.88973437 31.695593,2.8849349 31.184423,5.1741457 31.289781,7.392875 c -0.05452,1.5152541 1.693041,4.051622 -0.978275,3.791289 -1.570619,0.209207 -3.480663,-1.6677778 -4.577756,-1.278789 -0.443406,1.348963 2.963845,3.098542 0.26725,2.874625 -1.129903,0.110584 -3.98236,-0.264023 -4.060844,0.432297 0.722677,0.844317 2.530767,2.053151 2.798282,2.359453 -0.855819,-0.0913 -2.836129,0.446694 -2.885938,0.65575 0.920485,0.404867 4.015616,0.72954 1.905422,1.51775 -1.727049,1.023602 -2.931575,2.765773 -4.491922,4.06275 0.286573,2.089669 0.910338,4.131059 1.684,6.089 -1.549807,-0.76321 -3.581677,-0.756472 -4.804991,0.606372 C 12.14716,32.830084 8.7612819,37.70081 4.6661719,41.943371 3.4720709,43.315326 2.002085,46.103975 4.6080317,46.856089 6.2006458,46.976854 4.7818711,49.037331 3.867,48.769 c 3.120641,1.77329 6.407522,3.250872 9.796,4.433 -0.09956,-1.335915 0.549208,-2.696935 -0.0671,-4.009285 2.366734,-0.285788 1.372825,2.617454 1.802956,4.081185 1.106355,1.17359 3.582556,1.244119 5.26389,1.848772 4.62311,1.112991 9.381697,1.625031 14.134255,1.624328 -0.212902,-1.559539 -0.551825,-4.287498 1.6985,-3.346 2.159006,-0.417118 1.809379,3.635014 3.853475,3.124783 C 43.399719,56.275226 46.433229,55.811428 49.418,55.132 48.89547,54.738392 49.310063,54.328243 49.333,53.846 Z"
   style="fill:#75f28c"
   id="path29" />
			</g>
		</g>
	</g>
	<path
   d="m 39.496,27.438 c 1.35878,2.47315 1.334605,-2.422291 0,0 z"
   style="fill:#414042"
   id="path37" />
	<path
   d="m 39.556,30.729 c 1.642495,1.110119 2.25258,-2.127921 1.832297,-2.087953 -0.48984,2.55235 -2.704764,0.485086 -4.408754,1.074969 -2.239283,0.08833 1.501269,0.08443 2.008754,0.796437 l 0.267756,0.110799 z"
   style="fill:#414042"
   id="path39" />
	<path
   d="m 64.574,63.851 c -0.602915,-1.396982 -2.412665,-2.012452 -2.360875,-3.888625 -1.766147,-1.791371 -2.293082,2.373965 -4.164391,1.346563 -1.139383,0.07515 -1.691167,1.293503 -2.515968,-0.139422 -1.175605,-0.701247 -2.387988,0.497217 -3.128942,-1.298433 C 51.21102,58.190522 50.210194,56.388137 49.117,54.644 c 0.296788,-1.785089 1.619698,-3.160936 1.242313,-5.241047 0.08758,-1.88108 0.04358,-3.831562 0.180812,-5.669203 1.423591,0.01254 2.303398,-3.426988 0.611625,-1.41175 -1.063023,1.492876 -0.942112,-2.340345 -0.469875,-2.59 1.550456,-1.461867 0.439447,1.977505 1.798998,0.791293 0.840375,-0.782828 -0.02653,-2.618638 1.236127,-2.297293 -0.619753,-2.383382 0.725423,1.118314 0.144486,1.985203 -0.660971,1.965572 -1.593888,4.356342 -0.219763,6.241084 0.246276,0.988834 2.93636,1.347284 2.413277,1.217213 -1.945533,-0.380253 -2.299353,-2.759862 -2.031047,-4.403826 0.450331,-1.769201 1.183141,-3.674517 0.370047,-5.429549 0.764688,-1.471137 -0.04165,-2.871884 -1.369,-3.388 -0.285635,-0.85307 -0.01299,-1.265859 -0.789665,-2.382064 -0.409195,-1.59048 -2.469411,-1.964587 -2.916429,-3.361139 1.731214,-1.349578 -0.08771,-3.258753 0.551094,-4.938172 0.873822,-0.589049 3.519274,0.109022 5.032819,-0.610477 2.192076,-0.228167 -1.012951,-1.52956 -1.665651,-2.289417 C 51.246249,19.486836 49.212594,18.169804 47.177,16.857 46.631023,14.529696 45.379684,12.294892 45.79975,9.825 45.762662,8.7286386 46.625173,7.1458085 45.075875,8.432 44.324872,7.5496532 44.151068,5.1017117 43.894842,3.5534711 43.634824,2.6112468 43.792147,-0.86444335 42.998599,1.5785513 42.011938,3.8579185 41.886213,6.408187 41.662844,8.8506245 41.861742,10.151634 42.182959,10.895492 41.145302,9.6713023 40.153757,9.3042351 39.840419,6.3191138 40.096,8.399 39.71818,9.1579128 40.302817,11.2853 39.808625,11.061125 38.437406,10.025972 35.679546,11.301606 36.21325,8.73675 36.355364,7.3449926 35.696668,8.237642 35.18,8.786 34.689092,7.5918218 33.701387,4.6718202 33.685506,4.5757051 33.84572,6.2759385 34.574857,7.8432657 34.956,9.497 35.566724,8.7281649 36.331452,7.9106029 36.018406,9.4756543 35.686575,11.397499 36.540074,13.045856 37.64,14.545 36.447794,13.468219 34.053028,14.388832 33.283859,13.72391 32.654182,10.447737 31.586943,7.1529307 31.845344,3.7867031 31.846879,2.6519776 32.737538,0.45159973 33.18775,0.3195 33.276501,2.0186138 33.347151,-1.0853033 32.819012,0.61469727 31.75809,2.5587141 31.296387,4.8218318 31.25618,7.0189053 31.054808,8.6023935 33.13217,11.425504 30.311506,11.184164 28.740887,11.393371 26.830843,9.5163862 25.73375,9.905375 25.290344,11.254338 28.697595,13.003917 26.001,12.78 c -1.129903,0.110584 -3.98236,-0.264023 -4.060844,0.432297 0.722677,0.844317 2.530767,2.053151 2.798282,2.359453 -0.855819,-0.0913 -2.836129,0.446694 -2.885938,0.65575 0.920485,0.404867 4.015616,0.72954 1.905422,1.51775 -1.727049,1.023602 -2.931575,2.765773 -4.491922,4.06275 0.286573,2.089669 0.910338,4.131059 1.684,6.089 -1.549807,-0.76321 -3.581677,-0.756472 -4.804991,0.606372 -3.997885,4.32676 -7.3836071,9.197733 -11.4791242,13.439999 -1.1945569,1.37175 -2.6635527,4.160702 -0.057853,4.912718 C 6.357523,47.126116 4.4490701,49.503953 3.258,48.725 1.4111411,48.554951 1.1766912,50.539412 2.244,51.665 0.36806771,52.025995 -0.81593196,54.502437 0.71809839,55.938691 1.8146524,56.907413 3.0493662,57.526074 2.3750469,59.168541 1.9695801,63.179308 2.4219672,67.262265 3.737,71.075 c -1.9473397,0.504946 -3.25572626,3.4874 -1.2382617,4.712139 2.1212092,0.24068 1.9582219,2.419767 2.4788226,4.091796 0.4964342,1.75512 0.7672432,3.594161 0.184361,5.367409 C 5.3348195,86.692489 6.9570011,87.981627 5.543,89.323 3.4745395,87.570299 2.2681459,90.255114 1.5930625,91.836078 2.237195,90.729854 4.6266784,90.497586 6.0143594,91.355313 c 2.1086347,-0.04839 1.7213668,-2.932343 2.3970422,-3.935486 0.9231991,0.66426 0.1827058,2.960357 1.4589734,3.741923 -0.5219859,0.903495 -2.844961,0.351734 -2.5018086,2.279227 0.1514217,0.458177 1.5641592,2.250333 1.1850586,1.570523 0.145428,-1.898628 3.177783,-1.056514 3.301047,-3.272031 0.716666,-1.471596 -1.854202,-3.223868 -0.712422,-4.202719 2.031058,-0.694255 2.147497,2.707807 4.252422,2.328938 2.238174,-0.388476 0.891556,2.289161 0.934234,3.767218 -0.211507,0.889252 -0.731564,2.62238 -0.09024,0.798678 0.296195,-1.93474 3.00355,-2.91104 2.341397,-5.002568 C 17.581279,87.842466 15.567166,87.486139 14.4,85.971 13.290366,85.56539 13.540874,83.415002 13.530016,82.681031 14.854861,83.44302 16.749744,83.719073 17.029,85.545 c -0.25577,-1.859685 0.03877,-4.137976 -2.373,-4.561 -1.611543,-0.576815 -2.38366,-1.978355 -3.108,-3.468 1.692917,-0.85342 1.498073,-3.068151 1.060422,-4.604172 -0.979208,-1.247636 -1.855625,-2.153104 -1.32274,-3.874123 0.236707,-3.922281 0.500334,-7.843584 0.620318,-11.771705 2.425116,0.01396 2.369153,-2.722685 1.707,-4.353 -0.21375,-0.511835 1.785423,-2.20833 1.094969,-0.578094 -0.07174,4.034963 0.846793,8.273518 3.284038,11.558033 0.935968,0.915161 -1.969885,1.688505 -1.333628,3.260188 0.360211,1.790671 2.29098,2.802906 3.866157,3.373335 1.191303,0.21318 2.498265,-0.0694 1.628322,1.550274 -0.772313,2.893992 -1.118555,5.86915 -1.226858,8.857264 1.372693,1.045406 3.703828,0.333625 3.507,2.46 -1.690802,1.453934 -1.132189,3.802751 -1.304971,5.761889 0.302264,1.775856 0.436229,3.336427 -0.115523,5.135906 -1.049513,6.304245 -1.598397,12.740545 -0.838506,19.111205 -1.654932,1.32968 -3.34477,2.66988 -5.358391,3.42197 -1.036284,1.83418 2.119626,1.88478 3.300391,1.43603 1.816442,-0.46212 3.742018,-0.25411 5.523141,-0.7002 1.911205,-1.26049 -0.410096,-3.37696 0.238281,-5.26816 0.08659,-5.14025 1.911475,-10.0459 3.613675,-14.834711 0.821089,-1.311613 0.696588,-3.914873 2.155309,-4.326116 1.89115,-0.239295 3.0748,-2.665164 1.806828,-4.013329 0.670312,-1.706805 -0.267459,-4.625727 2.244078,-4.622921 0.436342,1.312715 -0.365208,3.029779 -1.168145,4.273145 -0.708455,1.96055 1.94675,2.584131 0.991818,4.592742 -0.190604,5.203008 -0.29274,10.59139 1.71714,15.50317 0.60442,1.20838 1.072918,2.16009 -0.203529,2.94185 -1.079837,1.73846 0.128953,3.91606 2.19272,3.90305 3.272679,0.97916 6.745953,0.78779 10.072684,0.24348 2.381044,-1.41343 -0.631508,-3.13946 -2.290373,-2.70168 -1.479898,-0.36592 -3.961073,0.27282 -3.507314,-2.04143 -0.423526,-3.64424 -1.150849,-7.27344 -1.220071,-10.94563 C 42.3525,98.018003 42.476984,95.773861 42.6,93.53 c 1.641737,-1.512821 2.535432,-3.625123 3.540479,-5.570814 0.852976,-2.00294 -0.291268,-3.322457 -0.674573,-4.952858 0.330233,-1.33677 -0.06963,-3.052759 0.08059,-4.190203 1.302984,-0.524123 1.810722,-1.344858 0.665625,-2.416875 -1.100779,-1.96956 -2.050797,-4.040347 -3.606033,-5.712526 -0.627816,-0.892661 -2.131161,-1.788823 -0.302258,-1.823373 1.813034,-1.201315 1.68214,-4.090925 0.612912,-5.757477 C 41.330699,61.154953 38.551857,60.869878 36.202,60.989 c -1.06154,-2.436937 -2.044177,-5.175204 -1.244,-7.838 1.343489,0.419136 2.767406,-0.08037 3.3795,1.5375 0.914839,1.835082 2.150033,3.594629 3.700813,5.012219 1.025909,1.209131 2.139695,-0.47608 3.218903,0.910032 2.354215,1.259275 4.560551,2.769558 6.808784,4.204249 -0.225481,1.793858 1.740374,3.564595 3.308312,2.508844 2.346939,0.878295 4.976149,0.97436 7.414524,0.479584 C 64.794449,67.388973 64.181668,65.332925 64.574,63.851 Z M 52.808,39.132 c -0.06202,1.362447 -1.445033,1.808693 -1.1395,0.05538 0.338572,-0.976545 -1.473377,0.829734 -2.1715,0.112625 1.028091,-0.334178 1.22434,-1.914936 2.162188,-0.712906 0.969186,0.09402 1.52377,-1.139036 1.148812,0.544906 z m -6.302,-0.998 c -1.422599,-2.018811 1.864868,-2.199351 3.214687,-2.021125 1.323687,0.893589 -0.161477,2.253221 -0.743546,2.661922 C 48.856305,37.186561 46.882803,37.445413 46.889,38.909 46.590845,38.732153 46.521803,38.453991 46.506,38.134 Z m 0.703,3.69 c 0.492988,-0.3519 1.090012,-0.966762 0.767,0.127 0.793284,-0.544846 1.436778,-0.852073 0.384969,-0.02505 C 47.992666,43.260259 45.665913,41.824617 47.209,41.824 Z m 1.262,-1.046 c -1.024363,-1.037369 0.572985,-1.832521 0.772125,-1.1635 -0.187814,0.429589 -0.403132,0.858683 -0.772125,1.1635 z m 0.343,-1.574 c -1.156072,0.227753 -0.964947,-0.22095 -1.10875,-1.095 0.234704,-1.073597 1.332448,2.080017 2.027939,0.369158 0.897921,-0.682862 1.061932,-1.748092 2.178936,-0.746908 1.964594,0.5978 -0.877269,1.086848 -1.068719,0.139469 -0.41481,0.715152 -1.228315,1.200537 -2.029406,1.333281 z m 3.827,-3.978 c 0.614378,-0.88084 2.214744,0.956387 1.609,1.961 -0.737014,-1.46562 -1.371308,0.0045 -0.83,0.896 -1.036831,-0.727563 -3.161468,-0.556352 -1.85875,-2.16125 0.109065,-0.519102 0.845837,-0.249558 1.07975,-0.69575 z m -0.45,-1.36 c 0.26359,0.962994 -1.282293,2.444459 -1.72225,2.891125 C 50.681424,35.311669 47.326725,36.0812 48.190375,34.806 49.624581,34.719506 50.89876,34.279417 52.191,33.866 Z m -2.49,-6.715 c 0.06718,0.805022 -1.030891,1.472891 -0.695125,0.5335 0.960457,-0.626803 -0.366783,-1.02833 -0.62325,-0.621625 -1.60138,0.01712 1.011303,-2.559081 1.136512,-0.754412 0.120756,0.261571 0.214307,0.549896 0.181863,0.842537 z m -2.686,-2.445 c 0.08421,-1.429696 2.894746,-1.86118 2.15625,0.0395 -0.171202,0.542885 -2.336123,2.196206 -2.0165,0.37025 l -0.07559,-0.176656 z M 37.08,12.836 c -0.629693,-0.686385 -1.370298,-3.213534 0.248,-2.037 0.69843,0.719814 2.902515,1.236742 3.22225,1.030875 -0.189385,-0.819531 -0.459473,-2.5439249 0.315656,-0.916578 1.535552,1.169688 3.086969,2.345318 4.241217,3.925582 1.033738,0.433147 0.268908,3.68135 0.247877,1.465121 -0.425073,-0.769621 -1.511808,-2.3561 -0.595309,-0.67558 1.049861,0.953993 -0.348343,2.397531 -0.625347,1.402064 C 44.026713,16.28505 43.492566,14.85525 43.799187,16.538406 43.514743,17.54254 42.235735,17.233653 42.306,16.32575 41.703316,15.34135 43.043477,17.698017 41.73075,16.9395 39.941745,16.759568 39.577598,14.451487 37.79,14.104 37.553816,13.681063 37.317648,13.258116 37.08,12.836 Z m -13.052,3.711 c -0.954562,-0.242721 -2.890309,-0.438 -0.874813,-0.387437 0.73791,0.118483 3.853595,-0.919357 1.949813,-0.657563 -0.634701,-0.89076 -3.161423,-1.985229 -2.9265,-2.443 1.7328,0.263987 3.470423,0.06912 5.1615,-0.356 -0.390485,-0.781605 -1.720836,-2.489367 -1.4015,-2.873125 1.21578,1.522321 3.454977,3.622865 5.400828,2.010719 1.69857,-0.606974 1.125058,2.701869 2.403672,3.466406 -0.05707,0.884276 1.612997,2.014932 0.887266,2.159313 1.033728,-0.230524 2.512861,0.583783 1.029484,-0.607063 -0.618252,-1.029429 -3.627821,-3.054843 -0.716441,-2.484906 1.63842,0.311215 3.723828,-0.0056 4.698457,1.672797 0.864889,0.828264 1.181499,1.444645 -0.313907,1.313078 -1.88473,-0.02984 1.57788,0.729198 1.831579,0.363937 0.81308,-0.269673 3.114573,1.113704 4.583403,1.130992 1.901682,0.822334 0.486365,-3.143367 2.165934,-1.433414 1.552985,1.220296 2.952705,2.644046 4.681168,3.640311 0.63044,0.631434 3.58223,1.848312 1.294434,1.739971 C 50.193025,23.016224 46.480809,23.011408 42.789,22.843 40.932231,22.694639 39.178313,22.024866 37.410625,21.581891 35.00744,21.957947 35.454298,18.903076 34.49,17.474 33.430067,16.421107 32.592139,14.087905 30.722922,14.663605 28.986895,15.334735 28.147064,17.849578 25.976359,17.153756 25.31297,16.999465 24.670721,16.769322 24.028,16.547 Z m 16.742,7.712 c -1.762962,0.05008 -3.422944,0.726854 -4.877906,1.636328 -1.483847,-0.193388 -2.130952,-2.292953 -0.275438,-2.406984 0.758442,-0.807377 2.288949,0.65868 0.840328,-0.507711 C 35.725932,22.452776 34.765338,21.878553 36.297,22.304 c 1.791325,-0.491731 3.371312,0.735468 5.148076,0.865863 2.232082,-0.366029 0.867692,3.807529 -0.179076,1.431387 L 41.007312,24.386344 Z M 40.533,28.69 C 39.088578,29.69866 36.236222,26.441679 38.267672,26.259164 40.078376,24.861961 41.739018,27.221842 40.533,28.69 Z m -5.682,-5.381 c 0.138549,-1.371342 0.631906,-0.549462 1.438,-0.207 -0.474471,0.100513 -0.952139,0.188793 -1.438,0.207 z M 32.61,19.605 c -1.552186,-0.25705 -3.065614,0.106481 -4.238,1.285 -0.479466,0.990928 -1.20742,0.806189 -0.589094,-0.02491 1.060514,-1.557597 2.268971,-2.589317 4.249735,-2.3055 0.665606,0.318185 0.781038,0.49636 0.577359,1.045406 z m 2.497,24.951 c 0.04125,1.211165 -0.367459,2.338526 -1.802,1.501375 -0.841256,-0.386825 -1.529468,-1.963532 -0.101766,-1.4155 0.51719,-0.518944 1.190977,0.22032 1.903766,-0.08588 z m -0.212,-0.55 c 0.156883,-1.514634 3.17174,-2.10205 2.695,-0.28 -0.840713,0.393753 -1.793207,0.366358 -2.695,0.28 z m -2.69,1.279 c 1.834935,2.043463 -3.742756,-0.469808 -1.438,-1.575 1.02571,0.01874 1.738071,0.472869 1.438,1.575 z m 0.737,-1.286 c -1.018581,-0.421402 -3.363935,-0.673502 -3.029016,-1.823516 1.136896,0.534765 2.098593,-0.738688 2.678016,0.895516 0.110839,0.286019 0.463727,0.597838 0.351,0.928 z m -1.653,-2.428 c -1.451031,1.320929 -3.523837,-1.819772 -2.858937,-2.137328 0.234717,1.037018 1.959166,1.889421 2.090937,0.351328 0.278261,0.573116 0.715694,1.138423 0.768,1.786 z m -2.265,-9.256 c 0.99937,-0.576228 1.349053,-1.119346 0.990051,0.378377 -0.04197,1.107881 -0.358724,2.720395 -1.526598,1.31806 C 27.46174,33.786367 27.966678,31.084558 28.186,31.4775 c 0.262235,0.260622 0.411383,0.820097 0.838,0.8375 z m -0.475,-2.792 c 0.701667,-0.717 1.403333,-1.434 2.105,-2.151 0.151665,1.385048 -0.219069,3.675225 -1.157,4.2715 -0.670003,-0.586788 -1.244538,-1.120682 -0.948,-2.1205 z m 0.004,5.452 c 0.8256,0.677201 2.006702,-0.168085 1.262,1.509 -1.319745,2.131873 -2.482079,-0.608809 -2.205453,-1.995141 -0.147189,-2.003142 0.405744,-0.02724 0.943453,0.486141 z m 0.507,2.564 c 1.501392,-0.690571 1.226631,3.90559 -0.331947,1.869168 C 27.96014,38.524083 26.763527,35.683177 29.06,37.539 Z m 1.42,-10.957 c -0.987866,0.997686 -2.438068,-1.79312 -2.602,-2.363 1.054697,0.757207 2.486459,1.594515 3.447437,1.634844 C 31.045704,26.098952 30.766264,26.344492 30.48,26.582 Z m -1.558,-5.171 c 1.875558,0.926889 -1.064391,0.44792 -1.773,0.953 0.698781,-0.601413 2.026763,-1.974046 2.238,-2.196 -0.269986,0.316588 -0.72472,0.798004 -0.465,1.243 z m 0.612,3.649 c -0.495822,-0.72285 -1.582182,-1.358186 -1.96575,-0.869125 0.516653,-0.90959 2.630108,-1.936941 1.765781,-0.08305 0.04462,0.32149 0.115209,0.639027 0.199969,0.952172 z m 0.898,-2.265 c -1.009497,-0.365502 -3.356707,1.14211 -2.707547,-0.315375 1.488562,-0.01723 2.877616,-1.190574 4.210547,0.05738 0.595285,0.183975 0.07278,1.956899 -0.6135,0.77225 C 31.034978,23.121774 30.755524,22.917263 30.432,22.795 Z M 27.83,19.81 c -0.01167,-0.787965 -0.07374,-3.092155 0.961969,-1.474531 C 30.291105,18.996546 27.899735,18.908927 27.83,19.81 Z m -3.407,-2.177 c 0.949091,-0.555825 3.097647,-0.241031 3.594,-0.371 -0.739111,1.462197 -0.588367,3.633909 -0.998875,5.083875 -0.164004,0.275661 0.718392,0.04791 0.247875,0.886125 -0.09507,0.829837 -1.179486,-1.626876 -1.651219,-2.080203 C 25.185391,20.21013 23.459181,18.520524 24.423,17.633 Z M 22.47,19.41 c 0.753555,-0.679011 1.648163,-2.055351 1.78029,-0.332641 1.035264,3.160171 3.369465,5.619493 5.55871,8.025641 -1.23658,0.78534 -2.886574,4.065578 -3.842885,1.531123 C 24.061859,26.108008 22.499262,23.343391 21.339,20.399 21.719209,20.073057 22.101598,19.74937 22.47,19.41 Z m -2.835,3.515 c -0.838569,-1.217503 1.106425,-2.149731 1.701621,-2.306066 1.122655,2.923853 2.466572,5.785779 4.510474,8.191922 C 27.826058,30.219225 24.894749,30.924173 23.996,31.951 21.776232,29.416959 20.498818,26.139232 19.635,22.925 Z M 3.491,44.428 c 3.7096087,-4.149982 7.547451,-8.18622 11.423359,-12.181063 1.319382,-1.03667 2.368779,-2.975962 4.206358,-2.971079 1.938048,0.197289 3.558235,1.151395 4.641158,2.745642 0.918079,1.412779 2.1227,-0.780141 3.1345,0.695875 0.876101,0.984319 -1.314842,2.803972 -1.645526,4.121692 -1.913959,3.4335 -3.654632,6.962527 -5.537043,10.409883 -0.822581,1.572713 -2.13429,2.935736 -3.911056,1.72405 C 11.918673,48.042218 8.1996712,46.535624 4.6074551,44.813303 4.239737,44.672452 3.866838,44.545353 3.491,44.428 Z m 0.727,14.778 c 1.1173521,1.278003 3.2308664,1.320298 4.877439,0.908567 0.9041565,0.07372 2.317424,-1.680952 1.676889,-8.33e-4 C 10.068741,63.646374 9.9408875,67.259936 9.491,70.829 8.0751463,70.491467 8.0281747,73.185483 7.002,71.52 5.6634181,71.049115 4.5564883,70.861379 4.660625,69.131625 3.9013893,65.878154 3.8813994,62.515517 4.218,59.206 Z M 5.776,75.9 C 4.0839273,75.953274 2.0790518,73.103039 4.815875,72.927 6.2474116,72.791262 7.3102543,75.377955 6.99575,75.857 6.591079,75.903248 6.1827757,75.907153 5.776,75.9 Z M 7.621,86.005 C 6.3126653,85.519018 8.3911831,83.374737 6.519,82.825 6.3516233,80.671591 6.4621333,78.475738 6.039,76.355 7.6789057,76.871784 6.7457107,79.349421 7.3051475,80.709122 7.4499238,82.650234 8.1934021,84.462572 8.476,86.376 8.1900071,86.254697 7.9026304,86.136293 7.621,86.005 Z m 4.924,-1.737 C 13.102967,86.671463 9.1933409,86.279301 8.64475,85.860516 8.712308,82.820902 7.831023,79.891371 7.258,76.935 c 1.6591589,1.032079 4.283736,0.125014 4.209124,2.790165 0.420221,1.498987 0.762183,3.018806 1.077876,4.542835 z M 11.112,75.857 C 10.672615,77.001615 7.993319,76.526098 7.894375,76.102172 10.430373,75.527104 6.4908696,71.693061 9.2202812,72.86625 10.833528,72.339804 11.364434,74.73539 11.112,75.857 Z m 3.757,-25.105 c -0.225229,-0.539219 -0.857833,-1.001169 0.11,-0.644 l -0.05762,0.31825 z m 6.475,18.327 c -1.671361,-0.265351 -3.98678,-2.60666 -1.233406,-3.160188 1.756036,-0.374315 3.815862,-0.663646 5.422746,0.348219 1.122999,0.886094 2.539343,0.667443 3.86166,0.638969 -1.779015,1.134957 -3.545857,2.965613 -5.858875,2.53575 C 22.798094,69.373595 22.064276,69.254131 21.344,69.079 Z M 22.386,81.2 c -2.343997,0.161552 -0.735151,-2.406307 -0.80773,-3.792443 0.33351,-2.231258 0.484846,-4.493101 0.97173,-6.699557 1.920657,0.385367 3.177899,-1.015126 4.929,-1.224 -0.05912,1.940882 -0.286592,3.881985 -0.06732,5.831867 C 27.112959,77.509874 27.084527,79.724148 26.927,81.932 25.480221,81.350457 23.899607,81.4577 22.386,81.2 Z m 4.246,18.616 c -0.905052,3.57919 -2.158498,7.16696 -2.159182,10.89312 -0.07898,1.07048 0.482152,2.94959 0.405604,3.49504 -0.906261,-1.06403 -3.03369,-0.49492 -2.145991,-2.4039 0.584242,-5.32787 1.184556,-10.65524 2.030585,-15.948354 C 25.144909,94.976754 24.37936,91.563824 26.032,92.632 c -1.13524,4.099652 -1.569036,8.35134 -2.388,12.519 0.833244,-4.14393 1.660789,-8.289519 2.599,-12.411 0.949436,0.370999 2.097879,0.01656 1.240625,1.389125 C 26.486036,97.536068 25.611114,100.9779 24.667,104.4 c 1.151629,-3.8011 2.18555,-7.641243 3.454,-11.405 2.005906,-0.443263 -0.224243,2.21637 -0.246656,3.274333 C 27.450146,97.447788 27.003761,98.619581 26.632,99.816 Z m 2.844,-11.007 c -0.580225,1.381097 0.225807,4.782444 -2.162695,3.480354 C 25.694,92.017992 22.96052,91.531176 23.718875,89.270375 23.852844,87.314492 24.030721,85.326637 24.715,83.474 c 1.95883,0.100244 4.049084,0.361261 5.575,1.725 -0.275882,1.202255 -0.562779,2.402276 -0.814,3.61 z m 10.895,23.005 c -2.047436,-0.20583 -1.792025,-2.31109 -2.169265,-3.84394 -0.902825,-4.91414 -0.821306,-9.94256 -0.795985,-14.918419 -0.578993,-1.853025 2.303784,-0.328846 2.058484,0.505515 -0.132829,1.160529 -0.37269,4.224216 -0.300082,4.212829 0.352836,-1.374 -0.166305,-4.066952 0.775848,-4.645985 1.257881,0.622221 -1.6e-5,3.047451 0.228674,4.451526 -0.06388,1.001448 -0.163195,3.546284 0.0054,1.137758 0.183605,-1.79997 0.247709,-3.61853 0.579909,-5.399284 0.749794,1.254631 -0.434721,3.798829 -0.264963,5.560094 -0.373888,4.342176 0.386781,8.670246 1.079963,12.941906 -0.389119,0.0925 -0.813179,0.14886 -1.198,-0.002 z m 5.596,-27.111 c 0.170441,2.249889 -1.16016,4.234195 -1.926932,6.265666 -0.48547,2.367522 -3.102177,1.455233 -4.70098,1.03033 -1.165473,-0.121398 -2.439516,-0.171802 -1.118277,-1.370129 1.126787,-1.907178 2.806557,-3.825613 2.594189,-6.181867 1.677986,-0.147387 3.646833,-0.784522 5.152,0.256 z M 43.79,74.159 c 0.921264,1.046476 2.721455,2.524594 2.888877,3.572031 -3.041259,1.503094 -6.122169,3.02009 -9.496984,3.605151 C 35.4861,81.972557 35.634587,78.87846 34.458856,78.003045 32.67383,74.852307 31.072207,71.60189 29.264,68.464 c 1.560698,-0.913876 4.062495,-0.228909 5.998106,-0.557639 1.54563,0.124043 3.573926,-0.661763 4.78314,0.456338 1.28953,1.902275 2.3076,4.002064 3.744754,5.796301 z m -2.652,-9.997 c 1.730671,1.105005 0.314188,4.795599 -1.090625,3.146328 1.678181,-1.860272 -1.036246,-3.450039 -2.471422,-4.238484 0.634771,-0.07083 2.806576,0.2065 3.562047,1.092156 z m -2.684,1.849 c -1.910436,1.244241 -4.251968,1.056576 -6.422,1.039 -1.835779,-0.287912 -3.283379,-1.237502 -4.800578,-2.268188 -0.774509,-0.429489 -2.697001,-1.01171 -0.823922,-1.234312 2.983395,-0.567654 6.050545,-0.008 9.00049,0.517574 1.156846,0.368037 2.070852,1.254487 3.04601,1.945926 z m -3.666,-4.796 c 1.848223,0.209635 -1.921322,1.015127 -2.788438,0.912984 -2.274424,0.29481 -4.940744,-0.0315 -6.737562,1.687016 -1.89907,-0.773095 -4.5557,0.838577 -5.702793,-1.262383 -2.184448,-3.090467 -3.098427,-7.013934 -2.929799,-10.764038 -0.230982,-2.577111 2.929596,-0.04391 4.356609,-0.688025 2.080814,-3.060192 3.406969,-6.569254 5.289911,-9.753393 0.286145,-1.05496 1.341628,-0.0014 2.04158,0.07494 1.450499,0.423944 1.933463,1.943045 1.723617,3.28848 0.636014,0.908376 0.824897,1.685541 -0.561656,2.02225 -1.493258,0.560201 0.08199,1.509978 -0.682953,2.686235 -0.212521,2.087142 0.0579,4.191285 0.121484,6.281937 -0.140561,-2.499494 0.08701,-4.982852 0.364164,-7.462654 1.228741,-0.169773 1.943276,2.701874 2.450367,4.006992 0.03066,1.406448 -0.0763,1.614627 0.08327,2.81991 -0.270164,0.0016 0.393019,-2.243246 0.983685,-1.137107 C 32.466098,56.39197 33.241152,58.85156 34.228,61.08 l 0.154,0.045 z m 2.959,-14.576 c -0.820095,1.571342 -1.742834,3.087317 -2.624,4.625 0.374325,-2.165176 -1.235961,-0.613669 -1.398713,0.535824 -0.05045,0.964455 -2.447309,3.014705 -1.643287,0.961176 -0.367421,-1.827179 -1.036639,-3.968698 -2.596,-5.098 -1.089477,-0.180802 1.511892,-1.240898 1.481703,-1.795937 1.511723,0.297485 3.365512,1.039251 4.566047,0.602562 1.77844,0.381522 -2.25333,4.087426 0.04439,2.068891 1.200868,-0.832633 0.625272,-2.141361 2.161609,-2.166766 z m 0.14,-1.004 c -1.0625,1.583858 -3.961753,-1.338243 -1.539406,-1.278469 1.01797,-0.768356 1.823572,0.207514 1.539406,1.278469 z m 0.393,-2.764 c -0.023,-1.003919 -2.936081,-0.654689 -1.24,-1.27 0.317041,0.502523 2.395869,0.433052 1.24,1.27 z m 4.056,0.381 C 39.803776,41.824494 37.067929,40.652531 34.823965,38.78449 33.52497,37.315669 31.831817,35.790197 32.074984,33.628703 31.866664,31.4666 31.441403,29.282534 31.49057,27.119854 c 0.714709,-1.64165 2.566681,-2.614786 3.73493,-1.026604 1.081116,-0.04309 -0.487541,1.254235 0.529875,0.569875 1.134433,1.227406 2.370164,3.537597 4.4975,2.595125 1.414596,-0.302863 0.949238,-2.459768 2.124719,-2.293703 0.817257,-1.022346 0.365872,-3.157024 0.534984,-3.591141 1.054504,0.355826 3.542071,-0.186578 3.819422,0.411594 -0.418966,0.851202 0.440421,3.752504 -1.07425,2.861625 0.361031,-0.778814 -0.77245,-3.299587 -0.36075,-1.40825 0.507136,1.170853 -0.934636,2.857669 -1.863,1.427625 0.669453,0.567084 -0.258982,1.74286 1.253,1.807 1.753895,0.357976 -2.190432,-0.946121 -0.179,-1.0105 0.90569,-0.159519 1.726181,-0.927164 2.288,0.3805 -0.140407,-0.243009 1.073684,1.493973 0.993641,1.656438 0.02514,-1.591289 -1.915683,-2.075241 -0.921641,-3.527438 1.047888,0.224158 0.333037,1.550526 1.438203,1.595578 0.542975,1.114157 -0.06721,2.185202 1.270625,2.788969 -0.155445,1.391531 3.653013,3.316213 0.956172,3.752453 -1.244719,0.423655 -3.730785,0.482482 -2.7815,1.814 -1.478589,0.233956 -2.423479,1.08675 -1.4285,2.499 -1.521091,-0.898998 -2.54104,-2.667173 -4.434042,-2.918171 -2.739775,0.19863 -1.190335,-3.667591 -3.88964,-3.651415 -2.79556,-0.80179 -2.52124,2.379883 -2.753818,3.792586 -1.636315,0.924013 1.462359,1.015847 1.617516,2.037391 1.512867,1.840622 4.221191,0.836016 6.032883,2.168631 0.972824,0.875367 3.466619,1.592838 1.829288,2.921541 C 44.181628,43.67751 44.380609,45.357194 43.241625,43.895 42.953716,43.662648 42.664548,43.425778 42.336,43.252 Z m 3.175,-2.035 C 43.479153,40.447781 43.653053,38.347536 42.37975,36.939375 41.604293,36.254292 41.282624,35.486912 42.597,36.173 c 1.63019,0.798365 2.57375,2.675151 2.864625,4.400125 0.02351,0.214002 0.04078,0.428741 0.04938,0.643875 z m -7.56,-6.094 c 1.084305,-0.06329 2.083718,-2.955265 1.792,-0.920422 -0.566726,1.481188 2.966199,1.572517 0.737564,1.963942 -1.217192,0.385028 -3.804327,0.464309 -4.288923,-0.135223 0.60125,-0.27206 1.200755,-0.554916 1.759359,-0.908297 z m -2.109,-0.504 c -0.719993,-1.536718 0.07129,-2.931039 1.795391,-2.433 1.668083,-0.351421 2.848636,1.661486 0.882734,1.92075 C 37.597596,33.861961 36.697329,34.335048 35.842,34.619 Z m 12.605,13.476 c 0.02832,0.761764 -0.904086,2.708288 -1.259,1.249 -0.733239,0.4849 -0.309254,2.74525 -1.0425,1.018922 -0.586187,-1.32124 -2.86935,-1.448294 -2.048969,-3.442516 -0.09994,-1.050865 0.441327,-2.498608 0.843219,-0.722406 0.344262,0.657476 0.446501,2.756451 0.495375,0.867 0.04622,-1.565106 2.116324,0.697116 0.926875,1.587 0.767767,-0.916015 0.727913,-2.316047 1.918781,-1.871562 0.08502,0.433024 0.18214,0.869869 0.166219,1.314562 z M 48.315,44.92 c 0.07594,2.424105 -3.225377,0.112442 -3.808313,-0.314469 0.682902,-1.502056 1.472917,-3.153849 3.051102,-1.885913 0.824652,-0.569399 1.68716,-0.945098 1.029711,0.345382 0.06694,0.448881 1.847495,-0.316448 2.3235,-0.403 0.623116,-0.838699 1.602465,-0.909043 0.618062,0.112781 -1.064774,1.062544 -2.590503,0.878661 -4.024236,0.441246 -0.749523,-0.267146 -1.632118,-0.877998 -0.415951,-0.106652 0.903368,1.096549 3.212679,0.272608 1.226125,1.810625 z"
   style="fill:#414042"
   id="path41" />
	<path
   d="m 25.466,56.817 c -0.456782,-2.332496 -0.343017,-4.703277 0.02041,-7.039148 0.02788,-0.813182 0.528767,-3.54498 0.288766,-2.955805 C 24.736253,50.067819 24.674238,53.51067 25.466,56.817 Z"
   style="fill:#414042"
   id="path43" />
	<path
   d="M 6.619,71.303 C 5.7169807,68.489359 5.902738,65.508326 5.5664258,62.6041 5.4848137,63.89 5.1221878,66.847443 5.6782187,68.712266 5.9261584,69.597837 6.2519896,70.460346 6.619,71.303 Z"
   style="fill:#414042"
   id="path45" />
	<path
   d="M 9.087,65.194 C 9.0413436,64.508609 9.1751225,61.285411 8.9745,63.35525 8.7017304,65.886138 8.8240077,68.438138 8.762,70.979 8.8792073,69.051374 9.0262825,67.124393 9.087,65.194 Z"
   style="fill:#414042"
   id="path47" />
	<path
   d="m 8.739,79.016 c 0.2538824,2.36818 0.7518002,4.696099 1.256,7.021 C 9.7111744,83.670822 9.5098235,81.287706 8.739,79.016 Z"
   style="fill:#414042"
   id="path49" />
	<path
   d="m 10.788,81.105 c 0.301326,1.308782 0.891546,3.799698 1.081465,4.433348 C 11.46229,83.363942 11.231454,81.153236 10.644,79.016 c 0.02098,0.697215 0.03053,1.399265 0.144,2.089 z"
   style="fill:#414042"
   id="path51" />
	<path
   d="m 34.8,71.232 c -0.808407,0.166325 -2.215557,0.634333 -0.579422,0.363594 1.412817,-0.183016 3.710956,-0.780346 4.574303,-0.97768 C 37.46239,70.816415 36.127118,70.999553 34.8,71.232 Z"
   style="fill:#414042"
   id="path53" />
	<path
   d="m 35.626,76.683 c 2.244118,-0.382318 4.385587,-1.142046 6.518,-1.917 -2.229324,0.456817 -4.471375,0.872515 -6.518,1.917 z"
   style="fill:#414042"
   id="path55" />
	<path
   d="M 26.52,72.562 C 25.638516,72.239946 23.893633,71.797485 23.433703,72.098547 24.399045,72.589401 25.474328,72.494251 26.52,72.562 Z"
   style="fill:#414042"
   id="path57" />
	<path
   d="m 24.272,76.779 c -0.850925,-0.222354 -2.126963,-0.199178 -0.557266,0.185906 0.841547,0.190221 3.348861,0.567566 1.266385,0.04918 C 24.743733,76.938994 24.504838,76.86764 24.272,76.779 Z"
   style="fill:#414042"
   id="path59" />
	<path
   d="m 24.687,89.947 c 0.260373,-1.510191 0.79176,-3.896818 0.750094,-4.894937 C 24.679149,86.563885 24.816001,88.309045 24.687,89.947 Z"
   style="fill:#414042"
   id="path61" />
	<path
   d="m 26.161,90.043 c 0.0039,-1.158553 0.572066,-4.360554 0.351979,-4.282551 C 26.085477,87.150865 26.190252,88.608818 26.161,90.043 Z"
   style="fill:#414042"
   id="path63" />
	<path
   d="m 27.814,87.071 c 0.03572,0.810104 -0.05586,4.107445 0.06345,1.810011 0.0741,-1.02929 0.107459,-2.060211 0.09255,-3.092011 -0.07389,0.423803 -0.158965,0.849802 -0.156,1.282 z"
   style="fill:#414042"
   id="path65" />
	<path
   d="m 41.641,87.718 c -0.382884,0.667281 -1.475606,3.13362 -0.510125,1.29225 0.428732,-0.605328 1.647094,-3.344731 0.510125,-1.29225 z"
   style="fill:#414042"
   id="path67" />
	<path
   d="m 42.855,87.738 c -0.187709,0.712917 -1.007798,3.251155 -0.3335,1.3385 0.309906,-0.549133 1.204298,-4.000624 0.3335,-1.3385 z"
   style="fill:#414042"
   id="path69" />
	<path
   d="m 43.205,90.193 c 0.481131,-0.813791 1.587624,-2.876395 1.431375,-2.94675 -0.577604,0.92557 -0.949404,1.969792 -1.431375,2.94675 z"
   style="fill:#414042"
   id="path71" />
	<path
   d="m 20.649,36.776 c 0.899402,0.281859 2.71506,1.080215 2.946553,1.129607 -2.795489,-1.451393 -5.526885,-3.054244 -8.571506,-3.943076 -1.484914,-0.556932 1.616793,0.994893 2.069436,1.320042 1.092387,0.709988 2.32756,1.091041 3.555517,1.493427 z"
   style="fill:#414042"
   id="path73" />
	<path
   d="M 19.067,44.333 C 16.117414,42.860203 13.303609,41.018195 10.050496,40.27523 9.4555676,40.118837 7.4731825,39.490785 9.1367434,40.147744 12.397354,41.665417 15.810129,42.80675 19.067,44.333 Z"
   style="fill:#414042"
   id="path75" />
</g>
</svg>
