<?xml version="1.0" encoding="UTF-8" standalone="no"?>
<svg
   xmlns:dc="http://purl.org/dc/elements/1.1/"
   xmlns:cc="http://creativecommons.org/ns#"
   xmlns:rdf="http://www.w3.org/1999/02/22-rdf-syntax-ns#"
   xmlns:svg="http://www.w3.org/2000/svg"
   xmlns="http://www.w3.org/2000/svg"
   xmlns:sodipodi="http://sodipodi.sourceforge.net/DTD/sodipodi-0.dtd"
   xmlns:inkscape="http://www.inkscape.org/namespaces/inkscape"
   inkscape:version="1.0 (4035a4fb49, 2020-05-01)"
   sodipodi:docname="firelord-04.svg"
   id="svg150"
   xml:space="preserve"
   style="enable-background:new 0 0 87.953 118.696;"
   viewBox="0 0 87.953 118.696"
   height="118.696px"
   width="87.953px"
   y="0px"
   x="0px"
   version="1.0"><metadata
   id="metadata156"><rdf:RDF><cc:Work
       rdf:about=""><dc:format>image/svg+xml</dc:format><dc:type
         rdf:resource="http://purl.org/dc/dcmitype/StillImage" /></cc:Work></rdf:RDF></metadata><defs
   id="defs154" /><sodipodi:namedview
   inkscape:current-layer="svg150"
   inkscape:window-maximized="1"
   inkscape:window-y="-8"
   inkscape:window-x="-8"
   inkscape:cy="58.915535"
   inkscape:cx="7.7277719"
   inkscape:zoom="5.0636986"
   showgrid="false"
   id="namedview152"
   inkscape:window-height="1017"
   inkscape:window-width="1920"
   inkscape:pageshadow="2"
   inkscape:pageopacity="0"
   guidetolerance="10"
   gridtolerance="10"
   objecttolerance="10"
   borderopacity="1"
   bordercolor="#666666"
   pagecolor="#ffffff" />
<g
   style="display:none;"
   id="Layer_1">
</g>
<g
   id="Layer_2">
	<path
   d="m 45.099,29.575 c 0.815784,-0.512406 -0.714026,0.299885 0,0 z"
   style="opacity:0.65;fill:#ffffff"
   id="path3" />
	<path
   d="m 44.595,20.934 c 0.0146,-0.05062 -0.03105,0.03527 0,0 z"
   style="opacity:0.65;fill:#ffffff"
   id="polygon5" />
	<path
   d="m 37.003,98.631 c 1.304727,0.898992 2.738975,1.56922 4.148,2.284 2.586332,-0.86492 5.247991,-1.586003 7.78317,-2.553752 0.666691,-0.805179 2.470108,-1.245847 1.66733,-2.542873 -1.249848,-3.515483 -0.830018,-7.352134 -1.027453,-11.020438 -0.04594,-2.291322 0.07339,-4.582375 0.290953,-6.862937 1.538069,-0.412805 2.83014,-0.942918 2.340283,-2.839328 0.199034,-8.432611 0.33108,-16.920706 -0.743142,-25.30217 C 50.311573,43.144873 47.626417,36.816383 44.457,30.928 c 0.473479,-1.174932 0.285077,-1.437564 0.427,-2.682 0.07211,-1.281434 -1.644414,-1.155313 -2.511,-1.465 -0.885772,-0.244289 -1.292557,-1.146048 -1.954,-1.707 -0.68468,0.558965 -0.299409,2.071709 -1.449187,2.010661 -0.918437,0.0026 -0.99847,1.30357 -2.008813,1.069339 -0.882416,0.226873 -0.350841,1.342528 -0.951,1.656 -0.219858,0.501388 0.706234,1.351411 0.854,2.028 -0.553043,0.454342 -1.49317,-0.659266 -2.118606,-0.965962 C 33.06811,29.536589 33.688649,26.995975 34.922849,25.57717 35.4678,24.783201 36.05015,24.013806 36.536,23.181 c -2.548664,0.01881 -5.142933,-0.09738 -7.529,-1.083 2.071736,3.089009 3.663432,6.498179 4.875568,10.010418 1.48627,4.198195 2.391727,8.570634 2.994432,12.976582 -0.445812,0.902917 0.689344,3.211845 0.481,5.058 0.56635,8.40016 0.63519,17.039413 -1.860437,25.158891 -0.160591,1.868307 -4.221787,3.383768 -0.864922,4.320328 2.656484,0.544081 0.289489,4.135448 0.63588,5.988481 -0.562477,3.980243 -1.389492,7.918182 -2.70071,11.719446 -0.333075,0.935678 0.685972,2.143268 1.705377,1.618375 C 35.183125,98.842681 36.093063,98.73684 37.003,98.631 Z"
   style="fill:#ffffff"
   id="path7" />
	<path
   d="m 44.186,21.185 c -0.497582,0.521868 -2.473093,0.585335 -1.649947,1.397148 1.217481,1.313968 2.976135,2.136657 3.831796,3.799982 0.799491,1.025544 0.06798,2.408747 -0.961797,2.944552 1.882873,-0.615408 1.592403,-3.166248 0.198948,-4.381682 0.03151,-1.627144 1.433076,-5.451123 1.002219,-5.670156 C 45.898058,20.03249 45.061189,20.692296 44.186,21.185 Z"
   style="fill:#ffffff"
   id="path9" />
	<path
   d="m 43.768,18.564 c 0.417826,0.630269 0.990606,1.91274 0.894067,2.221866 C 45.50426,19.374049 43.321334,18.259389 43.78,16.749 c -0.322377,0.619634 -0.158746,1.172447 -0.012,1.815 z"
   style="fill:#ffffff"
   id="path11" />
	<path
   d="m 36.213,29.694 c -0.07787,0.295321 0.348564,-1.047621 0,0 z"
   style="fill:#a1b8bf"
   id="polygon13" />
	<path
   d="M 36.275,41.26 C 35.182925,35.387135 33.363209,29.605492 30.42302,24.384594 30.00814,23.587946 29.521343,22.83036 29.001,22.099 c 2.385988,0.987603 4.980258,1.100939 7.529,1.083 -1.050442,1.927681 -3.137277,3.601332 -2.781996,6.006304 0.232779,1.513174 1.738966,2.273277 2.969996,2.889696 0.338162,-0.767801 -0.893139,-1.561256 -0.778,-2.276 -0.955212,-0.8854 0.654022,-0.620586 0.506,-1.198 0.818871,-0.3479 -0.01132,-1.5489 1.16673,-1.582 0.830258,0.560759 0.03773,0.824235 1.13327,0.081 -0.963236,-0.03575 -0.04915,-1.781838 0.679953,-1.187454 0.617417,1.022793 0.22064,0.613226 0.679022,-0.429061 -0.07065,0.178037 -1.30216,-0.4529 -0.580948,-1.159788 0.909532,-0.504769 0.624228,1.052292 1.164973,1.010303 0.519862,0.423024 1.330963,1.826777 0.896298,0.56361 0.243934,-0.984539 1.937172,-0.529732 1.387159,0.460636 -0.889983,0.652113 -1.219016,0.117515 0.12078,0.582663 0.683664,-0.198662 1.742986,1.085829 1.831763,0.368091 1.062529,-0.468514 0.676431,1.592889 -0.041,0.738 -0.01187,0.929481 -0.47622,2.388094 0.803356,1.051244 1.111815,-0.591043 1.366267,-2.189989 0.436988,-3.068325 C 45.209947,24.343247 43.197252,23.69597 42.194,22.101 c 0.805003,-0.319582 1.766877,-0.733343 2.403,-1.183 0.251368,-1.333771 -1.355781,-2.333497 -0.955926,-3.705948 0.312452,-2.022247 0.03869,-4.13386 0.107216,-6.18879 C 43.903186,8.7037803 43.315667,6.1489913 41.527,4.548 38.420449,2.8099231 34.788562,2.2312355 31.679,0.541 29.597183,-0.77391833 28.16857,2.3286245 26.642545,3.310373 21.065721,9.0371506 15.616775,15.244339 12.59515,22.745687 c -1.952812,5.530057 -2.6079913,12.089317 0.332016,17.398961 2.926194,5.062353 8.774616,7.143135 13.995334,8.977383 1.41375,0.385052 3.189111,1.244583 4.404106,-0.02507 1.733351,-1.176221 3.441238,-2.495167 5.255151,-3.463719 0.605754,-0.90297 -0.103169,-2.02494 -0.09795,-3.027948 C 36.414205,42.156865 36.344603,41.708432 36.275,41.26 Z m 7.234,-14.938 c 0.922727,-0.536698 1.682906,0.860055 0.374,0.741 -0.3082,-0.109137 -0.571245,-0.415848 -0.374,-0.741 z m -2.225,-1.211 c -1.09265,0.779123 -1.10263,-1.509082 -0.06503,-0.864124 0.359897,0.0784 0.258651,0.662755 0.06503,0.864124 z M 39.785,8.144 c 0.0479,-1.4435515 2.091591,-1.7381186 2.807,-0.6 0.966763,1.1049932 0.874721,2.917059 0.025,4.065 C 41.102962,12.099103 39.752577,10.362092 39.73243,8.9851144 39.749954,8.7047429 39.767477,8.4243715 39.785,8.144 Z m -7.693,0.692 c 0.426133,-1.1222161 1.779033,-1.8569242 2.949,-1.787 1.390775,0.088432 1.668259,1.7495461 1.659599,2.8609177 -0.31487,1.0681623 -1.07855,2.0887473 -1.991054,2.7062103 C 33.520339,13.094948 32.0831,12.15736 31.995733,10.877226 31.856118,10.22384 32.084088,9.5056973 32.092,8.836 Z"
   style="fill:#a1b8bf"
   id="path15" />
	<path
   d="m 87.253,112.371 c -1.103573,-2.03724 -2.441194,-4.02737 -2.609875,-6.40988 C 83.784237,101.45799 78.565994,98.242781 74.227,99.999 c -1.500971,0.56054 -3.242266,2.16828 -4.547,2.288 C 69.169314,99.021614 67.10276,96.198538 66.687418,92.884318 66.022702,89.551876 66.408333,85.872476 68.37,83.025 c -1.856988,0.478797 -4.583079,0.122531 -6.11775,1.83525 -2.387504,2.937838 -3.46547,7.036413 -2.779875,10.767875 0.396942,2.022955 1.530832,3.819032 1.955625,5.822875 -2.154684,1.62775 -6.008775,2.08322 -8.302391,0.36578 -0.874563,-1.06709 -2.653623,-2.137871 -2.386937,-3.637514 0.730534,-2.355938 -0.883889,-0.516546 -1.730394,0.12177 -2.377757,0.998376 -4.951244,1.624991 -7.407629,2.470354 -0.85849,0.33989 -1.611761,-0.62984 -2.42457,-0.858514 -1.098438,-0.392566 -1.936325,-1.6348 -3.19823,-1.163078 -0.912283,0.106401 -1.824566,0.212801 -2.736849,0.319202 -0.877922,-1.837329 -0.839162,0.0397 -2.629953,-0.463688 -3.466333,0.602067 -3.992358,-2.953907 -2.191615,-5.117136 1.403222,-2.99761 3.907967,-5.817609 3.710568,-9.295176 -0.964224,-3.011238 -4.506244,-4.062382 -7.35,-4.361 -2.859394,-0.265607 -5.735859,0.113808 -8.562,0.538 1.544881,0.529121 3.301526,1.246977 4.694627,2.327004 1.091126,0.84188 2.725375,1.533023 3.132373,2.831996 -3.303022,4.11809 -8.017277,7.248013 -10.157,12.237 -1.058918,1.99463 0.361183,3.8323 1.681631,5.21555 1.663222,1.85403 3.124577,4.2551 5.629369,4.97545 3.457469,0.49804 6.911399,-0.48896 10.196,-1.48 -0.985895,2.03312 -3.067127,3.77317 -5.457,3.387 -3.999517,-0.0878 -7.931335,-1.32561 -11.936172,-1.11569 -4.571197,0.95222 -8.6188089,3.66914 -12.048828,6.74869 2.6553246,-1.89031 6.1510718,-3.1186 9.319,-1.795 4.752477,1.44402 9.634445,2.70101 14.491,3.532 -0.185952,-0.0948 -0.09926,-1.5443 0.744788,-1.90989 0.661247,-0.85237 1.954311,-0.40068 2.623426,0.24706 1.078127,0.60408 0.478305,2.31465 -0.690978,2.35106 -0.659124,0.46995 -3.307067,-0.7785 -1.517861,0.35277 1.86681,0.63111 3.839839,-1.85478 5.334625,0.233 2.798517,0.94163 4.06886,-2.67673 6.593,-2.056 2.565538,-0.55929 2.209222,-3.88029 3.301,-4.927 0.76086,1.52116 0.521076,3.88966 3.05275,4.20525 1.478267,0.1759 3.354932,-0.43353 3.888875,1.54025 1.127924,0.70501 0.07551,-1.66605 0.559578,-2.19843 0.48516,-0.94878 1.31633,-1.19032 2.325239,-1.06855 1.030672,-0.32703 1.654067,0.40423 2.294406,1.09147 0.288039,0.46641 -0.06987,2.54221 0.449152,1.88401 1.647289,-0.25963 2.747958,0.74021 2.43268,-1.35078 0.198892,-0.80765 0.462675,-1.84361 0.949337,-2.44614 1.5704,-0.27957 3.119766,-1.0075 4.724642,-0.5522 0.340432,0.53389 0.143234,1.73123 0.08085,2.48569 -0.537983,1.32943 -0.433237,2.11323 0.566489,0.38843 0.604025,-1.08673 2.404404,-1.11791 1.317137,-2.7294 0.103688,-0.94013 0.262224,-1.97408 1.263298,-2.3522 0.745153,-0.40565 1.654927,-0.88403 2.351565,-0.1214 0.310848,1.06582 0.497095,2.13577 0.168124,3.22278 1.093831,-0.37484 0.429767,-3.00548 2.318876,-3.33078 -0.491724,-0.78948 -1.062547,-2.96736 0.41873,-3.072 1.075031,-0.3473 1.355276,0.89005 1.441061,1.71389 -0.132935,0.97932 1.472722,-1.63496 2.085102,-1.5877 -0.630284,-0.59581 -0.98047,-1.77364 0.01289,-2.19126 0.833658,-0.75427 1.655139,0.21062 1.774778,1.05088 0.40084,0.65678 2.123119,0.65039 1.76389,-0.67925 0.698249,-0.24166 1.721177,-0.17912 2.184863,0.54782 -0.488514,1.75553 1.808688,2.00728 2.896928,3.26554 1.482991,1.2856 2.85565,2.69186 4.198762,4.12108 l -0.20975,-0.524 z m -71.313,1.031 c -0.599903,0.53836 -1.842177,0.65926 -2.305977,-0.0166 -0.488691,-1.0066 0.848081,-1.85247 1.646758,-1.17743 0.438091,0.25265 0.968086,0.62516 0.659219,1.19403 z m 3.961,1.969 c -1.060281,0.0828 -2.275989,-0.15783 -2.8,-1.185 0.102634,-1.50989 2.414304,-1.26615 2.862038,-0.0704 0.410106,0.4304 0.0805,0.79179 -0.06204,1.25539 z m 4.366,0.648 c -0.846582,0.28535 -1.964094,0.23993 -2.686405,-0.24263 -0.504227,-0.7712 0.41601,-1.89702 1.302772,-1.82983 1.052693,-0.25243 1.953645,1.20639 1.383633,2.07246 z m 11.968,0.594 c -0.965493,1.29177 -2.677295,1.78113 -4.196819,1.61293 -0.971118,-0.39034 -0.858867,-1.44963 -0.449973,-2.22819 0.189771,-0.884 1.292937,-1.18538 1.996172,-1.57691 1.035652,-0.13162 2.238245,0.17728 2.88062,1.04617 -0.07667,0.382 -0.153333,0.764 -0.23,1.146 z m 4.722,-2.343 c -0.615866,1.12476 -1.753847,2.28935 -3.142,2.101 -1.005028,-0.92261 -0.225571,-2.4682 0.426651,-3.3872 0.524479,-0.84552 1.481689,-1.53416 2.500116,-1.10279 0.660756,0.49937 0.409552,1.59593 0.224215,2.34246 z m 1.6,-3.613 c -0.844856,0.25151 -1.72907,-0.48076 -1.645433,-1.34717 -0.09252,-1.57661 0.752283,-3.06656 1.485433,-4.41883 0.689588,-0.56494 2.073788,-0.40775 1.925,0.70746 -0.02601,1.75096 -0.231866,3.94634 -1.765,5.05854 z m 4.83,4.348 c -0.581159,0.75099 -1.624995,1.08466 -2.437344,0.48436 -0.900232,-0.32627 -1.781654,-0.92892 -2.157656,-1.79809 -0.09361,-0.90629 0.474878,-1.94392 1.44943,-2.03493 1.29103,-0.0133 2.653896,0.71751 3.027166,2.02769 0.291059,0.46554 0.394111,0.81082 0.118404,1.32097 z"
   style="fill:#a1b8bf"
   id="path17" />
	<path
   d="m 32.808,12.377 c 0.892536,0.514312 2.072,0.527226 2.67955,-0.41883 0.829759,-0.917001 1.587243,-2.1194651 1.054772,-3.3852973 C 36.415474,7.5191386 35.477475,6.8793149 34.449078,7.048 33.218756,7.3347414 31.821864,8.2652826 32.011221,9.7186944 31.817535,10.674619 32.054777,11.722298 32.808,12.377 Z"
   style="fill:#94eccf"
   id="polygon19" />
	<path
   d="m 40.707,11.051 c 0.549314,0.72752 2.010425,1.049123 2.276345,-0.08497 0.712418,-1.4640427 0.1753,-3.8401575 -1.635862,-4.1330899 C 40.109599,6.6837658 39.609448,8.0012056 39.729709,9.0286568 39.73719,9.8051313 40.150023,10.5206 40.707,11.051 Z"
   style="fill:#94eccf"
   id="polygon21" />
	<path
   d="m 40.942,24.144 c -1.142727,0.06593 -0.111934,1.923183 0.478184,0.704796 C 41.589557,24.500639 41.298385,24.180061 40.942,24.144 Z"
   style="fill:#94eccf"
   id="polygon23" />
	<path
   d="m 41.828,26.517 c 0.06027,0.09603 0.199217,0.109974 0,0 z"
   style="fill:#94eccf"
   id="polygon25" />
	<path
   d="m 42.703,26.692 c 0.873321,-0.560311 -0.03352,-1.889162 -0.836367,-1.177596 -0.8613,0.590608 0.154359,1.397152 0.836367,1.177596 z"
   style="fill:#94eccf"
   id="polygon27" />
	<path
   d="m 43.884,27.063 c 1.33222,0.120827 0.532494,-1.284265 -0.375,-0.741 -0.207264,0.335556 0.06842,0.621089 0.375,0.741 z"
   style="fill:#94eccf"
   id="polygon29" />
	<path
   d="m 44.856,27.813 c -0.118787,-0.424166 0.114039,0.679543 0,0 z"
   style="fill:#94eccf"
   id="polygon31" />
	<path
   d="m 45.048,28.255 c 1.20133,0.147776 0.153091,-1.802019 -0.247,-0.643 0.113899,0.209724 -0.01163,0.535411 0.247,0.643 z"
   style="fill:#94eccf"
   id="polygon33" />
	<path
   d="m 36.007,29.812 c 0.344488,-0.132013 -0.24311,0.01002 0,0 z"
   style="fill:#94eccf"
   id="polygon35" />
	<path
   d="m 36.339,29.175 c -0.03276,-0.124992 0.0037,0.179004 0,0 z"
   style="fill:#94eccf"
   id="polygon37" />
	<path
   d="m 35.981,28.873 c -1.113246,0.716639 0.697871,1.400107 0.290746,0.133992 C 36.28277,28.820322 36.081484,28.912969 35.981,28.873 Z"
   style="fill:#94eccf"
   id="polygon39" />
	<path
   d="m 37.49,28.089 c -1.459725,0.428827 1.380679,-0.552062 0.110446,-0.07051 z"
   style="fill:#94eccf"
   id="polygon41" />
	<path
   d="M 38.115,27.384 C 37.715892,26.312884 36.148263,27.801203 37.105669,28.135322 37.5513,28.131256 38.064355,27.869528 38.115,27.384 Z"
   style="fill:#94eccf"
   id="polygon43" />
	<path
   d="m 38.76,27.095 c 1.005832,-0.104193 1.280747,-0.409147 0,0 z"
   style="fill:#94eccf"
   id="polygon45" />
	<path
   d="M 39.83,26.285 C 39.388524,25.371027 38.090947,26.00549 38.366023,26.882441 38.653241,27.392028 39.903574,26.985445 39.83,26.285 Z"
   style="fill:#94eccf"
   id="polygon47" />
	<path
   d="m 40.299,25.251 c 0.153972,-0.262037 -0.305998,0.35223 0,0 z"
   style="fill:#94eccf"
   id="polygon49" />
	<path
   d="m 40.303,24.741 c -0.224093,-1.075501 -1.379241,-0.201045 -0.862,0.555 0.348227,0.486473 1.197864,-0.02578 0.862,-0.555 z"
   style="fill:#94eccf"
   id="polygon51" />
	<path
   d="m 15.456,112.315 c -0.640843,-0.66485 -2.067939,-0.2983 -1.882625,0.72114 -0.01614,0.99294 1.485712,0.95077 2.084955,0.53939 0.672443,-0.26912 0.303196,-1.03358 -0.20233,-1.26053 z"
   style="fill:#94eccf"
   id="polygon53" />
	<path
   d="m 19.662,113.652 c -0.737173,-0.74737 -2.494257,-0.77107 -2.561,0.534 0.532262,1.01441 1.736827,1.27596 2.8,1.185 0.41088,-0.67634 0.238569,-1.13745 -0.239,-1.719 z"
   style="fill:#94eccf"
   id="polygon55" />
	<path
   d="m 24.044,114.388 c -0.779519,-0.97626 -2.548691,-0.32868 -2.637272,0.90968 0.109108,1.02098 1.568007,0.85794 2.366272,0.87732 0.94865,-0.0702 0.756526,-1.27734 0.271,-1.787 z"
   style="fill:#94eccf"
   id="polygon57" />
	<path
   d="m 29.008,117.759 c 0.932322,-0.48418 0.900328,-1.91138 -0.06869,-2.34028 -0.733262,-0.64533 -2.069322,-0.85329 -2.616444,0.11977 -0.762931,0.50185 -0.887343,1.50031 -0.213866,2.12951 0.916264,0.29714 1.964978,0.55854 2.899,0.091 z"
   style="fill:#94eccf"
   id="path59" />
	<path
   d="m 34.422,114.363 c -1.043264,-0.13692 -1.803009,0.61492 -2.652,1.087 -0.249414,0.87044 -0.981816,2.01625 0.04582,2.64707 0.966887,0.43199 2.15414,-0.029 3.134181,-0.33807 0.751556,-0.52935 1.519009,-1.15534 1.488487,-2.1599 -0.197028,-0.85726 -1.292263,-0.95538 -2.016487,-1.2361 z"
   style="fill:#94eccf"
   id="polygon61" />
	<path
   d="m 39.87,111.733 c -1.450868,0.43029 -2.304227,2.02355 -2.533365,3.43 -0.204337,0.97419 0.818721,1.60861 1.622642,1.05523 1.5976,-0.66667 2.757125,-2.653 1.942723,-4.31023 -0.344,-0.0583 -0.688,-0.11667 -1.032,-0.175 z"
   style="fill:#94eccf"
   id="polygon63" />
	<path
   d="m 43.755,109.124 c 0.401192,-1.35479 0.832103,-2.86672 0.403,-4.25 -0.788827,-0.75649 -2.028824,-0.0314 -2.273,0.906 -0.527852,1.31804 -1.377053,2.81859 -0.826706,4.22654 0.44872,0.90416 1.634072,0.86207 2.145477,0.0444 0.296165,-0.22338 0.36523,-0.62084 0.551229,-0.9269 z"
   style="fill:#94eccf"
   id="polygon65" />
	<path
   d="m 45.723,111.908 c -0.9308,-0.28003 -2.317266,-0.49931 -2.688118,0.6751 -0.720324,0.89739 0.122363,1.86409 0.853587,2.40323 0.948359,0.42637 2.219406,1.36763 3.105874,0.35757 1.038581,-0.59977 0.270212,-1.6785 -0.100137,-2.4518 -0.251574,-0.41631 -0.816535,-0.64563 -1.171206,-0.9841 z"
   style="fill:#94eccf"
   id="polygon67" />
	<path
   d="m 54.306,115.137 c -0.646726,-0.63289 -1.214178,-1.47177 -2.23651,-1.12866 -0.957999,-0.0527 -1.87591,-0.0235 -2.326303,0.9614 -0.618943,0.70972 0.216837,1.77982 -0.234187,2.63826 1.274381,0.85807 5.191909,0.8855 4.920707,-1.21311 -0.04124,-0.41929 -0.08247,-0.83859 -0.123707,-1.25789 z"
   style="fill:#94eccf"
   id="path69" />
	<path
   d="m 62.987,112.661 c -1.13395,-0.28534 -2.249246,-0.17303 -3.353202,0.18099 -0.892725,0.20665 -1.983886,0.18745 -2.034031,1.35309 -0.503912,0.95472 -0.490879,2.01598 -0.532767,3.06592 1.728096,0.3375 4.313545,0.7787 5.481489,-0.84557 0.493748,-1.23207 0.478933,-2.45167 0.438511,-3.75443 z"
   style="fill:#94eccf"
   id="path71" />
	<path
   d="m 68.407,110.311 c -0.680071,-0.74223 -1.573562,-0.3113 -2.303024,0.0986 -1.089993,0.38201 -1.207639,1.5277 -1.337976,2.5204 -0.223747,1.75971 3.826442,1.89574 3.897438,0.0271 0.301853,-0.91419 -0.09495,-1.74873 -0.256438,-2.64611 z"
   style="fill:#94eccf"
   id="path73" />
	<path
   d="m 72.646,108.114 c -0.144246,-1.06469 -1.1093,-1.21758 -1.966,-0.812 -0.599347,0.92693 -0.387301,3.10245 0.8495,2.75563 1.455666,0.041 1.367061,-0.92404 1.1165,-1.94363 z"
   style="fill:#94eccf"
   id="path75" />
	<path
   d="m 75.795,104.743 c -0.946621,0.0297 -2.140739,1.02596 -1.334679,1.95044 0.221799,1.13727 2.454908,0.39268 2.165122,-0.57525 -0.0078,-0.58479 -0.534454,-0.92099 -0.830443,-1.37519 z"
   style="fill:#94eccf"
   id="path77" />
	<path
   d="m 79.926,105.382 c -0.745111,-0.0886 -2.016108,-0.26923 -1.616311,0.91338 0.5891,0.97182 3.308147,1.20843 2.11267,-0.45209 -0.165453,-0.15376 -0.330906,-0.30753 -0.496359,-0.46129 z"
   style="fill:#94eccf"
   id="path79" />
	<path
   d="m 87.334,112.319 c -1.188857,-2.13442 -2.517115,-4.25334 -2.684,-6.764 -1.095625,-4.37798 -6.218209,-7.391663 -10.498,-5.658 -1.646125,0.2687 -4.763328,4.1649 -4.717,0.756 -1.856832,-4.422747 -3.876511,-9.290825 -2.533828,-14.153813 0.09734,-1.530192 2.808111,-4.726043 -0.189547,-3.294437 -2.16623,-0.005 -4.509394,0.763961 -5.524285,2.837734 -2.200897,3.742 -2.858741,8.551605 -0.902059,12.541422 1.03604,1.601384 1.717809,3.933754 -1.112453,3.841844 -3.178069,1.09074 -6.397916,-0.22106 -8.149124,-2.878425 -0.07629,1.093595 1.65774,3.500615 3.247546,4.094175 2.472077,0.65234 5.312749,0.62187 7.63775,-0.5275 2.366813,-1.74833 -0.14147,-4.634299 -0.538,-6.736 -1.084352,-3.571641 -0.209306,-7.623179 1.734625,-10.737875 0.615989,-1.112615 4.287642,-2.230773 4.098375,-1.583125 -3.253305,4.969553 -1.983089,11.346741 0.22025,16.4635 2.065796,3.3325 -2.582034,3.579 -4.796156,4.3267 -3.431533,1.14916 -7.568804,0.75719 -10.133094,-2.0162 -1.034614,-1.39073 -3.735282,-3.68029 -1.655123,-4.695996 0.316611,-2.417871 -1.254746,-4.641771 -0.997861,-7.116113 C 49.649628,86.690044 49.498696,82.340097 49.944,78.021 50.855104,77.462699 52.820466,77.757872 52.254608,76.11796 52.503472,67.44701 52.633348,58.722765 51.598587,50.096283 50.463766,43.352853 47.835151,36.927503 44.536,30.967 c 0.874933,-1.93681 4.016601,-3.717094 1.147,-5.936 0.331595,-2.297996 0.91211,-4.551289 1.498,-6.795 -0.926268,1.23248 -2.40084,3.433637 -2.555125,0.920125 C 43.18904,16.961844 44.136516,14.181779 43.842959,11.720305 43.990775,9.1555139 43.620585,6.2969814 41.603,4.48 38.18781,2.5848052 34.175425,1.9636539 30.81925,0.011625 28.716519,0.3368694 27.498836,2.6473238 25.885707,3.8695984 20.313402,9.7528633 14.759424,16.09925 12.051781,23.869484 c -1.78189,5.920223 -2.128696,13.120664 2.029031,18.163625 3.451122,4.019713 8.685564,5.812319 13.56525,7.432625 1.384418,0.588057 2.946311,0.662732 4.041938,-0.487734 1.668187,-1.097165 3.19809,-2.441967 5.063,-3.202 1.083509,9.349487 1.340912,18.979284 -0.981,28.165 0.20979,2.041085 -2.834531,3.694244 -2.525141,4.972266 1.658167,0.894481 3.203488,1.420243 2.244963,3.655805 -0.533265,4.965843 -1.404007,9.918208 -3.04076,14.644241 -0.273586,2.936988 -7.244665,0.887489 -4.599156,-2.305109 1.392272,-3.437708 4.190006,-6.414771 4.418656,-10.243391 C 31.927548,81.766181 28.710184,80.408525 26.168,79.928 c -3.461314,-0.669321 -6.997456,-0.09162 -10.432,0.46 2.975699,0.810961 5.596199,2.543143 7.889,4.557 0.329549,2.064144 -3.102784,3.528462 -4.222234,5.291908 -2.402543,2.609765 -5.335288,5.253474 -5.974735,8.905014 -0.187803,2.114608 1.830627,3.449458 2.939969,5.017078 1.670269,1.9849 3.660684,4.42405 6.562438,4.06864 2.799781,-0.0293 5.540729,-0.72482 8.201562,-1.54464 -1.023274,2.03997 -3.220472,3.5038 -5.555324,3.05842 -3.91603,-0.15028 -7.772446,-1.33236 -11.697317,-1.08737 C 8.4713569,109.83592 3.8704497,113.33601 0,117.155 c 2.9325479,-2.57116 7.0616913,-4.9457 11.032,-3.394 4.800233,1.43024 9.64162,2.78803 14.604,3.529 1.599389,3.07244 4.795357,-1.02349 6.571,1.338 2.928834,0.71062 4.424238,-2.4915 7.078625,-2.26025 2.038143,-0.90637 2.107333,-3.0647 2.747375,-4.76575 0.823285,1.38341 0.330802,3.67983 2.709813,4.09659 1.893382,0.40383 3.638168,-0.1621 4.594515,1.95424 2.782641,2.16927 5.606991,-1.94428 8.259172,-0.0997 2.03685,0.2764 4.557459,0.30277 5.782359,-1.68718 1.097717,-2.95793 5.924486,-0.11642 6.218141,-3.91995 0.04929,-2.16876 3.547573,-1.30606 3.875578,-3.49973 1.713996,-1.07782 3.517721,-2.41158 5.609203,-1.58479 3.733682,1.11927 6.224325,4.35815 8.871219,7.01052 -0.188862,-0.52425 -0.377445,-1.05007 -0.619,-1.553 z m -45.163,-1.891 c -2.417343,-0.52052 -0.209736,-6.54293 1.722625,-5.184 0.274572,1.75983 -0.260741,4.07132 -1.722625,5.184 z m 4.683,-74.017 c 2.692436,6.350067 4.540761,13.111296 4.734797,20.036094 C 51.999384,63.362366 52.111931,70.291178 52.181,77.217 50.01607,77.107082 46.486036,79.445824 45.35293,78.713277 46.497617,73.165283 47.109654,67.49623 46.680625,61.831984 46.345155,54.295944 45.15509,46.734465 42.229,39.739 c -1.053986,-1.725524 -1.278539,-3.022568 0.99,-3.487 2.537696,-1.315119 -1.484521,-4.207707 0.406,-4.799 1.826825,-1.042079 2.019675,3.455066 3.087556,4.615369 z m -2.458,-5.462 c -2.601467,1.979513 -1.244334,-2.710253 -2.178,-4.142 2.024687,-0.08773 3.604642,1.648398 1.89175,3.282 -0.332613,0.102585 0.973853,-0.303172 0.28625,0.86 z m -2.3,-5.548 c 2.978885,1.147888 -1.865276,2.03471 0,0 z m 1.794,1.604 c -1.280327,-1.129522 1.986698,-0.311767 0,0 z m 1.209,1.844 c 0.0042,0.0446 -0.06013,0.224516 0,0 z m -0.127,-0.727 c -0.557595,-1.991303 1.583321,0.227292 0,0 z m 0.829,-7.796 c 2.053538,-2.775529 -0.07152,1.183136 -0.171625,2.563875 -0.177622,1.338855 -0.34613,2.190949 -1.406406,0.713844 -1.908885,-1.080504 -1.684967,-1.800475 0.288685,-2.352182 C 44.971634,20.988438 45.407281,20.681151 45.801,20.326 Z M 20.678,12.104 c 1.676237,2.904173 0.414734,7.279117 -2.78075,8.47525 -3.800036,-0.01219 0.3943,-4.210372 1.06883,-5.943355 C 19.513921,13.776804 20.085705,12.933044 20.678,12.104 Z M 35.13,45.153 c -1.817887,0.962072 -3.484165,2.183637 -5.269,3.204 -3.971012,-0.967771 -7.772053,-2.705514 -11.223,-4.886 2.227352,-1.484433 1.111539,-4.553549 0.214953,-6.503625 -1.008532,-2.093874 -4.277304,0.532025 -3.89489,0.690484 1.56283,-2.690413 4.763972,-0.743419 4.539187,1.920391 1.027098,1.915385 -0.723828,5.370733 -2.486537,2.606463 -4.123679,-3.584358 -4.560641,-9.582139 -3.559088,-14.614088 0.515698,-2.443261 1.421908,-6.150694 2.795172,-7.411266 2.355068,1.757563 4.702958,-1.521977 5.214953,-3.614484 C 22.415075,14.05872 19.532684,11.80079 22.244972,10.008402 24.755999,6.8243319 27.622962,3.6981773 30.558,1.052 33.20864,1.2842447 35.587508,2.8143839 38.038929,3.784238 40.287621,4.7218188 42.752845,5.897463 43.379,8.5 c 0.661089,3.248826 -0.334078,6.596293 0.092,9.84 0.924865,0.845268 1.062381,3.603519 -0.146375,2.856875 -0.388756,-1.117511 -0.844508,-3.532383 -0.661453,-4.052359 -0.974377,1.315335 1.754439,4.903032 -0.501766,4.515593 -1.228811,-0.898689 -0.381518,-4.273 -0.491797,-4.049437 -1.303307,2.591447 0.398992,5.444522 2.618922,6.854933 1.957542,1.124942 3.341324,3.863257 0.613469,5.073395 0.423102,-0.65769 1.46221,-2.910726 -0.162,-2.14 -1.148149,0.113508 1.227268,-1.485109 -0.968,-1.282 -0.393683,0.421026 -0.578295,1.147093 -0.895,0.534 1.336629,-1.611596 -1.295964,-1.345095 -1.60325,-1.0575 0.134473,-0.188828 0.662626,-2.315978 -0.79775,-1.4615 -0.480488,-0.811928 -0.631436,-3.863964 -1.209,-5.484 0.570249,2.398756 0.648272,4.751184 0.16,6.726 0.92683,0.448032 -1.95899,0.317029 -1.331,1.797 -1.421577,-0.71093 -1.515223,1.541692 -2.567,2.2 0.115058,0.932977 2.217773,3.497673 0.05294,1.947031 -3.721524,-2.060222 -0.521886,-5.91703 1.146329,-8.183187 1.160828,-1.283918 0.36901,-4.523246 -0.0095,-4.875891 0.680383,1.239761 0.677242,5.837659 -1.212719,4.380047 0.159508,-1.47033 -0.162179,-4.478346 -0.735563,-4.836453 0.798119,1.519392 0.529582,4.43164 0.341266,5.276015 -2.682355,0.277854 -1.312936,-3.043574 -2.15261,-4.528258 -0.520236,-1.519272 -1.619547,-4.963484 -2.309671,-4.970554 1.016001,1.966017 1.918431,4.176643 2.097578,6.38725 0.308174,2.603975 -3.27255,-0.433403 -3.42325,-1.744875 -0.782931,-1.182049 1.620472,-0.82039 1.22325,0.366875 -0.121208,-2.706571 -3.4173,-6.163111 -3.582094,-7.543578 0.692404,2.104679 0.207116,4.870917 1.852094,6.556578 0.432202,2.283869 2.162174,3.989301 4.156,5.045 0.302202,1.245173 -5.629285,-1.943641 -3.257563,0.641766 2.239999,4.003267 3.915123,8.312556 5.107563,12.738234 -2.682194,1.948277 -4.859641,5.931127 -2.805,9.066 0.769382,0.949786 1.829989,1.371809 0.336828,0.279594 C 30.060284,42.32581 32.184022,38.238951 34.775,36.151 c 0.635382,2.47998 1.966943,6.21473 1.450047,8.556359 C 35.854635,44.842044 35.487282,44.986176 35.13,45.153 Z m 3.815,-18.165 c -1.781544,-0.393391 1.447595,-1.760931 0.47,-0.156 z m 1.988,-1.824 c -1.899934,-1.050967 1.710827,-1.322131 0,0 z m -0.682,-0.285 c -1.031977,2.048023 -0.907194,-1.924379 0,0 z m -3.291,3.196 c -0.342498,-2.056665 2.476362,-0.278199 0,0 z m -0.939,1.618 c -1.103902,-0.643248 1.000146,-1.262284 0,0 z m -1.989,2.291 c -1.254574,-3.48047 -2.762292,-6.934077 -5.03,-9.884 2.257147,1.179651 4.896557,1.354655 7.395,1.161 -1.241214,1.95291 -3.615012,4.101034 -2.549219,6.639266 0.531966,1.314118 4.756596,3.170011 1.219219,2.351734 -0.06421,-0.3501 -0.991098,0.09671 -1.035,-0.268 z m 0.381,47.174 C 31.793695,78.430886 36.18197,76.818948 35.958375,74.967625 38.51867,66.961969 38.337863,58.405232 37.797,50.106 37.277892,43.955339 36.097849,37.838711 34.042,32.011 c 0.75927,0.437945 2.856067,0.57772 2.362,1.068625 0.58757,-0.741782 3.220851,0.419734 0.919,-0.317625 -0.564885,-0.309766 -0.377951,-2.022277 -1.213,-2.857 0.33657,-1.928536 2.747293,-2.108346 3.893,-3.365 0.116711,-2.783176 2.658211,0.874015 2.348719,2.254391 0.378577,1.413333 1.013453,4.040701 -0.822969,1.900484 -1.342546,-1.31546 -0.220779,1.291981 -1.867625,1.389125 -1.431174,0.903425 -1.104633,1.344252 0.227875,0.315 1.236521,-0.994547 1.253623,-2.214068 2.392,-0.544 0.791586,1.271783 2.776092,3.257597 0.553,4.289 -1.669931,0.572159 -2.966452,1.082208 -1.550607,2.559256 2.587077,6.995967 3.857721,14.387949 4.416295,21.804856 0.597225,5.361069 0.493879,10.786678 -0.494657,16.095935 -0.311675,2.152735 -0.172085,4.953996 -3.138982,3.85825 C 39.480501,80.314902 36.812144,80.254084 34.413,79.158 Z m -5.883,26.988 c -2.495084,0.45417 -5.193325,1.13475 -7.675,0.316 -2.32326,-1.71926 -4.00343,-4.17291 -5.779,-6.421 -0.428708,-2.055862 1.31695,-3.846266 2.434205,-5.39025 2.376642,-3.041878 5.592997,-5.382593 7.70692,-8.61875 0.406075,-2.544501 -2.930301,-3.427612 -4.63529,-4.560459 -1.397468,-0.66202 -2.491372,-0.922067 -0.456006,-0.735514 3.496964,0.172585 7.515349,0.352489 10.049171,3.098848 1.005892,2.218468 -1.019695,4.470347 -1.854922,6.482453 -1.08288,2.248808 -2.784848,4.598572 -2.302469,7.214875 0.995358,2.530617 4.240981,2.237508 6.438391,1.855797 1.052988,0.89088 4.224617,-0.649717 2.111,1.24 -1.251512,1.36415 -2.169024,3.04201 -2.866,4.699 -1.048307,0.3052 -2.104805,0.58328 -3.171,0.819 z m -12.732,6.936 c -1.508773,1.79514 -3.243346,-1.62331 -0.681,-0.841 0.314711,0.14476 0.802451,0.40964 0.681,0.841 z m 3.934,1.462 c -1.644468,1.67959 -3.791209,-1.77214 -0.857,-1.195 0.463334,0.15725 1.12646,0.61 0.857,1.195 z m 4.363,0.93 c -1.246486,1.82108 -3.98536,-1.25511 -1.059094,-1.39188 0.659488,0.0694 1.188047,0.73277 1.059094,1.39188 z m 4.54,2.083 c -2.032847,1.20265 -4.128456,-1.21374 -1.617875,-2.34 1.23374,-0.75714 3.492617,1.74404 1.617875,2.34 z m 6.795,-0.525 c -2.232524,2.60224 -5.964523,-0.54939 -2.313187,-2.15617 1.307286,-0.70612 4.034176,0.71896 2.313187,2.15617 z m 1.204,-1.822 c -1.514741,-2.59371 -4.852601,-0.85232 -5.846125,0.82087 -1.530192,-0.86837 -3.454063,-2.3841 -5.188875,-0.78231 -1.419957,-0.0402 -2.317328,-2.78594 -3.858,-0.90156 -1.929815,-0.48303 -3.244936,-1.60786 -5.263937,-1.35291 -1.33831,-2.02873 -3.452446,-0.29566 -5.541063,-1.13309 -3.4579605,-0.008 -6.5912056,1.89111 -9.316,3.854 3.7366544,-2.82864 8.0220826,-5.31865 12.733576,-5.94389 4.627938,0.0863 9.168446,1.95252 13.818299,1.28051 3.059077,-0.90569 4.56261,-4.04778 5.467844,-6.85875 1.180628,-1.7197 2.313498,-5.291957 4.428072,-2.64126 1.672681,0.93192 4.57217,-0.0616 5.648209,0.29039 -0.01817,2.77247 -3.55907,3.95892 -3.07525,7.23841 0.71513,1.50445 0.185158,2.68023 -1.53375,2.57396 -1.444574,0.70361 -1.44184,2.76074 -2.473,3.55563 z m 3.83,-0.682 c -0.797781,2.1517 -4.199342,2.04946 -2.583453,-0.59117 0.403227,-2.04385 4.403362,-3.11353 2.583453,0.59117 z m 5.64,1.004 c -2.642105,0.66166 -4.138807,-4.43846 -0.80075,-3.11675 1.283976,0.36041 2.871776,2.58882 0.80075,3.11675 z m 6.66,1.918 c -3.672199,0.43532 -3.34642,-4.26537 0.273984,-2.88105 1.274414,0.43798 1.283794,2.83236 -0.273984,2.88105 z m 7.415,-0.72 c -3.320102,1.42304 -3.041466,-3.22901 -0.346,-3.399 3.655898,-1.06556 2.713856,2.52097 0.346,3.399 z m 7.733,-5.043 c -0.320146,1.69385 -3.827506,1.0662 -1.738859,-0.63097 0.910718,-1.4929 2.378578,-1.37703 1.738859,0.63097 z m 2.875,-4.321 c 2.281999,-0.73353 1.096381,3.69604 -0.233,1.159 -0.05096,-0.39027 -0.0467,-0.84432 0.233,-1.159 z m 4.744,-2.458 c 2.361135,1.24753 -1.914204,2.78355 -0.95175,0.54975 0.253749,-0.27261 0.589531,-0.4658 0.95175,-0.54975 z m 3.137,0.474 c 1.785283,-0.34232 2.304519,2.11442 0.215,0.828 -0.298379,-0.11926 -0.754312,-0.67347 -0.215,-0.828 z m 4.856,3.147 c -1.553312,-1.06882 -2.513933,-2.0969 -3.594,-3.321 -1.525012,-0.2352 -2.966112,1.30886 -3.922,-0.529 -2.573046,-0.52054 -1.695233,3.99559 -3.931,1.9125 -2.76308,-0.38806 -1.333255,4.62257 -4.107,3.0805 -2.252673,-0.36379 -3.641523,2.09555 -4.166,3.633 -0.806565,-2.39265 -4.096674,-2.09302 -5.902078,-1.10328 -1.69639,0.42297 -1.918467,5.14751 -3.002953,1.99012 -1.405309,-1.99701 -4.927715,-1.78022 -6.385969,0.0282 -0.65532,-0.5583 -2.412324,-4.59401 -4.918,-3.085 -0.566676,-1.63934 2.528161,-4.56623 0.685,-6.733 0.206987,-2.0247 -0.139692,-4.898136 2.744664,-4.13892 1.903106,-1.680637 2.079886,2.81117 3.797283,3.61418 2.883445,3.37604 7.79036,4.25602 11.898053,2.91474 4.212446,-1.01555 8.166778,-2.8696 11.780453,-5.23978 3.934119,-1.87516 9.29921,0.95953 9.858891,5.33359 0.05412,1.81783 2.355026,4.51031 2.456918,5.1446 -1.018079,-1.23849 -2.118253,-2.40956 -3.292262,-3.50141 z"
   style="fill:#414042"
   id="path81" />
	<path
   d="m 28.671,10.912 c 0.223238,1.427313 3.464913,3.484713 1.223625,1.1855 C 28.883056,10.368246 28.473198,7.3853636 30.436,6.171 28.552127,7.0137981 27.448006,9.0079529 28.671,10.912 Z"
   style="fill:#414042"
   id="path83" />
	<path
   d="m 37.499,12.98 c 0.319377,1.182063 0.766609,4.197855 0.867875,1.258625 C 38.84961,13.416749 36.996505,10.829732 37.499,12.98 Z"
   style="fill:#414042"
   id="path85" />
	<path
   d="m 39.823,14.168 c 0.204568,-1.258623 -0.02331,-3.290924 -0.389375,-0.9495 -0.297664,1.114373 1.0221,3.91899 0.389375,0.9495 z"
   style="fill:#414042"
   id="path87" />
	<path
   d="m 36.652,5.341 c 1.185821,1.5737359 0.132015,-0.6413556 -0.808,-0.406 l 0.441,0.136 z"
   style="fill:#414042"
   id="path89" />
	<path
   d="M 39.253,5.149 C 40.98301,4.8490217 38.589895,4.5782939 38.639,5.783 l 0.297,-0.344 z"
   style="fill:#414042"
   id="path91" />
	<path
   d="M 24.093,11.311 C 22.822496,9.5009136 25.821723,4.5011895 27.818625,6.17525 28.241565,8.2167181 26.604606,12.075032 24.027,10.95 c 2.80826,1.662211 5.854297,-5.116693 2.628,-5.466 -1.679414,1.1090491 -3.947025,3.8379133 -2.562,5.827 z"
   style="fill:#414042"
   id="path93" />
	<path
   d="m 22.452,21.408 c 0.415526,0.855399 0.577548,1.042898 0.074,0.073 1.597624,2.414467 5.321445,0.947512 5.233266,-1.778312 0.380093,-1.980249 -0.07593,-5.702115 -2.807266,-5.280688 -2.039733,1.225822 -2.483537,3.973704 -2.664391,6.164719 0.129223,0.675345 -0.07906,0.599544 0.164391,0.821281 z m -0.045,-0.469 c 0.042,-2.186461 0.604326,-4.704693 2.284766,-6.225109 2.553581,-1.016371 3.379217,2.761797 3.010859,4.618109 0.302523,2.451022 -2.947246,4.546761 -4.75,2.46025 L 22.514,21.438 Z"
   style="fill:#414042"
   id="path95" />
	<path
   d="m 20.998,26.15 c -0.711404,-3.688062 -3.919074,-0.847698 -4.607225,1.227576 -1.269264,1.715187 -0.968547,6.126729 -1.198994,6.410971 -1.15223,-1.926566 0.935604,2.927424 2.61584,1.273676 2.374,-1.102902 5.147572,-3.57741 4.094598,-6.479069 C 21.666442,27.750819 21.382767,26.925998 20.998,26.15 Z m 0.998,4.187 c -0.557047,2.388913 -3.053935,4.833594 -5.606703,4.640094 -1.888099,-1.327695 -0.776626,-4.398815 -0.347654,-6.327127 0.559647,-1.530384 2.416871,-5.460217 4.177482,-3.686092 0.820139,1.684391 1.81376,3.444916 1.776875,5.373125 z"
   style="fill:#414042"
   id="path97" />
	<path
   d="m 26.188,37.582 c -1.335411,-2.640483 -4.556035,-0.744358 -4.766842,1.608264 -1.133914,2.285314 0.586381,4.40492 2.323842,5.717736 1.921674,0.75672 2.799268,-1.568564 2.737544,-3.109024 C 26.595107,40.363969 27.212331,38.857297 26.188,37.582 Z m 0.437,2.018 c -0.335714,1.466876 -0.170491,3.071206 -0.792719,4.444125 -1.655676,2.269097 -4.074941,-0.770989 -4.649906,-2.4195 -0.107037,-1.981789 0.685607,-4.938141 2.977906,-5.239516 1.505631,0.05295 2.551341,1.849194 2.464719,3.214891 z"
   style="fill:#414042"
   id="path99" />
	<path
   d="m 31.684,35.458 c 1.688266,-3.016532 -0.03649,-6.60421 -1.593,-9.305 -0.764379,-1.84351 -2.736943,-2.735896 -3.247,-0.169 -1.930822,3.45128 -1.8435,8.782133 1.944,10.928 -1.765523,-0.104773 1.555155,0.393835 0.189,0.029 1.045522,-0.114287 2.09876,-0.596093 2.707,-1.483 z m -1.609,1.101 c -2.722652,0.978606 -4.20629,-3.153931 -4.274164,-5.338207 -0.0065,-2.327177 0.721043,-5.530567 2.562164,-6.785793 2.367429,2.186343 3.742396,5.462494 3.900609,8.6605 0.0137,1.453979 -0.81206,2.90768 -2.188609,3.4635 z"
   style="fill:#414042"
   id="path101" />
	<path
   d="m 40.114,35.566 c 2.227612,1.548687 3.909089,-2.741803 1.124563,-3.003453 C 39.78135,32.427839 39.036935,34.692672 40.114,35.566 Z"
   style="fill:#414042"
   id="path103" />
	<path
   d="M 33.92,12.926 C 36.19333,12.589916 37.672665,9.5363671 36.240061,7.5777402 34.491135,5.4246894 30.781184,8.5327343 31.828393,10.906912 32.018607,11.92265 32.82706,12.893091 33.92,12.926 Z M 32.979,7.845 C 34.589271,5.7929859 35.102761,9.137567 35.361625,9.086625 35.886749,8.075715 35.88747,6.7812329 36.409,8.58 35.638907,9.3568606 34.331608,9.7817418 36.296375,9.902625 37.284836,10.499713 35.041262,11.820831 35.131125,9.8415 34.994614,8.7122702 34.251887,11.79175 35.32,12.012 33.379135,13.61806 34.522263,9.4347205 34.858078,9.3215156 32.568512,8.7869729 33.429254,14.221001 32.139,11.173 32.205366,9.6069445 34.404342,8.8199069 35.049172,9.1514531 35.231027,6.9513564 31.578805,8.8530252 32.979,7.845 Z"
   style="fill:#414042"
   id="path105" />
	<path
   d="m 39.754,9.806 c 0.437266,2.641939 4.529454,2.50818 3.596926,-0.5548535 C 43.355513,5.5721984 38.499859,6.1745494 39.754,9.806 Z m 0.388,-2.259 c 1.273649,-1.908685 2.064389,0.8992251 2.156,0.958125 0.318283,-1.7260002 1.139753,0.4805831 -0.191,0.232875 0.580093,0.2654235 1.788148,1.292709 0.65425,1.475125 C 41.948512,9.7056795 42.153801,7.8507867 41.851078,9.7770781 41.465343,10.751219 43.484378,12.066514 41.501,11.473 40.607339,10.29375 43.190419,7.5123953 40.802297,9.3087969 39.912709,11.920473 39.531764,8.0191514 41.609031,8.4811875 43.08725,9.2112238 40.871528,6.4336246 40.142,7.547 Z"
   style="fill:#414042"
   id="path107" />
	<path
   d="m 42.268,26.148 c 0.248825,0.417469 -0.187322,-0.417291 0,0 z"
   style="fill:#414042"
   id="path109" />
	<path
   d="m 40.861,24.704 c -0.172803,-0.08019 0.277459,0.423313 0,0 z"
   style="fill:#414042"
   id="path111" />
	<path
   d="m 44.023,26.641 c -0.391458,0.0324 0.357322,0.215079 0,0 z"
   style="fill:#414042"
   id="path113" />
	<path
   d="m 39.827,24.842 c 0.0032,0.648454 0.233868,-0.582473 0,0 z"
   style="fill:#414042"
   id="path115" />
	<path
   d="m 38.97,26.46 c -0.004,0.206069 0.422634,-0.216655 0,0 z"
   style="fill:#414042"
   id="path117" />
	<path
   d="m 37.475,27.663 c 0.01882,-0.06823 0.06883,-0.04779 0,0 z"
   style="fill:#414042"
   id="path119" />
	<path
   d="m 42.414,107.811 c 0.09346,1.54741 0.90747,-1.28293 0,0 z"
   style="fill:#414042"
   id="path121" />
	<path
   d="m 39.051,114.242 c -0.537623,1.11685 1.097827,-0.5934 0,0 z"
   style="fill:#414042"
   id="path123" />
	<path
   d="m 45.47,113.747 c -1.168636,-0.41315 0.705615,1.02633 0,0 z"
   style="fill:#414042"
   id="path125" />
	<path
   d="m 51.713,115.662 c 0.08595,-0.69053 -0.610186,0.9937 0.253,0.174 -0.08751,-0.16221 -0.597032,0.0841 -0.253,-0.174 z"
   style="fill:#414042"
   id="path127" />
	<path
   d="m 59.791,115.185 c 0.255757,-0.72036 -0.656205,0.99423 0.261375,0.0735 0.03308,-0.0657 -0.705757,0.3553 -0.261375,-0.0735 z"
   style="fill:#414042"
   id="path129" />
	<path
   d="m 34.093,116.147 c -1.68984,0.29376 0.568252,0.72688 0,0 z"
   style="fill:#414042"
   id="path131" />
	<path
   d="m 66.893,111.593 c -1.238821,0.7971 1.361529,0.0901 0,0 z"
   style="fill:#414042"
   id="path133" />
	<path
   d="m 71.35,108.593 c 1.081812,-0.88658 -0.760189,0.12908 0,0 z"
   style="fill:#414042"
   id="path135" />
	<path
   d="m 75.166,106.07 c 1.232776,-0.26145 -0.705599,-0.23427 0,0 z"
   style="fill:#414042"
   id="path137" />
	<path
   d="m 79.454,106.061 c 1.049721,0.13918 -0.54207,-0.44717 0,0 z"
   style="fill:#414042"
   id="path139" />
	<path
   d="m 27.384,116.387 c -1.328756,0.62068 2.117251,0.36544 0.008,-0.001 z"
   style="fill:#414042"
   id="path141" />
	<path
   d="m 23.039,115.028 c -1.494081,0.046 1.146675,0.70707 0,0 z"
   style="fill:#414042"
   id="path143" />
	<path
   d="m 18.55,113.926 c -1.048183,0.0787 0.820722,0.45207 0,0 z"
   style="fill:#414042"
   id="path145" />
	<path
   d="m 14.828,112.762 c -0.875905,-0.004 0.659942,0.45662 0,0 z"
   style="fill:#414042"
   id="path147" />
</g>
</svg>
