<?xml version="1.0" encoding="UTF-8"?>
<svg width="36.542pt" height="90pt" version="1.0" viewBox="0 0 36.542 90" xmlns="http://www.w3.org/2000/svg" xmlns:cc="http://creativecommons.org/ns#" xmlns:dc="http://purl.org/dc/elements/1.1/" xmlns:rdf="http://www.w3.org/1999/02/22-rdf-syntax-ns#">
 <metadata>Created by potrace 1.16, written by Peter Selinger 2001-2019
  <rdf:RDF>
   <cc:Work rdf:about="">
    <dc:format>image/svg+xml</dc:format>
    <dc:type rdf:resource="http://purl.org/dc/dcmitype/StillImage"/>
    <dc:title/>
   </cc:Work>
  </rdf:RDF>
 </metadata>
 <g>
  <path d="m8.0994 81.821-1.1571 4.7109 3.0579 3.0579 2.6447 0.08265 4.215-1.7356 5.0415-6.4465 1.5703-10.992-0.16529-5.8679 6.2812-3.9671 3.3059-6.1985 2.8926-10.414-2.1488-12.066-4.4629-7.8515-5.0415-4.215 1.2397-5.7853 2.0662-6.0332-2.0662-6.3638-2.9024-1.4726-3.7402 1.0958-1.7386 4.7629 3.3019-2.1769 1.2711-0.04383 1.8116 4.0324-3.0681 3.6525-2.2792-1.0958-3.3019 0.84738-1.4902 7.2174-1.724 1.5487-7.4511 7.0421-3.0389 13.091 2.1039 12.769 4.6752 7.1005 3.185 3.185-0.11688 6.0778 2.2207 1.2272 3.3019 0.11688 1.1688 7.5388-2.9512 5.9901-2.4253 1.1688-1.987-1.4318-0.70128-3.2434z" fill="#fff"/>
  <ellipse cx="6.5161" cy="38.95" rx="3.711" ry="4.0908" fill="#ffecff"/>
  <ellipse cx="29.279" cy="38.834" rx="3.711" ry="4.0908" fill="#ffecff"/>
 </g>
 <g transform="matrix(.011513 0 0 -.011513 -22.58 108.19)">
  <path d="m3700 9385c-160-44-247-126-295-276-27-88-31-166-15-284 16-112 9-105 106-105 59 0 86 4 88 13 11 45 52 167 64 192 8 17 35 51 60 77l45 47 27-19c15-11 45-52 66-92 36-67 39-79 39-153 0-103-21-148-113-238l-69-68-76 15c-203 42-365 3-471-115-36-40-52-71-83-162l-38-112 1-160c1-88 3-171 5-184 4-21-4-27-65-52-372-152-681-503-864-984-171-450-199-1061-71-1568 82-327 219-621 405-867 79-105 261-287 339-340 28-18 52-35 54-36 2-2-6-19-17-38-29-49-72-235-72-309 0-81 14-127 53-179 73-97 196-143 409-156l123-7 17-51c41-124 59-362 38-509-26-177-58-285-114-384-61-107-151-217-199-243-118-63-172 61-133 305 19 115 89 262 147 309 21 17 39 37 39 44 0 17-79 28-132 20-52-8-165-82-239-156-124-124-236-310-273-456-20-77-20-174-1-236 15-51 78-150 116-184 79-69 199-104 355-104 262 0 404 58 656 268 116 97 185 188 271 358 79 155 105 234 169 507 27 113 32 157 36 310 4 160-9 527-24 668l-6 56 62 23c79 30 225 117 312 186 591 474 847 1441 623 2354-138 560-425 1006-815 1267-47 32-80 61-84 75-10 38-7 224 5 280 13 63 70 180 135 279 48 74 99 206 114 294 5 28 9 106 9 175 1 114-2 137-34 254-47 171-103 285-177 357-84 84-137 102-313 106-101 2-155-2-195-12zm261-49c100-47 194-209 249-426 31-119 32-132 27-270-4-130-8-155-37-240-37-107-48-131-89-192-56-83-113-199-128-261-17-69-21-192-9-280l7-57 102-67c129-84 201-146 295-253 287-328 472-753 550-1263 22-144 24-596 3-732-64-428-205-784-419-1061-165-213-414-402-577-439l-50-12v-54c0-30 7-173 14-319 16-310 11-535-13-635-50-206-88-350-102-393-33-97-144-300-204-375-56-70-203-204-268-244-15-9-38-26-52-38s-67-39-119-60c-89-35-100-37-181-33-105 5-159 32-222 111-107 135-115 277-27 480 17 40 35 76 39 80s5-25 2-65c-6-105 12-181 53-222 75-75 274-89 400-27 51 25 77 48 128 109 62 75 133 186 170 266 29 64 68 281 74 411 8 171-22 375-68 467l-19 38 39 19c144 74 191 327 80 433-56 54-143 78-273 77-103-1-182-16-175-34 2-6 49-10 109-10 115-1 154-14 191-65 31-42 44-130 29-201-20-92-61-147-140-186-120-60-244-39-341 57-68 67-84 116-76 223 6 83 41 225 68 279 11 21 19 39 19 42 0 2-37 33-82 69-405 317-687 858-774 1487-24 174-25 539-1 710 87 622 368 1131 772 1397 78 52 217 120 264 129 17 4 33 10 36 14 2 3-2 28-10 55-22 72-20 263 4 356 44 171 84 239 174 297 46 30 58 33 101 28 59-6 116-39 176-101l45-46v-117c0-114-1-119-35-187-43-84-61-98-110-82-50 17-69 62-69 162 0 44 3 97 8 117l9 37-45 7c-44 6-120 1-130-10-11-10-22-92-22-156-1-98 41-179 114-218 23-12 57-16 140-16 105 0 113 1 165 30 98 55 144 140 157 290 8 97-2 138-43 184-42 47-46 38 76 171 108 118 134 174 128 278-4 62-11 88-37 138-69 130-139 168-295 161-59-2-103-10-125-21-19-9-36-16-38-14-4 5 21 77 43 118 41 81 89 123 182 160 54 22 111 20 163-5z"/>
  <path d="m2927 7289c-156-37-293-215-327-424-32-194-3-365 77-463 48-59 102-84 177-84 79 1 140 28 213 96 117 108 175 266 176 476 1 158-20 238-84 320-49 63-152 99-232 79z"/>
  <path d="m4015 7235c-94-36-148-130-149-260-1-111 28-197 103-311 190-288 471-350 575-125 17 38 21 64 21 146-1 85-5 110-27 163-42 102-88 172-168 253-122 125-251 173-355 134z"/>
  <path d="m4417 6272c-113-33-174-117-184-254-9-117 30-204 106-235 47-20 175-14 212 10 62 41 90 151 49 195-17 18-32 22-84 22-34 0-65-3-69-6-3-4 1-17 10-30 31-47-4-155-40-125-39 32-47 193-14 272 23 56 65 99 97 99 97 0 132-37 140-145l5-70 52-3c79-5 93 7 93 77 0 47-5 66-29 102-35 52-73 77-149 95-74 17-124 16-195-4z"/>
  <path d="m2418 6250c-85-46-131-146-108-240 15-60 59-129 98-152 39-24 136-48 189-48 57 0 122 27 133 56 12 30-5 86-36 124-26 31-102 60-156 60-36 0-35-11 2-38 35-26 57-91 40-122-36-68-130 40-130 149 0 45 29 108 63 140 38 34 89 23 112-24 19-41 13-55-21-55-13 0-24-4-24-9 0-22 115-43 164-30 30 8 36 14 36 38 0 46-54 109-118 139-78 35-191 41-244 12z"/>
  <path d="m2913 5870c-104-63-90-165 35-260 287-218 723-250 1057-77 43 23 99 60 122 83 40 37 43 45 43 91 0 57-22 93-73 119-44 23-91 13-168-35-249-156-611-140-835 37-88 69-123 78-181 42z"/>
 </g>
</svg>
