<?xml version="1.0" encoding="UTF-8"?>
<svg width="83" height="100.88" version="1.1" xmlns="http://www.w3.org/2000/svg" xmlns:cc="http://creativecommons.org/ns#" xmlns:dc="http://purl.org/dc/elements/1.1/" xmlns:rdf="http://www.w3.org/1999/02/22-rdf-syntax-ns#">
 <metadata>
  <rdf:RDF>
   <cc:Work rdf:about="">
    <dc:format>image/svg+xml</dc:format>
    <dc:type rdf:resource="http://purl.org/dc/dcmitype/StillImage"/>
    <dc:title/>
   </cc:Work>
  </rdf:RDF>
 </metadata>
 <path d="m26.523 100.47c-5.96e-4 -0.22539 0.60775-9.9971 1.3518-21.715 0.74403-11.718 1.2938-21.325 1.2217-21.349-0.07212-0.02404-0.65833-0.34415-1.3027-0.71136-1.4263-0.81281-1.3226-0.81338-1.6367 0.0091-0.48738 1.2762-0.47068 2.2327 0.06505 3.7256 0.98683 2.7499 0.4356 3.0958-1.7201 1.0793l-0.92911-0.86914-0.68456 0.78256c-1.3963 1.5962-1.7288 2.4919-1.7288 4.6576 0 2.3297-0.44644 3.1463-1.2111 2.2154-0.20176-0.24562-1.4517-1.0923-1.6121-1.092-0.04542 8.8e-5 -0.08477 0.72094-0.08745 1.6019-0.0078 2.5782-1.4868 5.2525-2.9047 5.2525-0.49004 0-0.5156-0.06149-0.66527-1.6004-0.13615-1.3999-0.33011-1.8052-1.4139-2.9541-1.1169-1.1841-1.5949-2.045-1.7362-3.1268-0.22974-1.7592-1.3963-1.3215-1.3963 0.52392 0 0.68831-0.04607 0.70791-0.71089 0.30257-1.4427-0.87963-2.3167-3.8882-1.8125-6.2393 0.18974-0.88471 0.0034646-1.3539-0.82699-2.083-0.95092-0.83492-1.3474-0.63755-1.4523 0.72294-0.13093 1.6976-1.903-0.42223-2.9272-3.5018-2.0994-6.3124 0.64927-13.283 6.4409-16.334l1.0223-0.5385-0.89086-0.54117c-9.2102-5.5949-7.5286-19.772 2.7418-23.115 0.76368-0.24858 0.76475-0.24982 0.86562-1.0102 1.1752-8.8592 17.706-16.806 27.656-13.296 0.58071 0.20489 0.65025 0.19653 1.3607-0.16349 7.5515-3.8266 22.731 3.201 29.381 13.603 0.45897 0.71784 0.72733 0.97798 1.2014 1.1646 9.2854 3.6552 10.682 17.013 2.3527 22.499l-0.64188 0.42274 1.3154 0.68233c6.0697 3.1485 8.8768 10.022 6.7296 16.478-1.0242 3.0796-2.7963 5.1994-2.9272 3.5018-0.10493-1.3605-0.50141-1.5579-1.4523-0.72294-0.83046 0.72915-1.0167 1.1983-0.82699 2.083 0.50422 2.3511-0.36975 5.3597-1.8125 6.2393-0.66482 0.40534-0.71089 0.38574-0.71089-0.30257 0-1.8454-1.1666-2.2831-1.3963-0.52392-0.14128 1.0818-0.61929 1.9427-1.7362 3.1268-1.0838 1.1489-1.2777 1.5542-1.4139 2.9541-0.14967 1.5389-0.17523 1.6004-0.66527 1.6004-1.418 0-2.8969-2.6743-2.9047-5.2525-0.0027-0.88095-0.04202-1.6018-0.08745-1.6019-0.16038-2.98e-4 -1.4103 0.84636-1.612 1.092-0.76467 0.93089-1.2111 0.11425-1.2111-2.2154 0-2.1657-0.33246-3.0614-1.7288-4.6576l-0.68456-0.78256-0.92911 0.86914c-2.1557 2.0165-2.7069 1.6706-1.7201-1.0793 0.57208-1.5942 0.55466-2.4643-0.08182-4.0866l-0.40479-1.0317-0.988 0.63257c-0.5434 0.34791-1.34 0.82752-1.7702 1.0658-0.43449 0.24066-0.78223 0.53872-0.78232 0.67054-1.34e-4 0.21046 0.30064 4.9632 1.7154 27.106 0.20683 3.2373 0.50895 7.9421 0.67137 10.455 0.16242 2.513 0.29531 4.8431 0.29531 5.1782v0.60917h-30.25l-1e-3 -0.40978zm18.106-11.576c6.2026-0.30225 10.737-2.5584 8.8777-4.4174-0.57877-0.57877-1.103-0.56209-2.3582 0.07504-4.7169 2.3942-15.73 2.0382-19.219-0.62116-1.5421-1.1752-3.1998 0.59334-1.9023 2.0295 1.6391 1.8143 7.8285 3.3297 12.441 3.046 0.28685-0.01764 1.2592-0.06801 2.1607-0.11195zm0.07451-31.543c8.6115-0.97621 16.53-7.0323 19.904-15.223 0.68613-1.6656 0.69698-1.6285-0.56401-1.9327-7.3276-1.7679-11.551-10.111-8.7062-17.197l0.48858-1.2168-2.2907-1.0834c-4.3769-2.07-9.0526-4.8549-11.704-6.9707l-1.1585-0.92462-0.64437 0.44334c-2.357 1.6217-8.2034 3.9646-13.379 5.3616l-1.4391 0.38843 0.73782 0.96858c5.503 7.2241 1.9978 17.642-6.7914 20.185-0.73261 0.21198-1.3537 0.40705-1.3801 0.4335-0.11391 0.11391 1.0846 2.8238 1.8462 4.1742 5.0611 8.9747 14.628 13.778 25.081 12.593zm-25.556-19.106c7.8285-2.5638 10.158-12.393 4.3192-18.227-6.9152-6.9099-18.699-2.0131-18.699 7.7706 0 7.4177 7.3464 12.76 14.38 10.456zm-4.9508-3.1565c-3.5887-0.77977-6.3135-4.3963-5.9306-7.8717 0.71214-6.4653 8.2323-9.2538 12.756-4.73 5.237 5.237 0.39796 14.171-6.8254 12.602zm56.494 3.1464c7.8162-2.6615 10.134-12.392 4.3336-18.192-6.951-6.951-18.685-2.0996-18.712 7.7365-0.02035 7.448 7.3886 12.836 14.378 10.456zm-5.0868-3.1374c-5.671-1.2899-7.7546-8.4836-3.6471-12.591 4.3664-4.3664 11.792-1.9228 12.722 4.1866 0.77918 5.117-4.0136 9.5557-9.0748 8.4045z" stroke-width=".14901"/>
</svg>
