<?xml version="1.0" encoding="UTF-8"?>
<svg width="306.69pt" height="90pt" version="1.0" viewBox="0 0 306.69 90" xmlns="http://www.w3.org/2000/svg" xmlns:cc="http://creativecommons.org/ns#" xmlns:dc="http://purl.org/dc/elements/1.1/" xmlns:rdf="http://www.w3.org/1999/02/22-rdf-syntax-ns#">
 <metadata>
  <rdf:RDF>
   <cc:Work rdf:about="">
    <dc:format>image/svg+xml</dc:format>
    <dc:type rdf:resource="http://purl.org/dc/dcmitype/StillImage"/>
    <dc:title/>
   </cc:Work>
  </rdf:RDF>
 </metadata>
 <g fill="#fff">
  <ellipse cx="81.126" cy="28.892" rx="15.307" ry="17.794" stroke-width=".75118"/>
  <ellipse cx="41.711" cy="34.632" rx="11.48" ry="10.906" stroke-width=".75118"/>
  <path d="m30.996 85.335h130.11l22.195-16.837 6.888-22.96-10.332-23.726-28.7-13.393-31.379 6.5054-96.815 41.711z"/>
 </g>
 <g transform="matrix(.048422 0 0 -.048422 -27.624 274.88)">
  <path d="m2173 5670c-155-33-293-176-349-365-21-69-25-257-7-318 10-33 9-38-7-47-27-14-28-14-35 33-18 104-105 235-198 294-87 55-226 59-312 9-77-46-139-130-165-225-26-98-6-265 41-346l19-32-57-24c-105-42-303-147-358-189-110-85-166-177-173-286-4-61-1-80 20-125 48-103 155-180 299-214 94-22 2781-23 2886-1 404 85 712 380 782 749 20 103 37 124 109 134 67 9 94-10 192-132 124-157 189-204 306-226 79-15 139-8 202 24 76 38 113 71 200 176 95 115 176 191 205 191 41 0 84-38 158-136 89-119 177-214 242-261 107-79 304-83 430-10 48 28 176 166 203 219 45 87 96 245 98 301 1 54-1 61-32 88-71 63-159 25-186-81-46-179-149-332-237-351-117-27-175 10-319 201-135 178-238 260-327 260-114-1-211-57-323-187-182-211-203-228-272-217-54 9-104 55-209 190-43 56-93 114-110 129-100 84-199 96-329 41-11-4-22 12-43 69-39 104-112 209-210 301-211 199-474 285-803 262-159-11-259-40-579-172-115-47-214-86-220-86s-20 26-32 58c-30 75-116 187-176 228-95 65-225 95-324 74zm162-243c121-68 186-281 137-443-79-256-335-224-407 51-30 119-13 246 46 332 55 80 146 104 224 60zm1463-33c163-33 319-117 427-229 379-395 141-1018-444-1164-84-21-99-21-1269-21-1124 0-1184 1-1177 18 81 184 51 365-80 495-15 15-25 30-22 33s153 66 333 140l327 134 16-23c80-116 208-195 333-204 257-19 460 194 481 506l5 63 253 104c221 91 362 137 479 157 66 11 266 6 338-9zm-2294-288c46-35 100-143 100-204l1-46-125-52c-69-29-131-53-138-53-7-1-25 25-40 57-35 73-38 194-8 256 40 80 136 99 210 42z"/>
  <path d="m1782 4654c-97-68-56-304 53-304 85 0 137 115 105 232-20 72-103 111-158 72z"/>
  <path d="m2215 4369c-70-45-137-63-259-68-99-5-121-9-130-23-8-13-8-23 0-35 16-25 200-30 287-8 89 23 187 80 187 108 0 48-35 58-85 26z"/>
  <path d="m1832 4138c-15-15-16-55 0-64 11-7 224-45 237-42 3 1 50-2 103-6 119-10 148-4 148 28 0 33-22 47-77 51-104 5-222 18-302 31-101 17-94 17-109 2z"/>
 </g>
</svg>
