<?xml version="1.0" encoding="UTF-8" standalone="no"?>
<svg xmlns:xlink="http://www.w3.org/1999/xlink" height="51.15px" width="33.35px" xmlns="http://www.w3.org/2000/svg">
  <g transform="matrix(1.0, 0.0, 0.0, 1.0, 16.65, 25.6)">
    <path d="M-10.75 -18.1 Q-8.7 -17.05 -6.95 -15.25 L-5.6 -13.6 Q-6.9 -15.0 -10.55 -17.2 L-10.5 -16.95 -14.55 -17.95 -12.9 -10.4 Q-12.15 -7.85 -10.65 -6.8 -9.5 -5.95 -7.4 -5.9 -5.35 -5.9 -2.65 -6.9 L-0.75 -7.8 Q0.1 -9.8 0.1 -11.7 0.15 -15.15 -2.7 -18.25 -4.75 -20.5 -7.75 -22.1 L-6.7 -17.85 -11.05 -19.9 -10.75 -18.1 M14.85 17.0 Q16.15 21.75 16.7 25.25 L14.85 25.55 14.05 21.65 12.4 15.3 Q11.35 14.35 9.35 13.45 L7.5 12.7 11.35 12.15 Q6.75 -0.85 -0.2 -5.8 -4.0 -3.9 -7.4 -3.9 L-7.6 -3.9 Q-10.05 -3.9 -11.9 -5.25 -14.1 -6.8 -14.85 -9.9 -16.65 -16.8 -16.65 -19.0 L-16.6 -19.55 -16.3 -20.5 -13.05 -19.65 -13.8 -23.35 -9.65 -21.4 -10.65 -25.6 -8.85 -24.85 -7.15 -24.05 Q-5.15 -23.0 -3.45 -21.65 2.05 -17.4 2.1 -11.7 2.1 -9.5 1.15 -7.15 4.0 -5.05 6.6 -1.5 L9.5 -5.3 8.9 -3.1 Q8.3 -0.6 8.2 0.9 12.2 7.45 14.85 17.0" fill="#000000" fill-rule="evenodd" stroke="none"/>
    <path d="M-6.95 -15.25 Q-8.7 -17.05 -10.75 -18.1 L-11.05 -19.9 -6.7 -17.85 -7.75 -22.1 Q-4.75 -20.5 -2.7 -18.25 0.15 -15.15 0.1 -11.7 0.1 -9.8 -0.75 -7.8 L-2.65 -6.9 Q-5.35 -5.9 -7.4 -5.9 -9.5 -5.95 -10.65 -6.8 -12.15 -7.85 -12.9 -10.4 L-14.55 -17.95 -10.5 -16.95 -10.55 -17.2 Q-6.9 -15.0 -5.6 -13.6 L-6.95 -15.25" fill="#ffffff" fill-rule="evenodd" stroke="none"/>
  </g>
</svg>
