<?xml version="1.0" encoding="UTF-8" standalone="no"?>
<svg xmlns:xlink="http://www.w3.org/1999/xlink" height="29.9px" width="43.75px" xmlns="http://www.w3.org/2000/svg">
  <g transform="matrix(1.0, 0.0, 0.0, 1.0, 21.85, 14.95)">
    <path d="M-11.8 3.7 L-19.0 -3.75 -15.85 -6.8 -11.8 3.7" fill="#ffffff" fill-rule="evenodd" stroke="none"/>
    <path d="M0.55 1.15 L12.25 -8.85 5.75 -11.55 0.55 1.15 M-0.35 4.55 L6.15 12.15 19.05 1.1 12.55 -6.5 -0.35 4.55 M-8.35 7.1 L-6.25 6.3 -6.95 -11.65 -14.5 -8.75 -8.35 7.1 M3.75 -11.95 L-4.95 -11.6 -4.3 5.4 -3.15 5.35 -3.3 5.25 -3.0 4.5 -3.2 4.3 -2.8 4.0 3.75 -11.95 M14.75 -7.05 L15.0 -7.75 13.7 -8.25 14.75 -7.05 M-21.85 -3.8 L-16.65 -8.8 -17.05 -9.9 -14.45 -10.9 -11.75 -13.5 -10.65 -12.4 -4.0 -14.95 -3.5 -13.65 4.6 -14.0 4.7 -14.15 5.05 -14.0 6.95 -14.1 7.0 -13.2 17.6 -8.8 16.2 -5.35 21.9 1.3 5.9 14.95 -0.7 7.25 -3.15 7.35 -7.25 11.3 -9.0 9.5 -9.5 9.7 -9.95 8.5 -21.85 -3.8 M-11.8 3.7 L-15.85 -6.8 -19.0 -3.75 -11.8 3.7" fill="#000000" fill-rule="evenodd" stroke="none"/>
    <path d="M-6.95 -11.65 L-6.25 6.3 -8.35 7.1 -14.5 -8.75 -6.95 -11.65" fill="#ffffff" fill-rule="evenodd" stroke="none"/>
    <path d="M-4.95 -11.6 L3.75 -11.95 -2.8 4.0 -3.2 4.3 -3.0 4.5 -3.3 5.25 -3.15 5.35 -4.3 5.4 -4.95 -11.6" fill="#ffffff" fill-rule="evenodd" stroke="none"/>
    <path d="M14.75 -7.05 L13.7 -8.25 15.0 -7.75 14.75 -7.05" fill="#ffffff" fill-rule="evenodd" stroke="none"/>
    <path d="M5.75 -11.55 L12.25 -8.85 0.55 1.15 5.75 -11.55" fill="#ffffff" fill-rule="evenodd" stroke="none"/>
    <path d="M12.55 -6.5 L19.05 1.1 6.15 12.15 -0.35 4.55 12.55 -6.5" fill="#ffffff" fill-rule="evenodd" stroke="none"/>
  </g>
</svg>
