<?xml version="1.0" encoding="UTF-8" standalone="no"?>
<svg xmlns:xlink="http://www.w3.org/1999/xlink" height="17.7px" width="17.65px" xmlns="http://www.w3.org/2000/svg">
  <g transform="matrix(1.0, 0.0, 0.0, 1.0, 8.8, 8.85)">
    <path d="M4.4 -4.35 Q6.2 -2.55 6.25 0.0 L6.05 1.4 4.65 -0.5 Q3.4 -2.75 1.5 -2.7 L0.0 -2.45 Q-1.2 -2.05 -1.8 -1.05 -2.4 -0.2 -2.35 0.9 L-2.1 2.4 -2.0 3.15 Q-2.0 4.05 -2.55 5.6 -4.15 4.85 -5.1 3.35 -6.1 1.85 -6.15 0.0 -6.1 -2.55 -4.3 -4.35 -2.5 -6.15 0.05 -6.2 2.6 -6.15 4.4 -4.35" fill="#ffffff" fill-rule="evenodd" stroke="none"/>
    <path d="M3.95 -0.1 Q4.6 1.05 5.8 2.25 5.1 4.0 3.55 5.05 2.0 6.15 0.05 6.2 L-1.8 5.9 Q-1.2 4.1 -1.2 3.15 -1.2 2.6 -1.35 2.15 L-1.6 0.9 Q-1.5 -1.1 0.25 -1.7 L1.5 -1.95 Q2.9 -1.9 3.95 -0.1" fill="#ffffff" fill-rule="evenodd" stroke="none"/>
    <path d="M6.25 -6.2 Q8.85 -3.65 8.85 0.0 8.85 3.65 6.25 6.25 3.7 8.8 0.05 8.85 -3.6 8.8 -6.15 6.25 -8.75 3.65 -8.8 0.0 -8.75 -3.65 -6.15 -6.2 -3.6 -8.8 0.05 -8.85 3.7 -8.8 6.25 -6.2 M6.25 0.0 Q6.2 -2.55 4.4 -4.35 2.6 -6.15 0.05 -6.2 -2.5 -6.15 -4.3 -4.35 -6.1 -2.55 -6.15 0.0 -6.1 1.85 -5.1 3.35 -4.15 4.85 -2.55 5.6 -2.0 4.05 -2.0 3.15 L-2.1 2.4 -2.35 0.9 Q-2.4 -0.2 -1.8 -1.05 -1.2 -2.05 0.0 -2.45 L1.5 -2.7 Q3.4 -2.75 4.65 -0.5 L6.05 1.4 6.25 0.0 M3.55 5.05 Q5.1 4.0 5.8 2.25 4.6 1.05 3.95 -0.1 2.9 -1.9 1.5 -1.95 L0.25 -1.7 Q-1.5 -1.1 -1.6 0.9 L-1.35 2.15 Q-1.2 2.6 -1.2 3.15 -1.2 4.1 -1.8 5.9 L0.05 6.2 Q2.0 6.15 3.55 5.05" fill="#000000" fill-rule="evenodd" stroke="none"/>
  </g>
</svg>
