<?xml version="1.0" encoding="UTF-8" standalone="no"?>
<svg xmlns:xlink="http://www.w3.org/1999/xlink" height="51.35px" width="51.35px" xmlns="http://www.w3.org/2000/svg">
  <g transform="matrix(1.0, 0.0, 0.0, 1.0, 25.65, 25.7)">
    <path d="M0.05 -18.6 Q-7.65 -18.55 -13.05 -13.1 -18.5 -7.7 -18.55 0.0 -18.5 7.7 -13.05 13.15 -7.65 18.55 0.05 18.6 7.75 18.55 13.2 13.15 18.6 7.7 18.65 0.0 18.6 -7.7 13.2 -13.1 7.75 -18.55 0.05 -18.6 M-18.1 18.15 Q-25.65 10.65 -25.65 0.0 -25.6 -10.65 -18.1 -18.15 -10.6 -25.7 0.05 -25.7 10.7 -25.7 18.2 -18.15 25.7 -10.65 25.7 0.0 25.7 10.65 18.2 18.15 10.7 25.65 0.05 25.65 -10.6 25.65 -18.1 18.15" fill="#000000" fill-rule="evenodd" stroke="none"/>
    <path d="M11.8 0.5 L16.8 0.5 16.8 -0.5 11.8 -0.5 11.8 0.5 M9.7 -2.95 L9.65 -3.0 -1.35 -0.85 3.7 15.25 5.75 14.6 1.45 0.8 10.1 -0.85 9.7 -2.95 M0.55 16.6 L0.55 11.6 -0.45 11.6 -0.45 16.6 0.55 16.6 M-11.7 0.5 L-11.7 -0.5 -16.7 -0.5 -16.7 0.5 -11.7 0.5 M-0.45 -16.9 L-0.45 -11.9 0.55 -11.9 0.55 -16.9 -0.45 -16.9 M-13.05 -13.1 Q-7.65 -18.55 0.05 -18.6 7.75 -18.55 13.2 -13.1 18.6 -7.7 18.65 0.0 18.6 7.7 13.2 13.15 7.75 18.55 0.05 18.6 -7.65 18.55 -13.05 13.15 -18.5 7.7 -18.55 0.0 -18.5 -7.7 -13.05 -13.1" fill="#ffffff" fill-rule="evenodd" stroke="none"/>
    <path d="M5.75 14.6 L3.7 15.25 -1.35 -0.85 9.65 -3.0 9.7 -2.95 10.1 -0.85 1.45 0.8 5.75 14.6" fill="#000000" fill-rule="evenodd" stroke="none"/>
    <path d="M0.55 -16.9 L0.55 -11.9 -0.45 -11.9 -0.45 -16.9 0.55 -16.9" fill="#000000" fill-rule="evenodd" stroke="none"/>
    <path d="M-0.45 16.6 L-0.45 11.6 0.55 11.6 0.55 16.6 -0.45 16.6" fill="#000000" fill-rule="evenodd" stroke="none"/>
    <path d="M11.8 0.5 L11.8 -0.5 16.8 -0.5 16.8 0.5 11.8 0.5" fill="#000000" fill-rule="evenodd" stroke="none"/>
    <path d="M-16.7 0.5 L-16.7 -0.5 -11.7 -0.5 -11.7 0.5 -16.7 0.5" fill="#000000" fill-rule="evenodd" stroke="none"/>
  </g>
</svg>
