<?xml version="1.0" encoding="UTF-8" standalone="no"?>
<svg xmlns:xlink="http://www.w3.org/1999/xlink" height="47.05px" width="61.55px" xmlns="http://www.w3.org/2000/svg">
  <g transform="matrix(1.0, 0.0, 0.0, 1.0, 30.75, 23.55)">
    <path d="M4.9 12.05 Q6.85 11.15 8.0 9.95 L6.1 7.6 Q2.95 10.05 0.35 10.5 L-2.4 10.2 -1.2 7.1 -6.4 9.35 -4.25 15.1 -3.25 12.45 Q0.95 13.85 4.9 12.05 M9.15 -0.7 L5.85 -0.2 10.35 3.2 14.35 -1.5 11.55 -1.05 Q10.65 -5.35 7.15 -7.9 L3.8 -9.6 2.65 -6.8 Q6.35 -5.25 8.05 -3.2 9.1 -1.9 9.15 -0.7 M-17.1 19.5 L-24.65 -14.4 24.45 -14.4 16.1 19.5 -17.1 19.5 M-8.2 4.2 Q-9.05 0.25 -8.25 -2.3 -7.8 -3.85 -6.85 -4.6 L-4.55 -2.15 -4.3 -7.85 -10.45 -8.4 -8.5 -6.35 Q-11.55 -3.2 -11.65 1.15 -11.7 3.3 -11.15 4.85 L-8.2 4.2" fill="#ffffff" fill-rule="evenodd" stroke="none"/>
    <path d="M-24.85 -15.4 L-25.75 -19.55 25.7 -19.55 24.7 -15.4 -24.85 -15.4" fill="#ffffff" fill-rule="evenodd" stroke="none"/>
    <path d="M-20.3 23.5 L-30.75 -23.55 30.8 -23.55 19.25 23.5 -20.3 23.5 M-24.65 -14.4 L-17.1 19.5 16.1 19.5 24.45 -14.4 -24.65 -14.4 M-25.75 -19.55 L-24.85 -15.4 24.7 -15.4 25.7 -19.55 -25.75 -19.55" fill="#000000" fill-rule="evenodd" stroke="none"/>
    <path d="M-8.25 -2.3 Q-9.05 0.25 -8.2 4.2 L-11.15 4.85 Q-11.7 3.3 -11.65 1.15 -11.55 -3.2 -8.5 -6.35 L-10.45 -8.4 -4.3 -7.85 -4.55 -2.15 -6.85 -4.6 Q-7.8 -3.85 -8.25 -2.3" fill="#000000" fill-rule="evenodd" stroke="none"/>
    <path d="M3.8 -9.6 L7.15 -7.9 Q10.65 -5.35 11.55 -1.05 L14.35 -1.5 10.35 3.2 5.85 -0.2 9.15 -0.7 Q9.1 -1.9 8.05 -3.2 6.35 -5.25 2.65 -6.8 L3.8 -9.6" fill="#000000" fill-rule="evenodd" stroke="none"/>
    <path d="M6.1 7.6 L8.0 9.95 Q6.85 11.15 4.9 12.05 0.95 13.85 -3.25 12.45 L-4.25 15.1 -6.4 9.35 -1.2 7.1 -2.4 10.2 0.35 10.5 Q2.95 10.05 6.1 7.6" fill="#000000" fill-rule="evenodd" stroke="none"/>
  </g>
</svg>
