<?xml version="1.0" encoding="UTF-8" standalone="no"?>
<svg xmlns:xlink="http://www.w3.org/1999/xlink" height="135.8px" width="135.1px" xmlns="http://www.w3.org/2000/svg">
  <g transform="matrix(1.0, 0.0, 0.0, 1.0, 67.55, 67.9)">
    <path d="M-2.0 37.5 L-2.0 59.3 24.35 59.3 Q24.15 47.75 23.45 37.5 L-2.0 37.5 M-2.0 -30.9 L11.55 -30.9 Q5.6 -49.65 -2.0 -61.25 L-2.0 -30.9 M-39.35 4.9 Q-42.0 18.0 -43.4 34.4 L-29.05 34.4 Q-28.55 18.95 -27.05 4.9 L-39.35 4.9 M-29.4 51.95 L-29.15 37.5 -43.65 37.5 Q-44.45 48.15 -44.65 59.3 L-29.3 59.3 -29.4 51.95 M-5.1 37.5 L-26.05 37.5 -26.25 51.95 -26.2 59.3 -5.1 59.3 -5.1 37.5 M-46.8 37.5 L-56.85 37.5 Q-57.85 47.55 -58.0 59.3 L-47.8 59.3 Q-47.6 48.25 -46.8 37.5 M-42.55 4.9 L-51.6 4.9 Q-54.95 19.2 -56.55 34.4 L-46.55 34.4 Q-45.3 18.95 -42.55 4.9 M-40.55 -27.75 L-40.85 -27.15 Q-46.8 -14.15 -50.85 1.75 L-41.95 1.75 Q-38.45 -14.85 -33.2 -27.75 L-40.55 -27.75 M-5.1 4.9 L-23.9 4.9 Q-25.3 18.4 -25.95 34.4 L-5.1 34.4 -5.1 4.9 M-17.65 -30.9 L-5.1 -30.9 -5.1 -59.95 Q-12.65 -49.9 -17.65 -30.9 M-22.25 -8.1 L-23.55 1.75 -5.1 1.75 -5.1 -27.75 -18.45 -27.75 Q-20.65 -18.8 -22.25 -8.1 M-28.5 -30.9 L-20.9 -30.9 Q-16.55 -47.65 -10.25 -57.9 -17.25 -51.5 -23.2 -41.35 -26.2 -36.05 -28.5 -30.9 M-21.7 -27.75 L-29.85 -27.75 Q-35.25 -14.6 -38.75 1.75 L-26.7 1.75 -25.3 -8.6 Q-23.85 -18.6 -21.7 -27.75 M55.2 37.5 L45.2 37.5 Q45.95 47.8 46.1 59.3 L56.35 59.3 Q56.2 48.5 55.2 37.5 M23.25 34.4 Q22.15 19.25 19.85 4.9 L-2.0 4.9 -2.0 34.4 23.25 34.4 M54.9 34.4 Q53.3 19.2 49.95 4.9 L40.9 4.9 Q43.6 18.8 44.95 34.4 L54.9 34.4 M42.05 37.5 L26.6 37.5 Q27.3 48.25 27.45 59.3 L43.0 59.3 Q42.75 47.2 42.05 37.5 M19.35 1.75 Q16.55 -14.4 12.55 -27.75 L-2.0 -27.75 -2.0 1.75 19.35 1.75 M37.7 4.9 L23.05 4.9 Q25.25 18.8 26.4 34.4 L41.8 34.4 Q40.45 18.5 37.7 4.9 M27.8 -27.75 L15.8 -27.75 Q19.9 -13.8 22.5 1.75 L37.05 1.75 Q33.35 -15.1 27.8 -27.75 M38.85 -27.75 L31.2 -27.75 Q36.8 -14.4 40.25 1.75 L49.15 1.75 Q45.1 -14.45 38.85 -27.75 M20.8 -53.95 Q13.15 -60.9 5.1 -62.75 14.4 -56.55 22.25 -44.75 26.45 -38.35 29.85 -30.9 L37.35 -30.9 Q29.8 -45.75 20.8 -53.95 M13.0 -51.65 Q7.55 -57.75 1.75 -61.2 9.1 -49.2 14.85 -30.9 L26.4 -30.9 Q20.55 -43.25 13.0 -51.65 M-11.0 -61.4 Q-16.85 -59.05 -22.45 -53.95 -31.65 -45.5 -39.0 -30.9 L-31.9 -30.9 Q-23.2 -51.0 -11.0 -61.4 M-25.45 -57.25 Q-13.75 -67.95 -0.85 -67.9 12.05 -67.95 23.8 -57.25 34.85 -47.1 43.2 -29.0 51.25 -11.6 55.8 10.85 60.45 33.9 60.8 59.3 L67.55 59.3 67.55 67.9 -67.55 67.9 -67.55 59.3 -62.45 59.3 Q-61.95 20.5 -51.8 -11.05 -41.85 -42.2 -25.45 -57.25" fill="#000000" fill-rule="evenodd" stroke="none"/>
  </g>
</svg>
