<?xml version="1.0" encoding="UTF-8" standalone="no"?>
<svg xmlns:xlink="http://www.w3.org/1999/xlink" height="111.5px" width="56.5px" xmlns="http://www.w3.org/2000/svg">
  <g transform="matrix(1.0, 0.0, 0.0, 1.0, 28.25, 55.75)">
    <path d="M0.75 -51.25 Q1.05 -52.15 1.5 -52.85 L2.8 -52.35 -1.4 -41.55 -0.55 -41.2 3.65 -52.0 13.15 -48.35 10.3 -40.85 11.0 -40.6 13.9 -48.05 15.65 -47.4 11.5 -36.6 12.35 -36.25 16.5 -47.05 21.95 -44.95 18.5 -36.0 19.3 -35.7 22.75 -44.65 25.55 -43.6 25.05 -41.9 19.65 -27.95 3.05 -34.35 5.6 -40.95 4.75 -41.3 2.2 -34.65 -4.65 -37.3 0.75 -51.25" fill="#ffffff" fill-rule="evenodd" stroke="none"/>
    <path d="M-1.75 -21.65 Q-4.0 -22.5 -5.3 -24.75 -6.6 -26.95 -6.6 -29.9 L-6.5 -31.4 17.1 -22.35 Q15.6 -20.2 13.55 -19.0 11.5 -17.8 9.45 -17.85 L7.1 -18.25 -1.75 -21.65" fill="#ffffff" fill-rule="evenodd" stroke="none"/>
    <path d="M-6.5 -31.4 L-6.6 -29.9 Q-6.6 -26.95 -5.3 -24.75 -4.0 -22.5 -1.75 -21.65 L7.1 -18.25 9.45 -17.85 Q11.5 -17.8 13.55 -19.0 15.6 -20.2 17.1 -22.35 L-6.5 -31.4 M2.8 -52.35 L1.5 -52.85 Q1.05 -52.15 0.75 -51.25 L-4.65 -37.3 2.2 -34.65 4.75 -41.3 5.6 -40.95 3.05 -34.35 19.65 -27.95 25.05 -41.9 25.55 -43.6 22.75 -44.65 19.3 -35.7 18.5 -36.0 21.95 -44.95 16.5 -47.05 12.35 -36.25 11.5 -36.6 15.65 -47.4 13.9 -48.05 11.0 -40.6 10.3 -40.85 13.15 -48.35 3.65 -52.0 -0.55 -41.2 -1.4 -41.55 2.8 -52.35 M-1.5 -52.1 L0.0 -54.95 0.5 -55.75 28.25 -45.1 28.1 -44.15 27.25 -41.05 20.8 -24.3 Q19.25 -20.35 16.15 -17.9 13.05 -15.5 9.45 -15.45 L6.25 -16.05 4.2 -16.85 -23.25 54.45 Q-23.55 55.3 -24.5 55.6 L-26.45 55.5 Q-27.45 55.15 -27.95 54.3 -28.45 53.4 -28.1 52.6 L-0.7 -18.7 -2.6 -19.45 Q-5.6 -20.6 -7.3 -23.55 -8.95 -26.35 -8.95 -29.9 -8.95 -32.65 -7.9 -35.35 L-1.5 -52.1" fill="#000000" fill-rule="evenodd" stroke="none"/>
  </g>
</svg>
