<?xml version="1.0" encoding="UTF-8" standalone="no"?>
<svg xmlns:xlink="http://www.w3.org/1999/xlink" height="77.0px" width="102.0px" xmlns="http://www.w3.org/2000/svg">
  <g transform="matrix(1.0, 0.0, 0.0, 1.0, 51.0, 38.0)">
    <path d="M-14.25 -10.85 Q-14.25 -3.25 -19.6 2.15 -25.0 7.5 -32.6 7.5 -40.2 7.5 -45.6 2.15 -51.0 -3.25 -51.0 -10.85 -51.0 -18.4 -45.6 -23.8 -40.2 -29.15 -32.6 -29.15 -25.0 -29.15 -19.6 -23.8 -14.25 -18.4 -14.25 -10.85" fill="#000000" fill-rule="evenodd" stroke="none"/>
    <path d="M51.0 -10.85 Q51.0 -3.25 45.6 2.15 40.2 7.5 32.6 7.5 25.0 7.5 19.6 2.15 14.25 -3.25 14.25 -10.85 14.25 -18.4 19.6 -23.8 25.05 -29.15 32.6 -29.15 40.2 -29.15 45.6 -23.8 51.0 -18.4 51.0 -10.85" fill="#000000" fill-rule="evenodd" stroke="none"/>
    <path d="M33.15 -24.55 Q46.65 -11.1 46.65 7.9 46.65 16.75 43.4 24.9 40.25 32.75 34.45 39.0 L-33.25 39.0 Q-39.0 32.7 -42.15 24.9 -45.4 16.75 -45.4 7.9 -45.4 -11.1 -31.9 -24.55 -18.4 -38.0 0.65 -38.0 19.65 -38.0 33.15 -24.55" fill="#000000" fill-rule="evenodd" stroke="none"/>
    <path d="M-38.35 18.15 Q-28.7 23.95 -14.2 26.8 14.85 32.6 39.25 18.15" fill="none" stroke="#ffffff" stroke-linecap="round" stroke-linejoin="round" stroke-width="2.7"/>
    <path d="M2.7 -16.45 Q4.6 -18.3 7.25 -18.3 9.9 -18.3 11.75 -16.45 13.65 -14.55 13.65 -11.9 13.65 -9.25 11.75 -7.4 L9.3 -4.95 9.3 -4.9 0.25 4.1 -11.3 -7.4 Q-13.15 -9.25 -13.15 -11.9 -13.15 -14.55 -11.3 -16.45 -9.4 -18.3 -6.75 -18.3 -4.1 -18.3 -2.25 -16.45 L0.25 -13.95 2.7 -16.45" fill="#ffffff" fill-rule="evenodd" stroke="none"/>
  </g>
</svg>
