<?xml version="1.0" encoding="UTF-8" standalone="no"?>
<svg xmlns:xlink="http://www.w3.org/1999/xlink" height="34.3px" width="42.45px" xmlns="http://www.w3.org/2000/svg">
  <g transform="matrix(1.0, 0.0, 0.0, 1.0, 21.2, 17.15)">
    <path d="M-9.2 6.75 Q-0.6 9.35 7.0 7.35 7.85 12.55 5.0 14.8 L2.0 16.0 -3.15 16.0 Q-10.4 15.2 -9.2 6.75" fill="#ffffff" fill-rule="evenodd" stroke="none"/>
    <path d="M20.7 -0.8 L17.8 1.95 Q14.0 5.05 9.45 6.65 10.85 12.8 7.05 15.6 5.9 16.45 4.3 16.9 L3.0 17.15 -3.3 17.15 Q-8.6 16.65 -10.45 13.0 -11.8 10.3 -11.2 6.1 -16.15 4.25 -21.15 1.1 L-21.05 -1.95 Q-20.6 -5.6 -19.0 -8.55 -13.8 -18.0 1.45 -17.05 16.65 -16.1 20.2 -8.35 22.0 -4.5 20.7 -0.8 M-6.6 -13.4 Q-2.9 -14.95 0.1 -15.2 -10.15 -15.6 -15.0 -9.7 -16.5 -7.9 -17.3 -5.65 L-17.8 -3.75 Q-14.1 -10.3 -6.6 -13.4 M5.0 14.8 Q7.85 12.55 7.0 7.35 -0.6 9.35 -9.2 6.75 -10.4 15.2 -3.15 16.0 L2.0 16.0 5.0 14.8" fill="#000000" fill-rule="evenodd" stroke="none"/>
    <path d="M0.1 -15.2 Q-2.9 -14.95 -6.6 -13.4 -14.1 -10.3 -17.8 -3.75 L-17.3 -5.65 Q-16.5 -7.9 -15.0 -9.7 -10.15 -15.6 0.1 -15.2" fill="#ffffff" fill-rule="evenodd" stroke="none"/>
  </g>
</svg>
