<?xml version="1.0" encoding="UTF-8" standalone="no"?>
<svg xmlns:xlink="http://www.w3.org/1999/xlink" height="8.7px" width="30.65px" xmlns="http://www.w3.org/2000/svg">
  <g transform="matrix(1.0, 0.0, 0.0, 1.0, 0.0, 0.0)">
    <path d="M7.25 4.3 Q6.8 3.95 6.2 4.45 L5.7 5.05 Q6.35 5.35 6.95 5.05 7.9 4.85 7.25 4.3 M16.95 3.7 L18.7 3.55 18.95 3.05 Q18.75 1.7 17.6 1.6 L16.05 1.9 15.4 2.3 Q15.05 2.5 15.3 2.95 15.6 3.45 16.95 3.7 M27.7 8.7 L23.75 7.85 11.25 7.3 5.5 8.45 0.0 7.9 0.25 7.45 Q1.8 6.85 1.45 5.65 3.35 3.3 6.55 1.85 6.4 2.65 8.6 2.45 10.4 2.35 11.2 1.55 L11.65 0.75 11.35 0.4 15.4 0.0 Q20.6 0.0 24.85 2.15 28.95 4.25 30.65 7.55 L27.7 8.7 M24.35 3.15 Q23.35 3.35 23.9 4.05 L24.9 4.8 Q26.35 5.0 26.25 4.1 26.15 3.15 24.35 3.15 M28.2 5.65 Q27.75 5.3 27.15 5.8 L26.65 6.4 Q27.3 6.7 27.9 6.4 28.85 6.2 28.2 5.65" fill="#ffffff" fill-rule="evenodd" stroke="none"/>
  </g>
</svg>
