<?xml version="1.0" encoding="UTF-8" standalone="no"?>
<svg xmlns:xlink="http://www.w3.org/1999/xlink" height="26.65px" width="42.7px" xmlns="http://www.w3.org/2000/svg">
  <g transform="matrix(1.0, 0.0, 0.0, 1.0, 21.35, 13.3)">
    <path d="M15.4 3.45 L14.75 4.6 11.25 5.0 7.7 4.85 0.75 5.3 -5.45 6.35 -9.5 4.9 -14.45 4.7 -15.2 3.45 15.4 3.45" fill="#ffffff" fill-rule="evenodd" stroke="none"/>
    <path d="M12.7 -1.7 L15.75 -2.5 16.15 -0.65 -15.95 -0.65 -15.7 -2.0 -10.3 -2.0 -3.75 -3.05 8.55 -2.5 12.7 -1.7" fill="#ffffff" fill-rule="evenodd" stroke="none"/>
    <path d="M0.1 11.1 Q4.35 11.1 8.05 9.65 11.6 8.25 13.8 5.85 L11.15 6.15 7.7 5.9 3.1 6.65 0.95 6.25 -5.3 7.3 -9.8 5.8 -13.7 5.7 Q-11.55 8.2 -7.95 9.6 -4.2 11.1 0.1 11.1 M0.75 5.3 L7.7 4.85 11.25 5.0 14.75 4.6 15.4 3.45 -15.2 3.45 -14.45 4.7 -9.5 4.9 -5.45 6.35 0.75 5.3 M15.75 -2.5 L12.7 -1.7 8.55 -2.5 -3.75 -3.05 -10.3 -2.0 -15.7 -2.0 -15.95 -0.65 16.15 -0.65 15.75 -2.5 M12.75 -9.6 Q18.05 -5.95 18.4 -0.65 L18.6 -0.65 Q19.75 -0.65 20.55 -0.05 21.35 0.55 21.35 1.4 21.35 2.25 20.55 2.85 19.75 3.45 18.6 3.45 L17.8 3.45 Q16.2 7.8 11.35 10.55 6.4 13.35 0.1 13.35 -6.15 13.35 -11.15 10.55 -16.0 7.75 -17.6 3.45 L-18.6 3.45 Q-19.75 3.45 -20.55 2.85 -21.35 2.25 -21.35 1.4 -21.35 0.55 -20.55 -0.05 -19.75 -0.65 -18.6 -0.65 L-18.15 -0.65 Q-17.8 -5.95 -12.55 -9.6 -7.25 -13.3 0.1 -13.3 7.45 -13.3 12.75 -9.6 M12.4 -2.4 L15.35 -3.55 Q13.65 -6.85 9.55 -8.95 5.3 -11.1 0.1 -11.1 L-3.95 -10.7 -3.65 -10.35 -4.1 -9.55 Q-4.9 -8.75 -6.7 -8.65 -8.9 -8.45 -8.75 -9.25 -11.95 -7.8 -13.85 -5.45 -13.5 -4.25 -15.05 -3.65 L-15.3 -3.2 -9.8 -2.65 -4.05 -3.8 8.45 -3.25 12.4 -2.4" fill="#000000" fill-rule="evenodd" stroke="none"/>
    <path d="M2.3 -9.5 Q3.45 -9.4 3.65 -8.05 L3.4 -7.55 1.65 -7.4 Q0.3 -7.65 0.0 -8.15 -0.25 -8.6 0.1 -8.8 L0.75 -9.2 2.3 -9.5" fill="#000000" fill-rule="evenodd" stroke="none"/>
    <path d="M9.05 -7.95 L9.95 -7.85 Q10.9 -7.6 10.95 -7.0 11.05 -6.1 9.6 -6.3 L8.6 -7.05 Q8.05 -7.75 9.05 -7.95" fill="#000000" fill-rule="evenodd" stroke="none"/>
    <path d="M-9.6 -6.05 L-9.1 -6.65 -8.05 -6.8 Q-7.4 -6.25 -8.35 -6.05 -8.95 -5.75 -9.6 -6.05" fill="#000000" fill-rule="evenodd" stroke="none"/>
    <path d="M11.35 -4.7 L11.85 -5.3 Q12.45 -5.8 12.9 -5.45 13.55 -4.9 12.6 -4.7 12.0 -4.4 11.35 -4.7" fill="#000000" fill-rule="evenodd" stroke="none"/>
  </g>
</svg>
