<?xml version="1.0" encoding="UTF-8" standalone="no"?>
<svg xmlns:xlink="http://www.w3.org/1999/xlink" height="44.5px" width="51.15px" xmlns="http://www.w3.org/2000/svg">
  <g transform="matrix(1.0, 0.0, 0.0, 1.0, 25.6, 22.25)">
    <path d="M-18.35 -14.95 L-21.0 -14.55 Q-23.7 -13.65 -23.7 -11.1 L-23.7 16.2 Q-23.7 18.8 -21.0 19.7 L-18.35 20.1 -0.9 20.1 -17.55 18.7 Q-20.4 18.7 -21.35 17.0 L-21.75 15.25 -23.15 2.55 -21.75 -10.1 Q-21.85 -10.95 -21.35 -11.8 -20.4 -13.55 -17.55 -13.55 L-0.9 -14.95 -18.35 -14.95 M4.65 -16.7 L4.65 -19.0 Q4.65 -19.6 4.45 -19.6 L3.3 -19.9 -3.95 -19.9 Q-5.15 -19.9 -5.4 -19.1 L-5.4 -16.7 4.65 -16.7 M18.4 -16.7 L20.2 -16.7 Q22.4 -16.7 24.0 -15.15 25.55 -13.55 25.55 -11.35 L25.55 16.9 Q25.55 19.1 24.0 20.7 22.4 22.25 20.2 22.25 L-20.25 22.25 Q-22.45 22.25 -24.05 20.7 -25.6 19.1 -25.6 16.9 L-25.6 -11.35 Q-25.6 -13.55 -24.05 -15.15 -22.45 -16.7 -20.25 -16.7 L-17.95 -16.7 -17.95 -18.2 -11.75 -18.2 -11.75 -16.7 -7.75 -16.7 -7.75 -19.25 Q-7.6 -20.3 -6.8 -21.15 -5.75 -22.25 -3.95 -22.25 L3.15 -22.25 Q5.0 -22.25 6.0 -21.35 6.95 -20.5 6.95 -19.0 L6.95 -16.7 12.2 -16.7 12.2 -18.2 18.4 -18.2 18.4 -16.7 M21.65 -14.55 L18.95 -14.95 1.5 -14.95 18.1 -13.55 Q20.95 -13.55 21.9 -11.8 22.4 -10.95 22.3 -10.1 L23.75 2.75 22.35 15.25 Q22.45 16.1 21.95 17.0 21.0 18.7 18.15 18.7 L1.55 20.1 19.0 20.1 21.65 19.7 Q24.3 18.8 24.3 16.2 L24.3 -11.1 Q24.3 -13.65 21.65 -14.55" fill="#000000" fill-rule="evenodd" stroke="none"/>
    <path d="M18.95 -14.95 L21.65 -14.55 Q24.3 -13.65 24.3 -11.1 L24.3 16.2 Q24.3 18.8 21.65 19.7 L19.0 20.1 1.55 20.1 18.15 18.7 Q21.0 18.7 21.95 17.0 22.45 16.1 22.35 15.25 L23.75 2.75 22.3 -10.1 Q22.4 -10.95 21.9 -11.8 20.95 -13.55 18.1 -13.55 L1.5 -14.95 18.95 -14.95" fill="#ffffff" fill-rule="evenodd" stroke="none"/>
    <path d="M-21.35 -11.8 Q-21.85 -10.95 -21.75 -10.1 L-23.15 2.55 -21.75 15.25 -21.35 17.0 Q-20.4 18.7 -17.55 18.7 L-0.9 20.1 -18.35 20.1 -21.0 19.7 Q-23.7 18.8 -23.7 16.2 L-23.7 -11.1 Q-23.7 -13.65 -21.0 -14.55 L-18.35 -14.95 -0.9 -14.95 -17.55 -13.55 Q-20.4 -13.55 -21.35 -11.8" fill="#ffffff" fill-rule="evenodd" stroke="none"/>
  </g>
</svg>
