<?xml version="1.0" encoding="UTF-8" standalone="no"?>
<svg xmlns:xlink="http://www.w3.org/1999/xlink" height="101.55px" width="114.95px" xmlns="http://www.w3.org/2000/svg">
  <g transform="matrix(1.0, 0.0, 0.0, 1.0, 0.0, 0.0)">
    <path d="M38.15 48.4 L39.15 47.2 Q32.05 51.55 34.6 57.5 35.9 60.5 38.6 62.6 34.65 57.3 36.5 51.75 37.1 50.0 38.15 48.4 M83.65 18.75 L84.0 20.2 85.45 19.9 90.05 19.5 Q100.35 19.5 107.65 26.8 114.95 34.05 114.95 44.35 114.95 52.95 109.5 59.8 104.05 66.65 95.7 68.6 92.45 65.4 87.65 63.8 L83.5 62.8 Q89.75 64.6 93.75 69.7 L94.5 70.95 Q97.0 74.95 97.0 79.75 97.0 86.9 91.95 91.9 86.95 96.95 79.8 96.95 76.15 96.95 72.8 95.45 69.45 93.95 67.0 91.2 L65.55 89.6 64.5 91.45 Q61.8 96.15 57.1 98.85 52.35 101.55 46.95 101.55 39.0 101.55 33.15 96.1 27.3 90.65 26.75 82.7 L26.6 80.45 24.6 81.45 Q21.1 83.1 17.2 83.1 10.1 83.1 5.05 78.05 0.0 73.0 0.0 65.9 0.0 60.45 3.2 56.0 6.35 51.55 11.5 49.7 L12.95 49.2 12.9 49.1 Q16.65 48.6 21.25 50.3 20.4 49.65 18.85 49.0 15.8 47.6 12.35 47.4 11.8 45.6 11.8 43.85 11.8 40.65 13.35 37.8 14.9 35.0 17.65 33.25 L18.9 32.45 18.1 31.15 Q14.9 26.2 14.9 20.25 14.9 11.9 20.85 5.95 26.8 0.0 35.15 0.0 40.35 0.0 44.9 2.55 49.45 5.05 52.25 9.45 49.45 12.65 48.3 17.6 47.7 20.1 47.65 21.95 49.15 16.65 53.6 11.7 L53.65 11.8 55.1 10.45 Q60.05 5.65 66.95 5.65 72.95 5.65 77.6 9.3 82.25 12.95 83.65 18.75 M84.6 43.5 Q85.95 40.9 85.65 38.65 85.05 34.05 76.9 35.55 L81.35 36.55 Q85.6 38.55 84.6 43.5" fill="#ffffff" fill-rule="evenodd" stroke="none"/>
  </g>
</svg>
