<?xml version="1.0" encoding="UTF-8" standalone="no"?>
<svg xmlns:xlink="http://www.w3.org/1999/xlink" height="63.15px" width="73.5px" xmlns="http://www.w3.org/2000/svg">
  <g transform="matrix(1.0, 0.0, 0.0, 1.0, 36.75, 31.5)">
    <path d="M28.0 29.0 L-28.05 29.0 -34.0 -29.0 34.0 -29.0 28.0 29.0" fill="#ffffff" fill-rule="evenodd" stroke="none"/>
    <path d="M28.0 29.0 L-28.05 29.0 -34.0 -29.0 34.0 -29.0 28.0 29.0 Z" fill="none" stroke="#000000" stroke-linecap="butt" stroke-linejoin="miter" stroke-width="5.0"/>
    <path d="M13.7 -9.5 Q15.95 -7.2 15.95 -3.95 15.95 -0.75 13.7 1.55 L-0.25 15.65 -14.25 1.55 Q-16.55 -0.75 -16.55 -3.95 -16.55 -7.2 -14.25 -9.5 -12.0 -11.8 -8.75 -11.8 -5.6 -11.8 -3.3 -9.5 L-0.25 -6.45 2.7 -9.5 Q5.0 -11.8 8.2 -11.8 11.4 -11.8 13.7 -9.5" fill="#000000" fill-rule="evenodd" stroke="none"/>
    <path d="M-28.55 12.0 Q-21.6 16.9 -11.0 19.3 10.2 24.2 28.5 12.0 L28.0 29.0 -28.05 29.0 -28.55 12.0" fill="#000000" fill-rule="evenodd" stroke="none"/>
  </g>
</svg>
