<?xml version="1.0" encoding="UTF-8" standalone="no"?>
<svg xmlns:xlink="http://www.w3.org/1999/xlink" height="50.4px" width="34.25px" xmlns="http://www.w3.org/2000/svg">
  <g transform="matrix(1.0, 0.0, 0.0, 1.0, 17.15, 25.2)">
    <path d="M0.0 -13.1 Q-2.6 -16.3 -6.65 -16.7 -6.25 -19.15 -4.35 -20.8 -2.45 -22.45 0.05 -22.45 2.6 -22.45 4.5 -20.8 6.4 -19.15 6.8 -16.7 L5.5 -16.55 Q4.5 -18.9 1.6 -19.9 L-1.1 -20.4 Q2.95 -18.8 4.1 -16.1 1.6 -15.15 0.0 -13.1" fill="#ffffff" fill-rule="evenodd" stroke="none"/>
    <path d="M-0.75 -0.4 Q-3.0 1.85 -6.1 2.3 L0.25 21.05 6.9 2.4 Q2.65 2.1 0.0 -1.25 L-0.75 -0.4 M2.7 -12.0 Q0.7 -9.95 0.7 -7.15 0.7 -4.35 2.7 -2.35 4.7 -0.35 7.55 -0.35 10.35 -0.35 12.35 -2.35 14.35 -4.35 14.35 -7.15 14.35 -9.95 12.35 -12.0 10.35 -14.0 7.55 -14.0 4.7 -14.0 2.7 -12.0 M-13.95 -9.5 Q-14.35 -8.3 -14.35 -7.15 -14.35 -5.0 -13.1 -3.25 -11.9 -1.5 -9.95 -0.8 -9.65 -1.9 -8.65 -1.9 -8.1 -1.9 -7.7 -1.5 -7.3 -1.1 -7.3 -0.55 L-7.35 -0.35 Q-4.6 -0.45 -2.75 -2.35 -2.05 -3.05 -1.5 -4.0 -2.05 -5.55 -2.05 -7.15 -2.05 -8.8 -1.5 -10.35 -2.4 -12.0 -4.0 -13.0 -5.65 -14.0 -7.55 -14.0 -10.55 -14.0 -12.65 -11.65 -11.65 -11.4 -11.65 -10.4 -11.65 -9.85 -12.05 -9.45 -12.45 -9.05 -13.0 -9.05 -13.55 -9.05 -13.95 -9.5 M0.05 -22.45 Q-2.45 -22.45 -4.35 -20.8 -6.25 -19.15 -6.65 -16.7 -2.6 -16.3 0.0 -13.1 1.6 -15.15 4.1 -16.1 2.95 -18.8 -1.1 -20.4 L1.6 -19.9 Q4.5 -18.9 5.5 -16.55 L6.8 -16.7 Q6.4 -19.15 4.5 -20.8 2.6 -22.45 0.05 -22.45 M-6.4 -22.7 Q-3.65 -25.2 0.05 -25.2 3.8 -25.2 6.55 -22.7 9.25 -20.2 9.6 -16.5 12.85 -15.8 14.95 -13.2 17.1 -10.55 17.1 -7.15 17.1 -3.2 14.3 -0.4 12.65 1.3 10.35 2.0 L2.95 22.75 Q2.05 25.2 0.35 25.2 -1.6 25.25 -2.65 22.25 L-9.4 2.25 Q-12.75 1.55 -14.9 -1.05 -17.15 -3.7 -17.15 -7.15 -17.15 -10.6 -14.95 -13.25 -12.8 -15.85 -9.45 -16.55 -9.1 -20.2 -6.4 -22.7" fill="#000000" fill-rule="evenodd" stroke="none"/>
    <path d="M6.9 2.4 L0.25 21.05 -6.1 2.3 Q-3.0 1.85 -0.75 -0.4 L0.0 -1.25 Q2.65 2.1 6.9 2.4" fill="#ffffff" fill-rule="evenodd" stroke="none"/>
  </g>
</svg>
