<?xml version="1.0" encoding="UTF-8" standalone="no"?>
<svg xmlns:xlink="http://www.w3.org/1999/xlink" height="13.65px" width="13.65px" xmlns="http://www.w3.org/2000/svg">
  <g transform="matrix(1.0, 0.0, 0.0, 1.0, 0.0, 0.0)">
    <path d="M11.65 2.0 Q13.65 4.05 13.65 6.85 13.65 9.65 11.65 11.65 9.65 13.65 6.85 13.65 4.0 13.65 2.0 11.65 0.0 9.65 0.0 6.85 0.0 4.05 2.0 2.0 4.0 0.0 6.85 0.0 9.65 0.0 11.65 2.0 M12.6 8.2 Q13.05 6.85 12.95 5.85 12.55 2.4 9.2 1.05 7.5 0.35 5.9 0.35 9.35 1.75 10.75 3.9 11.45 4.95 11.45 5.75 12.2 7.9 10.65 10.55 L8.9 12.8 Q11.7 10.9 12.6 8.2" fill="#000000" fill-rule="evenodd" stroke="none"/>
  </g>
</svg>
