<?xml version="1.0" encoding="UTF-8" standalone="no"?>
<svg xmlns:xlink="http://www.w3.org/1999/xlink" height="101.55px" width="95.1px" xmlns="http://www.w3.org/2000/svg">
  <g transform="matrix(1.0, 0.0, 0.0, 1.0, 47.55, 50.8)">
    <path d="M-40.1 -42.9 L-4.5 -42.9 -4.5 0.85 Q-5.75 0.0 -7.35 0.0 -9.55 0.0 -11.1 1.55 -12.65 3.1 -12.65 5.3 -12.65 7.5 -11.1 9.05 -9.55 10.6 -7.35 10.6 -5.85 10.6 -4.5 9.75 L-4.5 43.35 -40.1 43.35 -40.1 -42.9" fill="#ffffff" fill-rule="evenodd" stroke="none"/>
    <path d="M42.3 -43.85 L4.7 -43.85 4.7 1.25 Q2.75 2.8 2.75 5.3 2.75 7.75 4.7 9.35 L4.7 44.35 42.3 44.35 42.3 -43.85 M1.3 -47.55 L44.3 -47.55 44.3 47.5 1.3 47.5 1.3 -47.55" fill="#ffffff" fill-rule="evenodd" stroke="none"/>
    <path d="M5.65 -42.9 L41.3 -42.9 41.3 43.35 5.65 43.35 5.65 10.0 Q6.95 10.6 8.05 10.6 10.25 10.6 11.8 9.05 13.35 7.5 13.35 5.3 13.35 3.1 11.8 1.55 10.25 0.0 8.05 0.0 6.8 0.0 5.65 0.6 L5.65 -42.9" fill="#ffffff" fill-rule="evenodd" stroke="none"/>
    <path d="M-3.5 -43.85 L-41.1 -43.85 -41.1 44.35 -3.5 44.35 -3.5 8.9 Q-2.05 7.35 -2.05 5.3 -2.05 3.25 -3.5 1.7 L-3.5 -43.85 M-44.3 -47.55 L-0.6 -47.55 -0.6 47.5 -44.3 47.5 -44.3 -47.55" fill="#ffffff" fill-rule="evenodd" stroke="none"/>
    <path d="M-0.6 -47.55 L-44.3 -47.55 -44.3 47.5 -0.6 47.5 -0.6 -47.55 M-47.55 -50.8 L47.55 -50.8 47.55 50.75 -47.55 50.75 -47.55 -50.8 M44.3 -47.55 L1.3 -47.55 1.3 47.5 44.3 47.5 44.3 -47.55" fill="#000000" fill-rule="evenodd" stroke="none"/>
    <path d="M41.3 -42.9 L5.65 -42.9 5.65 0.6 Q6.8 0.0 8.05 0.0 10.25 0.0 11.8 1.55 13.35 3.1 13.35 5.3 13.35 7.5 11.8 9.05 10.25 10.6 8.05 10.6 6.95 10.6 5.65 10.0 L5.65 43.35 41.3 43.35 41.3 -42.9 M4.7 -43.85 L42.3 -43.85 42.3 44.35 4.7 44.35 4.7 9.35 Q2.75 7.75 2.75 5.3 2.75 2.8 4.7 1.25 L4.7 -43.85" fill="#000000" fill-rule="evenodd" stroke="none"/>
    <path d="M-4.5 -42.9 L-40.1 -42.9 -40.1 43.35 -4.5 43.35 -4.5 9.75 Q-5.85 10.6 -7.35 10.6 -9.55 10.6 -11.1 9.05 -12.65 7.5 -12.65 5.3 -12.65 3.1 -11.1 1.55 -9.55 0.0 -7.35 0.0 -5.75 0.0 -4.5 0.85 L-4.5 -42.9 M-41.1 -43.85 L-3.5 -43.85 -3.5 1.7 Q-2.05 3.25 -2.05 5.3 -2.05 7.35 -3.5 8.9 L-3.5 44.35 -41.1 44.35 -41.1 -43.85" fill="#000000" fill-rule="evenodd" stroke="none"/>
  </g>
</svg>
