<?xml version="1.0" encoding="UTF-8" standalone="no"?>
<svg xmlns:xlink="http://www.w3.org/1999/xlink" height="70.3px" width="49.3px" xmlns="http://www.w3.org/2000/svg">
  <g transform="matrix(1.0, 0.0, 0.0, 1.0, 24.65, 35.15)">
    <path d="M7.25 -2.85 Q5.95 -2.5 4.9 -1.8 L4.1 -1.2 Q4.8 -4.15 2.6 -7.0 L0.25 -9.25 0.15 -7.4 Q-0.15 -5.3 -1.3 -4.1 -2.8 -2.55 -3.45 -1.25 L-3.8 -0.2 Q-4.5 -0.6 -4.7 -1.85 L-4.8 -3.05 Q-8.5 0.1 -8.1 5.5 L-9.75 7.05 -10.7 5.75 -11.0 5.0 Q-15.8 14.7 -12.05 21.85 -10.4 25.35 -7.15 27.5 -3.85 29.65 0.15 29.65 5.75 29.65 9.7 25.7 13.65 21.75 13.65 16.15 13.65 13.5 12.5 10.8 11.7 8.1 12.1 5.9 L12.65 4.25 Q11.05 4.55 10.0 5.45 L9.3 6.25 Q6.75 4.2 6.75 0.45 L7.25 -2.85 M0.3 -31.75 L0.4 -35.15 4.7 -31.1 Q8.75 -25.95 7.45 -20.6 L8.9 -21.7 Q10.8 -22.95 13.15 -23.6 L12.2 -17.6 Q12.2 -10.85 16.75 -7.15 L18.05 -8.6 Q19.95 -10.15 22.9 -10.7 L21.9 -7.75 Q21.2 -3.8 22.6 1.05 24.65 5.8 24.65 10.8 24.65 20.9 17.5 28.0 10.35 35.15 0.25 35.15 -6.95 35.15 -13.0 31.25 -18.85 27.4 -21.8 21.1 -24.6 15.5 -24.65 8.9 -24.65 0.25 -19.85 -9.45 L-19.35 -8.1 Q-18.65 -6.55 -17.65 -5.7 L-14.65 -8.45 Q-14.9 -12.4 -13.9 -15.85 -12.45 -20.75 -8.65 -24.0 L-8.5 -21.85 Q-8.1 -19.5 -6.9 -18.8 L-6.25 -20.65 Q-5.05 -23.05 -2.35 -25.8 -0.25 -27.95 0.3 -31.75" fill="#000000" fill-rule="evenodd" stroke="none"/>
    <path d="M0.15 -7.4 L0.25 -9.25 2.6 -7.0 Q4.8 -4.15 4.1 -1.2 L4.9 -1.8 Q5.95 -2.5 7.25 -2.85 L6.75 0.45 Q6.75 4.2 9.3 6.25 L10.0 5.45 Q11.05 4.55 12.65 4.25 L12.1 5.9 Q11.7 8.1 12.5 10.8 13.65 13.5 13.65 16.15 13.65 21.75 9.7 25.7 5.75 29.65 0.15 29.65 -3.85 29.65 -7.15 27.5 -10.4 25.35 -12.05 21.85 -15.8 14.7 -11.0 5.0 L-10.7 5.75 -9.75 7.05 -8.1 5.5 Q-8.5 0.1 -4.8 -3.05 L-4.7 -1.85 Q-4.5 -0.6 -3.8 -0.2 L-3.45 -1.25 Q-2.8 -2.55 -1.3 -4.1 -0.15 -5.3 0.15 -7.4" fill="#ffffff" fill-rule="evenodd" stroke="none"/>
  </g>
</svg>
