<?xml version="1.0" encoding="UTF-8" standalone="no"?>
<svg xmlns:xlink="http://www.w3.org/1999/xlink" height="40.9px" width="15.05px" xmlns="http://www.w3.org/2000/svg">
  <g transform="matrix(1.0, 0.0, 0.0, 1.0, 7.5, 20.45)">
    <path d="M5.4 14.25 L5.4 0.75 -5.35 0.75 -5.35 14.25 5.4 14.25 M-0.15 -18.65 L-2.85 -18.3 -0.15 -17.95 2.6 -18.3 -0.15 -18.65 M-0.15 -20.45 L2.7 -20.15 Q4.95 -19.6 4.95 -18.3 4.95 -17.4 3.9 -16.9 4.0 -9.7 7.55 -6.1 L7.55 20.45 -7.5 20.45 -7.5 -6.35 Q-6.55 -7.15 -5.65 -8.85 -3.9 -12.25 -4.15 -16.9 -5.2 -17.4 -5.2 -18.3 -5.2 -19.05 -4.45 -19.55 -3.1 -20.45 -0.15 -20.45" fill="#000000" fill-rule="evenodd" stroke="none"/>
    <path d="M-5.35 14.25 L-5.35 0.75 5.4 0.75 5.4 14.25 -5.35 14.25" fill="#ffffff" fill-rule="evenodd" stroke="none"/>
  </g>
</svg>
