<?xml version="1.0" encoding="UTF-8" standalone="no"?>
<svg xmlns:xlink="http://www.w3.org/1999/xlink" height="42.8px" width="43.75px" xmlns="http://www.w3.org/2000/svg">
  <g transform="matrix(1.0, 0.0, 0.0, 1.0, 21.85, 21.4)">
    <path d="M19.7 -5.2 L20.1 -5.3 19.8 -3.0 18.6 2.3 18.05 2.2 17.7 2.25 Q17.3 2.4 17.35 2.7 L17.45 2.9 17.85 3.1 18.4 3.15 17.95 5.1 17.4 5.0 17.05 5.05 Q16.7 5.15 16.7 5.4 16.7 5.85 17.45 6.0 L17.75 6.0 17.25 8.1 16.8 8.05 16.5 8.1 Q16.2 8.2 16.25 8.4 16.3 8.75 16.7 8.9 L17.05 8.95 15.65 15.15 11.35 5.85 19.7 -5.2" fill="#ffffff" fill-rule="evenodd" stroke="none"/>
    <path d="M-10.3 10.55 L-10.3 10.5 5.2 9.9 Q4.55 12.15 3.25 14.25 0.95 17.9 -2.65 19.85 -4.6 19.85 -6.15 18.9 L-8.15 16.85 Q-10.15 14.1 -10.3 10.55" fill="#ffffff" fill-rule="evenodd" stroke="none"/>
    <path d="M-10.0 -10.5 Q-6.05 -12.6 -2.95 -12.6 -0.3 -11.65 1.7 -8.0 4.8 -2.3 5.2 8.55 L-10.35 9.3 -10.7 4.35 Q-10.7 3.65 -11.25 3.55 L-11.4 3.5 -19.0 3.45 -17.8 -1.15 Q-16.05 -6.2 -13.35 -8.4 L-10.0 -10.5 M-8.15 -3.7 L-7.8 -3.1 Q-7.3 -2.6 -6.35 -2.85 L-5.7 -3.85 Q-5.3 -4.9 -6.5 -5.45 L-7.45 -5.25 Q-8.35 -4.85 -8.15 -3.7 M-1.95 -2.75 Q-0.75 -2.85 -0.5 -4.15 -0.85 -5.45 -2.1 -5.55 L-2.7 -5.25 Q-3.3 -4.8 -3.25 -4.2 L-3.1 -3.5 Q-2.8 -2.8 -1.95 -2.75" fill="#ffffff" fill-rule="evenodd" stroke="none"/>
    <path d="M20.1 -5.3 L19.7 -5.2 11.35 5.85 15.65 15.15 17.05 8.95 16.7 8.9 Q16.3 8.75 16.25 8.4 16.2 8.2 16.5 8.1 L16.8 8.05 17.25 8.1 17.75 6.0 17.45 6.0 Q16.7 5.85 16.7 5.4 16.7 5.15 17.05 5.05 L17.4 5.0 17.95 5.1 18.4 3.15 17.85 3.1 17.45 2.9 17.35 2.7 Q17.3 2.4 17.7 2.25 L18.05 2.2 18.6 2.3 20.1 -4.35 20.1 -5.3 M-10.3 10.5 L-10.3 10.55 Q-10.15 14.1 -8.15 16.85 L-6.15 18.9 Q-4.6 19.85 -2.65 19.85 0.95 17.9 3.25 14.25 4.55 12.15 5.2 9.9 L-10.3 10.5 M-2.95 -12.6 Q-6.05 -12.6 -10.0 -10.5 L-13.35 -8.4 Q-16.05 -6.2 -17.8 -1.15 L-19.0 3.45 -11.4 3.5 -11.25 3.55 Q-10.7 3.65 -10.7 4.35 L-10.35 9.3 5.2 8.55 Q4.8 -2.3 1.7 -8.0 -0.3 -11.65 -2.95 -12.6 M-2.9 -14.15 L0.3 -21.4 2.0 -17.75 4.4 -19.5 4.3 -16.25 8.3 -17.45 5.2 -11.75 Q8.85 -7.45 10.3 -1.7 11.0 1.2 11.0 3.25 L20.35 -8.85 21.0 -9.6 21.3 -9.7 Q22.1 -9.2 21.8 -7.85 L18.2 20.35 17.35 20.45 17.05 20.1 10.55 8.3 Q9.85 12.2 7.5 15.8 L5.25 18.6 Q3.3 20.55 -0.85 21.15 L-4.6 21.4 Q-10.4 20.95 -12.95 13.2 -13.75 10.8 -14.15 7.95 L-14.35 5.6 -18.45 5.4 -21.85 5.5 Q-19.9 -6.55 -11.2 -11.55 -6.85 -14.05 -2.9 -14.15" fill="#000000" fill-rule="evenodd" stroke="none"/>
    <path d="M-6.35 -2.85 Q-7.3 -2.6 -7.8 -3.1 L-8.15 -3.7 Q-8.35 -4.85 -7.45 -5.25 L-6.5 -5.45 Q-5.3 -4.9 -5.7 -3.85 L-6.35 -2.85" fill="#000000" fill-rule="evenodd" stroke="none"/>
    <path d="M-1.95 -2.75 Q-2.8 -2.8 -3.1 -3.5 L-3.25 -4.2 Q-3.3 -4.8 -2.7 -5.25 L-2.1 -5.55 Q-0.85 -5.45 -0.5 -4.15 -0.75 -2.85 -1.95 -2.75" fill="#000000" fill-rule="evenodd" stroke="none"/>
  </g>
</svg>
