<?xml version="1.0" encoding="UTF-8" standalone="no"?>
<svg xmlns:xlink="http://www.w3.org/1999/xlink" height="36.75px" width="26.4px" xmlns="http://www.w3.org/2000/svg">
  <g transform="matrix(1.0, 0.0, 0.0, 1.0, 13.2, 18.4)">
    <path d="M4.35 12.35 Q5.8 12.35 6.8 11.35 7.85 10.3 7.85 8.85 7.85 7.45 6.8 6.4 5.8 5.35 4.35 5.35 2.9 5.35 1.85 6.4 0.85 7.4 0.85 8.85 0.85 10.3 1.85 11.35 2.9 12.35 4.35 12.35 M4.35 -11.4 Q2.9 -11.4 1.85 -10.4 0.85 -9.35 0.85 -7.9 0.85 -6.45 1.85 -5.4 2.9 -4.4 4.35 -4.4 5.8 -4.4 6.8 -5.4 7.85 -6.45 7.85 -7.9 7.85 -9.35 6.8 -10.4 5.8 -11.4 4.35 -11.4 M-13.2 2.75 L-13.2 -2.5 -4.05 -2.5 -4.05 -9.8 Q-4.05 -13.35 -1.5 -15.9 1.0 -18.4 4.6 -18.4 8.15 -18.4 10.7 -15.9 13.2 -13.35 13.2 -9.8 L13.2 9.75 Q13.2 13.3 10.7 15.85 8.15 18.35 4.6 18.35 1.0 18.35 -1.5 15.85 -4.05 13.3 -4.05 9.75 L-4.05 2.75 -13.2 2.75" fill="#000000" fill-rule="evenodd" stroke="none"/>
  </g>
</svg>
