<?xml version="1.0" encoding="UTF-8" standalone="no"?>
<svg xmlns:xlink="http://www.w3.org/1999/xlink" height="49.8px" width="31.15px" xmlns="http://www.w3.org/2000/svg">
  <g transform="matrix(1.0, 0.0, 0.0, 1.0, 15.55, 24.9)">
    <path d="M-2.55 -9.95 L1.55 -9.95 1.55 21.75 -2.55 21.75 -2.55 -9.95" fill="#ffffff" fill-rule="evenodd" stroke="none"/>
    <path d="M-15.55 -24.9 L3.05 -24.9 15.6 -16.15 15.6 -10.0 4.75 -10.0 4.75 23.35 Q4.75 24.0 4.25 24.45 3.8 24.9 3.15 24.9 L-4.15 24.9 Q-4.8 24.9 -5.3 24.45 -5.75 24.0 -5.75 23.35 L-5.75 -10.0 -15.55 -10.0 -15.55 -24.9 M1.55 -9.95 L-2.55 -9.95 -2.55 21.75 1.55 21.75 1.55 -9.95" fill="#000000" fill-rule="evenodd" stroke="none"/>
  </g>
</svg>
