<?xml version="1.0" encoding="UTF-8" standalone="no"?>
<svg xmlns:xlink="http://www.w3.org/1999/xlink" height="41.9px" width="30.55px" xmlns="http://www.w3.org/2000/svg">
  <g transform="matrix(1.0, 0.0, 0.0, 1.0, 15.25, 20.95)">
    <path d="M7.05 17.95 L4.7 17.95 5.4 7.95 2.55 17.95 -6.3 17.95 -9.0 -5.65 -3.55 6.9 -0.15 -9.45 3.4 7.25 9.2 -6.3 7.05 17.95" fill="#ffffff" fill-rule="evenodd" stroke="none"/>
    <path d="M-6.3 17.95 L2.55 17.95 5.4 7.95 4.7 17.95 7.05 17.95 9.2 -6.3 3.4 7.25 -0.15 -9.45 -3.55 6.9 -9.0 -5.65 -6.3 17.95 M12.3 -15.15 Q11.75 -15.7 10.95 -15.7 10.15 -15.7 9.6 -15.15 9.05 -14.6 9.05 -13.8 9.05 -13.0 9.6 -12.45 10.15 -11.9 10.95 -11.9 11.75 -11.9 12.3 -12.45 12.85 -13.0 12.85 -13.8 12.85 -14.6 12.3 -15.15 M-9.5 -15.25 Q-10.05 -15.8 -10.85 -15.8 -11.65 -15.8 -12.2 -15.25 -12.75 -14.7 -12.75 -13.9 -12.75 -13.1 -12.2 -12.55 -11.65 -12.0 -10.85 -12.0 -10.05 -12.0 -9.5 -12.55 -8.95 -13.1 -8.95 -13.9 -8.95 -14.7 -9.5 -15.25 M1.1 -15.25 Q1.65 -15.8 1.65 -16.6 1.65 -17.4 1.1 -17.95 0.55 -18.5 -0.25 -18.5 -1.05 -18.5 -1.6 -17.95 -2.15 -17.4 -2.15 -16.6 -2.15 -15.8 -1.6 -15.25 -1.05 -14.7 -0.25 -14.7 0.55 -14.7 1.1 -15.25 M2.85 -19.65 Q4.15 -18.35 4.15 -16.55 4.15 -14.25 2.2 -12.95 L4.35 -2.65 7.85 -10.8 Q6.6 -12.05 6.6 -13.8 6.6 -15.6 7.9 -16.85 9.15 -18.15 10.95 -18.15 12.75 -18.15 14.05 -16.85 15.3 -15.6 15.3 -13.8 15.3 -12.45 14.5 -11.35 13.75 -10.25 12.5 -9.8 L9.8 20.95 -9.0 20.95 -12.5 -9.8 Q-13.7 -10.3 -14.45 -11.35 -15.25 -12.45 -15.25 -13.8 -15.25 -15.6 -13.95 -16.85 -12.7 -18.15 -10.9 -18.15 -9.1 -18.15 -7.8 -16.85 -6.55 -15.6 -6.55 -13.8 -6.55 -12.0 -7.9 -10.65 L-4.55 -2.95 -2.5 -12.85 Q-4.6 -14.2 -4.6 -16.55 -4.6 -18.35 -3.3 -19.65 -2.05 -20.95 -0.25 -20.95 1.6 -20.95 2.85 -19.65" fill="#000000" fill-rule="evenodd" stroke="none"/>
    <path d="M-10.85 -15.8 Q-10.05 -15.8 -9.5 -15.25 -8.95 -14.7 -8.95 -13.9 -8.95 -13.1 -9.5 -12.55 -10.05 -12.0 -10.85 -12.0 -11.65 -12.0 -12.2 -12.55 -12.75 -13.1 -12.75 -13.9 -12.75 -14.7 -12.2 -15.25 -11.65 -15.8 -10.85 -15.8" fill="#ffffff" fill-rule="evenodd" stroke="none"/>
    <path d="M-0.25 -14.7 Q-1.05 -14.7 -1.6 -15.25 -2.15 -15.8 -2.15 -16.6 -2.15 -17.4 -1.6 -17.95 -1.05 -18.5 -0.25 -18.5 0.55 -18.5 1.1 -17.95 1.65 -17.4 1.65 -16.6 1.65 -15.8 1.1 -15.25 0.55 -14.7 -0.25 -14.7" fill="#ffffff" fill-rule="evenodd" stroke="none"/>
    <path d="M12.85 -13.8 Q12.85 -13.0 12.3 -12.45 11.75 -11.9 10.95 -11.9 10.15 -11.9 9.6 -12.45 9.05 -13.0 9.05 -13.8 9.05 -14.6 9.6 -15.15 10.15 -15.7 10.95 -15.7 11.75 -15.7 12.3 -15.15 12.85 -14.6 12.85 -13.8" fill="#ffffff" fill-rule="evenodd" stroke="none"/>
  </g>
</svg>
