<?xml version="1.0" encoding="UTF-8" standalone="no"?>
<svg xmlns:xlink="http://www.w3.org/1999/xlink" height="28.85px" width="40.2px" xmlns="http://www.w3.org/2000/svg">
  <g transform="matrix(1.0, 0.0, 0.0, 1.0, 20.1, 14.4)">
    <path d="M-19.85 -1.55 L-19.5 -1.95 -19.5 -2.1 Q-19.4 -3.05 -18.5 -3.4 L-17.65 -3.55 Q-16.35 -3.6 -15.95 -2.85 L-15.8 -2.1 Q-15.9 -1.1 -16.95 -0.55 -17.5 -0.25 -18.0 -0.2 -18.75 0.8 -19.65 0.35 -20.2 0.05 -20.05 -0.75 L-19.85 -1.55" fill="#000000" fill-rule="evenodd" stroke="none"/>
    <path d="M-7.65 -6.9 L-7.4 -6.2 Q-7.6 -4.05 -9.85 -1.6 L-12.05 0.4 Q-12.55 0.7 -12.3 0.9 -10.85 1.15 -8.45 0.4 -8.05 -4.3 -5.45 -7.85 L-2.95 -10.45 -1.95 -11.25 Q-0.7 -11.95 0.25 -11.55 1.65 -10.95 1.9 -9.7 2.25 -7.95 0.9 -3.95 -0.55 0.35 -5.85 2.15 -5.7 3.75 -4.95 4.8 L-4.2 5.55 -2.8 5.95 Q-2.0 5.95 -0.6 4.4 L-0.25 3.75 -0.3 3.4 Q0.65 2.6 1.9 0.25 L4.1 -3.8 Q5.05 -5.3 5.9 -9.15 L6.55 -12.75 6.5 -13.55 Q6.65 -14.1 7.35 -14.3 L8.0 -14.4 Q9.25 -14.25 9.6 -13.7 L9.7 -13.15 Q9.7 -11.6 6.9 -4.0 L14.7 -4.4 Q14.85 -4.7 15.35 -4.8 L15.8 -4.85 Q16.6 -4.55 16.4 -3.85 L16.1 -3.2 Q15.65 -2.6 9.4 -2.1 L13.0 0.15 13.8 1.0 15.65 2.75 17.4 4.7 Q19.15 6.6 20.1 9.7 L19.55 8.8 Q20.1 10.2 19.95 10.9 19.1 8.35 17.05 5.55 L15.2 3.3 14.0 2.2 13.15 1.65 12.5 1.45 Q9.9 -0.5 7.5 -0.85 L5.6 -0.85 Q4.6 1.55 2.45 10.5 L1.15 13.5 Q0.9 14.6 0.2 14.4 -0.25 14.25 -0.3 13.8 L-0.3 13.35 0.25 11.8 0.3 11.1 Q1.25 8.8 2.1 4.85 L2.8 1.4 0.9 4.0 Q0.45 4.4 0.2 4.0 -1.25 6.15 -2.85 7.1 -3.6 7.55 -4.1 7.6 -7.25 8.15 -8.35 2.85 L-9.5 3.05 -12.4 3.45 -14.8 3.3 Q-16.35 2.4 -16.25 1.25 -16.2 0.55 -15.15 -0.45 L-13.15 -1.9 Q-11.9 -2.6 -10.55 -4.75 -10.45 -4.85 -10.5 -4.9 L-10.55 -4.95 -12.1 -4.55 -12.75 -4.2 Q-13.35 -3.75 -14.05 -3.5 -15.45 -2.95 -16.0 -3.85 -16.55 -4.7 -15.9 -5.6 L-15.15 -6.35 Q-14.75 -6.7 -14.6 -7.25 L-14.5 -7.7 -14.2 -7.9 -13.9 -7.95 Q-13.25 -8.0 -12.75 -7.25 L-10.95 -7.55 -9.6 -7.65 Q-8.2 -7.6 -7.65 -6.9 M-1.4 -8.05 L-3.1 -6.35 Q-4.9 -4.05 -5.6 -0.95 L-5.65 -0.7 Q-2.95 -2.05 -1.8 -4.9 -1.15 -6.5 -1.15 -7.75 L-1.25 -8.05 -1.4 -8.05" fill="#000000" fill-rule="evenodd" stroke="none"/>
    <path d="M19.7 0.5 Q19.25 1.4 18.4 1.0 17.75 0.3 17.95 -0.5 L18.3 -1.1 Q19.25 -1.35 19.7 -0.7 20.05 -0.25 19.7 0.5" fill="#000000" fill-rule="evenodd" stroke="none"/>
  </g>
</svg>
