<?xml version="1.0" encoding="UTF-8" standalone="no"?>
<svg xmlns:xlink="http://www.w3.org/1999/xlink" height="17.95px" width="38.15px" xmlns="http://www.w3.org/2000/svg">
  <g transform="matrix(1.0, 0.0, 0.0, 1.0, 19.1, 8.95)">
    <path d="M-15.2 -3.2 Q-14.3 -4.6 -12.8 -5.35 -13.25 -3.75 -12.85 -2.6 -12.1 -0.45 -8.75 0.3 L-8.05 0.2 Q-7.7 -0.05 -7.65 -0.4 -7.55 -0.75 -7.75 -1.1 -7.95 -1.4 -8.35 -1.5 -10.7 -2.05 -11.1 -3.2 -11.4 -4.0 -10.8 -5.3 -10.1 -5.85 -8.85 -5.85 -6.55 -5.3 -5.15 -3.3 L-5.15 3.3 Q-6.95 6.0 -10.15 6.0 -12.6 6.0 -14.35 4.25 -16.1 2.5 -16.1 0.0 -16.1 -1.75 -15.2 -3.2" fill="#ffffff" fill-rule="evenodd" stroke="none"/>
    <path d="M-10.8 -5.3 Q-11.4 -4.0 -11.1 -3.2 -10.7 -2.05 -8.35 -1.5 -7.95 -1.4 -7.75 -1.1 -7.55 -0.75 -7.65 -0.4 -7.7 -0.05 -8.05 0.2 L-8.75 0.3 Q-12.1 -0.45 -12.85 -2.6 -13.25 -3.75 -12.8 -5.35 -14.3 -4.6 -15.2 -3.2 -16.1 -1.75 -16.1 0.0 -16.1 2.5 -14.35 4.25 -12.6 6.0 -10.15 6.0 -6.95 6.0 -5.15 3.3 L-5.15 -3.3 Q-6.55 -5.3 -8.85 -5.85 -10.1 -5.85 -10.8 -5.3 M19.0 1.2 L19.0 7.0 -4.5 7.0 Q-7.0 9.0 -10.15 9.0 -13.85 9.0 -16.5 6.35 -19.1 3.7 -19.1 0.0 -19.1 -3.7 -16.5 -6.35 -13.85 -8.95 -10.15 -8.95 -5.7 -8.95 -3.0 -5.4 L19.05 -5.35 19.05 1.2 19.0 1.2" fill="#000000" fill-rule="evenodd" stroke="none"/>
  </g>
</svg>
