<?xml version="1.0" encoding="UTF-8" standalone="no"?>
<svg xmlns:xlink="http://www.w3.org/1999/xlink" height="88.6px" width="22.55px" xmlns="http://www.w3.org/2000/svg">
  <g transform="matrix(1.0, 0.0, 0.0, 1.0, 11.3, 44.3)">
    <path d="M-6.4 -30.2 L-0.25 -39.05 5.8 -30.3 3.55 24.25 0.85 24.25 0.35 -28.85 0.15 -29.35 -0.4 -29.6 Q-1.15 -29.5 -1.15 -28.8 L-0.65 24.25 -3.4 24.3 -6.4 -30.2" fill="#ffffff" fill-rule="evenodd" stroke="none"/>
    <path d="M5.8 -30.3 L-0.25 -39.05 -6.4 -30.2 -3.4 24.3 -0.65 24.25 -1.15 -28.8 Q-1.15 -29.5 -0.4 -29.6 L0.15 -29.35 0.35 -28.85 0.85 24.25 3.55 24.25 5.8 -30.3 M-9.45 -31.1 L-0.25 -44.3 8.85 -31.2 6.55 24.3 8.9 24.3 Q9.9 24.3 10.55 25.0 11.25 25.7 11.25 26.65 11.25 27.65 10.55 28.3 9.9 29.0 8.9 29.0 L-0.2 29.0 4.25 30.25 4.25 39.8 Q4.25 41.65 2.9 43.0 1.6 44.3 -0.25 44.3 -2.1 44.3 -3.45 43.0 -4.75 41.7 -4.75 39.8 L-4.75 29.0 -8.95 29.0 Q-9.9 29.0 -10.6 28.3 -11.3 27.65 -11.3 26.65 -11.3 25.7 -10.6 25.0 -9.9 24.3 -8.95 24.3 L-6.4 24.3 -9.45 -31.1" fill="#000000" fill-rule="evenodd" stroke="none"/>
    <path d="M5.25 30.5 L-0.2 29.0 4.95 29.0 5.25 30.5" fill="#ffffff" fill-rule="evenodd" stroke="none"/>
  </g>
</svg>
