<?xml version="1.0" encoding="UTF-8" standalone="no"?>
<svg xmlns:xlink="http://www.w3.org/1999/xlink" height="54.65px" width="65.4px" xmlns="http://www.w3.org/2000/svg">
  <g transform="matrix(1.0, 0.0, 0.0, 1.0, 32.7, 27.3)">
    <path d="M-23.5 -16.6 L-23.5 12.55 23.0 12.55 23.0 -16.6 -23.5 -16.6 M14.2 18.55 Q14.2 19.7 15.0 20.45 15.8 21.25 16.9 21.25 18.0 21.25 18.75 20.45 19.55 19.65 19.55 18.55 19.55 17.45 18.75 16.7 18.0 15.9 16.9 15.9 15.8 15.9 15.0 16.7 14.2 17.45 14.2 18.55 M9.45 16.7 Q8.65 15.9 7.55 15.9 6.45 15.9 5.65 16.7 4.85 17.45 4.85 18.55 4.85 19.7 5.65 20.45 6.45 21.25 7.55 21.25 8.7 21.25 9.45 20.45 10.25 19.7 10.25 18.55 10.25 17.45 9.45 16.7 M22.0 -24.3 Q25.2 -24.3 27.45 -22.05 29.7 -19.8 29.7 -16.6 L29.7 16.65 Q29.7 19.85 27.45 22.1 25.2 24.35 22.0 24.35 L-22.0 24.35 Q-25.2 24.35 -27.45 22.1 -29.7 19.85 -29.7 16.65 L-29.7 -16.6 Q-29.7 -19.8 -27.45 -22.05 -25.2 -24.3 -22.0 -24.3 L22.0 -24.3" fill="#ffffff" fill-rule="evenodd" stroke="none"/>
    <path d="M22.0 -27.3 Q26.45 -27.3 29.55 -24.15 32.7 -21.0 32.7 -16.6 L32.7 16.65 Q32.7 21.1 29.55 24.2 26.45 27.35 22.0 27.35 L-22.0 27.35 Q-26.4 27.35 -29.55 24.2 -32.7 21.1 -32.7 16.65 L-32.7 -16.6 Q-32.7 -21.0 -29.55 -24.15 -26.4 -27.3 -22.0 -27.3 L22.0 -27.3 M27.45 -22.05 Q25.2 -24.3 22.0 -24.3 L-22.0 -24.3 Q-25.2 -24.3 -27.45 -22.05 -29.7 -19.8 -29.7 -16.6 L-29.7 16.65 Q-29.7 19.85 -27.45 22.1 -25.2 24.35 -22.0 24.35 L22.0 24.35 Q25.2 24.35 27.45 22.1 29.7 19.85 29.7 16.65 L29.7 -16.6 Q29.7 -19.8 27.45 -22.05" fill="#000000" fill-rule="evenodd" stroke="none"/>
    <path d="M-1.4 -4.15 L-1.7 -2.8 -3.3 -2.8 -1.8 -4.9 -1.2 -5.6 -1.15 -5.65 -1.4 -4.15" fill="#000000" fill-rule="evenodd" stroke="none"/>
    <path d="M-23.5 12.55 L-23.5 -16.6 23.0 -16.6 23.0 12.55 -23.5 12.55 M-0.9 -2.8 L-0.65 -4.0 -0.35 -5.7 -0.45 -6.2 Q-0.6 -6.55 -1.0 -6.55 -1.4 -6.5 -1.7 -6.15 L-2.4 -5.4 -4.2 -2.8 -20.7 -2.8 -20.7 -1.25 -5.15 -1.25 -7.2 2.1 Q-8.25 3.8 -11.1 4.4 L-13.0 4.7 -21.75 4.75 -21.75 5.5 -13.8 5.5 -10.95 5.15 Q-7.85 4.45 -6.6 2.55 L-4.25 -1.25 -2.0 -1.25 -2.25 1.2 Q-2.25 2.3 -1.95 2.8 -1.65 3.55 -0.9 3.45 -0.2 3.45 1.0 2.65 3.25 1.0 4.4 1.0 L4.75 1.1 4.8 1.3 4.65 2.4 Q4.6 3.55 6.15 3.75 L14.1 4.1 20.45 4.0 20.45 3.2 14.1 3.35 9.75 3.2 6.25 2.95 5.55 2.75 5.4 2.4 5.6 1.3 Q5.6 0.8 5.25 0.5 L4.4 0.25 Q3.0 0.25 0.55 2.0 -0.35 2.7 -0.9 2.7 L-1.3 2.45 -1.5 1.2 -1.2 -1.25 8.7 -1.25 9.65 -1.35 11.6 -1.9 Q14.7 -2.95 15.35 -5.7 15.55 -6.85 16.15 -7.75 L16.6 -8.25 16.75 -8.35 Q17.15 -7.95 17.15 -6.25 L17.1 -5.1 Q17.2 -3.35 17.65 -2.55 18.25 -1.65 19.3 -1.65 20.65 -1.7 21.75 -2.7 L20.75 -3.9 20.2 -3.5 19.3 -3.2 18.95 -3.4 Q18.65 -3.8 18.65 -5.1 L18.7 -6.25 Q18.7 -7.8 18.3 -8.75 17.8 -9.95 16.8 -9.85 15.8 -9.85 14.9 -8.65 14.15 -7.45 13.85 -6.0 13.5 -4.25 11.1 -3.3 L9.4 -2.85 -0.9 -2.8" fill="#000000" fill-rule="evenodd" stroke="none"/>
    <path d="M7.55 15.9 Q8.65 15.9 9.45 16.7 10.25 17.45 10.25 18.55 10.25 19.7 9.45 20.45 8.7 21.25 7.55 21.25 6.45 21.25 5.65 20.45 4.85 19.7 4.85 18.55 4.85 17.45 5.65 16.7 6.45 15.9 7.55 15.9" fill="#000000" fill-rule="evenodd" stroke="none"/>
    <path d="M15.0 20.45 Q14.2 19.7 14.2 18.55 14.2 17.45 15.0 16.7 15.8 15.9 16.9 15.9 18.0 15.9 18.75 16.7 19.55 17.45 19.55 18.55 19.55 19.65 18.75 20.45 18.0 21.25 16.9 21.25 15.8 21.25 15.0 20.45" fill="#000000" fill-rule="evenodd" stroke="none"/>
    <path d="M-0.45 -6.2 L-0.35 -5.7 -0.65 -4.0 -0.9 -2.8 9.4 -2.85 11.1 -3.3 Q13.5 -4.25 13.85 -6.0 14.15 -7.45 14.9 -8.65 15.8 -9.85 16.8 -9.85 17.8 -9.95 18.3 -8.75 18.7 -7.8 18.7 -6.25 L18.65 -5.1 Q18.65 -3.8 18.95 -3.4 L19.3 -3.2 20.2 -3.5 20.75 -3.9 21.75 -2.7 Q20.65 -1.7 19.3 -1.65 18.25 -1.65 17.65 -2.55 17.2 -3.35 17.1 -5.1 L17.15 -6.25 Q17.15 -7.95 16.75 -8.35 L16.6 -8.25 16.15 -7.75 Q15.55 -6.85 15.35 -5.7 14.7 -2.95 11.6 -1.9 L9.65 -1.35 8.7 -1.25 -1.2 -1.25 -1.5 1.2 -1.3 2.45 -0.9 2.7 Q-0.35 2.7 0.55 2.0 3.0 0.25 4.4 0.25 L5.25 0.5 Q5.6 0.8 5.6 1.3 L5.4 2.4 5.55 2.75 6.25 2.95 9.75 3.2 14.1 3.35 20.45 3.2 20.45 4.0 14.1 4.1 6.15 3.75 Q4.6 3.55 4.65 2.4 L4.8 1.3 4.75 1.1 4.4 1.0 Q3.25 1.0 1.0 2.65 -0.2 3.45 -0.9 3.45 -1.65 3.55 -1.95 2.8 -2.25 2.3 -2.25 1.2 L-2.0 -1.25 -4.25 -1.25 -6.6 2.55 Q-7.85 4.45 -10.95 5.15 L-13.8 5.5 -21.75 5.5 -21.75 4.75 -13.0 4.7 -11.1 4.4 Q-8.25 3.8 -7.2 2.1 L-5.15 -1.25 -20.7 -1.25 -20.7 -2.8 -4.2 -2.8 -2.4 -5.4 -1.7 -6.15 Q-1.4 -6.5 -1.0 -6.55 -0.6 -6.55 -0.45 -6.2 M-1.15 -5.65 L-1.2 -5.6 -1.8 -4.9 -3.3 -2.8 -1.7 -2.8 -1.4 -4.15 -1.15 -5.65" fill="#ffffff" fill-rule="evenodd" stroke="none"/>
  </g>
</svg>
