<?xml version="1.0" encoding="UTF-8" standalone="no"?>
<svg xmlns:xlink="http://www.w3.org/1999/xlink" height="69.0px" width="171.1px" xmlns="http://www.w3.org/2000/svg">
  <g transform="matrix(1.0, 0.0, 0.0, 1.0, 85.55, 34.5)">
    <path d="M1.6 -17.0 L1.6 -23.25 82.4 -23.25 82.4 -17.0 1.6 -17.0" fill="#ffffff" fill-rule="evenodd" stroke="none"/>
    <path d="M-82.4 -17.0 L-82.4 -23.25 -0.55 -23.25 -0.55 -17.0 -82.4 -17.0" fill="#ffffff" fill-rule="evenodd" stroke="none"/>
    <path d="M39.9 27.3 Q39.9 26.4 39.3 25.75 38.65 25.1 37.75 25.1 36.85 25.1 36.2 25.75 35.55 26.4 35.55 27.3 35.55 28.2 36.2 28.85 36.85 29.45 37.75 29.45 38.65 29.45 39.3 28.85 39.9 28.2 39.9 27.3 M-38.2 25.75 Q-38.85 26.4 -38.85 27.3 -38.85 28.2 -38.2 28.85 -37.6 29.45 -36.7 29.45 -35.8 29.45 -35.15 28.85 -34.55 28.2 -34.55 27.3 -34.55 26.4 -35.15 25.75 -35.8 25.1 -36.7 25.1 -37.6 25.1 -38.2 25.75 M1.6 -23.25 L1.6 -17.0 82.4 -17.0 82.4 -23.25 1.6 -23.25 M1.6 -32.35 L1.6 -26.0 79.35 -26.0 Q79.05 -28.8 76.8 -30.45 75.1 -31.75 72.25 -32.2 L70.55 -32.4 70.8 -32.35 1.6 -32.35 M-31.1 -13.85 L-0.55 3.45 29.95 -13.85 -31.1 -13.85 M-85.55 -13.85 L-85.55 -26.4 -82.25 -26.4 -81.85 -27.85 Q-81.35 -29.85 -79.8 -31.3 -76.5 -34.5 -69.2 -34.5 L71.05 -34.5 Q74.1 -34.25 76.15 -33.35 78.15 -32.5 79.5 -30.9 81.15 -29.0 81.5 -26.4 L85.55 -26.4 85.55 -13.85 40.95 -13.85 4.95 6.55 31.55 21.6 Q33.95 18.6 37.75 18.6 41.0 18.6 43.35 20.95 45.7 23.25 45.7 26.55 45.7 29.85 43.35 32.2 41.0 34.5 37.75 34.5 34.55 34.5 32.2 32.25 29.9 30.05 29.8 26.85 L-0.55 9.65 -28.8 25.65 -28.75 26.55 Q-28.75 29.85 -31.05 32.2 -33.4 34.5 -36.7 34.5 -40.0 34.5 -42.3 32.2 -44.65 29.85 -44.65 26.55 -44.65 23.25 -42.3 20.95 -40.0 18.6 -36.7 18.6 -33.55 18.6 -31.25 20.8 L-6.05 6.55 -42.1 -13.85 -85.55 -13.85 M-79.7 -27.45 L-80.1 -26.0 -0.55 -26.0 -0.55 -32.35 -69.2 -32.35 Q-78.0 -32.25 -79.65 -27.6 L-79.7 -27.5 -79.7 -27.45 M-82.4 -23.25 L-82.4 -17.0 -0.55 -17.0 -0.55 -23.25 -82.4 -23.25" fill="#000000" fill-rule="evenodd" stroke="none"/>
    <path d="M1.6 -26.0 L1.6 -32.35 70.9 -32.35 72.25 -32.2 Q75.1 -31.75 76.8 -30.45 79.05 -28.8 79.35 -26.0 L1.6 -26.0" fill="#ffffff" fill-rule="evenodd" stroke="none"/>
    <path d="M-80.1 -26.0 L-79.7 -27.45 -79.7 -27.5 -79.65 -27.6 Q-78.0 -32.25 -69.2 -32.35 L-0.55 -32.35 -0.55 -26.0 -80.1 -26.0" fill="#ffffff" fill-rule="evenodd" stroke="none"/>
    <path d="M-38.2 28.85 Q-38.85 28.2 -38.85 27.3 -38.85 26.4 -38.2 25.75 -37.6 25.1 -36.7 25.1 -35.8 25.1 -35.15 25.75 -34.55 26.4 -34.55 27.3 -34.55 28.2 -35.15 28.85 -35.8 29.45 -36.7 29.45 -37.6 29.45 -38.2 28.85" fill="#ffffff" fill-rule="evenodd" stroke="none"/>
    <path d="M35.55 27.3 Q35.55 26.4 36.2 25.75 36.85 25.1 37.75 25.1 38.65 25.1 39.3 25.75 39.9 26.4 39.9 27.3 39.9 28.2 39.3 28.85 38.65 29.45 37.75 29.45 36.85 29.45 36.2 28.85 35.55 28.2 35.55 27.3" fill="#ffffff" fill-rule="evenodd" stroke="none"/>
  </g>
</svg>
