<?xml version="1.0" encoding="UTF-8" standalone="no"?>
<svg xmlns:xlink="http://www.w3.org/1999/xlink" height="46.35px" width="65.95px" xmlns="http://www.w3.org/2000/svg">
  <g transform="matrix(1.0, 0.0, 0.0, 1.0, 32.95, 23.15)">
    <path d="M12.2 -9.0 Q15.15 -5.7 17.3 1.15 18.65 5.55 18.85 9.35 19.05 12.75 18.3 14.2 L17.8 14.7 Q17.25 14.95 16.15 13.85 16.25 9.3 15.0 1.6 13.95 -4.45 12.2 -9.0" fill="#ffffff" fill-rule="evenodd" stroke="none"/>
    <path d="M5.9 -12.85 L8.45 -11.65 Q11.25 -6.8 12.75 2.0 14.0 9.05 13.9 13.65 13.8 17.5 12.85 18.65 12.55 19.0 12.2 19.0 10.7 19.05 9.65 17.85 8.7 16.7 7.9 14.2 8.25 10.8 8.15 2.55 8.05 -6.75 5.9 -12.85" fill="#ffffff" fill-rule="evenodd" stroke="none"/>
    <path d="M3.1 -13.75 Q5.75 -8.2 5.9 2.55 6.05 12.15 5.45 15.75 4.6 20.75 1.8 20.95 1.2 20.95 0.7 20.5 -0.85 19.0 -1.8 13.8 -0.8 10.1 0.25 2.2 1.55 -7.9 -0.05 -14.2 L0.05 -14.3 3.1 -13.75" fill="#ffffff" fill-rule="evenodd" stroke="none"/>
    <path d="M-6.1 -14.3 L-2.45 -14.5 Q-1.65 -12.0 -1.5 -7.9 -1.3 -3.4 -2.0 1.9 -2.85 8.3 -3.6 11.75 -5.05 18.05 -6.95 19.35 L-8.4 19.55 Q-11.2 18.8 -11.3 12.15 -9.7 8.5 -7.65 0.4 -5.4 -8.6 -6.1 -14.3" fill="#ffffff" fill-rule="evenodd" stroke="none"/>
    <path d="M-12.7 -13.0 L-8.3 -13.95 Q-8.15 -12.95 -8.15 -11.65 -8.15 -6.75 -9.8 -0.15 -11.25 5.6 -12.3 8.6 -14.2 13.95 -15.95 14.9 L-17.25 14.95 Q-19.85 14.0 -18.75 6.65 -16.9 3.6 -15.0 -2.0 -13.0 -8.0 -13.0 -12.4 L-12.7 -13.0" fill="#ffffff" fill-rule="evenodd" stroke="none"/>
    <path d="M-15.1 -12.35 Q-15.1 -8.2 -17.0 -2.7 -20.3 7.15 -23.0 8.3 L-24.2 8.25 Q-25.05 7.85 -25.3 6.25 -25.6 4.4 -25.05 1.4 -24.25 0.05 -22.4 -3.8 -20.75 -7.15 -19.85 -10.7 L-15.1 -12.35" fill="#ffffff" fill-rule="evenodd" stroke="none"/>
    <path d="M-22.25 -9.65 Q-22.95 -7.35 -24.25 -4.65 -25.9 -1.1 -26.85 0.5 -28.4 3.15 -29.5 3.55 L-30.45 3.45 Q-32.15 2.6 -28.5 -5.5 -26.2 -7.7 -22.25 -9.65" fill="#ffffff" fill-rule="evenodd" stroke="none"/>
    <path d="M-9.5 -16.9 Q-18.4 -15.05 -24.65 -11.85 -16.2 -20.8 -3.0 -20.0 8.2 -19.35 14.85 -10.7 4.75 -19.8 -9.5 -16.9" fill="#ffffff" fill-rule="evenodd" stroke="none"/>
    <path d="M-3.0 -20.0 Q-16.2 -20.8 -24.65 -11.85 -18.4 -15.05 -9.5 -16.9 4.75 -19.8 14.85 -10.7 8.2 -19.35 -3.0 -20.0 M-22.25 -9.65 Q-26.2 -7.7 -28.5 -5.5 -32.15 2.6 -30.45 3.45 L-29.5 3.55 Q-28.4 3.15 -26.85 0.5 -25.9 -1.1 -24.25 -4.65 -22.95 -7.35 -22.25 -9.65 M-17.0 -2.7 Q-15.1 -8.2 -15.1 -12.35 L-19.85 -10.7 Q-20.75 -7.15 -22.4 -3.8 -24.25 0.05 -25.05 1.4 -25.6 4.4 -25.3 6.25 -25.05 7.85 -24.2 8.25 L-23.0 8.3 Q-20.3 7.15 -17.0 -2.7 M-12.7 -13.0 L-13.0 -12.4 Q-13.0 -8.0 -15.0 -2.0 -16.9 3.6 -18.75 6.65 -19.85 14.0 -17.25 14.95 L-15.95 14.9 Q-14.2 13.95 -12.3 8.6 -11.25 5.6 -9.8 -0.15 -8.15 -6.75 -8.15 -11.65 -8.15 -12.95 -8.3 -13.95 L-12.7 -13.0 M-2.45 -14.5 L-6.1 -14.3 Q-5.4 -8.6 -7.65 0.4 -9.7 8.5 -11.3 12.15 -11.2 18.8 -8.4 19.55 L-6.95 19.35 Q-5.05 18.05 -3.6 11.75 -2.85 8.3 -2.0 1.9 -1.3 -3.4 -1.5 -7.9 -1.65 -12.0 -2.45 -14.5 M1.8 20.95 Q4.6 20.75 5.45 15.75 6.05 12.15 5.9 2.55 5.75 -8.2 3.1 -13.75 L0.05 -14.3 -0.05 -14.2 Q1.55 -7.9 0.25 2.2 -0.8 10.1 -1.8 13.8 -0.85 19.0 0.7 20.5 1.2 20.95 1.8 20.95 M7.15 18.15 Q5.75 22.95 1.95 23.2 0.45 23.3 -0.85 22.15 -2.3 20.7 -3.15 17.85 -4.25 20.25 -5.7 21.2 -7.25 22.2 -9.0 21.75 -12.5 20.75 -13.3 15.55 -14.25 16.5 -14.9 16.85 L-18.05 17.05 Q-21.55 15.7 -21.3 9.7 L-22.15 10.2 -25.05 10.15 Q-27.55 8.95 -27.5 4.6 -28.15 5.15 -28.85 5.4 L-31.3 5.25 Q-34.3 3.8 -31.75 -2.9 L-32.0 -3.0 -32.8 -3.8 Q-33.05 -4.4 -32.85 -4.95 L-30.85 -8.7 Q-28.15 -13.05 -24.35 -16.25 L-22.55 -17.65 Q-14.2 -23.75 -2.8 -23.1 10.35 -22.3 17.7 -12.15 21.75 -6.6 24.55 3.55 L25.6 6.8 Q26.65 9.55 27.95 10.85 29.4 12.4 31.15 12.4 L31.65 12.35 32.45 12.45 Q33.15 12.85 32.95 14.15 32.75 15.45 30.75 16.1 L28.85 16.5 Q27.2 16.75 25.8 16.5 22.9 15.9 20.95 13.25 L20.3 15.25 Q19.65 16.45 18.45 16.9 17.3 17.25 15.9 16.5 15.6 18.8 14.6 20.1 13.7 21.2 12.25 21.3 9.1 21.35 7.15 18.15 M18.85 9.35 Q18.65 5.55 17.3 1.15 15.15 -5.7 12.2 -9.0 13.95 -4.45 15.0 1.6 16.25 9.3 16.15 13.85 17.25 14.95 17.8 14.7 L18.3 14.2 Q19.05 12.75 18.85 9.35 M8.45 -11.65 L5.9 -12.85 Q8.05 -6.75 8.15 2.55 8.25 10.8 7.9 14.2 8.7 16.7 9.65 17.85 10.7 19.05 12.2 19.0 12.55 19.0 12.85 18.65 13.8 17.5 13.9 13.65 14.0 9.05 12.75 2.0 11.25 -6.8 8.45 -11.65" fill="#000000" fill-rule="evenodd" stroke="none"/>
  </g>
</svg>
