<?xml version="1.0" encoding="UTF-8" standalone="no"?>
<svg xmlns:xlink="http://www.w3.org/1999/xlink" height="66.0px" width="66.0px" xmlns="http://www.w3.org/2000/svg">
  <g transform="matrix(1.0, 0.0, 0.0, 1.0, 33.0, 33.0)">
    <path d="M-9.55 -19.7 Q-10.95 -19.7 -11.9 -17.45 -12.9 -15.25 -12.9 -12.1 -12.9 -8.95 -11.9 -6.7 -10.95 -4.5 -9.55 -4.5 -8.2 -4.5 -7.2 -6.7 -6.25 -8.95 -6.25 -12.1 -6.25 -15.25 -7.2 -17.45 -8.2 -19.7 -9.55 -19.7 M9.2 -19.7 Q7.85 -19.7 6.9 -17.45 5.9 -15.25 5.9 -12.1 5.9 -8.95 6.9 -6.7 7.85 -4.5 9.2 -4.5 10.6 -4.5 11.55 -6.7 12.5 -8.95 12.5 -12.1 12.5 -15.25 11.55 -17.45 10.6 -19.7 9.2 -19.7 M-19.15 1.8 Q-19.0 1.5 -19.1 1.2 L-19.5 0.7 Q-20.75 0.05 -22.0 0.05 -23.25 0.05 -24.4 0.6 L-25.35 1.15 -25.65 1.65 -25.5 2.25 Q-25.25 2.6 -24.85 2.6 -24.55 2.6 -24.35 2.4 L-24.25 2.3 Q-23.65 2.0 -23.15 1.85 -22.55 6.8 -19.85 11.35 -17.2 15.9 -12.8 18.55 -7.35 21.85 0.2 21.8 L0.3 21.8 Q7.8 21.8 13.0 18.4 17.25 15.65 19.6 10.95 21.75 6.8 22.25 1.7 L23.35 2.65 Q23.6 2.95 23.95 2.95 L24.45 2.75 Q25.05 2.3 24.6 1.65 22.95 -0.45 20.25 -0.45 L18.75 -0.25 Q18.4 -0.15 18.25 0.15 L18.2 0.75 Q18.35 1.5 19.2 1.3 L19.45 1.25 20.15 1.2 19.9 3.2 Q18.8 9.45 15.3 13.55 10.0 19.65 0.2 19.65 -12.3 19.65 -18.0 10.25 -19.8 7.2 -20.6 3.75 L-21.0 1.8 -20.25 2.15 -19.6 2.2 -19.15 1.8 M-29.25 0.0 Q-29.2 -12.1 -20.65 -20.7 -12.1 -29.25 0.0 -29.25 12.1 -29.25 20.65 -20.7 29.2 -12.1 29.25 0.0 29.2 12.1 20.65 20.65 12.1 29.2 0.0 29.25 -12.1 29.2 -20.65 20.65 -29.2 12.1 -29.25 0.0" fill="#ffffff" fill-rule="evenodd" stroke="none"/>
    <path d="M-29.25 0.0 Q-29.2 12.1 -20.65 20.65 -12.1 29.2 0.0 29.25 12.1 29.2 20.65 20.65 29.2 12.1 29.25 0.0 29.2 -12.1 20.65 -20.7 12.1 -29.25 0.0 -29.25 -12.1 -29.25 -20.65 -20.7 -29.2 -12.1 -29.25 0.0 M-23.35 23.35 Q-33.0 13.65 -33.0 0.0 -33.0 -13.7 -23.35 -23.35 -13.7 -33.0 0.0 -33.0 13.7 -33.0 23.35 -23.35 33.0 -13.7 33.0 0.0 33.0 13.65 23.35 23.35 13.7 33.0 0.0 33.0 -13.7 33.0 -23.35 23.35" fill="#000000" fill-rule="evenodd" stroke="none"/>
    <path d="M-9.55 -4.5 Q-10.95 -4.5 -11.9 -6.7 -12.9 -8.95 -12.9 -12.1 -12.9 -15.25 -11.9 -17.45 -10.95 -19.7 -9.55 -19.7 -8.2 -19.7 -7.2 -17.45 -6.25 -15.25 -6.25 -12.1 -6.25 -8.95 -7.2 -6.7 -8.2 -4.5 -9.55 -4.5" fill="#000000" fill-rule="evenodd" stroke="none"/>
    <path d="M9.2 -4.5 Q7.85 -4.5 6.9 -6.7 5.9 -8.95 5.9 -12.1 5.9 -15.25 6.9 -17.45 7.85 -19.7 9.2 -19.7 10.6 -19.7 11.55 -17.45 12.5 -15.25 12.5 -12.1 12.5 -8.95 11.55 -6.7 10.6 -4.5 9.2 -4.5" fill="#000000" fill-rule="evenodd" stroke="none"/>
    <path d="M-25.65 1.65 L-25.35 1.15 -24.4 0.6 Q-23.25 0.05 -22.0 0.05 -20.75 0.05 -19.5 0.7 L-19.1 1.2 Q-19.0 1.5 -19.15 1.8 L-19.6 2.2 -20.25 2.15 -21.0 1.8 -20.6 3.75 Q-19.8 7.2 -18.0 10.25 -12.3 19.65 0.2 19.65 10.0 19.65 15.3 13.55 18.8 9.45 19.9 3.2 L20.15 1.2 19.45 1.25 19.2 1.3 Q18.35 1.5 18.2 0.75 L18.25 0.15 Q18.4 -0.15 18.75 -0.25 L20.25 -0.45 Q22.95 -0.45 24.6 1.65 25.05 2.3 24.45 2.75 L23.95 2.95 Q23.6 2.95 23.35 2.65 L22.25 1.7 Q21.75 6.8 19.6 10.95 17.25 15.65 13.0 18.4 7.8 21.8 0.3 21.8 L0.2 21.8 Q-7.35 21.85 -12.8 18.55 -17.2 15.9 -19.85 11.35 -22.55 6.8 -23.15 1.85 -23.65 2.0 -24.25 2.3 L-24.35 2.4 Q-24.55 2.6 -24.85 2.6 -25.25 2.6 -25.5 2.25 L-25.65 1.65" fill="#000000" fill-rule="evenodd" stroke="none"/>
  </g>
</svg>
