<?xml version="1.0" encoding="UTF-8" standalone="no"?>
<svg xmlns:xlink="http://www.w3.org/1999/xlink" height="39.75px" width="51.25px" xmlns="http://www.w3.org/2000/svg">
  <g transform="matrix(1.0, 0.0, 0.0, 1.0, 25.6, 19.85)">
    <path d="M11.05 -12.95 Q15.35 -12.7 18.3 -9.55 21.25 -6.45 21.3 -2.1 L21.3 7.65 13.15 7.65 13.15 -7.4 13.1 -7.45 Q12.95 -9.3 12.1 -11.25 L11.05 -12.95" fill="#ffffff" fill-rule="evenodd" stroke="none"/>
    <path d="M10.25 -10.4 L10.95 -8.2 11.15 -7.3 11.15 7.65 -1.85 7.65 -1.85 -6.0 Q-1.85 -9.1 0.65 -11.4 L2.4 -12.7 3.0 -13.0 8.0 -13.0 Q9.4 -12.35 10.25 -10.4" fill="#ffffff" fill-rule="evenodd" stroke="none"/>
    <path d="M-0.55 -13.0 L-0.7 -12.85 Q-3.9 -9.95 -3.85 -6.0 L-3.85 7.65 -11.85 7.65 -11.85 -2.1 Q-11.85 -6.6 -8.65 -9.8 -5.5 -13.0 -1.0 -13.0 L-0.55 -13.0" fill="#ffffff" fill-rule="evenodd" stroke="none"/>
    <path d="M-0.7 -12.85 L-0.55 -13.0 -1.0 -13.0 Q-5.5 -13.0 -8.65 -9.8 -11.85 -6.6 -11.85 -2.1 L-11.85 7.65 -3.85 7.65 -3.85 -6.0 Q-3.9 -9.95 -0.7 -12.85 M10.95 -8.2 L10.25 -10.4 Q9.4 -12.35 8.0 -13.0 L3.0 -13.0 2.4 -12.7 0.65 -11.4 Q-1.85 -9.1 -1.85 -6.0 L-1.85 7.65 11.15 7.65 11.15 -7.3 10.95 -8.2 M11.05 -12.95 L12.1 -11.25 Q12.95 -9.3 13.1 -7.45 L13.15 -7.4 13.15 7.65 21.3 7.65 21.3 -2.1 Q21.25 -6.45 18.3 -9.55 15.35 -12.7 11.05 -12.95 M21.2 -12.9 Q25.65 -8.45 25.65 -2.1 L25.65 12.0 25.3 12.0 Q24.75 14.25 17.6 16.4 10.4 18.6 0.35 19.45 -10.2 20.4 -17.8 19.4 -25.4 18.4 -25.6 16.05 -25.75 14.7 -23.2 13.3 -20.7 11.95 -16.2 10.75 L-16.2 -2.1 Q-16.2 -8.45 -11.75 -12.9 -7.3 -17.35 -1.0 -17.35 L-0.05 -17.35 Q-0.05 -18.35 1.2 -19.1 2.45 -19.85 4.15 -19.85 5.85 -19.85 7.1 -19.1 8.3 -18.35 8.3 -17.35 L10.4 -17.35 Q16.7 -17.35 21.2 -12.9" fill="#000000" fill-rule="evenodd" stroke="none"/>
  </g>
</svg>
