<?xml version="1.0" encoding="UTF-8" standalone="no"?>
<svg xmlns:xlink="http://www.w3.org/1999/xlink" height="116.0px" width="78.0px" xmlns="http://www.w3.org/2000/svg">
  <g transform="matrix(1.0, 0.0, 0.0, 1.0, 39.0, 58.0)">
    <path d="M-0.5 -55.0 Q14.3 -55.0 25.1 -38.85 36.0 -22.6 36.0 0.05 36.0 22.65 25.1 38.9 14.3 55.0 -0.5 55.0 -15.25 55.0 -25.6 38.9 -36.0 22.8 -36.0 0.05 -36.0 -22.75 -25.6 -38.85 -15.25 -55.0 -0.5 -55.0" fill="#ffffff" fill-rule="evenodd" stroke="none"/>
    <path d="M-0.5 -55.0 Q14.3 -55.0 25.1 -38.85 36.0 -22.6 36.0 0.05 36.0 22.65 25.1 38.9 14.3 55.0 -0.5 55.0 -15.25 55.0 -25.6 38.9 -36.0 22.8 -36.0 0.05 -36.0 -22.75 -25.6 -38.85 -15.25 -55.0 -0.5 -55.0 Z" fill="none" stroke="#000000" stroke-linecap="butt" stroke-linejoin="miter" stroke-width="6.0"/>
  </g>
</svg>
