<?xml version="1.0" encoding="UTF-8" standalone="no"?>
<svg xmlns:xlink="http://www.w3.org/1999/xlink" height="17.2px" width="57.0px" xmlns="http://www.w3.org/2000/svg">
  <g transform="matrix(1.0, 0.0, 0.0, 1.0, 28.5, 8.6)">
    <path d="M17.15 5.3 Q16.6 5.55 16.9 6.15 17.1 6.5 17.45 6.5 L17.7 6.45 Q19.75 5.65 21.75 3.65 25.75 -0.35 25.75 -6.3 25.75 -6.85 25.2 -6.95 24.6 -6.95 24.5 -6.45 L24.1 -5.05 Q23.55 -3.3 22.8 -1.7 20.5 3.35 17.15 5.3 M0.0 -1.15 Q-1.5 3.15 -5.25 5.85 -9.1 8.6 -13.8 8.6 -19.9 8.6 -24.2 4.3 -28.5 0.0 -28.5 -6.05 L-28.25 -8.6 28.3 -8.6 28.5 -6.05 Q28.5 0.05 24.2 4.3 19.95 8.6 13.85 8.6 9.1 8.6 5.3 5.85 1.55 3.2 0.0 -1.15 M-6.35 3.65 Q-2.35 -0.35 -2.35 -6.3 -2.35 -6.85 -2.9 -6.95 -3.45 -6.95 -3.6 -6.45 L-4.0 -5.05 Q-4.55 -3.3 -5.25 -1.7 -7.65 3.45 -10.95 5.3 -11.5 5.55 -11.2 6.15 L-10.6 6.5 -10.4 6.45 Q-8.35 5.65 -6.35 3.65" fill="#000000" fill-rule="evenodd" stroke="none"/>
    <path d="M-2.9 -6.95 Q-2.35 -6.85 -2.35 -6.3 -2.35 -0.35 -6.35 3.65 -8.35 5.65 -10.4 6.45 L-10.6 6.5 -11.2 6.15 Q-11.5 5.55 -10.95 5.3 -7.65 3.45 -5.25 -1.7 -4.55 -3.3 -4.0 -5.05 L-3.6 -6.45 Q-3.45 -6.95 -2.9 -6.95" fill="#ffffff" fill-rule="evenodd" stroke="none"/>
    <path d="M17.45 6.5 Q17.1 6.5 16.9 6.15 16.6 5.55 17.15 5.3 20.5 3.35 22.8 -1.7 23.55 -3.3 24.1 -5.05 L24.5 -6.45 Q24.6 -6.95 25.2 -6.95 25.75 -6.85 25.75 -6.3 25.75 -0.35 21.75 3.65 19.75 5.65 17.7 6.45 L17.45 6.5" fill="#ffffff" fill-rule="evenodd" stroke="none"/>
  </g>
</svg>
