<?xml version="1.0" encoding="UTF-8" standalone="no"?>
<svg xmlns:xlink="http://www.w3.org/1999/xlink" height="41.0px" width="23.5px" xmlns="http://www.w3.org/2000/svg">
  <g transform="matrix(1.0, 0.0, 0.0, 1.0, 11.75, 20.5)">
    <path d="M8.8 -2.95 L8.8 0.0 11.75 0.0 11.75 2.9 2.95 2.9 2.95 8.75 5.9 8.75 5.9 14.65 8.8 14.65 8.8 20.5 2.9 20.5 2.9 14.65 0.0 14.65 0.0 8.8 -2.95 8.8 -2.95 5.85 -5.85 5.85 -5.85 8.8 -8.8 8.8 -8.8 11.7 -11.75 11.7 -11.75 -20.5 -8.8 -20.5 -8.8 -17.6 -5.85 -17.6 -5.85 -14.65 -2.95 -14.65 -2.95 -11.75 0.0 -11.75 0.0 -8.8 2.95 -8.8 2.95 -5.85 5.9 -5.85 5.9 -2.95 8.8 -2.95" fill="#000000" fill-rule="evenodd" stroke="none"/>
  </g>
</svg>
