<?xml version="1.0" encoding="UTF-8" standalone="no"?>
<svg xmlns:xlink="http://www.w3.org/1999/xlink" height="19.65px" width="47.2px" xmlns="http://www.w3.org/2000/svg">
  <g transform="matrix(1.0, 0.0, 0.0, 1.0, 23.6, 9.8)">
    <path d="M18.05 -6.15 L18.05 6.2 9.65 6.65 1.05 -7.1 18.05 -6.15" fill="#ffffff" fill-rule="evenodd" stroke="none"/>
    <path d="M-9.85 7.75 Q-12.05 7.75 -13.75 6.55 -15.25 5.35 -15.25 3.9 L-15.25 -3.9 Q-15.25 -5.3 -13.75 -6.5 -12.15 -7.7 -9.75 -7.7 L-4.5 -7.45 2.85 7.05 -9.85 7.75" fill="#ffffff" fill-rule="evenodd" stroke="none"/>
    <path d="M21.55 -6.0 L21.55 6.0 18.95 6.15 18.95 -6.15 21.55 -6.0" fill="#ffffff" fill-rule="evenodd" stroke="none"/>
    <path d="M18.95 -6.15 L18.95 6.15 21.55 6.0 21.55 -6.0 18.95 -6.15 M9.65 6.65 L18.05 6.2 18.05 -6.15 1.05 -7.1 9.65 6.65 M-20.1 2.3 Q-19.55 2.3 -19.55 1.8 L-19.55 -2.55 Q-19.55 -3.1 -20.1 -3.1 -20.6 -3.1 -20.6 -2.55 L-20.6 1.8 Q-20.6 2.3 -20.1 2.3 M-4.5 -7.45 L-9.75 -7.7 Q-12.15 -7.7 -13.75 -6.5 -15.25 -5.3 -15.25 -3.9 L-15.25 3.9 Q-15.25 5.35 -13.75 6.55 -12.05 7.75 -9.85 7.75 L2.85 7.05 -4.5 -7.45 M-17.25 -4.9 L-17.25 -4.4 Q-17.0 -6.75 -14.8 -8.3 -12.65 -9.8 -9.7 -9.8 L23.6 -7.95 23.6 8.0 -9.75 9.85 Q-12.7 9.85 -14.85 8.3 -17.1 6.7 -17.3 4.25 L-23.6 3.8 -23.6 -4.4 -17.25 -4.9" fill="#000000" fill-rule="evenodd" stroke="none"/>
    <path d="M-20.1 -3.1 Q-19.55 -3.1 -19.55 -2.55 L-19.55 1.8 Q-19.55 2.3 -20.1 2.3 -20.6 2.3 -20.6 1.8 L-20.6 -2.55 Q-20.6 -3.1 -20.1 -3.1" fill="#ffffff" fill-rule="evenodd" stroke="none"/>
  </g>
</svg>
