<?xml version="1.0" encoding="UTF-8" standalone="no"?>
<svg xmlns:xlink="http://www.w3.org/1999/xlink" height="73.1px" width="55.15px" xmlns="http://www.w3.org/2000/svg">
  <g transform="matrix(1.0, 0.0, 0.0, 1.0, 27.6, 36.55)">
    <path d="M12.8 -29.3 Q18.4 -26.05 21.55 -22.4 24.7 -18.75 23.6 -16.85 22.5 -14.95 17.8 -15.85 13.0 -16.8 7.45 -20.05 1.85 -23.3 -1.3 -26.9 -4.45 -30.55 -3.35 -32.45 -2.25 -34.35 2.5 -33.45 7.2 -32.5 12.8 -29.3 M19.6 -21.55 Q15.6 -25.65 8.85 -28.85 L2.85 -31.3 2.1 -31.2 1.6 -30.65 Q1.45 -30.25 1.65 -29.85 L2.25 -29.4 3.9 -28.8 7.95 -27.05 Q14.4 -24.0 18.15 -20.15 18.45 -19.85 18.9 -19.85 19.3 -19.85 19.6 -20.15 L19.9 -20.85 19.6 -21.55" fill="#ffffff" fill-rule="evenodd" stroke="none"/>
    <path d="M14.15 -31.6 Q21.25 -27.5 25.0 -22.35 28.75 -17.25 26.95 -14.15 25.55 -11.7 21.1 -11.6 18.55 -8.5 14.9 -6.95 11.25 -5.4 7.3 -5.7 5.15 -4.3 1.95 -4.9 L1.9 -4.75 1.85 -4.65 1.85 -4.6 1.75 -4.5 -15.95 24.75 -15.85 24.75 -21.4 34.0 -22.0 34.65 -22.25 35.1 Q-22.85 36.15 -24.0 36.45 -25.2 36.75 -26.2 36.1 -27.2 35.5 -27.5 34.35 -27.8 33.2 -27.2 32.15 L-3.1 -7.6 -2.95 -7.75 Q-5.0 -10.15 -4.9 -12.75 -7.1 -16.05 -7.6 -19.95 -8.05 -23.95 -6.65 -27.7 -8.8 -31.55 -7.4 -34.0 -5.55 -37.1 0.75 -36.4 7.05 -35.7 14.15 -31.6 M21.55 -22.4 Q18.4 -26.05 12.8 -29.3 7.2 -32.5 2.5 -33.45 -2.25 -34.35 -3.35 -32.45 -4.45 -30.55 -1.3 -26.9 1.85 -23.3 7.45 -20.05 13.0 -16.8 17.8 -15.85 22.5 -14.95 23.6 -16.85 24.7 -18.75 21.55 -22.4" fill="#000000" fill-rule="evenodd" stroke="none"/>
    <path d="M18.15 -20.15 Q14.4 -24.0 7.95 -27.05 L3.9 -28.8 2.25 -29.4 1.65 -29.85 Q1.45 -30.25 1.6 -30.65 L2.1 -31.2 2.85 -31.3 8.85 -28.85 Q15.6 -25.65 19.6 -21.55 L19.9 -20.85 19.6 -20.15 Q19.3 -19.85 18.9 -19.85 18.45 -19.85 18.15 -20.15" fill="#000000" fill-rule="evenodd" stroke="none"/>
  </g>
</svg>
