<?xml version="1.0" encoding="UTF-8" standalone="no"?>
<svg xmlns:xlink="http://www.w3.org/1999/xlink" height="40.5px" width="31.05px" xmlns="http://www.w3.org/2000/svg">
  <g transform="matrix(1.0, 0.0, 0.0, 1.0, 15.5, 20.25)">
    <path d="M10.9 -12.55 Q10.95 -9.65 10.3 -7.25 8.9 -1.6 4.45 0.05 7.9 2.0 9.7 7.7 10.7 10.9 11.0 14.05 L13.25 14.15 15.4 19.95 -12.9 20.25 -13.55 13.1 -9.95 13.25 Q-10.15 10.1 -9.4 7.0 -8.05 1.55 -4.0 -0.15 -7.8 -2.05 -9.75 -7.95 -10.6 -10.35 -10.95 -13.15 L-15.5 -13.3 -14.0 -19.85 14.8 -20.25 15.55 -12.45 10.9 -12.55 M0.7 -0.05 L0.5 -0.05 0.7 7.65 Q4.15 7.75 7.3 11.15 L7.9 15.15 -7.1 14.65 -6.5 10.65 -5.35 9.65 Q-3.9 8.55 -2.3 8.05 L-0.85 7.7 -0.65 0.0 Q-6.05 0.45 -7.45 7.5 -8.25 11.45 -7.75 15.45 L8.9 16.0 Q8.85 12.1 7.75 8.15 5.65 0.25 0.7 -0.05 M0.5 -1.15 L0.5 -0.15 Q6.2 -0.4 7.75 -7.7 8.2 -9.95 8.2 -12.65 L-8.2 -13.1 -7.5 -8.35 Q-5.45 -0.65 -0.65 -0.15 L-0.65 -1.2 -1.35 -1.3 Q-3.05 -2.0 -4.45 -4.0 L-5.5 -5.85 6.2 -5.15 Q4.35 -1.25 0.5 -1.15" fill="#000000" fill-rule="evenodd" stroke="none"/>
    <path d="M0.5 -1.15 Q4.35 -1.25 6.2 -5.15 L-5.5 -5.85 -4.45 -4.0 Q-3.05 -2.0 -1.35 -1.3 L-0.65 -1.2 -0.65 -0.15 Q-5.45 -0.65 -7.5 -8.35 L-8.2 -13.1 8.2 -12.65 Q8.2 -9.95 7.75 -7.7 6.2 -0.4 0.5 -0.15 L0.5 -1.15 M0.7 -0.05 Q5.65 0.25 7.75 8.15 8.85 12.1 8.9 16.0 L-7.75 15.45 Q-8.25 11.45 -7.45 7.5 -6.05 0.45 -0.65 0.0 L-0.85 7.7 -2.3 8.05 Q-3.9 8.55 -5.35 9.65 L-6.5 10.65 -7.1 14.65 7.9 15.15 7.3 11.15 Q4.15 7.75 0.7 7.65 L0.5 -0.05 0.7 -0.05" fill="#ffffff" fill-rule="evenodd" stroke="none"/>
  </g>
</svg>
