<?xml version="1.0" encoding="UTF-8" standalone="no"?>
<svg xmlns:xlink="http://www.w3.org/1999/xlink" height="57.4px" width="57.4px" xmlns="http://www.w3.org/2000/svg">
  <g transform="matrix(1.0, 0.0, 0.0, 1.0, 28.7, 28.7)">
    <path d="M28.7 -11.9 L17.9 -2.15 Q17.45 -7.1 14.55 -11.2 L28.7 -11.9" fill="#000000" fill-rule="evenodd" stroke="none"/>
    <path d="M3.0 -18.85 L11.85 -28.7 11.15 -14.9 Q7.55 -17.9 3.0 -18.85" fill="#000000" fill-rule="evenodd" stroke="none"/>
    <path d="M-11.25 -16.2 L-11.9 -28.7 -3.25 -19.1 Q-7.65 -18.55 -11.25 -16.2" fill="#000000" fill-rule="evenodd" stroke="none"/>
    <path d="M28.3 12.15 L13.75 11.4 Q16.8 7.35 17.45 2.35 L28.3 12.15" fill="#000000" fill-rule="evenodd" stroke="none"/>
    <path d="M-16.4 -11.25 Q-18.85 -7.75 -19.6 -3.65 L-28.7 -11.9 -16.4 -11.25" fill="#000000" fill-rule="evenodd" stroke="none"/>
    <path d="M-11.25 15.55 Q-7.4 18.1 -2.75 18.55 L-11.9 28.7 -11.25 15.55" fill="#000000" fill-rule="evenodd" stroke="none"/>
    <path d="M11.15 14.25 L11.85 28.7 2.5 18.3 Q7.4 17.4 11.15 14.25" fill="#000000" fill-rule="evenodd" stroke="none"/>
    <path d="M-19.5 3.55 Q-18.6 7.75 -15.95 11.2 L-28.7 11.85 -19.5 3.55" fill="#000000" fill-rule="evenodd" stroke="none"/>
  </g>
</svg>
