<?xml version="1.0" encoding="UTF-8" standalone="no"?>
<svg xmlns:xlink="http://www.w3.org/1999/xlink" height="97.25px" width="44.8px" xmlns="http://www.w3.org/2000/svg">
  <g transform="matrix(1.0, 0.0, 0.0, 1.0, 22.4, 48.65)">
    <path d="M16.2 -43.2 L16.45 -42.35 15.7 -40.1 Q15.2 -37.85 16.35 -37.9 17.65 -37.95 18.2 -37.05 18.7 -36.2 18.4 -35.15 18.15 -34.3 18.3 -33.9 L18.75 -33.95 Q19.15 -34.5 20.45 -34.75 21.9 -35.05 22.0 -34.0 22.2 -32.45 19.8 -31.3 L18.9 -28.6 Q18.15 -26.1 19.1 -26.85 20.15 -27.75 21.35 -27.35 22.5 -27.0 22.4 -26.05 22.3 -25.45 21.05 -25.35 20.0 -25.25 20.15 -24.9 20.8 -23.55 19.65 -22.7 19.1 -22.3 19.9 -21.25 L20.85 -20.25 20.8 -19.55 Q20.5 -18.9 19.1 -19.35 17.75 -19.8 17.0 -18.8 L16.55 -17.7 17.65 -17.3 Q18.7 -16.6 18.3 -15.4 17.95 -14.2 16.4 -13.75 L14.95 -13.55 Q13.9 -12.2 13.1 -12.05 L12.4 -11.7 12.3 -9.85 Q12.3 -6.75 12.45 -4.8 L12.6 -3.55 12.55 -1.15 12.7 0.25 Q12.95 1.15 12.45 1.35 L11.9 1.35 Q11.35 1.1 11.3 0.1 11.2 -3.0 10.85 -3.65 10.2 -4.6 10.1 -5.35 L9.65 -4.15 Q9.3 -2.2 9.5 1.35 L9.65 3.35 Q9.9 5.5 10.3 6.55 L10.5 8.35 Q10.55 10.25 9.65 10.85 L9.2 10.95 Q8.7 10.8 8.4 9.6 L8.6 8.75 8.65 7.75 Q8.8 6.8 8.35 6.05 7.8 4.0 7.0 4.0 L6.85 4.15 6.65 4.75 Q6.6 9.05 6.0 10.1 L5.9 10.7 5.9 11.95 6.0 13.45 5.9 16.6 6.0 17.35 Q6.2 18.15 6.55 18.65 L6.9 19.7 Q7.1 20.85 6.2 21.25 L5.1 21.3 Q4.05 21.05 4.1 19.65 3.95 17.85 4.35 16.15 L4.4 13.95 Q4.4 12.85 4.75 11.95 L5.0 7.25 Q5.2 4.2 5.0 3.2 L4.9 1.55 4.95 0.65 4.35 -0.55 4.1 -1.7 4.0 -2.6 Q4.15 -4.0 3.45 -4.6 2.75 -5.0 2.75 -5.8 L2.2 -5.1 Q1.6 -4.25 1.55 -3.25 1.1 0.65 0.0 2.05 L0.0 3.0 0.1 4.7 Q0.5 6.35 0.05 7.35 L-0.4 9.0 -0.55 9.9 -1.1 21.15 -0.9 24.3 Q-0.6 25.4 -1.1 27.0 L-0.1 34.55 Q0.45 43.05 0.8 43.25 L1.3 44.3 1.5 46.45 Q1.45 48.4 0.1 48.6 -0.9 48.85 -0.9 46.1 -0.9 44.25 -1.35 43.65 L-1.75 41.75 -1.85 40.05 Q-1.6 36.35 -2.05 35.35 L-2.7 32.95 Q-2.95 31.25 -2.65 29.95 -2.2 27.8 -2.6 25.75 L-2.55 24.0 -2.0 20.9 Q-1.6 19.6 -1.75 14.5 L-2.05 8.8 -2.15 1.85 Q-2.55 0.75 -2.35 -0.4 -2.2 -1.4 -3.0 -3.65 -3.9 -6.05 -4.85 -6.45 L-5.05 -6.45 -5.2 -5.9 -4.9 -3.25 -4.6 -0.15 Q-4.45 3.6 -4.05 4.2 -3.7 4.75 -3.55 5.85 -3.35 7.1 -3.8 7.65 L-4.35 7.7 Q-4.9 7.5 -4.85 6.2 -4.8 4.9 -4.9 3.55 L-5.0 2.45 Q-5.4 -4.65 -5.85 -5.6 L-7.1 -9.25 -7.75 -9.3 -8.45 -9.7 Q-9.15 -10.25 -8.95 -10.8 -8.8 -11.4 -9.0 -12.1 L-9.4 -12.9 -9.8 -13.55 Q-10.05 -13.8 -10.55 -12.85 -11.1 -11.8 -11.85 -11.55 L-12.85 -11.7 Q-13.3 -11.95 -13.4 -12.5 -13.5 -13.2 -12.75 -13.8 -12.0 -14.45 -12.1 -14.9 L-13.15 -15.85 -14.1 -16.65 -14.25 -16.9 Q-14.0 -17.35 -14.05 -17.75 -14.1 -18.6 -15.5 -18.5 L-17.85 -18.75 -18.6 -19.2 -18.8 -19.85 Q-18.8 -20.65 -17.7 -21.15 -16.65 -21.6 -16.7 -22.45 L-16.9 -23.95 Q-16.85 -24.6 -17.4 -25.4 L-17.9 -26.05 Q-18.15 -26.45 -19.7 -26.45 L-21.7 -26.6 Q-22.35 -26.85 -22.4 -27.5 -22.45 -28.2 -21.0 -28.0 -18.8 -27.75 -17.45 -28.55 L-17.5 -30.65 Q-17.5 -32.9 -17.3 -33.4 -16.9 -34.2 -17.55 -34.45 L-19.1 -34.85 Q-20.55 -35.5 -19.75 -36.75 -18.95 -38.05 -17.55 -37.1 L-16.3 -35.95 Q-15.15 -35.45 -14.1 -36.65 -13.5 -36.85 -13.25 -37.35 -12.7 -38.25 -14.2 -39.4 -15.8 -40.65 -15.9 -41.75 -15.95 -42.55 -15.05 -43.8 -14.45 -44.7 -13.15 -44.05 L-10.85 -42.85 Q-9.9 -42.55 -9.45 -43.65 L-9.15 -44.8 -9.4 -45.9 Q-9.5 -47.1 -8.9 -47.7 -8.25 -48.3 -7.6 -48.0 L-7.05 -47.55 -7.1 -46.4 Q-7.0 -45.2 -6.25 -44.95 -5.0 -44.6 -4.75 -45.85 L-4.9 -47.05 Q-4.9 -48.3 -4.3 -48.5 -3.55 -48.75 -3.15 -48.5 -2.7 -48.25 -2.8 -47.55 L-2.75 -46.35 -0.5 -46.2 Q1.3 -46.45 3.25 -45.45 L5.05 -44.35 5.85 -44.45 Q6.3 -44.65 6.15 -45.5 5.95 -46.35 6.45 -46.9 L7.0 -47.25 Q8.15 -46.85 7.7 -45.85 7.45 -45.2 7.75 -44.65 L8.25 -44.2 8.85 -44.9 Q9.2 -45.7 8.95 -46.55 8.75 -47.4 9.1 -47.9 L9.5 -48.25 Q10.4 -48.15 10.8 -47.75 11.25 -47.25 10.9 -46.4 10.45 -45.4 10.7 -43.85 11.0 -42.25 11.8 -41.8 12.45 -41.45 12.95 -41.95 13.9 -42.95 14.6 -43.3 L16.2 -43.2" fill="#000000" fill-rule="evenodd" stroke="none"/>
  </g>
</svg>
