<?xml version="1.0" encoding="UTF-8" standalone="no"?>
<svg xmlns:xlink="http://www.w3.org/1999/xlink" height="48.5px" width="14.45px" xmlns="http://www.w3.org/2000/svg">
  <g transform="matrix(1.0, 0.0, 0.0, 1.0, 7.2, 24.25)">
    <path d="M-0.7 -3.35 Q2.1 1.4 -1.2 7.85 -4.5 14.25 -3.8 19.9 -3.45 22.7 -2.45 24.25 -4.7 21.8 -6.1 18.3 -8.9 11.25 -4.6 5.95 -0.3 0.65 -1.8 -3.6 -2.25 -4.95 -3.25 -6.0 L-4.15 -6.8 -2.95 -5.95 Q-1.55 -4.8 -0.7 -3.35" fill="#000000" fill-rule="evenodd" stroke="none"/>
    <path d="M1.45 -20.65 L3.35 -24.25 2.1 -21.05 Q1.55 -17.05 4.85 -12.75 8.15 -8.45 6.95 -1.75 6.4 1.65 5.15 4.15 5.65 2.65 5.65 0.0 5.55 -5.2 2.8 -10.6 0.05 -15.95 1.45 -20.65" fill="#000000" fill-rule="evenodd" stroke="none"/>
  </g>
</svg>
