<?xml version="1.0" encoding="UTF-8" standalone="no"?>
<svg xmlns:xlink="http://www.w3.org/1999/xlink" height="42.0px" width="50.85px" xmlns="http://www.w3.org/2000/svg">
  <g transform="matrix(1.0, 0.0, 0.0, 1.0, 25.4, 21.0)">
    <path d="M-25.4 -21.0 L-11.6 -21.0 -11.6 -4.7 Q-11.6 -1.5 -9.35 0.75 -7.1 3.0 -3.9 3.0 -0.7 3.0 1.6 0.75 3.85 -1.5 3.85 -4.7 L3.85 -21.0 25.45 -21.0 25.45 21.0 -25.4 21.0 -25.4 -21.0" fill="#000000" fill-rule="evenodd" stroke="none"/>
    <path d="M-1.1 -2.7 Q-2.15 -1.7 -3.6 -1.7 -5.05 -1.7 -6.1 -2.7 -7.15 -3.75 -7.15 -5.2 -7.15 -6.65 -6.1 -7.7 -5.05 -8.75 -3.6 -8.75 -2.15 -8.75 -1.1 -7.7 -0.1 -6.65 -0.1 -5.2 -0.1 -3.75 -1.1 -2.7" fill="#000000" fill-rule="evenodd" stroke="none"/>
  </g>
</svg>
