<?xml version="1.0" encoding="UTF-8" standalone="no"?>
<svg xmlns:xlink="http://www.w3.org/1999/xlink" height="54.35px" width="60.35px" xmlns="http://www.w3.org/2000/svg">
  <g transform="matrix(1.0, 0.0, 0.0, 1.0, 30.2, 27.15)">
    <path d="M5.2 -26.55 Q11.85 -25.3 17.6 -21.5 22.25 -18.45 25.35 -13.9 28.45 -9.35 29.55 -3.9 30.7 1.55 29.65 6.95 28.65 12.35 25.6 17.0 23.1 20.8 19.4 23.3 15.7 25.8 11.25 26.75 6.8 27.65 2.45 26.8 -1.95 25.95 -5.75 23.5 -8.85 21.45 -10.9 18.45 -12.95 15.45 -13.7 11.8 -15.25 4.35 -11.05 -2.1 -7.6 -7.35 -1.45 -8.6 4.7 -9.9 9.95 -6.45 14.25 -3.6 15.3 1.45 16.35 6.55 13.55 10.85 11.2 14.4 6.95 15.35 2.75 16.2 -0.85 13.85 -3.85 11.85 -4.55 8.35 -5.3 4.85 -3.35 1.85 -1.65 -0.7 1.3 -1.3 4.3 -1.95 6.8 -0.25 8.95 1.15 9.5 3.7 10.0 6.2 8.6 8.35 L7.4 9.15 6.0 8.9 Q5.35 8.5 5.15 7.7 5.0 6.95 5.45 6.3 6.0 5.4 5.8 4.45 5.55 3.4 4.75 2.9 3.5 2.1 2.05 2.35 0.65 2.65 -0.2 3.9 -1.3 5.6 -0.9 7.6 -0.5 9.6 1.2 10.7 3.55 12.2 6.2 11.65 8.85 11.1 10.4 8.8 12.35 5.8 11.6 2.25 10.9 -1.3 7.85 -3.3 3.9 -5.9 -0.7 -4.9 -5.3 -3.95 -7.9 -0.05 -11.25 5.1 -10.0 11.05 -8.75 17.0 -3.7 20.35 2.85 24.6 10.5 23.05 18.15 21.45 22.45 14.95 25.1 10.9 26.0 6.25 26.85 1.55 25.9 -3.15 24.9 -7.9 22.25 -11.8 19.55 -15.75 15.55 -18.35 10.4 -21.7 4.5 -22.85 -1.45 -24.0 -7.4 -22.75 -13.4 -21.5 -18.4 -18.1 -23.35 -14.7 -26.75 -9.6 -27.15 -8.95 -27.9 -8.8 -28.65 -8.65 -29.35 -9.05 -30.0 -9.5 -30.15 -10.25 -30.3 -11.0 -29.9 -11.65 -26.1 -17.4 -20.5 -21.2 -14.9 -25.0 -8.2 -26.4 -1.45 -27.8 5.2 -26.55" fill="#000000" fill-rule="evenodd" stroke="none"/>
  </g>
</svg>
