<?xml version="1.0" encoding="UTF-8" standalone="no"?>
<svg xmlns:xlink="http://www.w3.org/1999/xlink" height="26.05px" width="27.4px" xmlns="http://www.w3.org/2000/svg">
  <g transform="matrix(1.0, 0.0, 0.0, 1.0, 13.7, 13.0)">
    <path d="M0.0 -6.5 L6.05 -9.65 4.9 -2.95 9.75 1.85 3.0 2.8 0.0 8.95 -3.05 2.8 -9.8 1.85 -4.9 -2.95 -6.05 -9.65 0.0 -6.5" fill="#ffffff" fill-rule="evenodd" stroke="none"/>
    <path d="M0.0 -8.55 L8.45 -13.0 6.85 -3.55 13.7 3.1 4.2 4.5 0.0 13.05 -4.25 4.5 -13.7 3.1 -6.85 -3.55 -8.45 -13.0 0.0 -8.55 M6.05 -9.65 L0.0 -6.5 -6.05 -9.65 -4.9 -2.95 -9.8 1.85 -3.05 2.8 0.0 8.95 3.0 2.8 9.75 1.85 4.9 -2.95 6.05 -9.65" fill="#000000" fill-rule="evenodd" stroke="none"/>
  </g>
</svg>
