<?xml version="1.0" encoding="UTF-8" standalone="no"?>
<svg xmlns:xlink="http://www.w3.org/1999/xlink" height="59.25px" width="146.85px" xmlns="http://www.w3.org/2000/svg">
  <g transform="matrix(1.0, 0.0, 0.0, 1.0, 73.4, 29.6)">
    <path d="M67.0 -12.55 Q72.5 -6.3 73.3 0.8 74.15 7.9 70.15 14.15 61.65 27.45 48.95 29.3 34.25 31.4 6.45 20.2 -22.2 8.65 -38.4 7.85 -53.7 7.15 -73.4 15.65 L-68.75 12.35 Q-62.75 8.5 -55.9 5.8 -34.05 -2.8 -12.25 3.5 9.55 9.8 25.35 12.85 L36.8 14.65 41.0 13.85 Q45.9 12.65 49.45 10.8 60.8 4.85 54.5 -5.6 48.2 -16.0 33.5 -15.6 28.9 -15.5 24.05 -14.3 L20.1 -13.15 Q16.45 -11.5 13.45 -8.15 7.55 -1.5 11.0 7.05 L-6.15 2.0 Q-7.65 -6.7 -4.35 -15.0 2.35 -31.55 26.7 -29.35 54.45 -26.8 67.0 -12.55" fill="#000000" fill-rule="evenodd" stroke="none"/>
  </g>
</svg>
