<?xml version="1.0" encoding="UTF-8" standalone="no"?>
<svg xmlns:xlink="http://www.w3.org/1999/xlink" height="47.85px" width="112.05px" xmlns="http://www.w3.org/2000/svg">
  <g transform="matrix(1.0, 0.0, 0.0, 1.0, 56.0, 23.9)">
    <path d="M2.1 2.95 L3.35 3.7 Q5.15 4.6 7.6 5.25 15.6 7.25 27.8 6.05 40.0 4.85 49.25 8.4 53.9 10.2 56.05 12.2 L50.75 11.8 Q42.6 12.3 28.65 16.65 12.55 21.7 3.1 17.95 -5.55 14.5 -9.05 3.5 -12.6 -7.6 -6.4 -15.7 0.2 -24.45 14.4 -23.85 26.8 -23.3 27.45 -9.45 27.75 -2.5 25.6 4.35 L22.25 4.35 21.95 1.3 Q20.35 -4.35 17.2 -9.2 10.85 -18.95 2.95 -14.9 -4.5 -11.1 -1.95 -3.7 -0.65 0.0 2.1 2.95" fill="#000000" fill-rule="evenodd" stroke="none"/>
    <path d="M0.45 18.05 L4.05 20.0 Q-1.3 23.1 -8.85 23.8 -23.95 25.2 -34.75 13.3 -45.55 1.45 -51.85 1.85 -53.85 2.0 -55.1 3.35 L-56.0 4.65 -55.65 3.55 Q-55.05 2.3 -53.95 1.45 -50.45 -1.35 -43.15 0.75 -39.5 1.8 -33.3 5.15 L-22.1 11.4 Q-7.55 19.2 0.45 18.05" fill="#000000" fill-rule="evenodd" stroke="none"/>
  </g>
</svg>
