<?xml version="1.0" encoding="UTF-8" standalone="no"?>
<svg xmlns:xlink="http://www.w3.org/1999/xlink" height="68.05px" width="66.4px" xmlns="http://www.w3.org/2000/svg">
  <g transform="matrix(1.0, 0.0, 0.0, 1.0, 33.2, 34.0)">
    <path d="M-7.05 -8.85 L-14.75 -30.65 -2.5 -11.05 0.0 -34.0 2.55 -11.05 14.8 -30.65 7.05 -8.85 26.6 -21.2 10.2 -4.9 33.2 -7.55 11.35 0.05 33.2 7.6 10.2 4.95 26.6 21.25 7.05 8.9 14.8 30.7 2.55 11.1 0.0 34.05 -2.5 11.1 -14.75 30.7 -7.05 8.9 -26.6 21.25 -10.2 4.95 -33.2 7.6 -11.35 0.05 -33.2 -7.55 -10.2 -4.9 -26.6 -21.2 -7.05 -8.85" fill="#000000" fill-rule="evenodd" stroke="none"/>
  </g>
</svg>
