<?xml version="1.0" encoding="UTF-8" standalone="no"?>
<svg xmlns:xlink="http://www.w3.org/1999/xlink" height="9.15px" width="36.6px" xmlns="http://www.w3.org/2000/svg">
  <g transform="matrix(1.0, 0.0, 0.0, 1.0, 18.3, 4.55)">
    <path d="M7.85 1.35 Q11.1 0.7 11.1 -0.2 11.1 -1.1 7.85 -1.75 L0.0 -2.4 -7.85 -1.75 Q-11.1 -1.1 -11.1 -0.2 -11.1 0.7 -7.85 1.35 L0.0 2.0 7.85 1.35 M18.3 0.0 Q18.3 1.9 12.95 3.25 7.6 4.6 0.0 4.6 -7.6 4.6 -12.95 3.25 -18.3 1.9 -18.3 0.0 -18.3 -1.9 -12.95 -3.2 -7.55 -4.55 0.0 -4.55 7.55 -4.55 12.95 -3.2 18.3 -1.9 18.3 0.0" fill="#000000" fill-rule="evenodd" stroke="none"/>
  </g>
</svg>
