<?xml version="1.0" encoding="UTF-8" standalone="no"?>
<svg xmlns:xlink="http://www.w3.org/1999/xlink" height="89.3px" width="88.85px" xmlns="http://www.w3.org/2000/svg">
  <g transform="matrix(1.0, 0.0, 0.0, 1.0, 44.4, 44.65)">
    <path d="M-38.2 -44.65 L-38.2 -40.25 -34.0 -40.25 -34.0 -38.35 -38.2 -38.35 -38.2 -33.9 -40.2 -33.9 -40.2 -38.35 -44.4 -38.35 -44.4 -40.25 -40.2 -40.25 -40.2 -44.65 -38.2 -44.65" fill="#000000" fill-rule="evenodd" stroke="none"/>
    <path d="M-28.7 -38.35 L-28.7 -40.25 -24.5 -40.25 -24.5 -44.65 -22.5 -44.65 -22.5 -40.25 -18.3 -40.25 -18.3 -38.35 -22.5 -38.35 -22.5 -33.9 -24.5 -33.9 -24.5 -38.35 -28.7 -38.35" fill="#000000" fill-rule="evenodd" stroke="none"/>
    <path d="M-6.8 -44.65 L-6.8 -40.25 -2.6 -40.25 -2.6 -38.35 -6.8 -38.35 -6.8 -33.9 -8.8 -33.9 -8.8 -38.35 -13.0 -38.35 -13.0 -40.25 -8.8 -40.25 -8.8 -44.65 -6.8 -44.65" fill="#000000" fill-rule="evenodd" stroke="none"/>
    <path d="M2.65 -38.35 L2.65 -40.25 6.9 -40.25 6.9 -44.65 8.85 -44.65 8.85 -40.25 13.1 -40.25 13.1 -38.35 8.85 -38.35 8.85 -33.9 6.9 -33.9 6.9 -38.35 2.65 -38.35" fill="#000000" fill-rule="evenodd" stroke="none"/>
    <path d="M22.6 -44.65 L24.55 -44.65 24.55 -40.25 28.8 -40.25 28.8 -38.35 24.55 -38.35 24.55 -33.9 22.6 -33.9 22.6 -38.35 18.35 -38.35 18.35 -40.25 22.6 -40.25 22.6 -44.65" fill="#000000" fill-rule="evenodd" stroke="none"/>
    <path d="M34.05 -38.35 L34.05 -40.25 38.25 -40.25 38.25 -44.65 40.25 -44.65 40.25 -40.25 44.45 -40.25 44.45 -38.35 40.25 -38.35 40.25 -33.9 38.25 -33.9 38.25 -38.35 34.05 -38.35" fill="#000000" fill-rule="evenodd" stroke="none"/>
    <path d="M-34.0 -24.55 L-34.0 -22.65 -38.2 -22.65 -38.2 -18.2 -40.2 -18.2 -40.2 -22.65 -44.4 -22.65 -44.4 -24.55 -40.2 -24.55 -40.2 -28.95 -38.2 -28.95 -38.2 -24.55 -34.0 -24.55" fill="#000000" fill-rule="evenodd" stroke="none"/>
    <path d="M-22.5 -28.95 L-22.5 -24.55 -18.3 -24.55 -18.3 -22.65 -22.5 -22.65 -22.5 -18.2 -24.5 -18.2 -24.5 -22.65 -28.7 -22.65 -28.7 -24.55 -24.5 -24.55 -24.5 -28.95 -22.5 -28.95" fill="#000000" fill-rule="evenodd" stroke="none"/>
    <path d="M-2.6 -24.55 L-2.6 -22.65 -6.8 -22.65 -6.8 -18.2 -8.8 -18.2 -8.8 -22.65 -13.0 -22.65 -13.0 -24.55 -8.8 -24.55 -8.8 -28.95 -6.8 -28.95 -6.8 -24.55 -2.6 -24.55" fill="#000000" fill-rule="evenodd" stroke="none"/>
    <path d="M8.85 -28.95 L8.85 -24.55 13.1 -24.55 13.1 -22.65 8.85 -22.65 8.85 -18.2 6.9 -18.2 6.9 -22.65 2.65 -22.65 2.65 -24.55 6.9 -24.55 6.9 -28.95 8.85 -28.95" fill="#000000" fill-rule="evenodd" stroke="none"/>
    <path d="M28.8 -24.55 L28.8 -22.65 24.55 -22.65 24.55 -18.2 22.6 -18.2 22.6 -22.65 18.35 -22.65 18.35 -24.55 22.6 -24.55 22.6 -28.95 24.55 -28.95 24.55 -24.55 28.8 -24.55" fill="#000000" fill-rule="evenodd" stroke="none"/>
    <path d="M40.25 -28.95 L40.25 -24.55 44.45 -24.55 44.45 -22.65 40.25 -22.65 40.25 -18.2 38.25 -18.2 38.25 -22.65 34.05 -22.65 34.05 -24.55 38.25 -24.55 38.25 -28.95 40.25 -28.95" fill="#000000" fill-rule="evenodd" stroke="none"/>
    <path d="M-34.0 -8.8 L-34.0 -6.95 -38.2 -6.95 -38.2 -2.45 -40.2 -2.45 -40.2 -6.95 -44.4 -6.95 -44.4 -8.8 -40.2 -8.8 -40.2 -13.2 -38.2 -13.2 -38.2 -8.8 -34.0 -8.8" fill="#000000" fill-rule="evenodd" stroke="none"/>
    <path d="M-24.5 -13.2 L-22.5 -13.2 -22.5 -8.8 -18.3 -8.8 -18.3 -6.95 -22.5 -6.95 -22.5 -2.45 -24.5 -2.45 -24.5 -6.95 -28.7 -6.95 -28.7 -8.8 -24.5 -8.8 -24.5 -13.2" fill="#000000" fill-rule="evenodd" stroke="none"/>
    <path d="M-8.8 -13.2 L-6.8 -13.2 -6.8 -8.8 -2.6 -8.8 -2.6 -6.95 -6.8 -6.95 -6.8 -2.45 -8.8 -2.45 -8.8 -6.95 -13.0 -6.95 -13.0 -8.8 -8.8 -8.8 -8.8 -13.2" fill="#000000" fill-rule="evenodd" stroke="none"/>
    <path d="M6.9 -13.2 L8.85 -13.2 8.85 -8.8 13.1 -8.8 13.1 -6.95 8.85 -6.95 8.85 -2.45 6.9 -2.45 6.9 -6.95 2.65 -6.95 2.65 -8.8 6.9 -8.8 6.9 -13.2" fill="#000000" fill-rule="evenodd" stroke="none"/>
    <path d="M22.6 -13.2 L24.55 -13.2 24.55 -8.8 28.8 -8.8 28.8 -6.95 24.55 -6.95 24.55 -2.45 22.6 -2.45 22.6 -6.95 18.35 -6.95 18.35 -8.8 22.6 -8.8 22.6 -13.2" fill="#000000" fill-rule="evenodd" stroke="none"/>
    <path d="M38.25 -13.2 L40.25 -13.2 40.25 -8.8 44.45 -8.8 44.45 -6.95 40.25 -6.95 40.25 -2.45 38.25 -2.45 38.25 -6.95 34.05 -6.95 34.05 -8.8 38.25 -8.8 38.25 -13.2" fill="#000000" fill-rule="evenodd" stroke="none"/>
    <path d="M-34.0 6.9 L-34.0 8.8 -38.2 8.8 -38.2 13.25 -40.2 13.25 -40.2 8.8 -44.4 8.8 -44.4 6.9 -40.2 6.9 -40.2 2.5 -38.2 2.5 -38.2 6.9 -34.0 6.9" fill="#000000" fill-rule="evenodd" stroke="none"/>
    <path d="M-24.5 2.5 L-22.5 2.5 -22.5 6.9 -18.3 6.9 -18.3 8.8 -22.5 8.8 -22.5 13.25 -24.5 13.25 -24.5 8.8 -28.7 8.8 -28.7 6.9 -24.5 6.9 -24.5 2.5" fill="#000000" fill-rule="evenodd" stroke="none"/>
    <path d="M-8.8 2.5 L-6.8 2.5 -6.8 6.9 -2.6 6.9 -2.6 8.8 -6.8 8.8 -6.8 13.25 -8.8 13.25 -8.8 8.8 -13.0 8.8 -13.0 6.9 -8.8 6.9 -8.8 2.5" fill="#000000" fill-rule="evenodd" stroke="none"/>
    <path d="M6.9 2.5 L8.85 2.5 8.85 6.9 13.1 6.9 13.1 8.8 8.85 8.8 8.85 13.25 6.9 13.25 6.9 8.8 2.65 8.8 2.65 6.9 6.9 6.9 6.9 2.5" fill="#000000" fill-rule="evenodd" stroke="none"/>
    <path d="M22.6 2.5 L24.55 2.5 24.55 6.9 28.8 6.9 28.8 8.8 24.55 8.8 24.55 13.25 22.6 13.25 22.6 8.8 18.35 8.8 18.35 6.9 22.6 6.9 22.6 2.5" fill="#000000" fill-rule="evenodd" stroke="none"/>
    <path d="M38.25 2.5 L40.25 2.5 40.25 6.9 44.45 6.9 44.45 8.8 40.25 8.8 40.25 13.25 38.25 13.25 38.25 8.8 34.05 8.8 34.05 6.9 38.25 6.9 38.25 2.5" fill="#000000" fill-rule="evenodd" stroke="none"/>
    <path d="M-38.2 18.2 L-38.2 22.6 -34.0 22.6 -34.0 24.5 -38.2 24.5 -38.2 28.95 -40.2 28.95 -40.2 24.5 -44.4 24.5 -44.4 22.6 -40.2 22.6 -40.2 18.2 -38.2 18.2" fill="#000000" fill-rule="evenodd" stroke="none"/>
    <path d="M-22.5 18.2 L-22.5 22.6 -18.3 22.6 -18.3 24.5 -22.5 24.5 -22.5 28.95 -24.5 28.95 -24.5 24.5 -28.7 24.5 -28.7 22.6 -24.5 22.6 -24.5 18.2 -22.5 18.2" fill="#000000" fill-rule="evenodd" stroke="none"/>
    <path d="M-2.6 22.6 L-2.6 24.5 -6.8 24.5 -6.8 28.95 -8.8 28.95 -8.8 24.5 -13.0 24.5 -13.0 22.6 -8.8 22.6 -8.8 18.2 -6.8 18.2 -6.8 22.6 -2.6 22.6" fill="#000000" fill-rule="evenodd" stroke="none"/>
    <path d="M8.85 18.2 L8.85 22.6 13.1 22.6 13.1 24.5 8.85 24.5 8.85 28.95 6.9 28.95 6.9 24.5 2.65 24.5 2.65 22.6 6.9 22.6 6.9 18.2 8.85 18.2" fill="#000000" fill-rule="evenodd" stroke="none"/>
    <path d="M28.8 22.6 L28.8 24.5 24.55 24.5 24.55 28.95 22.6 28.95 22.6 24.5 18.35 24.5 18.35 22.6 22.6 22.6 22.6 18.2 24.55 18.2 24.55 22.6 28.8 22.6" fill="#000000" fill-rule="evenodd" stroke="none"/>
    <path d="M40.25 18.2 L40.25 22.6 44.45 22.6 44.45 24.5 40.25 24.5 40.25 28.95 38.25 28.95 38.25 24.5 34.05 24.5 34.05 22.6 38.25 22.6 38.25 18.2 40.25 18.2" fill="#000000" fill-rule="evenodd" stroke="none"/>
    <path d="M-44.4 38.3 L-40.2 38.3 -40.2 33.9 -38.2 33.9 -38.2 38.3 -34.0 38.3 -34.0 40.2 -38.2 40.2 -38.2 44.65 -40.2 44.65 -40.2 40.2 -44.4 40.2 -44.4 38.3" fill="#000000" fill-rule="evenodd" stroke="none"/>
    <path d="M-22.5 33.9 L-22.5 38.3 -18.3 38.3 -18.3 40.2 -22.5 40.2 -22.5 44.65 -24.5 44.65 -24.5 40.2 -28.7 40.2 -28.7 38.3 -24.5 38.3 -24.5 33.9 -22.5 33.9" fill="#000000" fill-rule="evenodd" stroke="none"/>
    <path d="M-6.8 33.9 L-6.8 38.3 -2.6 38.3 -2.6 40.2 -6.8 40.2 -6.8 44.65 -8.8 44.65 -8.8 40.2 -13.0 40.2 -13.0 38.3 -8.8 38.3 -8.8 33.9 -6.8 33.9" fill="#000000" fill-rule="evenodd" stroke="none"/>
    <path d="M8.85 38.3 L13.1 38.3 13.1 40.2 8.85 40.2 8.85 44.65 6.9 44.65 6.9 40.2 2.65 40.2 2.65 38.3 6.9 38.3 6.9 33.9 8.85 33.9 8.85 38.3" fill="#000000" fill-rule="evenodd" stroke="none"/>
    <path d="M24.55 33.9 L24.55 38.3 28.8 38.3 28.8 40.2 24.55 40.2 24.55 44.65 22.6 44.65 22.6 40.2 18.35 40.2 18.35 38.3 22.6 38.3 22.6 33.9 24.55 33.9" fill="#000000" fill-rule="evenodd" stroke="none"/>
    <path d="M40.25 33.9 L40.25 38.3 44.45 38.3 44.45 40.2 40.25 40.2 40.25 44.65 38.25 44.65 38.25 40.2 34.05 40.2 34.05 38.3 38.25 38.3 38.25 33.9 40.25 33.9" fill="#000000" fill-rule="evenodd" stroke="none"/>
    <path d="M40.25 -40.25 L40.25 40.2 -40.2 40.2 -40.2 -40.25 40.25 -40.25" fill="#ffffff" fill-opacity="0.0" fill-rule="evenodd" stroke="none"/>
  </g>
</svg>
