<?xml version="1.0" encoding="UTF-8" standalone="no"?>
<svg xmlns:xlink="http://www.w3.org/1999/xlink" height="37.8px" width="48.25px" xmlns="http://www.w3.org/2000/svg">
  <g transform="matrix(1.0, 0.0, 0.0, 1.0, 24.1, 18.9)">
    <path d="M14.5 -18.9 Q18.5 -18.9 21.3 -16.1 24.15 -13.25 24.15 -9.25 24.15 -5.25 21.3 -2.4 18.5 0.45 14.5 0.45 11.85 0.45 9.4 -1.05 L3.35 5.15 13.1 15.15 Q13.75 15.8 13.75 16.7 13.75 17.5 13.1 18.25 12.45 18.9 11.55 18.9 10.65 18.9 10.0 18.25 L0.1 7.95 -9.85 18.25 Q-10.6 18.9 -11.4 18.9 -12.3 18.9 -12.95 18.25 -13.6 17.6 -13.6 16.7 -13.6 15.75 -12.95 15.15 L-3.1 5.3 -9.3 -1.1 Q-11.7 0.45 -14.45 0.45 -18.35 0.45 -21.3 -2.4 -24.1 -5.3 -24.1 -9.25 -24.1 -13.2 -21.3 -16.1 -18.4 -18.9 -14.45 -18.9 -10.45 -18.9 -7.6 -16.1 -4.75 -13.25 -4.75 -9.25 -4.75 -6.55 -6.25 -4.2 L0.25 2.6 6.3 -4.15 Q4.8 -6.6 4.8 -9.25 4.8 -13.25 7.65 -16.1 10.55 -18.9 14.5 -18.9" fill="#000000" fill-rule="evenodd" stroke="none"/>
  </g>
</svg>
