<?xml version="1.0" encoding="UTF-8" standalone="no"?>
<svg xmlns:xlink="http://www.w3.org/1999/xlink" height="94.55px" width="22.35px" xmlns="http://www.w3.org/2000/svg">
  <g transform="matrix(1.0, 0.0, 0.0, 1.0, 0.0, 0.0)">
    <path d="M17.4 79.95 L13.65 79.9 13.6 87.65 17.35 87.7 17.4 79.95 M3.55 72.15 L5.15 67.6 Q0.45 72.75 2.75 77.6 3.9 80.0 5.95 81.4 2.65 77.45 3.55 72.15 M18.6 35.95 Q17.8 35.95 17.2 36.7 16.6 37.45 16.55 38.55 16.55 39.65 17.15 40.4 17.75 41.2 18.55 41.2 19.4 41.2 20.0 40.45 20.6 39.7 20.6 38.6 20.6 37.5 20.0 36.75 19.45 35.95 18.6 35.95 M10.55 0.0 Q14.7 0.0 17.8 10.4 20.4 19.2 21.65 32.95 L8.55 32.9 8.55 32.3 7.55 32.3 7.55 32.9 6.5 32.9 4.9 33.3 Q3.3 33.8 3.3 34.6 3.3 35.85 5.95 35.9 L7.55 35.9 7.55 37.3 8.55 37.3 8.55 35.9 11.05 35.9 Q10.3 35.9 9.7 36.65 9.1 37.4 9.05 38.5 9.05 39.6 9.65 40.35 10.25 41.15 11.05 41.15 11.9 41.15 12.5 40.4 13.1 39.65 13.1 38.55 13.1 37.45 12.5 36.7 11.95 35.95 11.15 35.9 L21.9 35.95 22.35 45.25 22.15 74.95 10.4 74.9 9.1 75.2 Q7.8 75.6 7.65 76.4 7.5 77.65 9.8 78.15 L22.15 78.2 22.05 94.55 14.15 94.5 Q4.3 92.6 0.1 82.05 L0.0 45.1 Q0.35 27.7 3.2 14.4 6.3 -0.05 10.55 0.0" fill="#ffffff" fill-rule="evenodd" stroke="none"/>
  </g>
</svg>
