<?xml version="1.0" encoding="UTF-8" standalone="no"?>
<svg xmlns:xlink="http://www.w3.org/1999/xlink" height="8.5px" width="69.0px" xmlns="http://www.w3.org/2000/svg">
  <g transform="matrix(1.0, 0.0, 0.0, 1.0, 34.5, 5.5)">
    <path d="M-32.0 -3.0 L-9.8 -3.0" fill="none" stroke="#000000" stroke-linecap="round" stroke-linejoin="round" stroke-width="5.0"/>
    <path d="M9.85 -3.0 L32.0 -3.0" fill="none" stroke="#000000" stroke-linecap="round" stroke-linejoin="round" stroke-width="5.0"/>
    <path d="M-15.85 0.0 Q-15.85 1.25 -16.65 2.1 -17.45 3.0 -18.65 3.0 -19.8 3.0 -20.6 2.1 -21.4 1.25 -21.4 0.0 -21.4 -1.3 -20.6 -2.15 -19.8 -3.0 -18.65 -3.0 -17.45 -3.0 -16.65 -2.15 -15.85 -1.3 -15.85 0.0" fill="#000000" fill-rule="evenodd" stroke="none"/>
    <path d="M20.95 0.0 Q20.95 1.25 20.15 2.1 19.3 3.0 18.15 3.0 17.0 3.0 16.2 2.1 15.4 1.25 15.4 0.0 15.4 -1.3 16.2 -2.15 17.0 -3.0 18.15 -3.0 19.3 -3.0 20.15 -2.15 20.95 -1.3 20.95 0.0" fill="#000000" fill-rule="evenodd" stroke="none"/>
  </g>
</svg>
