<?xml version="1.0" encoding="UTF-8" standalone="no"?>
<svg xmlns:xlink="http://www.w3.org/1999/xlink" height="87.95px" width="64.9px" xmlns="http://www.w3.org/2000/svg">
  <g transform="matrix(1.0, 0.0, 0.0, 1.0, 32.45, 44.0)">
    <path d="M-31.0 43.95 L-31.0 14.65 31.7 14.65 31.7 43.95 -31.0 43.95" fill="#000000" fill-rule="evenodd" stroke="none"/>
    <path d="M-5.55 4.95 Q-2.35 7.3 0.75 7.3 3.85 7.3 7.05 4.95 4.3 3.1 1.0 3.0 -2.25 3.0 -5.55 4.95 M25.2 -44.0 L25.35 -41.65 25.6 -34.95 25.4 -29.1 31.7 -29.1 31.7 13.0 -31.0 13.0 -31.0 -29.1 -23.85 -29.1 -24.05 -34.95 -23.8 -41.65 -23.65 -44.0 25.2 -44.0 M18.8 -18.0 Q20.5 -26.1 20.5 -34.95 L20.4 -38.9 -18.85 -38.9 -18.95 -34.95 Q-19.0 -22.95 -15.85 -12.55 -12.85 -2.7 -8.05 2.6 -3.85 -0.25 1.0 -0.3 5.5 -0.3 9.55 2.65 12.3 -0.45 14.25 -4.4 17.2 -10.3 18.8 -18.0" fill="#000000" fill-rule="evenodd" stroke="none"/>
    <path d="M16.8 -31.35 Q15.65 -32.55 13.95 -32.55 12.3 -32.55 11.15 -31.35 10.0 -30.2 10.0 -28.55 10.0 -26.9 11.15 -25.7 12.3 -24.55 13.95 -24.55 15.65 -24.55 16.8 -25.7 17.95 -26.9 17.95 -28.55 17.95 -30.2 16.8 -31.35 M-5.7 -18.4 Q-6.55 -18.4 -7.2 -17.8 -7.8 -17.15 -7.8 -16.3 -7.8 -15.45 -7.2 -14.8 -6.55 -14.2 -5.7 -14.2 L6.95 -14.2 Q7.85 -14.2 8.45 -14.8 9.05 -15.45 9.05 -16.3 9.05 -17.15 8.45 -17.8 7.85 -18.4 6.95 -18.4 L-5.7 -18.4 M-18.95 -34.95 L-18.85 -38.9 20.4 -38.9 20.5 -34.95 Q20.5 -26.1 18.8 -18.0 17.2 -10.3 14.25 -4.4 12.3 -0.45 9.55 2.65 5.5 -0.3 1.0 -0.3 -3.85 -0.25 -8.05 2.6 -12.85 -2.7 -15.85 -12.55 -19.0 -22.95 -18.95 -34.95 M-10.15 -31.35 Q-11.35 -32.55 -13.0 -32.55 -14.65 -32.55 -15.8 -31.35 -16.95 -30.2 -16.95 -28.55 -16.95 -26.9 -15.8 -25.7 -14.65 -24.55 -13.0 -24.55 -11.35 -24.55 -10.15 -25.7 -9.0 -26.9 -9.0 -28.55 -9.0 -30.2 -10.15 -31.35" fill="#ffffff" fill-rule="evenodd" stroke="none"/>
    <path d="M1.0 3.0 Q4.3 3.1 7.05 4.95 3.85 7.3 0.75 7.3 -2.35 7.3 -5.55 4.95 -2.25 3.0 1.0 3.0" fill="#ffffff" fill-rule="evenodd" stroke="none"/>
    <path d="M-13.0 -32.55 Q-11.35 -32.55 -10.15 -31.35 -9.0 -30.2 -9.0 -28.55 -9.0 -26.9 -10.15 -25.7 -11.35 -24.55 -13.0 -24.55 -14.65 -24.55 -15.8 -25.7 -16.95 -26.9 -16.95 -28.55 -16.95 -30.2 -15.8 -31.35 -14.65 -32.55 -13.0 -32.55" fill="#000000" fill-rule="evenodd" stroke="none"/>
    <path d="M10.0 -28.55 Q10.0 -30.2 11.15 -31.35 12.3 -32.55 13.95 -32.55 15.65 -32.55 16.8 -31.35 17.95 -30.2 17.95 -28.55 17.95 -26.9 16.8 -25.7 15.65 -24.55 13.95 -24.55 12.3 -24.55 11.15 -25.7 10.0 -26.9 10.0 -28.55" fill="#000000" fill-rule="evenodd" stroke="none"/>
    <path d="M6.95 -18.4 Q7.85 -18.4 8.45 -17.8 9.05 -17.15 9.05 -16.3 9.05 -15.45 8.45 -14.8 7.85 -14.2 6.95 -14.2 L-5.7 -14.2 Q-6.55 -14.2 -7.2 -14.8 -7.8 -15.45 -7.8 -16.3 -7.8 -17.15 -7.2 -17.8 -6.55 -18.4 -5.7 -18.4 L6.95 -18.4" fill="#000000" fill-rule="evenodd" stroke="none"/>
    <path d="M-32.45 14.65 L-32.45 13.0 32.45 13.0 32.45 14.65 -32.45 14.65" fill="#ffffff" fill-rule="evenodd" stroke="none"/>
  </g>
</svg>
