<?xml version="1.0" encoding="UTF-8" standalone="no"?>
<svg xmlns:xlink="http://www.w3.org/1999/xlink" height="96.3px" width="52.95px" xmlns="http://www.w3.org/2000/svg">
  <g transform="matrix(1.0, 0.0, 0.0, 1.0, 26.5, 48.15)">
    <path d="M3.65 -25.2 Q2.65 -25.2 1.95 -24.5 1.25 -23.8 1.25 -22.8 1.25 -21.8 1.95 -21.1 2.7 -20.4 3.65 -20.4 4.65 -20.4 5.35 -21.1 6.05 -21.8 6.05 -22.8 6.05 -23.8 5.35 -24.5 4.65 -25.2 3.65 -25.2 M-6.1 -25.2 Q-7.1 -25.2 -7.8 -24.5 -8.5 -23.8 -8.5 -22.8 -8.5 -21.8 -7.8 -21.1 -7.1 -20.4 -6.1 -20.4 -5.1 -20.4 -4.4 -21.1 -3.7 -21.8 -3.7 -22.8 -3.7 -23.8 -4.4 -24.5 -5.1 -25.2 -6.1 -25.2 M0.0 -34.45 Q4.15 -34.45 8.0 -31.85 11.85 -29.2 14.9 -24.3 17.9 -19.5 19.6 -13.25 21.4 -6.7 21.55 0.5 10.9 -11.3 -0.2 -11.3 -9.5 -11.3 -17.85 -3.15 L-21.5 0.9 Q-21.4 -6.4 -19.65 -13.05 -17.9 -19.45 -14.85 -24.3 -11.8 -29.2 -7.95 -31.85 -4.1 -34.45 0.0 -34.45" fill="#ffffff" fill-rule="evenodd" stroke="none"/>
    <path d="M21.65 5.75 Q16.3 -1.0 10.75 -4.5 L10.75 5.75 21.65 5.75 M-20.95 17.5 L-19.95 18.95 Q-18.05 21.65 -15.55 24.05 -8.15 31.25 -0.2 31.25 10.65 31.25 21.65 17.5 L-20.95 17.5 M-13.0 5.75 L-13.0 -3.0 Q-17.7 0.7 -20.95 5.75 L-13.0 5.75 M-11.9 5.75 L-1.4 5.75 -1.4 -7.95 Q-6.75 -7.6 -11.9 -3.85 L-11.9 5.75 M-0.2 -8.0 L-0.3 -8.0 -0.3 5.75 9.65 5.75 9.65 -5.2 Q4.6 -8.0 -0.2 -8.0 M8.0 -31.85 Q4.15 -34.45 0.0 -34.45 -4.1 -34.45 -7.95 -31.85 -11.8 -29.2 -14.85 -24.3 -17.9 -19.45 -19.65 -13.05 -21.4 -6.4 -21.5 0.9 L-17.85 -3.15 Q-9.5 -11.3 -0.2 -11.3 10.9 -11.3 21.55 0.5 21.4 -6.7 19.6 -13.25 17.9 -19.5 14.9 -24.3 11.85 -29.2 8.0 -31.85 M-6.1 -48.15 L-2.5 -43.75 -0.3 -48.15 1.65 -43.45 4.95 -47.9 4.95 -38.65 Q13.25 -36.3 19.1 -26.9 25.65 -16.35 26.4 -1.6 L26.45 -1.6 26.45 48.15 -26.5 48.15 -26.5 -1.6 -26.35 -1.6 Q-25.6 -16.35 -19.05 -26.9 -13.7 -35.5 -6.1 -38.25 L-6.1 -48.15" fill="#000000" fill-rule="evenodd" stroke="none"/>
    <path d="M-11.9 5.75 L-11.9 -3.85 Q-6.75 -7.6 -1.4 -7.95 L-1.4 5.75 -11.9 5.75" fill="#ffffff" fill-rule="evenodd" stroke="none"/>
    <path d="M-0.3 -8.0 L-0.2 -8.0 Q4.6 -8.0 9.65 -5.2 L9.65 5.75 -0.3 5.75 -0.3 -8.0" fill="#ffffff" fill-rule="evenodd" stroke="none"/>
    <path d="M10.75 -4.5 Q16.3 -1.0 21.65 5.75 L10.75 5.75 10.75 -4.5" fill="#ffffff" fill-rule="evenodd" stroke="none"/>
    <path d="M-13.0 -3.0 L-13.0 5.75 -20.95 5.75 Q-17.7 0.7 -13.0 -3.0" fill="#ffffff" fill-rule="evenodd" stroke="none"/>
    <path d="M-0.2 31.25 Q-8.15 31.25 -15.55 24.05 -18.05 21.65 -19.95 18.95 L-20.95 17.5 21.65 17.5 Q10.65 31.25 -0.2 31.25" fill="#ffffff" fill-rule="evenodd" stroke="none"/>
    <path d="M-6.1 -20.4 Q-7.1 -20.4 -7.8 -21.1 -8.5 -21.8 -8.5 -22.8 -8.5 -23.8 -7.8 -24.5 -7.1 -25.2 -6.1 -25.2 -5.1 -25.2 -4.4 -24.5 -3.7 -23.8 -3.7 -22.8 -3.7 -21.8 -4.4 -21.1 -5.1 -20.4 -6.1 -20.4" fill="#000000" fill-rule="evenodd" stroke="none"/>
    <path d="M3.65 -20.4 Q2.7 -20.4 1.95 -21.1 1.25 -21.8 1.25 -22.8 1.25 -23.8 1.95 -24.5 2.65 -25.2 3.65 -25.2 4.65 -25.2 5.35 -24.5 6.05 -23.8 6.05 -22.8 6.05 -21.8 5.35 -21.1 4.65 -20.4 3.65 -20.4" fill="#000000" fill-rule="evenodd" stroke="none"/>
  </g>
</svg>
