<?xml version="1.0" encoding="UTF-8" standalone="no"?>
<svg xmlns:xlink="http://www.w3.org/1999/xlink" height="98.85px" width="68.15px" xmlns="http://www.w3.org/2000/svg">
  <g transform="matrix(1.0, 0.0, 0.0, 1.0, 34.1, 49.45)">
    <path d="M-8.35 15.65 Q-4.85 17.95 -1.05 17.95 2.7 17.95 6.2 15.65 9.75 13.35 12.5 9.1 15.05 5.15 16.6 0.0 18.2 -5.35 18.45 -11.25 9.85 -2.95 0.1 -2.95 L0.0 -2.95 Q-10.55 -3.0 -20.6 -11.8 -20.4 -5.75 -18.8 -0.25 -17.25 5.05 -14.6 9.1 -11.8 13.4 -8.35 15.65 M9.15 -40.15 Q7.75 -41.55 6.1 -42.65 L-14.85 -35.7 -17.05 -31.55 9.15 -40.15 M-1.05 -44.85 Q-8.15 -44.85 -13.6 -37.45 L4.55 -43.5 Q1.85 -44.85 -1.05 -44.85 M8.7 -46.45 Q13.05 -43.6 16.35 -38.55 20.05 -32.9 21.8 -25.25 L34.05 -28.75 25.8 49.4 -27.2 49.4 -34.1 -29.3 -23.75 -26.05 Q-22.0 -33.1 -18.5 -38.55 -15.2 -43.6 -10.85 -46.45 -6.2 -49.45 -1.05 -49.45 4.05 -49.45 8.7 -46.45 M12.5 -36.05 L11.55 -37.35 -18.55 -27.4 Q-20.2 -22.2 -20.55 -16.5 L-20.5 -16.45 Q-18.1 -14.05 -15.7 -12.3 -7.75 -6.4 0.0 -6.4 9.85 -6.4 18.45 -16.3 17.8 -27.85 12.5 -36.05" fill="#000000" fill-rule="evenodd" stroke="none"/>
    <path d="M4.55 -43.5 L-13.6 -37.45 Q-8.15 -44.85 -1.05 -44.85 1.85 -44.85 4.55 -43.5" fill="#ffffff" fill-rule="evenodd" stroke="none"/>
    <path d="M6.1 -42.65 Q7.75 -41.55 9.15 -40.15 L-17.05 -31.55 -14.85 -35.7 6.1 -42.65" fill="#ffffff" fill-rule="evenodd" stroke="none"/>
    <path d="M-1.05 17.95 Q-4.85 17.95 -8.35 15.65 -11.8 13.4 -14.6 9.1 -17.25 5.05 -18.8 -0.25 -20.4 -5.75 -20.6 -11.8 -10.55 -3.0 0.0 -2.95 L0.1 -2.95 Q9.85 -2.95 18.45 -11.25 18.2 -5.35 16.6 0.0 15.05 5.15 12.5 9.1 9.75 13.35 6.2 15.65 2.7 17.95 -1.05 17.95" fill="#ffffff" fill-rule="evenodd" stroke="none"/>
    <path d="M4.7 -20.95 Q4.7 -19.15 5.4 -17.9 6.05 -16.65 7.0 -16.65 7.95 -16.65 8.6 -17.9 9.3 -19.15 9.3 -20.95 9.3 -22.75 8.6 -24.0 7.95 -25.25 7.0 -25.25 6.05 -25.25 5.4 -24.0 4.7 -22.75 4.7 -20.95 M-10.3 -25.25 Q-11.25 -25.25 -11.9 -24.0 -12.6 -22.75 -12.6 -20.95 -12.6 -19.15 -11.9 -17.9 -11.25 -16.65 -10.3 -16.65 -9.35 -16.65 -8.65 -17.9 -8.0 -19.15 -8.0 -20.95 -8.0 -22.75 -8.65 -24.0 -9.35 -25.25 -10.3 -25.25 M11.55 -37.35 L12.5 -36.05 Q17.8 -27.85 18.45 -16.3 9.85 -6.4 0.0 -6.4 -7.75 -6.4 -15.7 -12.3 -18.1 -14.05 -20.5 -16.45 L-20.55 -16.5 Q-20.2 -22.2 -18.55 -27.4 L11.55 -37.35" fill="#ffffff" fill-rule="evenodd" stroke="none"/>
    <path d="M-10.3 -25.25 Q-9.35 -25.25 -8.65 -24.0 -8.0 -22.75 -8.0 -20.95 -8.0 -19.15 -8.65 -17.9 -9.35 -16.65 -10.3 -16.65 -11.25 -16.65 -11.9 -17.9 -12.6 -19.15 -12.6 -20.95 -12.6 -22.75 -11.9 -24.0 -11.25 -25.25 -10.3 -25.25" fill="#000000" fill-rule="evenodd" stroke="none"/>
    <path d="M4.7 -20.95 Q4.7 -22.75 5.4 -24.0 6.05 -25.25 7.0 -25.25 7.95 -25.25 8.6 -24.0 9.3 -22.75 9.3 -20.95 9.3 -19.15 8.6 -17.9 7.95 -16.65 7.0 -16.65 6.05 -16.65 5.4 -17.9 4.7 -19.15 4.7 -20.95" fill="#000000" fill-rule="evenodd" stroke="none"/>
  </g>
</svg>
