<?xml version="1.0" encoding="UTF-8" standalone="no"?>
<svg xmlns:xlink="http://www.w3.org/1999/xlink" height="131.0px" width="50.0px" xmlns="http://www.w3.org/2000/svg">
  <g transform="matrix(1.0, 0.0, 0.0, 1.0, 25.0, 65.5)">
    <path d="M-6.45 -30.65 L-9.4 -28.95 -10.0 -28.0 Q-10.05 -27.4 -9.7 -26.9 -9.2 -26.25 -8.5 -26.25 -7.95 -26.25 -7.6 -26.55 L-7.6 -26.6 -7.0 -26.95 Q-3.35 -29.3 0.85 -29.3 5.1 -29.2 8.6 -26.6 9.1 -26.2 9.7 -26.3 10.35 -26.4 10.7 -26.9 11.05 -27.4 11.0 -28.0 10.9 -28.6 10.4 -28.95 6.0 -32.35 0.85 -32.25 -2.9 -32.25 -6.45 -30.65 M-17.4 -37.0 L-2.05 -37.0 0.9 -44.85 2.9 -37.0 17.85 -37.0 Q17.2 -29.3 12.65 -23.8 10.2 -20.8 7.0 -19.2 3.8 -17.55 0.25 -17.55 -7.0 -17.55 -12.2 -23.8 -16.65 -29.3 -17.4 -37.0" fill="#ffffff" fill-rule="evenodd" stroke="none"/>
    <path d="M12.65 -55.2 Q13.95 -53.65 14.85 -52.0 L-14.35 -52.0 -12.2 -55.2 Q-7.0 -61.45 0.25 -61.55 3.8 -61.5 7.0 -59.85 10.2 -58.2 12.65 -55.2" fill="#ffffff" fill-rule="evenodd" stroke="none"/>
    <path d="M1.9 -14.2 Q1.25 -14.9 0.25 -14.9 -0.75 -14.9 -1.45 -14.2 -2.15 -13.5 -2.15 -12.5 -2.15 -11.8 -1.6 -11.0 L2.05 -11.0 Q2.6 -11.7 2.6 -12.5 2.6 -13.5 1.9 -14.2 M1.35 -9.0 L-1.15 -9.0 -6.25 8.45 0.95 18.0 7.25 8.9 1.35 -9.0 M2.9 -37.0 L0.9 -44.85 -2.05 -37.0 -17.4 -37.0 Q-16.65 -29.3 -12.2 -23.8 -7.0 -17.55 0.25 -17.55 3.8 -17.55 7.0 -19.2 10.2 -20.8 12.65 -23.8 17.2 -29.3 17.85 -37.0 L2.9 -37.0 M-4.5 -45.5 L-4.5 -49.75 -11.25 -49.75 -11.25 -45.5 -4.5 -45.5 M14.85 -52.0 Q13.95 -53.65 12.65 -55.2 10.2 -58.2 7.0 -59.85 3.8 -61.5 0.25 -61.55 -7.0 -61.45 -12.2 -55.2 L-14.35 -52.0 14.85 -52.0 M12.75 -45.5 L19.5 -45.5 19.5 -49.75 12.75 -49.75 12.75 -45.5 M8.85 -63.4 Q12.8 -61.4 15.75 -57.75 17.95 -55.1 19.3 -52.0 L25.0 -52.0 25.0 -37.0 21.9 -37.0 Q21.15 -27.8 15.75 -21.3 L15.7 -21.25 12.5 65.5 -10.35 65.5 -14.6 -20.5 -15.25 -21.3 Q-20.65 -27.8 -21.4 -37.0 L-25.0 -37.0 -25.0 -52.0 -18.8 -52.0 Q-17.45 -55.1 -15.25 -57.75 -12.3 -61.4 -8.35 -63.4 -4.25 -65.55 0.25 -65.5 4.75 -65.55 8.85 -63.4" fill="#000000" fill-rule="evenodd" stroke="none"/>
    <path d="M-4.5 -45.5 L-11.25 -45.5 -11.25 -49.75 -4.5 -49.75 -4.5 -45.5" fill="#ffffff" fill-rule="evenodd" stroke="none"/>
    <path d="M12.75 -49.75 L19.5 -49.75 19.5 -45.5 12.75 -45.5 12.75 -49.75" fill="#ffffff" fill-rule="evenodd" stroke="none"/>
    <path d="M0.85 -29.3 Q-3.35 -29.3 -7.0 -26.95 L-7.6 -26.6 -7.6 -26.55 Q-7.95 -26.25 -8.5 -26.25 -9.2 -26.25 -9.7 -26.9 -10.05 -27.4 -10.0 -28.0 L-9.4 -28.95 -6.45 -30.65 Q-2.9 -32.25 0.85 -32.25 6.0 -32.35 10.4 -28.95 10.9 -28.6 11.0 -28.0 11.05 -27.4 10.7 -26.9 10.35 -26.4 9.7 -26.3 9.1 -26.2 8.6 -26.6 5.1 -29.2 0.85 -29.3" fill="#000000" fill-rule="evenodd" stroke="none"/>
    <path d="M0.25 -14.9 Q1.25 -14.9 1.9 -14.2 2.6 -13.5 2.6 -12.5 2.6 -11.7 2.05 -11.0 L-1.6 -11.0 Q-2.15 -11.8 -2.15 -12.5 -2.15 -13.5 -1.45 -14.2 -0.75 -14.9 0.25 -14.9" fill="#ffffff" fill-rule="evenodd" stroke="none"/>
    <path d="M-1.15 -9.0 L1.35 -9.0 7.25 8.9 0.95 18.0 -6.25 8.45 -1.15 -9.0" fill="#ffffff" fill-rule="evenodd" stroke="none"/>
  </g>
</svg>
