<?xml version="1.0" encoding="UTF-8" standalone="no"?>
<svg xmlns:xlink="http://www.w3.org/1999/xlink" height="33.0px" width="33.0px" xmlns="http://www.w3.org/2000/svg">
  <g transform="matrix(1.0, 0.0, 0.0, 1.0, 17.0, 17.0)">
    <path d="M14.0 -0.5 Q14.0 5.5 9.75 9.75 5.5 14.0 -0.5 14.0 -6.5 14.0 -10.75 9.75 -15.0 5.5 -15.0 -0.5 -15.0 -6.5 -10.75 -10.75 -6.5 -15.0 -0.5 -15.0 5.5 -15.0 9.75 -10.75 14.0 -6.5 14.0 -0.5 Z" fill="none" stroke="#000000" stroke-linecap="butt" stroke-linejoin="miter" stroke-width="4.0"/>
    <path d="M3.4 -0.5 Q3.4 1.25 2.15 2.45 0.9 3.7 -0.85 3.7 -2.55 3.7 -3.8 2.45 -5.05 1.25 -5.05 -0.5 -5.05 -2.25 -3.8 -3.5 -2.6 -4.75 -0.85 -4.75 0.9 -4.75 2.15 -3.5 3.4 -2.25 3.4 -0.5" fill="#000000" fill-rule="evenodd" stroke="none"/>
  </g>
</svg>
