<?xml version="1.0" encoding="UTF-8" standalone="no"?>
<svg xmlns:xlink="http://www.w3.org/1999/xlink" height="92.75px" width="75.8px" xmlns="http://www.w3.org/2000/svg">
  <g transform="matrix(1.0, 0.0, 0.0, 1.0, 37.9, 46.4)">
    <path d="M21.45 -8.05 L20.85 -8.55 20.1 -8.55 Q10.2 -3.6 -0.4 -3.6 -8.0 -3.6 -14.85 -6.05 L-18.85 -7.75 -20.25 -8.5 -21.0 -8.6 -21.65 -8.15 -21.75 -7.4 -21.3 -6.8 -15.5 -4.15 Q-8.25 -1.6 -0.4 -1.6 L-0.35 -1.6 Q10.55 -1.6 21.0 -6.75 L21.5 -7.3 21.45 -8.05 M16.9 -21.95 Q16.85 -20.9 16.25 -20.2 15.65 -19.5 14.8 -19.5 14.0 -19.5 13.4 -20.2 12.8 -20.9 12.7 -21.95 L-12.9 -21.95 Q-12.95 -20.9 -13.55 -20.2 -14.15 -19.5 -15.0 -19.5 -15.8 -19.5 -16.4 -20.2 -17.0 -20.9 -17.1 -21.95 L-26.25 -21.95 Q-24.65 -17.8 -19.55 -14.5 -15.9 -12.1 -11.0 -10.8 -5.95 -9.4 -0.4 -9.45 5.15 -9.4 10.25 -10.8 15.1 -12.1 18.8 -14.5 23.8 -17.7 25.5 -21.95 L16.9 -21.95 M26.2 -25.65 Q26.2 -28.7 24.3 -31.6 22.4 -34.5 18.8 -36.8 15.1 -39.15 10.25 -40.45 5.15 -41.85 -0.4 -41.85 -5.95 -41.85 -11.0 -40.45 -15.9 -39.15 -19.55 -36.8 -23.15 -34.5 -25.05 -31.6 -26.95 -28.7 -26.95 -25.65 L-26.95 -25.35 26.2 -25.35 26.2 -25.65 M21.25 -40.6 Q26.1 -37.45 28.45 -33.45 30.7 -32.75 32.1 -30.6 33.55 -28.45 33.55 -25.75 33.55 -23.1 32.2 -21.0 30.85 -18.9 28.7 -18.1 L37.9 46.35 -37.9 46.35 -29.35 -17.95 Q-31.65 -18.6 -33.15 -20.75 -34.7 -22.95 -34.7 -25.75 -34.7 -28.6 -33.1 -30.85 -31.55 -33.05 -29.15 -33.6 -26.55 -37.7 -22.0 -40.6 -13.0 -46.3 -0.4 -46.4 12.25 -46.3 21.25 -40.6" fill="#000000" fill-rule="evenodd" stroke="none"/>
    <path d="M-14.7 -30.8 Q-14.7 -30.2 -14.15 -30.2 L13.0 -30.2 Q13.55 -30.2 13.55 -30.8 13.55 -31.35 13.0 -31.35 L-14.15 -31.35 Q-14.7 -31.35 -14.7 -30.8 M-14.7 -34.2 Q-14.7 -33.6 -14.15 -33.6 L13.0 -33.6 Q13.55 -33.6 13.55 -34.2 13.55 -34.75 13.0 -34.75 L-14.15 -34.75 Q-14.7 -34.75 -14.7 -34.2 M18.8 -36.8 Q22.4 -34.5 24.3 -31.6 26.2 -28.7 26.2 -25.65 L26.2 -25.35 -26.95 -25.35 -26.95 -25.65 Q-26.95 -28.7 -25.05 -31.6 -23.15 -34.5 -19.55 -36.8 -15.9 -39.15 -11.0 -40.45 -5.95 -41.85 -0.4 -41.85 5.15 -41.85 10.25 -40.45 15.1 -39.15 18.8 -36.8" fill="#ffffff" fill-rule="evenodd" stroke="none"/>
    <path d="M13.4 -20.2 Q14.0 -19.5 14.8 -19.5 15.65 -19.5 16.25 -20.2 16.85 -20.9 16.9 -21.95 L25.5 -21.95 Q23.8 -17.7 18.8 -14.5 15.1 -12.1 10.25 -10.8 5.15 -9.4 -0.4 -9.45 -5.95 -9.4 -11.0 -10.8 -15.9 -12.1 -19.55 -14.5 -24.65 -17.8 -26.25 -21.95 L-17.1 -21.95 Q-17.0 -20.9 -16.4 -20.2 -15.8 -19.5 -15.0 -19.5 -14.15 -19.5 -13.55 -20.2 -12.95 -20.9 -12.9 -21.95 L12.7 -21.95 Q12.8 -20.9 13.4 -20.2" fill="#ffffff" fill-rule="evenodd" stroke="none"/>
    <path d="M13.0 -30.2 L-14.15 -30.2 Q-14.7 -30.2 -14.7 -30.8 -14.7 -31.35 -14.15 -31.35 L13.0 -31.35 Q13.55 -31.35 13.55 -30.8 13.55 -30.2 13.0 -30.2" fill="#000000" fill-rule="evenodd" stroke="none"/>
    <path d="M-14.15 -33.6 Q-14.7 -33.6 -14.7 -34.2 -14.7 -34.75 -14.15 -34.75 L13.0 -34.75 Q13.55 -34.75 13.55 -34.2 13.55 -33.6 13.0 -33.6 L-14.15 -33.6" fill="#000000" fill-rule="evenodd" stroke="none"/>
    <path d="M20.1 -8.55 L20.85 -8.55 21.45 -8.05 21.5 -7.3 21.0 -6.75 Q10.55 -1.6 -0.35 -1.6 L-0.4 -1.6 Q-8.25 -1.6 -15.5 -4.15 L-21.3 -6.8 -21.75 -7.4 -21.65 -8.15 -21.0 -8.6 -20.25 -8.5 -18.85 -7.75 -14.85 -6.05 Q-8.0 -3.6 -0.4 -3.6 10.2 -3.6 20.1 -8.55" fill="#ffffff" fill-rule="evenodd" stroke="none"/>
  </g>
</svg>
