<?xml version="1.0" encoding="UTF-8" standalone="no"?>
<svg xmlns:xlink="http://www.w3.org/1999/xlink" height="103.35px" width="60.9px" xmlns="http://www.w3.org/2000/svg">
  <g transform="matrix(1.0, 0.0, 0.0, 1.0, 30.45, 51.7)">
    <path d="M-1.5 13.2 L-1.5 46.65 -24.75 46.65 -24.75 -2.7 Q-21.75 4.2 -15.55 8.5 -9.25 12.9 -1.5 13.2" fill="#ffffff" fill-rule="evenodd" stroke="none"/>
    <path d="M0.5 13.2 Q6.7 12.95 12.1 10.05 17.35 7.2 20.85 2.35 22.35 17.4 22.35 33.0 L22.1 44.65 22.05 46.65 0.5 46.65 0.5 13.2" fill="#ffffff" fill-rule="evenodd" stroke="none"/>
    <path d="M-2.15 -28.0 L2.1 -28.0 Q1.0 -26.3 0.3 -24.3 L-0.3 -24.3 Q-1.0 -26.35 -2.15 -28.0" fill="#ffffff" fill-rule="evenodd" stroke="none"/>
    <path d="M14.45 3.6 Q8.1 9.3 -0.5 9.3 -9.05 9.3 -15.45 3.6 L14.45 3.6" fill="#ffffff" fill-rule="evenodd" stroke="none"/>
    <path d="M-5.4 -7.2 Q-1.3 -10.45 0.0 -15.5 1.3 -10.45 5.4 -7.2 9.6 -3.9 14.95 -3.85 17.7 -3.85 20.45 -4.9 19.25 -1.95 17.2 0.7 L-17.15 0.7 -18.0 0.95 Q-20.35 -2.05 -21.65 -5.4 -18.3 -3.85 -15.0 -3.85 -9.6 -3.9 -5.4 -7.2" fill="#ffffff" fill-rule="evenodd" stroke="none"/>
    <path d="M10.25 -20.7 Q9.75 -20.7 9.35 -20.35 9.0 -20.0 9.0 -19.5 9.0 -18.95 9.35 -18.6 9.75 -18.25 10.25 -18.25 10.75 -18.25 11.1 -18.6 11.45 -19.0 11.45 -19.5 11.45 -20.0 11.1 -20.35 10.75 -20.7 10.25 -20.7 M5.15 -19.35 L5.4 -21.4 24.55 -21.4 24.8 -19.35 Q24.8 -15.3 21.9 -12.4 19.05 -9.55 14.95 -9.55 10.9 -9.55 8.05 -12.4 5.15 -15.3 5.15 -19.35" fill="#ffffff" fill-rule="evenodd" stroke="none"/>
    <path d="M23.45 -24.3 L6.5 -24.3 Q7.8 -26.5 10.0 -27.8 12.3 -29.15 14.95 -29.15 17.65 -29.15 19.95 -27.8 22.15 -26.5 23.45 -24.3" fill="#ffffff" fill-rule="evenodd" stroke="none"/>
    <path d="M-10.0 -27.8 Q-7.8 -26.5 -6.5 -24.3 L-23.45 -24.3 Q-22.15 -26.5 -19.95 -27.8 -17.65 -29.15 -15.0 -29.15 -12.3 -29.15 -10.0 -27.8" fill="#ffffff" fill-rule="evenodd" stroke="none"/>
    <path d="M-5.4 -21.4 L-5.15 -19.35 Q-5.2 -15.3 -8.05 -12.4 -10.9 -9.55 -15.0 -9.55 -19.05 -9.55 -21.9 -12.4 -24.8 -15.3 -24.8 -19.35 L-24.55 -21.4 -5.4 -21.4 M-11.15 -20.35 L-11.5 -19.5 Q-11.5 -18.95 -11.15 -18.6 -10.75 -18.25 -10.25 -18.25 -9.7 -18.25 -9.35 -18.6 -9.0 -18.95 -9.0 -19.5 -9.0 -20.0 -9.35 -20.35 -9.75 -20.7 -10.25 -20.7 -10.75 -20.7 -11.15 -20.35" fill="#ffffff" fill-rule="evenodd" stroke="none"/>
    <path d="M-1.5 46.65 L-1.5 13.2 Q-9.25 12.9 -15.55 8.5 -21.75 4.2 -24.75 -2.7 L-24.75 46.65 -1.5 46.65 M-0.5 9.3 Q8.1 9.3 14.45 3.6 L-15.45 3.6 Q-9.05 9.3 -0.5 9.3 M22.35 33.0 Q22.35 17.4 20.85 2.35 17.35 7.2 12.1 10.05 6.7 12.95 0.5 13.2 L0.5 46.65 22.05 46.65 22.1 44.65 22.35 33.0 M23.45 -24.3 Q22.15 -26.5 19.95 -27.8 17.65 -29.15 14.95 -29.15 12.3 -29.15 10.0 -27.8 7.8 -26.5 6.5 -24.3 L23.45 -24.3 M-6.5 -24.3 Q-7.8 -26.5 -10.0 -27.8 -12.3 -29.15 -15.0 -29.15 -17.65 -29.15 -19.95 -27.8 -22.15 -26.5 -23.45 -24.3 L-6.5 -24.3 M5.4 -21.4 L5.15 -19.35 Q5.15 -15.3 8.05 -12.4 10.9 -9.55 14.95 -9.55 19.05 -9.55 21.9 -12.4 24.8 -15.3 24.8 -19.35 L24.55 -21.4 5.4 -21.4 M5.4 -7.2 Q1.3 -10.45 0.0 -15.5 -1.3 -10.45 -5.4 -7.2 -9.6 -3.9 -15.0 -3.85 -18.3 -3.85 -21.65 -5.4 -20.35 -2.05 -18.0 0.95 L-17.15 0.7 17.2 0.7 Q19.25 -1.95 20.45 -4.9 17.7 -3.85 14.95 -3.85 9.6 -3.9 5.4 -7.2 M-8.05 -12.4 Q-5.2 -15.3 -5.15 -19.35 L-5.4 -21.4 -24.55 -21.4 -24.8 -19.35 Q-24.8 -15.3 -21.9 -12.4 -19.05 -9.55 -15.0 -9.55 -10.9 -9.55 -8.05 -12.4 M2.1 -28.0 L-2.15 -28.0 Q-1.0 -26.35 -0.3 -24.3 L0.3 -24.3 Q1.0 -26.3 2.1 -28.0 M0.35 -48.7 Q-0.9 -48.7 -2.0 -46.6 -3.35 -44.05 -3.35 -40.35 -3.35 -36.65 -2.0 -34.1 -0.9 -32.0 0.35 -32.0 1.55 -32.0 2.65 -34.1 4.0 -36.65 4.0 -40.35 4.0 -44.05 2.65 -46.6 1.55 -48.7 0.35 -48.7 M14.9 -34.85 L14.95 -34.85 Q21.4 -34.85 25.95 -30.3 30.45 -25.75 30.45 -19.35 30.45 -16.05 29.1 -13.05 27.8 -10.15 25.45 -8.0 L24.95 -5.9 Q27.35 12.55 27.35 33.0 27.35 42.9 26.9 49.35 L26.75 51.65 -29.75 51.65 -29.75 -14.75 Q-30.45 -17.0 -30.45 -19.35 -30.45 -25.5 -26.25 -30.0 -22.05 -34.4 -15.95 -34.8 -11.7 -37.85 -6.3 -39.1 L-6.35 -40.35 Q-6.35 -44.85 -4.65 -48.0 -2.75 -51.65 0.35 -51.7 3.4 -51.65 5.3 -48.0 7.0 -44.85 7.0 -40.35 L6.9 -38.7 Q11.3 -37.4 14.9 -34.85" fill="#000000" fill-rule="evenodd" stroke="none"/>
    <path d="M10.25 -18.25 Q9.75 -18.25 9.35 -18.6 9.0 -18.95 9.0 -19.5 9.0 -20.0 9.35 -20.35 9.75 -20.7 10.25 -20.7 10.75 -20.7 11.1 -20.35 11.45 -20.0 11.45 -19.5 11.45 -19.0 11.1 -18.6 10.75 -18.25 10.25 -18.25" fill="#000000" fill-rule="evenodd" stroke="none"/>
    <path d="M-10.25 -18.25 Q-10.75 -18.25 -11.15 -18.6 -11.5 -18.95 -11.5 -19.5 L-11.15 -20.35 Q-10.75 -20.7 -10.25 -20.7 -9.75 -20.7 -9.35 -20.35 -9.0 -20.0 -9.0 -19.5 -9.0 -18.95 -9.35 -18.6 -9.7 -18.25 -10.25 -18.25" fill="#000000" fill-rule="evenodd" stroke="none"/>
    <path d="M1.6 -46.1 L0.7 -45.6 1.35 -44.05 Q2.0 -41.9 2.0 -40.15 2.0 -37.5 0.75 -35.45 L1.6 -34.95 Q3.0 -37.3 3.0 -40.15 3.0 -42.2 2.3 -44.35 L1.6 -46.1 M-2.0 -46.6 Q-0.9 -48.7 0.35 -48.7 1.55 -48.7 2.65 -46.6 4.0 -44.05 4.0 -40.35 4.0 -36.65 2.65 -34.1 1.55 -32.0 0.35 -32.0 -0.9 -32.0 -2.0 -34.1 -3.35 -36.65 -3.35 -40.35 -3.35 -44.05 -2.0 -46.6" fill="#ffffff" fill-rule="evenodd" stroke="none"/>
    <path d="M1.35 -44.05 L0.7 -45.6 1.6 -46.1 2.3 -44.35 Q3.0 -42.2 3.0 -40.15 3.0 -37.3 1.6 -34.95 L0.75 -35.45 Q2.0 -37.5 2.0 -40.15 2.0 -41.9 1.35 -44.05" fill="#000000" fill-rule="evenodd" stroke="none"/>
  </g>
</svg>
