<?xml version="1.0" encoding="UTF-8" standalone="no"?>
<svg xmlns:xlink="http://www.w3.org/1999/xlink" height="104.95px" width="54.6px" xmlns="http://www.w3.org/2000/svg">
  <g transform="matrix(1.0, 0.0, 0.0, 1.0, 27.3, 52.5)">
    <path d="M-12.4 -29.2 L-7.3 -31.45 Q-6.55 -30.25 -4.5 -30.25 -3.2 -30.25 -2.3 -30.85 -1.4 -31.4 -1.4 -32.25 -1.4 -33.1 -2.35 -33.65 L22.55 -44.7 22.6 -44.1 Q22.6 -36.0 21.0 -28.5 19.5 -21.4 16.8 -15.95 14.1 -10.6 10.85 -7.85 7.7 -5.25 4.4 -5.15 1.05 -5.25 -2.1 -7.85 -5.85 -11.0 -8.75 -17.45 -2.75 -12.8 4.5 -12.8 L7.9 -13.05 Q8.55 -13.15 8.9 -13.65 9.3 -14.15 9.2 -14.75 9.1 -15.4 8.6 -15.75 8.1 -16.1 7.5 -16.05 L4.5 -15.8 Q-3.45 -15.85 -9.45 -22.15 L-11.15 -24.1 -12.4 -29.2 M14.2 -34.2 Q12.95 -34.2 12.0 -33.6 11.1 -33.05 11.1 -32.25 11.1 -31.4 12.0 -30.85 12.95 -30.25 14.2 -30.25 15.5 -30.25 16.4 -30.85 17.3 -31.4 17.3 -32.25 17.3 -33.05 16.4 -33.6 15.45 -34.2 14.2 -34.2" fill="#ffffff" fill-rule="evenodd" stroke="none"/>
    <path d="M14.2 -30.25 Q12.95 -30.25 12.0 -30.85 11.1 -31.4 11.1 -32.25 11.1 -33.05 12.0 -33.6 12.95 -34.2 14.2 -34.2 15.45 -34.2 16.4 -33.6 17.3 -33.05 17.3 -32.25 17.3 -31.4 16.4 -30.85 15.5 -30.25 14.2 -30.25" fill="#000000" fill-rule="evenodd" stroke="none"/>
    <path d="M-18.3 -52.25 L-18.25 -50.85 -18.15 -52.5 26.9 -52.5 27.05 -50.3 27.3 -44.1 Q27.25 -33.15 24.7 -23.75 22.2 -14.45 17.65 -8.4 L23.05 4.75 13.7 14.75 21.7 52.45 -19.3 52.45 -16.8 -7.15 -27.3 -6.55 -18.3 -52.25 M-2.35 -33.65 Q-1.4 -33.1 -1.4 -32.25 -1.4 -31.4 -2.3 -30.85 -3.2 -30.25 -4.5 -30.25 -6.55 -30.25 -7.3 -31.45 L-12.4 -29.2 -11.15 -24.1 -9.45 -22.15 Q-3.45 -15.85 4.5 -15.8 L7.5 -16.05 Q8.1 -16.1 8.6 -15.75 9.1 -15.4 9.2 -14.75 9.3 -14.15 8.9 -13.65 8.55 -13.15 7.9 -13.05 L4.5 -12.8 Q-2.75 -12.8 -8.75 -17.45 -5.85 -11.0 -2.1 -7.85 1.05 -5.25 4.4 -5.15 7.7 -5.25 10.85 -7.85 14.1 -10.6 16.8 -15.95 19.5 -21.4 21.0 -28.5 22.6 -36.0 22.6 -44.1 L22.55 -44.7 -2.35 -33.65" fill="#000000" fill-rule="evenodd" stroke="none"/>
  </g>
</svg>
