<?xml version="1.0" encoding="UTF-8" standalone="no"?>
<svg xmlns:xlink="http://www.w3.org/1999/xlink" height="93.8px" width="83.45px" xmlns="http://www.w3.org/2000/svg">
  <g transform="matrix(1.0, 0.0, 0.0, 1.0, 41.7, 46.9)">
    <path d="M33.95 -8.8 L27.8 -11.15 27.8 -9.6 Q27.8 -2.95 23.1 1.75 18.4 6.45 11.75 6.45 L9.25 6.45 18.15 13.0 33.95 -8.8 M-12.05 6.45 Q-18.7 6.45 -23.4 1.75 -28.1 -2.95 -28.1 -9.6 L-28.1 -11.25 -34.0 -9.75 -19.0 13.0 -10.1 6.45 -12.05 6.45 M-20.5 -1.15 Q-17.0 2.35 -12.05 2.35 L11.75 2.35 Q16.7 2.35 20.2 -1.15 23.7 -4.65 23.75 -9.6 L23.75 -9.8 Q12.6 -6.25 0.65 -6.25 -12.45 -6.25 -24.0 -9.95 L-24.0 -9.6 Q-24.0 -4.65 -20.5 -1.15 M-23.9 -30.75 L-24.0 -28.45 -7.7 -26.25 Q-9.45 -27.55 -12.3 -28.45 -17.1 -30.1 -23.9 -30.75 M-27.05 -25.85 L-27.05 -18.5 -6.5 -18.5 -5.9 -23.0 -13.65 -24.0 Q-12.75 -23.45 -12.75 -22.3 -12.75 -21.4 -13.4 -20.75 -14.05 -20.15 -14.9 -20.15 -15.8 -20.15 -16.4 -20.75 -17.05 -21.4 -17.05 -22.3 -17.05 -22.95 -16.65 -23.5 L-15.65 -24.3 -27.05 -25.85 M10.85 -31.95 Q7.4 -29.9 6.35 -25.9 L23.75 -28.35 23.75 -29.1 Q23.65 -31.65 22.8 -33.7 L19.75 -33.85 Q14.35 -33.95 10.85 -31.95 M15.25 -20.15 Q14.35 -20.15 13.75 -20.75 13.1 -21.4 13.1 -22.3 13.1 -23.3 13.9 -23.95 L7.0 -22.95 7.0 -18.5 27.15 -18.5 27.15 -25.8 16.1 -24.25 Q17.4 -23.65 17.4 -22.3 17.4 -21.4 16.8 -20.75 16.15 -20.15 15.25 -20.15 M4.0 -21.0 L3.45 -20.9 -3.0 -20.9 -3.15 -20.95 -3.7 -16.85 Q-3.75 -16.3 -4.2 -15.9 -4.65 -15.5 -5.2 -15.5 L-24.0 -15.5 -24.0 -13.6 -23.2 -13.35 -17.85 -11.9 Q-8.45 -9.75 0.65 -9.75 12.65 -9.75 23.75 -13.5 L23.75 -15.5 5.5 -15.5 Q4.9 -15.5 4.45 -15.95 4.0 -16.4 4.0 -17.0 L4.0 -21.0 M14.05 -40.85 Q13.15 -39.6 9.1 -38.75 L-0.35 -37.9 -9.7 -38.75 Q-13.7 -39.55 -14.7 -40.8 -19.6 -39.65 -22.3 -35.3 L-19.65 -34.95 Q-11.35 -33.65 -6.6 -31.1 -1.8 -28.4 -1.2 -24.45 L1.35 -24.45 1.35 -24.55 Q1.75 -28.6 3.8 -31.65 5.65 -34.45 8.55 -36.05 12.75 -38.35 19.1 -38.55 16.9 -40.3 14.05 -40.85 M-0.05 -46.9 Q7.65 -46.9 13.3 -45.1 16.9 -44.75 20.0 -42.9 23.05 -41.05 25.0 -38.15 L27.6 -37.7 Q28.55 -37.45 29.05 -36.65 29.55 -35.85 29.3 -34.9 29.0 -33.35 27.3 -33.1 27.8 -31.0 27.8 -29.1 L27.8 -28.95 28.45 -29.05 29.65 -28.7 Q30.15 -28.2 30.15 -27.55 L30.15 -17.0 Q30.15 -16.4 29.7 -15.95 29.25 -15.5 28.65 -15.5 L27.8 -15.5 27.8 -13.35 40.95 -15.85 41.55 -11.45 Q42.0 -5.7 41.4 1.1 39.5 22.85 27.6 46.9 L-27.5 46.9 Q-39.4 22.85 -41.35 1.05 -41.95 -5.8 -41.5 -11.55 L-40.9 -15.95 -28.1 -13.55 -28.1 -15.5 -28.55 -15.5 Q-29.1 -15.5 -29.65 -15.95 -30.05 -16.45 -30.05 -17.0 L-30.05 -27.55 Q-30.05 -28.3 -29.55 -28.65 -29.05 -29.15 -28.35 -29.05 L-28.1 -29.0 -28.1 -29.1 -27.95 -31.2 Q-28.7 -31.45 -29.1 -32.1 -29.6 -32.75 -29.55 -33.5 -29.45 -34.45 -28.75 -35.15 -28.05 -35.8 -27.1 -35.75 L-26.7 -35.7 Q-25.05 -39.4 -21.8 -41.85 -18.55 -44.35 -14.5 -45.0 -8.6 -46.9 -0.05 -46.9" fill="#000000" fill-rule="evenodd" stroke="none"/>
    <path d="M-19.0 13.0 L-34.0 -9.75 -28.1 -11.25 -28.1 -9.6 Q-28.1 -2.95 -23.4 1.75 -18.7 6.45 -12.05 6.45 L-10.1 6.45 -19.0 13.0" fill="#ffffff" fill-rule="evenodd" stroke="none"/>
    <path d="M11.75 6.45 Q18.4 6.45 23.1 1.75 27.8 -2.95 27.8 -9.6 L27.8 -11.15 33.95 -8.8 18.15 13.0 9.25 6.45 11.75 6.45" fill="#ffffff" fill-rule="evenodd" stroke="none"/>
    <path d="M-24.0 -28.45 L-23.9 -30.75 Q-17.1 -30.1 -12.3 -28.45 -9.45 -27.55 -7.7 -26.25 L-24.0 -28.45" fill="#ffffff" fill-rule="evenodd" stroke="none"/>
    <path d="M-0.35 -37.9 L9.1 -38.75 Q13.15 -39.6 14.05 -40.85 16.9 -40.3 19.1 -38.55 12.75 -38.35 8.55 -36.05 5.65 -34.45 3.8 -31.65 1.75 -28.6 1.35 -24.55 L1.35 -24.45 -1.2 -24.45 Q-1.8 -28.4 -6.6 -31.1 -11.35 -33.65 -19.65 -34.95 L-22.3 -35.3 Q-19.6 -39.65 -14.7 -40.8 -13.7 -39.55 -9.7 -38.75 L-0.35 -37.9" fill="#ffffff" fill-rule="evenodd" stroke="none"/>
    <path d="M4.45 -15.95 Q4.9 -15.5 5.5 -15.5 L23.75 -15.5 23.75 -13.5 Q12.65 -9.75 0.65 -9.75 -8.45 -9.75 -17.85 -11.9 L-23.2 -13.35 -24.0 -13.6 -24.0 -15.5 -5.2 -15.5 Q-4.65 -15.5 -4.2 -15.9 -3.75 -16.3 -3.7 -16.85 L-3.15 -20.95 -3.0 -20.9 3.45 -20.9 4.0 -21.0 4.0 -17.0 Q4.0 -16.4 4.45 -15.95" fill="#ffffff" fill-rule="evenodd" stroke="none"/>
    <path d="M10.85 -31.95 Q14.35 -33.95 19.75 -33.85 L22.8 -33.7 Q23.65 -31.65 23.75 -29.1 L23.75 -28.35 6.35 -25.9 Q7.4 -29.9 10.85 -31.95" fill="#ffffff" fill-rule="evenodd" stroke="none"/>
    <path d="M-8.55 -3.7 Q-9.15 -3.7 -9.6 -3.25 L-10.05 -2.2 Q-10.05 -1.6 -9.6 -1.15 -9.15 -0.7 -8.55 -0.7 L9.8 -0.7 Q10.4 -0.7 10.85 -1.15 11.3 -1.6 11.3 -2.2 L10.85 -3.25 Q10.4 -3.7 9.8 -3.7 L-8.55 -3.7 M-12.05 2.35 Q-17.0 2.35 -20.5 -1.15 -24.0 -4.65 -24.0 -9.6 L-24.0 -9.95 Q-12.45 -6.25 0.65 -6.25 12.6 -6.25 23.75 -9.8 L23.75 -9.6 Q23.7 -4.65 20.2 -1.15 16.7 2.35 11.75 2.35 L-12.05 2.35" fill="#ffffff" fill-rule="evenodd" stroke="none"/>
    <path d="M-27.05 -18.5 L-27.05 -25.85 -15.65 -24.3 -16.65 -23.5 Q-17.05 -22.95 -17.05 -22.3 -17.05 -21.4 -16.4 -20.75 -15.8 -20.15 -14.9 -20.15 -14.05 -20.15 -13.4 -20.75 -12.75 -21.4 -12.75 -22.3 -12.75 -23.45 -13.65 -24.0 L-5.9 -23.0 -6.5 -18.5 -27.05 -18.5" fill="#ffffff" fill-rule="evenodd" stroke="none"/>
    <path d="M13.75 -20.75 Q14.35 -20.15 15.25 -20.15 16.15 -20.15 16.8 -20.75 17.4 -21.4 17.4 -22.3 17.4 -23.65 16.1 -24.25 L27.15 -25.8 27.15 -18.5 7.0 -18.5 7.0 -22.95 13.9 -23.95 Q13.1 -23.3 13.1 -22.3 13.1 -21.4 13.75 -20.75" fill="#ffffff" fill-rule="evenodd" stroke="none"/>
    <path d="M-8.55 -0.7 Q-9.15 -0.7 -9.6 -1.15 -10.05 -1.6 -10.05 -2.2 L-9.6 -3.25 Q-9.15 -3.7 -8.55 -3.7 L9.8 -3.7 Q10.4 -3.7 10.85 -3.25 L11.3 -2.2 Q11.3 -1.6 10.85 -1.15 10.4 -0.7 9.8 -0.7 L-8.55 -0.7" fill="#000000" fill-rule="evenodd" stroke="none"/>
  </g>
</svg>
