<?xml version="1.0" encoding="UTF-8" standalone="no"?>
<svg xmlns:xlink="http://www.w3.org/1999/xlink" height="74.4px" width="64.5px" xmlns="http://www.w3.org/2000/svg">
  <g transform="matrix(1.0, 0.0, 0.0, 1.0, 32.25, 37.2)">
    <path d="M17.45 -14.7 Q17.45 -15.45 16.5 -16.0 15.55 -16.55 14.25 -16.55 12.95 -16.55 12.05 -16.0 11.1 -15.5 11.1 -14.75 11.1 -14.0 12.0 -13.45 12.95 -12.9 14.25 -12.9 15.55 -12.9 16.5 -13.4 17.45 -13.95 17.45 -14.7 M-15.05 -16.7 L-17.3 -16.15 Q-18.25 -15.65 -18.25 -14.9 -18.25 -14.15 -17.35 -13.6 -16.4 -13.05 -15.1 -13.05 -13.8 -13.05 -12.85 -13.55 -11.9 -14.1 -11.9 -14.85 -11.9 -15.65 -12.8 -16.15 -13.75 -16.7 -15.05 -16.7 M11.95 -27.7 L27.45 -27.65 27.3 1.85 -10.8 1.65 -13.1 1.85 Q-15.45 2.2 -15.65 3.15 -15.85 4.05 -13.5 4.35 L-11.1 4.45 27.25 4.65 27.25 10.85 -27.3 10.55 -27.1 -27.9 -12.15 -27.85 Q-9.1 -23.2 -0.55 -22.95 8.45 -22.7 11.95 -27.7" fill="#ffffff" fill-rule="evenodd" stroke="none"/>
    <path d="M-21.25 37.0 Q-27.0 35.85 -29.95 30.05 -31.8 26.35 -32.25 21.5 L-31.85 -37.2 32.25 -36.85 31.95 24.7 Q31.05 29.15 28.95 32.15 26.05 36.3 21.25 37.2 L-21.25 37.0 M-2.55 17.35 Q-5.8 17.6 -7.95 18.7 -10.1 19.8 -10.1 21.3 -10.1 22.75 -7.95 23.9 -5.85 25.0 -2.6 25.3 L-2.55 17.35 M0.4 17.35 L0.4 25.3 Q3.75 25.1 6.0 24.0 8.25 22.9 8.25 21.4 8.25 19.85 6.0 18.7 3.75 17.6 0.4 17.35 M27.45 -27.65 L11.95 -27.7 Q8.45 -22.7 -0.55 -22.95 -9.1 -23.2 -12.15 -27.85 L-27.1 -27.9 -27.3 10.55 27.25 10.85 27.25 4.65 -11.1 4.45 -13.5 4.35 Q-15.85 4.05 -15.65 3.15 -15.45 2.2 -13.1 1.85 L-10.8 1.65 27.3 1.85 27.45 -27.65" fill="#000000" fill-rule="evenodd" stroke="none"/>
    <path d="M-15.1 -13.05 Q-16.4 -13.05 -17.35 -13.6 -18.25 -14.15 -18.25 -14.9 -18.25 -15.65 -17.3 -16.15 L-15.05 -16.7 Q-13.75 -16.7 -12.8 -16.15 -11.9 -15.65 -11.9 -14.85 -11.9 -14.1 -12.85 -13.55 -13.8 -13.05 -15.1 -13.05" fill="#000000" fill-rule="evenodd" stroke="none"/>
    <path d="M14.25 -12.9 Q12.95 -12.9 12.0 -13.45 11.1 -14.0 11.1 -14.75 11.1 -15.5 12.05 -16.0 12.95 -16.55 14.25 -16.55 15.55 -16.55 16.5 -16.0 17.45 -15.45 17.45 -14.7 17.45 -13.95 16.5 -13.4 15.55 -12.9 14.25 -12.9" fill="#000000" fill-rule="evenodd" stroke="none"/>
    <path d="M0.4 25.3 L0.4 17.35 Q3.75 17.6 6.0 18.7 8.25 19.85 8.25 21.4 8.25 22.9 6.0 24.0 3.75 25.1 0.4 25.3" fill="#ffffff" fill-rule="evenodd" stroke="none"/>
    <path d="M-2.6 25.3 Q-5.85 25.0 -7.95 23.9 -10.1 22.75 -10.1 21.3 -10.1 19.8 -7.95 18.7 -5.8 17.6 -2.55 17.35 L-2.6 25.3" fill="#ffffff" fill-rule="evenodd" stroke="none"/>
  </g>
</svg>
