<?xml version="1.0" encoding="UTF-8" standalone="no"?>
<svg xmlns:xlink="http://www.w3.org/1999/xlink" height="86.25px" width="60.95px" xmlns="http://www.w3.org/2000/svg">
  <g transform="matrix(1.0, 0.0, 0.0, 1.0, 30.45, 43.15)">
    <path d="M-5.95 -3.45 Q-6.4 -3.0 -6.4 -2.35 -6.4 -1.75 -5.95 -1.3 -5.55 -0.9 -4.9 -0.9 -4.25 -0.9 -3.85 -1.3 -1.2 -3.95 1.4 -3.95 3.2 -3.95 4.85 -2.8 L6.15 -1.7 6.2 -1.6 Q6.6 -1.15 7.2 -1.1 7.8 -1.0 8.3 -1.4 8.8 -1.8 8.85 -2.45 8.9 -3.05 8.5 -3.5 L6.55 -5.25 Q4.15 -6.9 1.4 -6.95 -2.45 -6.95 -5.95 -3.45 M-0.45 5.9 Q-7.65 5.9 -13.45 1.8 -19.15 -2.25 -21.6 -8.75 -18.45 -7.25 -14.95 -7.25 -9.6 -7.25 -5.4 -10.55 -1.3 -13.8 0.0 -18.9 1.35 -13.8 5.45 -10.55 9.65 -7.25 15.0 -7.25 17.85 -7.25 20.45 -8.25 17.95 -1.95 12.3 1.95 6.55 5.9 -0.45 5.9" fill="#ffffff" fill-rule="evenodd" stroke="none"/>
    <path d="M-9.65 -37.25 Q-5.3 -39.2 -0.45 -39.2 4.6 -39.2 9.15 -37.05 6.5 -36.0 4.4 -34.0 L-4.35 -34.0 Q-6.6 -36.1 -9.65 -37.25" fill="#ffffff" fill-rule="evenodd" stroke="none"/>
    <path d="M-2.1 -31.35 L2.15 -31.35 Q0.7 -29.2 0.0 -26.6 -0.6 -29.15 -2.1 -31.35" fill="#ffffff" fill-rule="evenodd" stroke="none"/>
    <path d="M14.05 -21.15 Q14.75 -21.15 15.25 -21.65 15.75 -22.15 15.75 -22.85 15.75 -23.55 15.25 -24.05 14.75 -24.55 14.05 -24.55 13.35 -24.55 12.85 -24.05 12.35 -23.55 12.35 -22.85 12.35 -22.15 12.85 -21.65 13.35 -21.15 14.05 -21.15 M8.1 -15.8 Q5.2 -18.65 5.2 -22.75 5.2 -26.8 8.1 -29.65 10.95 -32.55 15.0 -32.55 19.05 -32.55 21.95 -29.65 24.8 -26.8 24.8 -22.75 24.8 -18.65 21.95 -15.8 19.05 -12.95 15.0 -12.9 10.95 -12.95 8.1 -15.8" fill="#ffffff" fill-rule="evenodd" stroke="none"/>
    <path d="M-13.45 1.8 Q-7.65 5.9 -0.45 5.9 6.55 5.9 12.3 1.95 17.95 -1.95 20.45 -8.25 17.85 -7.25 15.0 -7.25 9.65 -7.25 5.45 -10.55 1.35 -13.8 0.0 -18.9 -1.3 -13.8 -5.4 -10.55 -9.6 -7.25 -14.95 -7.25 -18.45 -7.25 -21.6 -8.75 -19.15 -2.25 -13.45 1.8 M-2.1 -31.35 Q-0.6 -29.15 0.0 -26.6 0.7 -29.2 2.15 -31.35 L-2.1 -31.35 M-8.0 -15.8 Q-5.15 -18.65 -5.15 -22.75 -5.15 -26.8 -8.0 -29.65 -10.9 -32.55 -14.95 -32.55 -19.0 -32.55 -21.85 -29.65 -24.75 -26.8 -24.75 -22.75 -24.75 -18.65 -21.9 -15.8 -19.05 -12.95 -14.95 -12.9 -10.9 -12.95 -8.0 -15.8 M14.9 -38.2 L15.0 -38.2 Q21.4 -38.2 25.95 -33.7 30.5 -29.15 30.5 -22.75 30.5 -19.45 29.15 -16.45 27.85 -13.55 25.5 -11.35 24.05 -4.45 19.55 0.65 24.55 21.75 23.0 43.1 L-26.25 43.1 -26.25 -10.6 -26.65 -12.6 Q-30.45 -16.95 -30.45 -22.75 -30.45 -28.9 -26.2 -33.35 -22.0 -37.75 -15.9 -38.15 -9.0 -43.15 -0.45 -43.15 7.95 -43.15 14.9 -38.2 M4.4 -34.0 Q6.5 -36.0 9.15 -37.05 4.6 -39.2 -0.45 -39.2 -5.3 -39.2 -9.65 -37.25 -6.6 -36.1 -4.35 -34.0 L4.4 -34.0 M5.2 -22.75 Q5.2 -18.65 8.1 -15.8 10.95 -12.95 15.0 -12.9 19.05 -12.95 21.95 -15.8 24.8 -18.65 24.8 -22.75 24.8 -26.8 21.95 -29.65 19.05 -32.55 15.0 -32.55 10.95 -32.55 8.1 -29.65 5.2 -26.8 5.2 -22.75" fill="#000000" fill-rule="evenodd" stroke="none"/>
    <path d="M-5.15 -22.75 Q-5.15 -18.65 -8.0 -15.8 -10.9 -12.95 -14.95 -12.9 -19.05 -12.95 -21.9 -15.8 -24.75 -18.65 -24.75 -22.75 -24.75 -26.8 -21.85 -29.65 -19.0 -32.55 -14.95 -32.55 -10.9 -32.55 -8.0 -29.65 -5.15 -26.8 -5.15 -22.75 M-13.2 -24.55 Q-13.9 -24.55 -14.4 -24.05 -14.9 -23.55 -14.9 -22.85 -14.9 -22.15 -14.4 -21.65 -13.9 -21.15 -13.2 -21.15 -12.5 -21.15 -12.0 -21.65 -11.5 -22.15 -11.5 -22.85 -11.5 -23.55 -12.0 -24.05 -12.5 -24.55 -13.2 -24.55" fill="#ffffff" fill-rule="evenodd" stroke="none"/>
    <path d="M-13.2 -21.15 Q-13.9 -21.15 -14.4 -21.65 -14.9 -22.15 -14.9 -22.85 -14.9 -23.55 -14.4 -24.05 -13.9 -24.55 -13.2 -24.55 -12.5 -24.55 -12.0 -24.05 -11.5 -23.55 -11.5 -22.85 -11.5 -22.15 -12.0 -21.65 -12.5 -21.15 -13.2 -21.15" fill="#000000" fill-rule="evenodd" stroke="none"/>
    <path d="M14.05 -24.55 Q14.75 -24.55 15.25 -24.05 15.75 -23.55 15.75 -22.85 15.75 -22.15 15.25 -21.65 14.75 -21.15 14.05 -21.15 13.35 -21.15 12.85 -21.65 12.35 -22.15 12.35 -22.85 12.35 -23.55 12.85 -24.05 13.35 -24.55 14.05 -24.55" fill="#000000" fill-rule="evenodd" stroke="none"/>
    <path d="M-6.4 -2.35 Q-6.4 -3.0 -5.95 -3.45 -2.45 -6.95 1.4 -6.95 4.15 -6.9 6.55 -5.25 L8.5 -3.5 Q8.9 -3.05 8.85 -2.45 8.8 -1.8 8.3 -1.4 7.8 -1.0 7.2 -1.1 6.6 -1.15 6.2 -1.6 L6.15 -1.7 4.85 -2.8 Q3.2 -3.95 1.4 -3.95 -1.2 -3.95 -3.85 -1.3 -4.25 -0.9 -4.9 -0.9 -5.55 -0.9 -5.95 -1.3 -6.4 -1.75 -6.4 -2.35" fill="#000000" fill-rule="evenodd" stroke="none"/>
  </g>
</svg>
