<?xml version="1.0" encoding="UTF-8" standalone="no"?>
<svg xmlns:xlink="http://www.w3.org/1999/xlink" height="130.1px" width="56.75px" xmlns="http://www.w3.org/2000/svg">
  <g transform="matrix(1.0, 0.0, 0.0, 1.0, 28.4, 65.05)">
    <path d="M-24.55 18.4 L-24.55 -25.2 -20.05 -25.2 -16.2 7.0 13.15 7.0 15.45 -12.3 19.05 18.4 -24.55 18.4" fill="#ffffff" fill-rule="evenodd" stroke="none"/>
    <path d="M8.8 2.1 L9.15 -0.8 -12.2 -0.8 -11.85 2.1 8.8 2.1 M-13.5 -13.8 L-11.05 -9.3 7.75 -9.3 10.3 -13.8 -13.5 -13.8 M-20.05 -25.2 L-24.55 -25.2 -24.55 18.4 19.05 18.4 15.45 -12.3 13.15 7.0 -16.2 7.0 -20.05 -25.2 M9.1 -3.1 L7.6 -8.15 -10.9 -8.15 -12.3 -3.1 9.1 -3.1 M-18.3 -51.75 L-16.75 -38.7 -1.5 -43.1 13.55 -37.6 15.9 -57.2 -18.3 -51.75 M-11.15 -37.65 L-16.45 -36.1 -14.05 -16.05 11.0 -16.05 13.25 -35.0 7.95 -36.9 8.1 -36.15 Q8.1 -35.3 7.5 -34.65 6.85 -34.05 6.0 -34.05 5.15 -34.05 4.55 -34.65 3.95 -35.3 3.95 -36.15 3.95 -37.45 5.05 -37.95 L-1.55 -40.4 -9.3 -38.15 -8.1 -37.45 Q-7.6 -36.9 -7.6 -36.15 -7.6 -35.3 -8.2 -34.65 -8.85 -34.05 -9.7 -34.05 -10.55 -34.05 -11.2 -34.65 -11.8 -35.3 -11.8 -36.15 -11.8 -37.0 -11.15 -37.65 M-28.4 -29.05 L-20.5 -29.05 -24.8 -65.05 21.75 -65.05 17.4 -28.65 28.35 65.05 -28.4 65.05 -28.4 -29.05" fill="#000000" fill-rule="evenodd" stroke="none"/>
    <path d="M-1.5 -43.1 L-16.75 -38.7 -18.3 -51.75 15.9 -57.2 13.55 -37.6 -1.5 -43.1" fill="#ffffff" fill-rule="evenodd" stroke="none"/>
    <path d="M8.8 2.1 L-11.85 2.1 -12.2 -0.8 9.15 -0.8 8.8 2.1" fill="#ffffff" fill-rule="evenodd" stroke="none"/>
    <path d="M9.1 -3.1 L-12.3 -3.1 -10.9 -8.15 7.6 -8.15 9.1 -3.1" fill="#ffffff" fill-rule="evenodd" stroke="none"/>
    <path d="M-11.05 -9.3 L-13.5 -13.8 10.3 -13.8 7.75 -9.3 -11.05 -9.3" fill="#ffffff" fill-rule="evenodd" stroke="none"/>
    <path d="M-4.3 -21.1 Q-3.6 -21.1 -3.15 -21.55 -2.65 -22.05 -2.65 -22.75 -2.65 -23.4 -3.15 -23.9 -3.6 -24.4 -4.3 -24.4 -4.95 -24.4 -5.45 -23.9 -5.95 -23.4 -5.95 -22.75 -5.95 -22.05 -5.45 -21.55 -5.0 -21.1 -4.3 -21.1 M0.6 -21.1 Q1.3 -21.1 1.75 -21.55 2.25 -22.05 2.25 -22.75 2.25 -23.4 1.75 -23.9 1.3 -24.4 0.6 -24.4 -0.05 -24.4 -0.55 -23.9 -1.05 -23.4 -1.05 -22.75 -1.05 -22.05 -0.55 -21.55 -0.1 -21.1 0.6 -21.1 M-16.45 -36.1 L-11.15 -37.65 Q-11.8 -37.0 -11.8 -36.15 -11.8 -35.3 -11.2 -34.65 -10.55 -34.05 -9.7 -34.05 -8.85 -34.05 -8.2 -34.65 -7.6 -35.3 -7.6 -36.15 -7.6 -36.9 -8.1 -37.45 L-9.3 -38.15 -1.55 -40.4 5.05 -37.95 Q3.95 -37.45 3.95 -36.15 3.95 -35.3 4.55 -34.65 5.15 -34.05 6.0 -34.05 6.85 -34.05 7.5 -34.65 8.1 -35.3 8.1 -36.15 L7.95 -36.9 13.25 -35.0 11.0 -16.05 -14.05 -16.05 -16.45 -36.1" fill="#ffffff" fill-rule="evenodd" stroke="none"/>
    <path d="M-4.3 -24.4 Q-3.6 -24.4 -3.15 -23.9 -2.65 -23.4 -2.65 -22.75 -2.65 -22.05 -3.15 -21.55 -3.6 -21.1 -4.3 -21.1 -5.0 -21.1 -5.45 -21.55 -5.95 -22.05 -5.95 -22.75 -5.95 -23.4 -5.45 -23.9 -4.95 -24.4 -4.3 -24.4" fill="#000000" fill-rule="evenodd" stroke="none"/>
    <path d="M0.6 -24.4 Q1.3 -24.4 1.75 -23.9 2.25 -23.4 2.25 -22.75 2.25 -22.05 1.75 -21.55 1.3 -21.1 0.6 -21.1 -0.1 -21.1 -0.55 -21.55 -1.05 -22.05 -1.05 -22.75 -1.05 -23.4 -0.55 -23.9 -0.05 -24.4 0.6 -24.4" fill="#000000" fill-rule="evenodd" stroke="none"/>
  </g>
</svg>
