<?xml version="1.0" encoding="UTF-8" standalone="no"?>
<svg xmlns:xlink="http://www.w3.org/1999/xlink" height="93.75px" width="72.5px" xmlns="http://www.w3.org/2000/svg">
  <g transform="matrix(1.0, 0.0, 0.0, 1.0, 36.25, 46.9)">
    <path d="M-32.75 30.85 L-32.75 41.35 32.25 41.35 32.25 30.85 -32.75 30.85 M-7.25 6.85 L-5.9 5.95 Q-3.95 4.9 -1.15 4.0 7.85 1.1 22.25 0.9 21.5 -12.25 17.45 -22.9 13.55 -33.2 8.0 -37.8 5.05 -40.3 2.0 -40.9 L2.0 -1.8 -7.3 -7.65 -6.25 -9.35 0.0 -5.45 0.0 -41.1 Q-4.05 -41.1 -7.95 -37.8 -12.0 -34.45 -15.3 -27.85 -18.6 -21.15 -20.45 -12.35 -22.4 -3.15 -22.4 6.85 L-22.3 11.4 22.35 11.4 22.45 6.85 -7.25 6.85 M-11.7 -42.25 Q-6.15 -46.95 0.0 -46.9 6.2 -46.95 11.75 -42.25 16.8 -37.9 20.5 -30.4 26.05 -19.25 27.65 -4.15 L36.25 -4.15 36.25 46.85 -36.25 46.85 -36.25 -4.15 -27.6 -4.15 Q-26.25 -16.85 -22.1 -26.8 -17.95 -36.8 -11.7 -42.25" fill="#000000" fill-rule="evenodd" stroke="none"/>
    <path d="M-10.0 -28.9 Q-11.15 -28.9 -11.95 -28.1 -12.75 -27.3 -12.75 -26.15 -12.75 -25.0 -11.95 -24.2 -11.15 -23.4 -10.0 -23.4 -8.85 -23.4 -8.05 -24.2 -7.25 -25.0 -7.25 -26.15 -7.25 -27.25 -8.05 -28.1 -8.85 -28.9 -10.0 -28.9 M8.0 -37.8 Q13.55 -33.2 17.45 -22.9 21.5 -12.25 22.25 0.9 7.85 1.1 -1.15 4.0 -3.95 4.9 -5.9 5.95 L-7.25 6.85 22.45 6.85 22.35 11.4 -22.3 11.4 -22.4 6.85 Q-22.4 -3.15 -20.45 -12.35 -18.6 -21.15 -15.3 -27.85 -12.0 -34.45 -7.95 -37.8 -4.05 -41.1 0.0 -41.1 L0.0 -5.45 -6.25 -9.35 -7.3 -7.65 2.0 -1.8 2.0 -40.9 Q5.05 -40.3 8.0 -37.8 M11.45 -28.1 Q10.65 -28.9 9.5 -28.9 8.35 -28.9 7.55 -28.1 6.75 -27.3 6.75 -26.15 6.75 -25.0 7.55 -24.2 8.35 -23.4 9.5 -23.4 10.65 -23.4 11.45 -24.2 12.25 -25.0 12.25 -26.15 12.25 -27.25 11.45 -28.1" fill="#ffffff" fill-rule="evenodd" stroke="none"/>
    <path d="M-10.0 -23.4 Q-11.15 -23.4 -11.95 -24.2 -12.75 -25.0 -12.75 -26.15 -12.75 -27.3 -11.95 -28.1 -11.15 -28.9 -10.0 -28.9 -8.85 -28.9 -8.05 -28.1 -7.25 -27.25 -7.25 -26.15 -7.25 -25.0 -8.05 -24.2 -8.85 -23.4 -10.0 -23.4" fill="#000000" fill-rule="evenodd" stroke="none"/>
    <path d="M9.5 -23.4 Q8.35 -23.4 7.55 -24.2 6.75 -25.0 6.75 -26.15 6.75 -27.3 7.55 -28.1 8.35 -28.9 9.5 -28.9 10.65 -28.9 11.45 -28.1 12.25 -27.25 12.25 -26.15 12.25 -25.0 11.45 -24.2 10.65 -23.4 9.5 -23.4" fill="#000000" fill-rule="evenodd" stroke="none"/>
    <path d="M-32.75 41.35 L-32.75 30.85 32.25 30.85 32.25 41.35 -32.75 41.35" fill="#ffffff" fill-rule="evenodd" stroke="none"/>
  </g>
</svg>
