<?xml version="1.0" encoding="UTF-8" standalone="no"?>
<svg xmlns:xlink="http://www.w3.org/1999/xlink" height="82.4px" width="76.25px" xmlns="http://www.w3.org/2000/svg">
  <g transform="matrix(1.0, 0.0, 0.0, 1.0, 38.15, 41.2)">
    <path d="M6.55 22.85 Q13.85 16.25 16.2 2.75 L-15.85 2.75 -15.65 4.15 Q-14.95 8.05 -13.55 11.85 -9.25 23.1 -0.1 26.8 L-0.1 26.75 1.45 26.2 Q4.05 25.1 6.55 22.85 M33.5 -6.55 Q33.5 -12.65 30.9 -18.15 28.4 -23.55 23.8 -27.7 19.15 -31.9 13.1 -34.2 6.85 -36.6 0.0 -36.6 -6.85 -36.6 -13.15 -34.2 -19.15 -31.9 -23.8 -27.7 -28.4 -23.55 -30.95 -18.15 -33.55 -12.65 -33.55 -6.55 -33.55 -0.5 -30.95 5.05 -28.4 10.4 -23.8 14.6 -18.95 19.0 -12.35 21.35 -14.95 17.8 -16.8 13.1 -18.3 9.1 -19.05 4.75 L-19.5 1.1 -19.6 -0.75 20.2 -0.75 19.95 1.2 Q18.25 13.5 12.6 21.25 19.05 18.9 23.8 14.6 28.4 10.4 30.9 5.05 33.5 -0.5 33.5 -6.55 M26.85 -31.15 Q32.15 -26.35 35.1 -20.1 38.1 -13.65 38.1 -6.55 38.1 0.55 35.1 7.0 32.15 13.2 26.85 18.0 23.35 21.15 19.2 23.35 L19.2 41.2 -19.2 41.2 -19.2 23.35 Q-23.45 21.05 -26.9 18.0 -32.2 13.2 -35.1 7.0 -38.15 0.5 -38.15 -6.55 -38.15 -13.65 -35.1 -20.1 -32.2 -26.35 -26.9 -31.15 -21.6 -35.9 -14.8 -38.5 -7.7 -41.2 0.0 -41.2 7.7 -41.2 14.75 -38.5 21.55 -35.9 26.85 -31.15" fill="#000000" fill-rule="evenodd" stroke="none"/>
    <path d="M23.8 -27.7 Q28.4 -23.55 30.9 -18.15 33.5 -12.65 33.5 -6.55 33.5 -0.5 30.9 5.05 28.4 10.4 23.8 14.6 19.05 18.9 12.6 21.25 18.25 13.5 19.95 1.2 L20.2 -0.75 -19.6 -0.75 -19.5 1.1 -19.05 4.75 Q-18.3 9.1 -16.8 13.1 -14.95 17.8 -12.35 21.35 -18.95 19.0 -23.8 14.6 -28.4 10.4 -30.95 5.05 -33.55 -0.5 -33.55 -6.55 -33.55 -12.65 -30.95 -18.15 -28.4 -23.55 -23.8 -27.7 -19.15 -31.9 -13.15 -34.2 -6.85 -36.6 0.0 -36.6 6.85 -36.6 13.1 -34.2 19.15 -31.9 23.8 -27.7" fill="#ffffff" fill-rule="evenodd" stroke="none"/>
    <path d="M-6.2 6.0 Q-7.0 5.2 -8.1 5.2 -9.25 5.2 -10.05 6.0 -10.85 6.8 -10.85 7.95 -10.85 9.1 -10.05 9.85 -9.25 10.65 -8.1 10.65 -6.95 10.65 -6.2 9.85 -5.4 9.1 -5.4 7.95 -5.4 6.8 -6.2 6.0 M16.2 2.75 Q13.85 16.25 6.55 22.85 4.05 25.1 1.45 26.2 L-0.1 26.75 -0.1 26.8 Q-9.25 23.1 -13.55 11.85 -14.95 8.05 -15.65 4.15 L-15.85 2.75 16.2 2.75 M3.3 16.4 Q3.65 16.05 3.65 15.55 3.65 15.1 3.3 14.75 2.95 14.4 2.45 14.4 L-2.15 14.4 Q-2.65 14.4 -2.95 14.75 -3.3 15.1 -3.3 15.55 -3.3 16.05 -2.95 16.4 -2.65 16.75 -2.15 16.75 L2.45 16.75 Q2.95 16.75 3.3 16.4 M8.1 5.2 Q7.0 5.2 6.15 6.0 5.35 6.85 5.35 7.95 5.35 9.05 6.15 9.85 6.95 10.65 8.1 10.65 9.25 10.65 10.0 9.85 10.8 9.1 10.8 7.95 10.8 6.8 10.0 6.0 9.2 5.2 8.1 5.2" fill="#ffffff" fill-rule="evenodd" stroke="none"/>
    <path d="M-8.1 10.65 Q-9.25 10.65 -10.05 9.85 -10.85 9.1 -10.85 7.95 -10.85 6.8 -10.05 6.0 -9.25 5.2 -8.1 5.2 -7.0 5.2 -6.2 6.0 -5.4 6.8 -5.4 7.95 -5.4 9.1 -6.2 9.85 -6.95 10.65 -8.1 10.65" fill="#000000" fill-rule="evenodd" stroke="none"/>
    <path d="M8.1 10.65 Q6.95 10.65 6.15 9.85 5.35 9.05 5.35 7.95 5.35 6.85 6.15 6.0 7.0 5.2 8.1 5.2 9.2 5.2 10.0 6.0 10.8 6.8 10.8 7.95 10.8 9.1 10.0 9.85 9.25 10.65 8.1 10.65" fill="#000000" fill-rule="evenodd" stroke="none"/>
    <path d="M2.45 14.4 Q2.95 14.4 3.3 14.75 3.65 15.1 3.65 15.55 3.65 16.05 3.3 16.4 2.95 16.75 2.45 16.75 L-2.15 16.75 Q-2.65 16.75 -2.95 16.4 -3.3 16.05 -3.3 15.55 -3.3 15.1 -2.95 14.75 -2.65 14.4 -2.15 14.4 L2.45 14.4" fill="#000000" fill-rule="evenodd" stroke="none"/>
  </g>
</svg>
