<?xml version="1.0" encoding="UTF-8" standalone="no"?>
<svg xmlns:xlink="http://www.w3.org/1999/xlink" height="133.4px" width="56.25px" xmlns="http://www.w3.org/2000/svg">
  <g transform="matrix(1.0, 0.0, 0.0, 1.0, 28.1, 66.7)">
    <path d="M0.3 4.15 Q1.25 4.15 1.75 4.75 2.3 5.4 2.3 6.7 2.3 8.25 1.75 8.9 1.25 9.5 0.3 9.5 -0.6 9.5 -1.15 8.9 -1.65 8.35 -1.65 6.85 -1.65 5.4 -1.15 4.75 -0.6 4.15 0.3 4.15" fill="#000000" fill-rule="evenodd" stroke="none"/>
    <path d="M-9.9 2.1 L-9.9 9.2 -5.35 9.2 -5.35 11.55 -12.8 11.55 -12.8 2.1 -9.9 2.1" fill="#ffffff" fill-rule="evenodd" stroke="none"/>
    <path d="M-2.25 11.2 Q-3.25 10.7 -3.95 9.6 -4.6 8.5 -4.6 6.8 -4.6 4.6 -3.3 3.2 -2.05 1.95 0.3 1.95 2.7 1.95 3.95 3.2 5.2 4.45 5.2 6.75 5.2 8.35 4.65 9.45 4.15 10.5 3.05 11.1 2.0 11.7 0.4 11.7 -1.25 11.7 -2.25 11.2 M-1.65 6.85 Q-1.65 8.35 -1.15 8.9 -0.6 9.5 0.3 9.5 1.25 9.5 1.75 8.9 2.3 8.25 2.3 6.7 2.3 5.4 1.75 4.75 1.25 4.15 0.3 4.15 -0.6 4.15 -1.15 4.75 -1.65 5.4 -1.65 6.85" fill="#ffffff" fill-rule="evenodd" stroke="none"/>
    <path d="M9.7 2.1 L9.7 9.2 14.25 9.2 14.25 11.55 6.75 11.55 6.75 2.1 9.7 2.1" fill="#ffffff" fill-rule="evenodd" stroke="none"/>
    <path d="M-15.45 -26.3 L-17.3 -34.55 -14.95 -34.4 Q-10.55 -34.4 -7.4 -35.85 -5.75 -36.6 -4.8 -37.6 -3.6 -38.9 -3.6 -40.45 -3.6 -41.15 -3.95 -42.05 -2.15 -42.65 -0.15 -42.65 1.8 -42.65 3.7 -41.95 3.4 -41.25 3.4 -40.45 3.4 -38.9 4.6 -37.6 7.65 -34.5 14.75 -34.4 L18.75 -34.75 17.35 -26.3 -15.45 -26.3" fill="#ffffff" fill-rule="evenodd" stroke="none"/>
    <path d="M-6.5 -44.6 Q-9.65 -46.4 -14.95 -46.5 L-19.85 -45.95 -21.25 -52.2 21.6 -52.2 20.55 -45.7 Q17.85 -46.5 14.75 -46.5 10.35 -46.5 7.2 -45.05 L6.15 -44.5 Q3.2 -45.95 -0.15 -45.95 -3.6 -45.95 -6.5 -44.6" fill="#ffffff" fill-rule="evenodd" stroke="none"/>
    <path d="M17.0 -24.1 L16.45 -20.8 -14.25 -20.8 -14.95 -24.1 17.0 -24.1" fill="#ffffff" fill-rule="evenodd" stroke="none"/>
    <path d="M9.7 9.2 L9.7 2.1 6.75 2.1 6.75 11.55 14.25 11.55 14.25 9.2 9.7 9.2 M-9.9 2.1 L-12.8 2.1 -12.8 11.55 -5.35 11.55 -5.35 9.2 -9.9 9.2 -9.9 2.1 M0.3 1.95 Q-2.05 1.95 -3.3 3.2 -4.6 4.6 -4.6 6.8 -4.6 8.5 -3.95 9.6 -3.25 10.7 -2.25 11.2 -1.25 11.7 0.4 11.7 2.0 11.7 3.05 11.1 4.15 10.5 4.65 9.45 5.2 8.35 5.2 6.75 5.2 4.45 3.95 3.2 2.7 1.95 0.3 1.95 M16.45 -20.8 L17.0 -24.1 -14.95 -24.1 -14.25 -20.8 16.45 -20.8 M-6.5 -44.6 Q-3.6 -45.95 -0.15 -45.95 3.2 -45.95 6.15 -44.5 L7.2 -45.05 Q10.35 -46.5 14.75 -46.5 17.85 -46.5 20.55 -45.7 L21.6 -52.2 -21.25 -52.2 -19.85 -45.95 -14.95 -46.5 Q-9.65 -46.4 -6.5 -44.6 M-6.9 -40.45 L-7.2 -41.05 -8.75 -42.05 Q-11.2 -43.2 -14.95 -43.2 -17.6 -43.25 -19.9 -42.5 -22.0 -41.9 -22.7 -41.05 L-23.05 -40.45 -22.7 -39.85 Q-22.2 -39.3 -21.15 -38.85 -18.75 -37.7 -14.95 -37.7 -12.35 -37.65 -10.0 -38.4 -7.9 -39.0 -7.2 -39.85 -6.9 -40.2 -6.9 -40.45 M-3.95 -42.05 Q-3.6 -41.15 -3.6 -40.45 -3.6 -38.9 -4.8 -37.6 -5.75 -36.6 -7.4 -35.85 -10.55 -34.4 -14.95 -34.4 L-17.3 -34.55 -15.45 -26.3 17.35 -26.3 18.75 -34.75 14.75 -34.4 Q7.65 -34.5 4.6 -37.6 3.4 -38.9 3.4 -40.45 3.4 -41.25 3.7 -41.95 1.8 -42.65 -0.15 -42.65 -2.15 -42.65 -3.95 -42.05 M-0.75 -63.15 Q-7.85 -63.15 -14.55 -60.9 -19.15 -59.35 -22.85 -57.05 L22.55 -57.2 Q10.7 -63.15 -0.75 -63.15 M22.5 -39.85 L22.85 -40.45 22.5 -41.05 Q22.1 -41.5 20.95 -42.05 18.55 -43.2 14.75 -43.2 12.15 -43.25 9.8 -42.5 7.7 -41.85 7.0 -41.05 L6.7 -40.45 Q6.7 -40.2 7.0 -39.85 7.6 -39.25 8.55 -38.85 11.0 -37.7 14.75 -37.7 17.4 -37.65 19.7 -38.4 21.8 -39.0 22.5 -39.85 M28.1 -57.6 Q28.25 -56.95 27.9 -56.3 L27.85 -56.25 25.6 -42.4 Q26.15 -41.3 26.15 -40.45 26.15 -39.0 24.95 -37.6 L24.75 -37.45 21.15 -15.3 17.05 -15.3 21.0 66.7 -19.2 66.7 -15.25 -15.3 -18.65 -15.3 -23.3 -36.25 Q-24.3 -36.8 -25.15 -37.6 -26.35 -39.0 -26.35 -40.45 -26.35 -41.9 -25.15 -43.3 L-24.95 -43.45 -28.1 -57.7 -27.7 -57.7 -27.6 -57.85 -27.5 -58.1 -27.1 -58.5 -25.25 -59.75 Q-22.8 -61.4 -20.0 -62.6 -10.9 -66.7 -0.75 -66.7 13.3 -66.7 27.25 -58.75 27.9 -58.35 28.05 -57.7 L28.1 -57.7 28.1 -57.6" fill="#000000" fill-rule="evenodd" stroke="none"/>
    <path d="M-14.8 -41.9 Q-15.4 -41.9 -15.8 -41.45 -16.25 -41.05 -16.25 -40.45 -16.25 -39.85 -15.8 -39.4 -15.4 -39.0 -14.8 -39.0 -14.15 -39.0 -13.75 -39.4 -13.3 -39.85 -13.3 -40.45 -13.3 -41.05 -13.75 -41.45 -14.15 -41.9 -14.8 -41.9 M-8.75 -42.05 L-7.2 -41.05 -6.9 -40.45 Q-6.9 -40.2 -7.2 -39.85 -7.9 -39.0 -10.0 -38.4 -12.35 -37.65 -14.95 -37.7 -18.75 -37.7 -21.15 -38.85 -22.2 -39.3 -22.7 -39.85 L-23.05 -40.45 -22.7 -41.05 Q-22.0 -41.9 -19.9 -42.5 -17.6 -43.25 -14.95 -43.2 -11.2 -43.2 -8.75 -42.05" fill="#ffffff" fill-rule="evenodd" stroke="none"/>
    <path d="M14.95 -39.0 Q15.55 -39.0 16.0 -39.4 16.4 -39.85 16.4 -40.45 16.4 -41.05 16.0 -41.45 15.55 -41.9 14.95 -41.9 14.35 -41.9 13.95 -41.45 13.5 -41.05 13.5 -40.45 13.5 -39.85 13.95 -39.4 14.35 -39.0 14.95 -39.0 M20.95 -42.05 Q22.1 -41.5 22.5 -41.05 L22.85 -40.45 22.5 -39.85 Q21.8 -39.0 19.7 -38.4 17.4 -37.65 14.75 -37.7 11.0 -37.7 8.55 -38.85 7.6 -39.25 7.0 -39.85 6.7 -40.2 6.7 -40.45 L7.0 -41.05 Q7.7 -41.85 9.8 -42.5 12.15 -43.25 14.75 -43.2 18.55 -43.2 20.95 -42.05" fill="#ffffff" fill-rule="evenodd" stroke="none"/>
    <path d="M-14.55 -60.9 Q-7.85 -63.15 -0.75 -63.15 10.7 -63.15 22.55 -57.2 L-22.85 -57.05 Q-19.15 -59.35 -14.55 -60.9" fill="#ffffff" fill-rule="evenodd" stroke="none"/>
    <path d="M-14.8 -39.0 Q-15.4 -39.0 -15.8 -39.4 -16.25 -39.85 -16.25 -40.45 -16.25 -41.05 -15.8 -41.45 -15.4 -41.9 -14.8 -41.9 -14.15 -41.9 -13.75 -41.45 -13.3 -41.05 -13.3 -40.45 -13.3 -39.85 -13.75 -39.4 -14.15 -39.0 -14.8 -39.0" fill="#000000" fill-rule="evenodd" stroke="none"/>
    <path d="M14.95 -41.9 Q15.55 -41.9 16.0 -41.45 16.4 -41.05 16.4 -40.45 16.4 -39.85 16.0 -39.4 15.55 -39.0 14.95 -39.0 14.35 -39.0 13.95 -39.4 13.5 -39.85 13.5 -40.45 13.5 -41.05 13.95 -41.45 14.35 -41.9 14.95 -41.9" fill="#000000" fill-rule="evenodd" stroke="none"/>
  </g>
</svg>
