<?xml version="1.0" encoding="UTF-8" standalone="no"?>
<svg xmlns:xlink="http://www.w3.org/1999/xlink" height="121.3px" width="64.25px" xmlns="http://www.w3.org/2000/svg">
  <g transform="matrix(1.0, 0.0, 0.0, 1.0, 32.1, 60.65)">
    <path d="M0.05 -60.65 Q13.35 -60.65 22.75 -51.25 32.15 -41.8 32.15 -28.5 32.15 -20.45 28.4 -13.45 24.8 -6.65 18.5 -2.2 L21.1 60.65 -20.35 60.65 -17.15 -1.35 Q-24.0 -5.7 -28.0 -12.8 -32.1 -20.1 -32.1 -28.5 -32.1 -41.8 -22.7 -51.25 -13.25 -60.65 0.05 -60.65 M16.75 -35.05 Q9.95 -41.85 0.35 -41.85 -9.2 -41.85 -16.0 -35.05 -22.75 -28.3 -22.75 -18.7 -22.75 -11.7 -18.9 -5.9 -15.15 -0.25 -8.95 2.5 L-8.95 31.35 -0.55 31.35 -0.55 4.3 1.3 4.3 1.3 31.35 10.0 31.35 10.0 2.35 Q16.05 -0.45 19.75 -6.05 23.5 -11.8 23.5 -18.7 23.5 -28.3 16.75 -35.05" fill="#000000" fill-rule="evenodd" stroke="none"/>
    <path d="M1.0 -5.05 Q4.7 -5.05 8.2 -6.95 L8.2 -10.9 1.0 -10.9 1.0 -5.05 M-0.85 -10.9 L-7.15 -10.9 -7.15 -7.15 Q-4.0 -5.5 -0.85 -5.15 L-0.85 -10.9 M-7.15 -14.95 L-7.15 -11.8 -0.85 -11.8 -0.85 -14.95 -7.15 -14.95 M-13.55 -11.8 L-8.95 -11.8 -8.95 -14.95 -16.45 -14.95 -15.7 -14.05 -13.55 -11.8 M-8.95 -8.2 L-8.95 -10.9 -12.55 -10.9 -8.95 -8.2 M-13.2 -23.15 Q-13.7 -23.65 -14.4 -23.65 -15.1 -23.65 -15.6 -23.15 -16.1 -22.65 -16.1 -21.95 -16.1 -21.25 -15.6 -20.75 -15.1 -20.25 -14.4 -20.25 -13.7 -20.25 -13.2 -20.75 -12.7 -21.25 -12.7 -21.95 -12.7 -22.65 -13.2 -23.15 M8.2 -11.8 L8.2 -14.95 1.0 -14.95 1.0 -11.8 8.2 -11.8 M10.0 -10.9 L10.0 -8.05 13.4 -10.9 10.0 -10.9 M10.0 -14.95 L10.0 -11.8 14.3 -11.8 Q15.8 -13.35 16.9 -14.95 L10.0 -14.95 M16.5 -21.4 Q16.5 -22.1 16.0 -22.6 15.5 -23.1 14.8 -23.1 14.1 -23.1 13.6 -22.6 13.1 -22.1 13.1 -21.4 13.1 -20.7 13.6 -20.2 14.1 -19.7 14.8 -19.7 15.5 -19.7 16.0 -20.2 16.5 -20.7 16.5 -21.4 M-13.85 -32.9 Q-8.0 -38.8 0.35 -38.85 8.7 -38.8 14.6 -32.9 20.5 -27.0 20.5 -18.7 20.5 -10.35 14.6 -4.45 8.7 1.45 0.35 1.45 -8.0 1.45 -13.85 -4.45 -19.75 -10.35 -19.75 -18.7 -19.75 -27.0 -13.85 -32.9" fill="#000000" fill-rule="evenodd" stroke="none"/>
    <path d="M4.75 15.4 Q3.8 15.4 3.15 16.1 2.5 16.75 2.5 17.7 2.5 18.6 3.15 19.3 3.8 19.95 4.75 19.95 5.7 19.95 6.35 19.3 7.0 18.6 7.0 17.7 7.0 16.75 6.35 16.1 5.7 15.4 4.75 15.4 M3.15 10.55 Q3.8 11.2 4.75 11.2 5.7 11.2 6.35 10.55 7.0 9.9 7.0 8.95 7.0 8.0 6.35 7.35 5.7 6.7 4.75 6.7 3.8 6.7 3.15 7.35 2.5 8.0 2.5 8.95 2.5 9.9 3.15 10.55 M0.35 -41.85 Q9.95 -41.85 16.75 -35.05 23.5 -28.3 23.5 -18.7 23.5 -11.8 19.75 -6.05 16.05 -0.45 10.0 2.35 L10.0 31.35 1.3 31.35 1.3 4.3 -0.55 4.3 -0.55 31.35 -8.95 31.35 -8.95 2.5 Q-15.15 -0.25 -18.9 -5.9 -22.75 -11.7 -22.75 -18.7 -22.75 -28.3 -16.0 -35.05 -9.2 -41.85 0.35 -41.85 M0.35 -38.85 Q-8.0 -38.8 -13.85 -32.9 -19.75 -27.0 -19.75 -18.7 -19.75 -10.35 -13.85 -4.45 -8.0 1.45 0.35 1.45 8.7 1.45 14.6 -4.45 20.5 -10.35 20.5 -18.7 20.5 -27.0 14.6 -32.9 8.7 -38.8 0.35 -38.85" fill="#ffffff" fill-rule="evenodd" stroke="none"/>
    <path d="M-7.15 -11.8 L-7.15 -14.95 -0.85 -14.95 -0.85 -11.8 -7.15 -11.8" fill="#ffffff" fill-rule="evenodd" stroke="none"/>
    <path d="M10.0 -11.8 L10.0 -14.95 16.9 -14.95 Q15.8 -13.35 14.3 -11.8 L10.0 -11.8" fill="#ffffff" fill-rule="evenodd" stroke="none"/>
    <path d="M-0.85 -5.15 Q-4.0 -5.5 -7.15 -7.15 L-7.15 -10.9 -0.85 -10.9 -0.85 -5.15" fill="#ffffff" fill-rule="evenodd" stroke="none"/>
    <path d="M-8.95 -14.95 L-8.95 -11.8 -13.55 -11.8 -15.7 -14.05 -16.45 -14.95 -8.95 -14.95" fill="#ffffff" fill-rule="evenodd" stroke="none"/>
    <path d="M8.2 -11.8 L1.0 -11.8 1.0 -14.95 8.2 -14.95 8.2 -11.8" fill="#ffffff" fill-rule="evenodd" stroke="none"/>
    <path d="M-8.95 -8.2 L-12.55 -10.9 -8.95 -10.9 -8.95 -8.2" fill="#ffffff" fill-rule="evenodd" stroke="none"/>
    <path d="M10.0 -10.9 L13.4 -10.9 10.0 -8.05 10.0 -10.9" fill="#ffffff" fill-rule="evenodd" stroke="none"/>
    <path d="M8.2 -10.9 L8.2 -6.95 Q4.7 -5.05 1.0 -5.05 L1.0 -10.9 8.2 -10.9" fill="#ffffff" fill-rule="evenodd" stroke="none"/>
    <path d="M-14.4 -23.65 Q-13.7 -23.65 -13.2 -23.15 -12.7 -22.65 -12.7 -21.95 -12.7 -21.25 -13.2 -20.75 -13.7 -20.25 -14.4 -20.25 -15.1 -20.25 -15.6 -20.75 -16.1 -21.25 -16.1 -21.95 -16.1 -22.65 -15.6 -23.15 -15.1 -23.65 -14.4 -23.65" fill="#ffffff" fill-rule="evenodd" stroke="none"/>
    <path d="M14.8 -19.7 Q14.1 -19.7 13.6 -20.2 13.1 -20.7 13.1 -21.4 13.1 -22.1 13.6 -22.6 14.1 -23.1 14.8 -23.1 15.5 -23.1 16.0 -22.6 16.5 -22.1 16.5 -21.4 16.5 -20.7 16.0 -20.2 15.5 -19.7 14.8 -19.7" fill="#ffffff" fill-rule="evenodd" stroke="none"/>
    <path d="M4.75 6.7 Q5.7 6.7 6.35 7.35 7.0 8.0 7.0 8.95 7.0 9.9 6.35 10.55 5.7 11.2 4.75 11.2 3.8 11.2 3.15 10.55 2.5 9.9 2.5 8.95 2.5 8.0 3.15 7.35 3.8 6.7 4.75 6.7" fill="#000000" fill-rule="evenodd" stroke="none"/>
    <path d="M4.75 15.4 Q5.7 15.4 6.35 16.1 7.0 16.75 7.0 17.7 7.0 18.6 6.35 19.3 5.7 19.95 4.75 19.95 3.8 19.95 3.15 19.3 2.5 18.6 2.5 17.7 2.5 16.75 3.15 16.1 3.8 15.4 4.75 15.4" fill="#000000" fill-rule="evenodd" stroke="none"/>
  </g>
</svg>
