<?xml version="1.0" encoding="UTF-8" standalone="no"?>
<svg xmlns:xlink="http://www.w3.org/1999/xlink" height="26.55px" width="38.5px" xmlns="http://www.w3.org/2000/svg">
  <g transform="matrix(1.0, 0.0, 0.0, 1.0, 0.0, 0.0)">
    <path d="M11.0 7.0 Q12.0 6.55 12.0 5.85 L12.0 5.75 12.1 5.8 12.85 5.7 13.3 5.05 13.2 4.3 Q12.95 3.95 12.55 3.85 L3.8 1.8 Q2.85 1.65 2.6 2.6 2.5 3.0 2.75 3.35 L3.35 3.8 6.55 4.5 Q5.25 5.05 5.25 5.85 5.25 6.55 6.25 7.0 7.25 7.5 8.65 7.5 L11.0 7.0 M27.85 18.3 Q28.25 17.85 28.25 17.25 28.25 16.65 27.85 16.25 27.4 15.85 26.8 15.85 L12.0 15.85 Q11.4 15.85 11.0 16.25 10.55 16.65 10.55 17.25 10.55 17.85 11.0 18.3 11.4 18.7 12.0 18.7 L26.8 18.7 Q27.4 18.7 27.85 18.3 M38.35 2.8 L38.5 3.75 37.35 14.15 Q35.15 19.65 30.25 23.05 25.2 26.55 19.05 26.55 12.3 26.55 6.95 22.35 1.7 18.25 0.0 11.85 L0.0 1.8 0.25 0.95 13.2 0.0 Q24.15 -0.15 34.05 1.8 L33.95 1.8 25.2 3.85 24.6 4.3 Q24.4 4.65 24.45 5.05 24.6 5.6 25.15 5.75 L25.1 5.85 Q25.1 6.55 26.1 7.0 L28.45 7.5 30.85 7.0 Q31.85 6.55 31.85 5.85 31.85 5.15 30.8 4.6 L34.4 3.8 35.05 3.35 35.2 2.55 34.75 1.95 38.35 2.8" fill="#ffffff" fill-rule="evenodd" stroke="none"/>
  </g>
</svg>
