<?xml version="1.0" encoding="UTF-8" standalone="no"?>
<svg xmlns:xlink="http://www.w3.org/1999/xlink" height="24.5px" width="46.75px" xmlns="http://www.w3.org/2000/svg">
  <g transform="matrix(1.0, 0.0, 0.0, 1.0, 23.5, 12.5)">
    <path d="M-10.95 7.25 Q-10.95 9.2 -12.35 10.6 -13.75 12.0 -15.7 12.0 -17.7 12.0 -19.05 10.6 -20.5 9.2 -20.5 7.25 -20.5 5.25 -19.05 3.9 -17.7 2.5 -15.7 2.5 -13.75 2.5 -12.35 3.9 -10.95 5.25 -10.95 7.25" fill="#000000" fill-rule="evenodd" stroke="none"/>
    <path d="M22.0 7.25 Q22.0 9.2 20.6 10.6 19.2 12.0 17.25 12.0 15.2 12.0 13.85 10.6 12.45 9.2 12.45 7.25 12.45 5.25 13.85 3.9 15.2 2.5 17.25 2.5 19.2 2.5 20.6 3.9 22.0 5.25 22.0 7.25" fill="#000000" fill-rule="evenodd" stroke="none"/>
    <path d="M-22.0 -3.5 L21.75 -3.5" fill="none" stroke="#000000" stroke-linecap="round" stroke-linejoin="round" stroke-width="3.0"/>
    <path d="M-17.45 -11.0 L16.75 -11.0" fill="none" stroke="#000000" stroke-linecap="round" stroke-linejoin="round" stroke-width="3.0"/>
  </g>
</svg>
