<?xml version="1.0" encoding="UTF-8" standalone="no"?>
<svg xmlns:xlink="http://www.w3.org/1999/xlink" height="17.7px" width="24.15px" xmlns="http://www.w3.org/2000/svg">
  <g transform="matrix(1.0, 0.0, 0.0, 1.0, 0.0, 0.0)">
    <path d="M24.15 0.0 L24.15 17.7 0.0 17.7 0.0 0.0 24.15 0.0 M21.9 11.3 Q21.35 10.7 20.55 10.7 19.75 10.7 19.15 11.3 18.6 11.85 18.6 12.65 18.6 13.5 19.15 14.05 19.75 14.6 20.55 14.6 21.35 14.6 21.9 14.05 22.5 13.45 22.5 12.65 22.5 11.85 21.9 11.3 M21.9 4.9 Q21.35 4.3 20.55 4.3 19.75 4.3 19.15 4.9 18.6 5.45 18.6 6.25 18.6 7.1 19.15 7.65 19.75 8.25 20.55 8.25 21.35 8.25 21.9 7.65 22.5 7.05 22.5 6.25 22.5 5.45 21.9 4.9" fill="#ffffff" fill-rule="evenodd" stroke="none"/>
  </g>
</svg>
