<?xml version="1.0" encoding="UTF-8" standalone="no"?>
<svg xmlns:xlink="http://www.w3.org/1999/xlink" height="27.0px" width="90.0px" xmlns="http://www.w3.org/2000/svg">
  <g transform="matrix(1.0, 0.0, 0.0, 1.0, 45.0, 13.0)">
    <path d="M44.65 -13.0 L45.0 -9.0 Q45.0 0.5 38.2 7.25 31.4 14.0 21.85 14.0 14.4 14.0 8.35 9.7 2.45 5.5 0.0 -1.25 -2.45 5.5 -8.35 9.7 -14.4 14.0 -21.85 14.0 -31.4 14.0 -38.2 7.25 -45.0 0.5 -45.0 -9.0 L-44.65 -13.0 44.65 -13.0" fill="#000000" fill-rule="evenodd" stroke="none"/>
    <path d="M-16.8 9.65 Q-11.25 6.45 -7.4 -1.75 -5.5 -5.85 -4.7 -9.4 -4.7 -0.45 -10.75 5.5 -13.75 8.45 -16.8 9.65" fill="#ffffff" fill-rule="evenodd" stroke="none"/>
    <path d="M-16.8 9.65 Q-13.75 8.45 -10.75 5.5 -4.7 -0.45 -4.7 -9.4 -5.5 -5.85 -7.4 -1.75 -11.25 6.45 -16.8 9.65 Z" fill="none" stroke="#ffffff" stroke-linecap="round" stroke-linejoin="round" stroke-width="2.0"/>
    <path d="M36.9 -1.75 Q38.8 -5.85 39.6 -9.4 39.6 -0.45 33.55 5.5 31.65 7.35 29.4 8.7 L27.5 9.65 Q33.1 6.45 36.9 -1.75" fill="#ffffff" fill-rule="evenodd" stroke="none"/>
    <path d="M36.9 -1.75 Q33.1 6.45 27.5 9.65 L29.4 8.7 Q31.65 7.35 33.55 5.5 39.6 -0.45 39.6 -9.4 38.8 -5.85 36.9 -1.75 Z" fill="none" stroke="#ffffff" stroke-linecap="round" stroke-linejoin="round" stroke-width="2.0"/>
  </g>
</svg>
