<?xml version="1.0" encoding="UTF-8" standalone="no"?>
<svg xmlns:xlink="http://www.w3.org/1999/xlink" height="86.05px" width="52.65px" xmlns="http://www.w3.org/2000/svg">
  <g transform="matrix(1.0, 0.0, 0.0, 1.0, 26.3, 43.05)">
    <path d="M-15.7 12.4 L-13.65 15.2 -13.65 43.0 -16.65 43.0 -16.65 10.8 -15.7 12.4" fill="#ffffff" fill-rule="evenodd" stroke="none"/>
    <path d="M16.0 12.95 L16.0 43.0 13.0 43.0 13.0 16.65 16.0 12.95" fill="#ffffff" fill-rule="evenodd" stroke="none"/>
    <path d="M15.75 -20.0 Q16.9 -15.0 16.85 -10.3 16.9 -0.75 13.05 6.9 L11.55 4.9 Q6.95 -0.3 0.1 -0.3 -3.65 -0.35 -6.75 1.35 -9.25 2.7 -11.05 4.95 L-12.4 6.9 Q-16.2 -0.6 -16.2 -10.3 -16.2 -15.1 -15.2 -19.55 L-9.4 -16.2 Q-10.3 -15.65 -10.3 -14.5 -10.3 -13.65 -9.7 -13.05 -9.1 -12.45 -8.25 -12.45 -7.4 -12.45 -6.8 -13.05 -6.2 -13.65 -6.2 -14.5 L-6.2 -14.65 Q-5.15 -14.65 -4.6 -15.6 -4.2 -16.3 -4.4 -17.0 -4.65 -17.8 -5.3 -18.15 L-14.15 -23.25 Q-12.8 -27.2 -11.0 -29.95 -8.6 -33.6 -5.65 -35.55 -2.75 -37.45 0.35 -37.45 3.4 -37.45 6.3 -35.55 9.25 -33.6 11.65 -29.95 13.45 -27.25 14.65 -23.7 L5.0 -18.15 Q4.35 -17.75 4.15 -17.0 3.95 -16.25 4.35 -15.6 4.85 -14.65 5.95 -14.65 L6.25 -14.7 6.25 -14.5 Q6.25 -13.65 6.85 -13.05 7.45 -12.45 8.3 -12.45 9.15 -12.45 9.75 -13.05 10.35 -13.65 10.35 -14.5 10.35 -15.7 9.3 -16.3 L15.75 -20.0" fill="#ffffff" fill-rule="evenodd" stroke="none"/>
    <path d="M6.7 5.55 Q3.15 4.55 -0.2 4.55 -3.1 4.55 -6.0 5.3 -3.45 3.45 0.1 3.45 3.8 3.45 6.7 5.55" fill="#ffffff" fill-rule="evenodd" stroke="none"/>
    <path d="M-3.65 11.85 L-3.65 16.05 Q-7.2 14.5 -10.1 10.65 L-8.9 8.35 -8.85 8.35 Q-5.35 6.45 -0.2 6.45 4.65 6.45 9.7 8.6 L10.65 10.15 10.85 10.55 Q7.6 14.9 3.6 16.3 L3.6 11.85 -3.65 11.85" fill="#ffffff" fill-rule="evenodd" stroke="none"/>
    <path d="M-0.2 4.55 Q3.15 4.55 6.7 5.55 3.8 3.45 0.1 3.45 -3.45 3.45 -6.0 5.3 -3.1 4.55 -0.2 4.55 M3.6 11.85 L3.6 16.3 Q7.6 14.9 10.85 10.55 L10.65 10.15 9.7 8.6 Q4.65 6.45 -0.2 6.45 -5.35 6.45 -8.85 8.35 L-8.9 8.35 -10.1 10.65 Q-7.2 14.5 -3.65 16.05 L-3.65 11.85 3.6 11.85 M16.85 -10.3 Q16.9 -15.0 15.75 -20.0 L9.3 -16.3 Q10.35 -15.7 10.35 -14.5 10.35 -13.65 9.75 -13.05 9.15 -12.45 8.3 -12.45 7.45 -12.45 6.85 -13.05 6.25 -13.65 6.25 -14.5 L6.25 -14.7 5.95 -14.65 Q4.85 -14.65 4.35 -15.6 3.95 -16.25 4.15 -17.0 4.35 -17.75 5.0 -18.15 L14.65 -23.7 Q13.45 -27.25 11.65 -29.95 9.25 -33.6 6.3 -35.55 3.4 -37.45 0.35 -37.45 -2.75 -37.45 -5.65 -35.55 -8.6 -33.6 -11.0 -29.95 -12.8 -27.2 -14.15 -23.25 L-5.3 -18.15 Q-4.65 -17.8 -4.4 -17.0 -4.2 -16.3 -4.6 -15.6 -5.15 -14.65 -6.2 -14.65 L-6.2 -14.5 Q-6.2 -13.65 -6.8 -13.05 -7.4 -12.45 -8.25 -12.45 -9.1 -12.45 -9.7 -13.05 -10.3 -13.65 -10.3 -14.5 -10.3 -15.65 -9.4 -16.2 L-15.2 -19.55 Q-16.2 -15.1 -16.2 -10.3 -16.2 -0.6 -12.4 6.9 L-11.05 4.95 Q-9.25 2.7 -6.75 1.35 -3.65 -0.35 0.1 -0.3 6.95 -0.3 11.55 4.9 L13.05 6.9 Q16.9 -0.75 16.85 -10.3 M21.6 -19.65 L24.7 -19.65 24.7 -11.35 26.35 -11.35 26.35 43.0 16.0 43.0 16.0 12.95 13.0 16.65 13.0 43.0 -13.65 43.0 -13.65 15.2 -15.7 12.4 -16.65 10.8 -16.65 43.0 -26.3 43.0 -26.3 -11.35 -24.3 -11.35 -24.3 -19.65 -20.9 -19.65 Q-19.35 -27.4 -15.7 -33.0 -12.75 -37.65 -8.7 -40.25 -4.45 -43.05 0.35 -43.05 5.1 -43.05 9.4 -40.25 13.4 -37.65 16.35 -33.0 20.1 -27.25 21.6 -19.65" fill="#000000" fill-rule="evenodd" stroke="none"/>
  </g>
</svg>
