<?xml version="1.0" encoding="UTF-8" standalone="no"?>
<svg xmlns:xlink="http://www.w3.org/1999/xlink" height="124.05px" width="57.35px" xmlns="http://www.w3.org/2000/svg">
  <g transform="matrix(1.0, 0.0, 0.0, 1.0, 28.65, 62.05)">
    <path d="M12.45 12.7 L14.05 9.35 10.6 10.05 8.1 7.35 7.65 11.1 4.55 12.85 7.7 14.45 8.25 18.15 10.65 15.45 14.15 16.0 12.45 12.7 M17.35 -38.15 L17.65 -45.4 Q14.9 -43.85 10.8 -42.85 L8.45 -48.1 8.75 -42.45 1.7 -41.85 -0.55 -41.9 -2.65 -48.5 -4.25 -42.25 Q-9.7 -43.05 -13.6 -45.05 L-12.6 -36.65 Q-10.3 -20.9 -5.4 -11.45 -1.8 -4.3 3.2 -1.45 L4.35 -2.4 Q6.2 -3.9 8.1 -6.55 L6.35 -6.45 2.85 -6.9 1.45 -7.4 Q0.9 -7.7 0.7 -8.3 0.5 -8.95 0.75 -9.5 1.05 -10.1 1.7 -10.3 L2.9 -10.25 3.05 -10.15 3.7 -9.95 6.35 -9.6 Q8.35 -9.6 10.45 -10.35 15.9 -20.4 17.25 -36.15 L-10.5 -36.15 Q-10.9 -36.15 -11.2 -36.45 L-11.5 -37.15 -11.2 -37.85 -10.5 -38.15 17.35 -38.15 M1.7 -62.05 Q10.4 -62.05 16.5 -59.1 22.65 -56.15 22.65 -51.95 L22.35 -50.35 22.4 -46.4 Q22.45 -23.3 15.15 -9.05 24.6 13.7 27.55 40.15 29.05 53.35 28.6 62.0 L-28.65 62.0 Q-28.65 28.4 -22.45 4.7 -18.65 -9.95 -13.3 -18.25 L-15.75 -27.2 Q-17.2 -33.85 -18.0 -41.15 L-18.65 -49.55 Q-19.3 -50.75 -19.3 -51.95 -19.3 -56.15 -13.15 -59.1 -7.0 -62.05 1.7 -62.05" fill="#000000" fill-rule="evenodd" stroke="none"/>
    <path d="M-2.8 -33.1 Q-2.8 -34.0 -3.85 -34.6 -4.9 -35.25 -6.4 -35.25 -7.85 -35.25 -8.9 -34.6 -9.95 -34.0 -9.95 -33.1 -9.95 -32.25 -8.9 -31.6 -7.85 -31.0 -6.4 -31.0 -4.9 -31.0 -3.85 -31.6 -2.8 -32.25 -2.8 -33.1 M17.65 -45.4 L17.35 -38.15 -10.5 -38.15 -11.2 -37.85 -11.5 -37.15 -11.2 -36.45 Q-10.9 -36.15 -10.5 -36.15 L17.25 -36.15 Q15.9 -20.4 10.45 -10.35 8.35 -9.6 6.35 -9.6 L3.7 -9.95 3.05 -10.15 2.9 -10.25 1.7 -10.3 Q1.05 -10.1 0.75 -9.5 0.5 -8.95 0.7 -8.3 0.9 -7.7 1.45 -7.4 L2.85 -6.9 6.35 -6.45 8.1 -6.55 Q6.2 -3.9 4.35 -2.4 L3.2 -1.45 Q-1.8 -4.3 -5.4 -11.45 -10.3 -20.9 -12.6 -36.65 L-13.6 -45.05 Q-9.7 -43.05 -4.25 -42.25 L-2.65 -48.5 -0.55 -41.9 1.7 -41.85 8.75 -42.45 8.45 -48.1 10.8 -42.85 Q14.9 -43.85 17.65 -45.4 M15.7 -33.1 Q15.7 -34.0 14.65 -34.6 13.6 -35.25 12.1 -35.25 10.65 -35.25 9.6 -34.6 8.55 -34.0 8.55 -33.1 8.55 -32.25 9.6 -31.6 10.65 -31.0 12.1 -31.0 13.6 -31.0 14.65 -31.6 15.7 -32.25 15.7 -33.1" fill="#ffffff" fill-rule="evenodd" stroke="none"/>
    <path d="M-2.8 -33.1 Q-2.8 -32.25 -3.85 -31.6 -4.9 -31.0 -6.4 -31.0 -7.85 -31.0 -8.9 -31.6 -9.95 -32.25 -9.95 -33.1 -9.95 -34.0 -8.9 -34.6 -7.85 -35.25 -6.4 -35.25 -4.9 -35.25 -3.85 -34.6 -2.8 -34.0 -2.8 -33.1" fill="#000000" fill-rule="evenodd" stroke="none"/>
    <path d="M12.1 -35.25 Q13.6 -35.25 14.65 -34.6 15.7 -34.0 15.7 -33.1 15.7 -32.25 14.65 -31.6 13.6 -31.0 12.1 -31.0 10.65 -31.0 9.6 -31.6 8.55 -32.25 8.55 -33.1 8.55 -34.0 9.6 -34.6 10.65 -35.25 12.1 -35.25" fill="#000000" fill-rule="evenodd" stroke="none"/>
    <path d="M14.05 9.35 L12.45 12.7 14.15 16.0 10.65 15.45 8.25 18.15 7.7 14.45 4.55 12.85 7.65 11.1 8.1 7.35 10.6 10.05 14.05 9.35" fill="#ffffff" fill-rule="evenodd" stroke="none"/>
  </g>
</svg>
