<?xml version="1.0" encoding="UTF-8" standalone="no"?>
<svg xmlns:xlink="http://www.w3.org/1999/xlink" height="59.25px" width="37.65px" xmlns="http://www.w3.org/2000/svg">
  <g transform="matrix(1.0, 0.0, 0.0, 1.0, 16.2, 49.25)">
    <path d="M21.45 -37.1 Q21.55 -36.5 21.2 -35.95 20.85 -35.4 20.25 -35.3 19.7 -35.15 19.15 -35.5 11.6 -40.4 3.05 -40.5 L3.05 -25.9 Q6.25 -26.0 8.7 -27.4 L9.85 -27.55 Q10.45 -27.4 10.75 -26.85 11.1 -26.35 10.95 -25.75 10.75 -25.15 10.2 -24.8 6.55 -22.7 1.7 -22.85 -2.4 -23.0 -6.0 -24.6 -6.6 -24.8 -6.85 -25.4 L-6.8 -26.55 -5.95 -27.35 Q-5.4 -27.55 -4.85 -27.35 -2.05 -26.1 1.05 -25.9 L1.05 -40.45 Q-4.3 -40.1 -9.45 -37.9 L-13.85 -35.55 Q-14.35 -35.2 -14.95 -35.3 -15.55 -35.4 -15.95 -35.9 -16.3 -36.45 -16.2 -37.05 L-15.55 -38.0 -12.45 -39.75 Q-8.55 -41.65 -4.3 -42.6 9.15 -45.6 20.8 -38.05 L21.45 -37.1" fill="#000000" fill-rule="evenodd" stroke="none"/>
    <path d="M-5.15 -45.95 L-5.9 -46.05 -6.4 -46.6 -6.3 -47.35 -5.7 -47.85 Q-1.2 -49.2 2.0 -49.25 5.9 -49.35 9.85 -47.65 L10.4 -47.1 10.4 -46.35 Q9.95 -45.45 9.05 -45.85 5.5 -47.35 2.0 -47.3 -0.85 -47.2 -5.15 -45.95" fill="#000000" fill-rule="evenodd" stroke="none"/>
    <path d="M-5.35 -33.95 Q-5.35 -32.8 -6.2 -31.95 -7.05 -31.1 -8.2 -31.1 -9.35 -31.1 -10.2 -31.95 -11.05 -32.8 -11.05 -33.95 -11.05 -35.1 -10.2 -35.95 -9.35 -36.8 -8.2 -36.8 -7.05 -36.8 -6.2 -35.95 -5.35 -35.1 -5.35 -33.95" fill="#000000" fill-rule="evenodd" stroke="none"/>
    <path d="M12.75 -37.15 Q13.9 -37.15 14.75 -36.3 15.6 -35.5 15.6 -34.3 15.6 -33.15 14.75 -32.3 13.9 -31.5 12.75 -31.5 11.6 -31.5 10.75 -32.3 9.9 -33.15 9.9 -34.3 9.9 -35.5 10.75 -36.3 11.6 -37.15 12.75 -37.15" fill="#000000" fill-rule="evenodd" stroke="none"/>
    <path d="M7.45 10.0 Q6.35 10.0 5.6 9.25 4.85 8.5 4.85 7.4 4.85 6.3 5.6 5.55 6.35 4.75 7.45 4.75 8.55 4.75 9.3 5.55 10.1 6.3 10.1 7.4 10.1 8.5 9.3 9.25 8.55 10.0 7.45 10.0" fill="#000000" fill-rule="evenodd" stroke="none"/>
  </g>
</svg>
