<?xml version="1.0" encoding="UTF-8" standalone="no"?>
<svg xmlns:xlink="http://www.w3.org/1999/xlink" height="125.25px" width="76.05px" xmlns="http://www.w3.org/2000/svg">
  <g transform="matrix(1.0, 0.0, 0.0, 1.0, 38.0, 62.65)">
    <path d="M15.1 14.9 L13.45 15.45 13.95 16.0 Q16.7 19.2 18.65 24.05 L13.15 25.0 12.85 25.15 12.65 25.3 Q12.45 25.5 12.4 25.9 L12.45 26.15 13.35 29.65 13.85 30.2 14.25 30.35 15.05 30.4 17.7 30.25 20.2 30.1 20.5 30.1 Q21.75 35.15 21.8 39.65 L15.55 40.05 Q15.15 40.05 15.0 40.35 14.75 40.65 14.85 41.0 L15.75 45.3 Q15.9 45.95 16.55 45.95 L21.9 46.05 21.7 56.95 Q21.6 57.7 22.45 57.8 L22.5 57.8 23.05 57.55 23.3 57.0 23.55 45.3 23.35 44.7 Q23.1 44.45 22.75 44.45 L17.2 44.35 16.6 41.6 22.65 41.25 Q23.4 41.15 23.4 40.45 23.4 35.35 22.0 29.3 21.75 28.7 21.05 28.55 L20.2 28.45 15.05 28.8 14.8 28.8 14.2 26.4 17.15 25.95 19.05 25.6 19.7 25.45 20.0 25.35 20.25 25.2 20.5 24.6 20.45 24.3 Q18.25 18.5 15.1 14.9 M9.25 2.75 L8.3 3.3 Q6.25 4.9 3.8 5.3 L1.8 5.5 1.65 5.5 Q-0.25 5.5 -1.9 4.2 -3.7 2.95 -5.1 2.4 L-7.15 2.05 Q-9.0 2.05 -11.0 3.15 -8.1 7.15 -3.8 9.45 0.7 11.8 5.8 11.8 10.35 11.8 14.45 9.9 18.4 8.05 21.3 4.75 L19.25 4.95 Q16.45 5.0 14.3 3.45 L13.15 2.8 11.2 2.5 9.25 2.75 M5.8 -29.65 Q1.15 -29.6 -3.0 -27.65 -7.05 -25.75 -9.95 -22.35 L-4.95 -4.5 -14.4 -4.5 Q-13.9 -2.1 -12.7 0.35 -9.8 -1.15 -7.15 -1.15 L-4.0 -0.6 Q-2.15 0.05 0.0 1.6 L0.85 2.15 1.8 2.3 3.25 2.15 5.2 1.5 6.4 0.7 Q8.2 -0.75 11.2 -0.7 13.85 -0.75 16.1 0.75 L17.3 1.45 19.25 1.7 Q21.5 1.7 23.2 0.8 L24.5 -0.15 24.5 -0.1 Q26.5 -4.25 26.5 -8.9 26.5 -17.5 20.45 -23.55 14.4 -29.6 5.8 -29.65 M-28.1 -31.75 Q-20.65 -32.4 -12.5 -31.8 -15.8 -39.25 -17.6 -46.05 -19.85 -54.55 -17.7 -55.85 -15.65 -57.05 -9.6 -51.45 -4.75 -47.0 0.3 -40.65 2.5 -48.55 5.4 -54.95 9.1 -63.0 11.55 -62.65 14.5 -62.2 15.55 -49.95 16.4 -39.55 15.6 -33.75 L15.35 -32.6 Q22.5 -29.75 26.9 -23.35 31.35 -16.85 31.35 -8.9 31.35 -2.95 28.75 2.3 26.25 7.4 21.8 11.0 30.2 12.9 38.05 17.1 L38.05 62.6 -24.55 62.6 -24.55 17.1 -20.55 15.1 Q-15.45 12.85 -9.7 11.4 -13.35 8.55 -15.85 4.65 -25.45 8.3 -26.95 6.15 -28.4 4.0 -21.45 -3.7 L-32.15 -4.0 Q-37.4 -4.7 -37.8 -6.4 -38.25 -8.5 -31.65 -12.15 -26.45 -14.95 -19.55 -17.45 -27.05 -20.1 -32.05 -22.8 -38.4 -26.25 -38.0 -28.4 -37.55 -30.95 -28.1 -31.75" fill="#000000" fill-rule="evenodd" stroke="none"/>
    <path d="M13.95 16.0 L13.45 15.45 15.1 14.9 Q18.25 18.5 20.45 24.3 L20.5 24.6 20.25 25.2 20.0 25.35 19.7 25.45 19.05 25.6 17.15 25.95 14.2 26.4 14.8 28.8 15.05 28.8 20.2 28.45 21.05 28.55 Q21.75 28.7 22.0 29.3 23.4 35.35 23.4 40.45 23.4 41.15 22.65 41.25 L16.6 41.6 17.2 44.35 22.75 44.45 Q23.1 44.45 23.35 44.7 L23.55 45.3 23.3 57.0 23.05 57.55 22.5 57.8 22.45 57.8 Q21.6 57.7 21.7 56.95 L21.9 46.05 16.55 45.95 Q15.9 45.95 15.75 45.3 L14.85 41.0 Q14.75 40.65 15.0 40.35 15.15 40.05 15.55 40.05 L21.8 39.65 Q21.75 35.15 20.5 30.1 L20.2 30.1 17.7 30.25 15.05 30.4 14.25 30.35 13.85 30.2 13.35 29.65 12.45 26.15 12.4 25.9 Q12.45 25.5 12.65 25.3 L12.85 25.15 13.15 25.0 18.65 24.05 Q16.7 19.2 13.95 16.0" fill="#ffffff" fill-rule="evenodd" stroke="none"/>
    <path d="M23.3 -14.55 Q23.3 -15.7 22.45 -16.55 21.6 -17.4 20.45 -17.4 19.3 -17.4 18.45 -16.55 17.65 -15.7 17.65 -14.55 17.65 -13.4 18.45 -12.55 19.3 -11.75 20.45 -11.75 21.6 -11.75 22.45 -12.55 23.3 -13.4 23.3 -14.55 M-0.15 -12.35 Q0.85 -11.35 2.3 -11.35 3.75 -11.35 4.8 -12.35 5.8 -13.4 5.8 -14.85 5.8 -16.3 4.8 -17.3 3.75 -18.35 2.3 -18.35 0.9 -18.35 -0.15 -17.3 -1.2 -16.25 -1.2 -14.85 -1.2 -13.4 -0.15 -12.35 M-3.0 -27.65 Q1.15 -29.6 5.8 -29.65 14.4 -29.6 20.45 -23.55 26.5 -17.5 26.5 -8.9 26.5 -4.25 24.5 -0.1 L24.5 -0.15 23.2 0.8 Q21.5 1.7 19.25 1.7 L17.3 1.45 16.1 0.75 Q13.85 -0.75 11.2 -0.7 8.2 -0.75 6.4 0.7 L5.2 1.5 3.25 2.15 1.8 2.3 0.85 2.15 0.0 1.6 Q-2.15 0.05 -4.0 -0.6 L-7.15 -1.15 Q-9.8 -1.15 -12.7 0.35 -13.9 -2.1 -14.4 -4.5 L-4.95 -4.5 -9.95 -22.35 Q-7.05 -25.75 -3.0 -27.65" fill="#ffffff" fill-rule="evenodd" stroke="none"/>
    <path d="M5.8 11.8 Q0.7 11.8 -3.8 9.45 -8.1 7.15 -11.0 3.15 -9.0 2.05 -7.15 2.05 L-5.1 2.4 Q-3.7 2.95 -1.9 4.2 -0.25 5.5 1.65 5.5 L1.8 5.5 3.8 5.3 Q6.25 4.9 8.3 3.3 L9.25 2.75 11.2 2.5 13.15 2.8 14.3 3.45 Q16.45 5.0 19.25 4.95 L21.3 4.75 Q18.4 8.05 14.45 9.9 10.35 11.8 5.8 11.8" fill="#ffffff" fill-rule="evenodd" stroke="none"/>
    <path d="M2.3 -18.35 Q3.75 -18.35 4.8 -17.3 5.8 -16.3 5.8 -14.85 5.8 -13.4 4.8 -12.35 3.75 -11.35 2.3 -11.35 0.85 -11.35 -0.15 -12.35 -1.2 -13.4 -1.2 -14.85 -1.2 -16.25 -0.15 -17.3 0.9 -18.35 2.3 -18.35" fill="#000000" fill-rule="evenodd" stroke="none"/>
    <path d="M17.65 -14.55 Q17.65 -15.7 18.45 -16.55 19.3 -17.4 20.45 -17.4 21.6 -17.4 22.45 -16.55 23.3 -15.7 23.3 -14.55 23.3 -13.4 22.45 -12.55 21.6 -11.75 20.45 -11.75 19.3 -11.75 18.45 -12.55 17.65 -13.4 17.65 -14.55" fill="#000000" fill-rule="evenodd" stroke="none"/>
  </g>
</svg>
