<?xml version="1.0" encoding="UTF-8" standalone="no"?>
<svg xmlns:xlink="http://www.w3.org/1999/xlink" height="99.2px" width="76.45px" xmlns="http://www.w3.org/2000/svg">
  <g transform="matrix(1.0, 0.0, 0.0, 1.0, 38.25, 49.6)">
    <path d="M7.45 -49.6 Q15.75 -49.6 21.7 -45.3 24.65 -43.2 26.3 -40.35 28.1 -37.25 28.1 -33.9 L28.1 -6.95 Q28.1 -5.1 27.55 -3.3 32.6 7.2 35.35 20.6 38.2 34.5 38.2 49.6 L-38.25 49.6 Q-38.25 34.85 -35.5 21.25 -32.9 8.15 -28.05 -2.3 -28.95 -4.45 -28.95 -6.95 L-28.95 -33.9 Q-28.95 -37.25 -27.15 -40.35 -25.5 -43.2 -22.55 -45.3 -16.6 -49.6 -8.3 -49.6 L7.45 -49.6 M18.25 -40.5 L15.05 -42.25 Q5.05 -36.9 -4.6 -37.85 -11.2 -38.5 -16.75 -41.9 L-19.1 -40.5 Q-23.05 -37.65 -23.05 -33.9 L-23.05 -26.9 -9.3 -26.9 Q-8.9 -26.9 -8.65 -26.65 -8.35 -26.35 -8.35 -25.95 -8.35 -25.55 -8.65 -25.25 -8.9 -25.0 -9.3 -25.0 L-23.05 -25.0 -23.05 -6.95 Q-23.05 -3.2 -19.1 -0.3 -14.7 2.85 -8.3 2.85 L7.45 2.85 Q13.85 2.85 18.25 -0.3 22.2 -3.2 22.2 -6.95 L22.2 -25.0 8.35 -25.0 Q7.4 -25.0 7.4 -25.95 7.4 -26.9 8.35 -26.9 L22.2 -26.9 22.2 -33.9 Q22.2 -37.65 18.25 -40.5" fill="#000000" fill-rule="evenodd" stroke="none"/>
    <path d="M-16.55 -7.05 L-11.85 -5.85 Q-5.95 -4.7 0.05 -4.7 8.45 -4.7 16.15 -7.05 L17.0 -7.75 Q17.3 -8.3 17.1 -8.85 16.95 -9.45 16.4 -9.7 L15.3 -9.8 Q8.1 -7.6 0.05 -7.6 -5.65 -7.6 -11.25 -8.7 L-14.5 -9.5 -15.6 -9.8 -16.7 -9.7 -17.45 -8.9 Q-17.65 -8.35 -17.35 -7.8 -17.1 -7.25 -16.55 -7.05 M-16.55 -23.5 Q-17.3 -22.8 -17.3 -21.75 -17.3 -20.7 -16.55 -19.95 -15.8 -19.2 -14.75 -19.2 -13.7 -19.2 -12.95 -19.95 -12.2 -20.7 -12.2 -21.75 -12.2 -22.8 -12.95 -23.5 -13.7 -24.25 -14.75 -24.25 -15.8 -24.25 -16.55 -23.5 M11.65 -23.5 Q10.9 -22.8 10.9 -21.75 10.9 -20.7 11.65 -19.95 12.4 -19.2 13.45 -19.2 14.5 -19.2 15.25 -19.95 15.95 -20.7 15.95 -21.75 15.95 -22.8 15.25 -23.5 14.5 -24.25 13.45 -24.25 12.4 -24.25 11.65 -23.5 M15.05 -42.25 L18.25 -40.5 Q22.2 -37.65 22.2 -33.9 L22.2 -26.9 8.35 -26.9 Q7.4 -26.9 7.4 -25.95 7.4 -25.0 8.35 -25.0 L22.2 -25.0 22.2 -6.95 Q22.2 -3.2 18.25 -0.3 13.85 2.85 7.45 2.85 L-8.3 2.85 Q-14.7 2.85 -19.1 -0.3 -23.05 -3.2 -23.05 -6.95 L-23.05 -25.0 -9.3 -25.0 Q-8.9 -25.0 -8.65 -25.25 -8.35 -25.55 -8.35 -25.95 -8.35 -26.35 -8.65 -26.65 -8.9 -26.9 -9.3 -26.9 L-23.05 -26.9 -23.05 -33.9 Q-23.05 -37.65 -19.1 -40.5 L-16.75 -41.9 Q-11.2 -38.5 -4.6 -37.85 5.05 -36.9 15.05 -42.25" fill="#ffffff" fill-rule="evenodd" stroke="none"/>
    <path d="M-11.85 -5.85 L-16.55 -7.05 Q-17.1 -7.25 -17.35 -7.8 -17.65 -8.35 -17.45 -8.9 L-16.7 -9.7 -15.6 -9.8 -14.5 -9.5 -11.25 -8.7 Q-5.65 -7.6 0.05 -7.6 8.1 -7.6 15.3 -9.8 L16.4 -9.7 Q16.95 -9.45 17.1 -8.85 17.3 -8.3 17.0 -7.75 L16.15 -7.05 Q8.45 -4.7 0.05 -4.7 -5.95 -4.7 -11.85 -5.85" fill="#000000" fill-rule="evenodd" stroke="none"/>
    <path d="M-14.75 -19.2 Q-15.8 -19.2 -16.55 -19.95 -17.3 -20.7 -17.3 -21.75 -17.3 -22.8 -16.55 -23.5 -15.8 -24.25 -14.75 -24.25 -13.7 -24.25 -12.95 -23.5 -12.2 -22.8 -12.2 -21.75 -12.2 -20.7 -12.95 -19.95 -13.7 -19.2 -14.75 -19.2" fill="#000000" fill-rule="evenodd" stroke="none"/>
    <path d="M13.45 -19.2 Q12.4 -19.2 11.65 -19.95 10.9 -20.7 10.9 -21.75 10.9 -22.8 11.65 -23.5 12.4 -24.25 13.45 -24.25 14.5 -24.25 15.25 -23.5 15.95 -22.8 15.95 -21.75 15.95 -20.7 15.25 -19.95 14.5 -19.2 13.45 -19.2" fill="#000000" fill-rule="evenodd" stroke="none"/>
  </g>
</svg>
