<?xml version="1.0" encoding="UTF-8" standalone="no"?>
<svg xmlns:xlink="http://www.w3.org/1999/xlink" height="171.5px" width="55.1px" xmlns="http://www.w3.org/2000/svg">
  <g transform="matrix(1.0, 0.0, 0.0, 1.0, 27.55, 85.75)">
    <path d="M7.15 -14.05 L5.65 -13.65 5.65 4.25 7.8 3.2 7.15 -14.05 M4.9 -13.45 L2.5 -12.8 2.25 5.95 4.9 4.6 4.9 -13.45 M9.35 -65.4 L16.2 -65.4 16.0 -67.85 9.35 -65.4 M16.45 -62.6 L16.35 -64.0 8.85 -64.2 8.7 -65.0 3.3 -63.2 2.5 -14.25 7.05 -15.5 6.6 -27.6 18.95 -27.6 23.25 -35.9 18.45 -36.65 9.7 -36.25 18.4 -38.15 17.0 -55.2 14.45 -55.15 Q13.65 -55.6 13.65 -56.45 13.65 -57.15 13.9 -57.75 14.3 -58.5 14.9 -58.75 L16.75 -58.9 16.55 -61.2 5.7 -61.35 5.7 -62.4 16.45 -62.6 M-9.65 -83.45 L-7.8 -84.2 Q-5.4 -85.0 -2.6 -85.4 6.25 -86.7 14.65 -83.45 23.15 -80.25 21.45 -74.1 20.7 -71.45 18.7 -69.3 L21.1 -39.1 27.55 -38.0 20.6 -24.8 9.5 -24.8 13.75 85.75 -1.75 85.75 0.45 -62.2 -3.55 -61.9 Q-6.25 -57.0 -11.95 -57.0 L-15.65 -57.5 -17.2 -58.0 Q-18.85 -59.35 -20.0 -58.75 L-20.85 -58.0 -21.25 -56.85 Q-22.75 -53.75 -27.55 -55.55 -25.25 -55.55 -24.3 -57.05 -23.55 -58.1 -23.55 -60.1 -22.65 -61.25 -19.85 -61.25 L-17.2 -61.0 Q-11.45 -61.6 -11.75 -66.2 L-11.45 -68.2 Q-12.2 -68.0 -13.1 -67.4 L-15.1 -65.85 Q-18.3 -63.45 -19.9 -64.8 L-20.85 -66.8 Q-18.1 -64.05 -16.6 -67.35 -16.0 -69.8 -13.7 -71.75 L-18.65 -71.55 Q-19.6 -71.55 -17.55 -73.25 L-15.25 -74.95 Q-12.5 -75.25 -9.65 -83.45" fill="#000000" fill-rule="evenodd" stroke="none"/>
    <path d="M5.15 -57.0 Q5.15 -54.85 7.25 -54.85 9.35 -54.85 9.35 -57.0 9.35 -59.1 7.25 -59.1 5.15 -59.1 5.15 -57.0 M16.35 -64.0 L16.45 -62.6 5.7 -62.4 5.7 -61.35 16.55 -61.2 16.75 -58.9 14.9 -58.75 Q14.3 -58.5 13.9 -57.75 13.65 -57.15 13.65 -56.45 13.65 -55.6 14.45 -55.15 L17.0 -55.2 18.4 -38.15 9.7 -36.25 18.45 -36.65 23.25 -35.9 18.95 -27.6 6.6 -27.6 7.05 -15.5 2.5 -14.25 3.3 -63.2 8.7 -65.0 8.85 -64.2 16.35 -64.0" fill="#ffffff" fill-rule="evenodd" stroke="none"/>
    <path d="M7.25 -59.1 Q9.35 -59.1 9.35 -57.0 9.35 -54.85 7.25 -54.85 5.15 -54.85 5.15 -57.0 5.15 -59.1 7.25 -59.1" fill="#000000" fill-rule="evenodd" stroke="none"/>
    <path d="M9.35 -65.4 L16.0 -67.85 16.2 -65.4 9.35 -65.4" fill="#ffffff" fill-rule="evenodd" stroke="none"/>
    <path d="M4.9 -13.45 L4.9 4.6 2.25 5.95 2.5 -12.8 4.9 -13.45" fill="#ffffff" fill-rule="evenodd" stroke="none"/>
    <path d="M7.15 -14.05 L7.8 3.2 5.65 4.25 5.65 -13.65 7.15 -14.05" fill="#ffffff" fill-rule="evenodd" stroke="none"/>
  </g>
</svg>
