<?xml version="1.0" encoding="UTF-8" standalone="no"?>
<svg xmlns:xlink="http://www.w3.org/1999/xlink" height="103.15px" width="65.55px" xmlns="http://www.w3.org/2000/svg">
  <g transform="matrix(1.0, 0.0, 0.0, 1.0, 32.8, 51.6)">
    <path d="M0.8 -8.95 Q2.1 -7.75 2.55 -5.55 L0.8 -5.55 0.8 -8.95" fill="#ffffff" fill-rule="evenodd" stroke="none"/>
    <path d="M0.8 -4.5 L2.7 -4.5 2.8 -3.3 Q2.75 -1.1 1.6 -0.2 L0.8 0.25 0.8 -4.5" fill="#ffffff" fill-rule="evenodd" stroke="none"/>
    <path d="M-8.55 -0.55 L-8.55 -4.5 -5.55 -4.5 -5.55 0.25 -8.55 -0.55" fill="#ffffff" fill-rule="evenodd" stroke="none"/>
    <path d="M-5.55 -5.55 L-8.55 -5.55 -8.55 -9.6 -5.55 -10.2 -5.55 -5.55" fill="#ffffff" fill-rule="evenodd" stroke="none"/>
    <path d="M-4.5 0.4 L-4.5 -4.5 -0.3 -4.5 -0.3 0.5 -1.85 0.65 -4.5 0.4" fill="#ffffff" fill-rule="evenodd" stroke="none"/>
    <path d="M-4.5 -5.55 L-4.5 -10.3 -3.7 -10.3 Q-1.7 -10.3 -0.3 -9.6 L-0.3 -5.55 -4.5 -5.55" fill="#ffffff" fill-rule="evenodd" stroke="none"/>
    <path d="M-2.3 -16.9 Q-2.2 -16.1 -1.45 -16.2 L-1.1 -16.2 Q1.45 -16.2 3.4 -15.05 6.8 -13.15 7.55 -8.45 7.65 -7.75 8.35 -7.75 L8.45 -7.75 Q9.3 -7.95 9.1 -8.65 8.3 -14.15 4.2 -16.45 1.75 -17.8 -1.1 -17.8 L-1.55 -17.8 -2.1 -17.5 -2.3 -16.9 M3.15 -27.75 L2.85 -28.45 2.15 -28.75 -24.8 -28.75 -25.05 -31.05 6.95 -31.05 6.95 -16.3 10.6 -16.3 10.6 6.35 -10.05 6.05 -10.0 4.85 Q-10.0 3.6 -10.35 2.2 -5.55 3.8 -1.85 3.8 1.55 3.8 3.5 2.35 6.05 0.5 5.95 -3.3 L5.65 -6.05 Q5.0 -9.9 2.2 -11.8 -0.05 -13.45 -3.7 -13.45 -11.1 -13.4 -22.05 -7.25 L-24.55 -26.8 -19.15 -26.8 -19.45 -25.75 Q-19.45 -24.9 -18.85 -24.25 -18.2 -23.65 -17.35 -23.65 -16.45 -23.65 -15.8 -24.25 -15.2 -24.9 -15.2 -25.75 L-15.5 -26.8 -5.1 -26.8 -5.35 -25.75 Q-5.35 -24.9 -4.75 -24.25 -4.1 -23.65 -3.25 -23.65 -2.4 -23.65 -1.75 -24.25 -1.15 -24.9 -1.15 -25.75 L-1.4 -26.8 2.15 -26.8 Q2.55 -26.8 2.85 -27.1 L3.15 -27.75" fill="#ffffff" fill-rule="evenodd" stroke="none"/>
    <path d="M0.8 -5.55 L2.55 -5.55 Q2.1 -7.75 0.8 -8.95 L0.8 -5.55 M2.8 -3.3 L2.7 -4.5 0.8 -4.5 0.8 0.25 1.6 -0.2 Q2.75 -1.1 2.8 -3.3 M-4.5 -4.5 L-4.5 0.4 -1.85 0.65 -0.3 0.5 -0.3 -4.5 -4.5 -4.5 M-5.55 -10.2 L-8.55 -9.6 -8.55 -5.55 -5.55 -5.55 -5.55 -10.2 M-5.55 -4.5 L-8.55 -4.5 -8.55 -0.55 -5.55 0.25 -5.55 -4.5 M-3.7 -10.3 L-4.5 -10.3 -4.5 -5.55 -0.3 -5.55 -0.3 -9.6 Q-1.7 -10.3 -3.7 -10.3 M21.35 -44.05 L21.35 -16.3 13.8 -16.3 13.8 -14.8 Q20.05 -8.5 24.75 3.25 32.75 23.1 32.75 51.55 L-24.0 51.55 Q-24.7 44.35 -23.8 34.65 -21.9 15.35 -13.55 3.05 L-13.4 3.05 Q-13.95 1.3 -14.9 0.35 L-14.9 0.3 -13.15 -2.25 -10.65 -1.25 -10.65 -8.95 Q-15.25 -7.45 -20.6 -4.45 L-24.55 -2.05 -28.25 -31.05 -32.8 -31.05 -32.8 -43.7 Q-31.45 -44.8 -28.95 -46.15 -23.9 -48.9 -17.95 -50.3 0.95 -54.75 21.35 -44.05 M2.15 -28.75 L2.85 -28.45 3.15 -27.75 2.85 -27.1 Q2.55 -26.8 2.15 -26.8 L-1.4 -26.8 -1.15 -25.75 Q-1.15 -24.9 -1.75 -24.25 -2.4 -23.65 -3.25 -23.65 -4.1 -23.65 -4.75 -24.25 -5.35 -24.9 -5.35 -25.75 L-5.1 -26.8 -15.5 -26.8 -15.2 -25.75 Q-15.2 -24.9 -15.8 -24.25 -16.45 -23.65 -17.35 -23.65 -18.2 -23.65 -18.85 -24.25 -19.45 -24.9 -19.45 -25.75 L-19.15 -26.8 -24.55 -26.8 -22.05 -7.25 Q-11.1 -13.4 -3.7 -13.45 -0.05 -13.45 2.2 -11.8 5.0 -9.9 5.65 -6.05 L5.95 -3.3 Q6.05 0.5 3.5 2.35 1.55 3.8 -1.85 3.8 -5.55 3.8 -10.35 2.2 -10.0 3.6 -10.0 4.85 L-10.05 6.05 10.6 6.35 10.6 -16.3 6.95 -16.3 6.95 -31.05 -25.05 -31.05 -24.8 -28.75 2.15 -28.75" fill="#000000" fill-rule="evenodd" stroke="none"/>
    <path d="M3.4 -15.05 Q1.45 -16.2 -1.1 -16.2 L-1.45 -16.2 Q-2.2 -16.1 -2.3 -16.9 L-2.1 -17.5 -1.55 -17.8 -1.1 -17.8 Q1.75 -17.8 4.2 -16.45 8.3 -14.15 9.1 -8.65 9.3 -7.95 8.45 -7.75 L8.35 -7.75 Q7.65 -7.75 7.55 -8.45 6.8 -13.15 3.4 -15.05" fill="#000000" fill-rule="evenodd" stroke="none"/>
  </g>
</svg>
