<?xml version="1.0" encoding="UTF-8" standalone="no"?>
<svg xmlns:xlink="http://www.w3.org/1999/xlink" height="106.35px" width="143.8px" xmlns="http://www.w3.org/2000/svg">
  <g transform="matrix(1.0, 0.0, 0.0, 1.0, 71.9, 53.2)">
    <path d="M37.1 17.5 L40.75 13.4 Q41.4 24.35 44.75 30.15 L43.85 32.9 36.5 35.25 36.4 35.95 36.25 38.5 36.3 40.4 1.2 40.4 1.2 17.5 37.1 17.5" fill="#ffffff" fill-rule="evenodd" stroke="none"/>
    <path d="M-35.75 14.0 L-33.4 17.5 0.2 17.5 0.2 40.4 -31.3 40.4 -31.25 38.5 -31.35 35.95 -31.5 35.25 -38.85 32.9 -39.75 30.15 Q-36.5 24.45 -35.75 14.0" fill="#ffffff" fill-rule="evenodd" stroke="none"/>
    <path d="M8.65 4.55 Q8.9 4.0 8.65 3.5 8.45 2.95 7.9 2.75 L6.85 2.7 Q4.15 3.85 0.7 3.85 L-4.4 3.25 -6.45 2.7 -7.55 2.75 -8.25 3.55 -8.2 4.6 -7.4 5.3 -5.0 5.95 0.7 6.6 Q4.7 6.6 7.9 5.3 L8.65 4.55 M19.8 -8.45 L23.15 -5.7 27.3 -8.85 Q24.35 -0.7 17.25 4.4 9.95 9.6 1.0 9.65 -8.6 9.6 -16.1 3.8 -23.55 -1.95 -26.0 -10.95 L-19.15 -5.3 -13.95 -9.9 -7.95 -2.75 -0.85 -7.1 4.95 -1.35 10.65 -7.05 16.45 -3.2 19.8 -8.45" fill="#ffffff" fill-rule="evenodd" stroke="none"/>
    <path d="M0.2 13.25 L0.2 15.2 -32.2 15.2 -37.9 6.85 -37.95 12.6 -38.45 17.65 Q-39.45 25.5 -42.0 29.4 L-42.3 29.95 -42.05 30.5 -41.35 32.5 Q-40.65 34.9 -40.65 36.85 L-40.75 38.3 -41.2 39.75 -39.1 40.55 -38.55 38.9 -37.55 35.75 -33.55 37.0 -33.5 38.5 Q-33.5 44.4 -36.25 48.65 L-44.65 48.65 -45.75 45.7 Q-45.9 45.3 -46.35 45.4 -46.85 45.6 -46.65 46.05 L-45.65 48.65 -52.25 48.65 -53.35 45.7 Q-53.5 45.3 -54.0 45.4 -54.4 45.6 -54.25 46.05 L-53.3 48.65 -59.85 48.65 Q-67.4 34.2 -67.4 18.0 -67.4 4.4 -62.1 -7.95 -57.0 -19.95 -47.65 -29.15 -40.15 -36.55 -30.75 -41.35 -21.15 -46.25 -10.45 -47.9 -19.45 -44.4 -25.0 -36.45 -30.65 -28.3 -30.7 -18.35 -30.65 -5.45 -21.65 3.75 -12.65 12.95 0.2 13.25" fill="#ffffff" fill-rule="evenodd" stroke="none"/>
    <path d="M16.65 -25.2 Q15.55 -25.2 14.75 -24.4 13.95 -23.6 13.95 -22.5 13.95 -21.35 14.75 -20.55 15.55 -19.75 16.65 -19.75 17.75 -19.75 18.55 -20.55 19.35 -21.35 19.35 -22.5 19.35 -23.6 18.55 -24.4 17.75 -25.2 16.65 -25.2 M0.45 -37.7 L-5.95 -31.3 -1.15 -29.35 13.5 -43.4 Q20.8 -39.75 25.05 -32.7 L19.85 -33.5 Q15.95 -33.5 12.75 -31.45 10.2 -29.8 8.4 -27.05 7.1 -25.05 6.25 -22.75 L5.65 -20.75 Q5.55 -20.25 5.8 -19.85 6.05 -19.45 6.5 -19.4 L6.75 -19.35 Q7.65 -19.35 7.9 -20.25 L8.4 -21.95 Q9.55 -25.35 11.9 -27.8 15.2 -31.2 19.85 -31.2 22.95 -31.2 26.55 -29.75 29.0 -24.2 29.0 -18.35 L28.75 -14.8 23.25 -10.6 18.9 -14.25 15.3 -8.6 10.15 -12.0 4.95 -6.8 -0.25 -11.95 -7.15 -7.8 -13.55 -15.4 -19.25 -10.35 -26.95 -16.75 -27.0 -18.35 Q-27.0 -23.95 -24.9 -29.1 L-15.5 -24.25 Q-15.9 -23.7 -15.9 -22.95 -15.9 -22.0 -15.25 -21.3 -14.6 -20.65 -13.65 -20.65 -12.9 -20.65 -12.3 -21.1 -11.75 -21.5 -11.5 -22.2 L-5.0 -18.85 -4.5 -18.75 Q-3.8 -18.75 -3.5 -19.35 -3.25 -19.8 -3.4 -20.25 L-3.95 -20.9 -23.9 -31.15 Q-22.2 -34.5 -19.85 -37.05 L-15.0 -35.05 -6.0 -41.8 -13.65 -34.5 -8.05 -32.15 0.45 -37.7" fill="#ffffff" fill-rule="evenodd" stroke="none"/>
    <path d="M27.45 -35.8 Q22.35 -43.45 13.95 -47.25 23.6 -45.25 32.3 -40.55 40.8 -35.95 47.65 -29.15 56.95 -19.95 62.1 -7.95 67.35 4.4 67.35 18.0 67.35 34.3 59.85 48.65 L54.65 48.65 55.6 46.05 Q55.8 45.6 55.35 45.4 54.9 45.2 54.7 45.7 L53.6 48.65 47.95 48.65 48.9 46.05 Q49.1 45.6 48.65 45.4 48.15 45.3 48.0 45.7 L46.9 48.65 41.3 48.65 Q38.5 44.4 38.5 38.5 L38.55 37.0 42.55 35.75 43.55 38.85 44.1 40.55 46.2 39.75 45.75 38.3 45.65 36.85 Q45.65 34.9 46.35 32.5 L47.05 30.5 47.35 29.95 47.0 29.4 Q44.45 25.4 43.45 17.65 L42.95 12.6 42.9 7.55 36.1 15.2 1.2 15.2 1.2 13.3 Q14.2 13.25 23.45 3.95 32.65 -5.3 32.65 -18.35 32.65 -27.85 27.45 -35.8" fill="#ffffff" fill-rule="evenodd" stroke="none"/>
    <path d="M-33.4 17.5 L-35.75 14.0 Q-36.5 24.45 -39.75 30.15 L-38.85 32.9 -31.5 35.25 -31.35 35.95 -31.25 38.5 -31.3 40.4 0.2 40.4 0.2 17.5 -33.4 17.5 M40.75 13.4 L37.1 17.5 1.2 17.5 1.2 40.4 36.3 40.4 36.25 38.5 36.4 35.95 36.5 35.25 43.85 32.9 44.75 30.15 Q41.4 24.35 40.75 13.4 M0.2 15.2 L0.2 13.25 Q-12.65 12.95 -21.65 3.75 -30.65 -5.45 -30.7 -18.35 -30.65 -28.3 -25.0 -36.45 -19.45 -44.4 -10.45 -47.9 -21.15 -46.25 -30.75 -41.35 -40.15 -36.55 -47.65 -29.15 -57.0 -19.95 -62.1 -7.95 -67.4 4.4 -67.4 18.0 -67.4 34.2 -59.85 48.65 L-53.3 48.65 -54.25 46.05 Q-54.4 45.6 -54.0 45.4 -53.5 45.3 -53.35 45.7 L-52.25 48.65 -45.65 48.65 -46.65 46.05 Q-46.85 45.6 -46.35 45.4 -45.9 45.3 -45.75 45.7 L-44.65 48.65 -36.25 48.65 Q-33.5 44.4 -33.5 38.5 L-33.55 37.0 -37.55 35.75 -38.55 38.9 -39.1 40.55 -41.2 39.75 -40.75 38.3 -40.65 36.85 Q-40.65 34.9 -41.35 32.5 L-42.05 30.5 -42.3 29.95 -42.0 29.4 Q-39.45 25.5 -38.45 17.65 L-37.95 12.6 -37.9 6.85 -32.2 15.2 0.2 15.2 M19.8 -8.45 L16.45 -3.2 10.65 -7.05 4.95 -1.35 -0.85 -7.1 -7.95 -2.75 -13.95 -9.9 -19.15 -5.3 -26.0 -10.95 Q-23.55 -1.95 -16.1 3.8 -8.6 9.6 1.0 9.65 9.95 9.6 17.25 4.4 24.35 -0.7 27.3 -8.85 L23.15 -5.7 19.8 -8.45 M0.0 -53.2 Q14.65 -53.2 27.95 -47.6 40.85 -42.2 50.8 -32.35 60.75 -22.5 66.25 -9.7 71.9 3.55 71.9 18.0 71.9 36.05 63.15 51.95 L62.5 53.15 -62.55 53.15 -63.2 51.95 Q-71.9 36.1 -71.9 18.0 -71.9 3.5 -66.25 -9.7 -60.8 -22.5 -50.85 -32.35 -40.9 -42.2 -28.0 -47.6 -14.65 -53.2 0.0 -53.2 M32.3 -40.55 Q23.6 -45.25 13.95 -47.25 22.35 -43.45 27.45 -35.8 32.65 -27.85 32.65 -18.35 32.65 -5.3 23.45 3.95 14.2 13.25 1.2 13.3 L1.2 15.2 36.1 15.2 42.9 7.55 42.95 12.6 43.45 17.65 Q44.45 25.4 47.0 29.4 L47.35 29.95 47.05 30.5 46.35 32.5 Q45.65 34.9 45.65 36.85 L45.75 38.3 46.2 39.75 44.1 40.55 43.55 38.85 42.55 35.75 38.55 37.0 38.5 38.5 Q38.5 44.4 41.3 48.65 L46.9 48.65 48.0 45.7 Q48.15 45.3 48.65 45.4 49.1 45.6 48.9 46.05 L47.95 48.65 53.6 48.65 54.7 45.7 Q54.9 45.2 55.35 45.4 55.8 45.6 55.6 46.05 L54.65 48.65 59.85 48.65 Q67.35 34.3 67.35 18.0 67.35 4.4 62.1 -7.95 56.95 -19.95 47.65 -29.15 40.8 -35.95 32.3 -40.55 M8.4 -27.05 Q10.2 -29.8 12.75 -31.45 15.95 -33.5 19.85 -33.5 L25.05 -32.7 Q20.8 -39.75 13.5 -43.4 L-1.15 -29.35 -5.95 -31.3 0.45 -37.7 -8.05 -32.15 -13.65 -34.5 -6.0 -41.8 -15.0 -35.05 -19.85 -37.05 Q-22.2 -34.5 -23.9 -31.15 L-3.95 -20.9 -3.4 -20.25 Q-3.25 -19.8 -3.5 -19.35 -3.8 -18.75 -4.5 -18.75 L-5.0 -18.85 -11.5 -22.2 Q-11.75 -21.5 -12.3 -21.1 -12.9 -20.65 -13.65 -20.65 -14.6 -20.65 -15.25 -21.3 -15.9 -22.0 -15.9 -22.95 -15.9 -23.7 -15.5 -24.25 L-24.9 -29.1 Q-27.0 -23.95 -27.0 -18.35 L-26.95 -16.75 -19.25 -10.35 -13.55 -15.4 -7.15 -7.8 -0.25 -11.95 4.95 -6.8 10.15 -12.0 15.3 -8.6 18.9 -14.25 23.25 -10.6 28.75 -14.8 29.0 -18.35 Q29.0 -24.2 26.55 -29.75 22.95 -31.2 19.85 -31.2 15.2 -31.2 11.9 -27.8 9.55 -25.35 8.4 -21.95 L7.9 -20.25 Q7.65 -19.35 6.75 -19.35 L6.5 -19.4 Q6.05 -19.45 5.8 -19.85 5.55 -20.25 5.65 -20.75 L6.25 -22.75 Q7.1 -25.05 8.4 -27.05" fill="#000000" fill-rule="evenodd" stroke="none"/>
    <path d="M16.65 -19.75 Q15.55 -19.75 14.75 -20.55 13.95 -21.35 13.95 -22.5 13.95 -23.6 14.75 -24.4 15.55 -25.2 16.65 -25.2 17.75 -25.2 18.55 -24.4 19.35 -23.6 19.35 -22.5 19.35 -21.35 18.55 -20.55 17.75 -19.75 16.65 -19.75" fill="#000000" fill-rule="evenodd" stroke="none"/>
    <path d="M6.85 2.7 L7.9 2.75 Q8.45 2.95 8.65 3.5 8.9 4.0 8.65 4.55 L7.9 5.3 Q4.7 6.6 0.7 6.6 L-5.0 5.95 -7.4 5.3 -8.2 4.6 -8.25 3.55 -7.55 2.75 -6.45 2.7 -4.4 3.25 0.7 3.85 Q4.15 3.85 6.85 2.7" fill="#000000" fill-rule="evenodd" stroke="none"/>
  </g>
</svg>
