<?xml version="1.0" encoding="UTF-8" standalone="no"?>
<svg xmlns:xlink="http://www.w3.org/1999/xlink" height="35.0px" width="45.9px" xmlns="http://www.w3.org/2000/svg">
  <g transform="matrix(1.0, 0.0, 0.0, 1.0, 0.0, 0.0)">
    <path d="M33.9 29.4 L35.65 31.2 36.35 30.5 34.55 28.75 33.9 29.4 M38.55 30.5 L36.8 28.75 36.15 29.4 37.9 31.2 38.55 30.5 M10.0 29.4 L9.3 28.75 7.55 30.5 8.2 31.2 10.0 29.4 M10.45 31.2 L12.25 29.4 11.55 28.75 9.8 30.5 10.45 31.2 M7.75 19.3 Q7.75 20.2 8.7 20.85 9.65 21.45 10.95 21.45 12.25 21.45 13.15 20.85 14.1 20.2 14.1 19.3 14.1 18.4 13.15 17.75 12.25 17.1 10.95 17.1 9.65 17.1 8.7 17.75 7.75 18.4 7.75 19.3 M35.0 17.1 Q33.7 17.1 32.75 17.75 31.85 18.4 31.85 19.3 31.85 20.2 32.75 20.85 33.7 21.45 35.0 21.45 36.3 21.45 37.25 20.85 38.2 20.2 38.2 19.3 38.2 18.4 37.25 17.75 36.3 17.1 35.0 17.1 M41.15 14.0 L41.65 14.85 Q42.35 15.4 43.35 14.0 L41.2 8.85 Q45.9 15.05 45.9 22.8 45.9 26.15 45.0 29.2 L45.45 29.2 Q36.0 35.65 20.65 34.9 11.05 34.45 1.4 31.5 L1.75 31.5 Q0.0 27.2 0.0 22.8 0.0 17.8 2.05 13.3 4.05 8.95 7.65 5.75 4.0 10.2 3.2 15.6 L3.75 16.4 Q4.45 17.05 5.45 16.25 6.05 14.2 7.45 11.4 10.25 5.85 14.4 2.2 9.8 8.5 8.7 15.6 L9.35 16.35 Q10.3 16.9 11.9 15.9 16.4 5.5 20.05 0.05 L20.55 0.0 Q16.7 7.95 16.7 15.9 L17.4 16.6 Q18.4 17.25 19.6 16.85 21.65 6.55 23.45 0.85 23.8 6.1 23.45 14.3 23.45 16.1 24.75 16.05 25.35 16.0 26.0 15.6 27.4 9.3 26.55 0.15 L27.05 0.25 Q30.45 10.05 30.2 15.25 L30.9 15.8 Q31.75 16.15 32.75 14.95 32.55 8.0 30.6 1.45 35.25 7.4 36.3 14.6 L36.95 15.1 Q37.75 15.4 38.55 14.6 L38.05 11.9 Q37.3 8.6 35.75 5.45 40.1 10.55 41.15 14.0" fill="#ffffff" fill-rule="evenodd" stroke="none"/>
  </g>
</svg>
