<?xml version="1.0" encoding="UTF-8" standalone="no"?>
<svg xmlns:xlink="http://www.w3.org/1999/xlink" height="26.95px" width="40.85px" xmlns="http://www.w3.org/2000/svg">
  <g transform="matrix(1.0, 0.0, 0.0, 1.0, 20.0, 39.15)">
    <path d="M-1.65 -19.3 Q11.7 -18.85 20.85 -23.8 19.05 -19.9 15.9 -16.85 12.75 -13.85 8.75 -12.2 L1.35 -12.2 1.35 -16.05 -0.85 -16.05 -0.85 -12.2 -8.7 -12.2 Q-16.15 -15.3 -20.0 -22.25 -10.55 -19.65 -1.65 -19.3" fill="#ffffff" fill-rule="evenodd" stroke="none"/>
    <path d="M-12.0 -34.8 Q-13.3 -34.8 -14.25 -35.4 -15.2 -36.05 -15.2 -36.95 -15.2 -37.85 -14.25 -38.5 -13.3 -39.15 -12.0 -39.15 -10.7 -39.15 -9.8 -38.5 -8.85 -37.85 -8.85 -36.95 -8.85 -36.05 -9.8 -35.4 -10.7 -34.8 -12.0 -34.8" fill="#000000" fill-rule="evenodd" stroke="none"/>
    <path d="M12.05 -34.8 Q10.75 -34.8 9.8 -35.4 8.9 -36.05 8.9 -36.95 8.9 -37.85 9.8 -38.5 10.75 -39.15 12.05 -39.15 13.35 -39.15 14.3 -38.5 15.25 -37.85 15.25 -36.95 15.25 -36.05 14.3 -35.4 13.35 -34.8 12.05 -34.8" fill="#000000" fill-rule="evenodd" stroke="none"/>
    <path d="M-14.75 -25.05 L-15.4 -25.75 -13.65 -27.5 -12.95 -26.85 -14.75 -25.05" fill="#000000" fill-rule="evenodd" stroke="none"/>
    <path d="M-10.7 -26.85 L-12.5 -25.05 -13.15 -25.75 -11.4 -27.5 -10.7 -26.85" fill="#000000" fill-rule="evenodd" stroke="none"/>
    <path d="M13.2 -26.85 L13.85 -27.5 15.6 -25.75 14.95 -25.05 13.2 -26.85" fill="#000000" fill-rule="evenodd" stroke="none"/>
    <path d="M13.4 -25.75 L12.7 -25.05 10.95 -26.85 11.6 -27.5 13.4 -25.75" fill="#000000" fill-rule="evenodd" stroke="none"/>
  </g>
</svg>
