<?xml version="1.0" encoding="UTF-8" standalone="no"?>
<svg xmlns:xlink="http://www.w3.org/1999/xlink" height="95.8px" width="56.4px" xmlns="http://www.w3.org/2000/svg">
  <g transform="matrix(1.0, 0.0, 0.0, 1.0, 28.2, 47.9)">
    <path d="M0.7 11.15 Q9.75 11.0 16.65 5.2 L16.65 15.75 0.7 15.75 0.7 11.15" fill="#ffffff" fill-rule="evenodd" stroke="none"/>
    <path d="M-1.25 15.75 L-19.9 15.75 -19.9 1.5 Q-16.5 5.75 -11.75 8.25 -6.8 10.85 -1.25 11.15 L-1.25 15.75" fill="#ffffff" fill-rule="evenodd" stroke="none"/>
    <path d="M-19.9 17.7 L16.65 17.7 16.65 23.4 Q6.15 20.7 -5.9 21.45 -13.55 21.9 -19.9 23.55 L-19.9 17.7" fill="#ffffff" fill-rule="evenodd" stroke="none"/>
    <path d="M16.65 17.7 L-19.9 17.7 -19.9 23.55 Q-13.55 21.9 -5.9 21.45 6.15 20.7 16.65 23.4 L16.65 17.7 M0.7 15.75 L16.65 15.75 16.65 5.2 Q9.75 11.0 0.7 11.15 L0.7 15.75 M-1.25 11.15 Q-6.8 10.85 -11.75 8.25 -16.5 5.75 -19.9 1.5 L-19.9 15.75 -1.25 15.75 -1.25 11.15 M20.55 -6.7 L20.4 -7.05 Q19.25 -9.2 16.65 -9.2 15.9 -9.2 15.9 -9.9 L16.05 -10.4 16.55 -10.65 16.65 -10.65 Q19.55 -10.7 21.15 -8.55 22.0 -11.5 22.0 -14.5 22.0 -18.35 20.7 -21.85 L16.8 -22.05 Q10.75 -22.05 7.0 -20.2 L6.45 -20.05 Q5.6 -20.05 5.3 -20.75 5.05 -21.25 5.2 -21.75 5.35 -22.25 5.85 -22.5 10.2 -24.65 16.8 -24.65 L19.5 -24.55 Q17.05 -29.4 12.35 -32.6 2.7 -28.95 -11.8 -32.75 -16.5 -29.65 -19.2 -24.55 L-16.25 -24.65 Q-9.65 -24.65 -5.3 -22.5 L-4.65 -21.75 Q-4.45 -21.25 -4.7 -20.75 -5.1 -20.05 -5.85 -20.05 L-6.45 -20.2 Q-10.2 -22.05 -16.25 -22.05 L-20.05 -21.85 -20.35 -21.85 Q-21.65 -18.35 -21.65 -14.5 -21.65 -12.25 -21.1 -9.8 -19.95 -10.7 -18.15 -10.65 L-18.05 -10.65 -17.55 -10.4 -17.4 -9.9 Q-17.4 -9.2 -18.15 -9.2 L-18.15 -9.25 Q-19.95 -9.2 -20.7 -8.2 -18.65 -1.4 -12.95 2.9 -7.15 7.3 0.2 7.3 7.05 7.3 12.65 3.35 18.15 -0.5 20.55 -6.7 M23.8 -43.15 Q28.2 -38.35 28.2 -31.65 L28.2 -18.45 Q28.2 -13.0 25.2 -8.75 23.95 -3.1 20.2 1.6 L20.2 47.9 -23.45 47.9 -23.45 -4.45 -24.7 -8.05 Q-28.2 -12.5 -28.2 -18.45 L-28.2 -31.65 Q-28.2 -38.35 -23.8 -43.15 -19.35 -47.9 -13.1 -47.9 L13.1 -47.9 Q19.35 -47.9 23.8 -43.15" fill="#000000" fill-rule="evenodd" stroke="none"/>
    <path d="M-17.6 -17.05 Q-17.05 -16.45 -16.25 -16.45 -15.45 -16.45 -14.85 -17.05 -14.3 -17.6 -14.3 -18.4 -14.3 -19.2 -14.85 -19.8 -15.4 -20.35 -16.25 -20.35 -17.05 -20.35 -17.6 -19.8 -18.2 -19.2 -18.2 -18.4 -18.2 -17.6 -17.6 -17.05 M16.2 -6.35 L15.15 -6.2 Q8.65 -2.5 1.0 -2.5 -4.55 -2.5 -10.15 -4.4 L-13.45 -5.65 -14.6 -6.25 -15.65 -6.35 -16.45 -5.7 -16.6 -4.65 Q-16.45 -4.1 -15.95 -3.8 L-11.0 -1.75 Q-5.0 0.25 1.0 0.25 9.4 0.25 16.5 -3.85 17.0 -4.1 17.15 -4.65 L17.0 -5.7 16.2 -6.35 M15.75 -19.8 Q15.2 -19.2 15.2 -18.4 15.2 -17.6 15.75 -17.05 16.35 -16.45 17.15 -16.45 17.95 -16.45 18.5 -17.05 19.05 -17.6 19.05 -18.4 19.05 -19.2 18.5 -19.8 17.95 -20.35 17.15 -20.35 16.35 -20.35 15.75 -19.8 M20.7 -21.85 Q22.0 -18.35 22.0 -14.5 22.0 -11.5 21.15 -8.55 19.55 -10.7 16.65 -10.65 L16.55 -10.65 16.05 -10.4 15.9 -9.9 Q15.9 -9.2 16.65 -9.2 19.25 -9.2 20.4 -7.05 L20.55 -6.7 Q18.15 -0.5 12.65 3.35 7.05 7.3 0.2 7.3 -7.15 7.3 -12.95 2.9 -18.65 -1.4 -20.7 -8.2 -19.95 -9.2 -18.15 -9.25 L-18.15 -9.2 Q-17.4 -9.2 -17.4 -9.9 L-17.55 -10.4 -18.05 -10.65 -18.15 -10.65 Q-19.95 -10.7 -21.1 -9.8 -21.65 -12.25 -21.65 -14.5 -21.65 -18.35 -20.35 -21.85 L-20.05 -21.85 -16.25 -22.05 Q-10.2 -22.05 -6.45 -20.2 L-5.85 -20.05 Q-5.1 -20.05 -4.7 -20.75 -4.45 -21.25 -4.65 -21.75 L-5.3 -22.5 Q-9.65 -24.65 -16.25 -24.65 L-19.2 -24.55 Q-16.5 -29.65 -11.8 -32.75 2.7 -28.95 12.35 -32.6 17.05 -29.4 19.5 -24.55 L16.8 -24.65 Q10.2 -24.65 5.85 -22.5 5.35 -22.25 5.2 -21.75 5.05 -21.25 5.3 -20.75 5.6 -20.05 6.45 -20.05 L7.0 -20.2 Q10.75 -22.05 16.8 -22.05 L20.7 -21.85" fill="#ffffff" fill-rule="evenodd" stroke="none"/>
    <path d="M-16.25 -16.45 Q-17.05 -16.45 -17.6 -17.05 -18.2 -17.6 -18.2 -18.4 -18.2 -19.2 -17.6 -19.8 -17.05 -20.35 -16.25 -20.35 -15.4 -20.35 -14.85 -19.8 -14.3 -19.2 -14.3 -18.4 -14.3 -17.6 -14.85 -17.05 -15.45 -16.45 -16.25 -16.45" fill="#000000" fill-rule="evenodd" stroke="none"/>
    <path d="M17.15 -16.45 Q16.35 -16.45 15.75 -17.05 15.2 -17.6 15.2 -18.4 15.2 -19.2 15.75 -19.8 16.35 -20.35 17.15 -20.35 17.95 -20.35 18.5 -19.8 19.05 -19.2 19.05 -18.4 19.05 -17.6 18.5 -17.05 17.95 -16.45 17.15 -16.45" fill="#000000" fill-rule="evenodd" stroke="none"/>
    <path d="M17.15 -4.65 Q17.0 -4.1 16.5 -3.85 9.4 0.25 1.0 0.25 -5.0 0.25 -11.0 -1.75 L-15.95 -3.8 Q-16.45 -4.1 -16.6 -4.65 L-16.45 -5.7 -15.65 -6.35 -14.6 -6.25 -13.45 -5.65 -10.15 -4.4 Q-4.55 -2.5 1.0 -2.5 8.65 -2.5 15.15 -6.2 L16.2 -6.35 17.0 -5.7 17.15 -4.65" fill="#000000" fill-rule="evenodd" stroke="none"/>
  </g>
</svg>
