<?xml version="1.0" encoding="UTF-8" standalone="no"?>
<svg xmlns:xlink="http://www.w3.org/1999/xlink" height="110.65px" width="65.3px" xmlns="http://www.w3.org/2000/svg">
  <g transform="matrix(1.0, 0.0, 0.0, 1.0, 32.65, 55.35)">
    <path d="M30.15 49.25 L23.9 49.25 19.1 4.3 30.15 49.25" fill="#ffffff" fill-rule="evenodd" stroke="none"/>
    <path d="M-20.4 1.75 L-20.4 5.55 -26.45 49.25 -30.25 49.25 -20.4 1.75" fill="#ffffff" fill-rule="evenodd" stroke="none"/>
    <path d="M-20.4 49.25 L-25.5 49.25 -20.4 12.65 -20.4 49.25" fill="#ffffff" fill-rule="evenodd" stroke="none"/>
    <path d="M23.9 49.25 L30.15 49.25 19.1 4.3 23.9 49.25 M-25.5 49.25 L-20.4 49.25 -20.4 12.65 -25.5 49.25 M-20.4 5.55 L-20.4 1.75 -30.25 49.25 -26.45 49.25 -20.4 5.55 M-13.2 -30.5 L-13.35 -28.35 0.95 -28.35 Q0.35 -31.0 -0.2 -31.0 L-13.2 -30.5 M-9.3 -26.4 L-9.2 -26.95 -13.45 -26.95 -13.55 -25.3 -8.85 -25.3 -9.3 -26.4 M1.95 21.6 Q6.6 21.6 9.9 19.15 13.15 16.7 13.15 13.3 13.15 9.85 9.9 7.45 6.6 5.0 1.95 5.0 -2.75 5.0 -6.0 7.45 -9.3 9.85 -9.3 13.3 -9.3 16.7 -6.0 19.15 -2.7 21.6 1.95 21.6 M11.2 -9.85 Q11.8 -9.85 12.25 -9.4 12.65 -8.95 12.65 -8.35 12.65 -7.75 12.25 -7.3 11.8 -6.9 11.2 -6.9 L-12.85 -6.9 Q-6.7 -3.15 3.4 -3.15 19.85 -3.15 24.5 -12.75 26.85 -17.55 25.85 -22.35 L-21.05 -22.35 -20.75 -18.15 Q-19.8 -13.25 -16.5 -9.8 L-16.45 -9.85 11.2 -9.85 M6.95 -26.95 L6.95 -25.6 10.85 -25.5 Q10.55 -25.85 10.55 -26.4 L10.7 -26.95 6.95 -26.95 M1.45 -25.3 L1.2 -26.95 -5.2 -26.95 -5.05 -26.4 Q-5.05 -25.8 -5.55 -25.3 L1.45 -25.3 M19.9 -28.35 L19.0 -30.35 6.95 -31.3 6.95 -28.35 19.9 -28.35 M20.5 -26.95 L14.65 -26.95 14.8 -26.4 Q14.8 -25.85 14.4 -25.35 L21.3 -25.15 20.5 -26.95 M9.35 -44.85 Q5.45 -42.8 1.2 -42.1 -4.7 -41.1 -10.5 -42.8 -13.55 -40.5 -15.95 -37.1 L-17.75 -34.1 21.65 -34.4 Q20.85 -36.15 18.9 -38.35 15.05 -42.7 9.35 -44.85 M2.1 -55.15 Q9.5 -56.55 12.1 -48.1 20.1 -45.15 25.05 -38.2 30.1 -31.1 30.1 -22.35 30.1 -16.0 27.3 -10.35 24.65 -4.85 19.85 -1.0 L32.65 51.2 24.1 51.2 24.55 55.3 -20.4 55.3 -20.4 51.2 -32.65 51.2 -20.4 -7.8 Q-24.6 -14.45 -24.6 -22.35 -24.6 -29.4 -21.2 -35.6 -17.9 -41.55 -12.2 -45.3 -11.95 -47.95 -10.7 -49.7 -8.7 -52.5 -4.75 -52.0 L-2.7 -53.3 Q-0.2 -54.7 2.1 -55.15" fill="#000000" fill-rule="evenodd" stroke="none"/>
    <path d="M25.85 -22.35 Q26.85 -17.55 24.5 -12.75 19.85 -3.15 3.4 -3.15 -6.7 -3.15 -12.85 -6.9 L11.2 -6.9 Q11.8 -6.9 12.25 -7.3 12.65 -7.75 12.65 -8.35 12.65 -8.95 12.25 -9.4 11.8 -9.85 11.2 -9.85 L-16.45 -9.85 -16.5 -9.8 Q-19.8 -13.25 -20.75 -18.15 L-21.05 -22.35 25.85 -22.35" fill="#ffffff" fill-rule="evenodd" stroke="none"/>
    <path d="M9.35 -44.85 Q15.05 -42.7 18.9 -38.35 20.85 -36.15 21.65 -34.4 L-17.75 -34.1 -15.95 -37.1 Q-13.55 -40.5 -10.5 -42.8 -4.7 -41.1 1.2 -42.1 5.45 -42.8 9.35 -44.85" fill="#ffffff" fill-rule="evenodd" stroke="none"/>
    <path d="M-13.45 -26.95 L-9.2 -26.95 -9.3 -26.4 -8.85 -25.3 -13.55 -25.3 -13.45 -26.95" fill="#ffffff" fill-rule="evenodd" stroke="none"/>
    <path d="M1.2 -26.95 L1.45 -25.3 -5.55 -25.3 Q-5.05 -25.8 -5.05 -26.4 L-5.2 -26.95 1.2 -26.95" fill="#ffffff" fill-rule="evenodd" stroke="none"/>
    <path d="M-13.35 -28.35 L-13.2 -30.5 -0.2 -31.0 Q0.35 -31.0 0.95 -28.35 L-13.35 -28.35" fill="#ffffff" fill-rule="evenodd" stroke="none"/>
    <path d="M21.3 -25.15 L14.4 -25.35 Q14.8 -25.85 14.8 -26.4 L14.65 -26.95 20.5 -26.95 21.3 -25.15" fill="#ffffff" fill-rule="evenodd" stroke="none"/>
    <path d="M19.0 -30.35 L19.9 -28.35 6.95 -28.35 6.95 -31.3 19.0 -30.35" fill="#ffffff" fill-rule="evenodd" stroke="none"/>
    <path d="M6.95 -26.95 L10.7 -26.95 10.55 -26.4 Q10.55 -25.85 10.85 -25.5 L6.95 -25.6 6.95 -26.95" fill="#ffffff" fill-rule="evenodd" stroke="none"/>
    <path d="M1.95 5.0 Q6.6 5.0 9.9 7.45 13.15 9.85 13.15 13.3 13.15 16.7 9.9 19.15 6.6 21.6 1.95 21.6 -2.7 21.6 -6.0 19.15 -9.3 16.7 -9.3 13.3 -9.3 9.85 -6.0 7.45 -2.75 5.0 1.95 5.0 M5.1 8.25 Q3.8 7.15 1.55 7.15 -0.7 7.15 -2.25 8.55 -4.1 10.25 -4.1 13.25 -4.1 15.75 -2.6 17.4 -1.1 19.15 1.4 19.15 3.5 19.15 4.65 17.7 L4.75 18.85 7.0 18.85 7.0 12.55 2.3 12.55 2.3 15.0 3.85 15.0 Q3.7 15.7 3.2 15.95 L2.05 16.3 Q0.65 16.3 -0.05 15.2 -0.55 14.5 -0.55 13.35 L-0.3 11.35 Q0.25 10.0 1.8 10.0 2.45 10.0 2.9 10.4 3.4 10.8 3.45 11.4 L6.85 11.4 Q6.5 9.4 5.1 8.25" fill="#ffffff" fill-rule="evenodd" stroke="none"/>
    <path d="M2.9 10.4 Q2.45 10.0 1.8 10.0 0.25 10.0 -0.3 11.35 L-0.55 13.35 Q-0.55 14.5 -0.05 15.2 0.65 16.3 2.05 16.3 L3.2 15.95 Q3.7 15.7 3.85 15.0 L2.3 15.0 2.3 12.55 7.0 12.55 7.0 18.85 4.75 18.85 4.65 17.7 Q3.5 19.15 1.4 19.15 -1.1 19.15 -2.6 17.4 -4.1 15.75 -4.1 13.25 -4.1 10.25 -2.25 8.55 -0.7 7.15 1.55 7.15 3.8 7.15 5.1 8.25 6.5 9.4 6.85 11.4 L3.45 11.4 Q3.4 10.8 2.9 10.4" fill="#000000" fill-rule="evenodd" stroke="none"/>
  </g>
</svg>
