<?xml version="1.0" encoding="UTF-8" standalone="no"?>
<svg xmlns:xlink="http://www.w3.org/1999/xlink" height="95.95px" width="42.95px" xmlns="http://www.w3.org/2000/svg">
  <g transform="matrix(1.0, 0.0, 0.0, 1.0, 21.45, 48.0)">
    <path d="M-15.95 1.25 L-15.95 17.1 15.7 17.1 15.7 2.55 10.15 11.85 -9.1 11.85 -15.95 1.25 M-3.75 -5.3 Q-11.1 -6.7 -17.55 -11.3 L-17.55 -9.2 -8.35 2.95 8.4 2.95 17.6 -8.8 17.6 -10.6 Q7.9 -3.1 -3.75 -5.3 M-21.45 -43.95 L-18.0 -45.2 Q-13.55 -46.65 -8.6 -47.35 7.1 -49.6 21.5 -43.95 L21.5 -7.25 19.3 -3.5 19.3 47.95 -19.4 47.95 -19.4 -4.15 -21.45 -7.25 -21.45 -43.95 M17.6 -36.1 L8.15 -36.1 Q7.3 -35.1 5.0 -34.45 L-0.25 -33.8 -5.5 -34.45 Q-7.8 -35.1 -8.7 -36.1 L-17.55 -36.1 -17.55 -14.45 -17.5 -14.45 Q-16.4 -13.4 -14.1 -12.0 -10.2 -9.55 -6.05 -8.35 6.95 -4.55 17.6 -13.9 L17.6 -36.1" fill="#000000" fill-rule="evenodd" stroke="none"/>
    <path d="M-15.95 17.1 L-15.95 1.25 -9.1 11.85 10.15 11.85 15.7 2.55 15.7 17.1 -15.95 17.1" fill="#ffffff" fill-rule="evenodd" stroke="none"/>
    <path d="M-9.1 -25.3 Q-9.85 -25.3 -10.4 -24.75 -10.95 -24.25 -10.95 -23.45 -10.95 -22.65 -10.4 -22.1 -9.85 -21.55 -9.1 -21.55 -8.3 -21.55 -7.75 -22.1 -7.2 -22.65 -7.2 -23.45 -7.2 -24.25 -7.75 -24.75 -8.3 -25.3 -9.1 -25.3 M8.35 -25.3 Q7.55 -25.3 7.0 -24.75 6.45 -24.25 6.45 -23.45 6.45 -22.65 7.0 -22.1 7.55 -21.55 8.35 -21.55 9.1 -21.55 9.65 -22.1 10.2 -22.65 10.2 -23.45 10.2 -24.25 9.65 -24.75 9.1 -25.3 8.35 -25.3 M-0.25 -33.8 L5.0 -34.45 Q7.3 -35.1 8.15 -36.1 L17.6 -36.1 17.6 -13.9 Q6.95 -4.55 -6.05 -8.35 -10.2 -9.55 -14.1 -12.0 -16.4 -13.4 -17.5 -14.45 L-17.55 -14.45 -17.55 -36.1 -8.7 -36.1 Q-7.8 -35.1 -5.5 -34.45 L-0.25 -33.8" fill="#ffffff" fill-rule="evenodd" stroke="none"/>
    <path d="M-8.35 2.95 L-17.55 -9.2 -17.55 -11.3 Q-11.1 -6.7 -3.75 -5.3 7.9 -3.1 17.6 -10.6 L17.6 -8.8 8.4 2.95 -8.35 2.95" fill="#ffffff" fill-rule="evenodd" stroke="none"/>
    <path d="M-10.4 -24.75 Q-9.85 -25.3 -9.1 -25.3 -8.3 -25.3 -7.75 -24.75 -7.2 -24.25 -7.2 -23.45 -7.2 -22.65 -7.75 -22.1 -8.3 -21.55 -9.1 -21.55 -9.85 -21.55 -10.4 -22.1 -10.95 -22.65 -10.95 -23.45 -10.95 -24.25 -10.4 -24.75" fill="#000000" fill-rule="evenodd" stroke="none"/>
    <path d="M7.0 -24.75 Q7.55 -25.3 8.35 -25.3 9.1 -25.3 9.65 -24.75 10.2 -24.25 10.2 -23.45 10.2 -22.65 9.65 -22.1 9.1 -21.55 8.35 -21.55 7.55 -21.55 7.0 -22.1 6.45 -22.65 6.45 -23.45 6.45 -24.25 7.0 -24.75" fill="#000000" fill-rule="evenodd" stroke="none"/>
  </g>
</svg>
