<?xml version="1.0" encoding="UTF-8" standalone="no"?>
<svg xmlns:xlink="http://www.w3.org/1999/xlink" height="49.3px" width="43.05px" xmlns="http://www.w3.org/2000/svg">
  <g transform="matrix(1.0, 0.0, 0.0, 1.0, 0.0, 0.0)">
    <path d="M15.5 37.7 L10.9 34.85 Q10.5 34.5 10.0 34.5 9.45 34.55 9.1 34.9 8.75 35.3 8.75 35.8 8.75 36.3 9.1 36.65 9.6 37.15 10.55 37.85 12.3 39.1 14.4 40.0 20.9 42.75 28.35 41.0 28.85 40.9 29.15 40.45 L29.3 39.5 28.7 38.7 27.75 38.55 Q21.2 40.1 15.5 37.7 M8.35 22.45 Q8.35 23.4 9.05 24.05 9.7 24.75 10.65 24.75 11.6 24.75 12.25 24.05 12.95 23.4 12.95 22.45 12.95 21.5 12.25 20.85 11.6 20.15 10.65 20.15 9.7 20.15 9.05 20.85 8.35 21.5 8.35 22.45 M3.35 16.4 Q2.9 16.8 2.85 17.4 2.8 18.0 3.2 18.5 3.6 18.95 4.25 19.0 L5.35 18.65 Q6.4 17.8 8.3 17.35 12.15 16.5 17.2 18.25 L18.3 18.2 19.1 17.35 Q19.3 16.75 19.0 16.2 18.75 15.65 18.15 15.4 12.0 13.25 7.15 14.55 4.7 15.2 3.35 16.4 M30.85 23.7 Q31.55 24.4 32.5 24.4 33.45 24.4 34.1 23.7 34.75 23.05 34.75 22.1 34.75 21.15 34.1 20.5 33.45 19.8 32.5 19.8 31.55 19.8 30.85 20.5 30.2 21.15 30.2 22.1 30.2 23.05 30.85 23.7 M25.05 15.15 Q24.4 15.15 24.0 15.6 23.55 16.05 23.55 16.65 23.55 17.3 24.0 17.7 24.4 18.15 25.05 18.15 L36.55 18.15 Q37.15 18.15 37.6 17.7 L38.05 16.65 Q38.05 16.05 37.6 15.6 37.15 15.15 36.55 15.15 L25.05 15.15 M43.05 23.85 Q43.05 29.0 41.4 33.65 39.75 38.35 36.65 41.95 33.6 45.5 29.7 47.4 25.8 49.3 21.55 49.3 12.65 49.3 6.3 41.85 0.0 34.4 0.0 23.85 0.0 18.9 1.55 14.35 3.05 10.0 5.8 6.5 20.1 5.05 29.15 0.0 35.35 2.8 39.15 9.2 43.05 15.8 43.05 23.85" fill="#ffffff" fill-rule="evenodd" stroke="none"/>
  </g>
</svg>
