<?xml version="1.0" encoding="UTF-8" standalone="no"?>
<svg xmlns:xlink="http://www.w3.org/1999/xlink" height="148.15px" width="41.55px" xmlns="http://www.w3.org/2000/svg">
  <g transform="matrix(1.0, 0.0, 0.0, 1.0, 20.75, 74.1)">
    <path d="M-9.4 -1.1 L13.8 -1.1 13.8 70.1 -9.4 70.1 -9.4 -1.1" fill="#ffffff" fill-rule="evenodd" stroke="none"/>
    <path d="M13.8 -1.1 L-9.4 -1.1 -9.4 70.1 13.8 70.1 13.8 -1.1 M-1.8 -28.4 L-1.8 -34.9 -2.8 -34.9 -2.8 -28.4 -1.8 -28.4 M3.2 -34.9 L2.2 -34.9 2.2 -28.4 3.2 -28.4 3.2 -34.9 M2.45 -41.45 Q7.4 -41.45 11.2 -44.45 L-6.3 -44.45 Q-2.5 -41.45 2.45 -41.45 M8.25 -34.9 L7.2 -34.9 7.2 -28.4 8.25 -28.4 8.25 -34.9 M-2.65 -61.85 L-2.65 -59.25 6.75 -59.25 6.75 -61.85 -2.65 -61.85 M-5.7 -57.2 Q-5.0 -56.5 -5.0 -55.5 -5.0 -54.5 -5.7 -53.85 -6.35 -53.15 -7.35 -53.15 -8.3 -53.15 -9.0 -53.85 -9.7 -54.5 -9.7 -55.5 -9.7 -56.4 -9.0 -57.2 L-11.8 -57.2 -11.85 -55.75 Q-11.85 -50.45 -8.4 -46.45 L13.3 -46.45 Q16.75 -50.45 16.75 -55.75 L16.7 -57.15 13.75 -57.15 Q14.4 -56.4 14.4 -55.5 14.4 -54.55 13.7 -53.85 13.05 -53.15 12.1 -53.15 11.15 -53.15 10.45 -53.85 9.75 -54.5 9.75 -55.5 9.75 -56.45 10.4 -57.1 L7.2 -57.1 7.2 -57.2 -5.7 -57.2 M-20.75 -57.5 L-15.15 -60.8 Q-13.5 -66.6 -8.65 -70.3 -3.75 -74.1 2.45 -74.1 10.05 -74.1 15.4 -68.7 20.8 -63.3 20.8 -55.75 20.8 -50.25 17.7 -45.65 L17.7 74.05 -13.3 74.05 -13.3 -46.45 Q-15.9 -50.8 -15.9 -55.75 L-15.8 -57.5 -20.75 -57.5" fill="#000000" fill-rule="evenodd" stroke="none"/>
    <path d="M-0.75 -61.45 Q-0.95 -61.7 -1.3 -61.7 L-1.9 -61.45 -2.15 -60.85 Q-2.15 -60.0 -1.3 -60.0 -0.95 -60.0 -0.75 -60.25 -0.5 -60.5 -0.5 -60.85 L-0.75 -61.45 M1.85 -61.7 Q1.5 -61.7 1.3 -61.45 L1.05 -60.85 1.3 -60.25 Q1.5 -60.0 1.85 -60.0 2.7 -60.0 2.7 -60.85 2.7 -61.7 1.85 -61.7 M4.9 -61.7 Q4.05 -61.7 4.05 -60.85 4.05 -60.0 4.9 -60.0 L5.45 -60.25 5.7 -60.85 5.45 -61.45 4.9 -61.7 M-2.65 -59.25 L-2.65 -61.85 6.75 -61.85 6.75 -59.25 -2.65 -59.25" fill="#ffffff" fill-rule="evenodd" stroke="none"/>
    <path d="M-6.3 -44.45 L11.2 -44.45 Q7.4 -41.45 2.45 -41.45 -2.5 -41.45 -6.3 -44.45" fill="#ffffff" fill-rule="evenodd" stroke="none"/>
    <path d="M-11.85 -55.75 L-11.8 -57.2 -9.0 -57.2 Q-9.7 -56.4 -9.7 -55.5 -9.7 -54.5 -9.0 -53.85 -8.3 -53.15 -7.35 -53.15 -6.35 -53.15 -5.7 -53.85 -5.0 -54.5 -5.0 -55.5 -5.0 -56.5 -5.7 -57.2 L7.2 -57.2 7.2 -57.1 10.4 -57.1 Q9.75 -56.45 9.75 -55.5 9.75 -54.5 10.45 -53.85 11.15 -53.15 12.1 -53.15 13.05 -53.15 13.7 -53.85 14.4 -54.55 14.4 -55.5 14.4 -56.4 13.75 -57.15 L16.7 -57.15 16.75 -55.75 Q16.75 -50.45 13.3 -46.45 L-8.4 -46.45 Q-11.85 -50.45 -11.85 -55.75" fill="#ffffff" fill-rule="evenodd" stroke="none"/>
    <path d="M-1.8 -28.4 L-2.8 -28.4 -2.8 -34.9 -1.8 -34.9 -1.8 -28.4" fill="#ffffff" fill-rule="evenodd" stroke="none"/>
    <path d="M8.25 -28.4 L7.2 -28.4 7.2 -34.9 8.25 -34.9 8.25 -28.4" fill="#ffffff" fill-rule="evenodd" stroke="none"/>
    <path d="M2.2 -28.4 L2.2 -34.9 3.2 -34.9 3.2 -28.4 2.2 -28.4" fill="#ffffff" fill-rule="evenodd" stroke="none"/>
    <path d="M-1.3 -60.0 Q-2.15 -60.0 -2.15 -60.85 L-1.9 -61.45 -1.3 -61.7 Q-0.95 -61.7 -0.75 -61.45 L-0.5 -60.85 Q-0.5 -60.5 -0.75 -60.25 -0.95 -60.0 -1.3 -60.0" fill="#000000" fill-rule="evenodd" stroke="none"/>
    <path d="M1.85 -60.0 Q1.5 -60.0 1.3 -60.25 L1.05 -60.85 1.3 -61.45 Q1.5 -61.7 1.85 -61.7 2.7 -61.7 2.7 -60.85 2.7 -60.0 1.85 -60.0" fill="#000000" fill-rule="evenodd" stroke="none"/>
    <path d="M4.9 -60.0 Q4.05 -60.0 4.05 -60.85 4.05 -61.7 4.9 -61.7 L5.45 -61.45 5.7 -60.85 5.45 -60.25 4.9 -60.0" fill="#000000" fill-rule="evenodd" stroke="none"/>
  </g>
</svg>
