<?xml version="1.0" encoding="UTF-8" standalone="no"?>
<svg xmlns:xlink="http://www.w3.org/1999/xlink" height="111.0px" width="40.05px" xmlns="http://www.w3.org/2000/svg">
  <g transform="matrix(1.0, 0.0, 0.0, 1.0, 20.0, 55.5)">
    <path d="M-15.6 4.05 L14.95 4.05 14.95 20.4 Q9.85 16.3 3.6 15.25 -5.8 13.6 -15.6 19.5 L-15.6 4.05" fill="#ffffff" fill-rule="evenodd" stroke="none"/>
    <path d="M1.75 -8.15 Q2.25 -8.65 2.25 -9.35 2.25 -10.0 1.75 -10.5 1.3 -11.0 0.6 -11.0 -0.1 -11.0 -0.6 -10.5 -1.1 -10.05 -1.1 -9.35 -1.1 -8.65 -0.6 -8.15 -0.1 -7.65 0.6 -7.65 1.3 -7.65 1.75 -8.15 M0.4 -34.45 L1.75 -36.45 -3.8 -40.1 -1.5 -40.1 -1.6 -40.0 6.9 -34.45 8.2 -36.45 2.65 -40.1 4.95 -40.1 4.85 -40.0 14.65 -33.5 14.35 -25.05 2.4 -25.6 2.4 -24.0 6.75 -23.85 Q5.9 -23.6 5.3 -22.95 4.75 -22.3 4.75 -21.45 4.75 -20.35 5.6 -19.6 6.45 -18.85 7.65 -18.85 8.8 -18.85 9.65 -19.6 10.5 -20.35 10.5 -21.45 10.5 -23.1 8.8 -23.8 L14.3 -23.4 13.5 -0.8 -13.9 -0.8 -14.5 -23.5 -9.05 -23.85 Q-9.9 -23.6 -10.4 -22.95 -10.95 -22.25 -10.95 -21.45 -10.95 -20.35 -10.1 -19.6 -9.3 -18.85 -8.1 -18.85 -6.9 -18.85 -6.05 -19.6 -5.2 -20.35 -5.2 -21.45 -5.2 -22.35 -5.85 -23.05 -6.45 -23.7 -7.4 -23.9 L-1.25 -24.05 -1.25 -25.65 -14.55 -25.1 -14.8 -36.0 -12.55 -34.45 -11.15 -36.45 -14.9 -39.0 -14.9 -40.1 -14.45 -40.1 -14.55 -40.0 -6.05 -34.45 -4.75 -36.45 -10.3 -40.1 -8.0 -40.1 -8.05 -40.0 0.4 -34.45" fill="#ffffff" fill-rule="evenodd" stroke="none"/>
    <path d="M14.95 4.05 L-15.6 4.05 -15.6 19.5 Q-5.8 13.6 3.6 15.25 9.85 16.3 14.95 20.4 L14.95 4.05 M0.4 -55.5 L9.45 -49.6 20.05 -49.6 18.2 3.45 18.2 55.4 -18.85 55.5 -18.85 -0.35 -18.75 -0.35 -20.0 -49.6 -7.25 -49.6 0.4 -55.5 M1.75 -36.45 L0.4 -34.45 -8.05 -40.0 -8.0 -40.1 -10.3 -40.1 -4.75 -36.45 -6.05 -34.45 -14.55 -40.0 -14.45 -40.1 -14.9 -40.1 -14.9 -39.0 -11.15 -36.45 -12.55 -34.45 -14.8 -36.0 -14.55 -25.1 -1.25 -25.65 -1.25 -24.05 -7.4 -23.9 Q-6.45 -23.7 -5.85 -23.05 -5.2 -22.35 -5.2 -21.45 -5.2 -20.35 -6.05 -19.6 -6.9 -18.85 -8.1 -18.85 -9.3 -18.85 -10.1 -19.6 -10.95 -20.35 -10.95 -21.45 -10.95 -22.25 -10.4 -22.95 -9.9 -23.6 -9.05 -23.85 L-14.5 -23.5 -13.9 -0.8 13.5 -0.8 14.3 -23.4 8.8 -23.8 Q10.5 -23.1 10.5 -21.45 10.5 -20.35 9.65 -19.6 8.8 -18.85 7.65 -18.85 6.45 -18.85 5.6 -19.6 4.75 -20.35 4.75 -21.45 4.75 -22.3 5.3 -22.95 5.9 -23.6 6.75 -23.85 L2.4 -24.0 2.4 -25.6 14.35 -25.05 14.65 -33.5 4.85 -40.0 4.95 -40.1 2.65 -40.1 8.2 -36.45 6.9 -34.45 -1.6 -40.0 -1.5 -40.1 -3.8 -40.1 1.75 -36.45" fill="#000000" fill-rule="evenodd" stroke="none"/>
    <path d="M0.6 -11.0 Q1.3 -11.0 1.75 -10.5 2.25 -10.0 2.25 -9.35 2.25 -8.65 1.75 -8.15 1.3 -7.65 0.6 -7.65 -0.1 -7.65 -0.6 -8.15 -1.1 -8.65 -1.1 -9.35 -1.1 -10.05 -0.6 -10.5 -0.1 -11.0 0.6 -11.0" fill="#000000" fill-rule="evenodd" stroke="none"/>
  </g>
</svg>
