<?xml version="1.0" encoding="UTF-8" standalone="no"?>
<svg xmlns:xlink="http://www.w3.org/1999/xlink" height="104.6px" width="55.35px" xmlns="http://www.w3.org/2000/svg">
  <g transform="matrix(1.0, 0.0, 0.0, 1.0, 27.7, 52.3)">
    <path d="M0.15 -4.05 Q-4.85 -4.1 -9.3 -6.3 -13.65 -8.4 -16.65 -12.15 -8.35 -8.2 0.3 -8.2 8.95 -8.2 17.0 -12.3 14.0 -8.5 9.65 -6.3 5.2 -4.1 0.15 -4.05" fill="#ffffff" fill-rule="evenodd" stroke="none"/>
    <path d="M0.3 -11.2 Q-7.65 -11.2 -15.45 -14.9 -17.85 -16.1 -19.7 -17.3 -21.35 -21.3 -21.35 -25.55 -21.35 -29.05 -20.25 -32.35 L-14.05 -29.5 Q-15.8 -29.25 -16.25 -28.0 -16.7 -26.85 -15.85 -25.65 -15.0 -24.4 -13.35 -23.75 L-10.2 -23.45 Q-8.7 -23.8 -8.3 -24.9 -7.95 -25.85 -8.5 -26.9 L-0.35 -23.1 6.6 -26.3 Q6.35 -25.55 6.65 -24.9 7.05 -23.8 8.55 -23.45 L11.65 -23.75 Q13.3 -24.4 14.2 -25.65 15.05 -26.9 14.6 -28.0 14.2 -28.9 13.2 -29.3 L20.45 -32.6 Q21.65 -29.1 21.65 -25.55 21.65 -21.55 20.05 -17.55 10.55 -11.2 0.3 -11.2" fill="#ffffff" fill-rule="evenodd" stroke="none"/>
    <path d="M-16.65 -12.15 Q-13.65 -8.4 -9.3 -6.3 -4.85 -4.1 0.15 -4.05 5.2 -4.1 9.65 -6.3 14.0 -8.5 17.0 -12.3 8.95 -8.2 0.3 -8.2 -8.35 -8.2 -16.65 -12.15 M-15.85 -25.65 Q-16.7 -26.85 -16.25 -28.0 -15.8 -29.25 -14.05 -29.5 L-20.25 -32.35 Q-21.35 -29.05 -21.35 -25.55 -21.35 -21.3 -19.7 -17.3 -17.85 -16.1 -15.45 -14.9 -7.65 -11.2 0.3 -11.2 10.55 -11.2 20.05 -17.55 21.65 -21.55 21.65 -25.55 21.65 -29.1 20.45 -32.6 L13.2 -29.3 Q14.2 -28.9 14.6 -28.0 15.05 -26.9 14.2 -25.65 13.3 -24.4 11.65 -23.75 L8.55 -23.45 Q7.05 -23.8 6.65 -24.9 6.35 -25.55 6.6 -26.3 L-0.35 -23.1 -8.5 -26.9 Q-7.95 -25.85 -8.3 -24.9 -8.7 -23.8 -10.2 -23.45 L-13.35 -23.75 Q-15.0 -24.4 -15.85 -25.65 M17.35 -50.25 Q21.2 -48.45 23.4 -46.05 L27.65 -31.6 23.85 -34.85 Q25.6 -30.25 25.6 -25.55 25.6 -19.3 22.6 -13.6 L22.6 52.3 -23.7 52.3 -23.7 -16.6 Q-25.3 -20.8 -25.3 -25.55 -25.3 -30.3 -23.7 -34.55 L-23.7 -35.05 Q-26.0 -33.4 -27.7 -31.6 L-23.6 -46.05 Q-21.4 -48.45 -17.6 -50.3 -10.0 -53.9 -1.95 -50.95 L-1.9 -50.95 -1.9 -36.85 Q-9.65 -40.35 -17.3 -38.15 -18.6 -36.3 -19.5 -34.3 L-0.35 -25.35 19.7 -34.5 17.7 -37.9 Q12.4 -39.65 6.6 -38.5 3.1 -37.85 0.15 -36.3 L0.15 -51.05 1.45 -51.0 Q9.65 -53.85 17.35 -50.25" fill="#000000" fill-rule="evenodd" stroke="none"/>
    <path d="M6.6 -38.5 Q12.4 -39.65 17.7 -37.9 L19.7 -34.5 -0.35 -25.35 -19.5 -34.3 Q-18.6 -36.3 -17.3 -38.15 -9.65 -40.35 -1.9 -36.85 L-1.9 -50.1 0.15 -50.1 0.15 -36.3 Q3.1 -37.85 6.6 -38.5" fill="#ffffff" fill-rule="evenodd" stroke="none"/>
  </g>
</svg>
