<?xml version="1.0" encoding="UTF-8" standalone="no"?>
<svg xmlns:xlink="http://www.w3.org/1999/xlink" height="28.5px" width="83.0px" xmlns="http://www.w3.org/2000/svg">
  <g transform="matrix(1.0, 0.0, 0.0, 1.0, 41.5, 15.5)">
    <path d="M-13.2 7.75 Q-13.2 9.9 -14.7 11.45 -16.25 13.0 -18.4 13.0 -20.55 13.0 -22.05 11.45 -23.6 9.95 -23.6 7.75 -23.6 5.6 -22.05 4.05 -20.55 2.5 -18.4 2.5 -16.25 2.5 -14.7 4.05 -13.2 5.6 -13.2 7.75" fill="#000000" fill-rule="evenodd" stroke="none"/>
    <path d="M22.6 6.75 Q22.6 8.9 21.05 10.45 19.5 12.0 17.35 12.0 15.25 12.0 13.7 10.45 12.15 8.95 12.15 6.75 12.15 4.6 13.7 3.05 15.25 1.5 17.35 1.5 19.5 1.5 21.05 3.05 22.6 4.6 22.6 6.75" fill="#000000" fill-rule="evenodd" stroke="none"/>
    <path d="M-39.0 -8.5 L0.75 10.5 39.0 -13.0" fill="none" stroke="#000000" stroke-linecap="round" stroke-linejoin="round" stroke-width="5.0"/>
  </g>
</svg>
