<?xml version="1.0" encoding="UTF-8" standalone="no"?>
<svg xmlns:xlink="http://www.w3.org/1999/xlink" height="112.25px" width="48.35px" xmlns="http://www.w3.org/2000/svg">
  <g transform="matrix(1.0, 0.0, 0.0, 1.0, 24.15, 56.1)">
    <path d="M-3.4 33.9 Q-10.3 34.3 -16.3 35.75 L-16.3 31.05 -5.65 31.05 -5.65 6.15 6.6 6.15 6.6 31.05 17.25 31.05 17.25 35.75 Q7.75 33.2 -3.4 33.9" fill="#ffffff" fill-rule="evenodd" stroke="none"/>
    <path d="M-10.45 -7.45 L-8.7 -6.35 Q-6.45 -5.1 -4.1 -4.5 3.55 -2.5 9.9 -7.45 7.5 -6.7 3.75 -6.35 -3.75 -5.6 -10.45 -7.45 M-6.55 -21.9 Q-5.8 -22.65 -5.8 -23.75 -5.8 -24.8 -6.55 -25.55 -7.3 -26.35 -8.4 -26.35 -9.45 -26.35 -10.2 -25.55 -10.95 -24.8 -10.95 -23.75 -10.95 -22.65 -10.2 -21.9 -9.45 -21.15 -8.4 -21.15 -7.3 -21.15 -6.55 -21.9 M9.3 -8.6 Q10.1 -8.6 10.7 -9.45 11.25 -10.3 11.25 -11.5 11.25 -12.7 10.7 -13.55 10.1 -14.4 9.3 -14.4 L-9.6 -14.4 Q-10.4 -14.4 -10.95 -13.55 -11.55 -12.7 -11.55 -11.5 -11.55 -10.3 -10.95 -9.45 -10.4 -8.6 -9.6 -8.6 L9.3 -8.6 M8.6 -26.35 Q7.5 -26.35 6.75 -25.55 6.0 -24.8 6.0 -23.75 6.0 -22.65 6.75 -21.9 7.5 -21.15 8.6 -21.15 9.65 -21.15 10.4 -21.9 11.15 -22.65 11.15 -23.75 11.15 -24.8 10.4 -25.55 9.65 -26.35 8.6 -26.35 M12.2 -39.9 Q14.05 -39.75 15.4 -38.35 17.45 -36.15 17.45 -31.35 L17.5 -31.85 15.55 0.4 -14.7 0.4 -17.35 -34.95 Q-16.65 -37.95 -14.65 -39.2 -13.4 -39.95 -12.15 -39.9 -6.65 -38.75 0.05 -38.75 6.75 -38.75 12.2 -39.9 M15.1 -30.05 Q15.1 -31.25 14.4 -32.1 13.65 -32.95 12.6 -32.95 L-12.15 -32.95 Q-13.2 -32.95 -13.95 -32.1 -14.7 -31.25 -14.7 -30.05 -14.7 -28.85 -13.95 -28.0 -13.2 -27.15 -12.15 -27.15 L12.6 -27.15 Q13.65 -27.15 14.4 -28.0 15.1 -28.85 15.1 -30.05" fill="#ffffff" fill-rule="evenodd" stroke="none"/>
    <path d="M12.6 -32.95 Q13.65 -32.95 14.4 -32.1 15.1 -31.25 15.1 -30.05 15.1 -28.85 14.4 -28.0 13.65 -27.15 12.6 -27.15 L-12.15 -27.15 Q-13.2 -27.15 -13.95 -28.0 -14.7 -28.85 -14.7 -30.05 -14.7 -31.25 -13.95 -32.1 -13.2 -32.95 -12.15 -32.95 L12.6 -32.95" fill="#000000" fill-rule="evenodd" stroke="none"/>
    <path d="M9.3 -14.4 Q10.1 -14.4 10.7 -13.55 11.25 -12.7 11.25 -11.5 11.25 -10.3 10.7 -9.45 10.1 -8.6 9.3 -8.6 L-9.6 -8.6 Q-10.4 -8.6 -10.95 -9.45 -11.55 -10.3 -11.55 -11.5 -11.55 -12.7 -10.95 -13.55 -10.4 -14.4 -9.6 -14.4 L9.3 -14.4" fill="#000000" fill-rule="evenodd" stroke="none"/>
    <path d="M-8.4 -21.15 Q-9.45 -21.15 -10.2 -21.9 -10.95 -22.65 -10.95 -23.75 -10.95 -24.8 -10.2 -25.55 -9.45 -26.35 -8.4 -26.35 -7.3 -26.35 -6.55 -25.55 -5.8 -24.8 -5.8 -23.75 -5.8 -22.65 -6.55 -21.9 -7.3 -21.15 -8.4 -21.15" fill="#000000" fill-rule="evenodd" stroke="none"/>
    <path d="M11.15 -23.75 Q11.15 -22.65 10.4 -21.9 9.65 -21.15 8.6 -21.15 7.5 -21.15 6.75 -21.9 6.0 -22.65 6.0 -23.75 6.0 -24.8 6.75 -25.55 7.5 -26.35 8.6 -26.35 9.65 -26.35 10.4 -25.55 11.15 -24.8 11.15 -23.75" fill="#000000" fill-rule="evenodd" stroke="none"/>
    <path d="M2.1 47.5 L2.1 52.15 17.25 52.15 17.25 47.5 2.1 47.5 M-16.25 47.5 L-16.25 52.15 -1.35 52.15 -1.35 47.5 -16.25 47.5 M-16.3 31.05 L-16.3 35.75 Q-10.3 34.3 -3.4 33.9 7.75 33.2 17.25 35.75 L17.25 31.05 6.6 31.05 6.6 6.15 -5.65 6.15 -5.65 31.05 -16.3 31.05 M-9.65 6.1 L-16.3 6.1 -16.3 27.05 -9.65 27.05 -9.65 6.1 M17.25 6.1 L10.6 6.1 10.6 27.05 17.25 27.05 17.25 6.1 M17.15 -53.55 Q24.2 -51.0 24.2 -47.4 L21.25 1.55 21.15 56.15 -20.3 56.15 -20.2 3.45 -24.15 -47.7 -24.05 -47.7 Q-23.7 -51.2 -16.7 -53.65 -9.75 -56.1 0.05 -56.1 10.05 -56.1 17.15 -53.55 M17.5 -31.85 L17.45 -31.35 Q17.45 -36.15 15.4 -38.35 14.05 -39.75 12.2 -39.9 6.75 -38.75 0.05 -38.75 -6.65 -38.75 -12.15 -39.9 -13.4 -39.95 -14.65 -39.2 -16.65 -37.95 -17.35 -34.95 L-14.7 0.4 15.55 0.4 17.5 -31.85" fill="#000000" fill-rule="evenodd" stroke="none"/>
    <path d="M-16.25 47.5 L-1.35 47.5 -1.35 52.15 -16.25 52.15 -16.25 47.5" fill="#ffffff" fill-rule="evenodd" stroke="none"/>
    <path d="M2.1 52.15 L2.1 47.5 17.25 47.5 17.25 52.15 2.1 52.15" fill="#ffffff" fill-rule="evenodd" stroke="none"/>
    <path d="M-4.1 -4.5 Q-6.45 -5.1 -8.7 -6.35 L-10.45 -7.45 Q-3.75 -5.6 3.75 -6.35 7.5 -6.7 9.9 -7.45 3.55 -2.5 -4.1 -4.5" fill="#000000" fill-rule="evenodd" stroke="none"/>
    <path d="M-16.3 6.1 L-9.65 6.1 -9.65 27.05 -16.3 27.05 -16.3 6.1 M-12.5 12.35 L-13.95 12.35 -13.95 15.75 -12.5 15.75 -12.5 12.35 M-12.5 20.35 L-13.95 20.35 -13.95 23.75 -12.5 23.75 -12.5 20.35" fill="#ffffff" fill-rule="evenodd" stroke="none"/>
    <path d="M10.6 6.1 L17.25 6.1 17.25 27.05 10.6 27.05 10.6 6.1 M14.9 12.35 L13.4 12.35 13.4 15.75 14.9 15.75 14.9 12.35 M14.9 20.35 L13.4 20.35 13.4 23.75 14.9 23.75 14.9 20.35" fill="#ffffff" fill-rule="evenodd" stroke="none"/>
    <path d="M-12.5 15.75 L-13.95 15.75 -13.95 12.35 -12.5 12.35 -12.5 15.75" fill="#000000" fill-rule="evenodd" stroke="none"/>
    <path d="M-13.95 20.35 L-12.5 20.35 -12.5 23.75 -13.95 23.75 -13.95 20.35" fill="#000000" fill-rule="evenodd" stroke="none"/>
    <path d="M13.4 20.35 L14.9 20.35 14.9 23.75 13.4 23.75 13.4 20.35" fill="#000000" fill-rule="evenodd" stroke="none"/>
    <path d="M14.9 15.75 L13.4 15.75 13.4 12.35 14.9 12.35 14.9 15.75" fill="#000000" fill-rule="evenodd" stroke="none"/>
    <path d="M-16.3 1.75 L17.25 1.75" fill="none" stroke="#000000" stroke-linecap="round" stroke-linejoin="round" stroke-width="0.05"/>
  </g>
</svg>
