<?xml version="1.0" encoding="UTF-8" standalone="no"?>
<svg xmlns:xlink="http://www.w3.org/1999/xlink" height="96.65px" width="59.3px" xmlns="http://www.w3.org/2000/svg">
  <g transform="matrix(1.0, 0.0, 0.0, 1.0, 29.65, 48.3)">
    <path d="M-17.75 -19.6 L-18.05 -15.45 Q-18.05 -5.9 -12.8 0.9 -7.6 7.65 -0.2 7.65 5.95 7.65 10.8 2.75 15.55 -2.05 17.1 -9.55 16.7 -8.75 15.2 -7.95 13.7 -7.1 11.6 -6.55 L7.15 -6.0 Q5.25 -6.1 5.0 -6.95 4.7 -7.95 6.9 -9.2 8.6 -12.0 7.55 -14.7 L8.25 -13.05 Q8.85 -11.1 8.35 -9.9 L10.55 -10.6 10.95 -10.7 Q12.1 -13.15 11.2 -15.45 L11.85 -13.95 Q12.45 -12.15 12.1 -10.95 L14.5 -11.15 Q15.5 -13.5 14.65 -15.65 L15.3 -14.1 Q15.9 -12.3 15.55 -11.1 17.0 -10.85 17.2 -10.2 L17.2 -10.1 Q17.65 -12.7 17.65 -15.45 L17.55 -18.15 9.65 -18.15 6.4 -22.95 6.4 -18.55 0.8 -18.95 -0.8 -28.6 -3.65 -19.35 -17.75 -19.6 M-0.4 -45.05 Q16.4 -45.55 23.55 -31.9 27.1 -25.05 27.3 -18.15 L22.15 -18.15 22.25 -15.45 Q22.25 -8.2 19.35 -1.9 16.55 4.2 11.75 8.0 L11.75 8.3 Q13.6 9.05 14.7 10.6 15.85 12.25 15.85 14.25 15.85 17.25 13.55 19.2 17.8 36.75 29.15 47.0 L29.65 47.7 Q29.8 48.35 27.9 48.35 L-28.1 48.35 Q-30.0 48.35 -29.6 47.5 L-28.8 46.65 Q-17.8 36.65 -13.55 19.25 -15.9 17.4 -15.9 14.25 -15.9 12.2 -14.75 10.55 -13.6 8.95 -11.75 8.25 -16.7 4.55 -19.6 -1.65 -22.6 -8.05 -22.6 -15.45 L-22.35 -19.65 -26.55 -19.75 Q-24.3 -35.8 -14.15 -41.65 -9.05 -44.55 -4.45 -44.25 L-4.05 -47.45 -2.85 -45.45 -1.2 -48.3 -0.4 -45.05" fill="#000000" fill-rule="evenodd" stroke="none"/>
    <path d="M-4.4 0.1 L-1.4 1.6 Q2.0 2.55 4.8 0.1 L5.65 -0.15 Q6.1 -0.1 6.4 0.25 6.75 0.6 6.7 1.05 6.7 1.55 6.3 1.85 3.1 4.6 -0.85 4.1 -3.75 3.7 -5.9 1.85 L-6.3 1.05 Q-6.35 0.6 -6.0 0.25 L-5.25 -0.15 -4.4 0.1" fill="#000000" fill-rule="evenodd" stroke="none"/>
    <path d="M-16.15 -8.9 Q-17.7 -10.1 -17.45 -10.9 -17.25 -11.6 -15.7 -11.75 -15.8 -12.85 -15.25 -14.35 L-14.7 -15.65 Q-15.4 -13.8 -14.75 -11.75 L-12.25 -11.35 Q-12.4 -12.55 -11.85 -14.1 L-11.25 -15.45 Q-12.05 -13.45 -11.15 -11.05 L-10.8 -10.95 -8.5 -10.0 Q-8.9 -11.25 -8.3 -13.1 L-7.7 -14.6 Q-8.65 -11.95 -6.95 -9.1 -5.15 -7.9 -5.45 -7.0 -5.75 -6.2 -7.7 -6.15 -9.6 -6.15 -12.1 -6.95 -14.6 -7.8 -16.15 -8.9" fill="#000000" fill-rule="evenodd" stroke="none"/>
  </g>
</svg>
