<?xml version="1.0" encoding="UTF-8" standalone="no"?>
<svg xmlns:xlink="http://www.w3.org/1999/xlink" height="96.1px" width="68.0px" xmlns="http://www.w3.org/2000/svg">
  <g transform="matrix(1.0, 0.0, 0.0, 1.0, 34.0, 48.05)">
    <path d="M8.2 -9.0 Q7.8 -8.35 7.95 -7.7 L7.95 -7.35 Q8.05 -6.95 7.75 -6.55 7.4 -6.1 6.65 -5.9 L4.05 -5.25 2.95 -4.5 Q2.55 -3.85 2.75 -3.15 3.1 -1.8 4.45 -1.8 L4.85 -1.85 7.45 -2.5 Q9.75 -3.0 10.75 -4.7 11.45 -5.85 11.45 -7.35 L11.35 -8.45 10.6 -9.55 9.25 -9.75 Q8.6 -9.6 8.2 -9.0 M10.45 -18.55 Q10.25 -19.7 8.9 -20.25 L5.85 -20.5 Q4.15 -20.2 3.1 -19.15 2.05 -18.15 2.25 -17.0 2.5 -15.85 3.8 -15.3 L6.85 -15.05 Q8.55 -15.35 9.6 -16.4 10.65 -17.4 10.45 -18.55 M-25.9 -0.05 Q-29.0 -3.1 -29.0 -7.5 L-29.0 -16.85 -22.5 -16.35 Q-22.2 -15.45 -21.2 -14.8 -20.15 -14.15 -18.8 -14.0 -17.05 -13.8 -15.75 -14.5 -14.45 -15.2 -14.35 -16.35 L-14.35 -16.55 Q-1.75 -17.7 6.65 -24.05 12.5 -28.5 15.7 -34.95 L16.0 -32.5 16.0 -7.5 Q16.0 -3.1 12.9 -0.05 9.85 3.05 5.45 3.05 L-18.45 3.05 Q-22.8 3.05 -25.9 -0.05" fill="#ffffff" fill-rule="evenodd" stroke="none"/>
    <path d="M-34.0 -7.5 L-34.0 -32.5 Q-34.0 -38.9 -29.45 -43.45 -24.9 -48.0 -18.45 -48.05 L5.45 -48.05 Q11.9 -48.0 16.45 -43.45 21.0 -38.9 21.0 -32.5 L21.0 -16.45 22.7 -16.45 Q27.4 -16.45 30.7 -12.9 34.0 -9.4 34.0 -4.45 L34.0 48.05 -14.3 48.05 -10.1 8.05 -18.45 8.05 Q-24.9 8.05 -29.45 3.5 -34.0 -1.05 -34.0 -7.5 M-29.0 -16.85 L-29.0 -7.5 Q-29.0 -3.1 -25.9 -0.05 -22.8 3.05 -18.45 3.05 L5.45 3.05 Q9.85 3.05 12.9 -0.05 16.0 -3.1 16.0 -7.5 L16.0 -32.5 15.7 -34.95 Q12.5 -28.5 6.65 -24.05 -1.75 -17.7 -14.35 -16.55 L-14.35 -16.35 Q-14.45 -15.2 -15.75 -14.5 -17.05 -13.8 -18.8 -14.0 -20.15 -14.15 -21.2 -14.8 -22.2 -15.45 -22.5 -16.35 L-29.0 -16.85" fill="#000000" fill-rule="evenodd" stroke="none"/>
    <path d="M6.85 -15.05 L3.8 -15.3 Q2.5 -15.85 2.25 -17.0 2.05 -18.15 3.1 -19.15 4.15 -20.2 5.85 -20.5 L8.9 -20.25 Q10.25 -19.7 10.45 -18.55 10.65 -17.4 9.6 -16.4 8.55 -15.35 6.85 -15.05" fill="#000000" fill-rule="evenodd" stroke="none"/>
    <path d="M7.95 -7.7 Q7.8 -8.35 8.2 -9.0 8.6 -9.6 9.25 -9.75 L10.6 -9.55 11.35 -8.45 11.45 -7.35 Q11.45 -5.85 10.75 -4.7 9.75 -3.0 7.45 -2.5 L4.85 -1.85 4.45 -1.8 Q3.1 -1.8 2.75 -3.15 2.55 -3.85 2.95 -4.5 L4.05 -5.25 6.65 -5.9 Q7.4 -6.1 7.75 -6.55 8.05 -6.95 7.95 -7.35 L7.95 -7.7" fill="#000000" fill-rule="evenodd" stroke="none"/>
  </g>
</svg>
