<?xml version="1.0" encoding="UTF-8" standalone="no"?>
<svg xmlns:xlink="http://www.w3.org/1999/xlink" height="86.05px" width="66.5px" xmlns="http://www.w3.org/2000/svg">
  <g transform="matrix(1.0, 0.0, 0.0, 1.0, 33.25, 43.0)">
    <path d="M0.1 4.6 Q3.45 4.6 7.0 5.6 4.1 3.5 0.4 3.5 -3.1 3.5 -5.75 5.35 -2.75 4.6 0.1 4.6 M11.15 10.6 L10.95 10.2 10.0 8.65 Q4.95 6.5 0.1 6.5 -4.95 6.5 -8.6 8.4 L-9.8 10.7 Q-6.9 14.55 -3.35 16.1 L-3.35 11.9 3.9 11.9 3.9 16.35 Q7.8 15.0 11.15 10.6 M16.3 13.0 Q14.9 15.1 13.3 16.7 L13.3 40.05 16.3 40.05 16.3 13.0 M-16.4 40.05 L-13.4 40.05 -13.4 15.25 -15.45 12.45 -16.4 10.85 -16.4 40.05 M-8.45 -40.2 Q-4.2 -43.0 0.6 -43.0 5.4 -43.0 9.7 -40.2 13.7 -37.6 16.65 -32.95 20.35 -27.15 21.85 -19.6 L26.95 -19.6 22.95 -6.2 22.6 -6.2 22.4 -4.35 33.25 -4.25 22.6 43.05 -22.05 43.05 -33.25 -4.75 -21.2 -4.65 -21.35 -6.2 -22.05 -6.2 -26.05 -19.6 -20.65 -19.6 Q-19.15 -27.15 -15.45 -32.95 -12.45 -37.6 -8.45 -40.2 M14.95 -23.65 Q13.8 -27.0 11.95 -29.9 9.55 -33.55 6.6 -35.5 3.7 -37.4 0.6 -37.4 -2.5 -37.4 -5.4 -35.5 -8.3 -33.55 -10.7 -29.9 -12.65 -26.9 -13.85 -23.2 L-5.0 -18.1 Q-4.35 -17.75 -4.1 -16.95 -3.9 -16.25 -4.3 -15.55 -4.85 -14.6 -5.95 -14.6 L-5.9 -14.45 Q-5.9 -13.6 -6.5 -13.0 -7.1 -12.4 -7.95 -12.4 -8.8 -12.4 -9.4 -13.0 -10.0 -13.6 -10.0 -14.45 -10.0 -15.6 -9.1 -16.15 L-14.9 -19.5 Q-15.95 -14.8 -15.95 -10.25 -15.95 -0.65 -12.1 6.95 L-10.75 5.0 Q-8.95 2.75 -6.45 1.4 -3.35 -0.3 0.4 -0.25 7.3 -0.25 11.8 4.95 L13.35 6.95 Q17.15 -0.55 17.15 -10.25 17.15 -15.35 16.0 -19.95 L9.55 -16.25 Q10.6 -15.7 10.6 -14.45 10.6 -13.6 10.0 -13.0 9.4 -12.4 8.55 -12.4 7.75 -12.4 7.1 -13.0 6.5 -13.6 6.5 -14.45 L6.55 -14.65 6.25 -14.6 Q5.15 -14.6 4.6 -15.55 4.2 -16.25 4.45 -16.95 4.65 -17.75 5.3 -18.1 L14.95 -23.65" fill="#000000" fill-rule="evenodd" stroke="none"/>
    <path d="M-15.45 12.45 L-13.4 15.25 -13.4 40.05 -16.4 40.05 -16.4 10.85 -15.45 12.45" fill="#ffffff" fill-rule="evenodd" stroke="none"/>
    <path d="M13.3 16.7 Q14.9 15.1 16.3 13.0 L16.3 40.05 13.3 40.05 13.3 16.7" fill="#ffffff" fill-rule="evenodd" stroke="none"/>
    <path d="M11.95 -29.9 Q13.8 -27.0 14.95 -23.65 L5.3 -18.1 Q4.65 -17.75 4.45 -16.95 4.2 -16.25 4.6 -15.55 5.15 -14.6 6.25 -14.6 L6.55 -14.65 6.5 -14.45 Q6.5 -13.6 7.1 -13.0 7.75 -12.4 8.55 -12.4 9.4 -12.4 10.0 -13.0 10.6 -13.6 10.6 -14.45 10.6 -15.7 9.55 -16.25 L16.0 -19.95 Q17.15 -15.35 17.15 -10.25 17.15 -0.55 13.35 6.95 L11.8 4.95 Q7.3 -0.25 0.4 -0.25 -3.35 -0.3 -6.45 1.4 -8.95 2.75 -10.75 5.0 L-12.1 6.95 Q-15.95 -0.65 -15.95 -10.25 -15.95 -14.8 -14.9 -19.5 L-9.1 -16.15 Q-10.0 -15.6 -10.0 -14.45 -10.0 -13.6 -9.4 -13.0 -8.8 -12.4 -7.95 -12.4 -7.1 -12.4 -6.5 -13.0 -5.9 -13.6 -5.9 -14.45 L-5.95 -14.6 Q-4.85 -14.6 -4.3 -15.55 -3.9 -16.25 -4.1 -16.95 -4.35 -17.75 -5.0 -18.1 L-13.85 -23.2 Q-12.65 -26.9 -10.7 -29.9 -8.3 -33.55 -5.4 -35.5 -2.5 -37.4 0.6 -37.4 3.7 -37.4 6.6 -35.5 9.55 -33.55 11.95 -29.9" fill="#ffffff" fill-rule="evenodd" stroke="none"/>
    <path d="M10.95 10.2 L11.15 10.6 Q7.8 15.0 3.9 16.35 L3.9 11.9 -3.35 11.9 -3.35 16.1 Q-6.9 14.55 -9.8 10.7 L-8.6 8.4 Q-4.95 6.5 0.1 6.5 4.95 6.5 10.0 8.65 L10.95 10.2" fill="#ffffff" fill-rule="evenodd" stroke="none"/>
    <path d="M7.0 5.6 Q3.45 4.6 0.1 4.6 -2.75 4.6 -5.75 5.35 -3.1 3.5 0.4 3.5 4.1 3.5 7.0 5.6" fill="#ffffff" fill-rule="evenodd" stroke="none"/>
  </g>
</svg>
