<?xml version="1.0" encoding="UTF-8" standalone="no"?>
<svg xmlns:xlink="http://www.w3.org/1999/xlink" height="32.6px" width="26.45px" xmlns="http://www.w3.org/2000/svg">
  <g transform="matrix(1.0, 0.0, 0.0, 1.0, 0.0, 0.0)">
    <path d="M8.2 18.2 Q7.85 18.55 7.8 19.0 7.75 19.45 8.05 19.85 L8.85 20.3 Q9.35 20.35 9.7 20.05 L11.35 19.1 15.8 19.1 17.25 20.05 18.1 20.3 Q18.6 20.25 18.9 19.85 L19.15 19.0 18.75 18.2 Q16.0 15.95 12.6 16.35 10.05 16.7 8.2 18.2 M20.25 2.95 L22.2 2.95 22.2 0.0 26.45 0.0 26.45 19.4 Q26.45 24.85 22.55 28.75 18.7 32.6 13.25 32.6 7.75 32.6 3.9 28.75 0.0 24.85 0.0 19.4 L0.0 0.0 14.15 0.0 14.15 0.8 18.1 0.8 18.1 0.0 20.25 0.0 20.25 2.95" fill="#ffffff" fill-rule="evenodd" stroke="none"/>
  </g>
</svg>
