<?xml version="1.0" encoding="UTF-8" standalone="no"?>
<svg xmlns:xlink="http://www.w3.org/1999/xlink" height="38.25px" width="39.05px" xmlns="http://www.w3.org/2000/svg">
  <g transform="matrix(1.0, 0.0, 0.0, 1.0, 0.0, 0.0)">
    <path d="M12.3 9.05 Q11.8 7.85 11.0 7.85 10.25 7.85 9.75 9.05 9.2 10.25 9.2 11.95 9.2 13.65 9.75 14.85 10.25 16.05 11.0 16.05 11.8 16.05 12.3 14.85 12.85 13.65 12.85 11.95 12.85 10.2 12.3 9.05 M24.95 0.05 Q31.15 1.85 35.05 6.95 39.05 12.2 39.05 18.75 39.05 21.85 38.05 24.85 32.35 27.05 26.05 27.7 16.35 28.7 7.7 25.6 L6.6 25.8 Q5.75 26.3 7.1 28.0 11.4 29.2 17.25 29.7 29.05 30.65 37.1 27.2 34.7 32.2 30.05 35.2 25.25 38.25 19.55 38.25 11.45 38.25 5.75 32.55 0.0 26.8 0.0 18.75 0.0 12.15 4.05 6.9 8.0 1.75 14.2 0.0 16.3 2.1 18.65 2.5 21.85 2.95 24.95 0.05 M29.25 11.95 Q29.25 10.25 28.75 9.05 28.2 7.85 27.45 7.85 26.65 7.85 26.15 9.05 25.6 10.2 25.6 11.95 25.6 13.65 26.15 14.85 26.65 16.05 27.45 16.05 28.2 16.05 28.75 14.85 29.25 13.65 29.25 11.95" fill="#ffffff" fill-rule="evenodd" stroke="none"/>
  </g>
</svg>
