<?xml version="1.0" encoding="UTF-8" standalone="no"?>
<svg xmlns:xlink="http://www.w3.org/1999/xlink" height="14.3px" width="71.3px" xmlns="http://www.w3.org/2000/svg">
  <g transform="matrix(1.0, 0.0, 0.0, 1.0, 35.65, 8.3)">
    <path d="M-11.2 0.0 Q-11.2 2.5 -12.85 4.3 -14.55 6.0 -16.9 6.0 -19.25 6.0 -20.95 4.3 -22.6 2.5 -22.6 0.0 -22.6 -2.45 -20.95 -4.25 -19.25 -6.0 -16.9 -6.0 -14.55 -6.0 -12.85 -4.25 -11.2 -2.45 -11.2 0.0" fill="#000000" fill-rule="evenodd" stroke="none"/>
    <path d="M24.0 0.0 Q24.0 2.5 22.35 4.3 20.65 6.0 18.25 6.0 15.9 6.0 14.2 4.3 12.55 2.5 12.55 0.0 12.55 -2.45 14.2 -4.25 15.9 -6.0 18.25 -6.0 20.65 -6.0 22.35 -4.25 24.0 -2.45 24.0 0.0" fill="#000000" fill-rule="evenodd" stroke="none"/>
    <path d="M-33.0 -5.65 L33.0 -5.65" fill="none" stroke="#000000" stroke-linecap="round" stroke-linejoin="miter" stroke-width="5.300000000000001"/>
  </g>
</svg>
