<?xml version="1.0" encoding="UTF-8" standalone="no"?>
<svg xmlns:xlink="http://www.w3.org/1999/xlink" height="38.6px" width="42.95px" xmlns="http://www.w3.org/2000/svg">
  <g transform="matrix(1.0, 0.0, 0.0, 1.0, 0.0, 0.0)">
    <path d="M12.85 30.15 L18.0 32.0 Q24.05 33.1 30.1 30.2 L30.65 29.55 Q30.8 29.1 30.6 28.7 L29.95 28.15 29.1 28.2 Q23.8 30.8 18.5 29.85 L14.0 28.25 13.2 28.15 Q12.75 28.25 12.5 28.6 12.25 29.0 12.35 29.45 12.45 29.9 12.85 30.15 M7.6 15.35 Q6.8 16.15 6.8 17.25 6.8 18.35 7.6 19.1 8.4 19.9 9.5 19.9 10.6 19.9 11.35 19.1 12.15 18.35 12.15 17.25 12.15 16.15 11.35 15.35 10.6 14.55 9.5 14.55 8.4 14.55 7.6 15.35 M33.5 14.55 Q32.4 14.55 31.6 15.35 30.8 16.15 30.8 17.25 30.8 18.35 31.6 19.1 32.4 19.9 33.5 19.9 34.6 19.9 35.35 19.1 36.15 18.35 36.15 17.25 36.15 16.15 35.35 15.35 34.6 14.55 33.5 14.55 M42.8 4.65 L42.95 6.55 42.95 28.55 Q42.95 32.7 40.2 35.65 37.4 38.6 33.5 38.6 L9.45 38.6 Q5.55 38.6 2.8 35.65 0.0 32.7 0.0 28.55 L0.0 5.9 Q1.45 1.15 6.45 0.25 8.95 -0.25 11.15 0.25 L11.15 0.15 Q22.45 5.7 34.2 0.0 40.55 -0.15 42.8 4.65" fill="#ffffff" fill-rule="evenodd" stroke="none"/>
  </g>
</svg>
