<?xml version="1.0" encoding="UTF-8" standalone="no"?>
<svg xmlns:xlink="http://www.w3.org/1999/xlink" height="94.85px" width="72.1px" xmlns="http://www.w3.org/2000/svg">
  <g transform="matrix(1.0, 0.0, 0.0, 1.0, 36.05, 47.4)">
    <path d="M12.3 -32.8 Q11.35 -35.8 9.95 -38.0 L10.6 -38.05 Q15.7 -38.05 19.0 -35.8 22.8 -33.05 23.3 -27.75 18.3 -31.4 12.3 -32.8" fill="#ffffff" fill-rule="evenodd" stroke="none"/>
    <path d="M7.05 -35.3 Q9.45 -30.85 9.5 -25.65 L8.65 -25.9 -29.1 -25.9 Q-28.95 -33.25 -24.6 -38.35 -23.25 -39.9 -21.6 -41.05 -16.45 -37.25 -10.6 -35.3 -0.95 -32.0 7.05 -35.3" fill="#ffffff" fill-rule="evenodd" stroke="none"/>
    <path d="M-17.8 -42.9 L-14.1 -43.5 -5.55 -43.5 Q0.5 -43.5 4.9 -38.4 -0.95 -36.3 -8.15 -38.4 -13.0 -39.8 -17.8 -42.9" fill="#ffffff" fill-rule="evenodd" stroke="none"/>
    <path d="M-29.15 -22.35 L-21.9 -22.35 -22.05 -21.65 Q-22.05 -20.95 -21.55 -20.5 -21.05 -20.0 -20.4 -20.0 -19.7 -20.0 -19.2 -20.5 -18.7 -20.95 -18.7 -21.65 L-18.85 -22.35 -16.95 -22.35 Q-17.1 -19.55 -19.25 -17.55 -21.4 -15.6 -24.35 -15.6 -27.05 -15.6 -29.15 -17.3 L-29.15 -22.35" fill="#ffffff" fill-rule="evenodd" stroke="none"/>
    <path d="M2.4 -20.5 Q2.9 -20.95 2.9 -21.65 L2.7 -22.35 5.65 -22.35 Q5.45 -19.5 3.35 -17.55 1.2 -15.6 -1.75 -15.6 -4.7 -15.6 -6.85 -17.55 -9.0 -19.55 -9.15 -22.35 L-0.3 -22.35 -0.45 -21.65 Q-0.45 -20.95 0.05 -20.5 0.55 -20.0 1.2 -20.0 1.9 -20.0 2.4 -20.5" fill="#ffffff" fill-rule="evenodd" stroke="none"/>
    <path d="M-11.7 -4.95 Q-12.05 -4.75 -12.75 -4.5 -13.25 -4.2 -13.2 -3.65 -13.1 -2.95 -12.7 -2.75 L-11.65 -2.65 -5.7 -3.1 Q-4.15 -3.1 -2.75 -1.9 -2.25 -1.45 -1.55 -1.5 -0.85 -1.55 -0.35 -2.1 0.1 -2.6 0.05 -3.35 0.0 -4.05 -0.55 -4.5 -2.9 -6.5 -5.85 -6.5 L-5.95 -6.45 -11.7 -4.95 M5.4 -13.85 Q8.5 -16.25 9.5 -19.95 L9.5 -15.45 Q9.5 -7.9 5.0 -2.6 0.5 2.6 -5.55 2.6 L-14.1 2.6 Q-20.2 2.6 -24.6 -2.6 -28.1 -6.65 -28.9 -12.3 -26.8 -11.4 -24.35 -11.4 -20.3 -11.4 -17.1 -13.85 -14.0 -16.3 -13.05 -20.05 -12.1 -16.3 -8.95 -13.85 -5.8 -11.4 -1.75 -11.4 2.25 -11.4 5.4 -13.85" fill="#ffffff" fill-rule="evenodd" stroke="none"/>
    <path d="M-22.05 -21.65 L-21.9 -22.35 -29.15 -22.35 -29.15 -17.3 Q-27.05 -15.6 -24.35 -15.6 -21.4 -15.6 -19.25 -17.55 -17.1 -19.55 -16.95 -22.35 L-18.85 -22.35 -18.7 -21.65 Q-18.7 -20.95 -19.2 -20.5 -19.7 -20.0 -20.4 -20.0 -21.05 -20.0 -21.55 -20.5 -22.05 -20.95 -22.05 -21.65 M-17.8 -42.9 Q-13.0 -39.8 -8.15 -38.4 -0.95 -36.3 4.9 -38.4 0.5 -43.5 -5.55 -43.5 L-14.1 -43.5 -17.8 -42.9 M5.0 -2.6 Q9.5 -7.9 9.5 -15.45 L9.5 -19.95 Q8.5 -16.25 5.4 -13.85 2.25 -11.4 -1.75 -11.4 -5.8 -11.4 -8.95 -13.85 -12.1 -16.3 -13.05 -20.05 -14.0 -16.3 -17.1 -13.85 -20.3 -11.4 -24.35 -11.4 -26.8 -11.4 -28.9 -12.3 -28.1 -6.65 -24.6 -2.6 -20.2 2.6 -14.1 2.6 L-5.55 2.6 Q0.5 2.6 5.0 -2.6 M5.65 -22.35 L2.7 -22.35 2.9 -21.65 Q2.9 -20.95 2.4 -20.5 1.9 -20.0 1.2 -20.0 0.55 -20.0 0.05 -20.5 -0.45 -20.95 -0.45 -21.65 L-0.3 -22.35 -9.15 -22.35 Q-9.0 -19.55 -6.85 -17.55 -4.7 -15.6 -1.75 -15.6 1.2 -15.6 3.35 -17.55 5.45 -19.5 5.65 -22.35 M8.65 -25.9 L9.5 -25.65 Q9.45 -30.85 7.05 -35.3 -0.95 -32.0 -10.6 -35.3 -16.45 -37.25 -21.6 -41.05 -23.25 -39.9 -24.6 -38.35 -28.95 -33.25 -29.1 -25.9 L8.65 -25.9 M10.6 -38.05 L9.95 -38.0 Q11.35 -35.8 12.3 -32.8 18.3 -31.4 23.3 -27.75 22.8 -33.05 19.0 -35.8 15.7 -38.05 10.6 -38.05 M27.05 -25.85 L27.0 -24.6 Q36.9 -14.65 35.95 1.95 34.85 21.8 18.0 47.45 L-7.35 47.45 Q-20.15 25.15 -21.05 4.95 -26.35 2.5 -29.65 -2.95 -32.95 -8.5 -33.05 -15.25 -35.75 -18.25 -35.95 -22.1 L-36.0 -22.1 -36.05 -23.5 Q-35.95 -25.0 -35.25 -25.35 -34.8 -25.9 -34.0 -25.9 L-33.05 -25.9 Q-32.85 -34.75 -27.45 -41.0 -21.95 -47.35 -14.1 -47.4 L-5.55 -47.4 Q2.1 -47.3 7.45 -41.4 L10.6 -41.65 Q16.8 -41.65 21.0 -38.8 23.75 -36.9 25.3 -33.8 27.05 -30.4 27.05 -25.85" fill="#000000" fill-rule="evenodd" stroke="none"/>
    <path d="M-11.65 -2.65 L-12.7 -2.75 Q-13.1 -2.95 -13.2 -3.65 -13.25 -4.2 -12.75 -4.5 -12.05 -4.75 -11.7 -4.95 L-5.95 -6.45 -5.85 -6.5 Q-2.9 -6.5 -0.55 -4.5 0.0 -4.05 0.05 -3.35 0.1 -2.6 -0.35 -2.1 -0.85 -1.55 -1.55 -1.5 -2.25 -1.45 -2.75 -1.9 -4.15 -3.1 -5.7 -3.1 L-11.65 -2.65" fill="#000000" fill-rule="evenodd" stroke="none"/>
  </g>
</svg>
