<?xml version="1.0" encoding="UTF-8" standalone="no"?>
<svg xmlns:xlink="http://www.w3.org/1999/xlink" height="74.25px" width="109.8px" xmlns="http://www.w3.org/2000/svg">
  <g transform="matrix(1.0, 0.0, 0.0, 1.0, 54.9, 37.1)">
    <path d="M12.3 10.2 L11.35 8.95 Q8.35 5.65 0.9 5.65 -8.35 5.65 -11.8 10.2 L12.3 10.2 M24.65 -22.05 L23.95 -22.4 23.2 -22.15 Q22.9 -21.85 22.9 -21.4 22.85 -21.0 23.15 -20.65 L29.85 -13.35 31.3 -13.25 31.65 -14.0 31.65 -14.05 31.35 -14.7 24.65 -22.05 M-15.65 -19.75 Q-18.85 -19.55 -21.5 -17.65 L-12.2 -11.2 Q-11.8 -10.95 -11.75 -10.45 -11.65 -9.95 -11.9 -9.6 -12.2 -9.2 -12.65 -9.1 L-13.55 -9.3 -14.05 -9.65 Q-14.3 -8.9 -14.9 -8.4 -15.6 -7.9 -16.4 -7.9 -17.4 -7.9 -18.15 -8.6 -18.85 -9.35 -18.85 -10.4 -18.85 -11.6 -17.9 -12.3 L-22.9 -15.8 -23.25 -16.15 Q-26.6 -12.7 -26.6 -7.9 L-26.6 -1.7 Q-26.6 3.2 -23.1 6.7 -19.6 10.2 -14.65 10.2 L-14.25 10.2 Q-12.85 7.55 -9.9 5.85 -5.8 3.55 0.9 3.55 9.25 3.55 12.95 7.55 14.1 8.85 14.65 10.2 L15.0 10.2 Q19.95 10.2 23.45 6.7 26.95 3.2 26.95 -1.7 L26.95 -7.9 Q26.95 -12.95 23.3 -16.45 L22.85 -15.8 18.0 -12.4 Q19.05 -11.65 19.05 -10.4 19.05 -9.35 18.35 -8.6 17.6 -7.9 16.6 -7.9 15.75 -7.9 15.05 -8.45 14.4 -8.95 14.2 -9.8 L13.5 -9.3 Q13.1 -9.05 12.6 -9.1 12.15 -9.2 11.85 -9.6 11.6 -10.0 11.65 -10.45 L12.15 -11.2 21.5 -17.7 21.7 -17.8 Q18.85 -19.7 15.25 -19.8 7.55 -15.05 -2.6 -16.15 -9.2 -16.85 -15.65 -19.75 M-24.6 -21.2 Q-24.6 -21.75 -25.05 -22.05 L-25.8 -22.2 Q-26.25 -22.1 -26.5 -21.8 L-32.2 -13.65 -32.4 -12.9 -31.95 -12.25 Q-31.6 -12.0 -31.2 -12.05 L-30.55 -12.5 -24.8 -20.6 -24.6 -21.2 M54.9 -36.65 Q54.45 -32.55 51.6 -27.75 45.9 -18.1 33.85 -14.45 L33.85 -13.9 Q33.85 -12.55 32.8 -11.6 31.8 -10.75 30.55 -10.75 L30.85 -7.9 30.85 -1.7 Q30.85 4.85 26.2 9.45 21.55 14.1 15.0 14.1 L9.55 14.1 19.45 37.15 -18.95 37.15 -9.0 14.1 -14.65 14.1 Q-21.2 14.1 -25.85 9.45 -30.5 4.85 -30.5 -1.7 L-30.5 -7.9 -30.35 -10.0 Q-31.9 -9.45 -33.25 -10.4 -34.1 -11.0 -34.45 -11.95 -34.8 -12.85 -34.55 -13.8 -46.2 -17.6 -51.7 -27.1 -53.45 -30.05 -54.35 -33.25 L-54.9 -35.85 Q-44.2 -37.4 -36.65 -33.45 -30.75 -30.4 -27.05 -24.15 L-26.2 -24.4 Q-24.85 -24.65 -23.75 -23.85 -22.65 -23.1 -22.4 -21.7 -18.7 -23.7 -14.65 -23.7 L15.0 -23.7 Q18.0 -23.7 20.85 -22.6 L21.7 -23.8 Q22.65 -24.7 24.0 -24.65 25.35 -24.6 26.3 -23.6 29.8 -30.4 35.8 -33.85 43.6 -38.3 54.9 -36.65" fill="#000000" fill-rule="evenodd" stroke="none"/>
    <path d="M-23.25 -16.15 L-22.9 -15.8 -17.9 -12.3 Q-18.85 -11.6 -18.85 -10.4 -18.85 -9.35 -18.15 -8.6 -17.4 -7.9 -16.4 -7.9 -15.6 -7.9 -14.9 -8.4 -14.3 -8.9 -14.05 -9.65 L-13.55 -9.3 -12.65 -9.1 Q-12.2 -9.2 -11.9 -9.6 -11.65 -9.95 -11.75 -10.45 -11.8 -10.95 -12.2 -11.2 L-21.5 -17.65 Q-18.85 -19.55 -15.65 -19.75 -9.2 -16.85 -2.6 -16.15 7.55 -15.05 15.25 -19.8 18.85 -19.7 21.7 -17.8 L21.5 -17.7 12.15 -11.2 11.65 -10.45 Q11.6 -10.0 11.85 -9.6 12.15 -9.2 12.6 -9.1 13.1 -9.05 13.5 -9.3 L14.2 -9.8 Q14.4 -8.95 15.05 -8.45 15.75 -7.9 16.6 -7.9 17.6 -7.9 18.35 -8.6 19.05 -9.35 19.05 -10.4 19.05 -11.65 18.0 -12.4 L22.85 -15.8 23.3 -16.45 Q26.95 -12.95 26.95 -7.9 L26.95 -1.7 Q26.95 3.2 23.45 6.7 19.95 10.2 15.0 10.2 L14.65 10.2 Q14.1 8.85 12.95 7.55 9.25 3.55 0.9 3.55 -5.8 3.55 -9.9 5.85 -12.85 7.55 -14.25 10.2 L-14.65 10.2 Q-19.6 10.2 -23.1 6.7 -26.6 3.2 -26.6 -1.7 L-26.6 -7.9 Q-26.6 -12.7 -23.25 -16.15" fill="#ffffff" fill-rule="evenodd" stroke="none"/>
    <path d="M11.35 8.95 L12.3 10.2 -11.8 10.2 Q-8.35 5.65 0.9 5.65 8.35 5.65 11.35 8.95" fill="#ffffff" fill-rule="evenodd" stroke="none"/>
    <path d="M-26.5 -21.8 Q-26.25 -22.1 -25.8 -22.2 L-25.05 -22.05 Q-24.6 -21.75 -24.6 -21.2 L-24.8 -20.6 -30.55 -12.5 -31.2 -12.05 Q-31.6 -12.0 -31.95 -12.25 L-32.4 -12.9 -32.2 -13.65 -26.5 -21.8" fill="#ffffff" fill-rule="evenodd" stroke="none"/>
    <path d="M23.95 -22.4 L24.65 -22.05 31.35 -14.7 31.65 -14.05 31.65 -14.0 31.3 -13.25 29.85 -13.35 23.15 -20.65 Q22.85 -21.0 22.9 -21.4 22.9 -21.85 23.2 -22.15 L23.95 -22.4" fill="#ffffff" fill-rule="evenodd" stroke="none"/>
  </g>
</svg>
