<?xml version="1.0" encoding="UTF-8" standalone="no"?>
<svg xmlns:xlink="http://www.w3.org/1999/xlink" height="135.9px" width="60.85px" xmlns="http://www.w3.org/2000/svg">
  <g transform="matrix(1.0, 0.0, 0.0, 1.0, 30.4, 67.95)">
    <path d="M22.8 14.2 Q20.55 20.35 12.15 22.15 L1.1 22.55 -0.05 -4.55 7.05 -4.55 22.25 -9.55 24.15 -20.15 25.8 -20.45 22.8 14.2" fill="#ffffff" fill-rule="evenodd" stroke="none"/>
    <path d="M24.95 -24.8 L22.2 -24.25 22.2 -24.4 26.25 -25.25 26.0 -22.7 24.55 -22.4 24.95 -24.8" fill="#ffffff" fill-rule="evenodd" stroke="none"/>
    <path d="M12.45 -54.45 Q15.8 -52.9 16.85 -47.3 L3.3 -47.3 Q8.3 -50.15 12.45 -54.45" fill="#ffffff" fill-rule="evenodd" stroke="none"/>
    <path d="M2.45 -15.75 Q3.15 -15.75 3.15 -16.4 3.15 -17.05 2.45 -17.05 L-1.45 -17.05 Q-2.1 -17.05 -2.1 -16.4 -2.1 -15.75 -1.45 -15.75 L2.45 -15.75 M8.8 -40.8 Q9.45 -41.4 9.45 -42.35 9.45 -43.25 8.8 -43.9 8.2 -44.55 7.25 -44.55 6.35 -44.55 5.7 -43.9 5.05 -43.25 5.05 -42.35 5.05 -41.4 5.7 -40.8 6.35 -40.15 7.25 -40.15 8.2 -40.15 8.8 -40.8 M12.75 -31.5 L12.3 -30.95 Q11.55 -28.3 9.8 -25.95 6.4 -21.25 1.15 -21.25 -3.9 -21.25 -8.0 -25.75 L-11.15 -30.3 -11.65 -30.8 -12.4 -30.75 -12.85 -30.25 -12.85 -29.5 -9.25 -24.3 Q-4.65 -19.4 1.15 -19.4 7.3 -19.4 11.3 -24.9 13.3 -27.65 14.1 -30.45 L14.0 -31.15 13.45 -31.6 12.75 -31.5 M17.15 -45.35 L17.2 -44.85 Q16.9 -40.15 16.0 -34.8 L15.35 -35.2 12.4 -35.35 Q11.85 -35.1 12.0 -34.5 12.25 -33.95 12.85 -34.1 L14.75 -34.05 15.7 -33.2 Q12.8 -17.85 5.2 -8.45 L-3.9 -8.45 Q-11.65 -17.5 -14.85 -32.85 L-14.0 -33.55 -12.1 -33.6 Q-11.5 -33.4 -11.25 -34.0 -11.1 -34.6 -11.65 -34.85 L-14.65 -34.75 -15.15 -34.4 -16.2 -41.3 -9.5 -42.4 -9.55 -42.35 Q-9.55 -41.4 -8.9 -40.8 -8.25 -40.15 -7.35 -40.15 -6.4 -40.15 -5.75 -40.8 -5.1 -41.4 -5.1 -42.35 -5.1 -42.9 -5.45 -43.5 -2.8 -44.35 -0.55 -45.35 L17.15 -45.35" fill="#ffffff" fill-rule="evenodd" stroke="none"/>
    <path d="M7.25 -40.15 Q6.35 -40.15 5.7 -40.8 5.05 -41.4 5.05 -42.35 5.05 -43.25 5.7 -43.9 6.35 -44.55 7.25 -44.55 8.2 -44.55 8.8 -43.9 9.45 -43.25 9.45 -42.35 9.45 -41.4 8.8 -40.8 8.2 -40.15 7.25 -40.15" fill="#000000" fill-rule="evenodd" stroke="none"/>
    <path d="M25.8 -20.45 L15.9 -18.8 Q13.45 -12.45 8.45 -6.25 L7.05 -4.55 -0.05 -4.55 1.1 22.55 12.15 22.15 Q20.55 20.35 22.8 14.2 L25.8 -20.45 M16.85 -47.3 Q15.8 -52.9 12.45 -54.45 8.3 -50.15 3.3 -47.3 L16.85 -47.3 M22.2 -24.4 L22.2 -24.25 17.2 -23.3 16.55 -20.85 26.0 -22.7 26.25 -25.25 22.2 -24.4 M17.2 -44.85 L17.15 -45.35 -0.55 -45.35 Q-2.8 -44.35 -5.45 -43.5 -5.1 -42.9 -5.1 -42.35 -5.1 -41.4 -5.75 -40.8 -6.4 -40.15 -7.35 -40.15 -8.25 -40.15 -8.9 -40.8 -9.55 -41.4 -9.55 -42.35 L-9.5 -42.4 -16.2 -41.3 -15.15 -34.4 -14.65 -34.75 -11.65 -34.85 Q-11.1 -34.6 -11.25 -34.0 -11.5 -33.4 -12.1 -33.6 L-14.0 -33.55 -14.85 -32.85 Q-11.65 -17.5 -3.9 -8.45 L5.2 -8.45 Q12.8 -17.85 15.7 -33.2 L14.75 -34.05 12.85 -34.1 Q12.25 -33.95 12.0 -34.5 11.85 -35.1 12.4 -35.35 L15.35 -35.2 16.0 -34.8 Q16.9 -40.15 17.2 -44.85 M18.35 -65.15 Q25.55 -62.5 24.95 -49.95 24.65 -43.65 22.9 -37.9 L22.4 -28.3 30.45 -30.05 21.85 67.95 -0.75 67.95 -3.8 -4.55 -5.7 -4.55 -6.3 -5.2 Q-17.7 -17.95 -20.15 -41.0 -23.45 -40.85 -27.05 -41.0 L-20.45 -44.7 -20.5 -45.65 -30.4 -45.95 -22.2 -52.8 -30.25 -50.85 -27.1 -54.65 Q-22.9 -59.05 -17.75 -62.1 -1.35 -72.0 18.35 -65.15" fill="#000000" fill-rule="evenodd" stroke="none"/>
    <path d="M2.45 -17.05 Q3.15 -17.05 3.15 -16.4 3.15 -15.75 2.45 -15.75 L-1.45 -15.75 Q-2.1 -15.75 -2.1 -16.4 -2.1 -17.05 -1.45 -17.05 L2.45 -17.05" fill="#000000" fill-rule="evenodd" stroke="none"/>
    <path d="M14.1 -30.45 Q13.3 -27.65 11.3 -24.9 7.3 -19.4 1.15 -19.4 -4.65 -19.4 -9.25 -24.3 L-12.85 -29.5 -12.85 -30.25 -12.4 -30.75 -11.65 -30.8 -11.15 -30.3 -8.0 -25.75 Q-3.9 -21.25 1.15 -21.25 6.4 -21.25 9.8 -25.95 11.55 -28.3 12.3 -30.95 L12.75 -31.5 13.45 -31.6 14.0 -31.15 14.1 -30.45" fill="#000000" fill-rule="evenodd" stroke="none"/>
    <path d="M24.15 -20.15 L22.25 -9.55 7.05 -4.55 8.45 -6.25 Q13.45 -12.45 15.9 -18.8 L24.15 -20.15" fill="#ffffff" fill-rule="evenodd" stroke="none"/>
    <path d="M24.55 -22.4 L16.55 -20.85 17.2 -23.3 24.95 -24.8 24.55 -22.4" fill="#ffffff" fill-rule="evenodd" stroke="none"/>
  </g>
</svg>
