<?xml version="1.0" encoding="UTF-8" standalone="no"?>
<svg xmlns:xlink="http://www.w3.org/1999/xlink" height="138.85px" width="45.85px" xmlns="http://www.w3.org/2000/svg">
  <g transform="matrix(1.0, 0.0, 0.0, 1.0, 22.9, 69.4)">
    <path d="M7.65 5.55 Q7.65 4.45 8.2 3.5 8.85 2.45 9.75 2.45 11.2 2.45 11.2 4.25 11.2 5.35 10.65 6.3 10.0 7.3 9.15 7.3 L9.1 7.3 Q7.65 7.3 7.65 5.55" fill="#000000" fill-rule="evenodd" stroke="none"/>
    <path d="M0.15 14.7 L1.65 11.25 1.7 11.25 2.0 14.7 0.15 14.7" fill="#000000" fill-rule="evenodd" stroke="none"/>
    <path d="M-1.35 18.25 L-0.35 16.05 2.05 16.05 2.2 18.25 4.1 18.25 3.15 9.85 0.85 9.85 -3.25 18.25 -1.35 18.25 M14.3 16.7 L14.7 14.65 17.65 14.65 17.95 13.15 15.0 13.15 15.35 11.4 18.5 11.4 18.8 9.85 13.85 9.85 12.25 18.25 17.35 18.25 17.65 16.7 14.3 16.7 M11.0 10.3 Q10.2 9.8 8.8 9.8 L6.6 10.05 5.0 18.25 6.8 18.25 7.4 14.95 7.95 14.95 Q8.95 14.95 9.1 16.25 L9.3 18.25 11.15 18.25 10.85 15.85 Q10.7 14.6 10.05 14.3 11.95 13.65 11.95 11.95 11.95 10.9 11.0 10.3 M13.2 8.4 L15.2 8.55 Q17.45 8.55 18.6 7.6 20.1 6.35 20.1 4.2 20.1 2.7 19.15 2.0 18.25 1.25 16.5 1.25 L14.55 1.45 13.2 8.4 M-6.45 18.25 L-5.8 14.85 -2.9 14.85 -2.6 13.35 -5.5 13.35 -5.1 11.4 -2.0 11.4 -1.7 9.85 -6.65 9.85 -8.2 18.25 -6.45 18.25 M-8.75 8.5 L-7.1 8.5 -6.25 6.6 -4.2 6.6 -4.05 8.5 -2.45 8.5 -3.3 1.3 -5.25 1.3 -8.75 8.5 M12.85 4.2 Q12.85 2.85 12.1 2.05 11.35 1.2 9.95 1.2 8.45 1.2 7.3 2.25 6.0 3.55 6.0 5.6 6.0 6.9 6.75 7.75 7.55 8.6 8.9 8.6 L8.95 8.6 Q10.45 8.6 11.6 7.55 12.85 6.3 12.85 4.2 M1.65 4.3 Q0.6 3.7 0.6 3.25 0.6 2.5 1.7 2.5 L3.05 2.8 3.5 1.55 1.85 1.2 Q0.6 1.2 -0.15 1.85 -1.0 2.5 -1.0 3.55 -1.0 4.65 0.5 5.45 1.45 5.95 1.45 6.45 1.45 7.3 0.35 7.3 -0.7 7.3 -1.35 6.8 L-1.85 8.1 Q-1.25 8.6 0.2 8.6 1.45 8.6 2.25 8.0 3.1 7.35 3.1 6.2 3.1 5.05 1.65 4.3 M9.35 -11.45 L8.65 -11.45 7.05 -8.3 1.5 -8.3 1.5 -4.55 9.35 -4.55 9.35 -11.45 M-17.5 -42.7 L-16.4 -26.6 -10.5 -15.0 -10.95 -23.3 -8.9 -12.25 -9.05 -12.2 -1.15 -12.2 -1.15 -12.25 3.0 -12.25 4.65 -12.25 4.7 -12.4 3.0 -12.25 7.75 -22.9 5.05 -13.0 11.95 -26.65 13.25 -42.7 -2.75 -49.35 -17.5 -42.7 M-3.15 -51.3 L-2.8 -51.5 13.4 -44.75 14.05 -52.85 Q13.5 -56.85 9.35 -57.85 L-13.35 -57.85 Q-17.15 -57.1 -18.25 -53.65 L-17.65 -44.8 -3.15 -51.3 M-16.85 -69.4 L14.5 -69.4 Q17.0 -68.8 18.3 -66.2 19.05 -64.6 19.15 -63.0 L18.5 -57.85 18.4 -57.85 16.35 -32.75 22.95 -32.75 22.95 69.45 -11.85 69.45 -11.85 -8.9 -20.25 -25.55 -22.9 -63.75 -22.9 -64.1 Q-22.9 -65.6 -22.05 -66.95 -20.55 -69.3 -16.85 -69.4" fill="#000000" fill-rule="evenodd" stroke="none"/>
    <path d="M-4.5 2.5 L-4.25 5.45 -5.8 5.45 -4.55 2.5 -4.5 2.5" fill="#000000" fill-rule="evenodd" stroke="none"/>
    <path d="M8.8 11.2 Q10.1 11.2 10.1 12.2 10.1 12.8 9.6 13.2 9.1 13.6 8.4 13.6 L7.65 13.6 8.1 11.3 8.8 11.2" fill="#000000" fill-rule="evenodd" stroke="none"/>
    <path d="M15.65 7.3 L15.0 7.25 15.9 2.55 16.55 2.5 Q18.45 2.5 18.45 4.25 18.45 5.55 17.7 6.45 16.95 7.3 15.65 7.3" fill="#000000" fill-rule="evenodd" stroke="none"/>
    <path d="M1.5 -8.3 L7.05 -8.3 8.65 -11.45 9.35 -11.45 9.35 -4.55 1.5 -4.55 1.5 -8.3" fill="#ffffff" fill-rule="evenodd" stroke="none"/>
  </g>
</svg>
