<?xml version="1.0" encoding="UTF-8" standalone="no"?>
<svg xmlns:xlink="http://www.w3.org/1999/xlink" height="37.15px" width="30.75px" xmlns="http://www.w3.org/2000/svg">
  <g transform="matrix(1.0, 0.0, 0.0, 1.0, 0.0, 0.0)">
    <path d="M20.5 37.1 L22.2 36.95 22.15 37.1 20.5 37.1 16.35 37.1 16.35 37.15 8.45 37.15 8.6 37.1 6.55 26.05 7.0 34.35 1.1 22.75 0.0 6.65 14.75 0.0 30.75 6.65 29.45 22.7 22.55 36.35 25.25 26.45 20.5 37.1 M13.35 31.05 Q12.4 31.05 12.4 32.0 L12.65 32.7 13.35 33.0 18.6 33.0 Q19.0 33.0 19.3 32.7 L19.6 32.0 19.3 31.3 18.6 31.05 13.35 31.05 M10.85 6.35 Q11.7 5.3 11.3 4.6 10.95 3.95 9.6 4.05 8.25 4.15 6.75 4.95 5.2 5.8 4.4 6.85 3.6 7.9 3.95 8.55 4.35 9.25 5.65 9.15 6.95 9.05 8.5 8.2 10.05 7.4 10.85 6.35 M26.0 23.3 L26.15 22.3 Q26.0 21.75 25.5 21.5 L24.55 21.35 Q24.0 21.5 23.7 21.95 L22.2 23.75 17.0 25.9 14.65 26.1 13.7 26.05 Q13.15 26.0 12.7 26.35 12.3 26.7 12.25 27.25 12.2 27.75 12.55 28.2 12.85 28.65 13.4 28.7 L18.45 28.35 Q23.7 27.2 26.0 23.3 M23.55 4.95 Q22.05 4.15 20.7 4.05 19.4 3.95 19.0 4.6 18.65 5.3 19.45 6.35 20.25 7.4 21.8 8.2 23.35 9.05 24.65 9.15 26.0 9.25 26.35 8.55 26.75 7.9 25.9 6.85 25.1 5.8 23.55 4.95" fill="#ffffff" fill-rule="evenodd" stroke="none"/>
  </g>
</svg>
