<?xml version="1.0" encoding="UTF-8" standalone="no"?>
<svg xmlns:xlink="http://www.w3.org/1999/xlink" height="76.1px" width="38.35px" xmlns="http://www.w3.org/2000/svg">
  <g transform="matrix(1.0, 0.0, 0.0, 1.0, 18.25, 57.85)">
    <path d="M-2.8 -51.5 L-3.15 -51.3 -17.65 -44.8 -18.25 -53.65 Q-17.15 -57.1 -13.35 -57.85 L9.35 -57.85 Q13.5 -56.85 14.05 -52.85 L13.4 -44.75 -2.8 -51.5" fill="#ffffff" fill-rule="evenodd" stroke="none"/>
    <path d="M-9.0 -41.15 Q-10.55 -40.3 -11.85 -40.2 -13.15 -40.1 -13.55 -40.8 -13.9 -41.45 -13.1 -42.5 -12.3 -43.55 -10.75 -44.4 -9.25 -45.2 -7.9 -45.3 -6.55 -45.4 -6.2 -44.75 -5.8 -44.05 -6.65 -43.0 -7.45 -41.95 -9.0 -41.15" fill="#000000" fill-rule="evenodd" stroke="none"/>
    <path d="M4.3 -41.15 Q2.75 -41.95 1.95 -43.0 1.15 -44.05 1.5 -44.75 1.9 -45.4 3.2 -45.3 4.55 -45.2 6.05 -44.4 7.6 -43.55 8.4 -42.5 9.25 -41.45 8.85 -40.8 8.5 -40.1 7.15 -40.2 5.85 -40.3 4.3 -41.15" fill="#000000" fill-rule="evenodd" stroke="none"/>
    <path d="M1.8 -16.65 Q1.5 -16.35 1.1 -16.35 L-4.15 -16.35 Q-4.55 -16.35 -4.85 -16.65 L-5.1 -17.35 Q-5.1 -18.3 -4.15 -18.3 L1.1 -18.3 1.8 -18.05 2.1 -17.35 1.8 -16.65" fill="#000000" fill-rule="evenodd" stroke="none"/>
    <path d="M-6.25 6.6 L-7.1 8.5 -8.75 8.5 -5.25 1.3 -3.3 1.3 -2.45 8.5 -4.05 8.5 -4.2 6.6 -6.25 6.6 M-4.25 5.45 L-4.5 2.5 -4.55 2.5 -5.8 5.45 -4.25 5.45" fill="#ffffff" fill-rule="evenodd" stroke="none"/>
    <path d="M1.7 2.5 Q0.6 2.5 0.6 3.25 0.6 3.7 1.65 4.3 3.1 5.05 3.1 6.2 3.1 7.35 2.25 8.0 1.45 8.6 0.2 8.6 -1.25 8.6 -1.85 8.1 L-1.35 6.8 Q-0.7 7.3 0.35 7.3 1.45 7.3 1.45 6.45 1.45 5.95 0.5 5.45 -1.0 4.65 -1.0 3.55 -1.0 2.5 -0.15 1.85 0.6 1.2 1.85 1.2 L3.5 1.55 3.05 2.8 1.7 2.5" fill="#ffffff" fill-rule="evenodd" stroke="none"/>
    <path d="M11.2 4.25 Q11.2 2.45 9.75 2.45 8.85 2.45 8.2 3.5 7.65 4.45 7.65 5.55 7.65 7.3 9.1 7.3 L9.15 7.3 Q10.0 7.3 10.65 6.3 11.2 5.35 11.2 4.25 M7.3 2.25 Q8.45 1.2 9.95 1.2 11.35 1.2 12.1 2.05 12.85 2.85 12.85 4.2 12.85 6.3 11.6 7.55 10.45 8.6 8.95 8.6 L8.9 8.6 Q7.55 8.6 6.75 7.75 6.0 6.9 6.0 5.6 6.0 3.55 7.3 2.25" fill="#ffffff" fill-rule="evenodd" stroke="none"/>
    <path d="M15.9 2.55 L15.0 7.25 15.65 7.3 Q16.95 7.3 17.7 6.45 18.45 5.55 18.45 4.25 18.45 2.5 16.55 2.5 L15.9 2.55 M13.2 8.4 L14.55 1.45 16.5 1.25 Q18.25 1.25 19.15 2.0 20.1 2.7 20.1 4.2 20.1 6.35 18.6 7.6 17.45 8.55 15.2 8.55 L13.2 8.4" fill="#ffffff" fill-rule="evenodd" stroke="none"/>
    <path d="M-5.1 11.4 L-5.5 13.35 -2.6 13.35 -2.9 14.85 -5.8 14.85 -6.45 18.25 -8.2 18.25 -6.65 9.85 -1.7 9.85 -2.0 11.4 -5.1 11.4" fill="#ffffff" fill-rule="evenodd" stroke="none"/>
    <path d="M-1.35 18.25 L-3.25 18.25 0.85 9.85 3.15 9.85 4.1 18.25 2.2 18.25 2.05 16.05 -0.35 16.05 -1.35 18.25 M1.7 11.25 L1.65 11.25 0.15 14.7 2.0 14.7 1.7 11.25" fill="#ffffff" fill-rule="evenodd" stroke="none"/>
    <path d="M8.8 9.8 Q10.2 9.8 11.0 10.3 11.95 10.9 11.95 11.95 11.95 13.65 10.05 14.3 10.7 14.6 10.85 15.85 L11.15 18.25 9.3 18.25 9.1 16.25 Q8.95 14.95 7.95 14.95 L7.4 14.95 6.8 18.25 5.0 18.25 6.6 10.05 8.8 9.8 M8.8 11.2 L8.1 11.3 7.65 13.6 8.4 13.6 Q9.1 13.6 9.6 13.2 10.1 12.8 10.1 12.2 10.1 11.2 8.8 11.2" fill="#ffffff" fill-rule="evenodd" stroke="none"/>
    <path d="M12.25 18.25 L13.85 9.85 18.8 9.85 18.5 11.4 15.35 11.4 15.0 13.15 17.95 13.15 17.65 14.65 14.7 14.65 14.3 16.7 17.65 16.7 17.35 18.25 12.25 18.25" fill="#ffffff" fill-rule="evenodd" stroke="none"/>
    <path d="M-0.5 -23.45 L4.7 -25.6 Q2.7 -23.9 -0.5 -23.45" fill="#ffffff" fill-rule="evenodd" stroke="none"/>
    <path d="M-4.1 -20.65 Q-4.65 -20.7 -4.95 -21.15 -5.3 -21.6 -5.25 -22.1 -5.2 -22.65 -4.8 -23.0 L-3.8 -23.3 -2.85 -23.25 -0.5 -23.45 Q2.7 -23.9 4.7 -25.6 L6.2 -27.4 7.05 -28.0 8.0 -27.85 8.65 -27.05 Q8.75 -26.55 8.5 -26.05 6.2 -22.15 0.95 -21.0 L-4.1 -20.65" fill="#000000" fill-rule="evenodd" stroke="none"/>
  </g>
</svg>
