<?xml version="1.0" encoding="UTF-8" standalone="no"?>
<svg xmlns:xlink="http://www.w3.org/1999/xlink" height="112.4px" width="102.75px" xmlns="http://www.w3.org/2000/svg">
  <g transform="matrix(1.0, 0.0, 0.0, 1.0, 51.35, 56.2)">
    <path d="M-39.85 45.05 L-39.6 41.25 38.25 41.25 38.5 45.05 -39.85 45.05" fill="#ffffff" fill-rule="evenodd" stroke="none"/>
    <path d="M-38.55 35.0 L-37.3 30.75 35.95 30.75 37.2 35.0 -38.55 35.0" fill="#ffffff" fill-rule="evenodd" stroke="none"/>
    <path d="M-34.5 24.45 Q-32.85 21.55 -31.6 19.8 L-12.15 19.8 Q-6.85 23.6 -0.35 23.6 L0.8 23.6 Q7.35 23.6 12.55 19.8 L30.25 19.8 33.0 24.2 33.0 24.45 -34.5 24.45" fill="#ffffff" fill-rule="evenodd" stroke="none"/>
    <path d="M-27.35 14.75 Q-24.2 11.6 -20.45 9.2 L-19.65 9.2 Q-18.75 12.25 -17.0 14.75 L-27.35 14.75" fill="#ffffff" fill-rule="evenodd" stroke="none"/>
    <path d="M19.9 9.75 Q23.15 11.9 26.0 14.75 L17.45 14.75 Q19.1 12.4 19.9 9.75" fill="#ffffff" fill-rule="evenodd" stroke="none"/>
    <path d="M26.0 14.75 Q23.15 11.9 19.9 9.75 19.1 12.4 17.45 14.75 L26.0 14.75 M11.25 0.5 L11.25 3.7 Q15.05 2.3 17.95 0.25 L17.95 -3.6 Q15.25 -1.05 11.25 0.5 M22.75 -7.95 L21.65 -8.0 Q21.05 -7.75 20.8 -7.2 L20.65 -6.9 19.45 -5.2 19.45 -0.95 Q22.4 -3.5 23.55 -6.0 23.8 -6.55 23.55 -7.15 L22.75 -7.95 M-39.6 41.25 L-39.85 45.05 38.5 45.05 38.25 41.25 -39.6 41.25 M-19.65 9.2 L-20.45 9.2 Q-24.2 11.6 -27.35 14.75 L-17.0 14.75 Q-18.75 12.25 -19.65 9.2 M-11.15 4.05 L-11.15 0.9 Q-14.5 -0.35 -16.95 -2.3 L-17.65 -2.85 -17.65 0.9 Q-14.8 2.85 -11.15 4.05 M-0.75 13.05 L-0.95 13.05 Q-8.05 13.05 -14.15 10.85 -12.1 14.6 -8.5 16.8 -4.75 19.1 -0.35 19.15 L0.8 19.15 Q5.35 19.1 9.15 16.7 12.85 14.35 14.8 10.4 7.75 13.05 -0.75 13.05 M-1.7 2.6 Q-6.0 2.55 -9.65 1.4 L-9.65 4.5 Q-5.95 5.55 -1.7 5.55 L-1.7 2.6 M-0.2 2.6 L-0.2 5.55 Q5.1 5.5 9.75 4.15 L9.75 1.05 Q5.25 2.45 -0.2 2.6 M-31.6 19.8 Q-32.85 21.55 -34.5 24.45 L33.0 24.45 33.0 24.2 30.25 19.8 12.55 19.8 Q7.35 23.6 0.8 23.6 L-0.35 23.6 Q-6.85 23.6 -12.15 19.8 L-31.6 19.8 M-37.3 30.75 L-38.55 35.0 37.2 35.0 35.95 30.75 -37.3 30.75 M-21.3 -7.05 Q-21.55 -7.6 -22.15 -7.8 L-23.3 -7.65 Q-23.85 -7.4 -24.05 -6.8 L-23.9 -5.65 Q-23.9 -5.4 -22.75 -3.9 -21.2 -1.9 -19.1 -0.2 L-19.1 -4.25 -20.3 -5.65 -21.1 -6.7 -21.3 -7.05 M0.8 -51.75 L-0.35 -51.75 Q-6.85 -51.75 -11.4 -47.15 -16.0 -42.6 -16.0 -36.1 L-16.0 -12.65 -14.5 -10.7 -14.2 -10.2 -12.15 -8.2 Q-7.8 -4.9 -0.95 -4.85 6.85 -4.9 11.45 -7.8 13.6 -9.15 14.4 -10.55 15.15 -12.15 16.45 -13.3 L16.45 -36.1 Q16.45 -42.6 11.85 -47.15 7.3 -51.75 0.8 -51.75 M-0.35 -56.2 L0.8 -56.2 Q6.95 -56.2 12.05 -52.75 17.05 -49.35 19.35 -43.85 L41.75 -36.4 41.7 -36.2 Q45.95 -35.2 48.65 -32.6 51.4 -29.9 51.4 -26.55 51.4 -22.4 47.4 -19.4 43.35 -16.45 37.7 -16.45 L20.9 -16.45 20.9 -15.45 Q23.65 -15.85 26.05 -14.8 29.45 -13.3 30.75 -9.85 32.1 -6.35 30.6 -3.0 28.45 1.85 23.15 5.85 L21.9 6.75 Q26.25 9.7 29.6 13.35 35.5 19.75 38.7 28.0 42.05 36.55 42.05 45.9 42.05 50.55 41.25 54.75 L41.0 56.2 -42.35 56.2 -42.6 54.75 Q-43.4 50.55 -43.4 45.9 -43.4 36.55 -40.05 28.0 -36.85 19.75 -30.95 13.35 -27.2 9.3 -22.6 6.35 L-23.15 5.95 Q-27.45 2.6 -30.3 -2.2 -32.0 -5.5 -30.9 -9.05 -29.8 -12.55 -26.5 -14.3 -23.6 -15.8 -20.5 -15.1 L-20.5 -16.45 -39.55 -16.45 -39.6 -16.6 Q-44.6 -17.1 -47.95 -19.9 -51.35 -22.75 -51.35 -26.55 -51.35 -29.75 -48.85 -32.35 -46.4 -34.9 -42.45 -36.0 L-18.75 -44.25 Q-16.35 -49.6 -11.45 -52.85 -6.4 -56.2 -0.35 -56.2" fill="#000000" fill-rule="evenodd" stroke="none"/>
    <path d="M-7.5 -13.35 Q-4.55 -10.4 -0.4 -10.4 3.75 -10.4 6.7 -13.35 9.65 -16.3 9.65 -20.45 9.65 -24.6 6.7 -27.55 3.75 -30.5 -0.4 -30.5 -4.55 -30.5 -7.5 -27.55 -10.45 -24.6 -10.45 -20.45 -10.45 -16.3 -7.5 -13.35 M-7.6 -42.25 Q-8.15 -42.8 -8.9 -42.8 -9.7 -42.8 -10.25 -42.25 -10.8 -41.7 -10.8 -40.95 L-10.8 -33.95 Q-10.8 -33.2 -10.25 -32.65 -9.7 -32.1 -8.9 -32.1 -8.15 -32.1 -7.6 -32.65 -7.05 -33.2 -7.05 -33.95 L-7.05 -40.95 Q-7.05 -41.7 -7.6 -42.25 M-0.35 -51.75 L0.8 -51.75 Q7.3 -51.75 11.85 -47.15 16.45 -42.6 16.45 -36.1 L16.45 -13.3 Q15.15 -12.15 14.4 -10.55 13.6 -9.15 11.45 -7.8 6.85 -4.9 -0.95 -4.85 -7.8 -4.9 -12.15 -8.2 L-14.2 -10.2 -14.5 -10.7 -16.0 -12.65 -16.0 -36.1 Q-16.0 -42.6 -11.4 -47.15 -6.85 -51.75 -0.35 -51.75 M9.05 -42.25 Q8.5 -42.8 7.75 -42.8 6.95 -42.8 6.4 -42.25 5.85 -41.7 5.85 -40.95 L5.85 -33.95 Q5.85 -33.2 6.4 -32.65 6.95 -32.1 7.75 -32.1 8.5 -32.1 9.05 -32.65 9.6 -33.2 9.6 -33.95 L9.6 -40.95 Q9.6 -41.7 9.05 -42.25" fill="#ffffff" fill-rule="evenodd" stroke="none"/>
    <path d="M0.8 19.15 L-0.35 19.15 Q-4.75 19.1 -8.5 16.8 -12.1 14.6 -14.15 10.85 -8.05 13.05 -0.95 13.05 L-0.75 13.05 Q7.75 13.05 14.8 10.4 12.85 14.35 9.15 16.7 5.35 19.1 0.8 19.15" fill="#ffffff" fill-rule="evenodd" stroke="none"/>
    <path d="M-10.45 -20.45 Q-10.45 -24.6 -7.5 -27.55 -4.55 -30.5 -0.4 -30.5 3.75 -30.5 6.7 -27.55 9.65 -24.6 9.65 -20.45 9.65 -16.3 6.7 -13.35 3.75 -10.4 -0.4 -10.4 -4.55 -10.4 -7.5 -13.35 -10.45 -16.3 -10.45 -20.45 M6.7 -22.45 Q6.7 -23.4 6.0 -24.1 5.35 -24.8 4.35 -24.8 3.4 -24.8 2.75 -24.1 2.05 -23.4 2.05 -22.45 2.05 -21.5 2.75 -20.85 3.4 -20.15 4.35 -20.15 5.3 -20.15 6.0 -20.85 6.7 -21.5 6.7 -22.45" fill="#000000" fill-rule="evenodd" stroke="none"/>
    <path d="M2.05 -22.45 Q2.05 -23.4 2.75 -24.1 3.4 -24.8 4.35 -24.8 5.35 -24.8 6.0 -24.1 6.7 -23.4 6.7 -22.45 6.7 -21.5 6.0 -20.85 5.3 -20.15 4.35 -20.15 3.4 -20.15 2.75 -20.85 2.05 -21.5 2.05 -22.45" fill="#ffffff" fill-rule="evenodd" stroke="none"/>
    <path d="M-23.9 -5.65 L-24.05 -6.8 Q-23.85 -7.4 -23.3 -7.65 L-22.15 -7.8 Q-21.55 -7.6 -21.3 -7.05 L-21.1 -6.7 -20.3 -5.65 -19.1 -4.25 -19.1 -0.2 Q-21.2 -1.9 -22.75 -3.9 -23.9 -5.4 -23.9 -5.65" fill="#ffffff" fill-rule="evenodd" stroke="none"/>
    <path d="M11.25 0.5 Q15.25 -1.05 17.95 -3.6 L17.95 0.25 Q15.05 2.3 11.25 3.7 L11.25 0.5" fill="#ffffff" fill-rule="evenodd" stroke="none"/>
    <path d="M-9.65 4.5 L-9.65 1.4 Q-6.0 2.55 -1.7 2.6 L-1.7 5.55 Q-5.95 5.55 -9.65 4.5" fill="#ffffff" fill-rule="evenodd" stroke="none"/>
    <path d="M-0.2 5.55 L-0.2 2.6 Q5.25 2.45 9.75 1.05 L9.75 4.15 Q5.1 5.5 -0.2 5.55" fill="#ffffff" fill-rule="evenodd" stroke="none"/>
    <path d="M20.65 -6.9 L20.8 -7.2 Q21.05 -7.75 21.65 -8.0 L22.75 -7.95 23.55 -7.15 Q23.8 -6.55 23.55 -6.0 22.4 -3.5 19.45 -0.95 L19.45 -5.2 20.65 -6.9" fill="#ffffff" fill-rule="evenodd" stroke="none"/>
    <path d="M-16.95 -2.3 Q-14.5 -0.35 -11.15 0.9 L-11.15 4.05 Q-14.8 2.85 -17.65 0.9 L-17.65 -2.85 -16.95 -2.3" fill="#ffffff" fill-rule="evenodd" stroke="none"/>
    <path d="M-10.25 -42.25 Q-9.7 -42.8 -8.9 -42.8 -8.15 -42.8 -7.6 -42.25 -7.05 -41.7 -7.05 -40.95 L-7.05 -33.95 Q-7.05 -33.2 -7.6 -32.65 -8.15 -32.1 -8.9 -32.1 -9.7 -32.1 -10.25 -32.65 -10.8 -33.2 -10.8 -33.95 L-10.8 -40.95 Q-10.8 -41.7 -10.25 -42.25" fill="#000000" fill-rule="evenodd" stroke="none"/>
    <path d="M7.75 -32.1 Q6.95 -32.1 6.4 -32.65 5.85 -33.2 5.85 -33.95 L5.85 -40.95 Q5.85 -41.7 6.4 -42.25 6.95 -42.8 7.75 -42.8 8.5 -42.8 9.05 -42.25 9.6 -41.7 9.6 -40.95 L9.6 -33.95 Q9.6 -33.2 9.05 -32.65 8.5 -32.1 7.75 -32.1" fill="#000000" fill-rule="evenodd" stroke="none"/>
  </g>
</svg>
