<?xml version="1.0" encoding="UTF-8" standalone="no"?>
<svg xmlns:xlink="http://www.w3.org/1999/xlink" height="34.5px" width="45.95px" xmlns="http://www.w3.org/2000/svg">
  <g transform="matrix(1.0, 0.0, 0.0, 1.0, 0.0, -0.05)">
    <path d="M45.95 11.55 L45.95 14.55 Q45.95 19.1 45.25 22.0 44.3 26.1 41.65 28.8 35.8 34.55 21.65 34.55 9.4 34.55 4.0 27.9 0.0 22.95 0.0 14.8 0.0 13.45 0.65 11.4 L1.35 9.15 Q6.1 3.05 15.25 0.95 19.85 -0.1 24.0 0.05 33.85 0.9 40.4 5.7 44.15 8.4 45.95 11.55 M40.85 13.05 Q41.45 13.55 42.05 13.55 43.05 13.55 43.55 12.55 L43.85 11.3 Q43.85 10.15 43.1 9.4 39.7 6.05 35.25 4.0 29.4 1.3 22.3 1.05 L22.15 1.05 Q19.25 1.3 15.55 2.4 8.35 4.55 3.25 8.95 2.5 9.65 2.5 10.8 2.5 11.45 2.8 12.05 3.4 13.2 4.45 13.2 4.95 13.2 5.45 12.8 6.7 11.7 7.95 10.9 L18.95 11.0 19.15 11.3 20.5 12.5 Q22.2 13.6 23.95 13.65 L24.0 13.65 Q26.45 13.65 28.0 11.1 L38.7 11.15 40.85 13.05" fill="#ffffff" fill-rule="evenodd" stroke="none"/>
  </g>
</svg>
