<?xml version="1.0" encoding="UTF-8" standalone="no"?>
<svg xmlns:xlink="http://www.w3.org/1999/xlink" height="98.35px" width="63.4px" xmlns="http://www.w3.org/2000/svg">
  <g transform="matrix(1.0, 0.0, 0.0, 1.0, 31.7, 49.15)">
    <path d="M23.0 -36.35 L22.9 -36.35 22.9 -11.45 20.5 -7.4 Q31.7 9.7 31.7 49.2 L-31.7 49.2 Q-31.7 8.9 -19.7 -8.3 L-21.75 -11.4 -21.75 -36.65 -21.7 -36.65 Q-20.9 -40.5 -17.45 -43.6 -11.35 -49.15 0.85 -49.15 14.05 -49.15 19.85 -42.75 22.75 -39.55 23.0 -36.35 M5.7 -37.15 L6.05 -32.0 -4.15 -32.0 -4.85 -36.7 -5.5 -32.0 -14.85 -32.0 -17.15 -31.75 -17.15 -12.8 -5.95 4.2 8.2 4.2 18.3 -12.75 18.3 -32.0 6.9 -32.0 5.7 -37.15" fill="#000000" fill-rule="evenodd" stroke="none"/>
    <path d="M-9.5 -11.3 L-11.95 -13.15 -12.65 -13.45 Q-13.1 -13.45 -13.4 -13.1 L-13.7 -12.35 Q-13.7 -11.9 -13.35 -11.65 L-10.8 -9.7 Q-7.7 -7.6 -4.35 -6.5 6.15 -3.1 14.55 -11.1 L14.85 -11.85 14.55 -12.6 13.05 -12.65 Q5.6 -5.5 -3.7 -8.45 -6.7 -9.4 -9.5 -11.3 M-9.7 -24.3 Q-10.65 -24.3 -11.35 -23.6 -12.0 -22.95 -12.0 -22.0 -12.0 -21.0 -11.35 -20.35 -10.65 -19.65 -9.7 -19.65 -8.75 -19.65 -8.1 -20.35 -7.4 -21.05 -7.4 -22.0 -7.4 -22.95 -8.1 -23.6 -8.75 -24.3 -9.7 -24.3 M6.9 -32.0 L18.3 -32.0 18.3 -12.75 8.2 4.2 -5.95 4.2 -17.15 -12.8 -17.15 -31.75 -14.85 -32.0 -5.5 -32.0 -4.85 -36.7 -4.15 -32.0 6.05 -32.0 5.7 -37.15 6.9 -32.0 M10.75 -24.3 Q9.8 -24.3 9.1 -23.6 8.45 -22.95 8.45 -22.0 8.45 -21.0 9.1 -20.35 9.8 -19.65 10.75 -19.65 11.7 -19.65 12.35 -20.35 13.05 -21.05 13.05 -22.0 13.05 -22.95 12.35 -23.6 11.7 -24.3 10.75 -24.3" fill="#ffffff" fill-rule="evenodd" stroke="none"/>
    <path d="M-4.35 -6.5 Q-7.7 -7.6 -10.8 -9.7 L-13.35 -11.65 Q-13.7 -11.9 -13.7 -12.35 L-13.4 -13.1 Q-13.1 -13.45 -12.65 -13.45 L-11.95 -13.15 -9.5 -11.3 Q-6.7 -9.4 -3.7 -8.45 5.6 -5.5 13.05 -12.65 L14.55 -12.6 14.85 -11.85 14.55 -11.1 Q6.15 -3.1 -4.35 -6.5" fill="#000000" fill-rule="evenodd" stroke="none"/>
    <path d="M-9.7 -19.65 Q-10.65 -19.65 -11.35 -20.35 -12.0 -21.0 -12.0 -22.0 -12.0 -22.95 -11.35 -23.6 -10.65 -24.3 -9.7 -24.3 -8.75 -24.3 -8.1 -23.6 -7.4 -22.95 -7.4 -22.0 -7.4 -21.05 -8.1 -20.35 -8.75 -19.65 -9.7 -19.65" fill="#000000" fill-rule="evenodd" stroke="none"/>
    <path d="M10.75 -19.65 Q9.8 -19.65 9.1 -20.35 8.45 -21.0 8.45 -22.0 8.45 -22.95 9.1 -23.6 9.8 -24.3 10.75 -24.3 11.7 -24.3 12.35 -23.6 13.05 -22.95 13.05 -22.0 13.05 -21.05 12.35 -20.35 11.7 -19.65 10.75 -19.65" fill="#000000" fill-rule="evenodd" stroke="none"/>
  </g>
</svg>
