<?xml version="1.0" encoding="UTF-8" standalone="no"?>
<svg xmlns:xlink="http://www.w3.org/1999/xlink" height="82.4px" width="59.35px" xmlns="http://www.w3.org/2000/svg">
  <g transform="matrix(1.0, 0.0, 0.0, 1.0, 29.9, 32.75)">
    <path d="M-7.1 -30.1 Q-7.1 -29.15 -7.8 -28.5 -8.45 -27.8 -9.4 -27.8 -10.35 -27.8 -11.0 -28.5 -11.7 -29.15 -11.7 -30.1 -11.7 -31.05 -11.0 -31.75 -10.35 -32.4 -9.4 -32.4 -8.45 -32.4 -7.8 -31.75 -7.1 -31.05 -7.1 -30.1" fill="#000000" fill-rule="evenodd" stroke="none"/>
    <path d="M8.45 -32.75 Q9.4 -32.75 10.05 -32.1 10.7 -31.4 10.7 -30.45 10.7 -29.5 10.05 -28.85 9.4 -28.15 8.45 -28.15 7.5 -28.15 6.8 -28.85 6.15 -29.5 6.15 -30.45 6.15 -31.4 6.8 -32.1 7.5 -32.75 8.45 -32.75" fill="#000000" fill-rule="evenodd" stroke="none"/>
    <path d="M8.4 -15.1 L9.4 -15.15 10.1 -14.5 10.15 -13.55 Q10.0 -13.05 9.5 -12.8 2.6 -9.45 -4.3 -10.75 L-8.5 -12.05 -10.2 -12.9 Q-10.65 -13.15 -10.75 -13.7 L-10.6 -14.65 -9.8 -15.2 -8.85 -15.05 -3.75 -13.25 Q2.35 -12.2 8.4 -15.1" fill="#000000" fill-rule="evenodd" stroke="none"/>
    <path d="M2.0 49.65 L2.0 43.0 29.45 43.0 29.45 49.65 2.0 49.65" fill="#ffffff" fill-rule="evenodd" stroke="none"/>
    <path d="M-1.95 43.0 L-1.95 49.65 -29.9 49.65 -29.9 43.0 -1.95 43.0" fill="#ffffff" fill-rule="evenodd" stroke="none"/>
  </g>
</svg>
