<?xml version="1.0" encoding="UTF-8" standalone="no"?>
<svg xmlns:xlink="http://www.w3.org/1999/xlink" height="18.2px" width="21.95px" xmlns="http://www.w3.org/2000/svg">
  <g transform="matrix(1.0, 0.0, 0.0, 1.0, 0.0, 0.0)">
    <path d="M11.15 0.0 Q11.65 2.65 13.75 4.4 15.85 6.2 18.6 6.2 20.35 6.2 21.95 5.4 L15.05 16.05 Q13.4 18.2 10.7 18.2 9.1 18.2 7.75 17.35 6.35 16.45 5.7 15.0 L5.65 14.9 0.0 6.15 0.7 6.2 Q3.85 6.2 6.1 3.95 7.7 2.35 8.15 0.2 L9.05 0.4 11.15 0.0 M12.8 11.95 L12.9 11.45 12.7 10.8 Q12.4 10.4 11.85 10.35 L10.5 10.1 Q9.25 9.65 9.1 8.55 9.05 8.1 8.65 7.8 L7.9 7.6 Q7.5 7.65 7.2 7.95 6.95 8.25 6.95 8.65 L6.95 8.8 Q7.0 9.55 7.5 10.45 L8.5 11.7 7.7 12.35 7.5 13.0 7.55 13.1 Q7.55 13.55 7.8 13.85 L8.4 13.95 8.75 13.8 8.9 13.15 9.25 12.8 Q9.6 12.5 10.05 12.5 L11.6 12.5 11.8 12.55 Q12.45 12.55 12.8 11.95" fill="#ffffff" fill-rule="evenodd" stroke="none"/>
  </g>
</svg>
