<?xml version="1.0" encoding="UTF-8" standalone="no"?>
<svg xmlns:xlink="http://www.w3.org/1999/xlink" height="17.0px" width="38.0px" xmlns="http://www.w3.org/2000/svg">
  <g transform="matrix(1.0, 0.0, 0.0, 1.0, 19.0, 8.0)">
    <path d="M19.0 -7.55 L18.7 -6.45 18.35 -5.45 18.3 -5.25 17.05 -2.45 16.75 -1.85 16.7 -1.85 Q14.85 1.35 12.15 3.95 L9.8 5.8 9.75 5.55 Q5.35 8.6 0.2 8.95 -6.45 9.4 -12.3 4.9 L-13.7 3.35 -13.7 3.4 Q-15.2 1.9 -17.0 -2.3 L-18.5 -6.15 -19.0 -7.05 Q-19.15 -7.7 -17.4 -6.75 -15.7 -5.75 -12.6 -5.75 L-9.85 -6.0 -8.4 -6.25 -1.5 -7.1 8.35 -6.75 9.0 -6.65 9.0 -6.75 10.95 -6.45 14.8 -6.1 Q16.4 -6.3 17.8 -7.5 L19.0 -7.55" fill="#000000" fill-rule="evenodd" stroke="none"/>
  </g>
</svg>
