<?xml version="1.0" encoding="UTF-8" standalone="no"?>
<svg xmlns:xlink="http://www.w3.org/1999/xlink" height="100.55px" width="112.95px" xmlns="http://www.w3.org/2000/svg">
  <g transform="matrix(1.0, 0.0, 0.0, 1.0, 56.45, 50.25)">
    <path d="M-56.45 50.3 Q-56.45 43.05 -54.7 36.15 L-54.55 36.2 -54.55 36.15 Q-35.55 40.7 -13.45 42.05 22.85 44.3 54.75 36.45 56.5 43.2 56.5 50.3 L-56.45 50.3" fill="#000000" fill-rule="evenodd" stroke="none"/>
    <path d="M24.95 -7.5 Q22.4 -16.95 18.3 -23.8 15.3 -24.95 12.7 -24.8 8.85 -24.55 6.7 -21.4 6.4 -20.9 5.85 -20.8 5.3 -20.7 4.8 -21.05 4.35 -21.35 4.25 -21.9 4.1 -22.45 4.45 -22.9 6.55 -26.0 9.85 -27.0 L15.95 -27.25 Q9.15 -36.5 0.9 -36.5 -7.25 -36.5 -14.05 -27.35 -6.85 -28.3 -3.25 -22.9 -2.95 -22.45 -3.05 -21.9 -3.15 -21.35 -3.6 -21.05 L-4.65 -20.8 Q-5.2 -20.9 -5.5 -21.4 -7.45 -24.3 -10.9 -24.75 -13.35 -25.05 -16.25 -24.1 -20.45 -17.2 -23.05 -7.7 -25.7 2.1 -26.3 13.2 L28.15 13.2 Q27.55 2.2 24.95 -7.5 M-53.95 33.65 Q-50.95 23.8 -44.55 15.6 -38.25 7.5 -29.5 2.15 -27.55 -10.65 -23.05 -20.4 -23.65 -22.95 -23.65 -25.75 -23.65 -35.9 -16.5 -43.1 -9.3 -50.25 0.85 -50.25 11.0 -50.25 18.15 -43.1 25.35 -35.9 25.35 -25.75 25.35 -23.2 24.8 -20.6 29.6 -10.35 31.55 3.45 39.6 8.9 45.35 16.7 51.2 24.55 54.05 33.95 L53.9 34.0 52.4 34.35 Q21.55 41.65 -13.45 39.5 -35.4 38.15 -53.95 33.65" fill="#000000" fill-rule="evenodd" stroke="none"/>
    <path d="M-54.55 36.15 L-53.9 33.8 -54.75 33.5 Q-55.4 33.3 -53.95 33.65 -35.4 38.15 -13.45 39.5 22.4 41.7 53.9 34.0 L54.75 36.2 Q53.9 36.45 54.75 36.35 55.5 36.25 54.75 36.45 22.85 44.3 -13.45 42.05 -35.55 40.7 -54.55 36.15" fill="#ffffff" fill-rule="evenodd" stroke="none"/>
  </g>
</svg>
