<?xml version="1.0" encoding="UTF-8" standalone="no"?>
<svg xmlns:xlink="http://www.w3.org/1999/xlink" height="49.7px" width="54.45px" xmlns="http://www.w3.org/2000/svg">
  <g transform="matrix(1.0, 0.0, 0.0, 1.0, 0.0, 0.0)">
    <path d="M23.1 42.2 Q22.4 42.2 21.9 42.7 21.4 43.2 21.4 43.9 21.4 44.6 21.9 45.1 22.4 45.6 23.1 45.6 L31.15 45.6 Q31.85 45.6 32.35 45.1 32.85 44.6 32.85 43.9 32.85 43.2 32.35 42.7 31.85 42.2 31.15 42.2 L23.1 42.2 M17.35 18.1 Q17.35 17.1 16.65 16.35 15.9 15.65 14.9 15.65 13.9 15.65 13.15 16.35 12.45 17.1 12.45 18.1 12.45 19.1 13.15 19.85 13.9 20.55 14.9 20.55 15.9 20.55 16.65 19.85 17.35 19.1 17.35 18.1 M44.6 12.7 Q48.7 19.55 51.25 29.0 53.85 38.7 54.45 49.7 L0.0 49.7 Q0.6 38.6 3.25 28.8 5.85 19.3 10.05 12.4 12.95 11.45 15.4 11.75 18.85 12.2 20.8 15.1 21.1 15.6 21.65 15.7 L22.7 15.45 23.25 14.6 Q23.35 14.05 23.05 13.6 19.45 8.2 12.25 9.15 19.05 0.0 27.2 0.0 35.45 0.0 42.25 9.25 L36.15 9.5 Q32.85 10.5 30.75 13.6 30.4 14.05 30.55 14.6 30.65 15.15 31.1 15.45 L32.15 15.7 Q32.7 15.6 33.0 15.1 35.15 11.95 39.0 11.7 41.6 11.55 44.6 12.7 M41.1 19.85 Q41.8 19.1 41.8 18.1 41.8 17.1 41.1 16.35 40.35 15.65 39.3 15.65 38.3 15.65 37.55 16.35 36.85 17.1 36.85 18.1 36.85 19.1 37.55 19.85 38.3 20.55 39.3 20.55 40.35 20.55 41.1 19.85 M45.4 38.55 Q45.95 38.55 46.35 38.15 46.7 37.8 46.7 37.25 46.7 36.7 46.35 36.35 45.95 35.95 45.4 35.95 L9.25 35.95 Q8.7 35.95 8.3 36.35 7.95 36.7 7.95 37.25 7.95 37.8 8.3 38.15 8.7 38.55 9.25 38.55 L45.4 38.55" fill="#ffffff" fill-rule="evenodd" stroke="none"/>
  </g>
</svg>
