<?xml version="1.0" encoding="UTF-8" standalone="no"?>
<svg xmlns:xlink="http://www.w3.org/1999/xlink" height="29.95px" width="38.75px" xmlns="http://www.w3.org/2000/svg">
  <g transform="matrix(1.0, 0.0, 0.0, 1.0, 18.35, 20.85)">
    <path d="M-11.4 -15.95 Q-12.4 -15.95 -13.15 -16.65 -13.85 -17.4 -13.85 -18.4 -13.85 -19.4 -13.15 -20.15 -12.4 -20.85 -11.4 -20.85 -10.4 -20.85 -9.65 -20.15 -8.95 -19.4 -8.95 -18.4 -8.95 -17.4 -9.65 -16.65 -10.4 -15.95 -11.4 -15.95" fill="#000000" fill-rule="evenodd" stroke="none"/>
    <path d="M13.0 -15.95 Q12.0 -15.95 11.25 -16.65 10.55 -17.4 10.55 -18.4 10.55 -19.4 11.25 -20.15 12.0 -20.85 13.0 -20.85 14.05 -20.85 14.8 -20.15 15.5 -19.4 15.5 -18.4 15.5 -17.4 14.8 -16.65 14.05 -15.95 13.0 -15.95" fill="#000000" fill-rule="evenodd" stroke="none"/>
    <path d="M19.1 -0.55 Q19.65 -0.55 20.05 -0.15 20.4 0.2 20.4 0.75 20.4 1.3 20.05 1.65 19.65 2.05 19.1 2.05 L-17.05 2.05 Q-17.6 2.05 -18.0 1.65 -18.35 1.3 -18.35 0.75 -18.35 0.2 -18.0 -0.15 -17.6 -0.55 -17.05 -0.55 L19.1 -0.55" fill="#000000" fill-rule="evenodd" stroke="none"/>
    <path d="M-3.2 5.7 L4.85 5.7 Q5.55 5.7 6.05 6.2 6.55 6.7 6.55 7.4 6.55 8.1 6.05 8.6 5.55 9.1 4.85 9.1 L-3.2 9.1 Q-3.9 9.1 -4.4 8.6 -4.9 8.1 -4.9 7.4 -4.9 6.7 -4.4 6.2 -3.9 5.7 -3.2 5.7" fill="#000000" fill-rule="evenodd" stroke="none"/>
  </g>
</svg>
