<?xml version="1.0" encoding="UTF-8" standalone="no"?>
<svg xmlns:xlink="http://www.w3.org/1999/xlink" height="122.5px" width="45.7px" xmlns="http://www.w3.org/2000/svg">
  <g transform="matrix(1.0, 0.0, 0.0, 1.0, 22.85, 61.25)">
    <path d="M6.7 -2.95 Q7.2 -3.1 7.45 -3.55 7.7 -4.0 7.55 -4.45 L6.95 -5.2 6.0 -5.3 3.6 -4.9 Q1.3 -4.9 -0.9 -6.4 L-2.1 -7.5 -2.5 -7.9 Q-2.8 -8.3 -3.3 -8.4 L-4.2 -8.15 -4.7 -7.35 Q-4.75 -6.85 -4.45 -6.45 L-2.3 -4.45 Q0.4 -2.5 3.6 -2.45 L3.65 -2.45 Q5.2 -2.45 6.7 -2.95 M-1.3 -21.8 Q-1.3 -22.75 -2.0 -23.45 -2.65 -24.15 -3.6 -24.15 -4.55 -24.15 -5.25 -23.45 -5.95 -22.75 -5.95 -21.8 -5.95 -20.85 -5.25 -20.15 -4.6 -19.5 -3.6 -19.5 -2.65 -19.5 -2.0 -20.15 -1.3 -20.85 -1.3 -21.8 M11.75 -20.15 Q12.45 -20.85 12.45 -21.8 12.45 -22.75 11.75 -23.45 11.1 -24.15 10.1 -24.15 9.15 -24.15 8.45 -23.45 7.8 -22.8 7.8 -21.8 7.8 -20.8 8.45 -20.15 9.15 -19.5 10.1 -19.5 11.1 -19.5 11.75 -20.15 M13.85 -25.2 Q14.35 -25.2 14.7 -25.55 15.05 -25.95 15.05 -26.45 L14.7 -27.3 13.85 -27.65 -7.15 -27.65 -8.05 -27.3 Q-8.4 -26.95 -8.4 -26.45 L-8.05 -25.55 Q-7.65 -25.2 -7.15 -25.2 L13.85 -25.2 M-11.55 -39.1 Q-10.75 -41.95 -8.45 -41.7 L14.0 -40.4 15.5 -40.05 Q17.1 -39.4 17.7 -37.85 L17.75 -35.8 Q17.75 -26.8 16.45 -18.5 15.2 -10.6 12.95 -4.55 10.75 1.35 8.0 4.5 6.35 6.35 4.65 7.0 L4.65 1.4 1.7 1.4 1.7 7.1 Q-0.1 6.45 -1.85 4.5 -6.05 -0.2 -8.75 -11.0 -11.65 -22.4 -11.6 -35.8 L-11.55 -39.1" fill="#ffffff" fill-rule="evenodd" stroke="none"/>
    <path d="M-15.5 -45.15 L-15.35 -47.1 -15.25 -47.1 Q-13.65 -48.2 -10.75 -49.45 -5.65 -51.65 -0.2 -52.2 0.85 -60.2 4.85 -61.2 7.6 -61.9 8.3 -52.0 15.25 -50.9 21.35 -47.1 L21.45 -47.1 21.45 -47.05 21.6 -45.15 Q21.95 -40.9 21.95 -35.8 21.9 -24.6 20.1 -14.9 18.3 -5.3 15.05 1.3 18.7 12.25 20.75 27.15 22.85 42.65 22.85 59.8 L22.85 61.25 -22.8 61.25 -22.85 59.8 Q-22.85 39.15 -19.85 21.3 -16.9 4.0 -11.9 -6.45 -15.75 -19.0 -15.85 -35.8 L-15.5 -45.15 M-8.45 -41.7 Q-10.75 -41.95 -11.55 -39.1 L-11.6 -35.8 Q-11.65 -22.4 -8.75 -11.0 -6.05 -0.2 -1.85 4.5 -0.1 6.45 1.7 7.1 L1.7 1.4 4.65 1.4 4.65 7.0 Q6.35 6.35 8.0 4.5 10.75 1.35 12.95 -4.55 15.2 -10.6 16.45 -18.5 17.75 -26.8 17.75 -35.8 L17.7 -37.85 Q17.1 -39.4 15.5 -40.05 L14.0 -40.4 -8.45 -41.7" fill="#000000" fill-rule="evenodd" stroke="none"/>
    <path d="M-1.3 -21.8 Q-1.3 -20.85 -2.0 -20.15 -2.65 -19.5 -3.6 -19.5 -4.6 -19.5 -5.25 -20.15 -5.95 -20.85 -5.95 -21.8 -5.95 -22.75 -5.25 -23.45 -4.55 -24.15 -3.6 -24.15 -2.65 -24.15 -2.0 -23.45 -1.3 -22.75 -1.3 -21.8" fill="#000000" fill-rule="evenodd" stroke="none"/>
    <path d="M12.45 -21.8 Q12.45 -20.85 11.75 -20.15 11.1 -19.5 10.1 -19.5 9.15 -19.5 8.45 -20.15 7.8 -20.8 7.8 -21.8 7.8 -22.8 8.45 -23.45 9.15 -24.15 10.1 -24.15 11.1 -24.15 11.75 -23.45 12.45 -22.75 12.45 -21.8" fill="#000000" fill-rule="evenodd" stroke="none"/>
    <path d="M6.0 -5.3 L6.95 -5.2 7.55 -4.45 Q7.7 -4.0 7.45 -3.55 7.2 -3.1 6.7 -2.95 5.2 -2.45 3.65 -2.45 L3.6 -2.45 Q0.4 -2.5 -2.3 -4.45 L-4.45 -6.45 Q-4.75 -6.85 -4.7 -7.35 L-4.2 -8.15 -3.3 -8.4 Q-2.8 -8.3 -2.5 -7.9 L-2.1 -7.5 -0.9 -6.4 Q1.3 -4.9 3.6 -4.9 L6.0 -5.3" fill="#000000" fill-rule="evenodd" stroke="none"/>
    <path d="M13.85 -27.65 L14.7 -27.3 15.05 -26.45 Q15.05 -25.95 14.7 -25.55 14.35 -25.2 13.85 -25.2 L-7.15 -25.2 Q-7.65 -25.2 -8.05 -25.55 L-8.4 -26.45 Q-8.4 -26.95 -8.05 -27.3 L-7.15 -27.65 13.85 -27.65" fill="#000000" fill-rule="evenodd" stroke="none"/>
  </g>
</svg>
