<?xml version="1.0" encoding="UTF-8" standalone="no"?>
<svg xmlns:xlink="http://www.w3.org/1999/xlink" height="138.35px" width="67.8px" xmlns="http://www.w3.org/2000/svg">
  <g transform="matrix(1.0, 0.0, 0.0, 1.0, 33.9, 69.15)">
    <path d="M-17.9 -20.4 L-18.0 -20.55 -23.4 -20.55 -11.9 5.3 Q-11.65 5.85 -11.75 6.4 L-21.9 65.35 -8.2 65.35 -6.8 9.05 -9.2 -13.45 Q-14.3 -15.25 -17.9 -20.4 M8.85 -20.55 L8.75 -20.4 Q4.8 -14.75 -0.8 -13.15 0.0 -12.5 0.0 -11.5 0.0 -10.6 -0.65 -9.95 -1.3 -9.3 -2.2 -9.3 -3.15 -9.3 -3.75 -9.95 -4.4 -10.6 -4.4 -11.5 L-4.1 -12.65 -4.6 -12.65 -8.05 -13.1 -5.7 9.0 -7.1 65.35 17.9 65.35 9.95 4.15 Q9.85 3.7 10.0 3.3 L17.5 -20.55 8.85 -20.55 M1.3 -34.7 Q0.95 -35.55 1.7 -36.55 -4.6 -36.4 -10.6 -39.5 -14.65 -41.6 -18.1 -44.9 -18.85 -41.3 -18.8 -38.25 -18.85 -29.25 -14.4 -22.85 -10.15 -16.9 -4.6 -16.9 1.0 -16.9 5.25 -22.85 9.6 -29.05 9.65 -38.0 L6.65 -37.15 6.8 -36.85 Q7.1 -36.05 6.5 -35.2 5.95 -34.3 4.8 -33.85 L2.6 -33.65 Q1.6 -33.9 1.3 -34.7 M0.0 -69.15 Q14.05 -69.15 24.0 -54.0 33.9 -38.85 33.9 -17.4 33.9 -3.2 29.2 8.95 24.65 20.7 16.9 27.5 L22.05 67.0 Q22.2 67.8 21.6 68.55 20.95 69.2 20.15 69.2 L-24.2 69.2 Q-25.1 69.2 -25.7 68.5 -26.25 67.8 -26.1 66.95 L-19.0 25.5 Q-25.85 18.4 -29.8 7.25 -33.9 -4.25 -33.9 -17.4 -33.9 -38.85 -23.95 -54.0 -14.05 -69.15 0.0 -69.15 M-12.35 -59.85 Q-16.05 -57.95 -18.95 -54.4 L-21.1 -51.25 -20.3 -48.4 Q-12.9 -54.6 1.25 -52.6 8.35 -51.6 13.95 -49.35 L14.35 -53.15 Q-0.65 -65.95 -12.35 -59.85" fill="#000000" fill-rule="evenodd" stroke="none"/>
    <path d="M-11.75 6.4 Q-11.65 5.85 -11.9 5.3 L-23.4 -20.55 -18.0 -20.55 -17.9 -20.4 Q-14.3 -15.25 -9.2 -13.45 L-6.8 9.05 -8.2 65.35 -21.9 65.35 -11.75 6.4" fill="#ffffff" fill-rule="evenodd" stroke="none"/>
    <path d="M0.05 20.45 Q0.7 19.8 0.7 18.9 0.7 18.0 0.05 17.35 -0.55 16.7 -1.5 16.7 -2.4 16.7 -3.05 17.35 -3.7 18.0 -3.7 18.9 -3.7 19.8 -3.05 20.45 -2.4 21.1 -1.5 21.1 -0.55 21.1 0.05 20.45 M0.05 4.7 Q0.7 4.05 0.7 3.15 0.7 2.25 0.05 1.6 -0.55 0.95 -1.5 0.95 -2.4 0.95 -3.05 1.6 -3.7 2.25 -3.7 3.15 -3.7 4.05 -3.05 4.7 -2.4 5.35 -1.5 5.35 -0.55 5.35 0.05 4.7 M8.75 -20.4 L8.85 -20.55 17.5 -20.55 10.0 3.3 Q9.85 3.7 9.95 4.15 L17.9 65.35 -7.1 65.35 -5.7 9.0 -8.05 -13.1 -4.6 -12.65 -4.1 -12.65 -4.4 -11.5 Q-4.4 -10.6 -3.75 -9.95 -3.15 -9.3 -2.2 -9.3 -1.3 -9.3 -0.65 -9.95 0.0 -10.6 0.0 -11.5 0.0 -12.5 -0.8 -13.15 4.8 -14.75 8.75 -20.4" fill="#ffffff" fill-rule="evenodd" stroke="none"/>
    <path d="M0.05 1.6 Q0.7 2.25 0.7 3.15 0.7 4.05 0.05 4.7 -0.55 5.35 -1.5 5.35 -2.4 5.35 -3.05 4.7 -3.7 4.05 -3.7 3.15 -3.7 2.25 -3.05 1.6 -2.4 0.95 -1.5 0.95 -0.55 0.95 0.05 1.6" fill="#000000" fill-rule="evenodd" stroke="none"/>
    <path d="M0.05 17.35 Q0.7 18.0 0.7 18.9 0.7 19.8 0.05 20.45 -0.55 21.1 -1.5 21.1 -2.4 21.1 -3.05 20.45 -3.7 19.8 -3.7 18.9 -3.7 18.0 -3.05 17.35 -2.4 16.7 -1.5 16.7 -0.55 16.7 0.05 17.35" fill="#000000" fill-rule="evenodd" stroke="none"/>
    <path d="M-9.9 -34.7 Q-9.55 -35.5 -10.15 -36.4 -10.75 -37.25 -11.9 -37.7 L-14.05 -37.9 Q-15.1 -37.65 -15.4 -36.85 -15.7 -36.05 -15.1 -35.2 -14.5 -34.3 -13.4 -33.85 L-11.2 -33.65 Q-10.2 -33.9 -9.9 -34.7 M3.5 -23.75 L3.7 -24.6 3.2 -25.35 2.35 -25.55 1.65 -25.05 Q0.2 -23.1 -1.75 -23.0 L-3.25 -23.3 -3.8 -23.55 -4.65 -23.7 -5.4 -23.2 -5.5 -22.35 -5.05 -21.65 -4.05 -21.2 Q-2.95 -20.75 -1.75 -20.75 L-1.7 -20.75 Q1.45 -20.75 3.5 -23.75 M1.7 -36.55 Q0.95 -35.55 1.3 -34.7 1.6 -33.9 2.6 -33.65 L4.8 -33.85 Q5.95 -34.3 6.5 -35.2 7.1 -36.05 6.8 -36.85 L6.65 -37.15 9.65 -38.0 Q9.6 -29.05 5.25 -22.85 1.0 -16.9 -4.6 -16.9 -10.15 -16.9 -14.4 -22.85 -18.85 -29.25 -18.8 -38.25 -18.85 -41.3 -18.1 -44.9 -14.65 -41.6 -10.6 -39.5 -4.6 -36.4 1.7 -36.55" fill="#ffffff" fill-rule="evenodd" stroke="none"/>
    <path d="M-13.4 -33.85 Q-14.5 -34.3 -15.1 -35.2 -15.7 -36.05 -15.4 -36.85 -15.1 -37.65 -14.05 -37.9 L-11.9 -37.7 Q-10.75 -37.25 -10.15 -36.4 -9.55 -35.5 -9.9 -34.7 -10.2 -33.9 -11.2 -33.65 L-13.4 -33.85" fill="#000000" fill-rule="evenodd" stroke="none"/>
    <path d="M1.65 -25.05 L2.35 -25.55 3.2 -25.35 3.7 -24.6 3.5 -23.75 Q1.45 -20.75 -1.7 -20.75 L-1.75 -20.75 Q-2.95 -20.75 -4.05 -21.2 L-5.05 -21.65 -5.5 -22.35 -5.4 -23.2 -4.65 -23.7 -3.8 -23.55 -3.25 -23.3 -1.75 -23.0 Q0.2 -23.1 1.65 -25.05" fill="#000000" fill-rule="evenodd" stroke="none"/>
    <path d="M-18.95 -54.4 Q-16.05 -57.95 -12.35 -59.85 -0.65 -65.95 14.35 -53.15 L13.95 -49.35 Q8.35 -51.6 1.25 -52.6 -12.9 -54.6 -20.3 -48.4 L-21.1 -51.25 -18.95 -54.4 M-6.75 -56.45 L-6.75 -54.5 -4.35 -54.5 -4.35 -56.45 -1.9 -56.45 -1.9 -58.6 -4.35 -58.6 -4.35 -60.55 -6.75 -60.55 -6.75 -58.6 -9.1 -58.6 -9.1 -56.45 -6.75 -56.45" fill="#ffffff" fill-rule="evenodd" stroke="none"/>
    <path d="M-9.1 -58.6 L-6.75 -58.6 -6.75 -60.55 -4.35 -60.55 -4.35 -58.6 -1.9 -58.6 -1.9 -56.45 -4.35 -56.45 -4.35 -54.5 -6.75 -54.5 -6.75 -56.45 -9.1 -56.45 -9.1 -58.6" fill="#000000" fill-rule="evenodd" stroke="none"/>
  </g>
</svg>
