<?xml version="1.0" encoding="UTF-8" standalone="no"?>
<svg xmlns:xlink="http://www.w3.org/1999/xlink" height="137.7px" width="99.05px" xmlns="http://www.w3.org/2000/svg">
  <g transform="matrix(1.0, 0.0, 0.0, 1.0, 49.5, 68.85)">
    <path d="M44.25 -31.25 L43.75 -26.45 23.4 -26.45 23.1 -31.25 44.25 -31.25" fill="#ffffff" fill-rule="evenodd" stroke="none"/>
    <path d="M-24.0 -31.25 L-24.2 -26.45 -43.8 -26.45 -44.3 -31.25 -24.0 -31.25" fill="#ffffff" fill-rule="evenodd" stroke="none"/>
    <path d="M-1.3 -3.15 L0.85 -3.15 0.85 68.5 -1.3 68.5 -1.3 -3.15" fill="#ffffff" fill-rule="evenodd" stroke="none"/>
    <path d="M13.45 -3.15 L18.9 -3.15 18.9 3.15 16.15 0.35 13.45 3.05 13.45 -3.15" fill="#ffffff" fill-rule="evenodd" stroke="none"/>
    <path d="M24.5 -8.3 L24.3 -11.65 31.55 -11.65 31.55 3.7 31.45 3.7 27.55 -0.15 23.7 3.7 23.6 3.7 23.6 -3.15 24.8 -3.15 24.75 -4.15 Q25.8 -2.75 27.55 -2.75 29.1 -2.75 30.15 -3.8 31.2 -4.9 31.2 -6.4 31.2 -7.95 30.15 -9.0 29.1 -10.05 27.55 -10.05 25.5 -10.05 24.5 -8.3" fill="#ffffff" fill-rule="evenodd" stroke="none"/>
    <path d="M-19.1 -46.6 L-18.75 -54.35 17.45 -54.35 17.95 -46.6 -19.1 -46.6" fill="#ffffff" fill-rule="evenodd" stroke="none"/>
    <path d="M-19.25 -43.4 L-15.65 -43.4 -15.75 -42.9 Q-15.75 -41.65 -14.25 -40.8 -12.75 -39.9 -10.65 -39.9 -8.5 -39.9 -7.05 -40.8 -5.55 -41.65 -5.55 -42.9 L-5.6 -43.4 5.15 -43.4 5.05 -42.9 Q5.05 -41.65 6.55 -40.8 8.05 -39.9 10.2 -39.9 12.3 -39.9 13.8 -40.8 15.3 -41.65 15.3 -42.9 L15.2 -43.4 18.1 -43.4 19.1 -26.75 Q9.7 -33.65 -0.85 -33.55 -10.8 -33.55 -19.9 -28.15 L-19.25 -43.4" fill="#ffffff" fill-rule="evenodd" stroke="none"/>
    <path d="M-18.35 -64.6 L-14.9 -64.6 -14.9 -57.55 -18.65 -57.55 -18.35 -64.6" fill="#ffffff" fill-rule="evenodd" stroke="none"/>
    <path d="M16.85 -64.6 L17.25 -57.55 13.0 -57.55 13.0 -64.6 16.85 -64.6" fill="#ffffff" fill-rule="evenodd" stroke="none"/>
    <path d="M5.25 -64.6 L5.25 -57.55 1.35 -57.55 1.35 -64.6 5.25 -64.6" fill="#ffffff" fill-rule="evenodd" stroke="none"/>
    <path d="M-0.75 -64.6 L-0.75 -57.55 -5.35 -57.55 -5.35 -64.6 -0.75 -64.6" fill="#ffffff" fill-rule="evenodd" stroke="none"/>
    <path d="M-12.75 -57.55 L-12.75 -64.6 -7.45 -64.6 -7.45 -57.55 -12.75 -57.55" fill="#ffffff" fill-rule="evenodd" stroke="none"/>
    <path d="M10.9 -64.6 L10.9 -57.55 7.35 -57.55 7.35 -64.6 10.9 -64.6" fill="#ffffff" fill-rule="evenodd" stroke="none"/>
    <path d="M-0.85 -30.4 Q10.0 -30.4 19.4 -22.5 L20.3 -7.4 -20.8 -7.4 -20.05 -24.3 Q-16.9 -26.45 -13.0 -27.95 -6.85 -30.4 -0.85 -30.4 M-0.25 -25.9 Q-3.0 -25.85 -5.7 -24.85 L-7.95 -23.75 Q-8.5 -23.4 -8.65 -22.75 -8.8 -22.1 -8.45 -21.55 -7.95 -20.8 -7.1 -20.8 -6.75 -20.8 -6.25 -21.05 L-5.85 -21.3 Q-3.2 -22.7 -0.25 -22.7 2.65 -22.7 5.05 -21.1 5.6 -20.7 6.25 -20.85 6.9 -21.0 7.25 -21.55 7.6 -22.05 7.5 -22.7 L6.85 -23.75 Q3.65 -25.9 -0.25 -25.9" fill="#ffffff" fill-rule="evenodd" stroke="none"/>
    <path d="M-11.4 46.85 Q-11.8 46.85 -12.1 47.15 L-12.4 47.85 -12.1 48.55 -11.4 48.85 -6.15 48.85 Q-5.75 48.85 -5.45 48.55 -5.15 48.25 -5.15 47.85 -5.15 47.45 -5.45 47.15 -5.75 46.85 -6.15 46.85 L-11.4 46.85 M-12.4 28.1 L-12.1 28.8 -11.4 29.1 -6.15 29.1 Q-5.75 29.1 -5.45 28.8 -5.15 28.5 -5.15 28.1 -5.15 27.7 -5.45 27.4 -5.75 27.1 -6.15 27.1 L-11.4 27.1 Q-11.8 27.1 -12.1 27.4 L-12.4 28.1 M-12.4 8.6 L-12.1 9.3 -11.4 9.6 -6.15 9.6 Q-5.75 9.6 -5.45 9.3 -5.15 9.0 -5.15 8.6 -5.15 8.2 -5.45 7.9 -5.75 7.6 -6.15 7.6 L-11.4 7.6 Q-11.8 7.6 -12.1 7.9 L-12.4 8.6 M-43.8 -26.45 L-24.2 -26.45 -24.0 -31.25 -44.3 -31.25 -43.8 -26.45 M20.3 -7.4 L19.4 -22.5 Q10.0 -30.4 -0.85 -30.4 -6.85 -30.4 -13.0 -27.95 -16.9 -26.45 -20.05 -24.3 L-20.8 -7.4 20.3 -7.4 M13.45 -3.15 L13.45 3.05 16.15 0.35 18.9 3.15 18.9 -3.15 13.45 -3.15 M31.55 -11.65 L24.3 -11.65 24.5 -8.3 Q25.5 -10.05 27.55 -10.05 29.1 -10.05 30.15 -9.0 31.2 -7.95 31.2 -6.4 31.2 -4.9 30.15 -3.8 29.1 -2.75 27.55 -2.75 25.8 -2.75 24.75 -4.15 L24.8 -3.15 23.6 -3.15 23.6 3.7 23.7 3.7 27.55 -0.15 31.45 3.7 31.55 3.7 31.55 -11.65 M0.85 -3.15 L-1.3 -3.15 -1.3 68.5 0.85 68.5 0.85 -3.15 M43.75 -26.45 L44.25 -31.25 23.1 -31.25 23.4 -26.45 43.75 -26.45 M-22.4 -68.85 L20.85 -68.85 22.7 -38.1 49.55 -38.1 35.8 68.85 -36.25 68.85 -49.5 -38.1 -23.7 -38.1 -22.4 -68.85 M16.85 -64.6 L13.0 -64.6 13.0 -57.55 17.25 -57.55 16.85 -64.6 M-5.35 -64.6 L-5.35 -57.55 -0.75 -57.55 -0.75 -64.6 -5.35 -64.6 M10.9 -57.55 L10.9 -64.6 7.35 -64.6 7.35 -57.55 10.9 -57.55 M5.25 -57.55 L5.25 -64.6 1.35 -64.6 1.35 -57.55 5.25 -57.55 M-15.75 -42.9 L-15.65 -43.4 -19.25 -43.4 -19.9 -28.15 Q-10.8 -33.55 -0.85 -33.55 9.7 -33.65 19.1 -26.75 L18.1 -43.4 15.2 -43.4 15.3 -42.9 Q15.3 -41.65 13.8 -40.8 12.3 -39.9 10.2 -39.9 8.05 -39.9 6.55 -40.8 5.05 -41.65 5.05 -42.9 L5.15 -43.4 -5.6 -43.4 -5.55 -42.9 Q-5.55 -41.65 -7.05 -40.8 -8.5 -39.9 -10.65 -39.9 -12.75 -39.9 -14.25 -40.8 -15.75 -41.65 -15.75 -42.9 M-18.65 -57.55 L-14.9 -57.55 -14.9 -64.6 -18.35 -64.6 -18.65 -57.55 M-12.75 -64.6 L-12.75 -57.55 -7.45 -57.55 -7.45 -64.6 -12.75 -64.6 M-18.75 -54.35 L-19.1 -46.6 17.95 -46.6 17.45 -54.35 -18.75 -54.35" fill="#000000" fill-rule="evenodd" stroke="none"/>
    <path d="M-0.25 -22.7 Q-3.2 -22.7 -5.85 -21.3 L-6.25 -21.05 Q-6.75 -20.8 -7.1 -20.8 -7.95 -20.8 -8.45 -21.55 -8.8 -22.1 -8.65 -22.75 -8.5 -23.4 -7.95 -23.75 L-5.7 -24.85 Q-3.0 -25.85 -0.25 -25.9 3.65 -25.9 6.85 -23.75 L7.5 -22.7 Q7.6 -22.05 7.25 -21.55 6.9 -21.0 6.25 -20.85 5.6 -20.7 5.05 -21.1 2.65 -22.7 -0.25 -22.7" fill="#000000" fill-rule="evenodd" stroke="none"/>
    <path d="M-11.4 9.6 L-12.1 9.3 -12.4 8.6 -12.1 7.9 Q-11.8 7.6 -11.4 7.6 L-6.15 7.6 Q-5.75 7.6 -5.45 7.9 -5.15 8.2 -5.15 8.6 -5.15 9.0 -5.45 9.3 -5.75 9.6 -6.15 9.6 L-11.4 9.6" fill="#ffffff" fill-rule="evenodd" stroke="none"/>
    <path d="M-11.4 29.1 L-12.1 28.8 -12.4 28.1 -12.1 27.4 Q-11.8 27.1 -11.4 27.1 L-6.15 27.1 Q-5.75 27.1 -5.45 27.4 -5.15 27.7 -5.15 28.1 -5.15 28.5 -5.45 28.8 -5.75 29.1 -6.15 29.1 L-11.4 29.1" fill="#ffffff" fill-rule="evenodd" stroke="none"/>
    <path d="M-11.4 48.85 L-12.1 48.55 -12.4 47.85 -12.1 47.15 Q-11.8 46.85 -11.4 46.85 L-6.15 46.85 Q-5.75 46.85 -5.45 47.15 -5.15 47.45 -5.15 47.85 -5.15 48.25 -5.45 48.55 -5.75 48.85 -6.15 48.85 L-11.4 48.85" fill="#ffffff" fill-rule="evenodd" stroke="none"/>
  </g>
</svg>
