<?xml version="1.0" encoding="UTF-8" standalone="no"?>
<svg xmlns:xlink="http://www.w3.org/1999/xlink" height="121.4px" width="63.35px" xmlns="http://www.w3.org/2000/svg">
  <g transform="matrix(1.0, 0.0, 0.0, 1.0, 31.65, 60.7)">
    <path d="M-16.05 11.1 Q-14.85 7.0 -13.1 3.1 -10.95 -1.5 -8.3 -4.85 L-9.5 14.25 Q-13.25 12.95 -16.05 11.1" fill="#ffffff" fill-rule="evenodd" stroke="none"/>
    <path d="M6.6 -6.0 L9.8 -6.5 9.8 -6.45 5.5 1.8 Q5.3 2.2 5.4 2.55 L5.9 3.15 6.35 3.25 Q7.0 3.25 7.25 2.7 L10.1 -2.7 11.5 15.0 Q2.7 17.7 -6.9 15.1 L-5.65 -4.0 -2.8 2.65 Q-2.55 3.25 -1.9 3.25 L-1.5 3.15 -0.95 2.6 Q-0.8 2.25 -0.95 1.85 L-5.1 -7.75 Q-3.75 -7.15 -1.75 -6.65 L2.2 2.25 6.6 -6.0" fill="#ffffff" fill-rule="evenodd" stroke="none"/>
    <path d="M12.65 -4.45 Q17.1 1.3 20.05 10.95 17.0 12.95 14.1 14.05 L12.65 -4.45" fill="#ffffff" fill-rule="evenodd" stroke="none"/>
    <path d="M15.95 21.95 Q15.9 20.65 15.2 19.75 14.5 18.8 13.55 18.85 12.55 18.9 11.9 19.8 11.25 20.75 11.3 22.05 11.35 23.35 12.05 24.3 12.75 25.2 13.7 25.15 14.65 25.15 15.35 24.2 16.0 23.25 15.95 21.95 M-8.6 18.9 Q-9.55 18.85 -10.3 19.7 -11.05 20.6 -11.15 21.9 -11.25 23.2 -10.65 24.15 -10.05 25.15 -9.05 25.2 -8.1 25.3 -7.35 24.4 -6.6 23.5 -6.5 22.2 -6.4 20.9 -7.05 19.95 -7.65 19.0 -8.6 18.9 M-8.3 -4.85 Q-10.95 -1.5 -13.1 3.1 -14.85 7.0 -16.05 11.1 -13.25 12.95 -9.5 14.25 L-8.3 -4.85 M14.1 14.05 Q17.0 12.95 20.05 10.95 17.1 1.3 12.65 -4.45 L14.1 14.05 M10.1 -2.7 L7.25 2.7 Q7.0 3.25 6.35 3.25 L5.9 3.15 5.4 2.55 Q5.3 2.2 5.5 1.8 L9.8 -6.45 9.8 -6.5 6.6 -6.0 2.2 2.25 -1.75 -6.65 Q-3.75 -7.15 -5.1 -7.75 L-0.95 1.85 Q-0.8 2.25 -0.95 2.6 L-1.5 3.15 -1.9 3.25 Q-2.55 3.25 -2.8 2.65 L-5.65 -4.0 -6.9 15.1 Q2.7 17.7 11.5 15.0 L10.1 -2.7 M22.05 -38.9 Q20.05 -42.9 16.6 -45.65 13.45 -40.75 7.5 -37.65 -1.45 -32.9 -15.25 -33.15 L-15.55 -30.2 Q-15.5 -22.0 -9.7 -16.2 -3.9 -10.4 4.25 -10.4 12.45 -10.4 18.25 -16.2 24.05 -22.0 24.05 -30.2 24.05 -34.8 22.05 -38.9 M-27.85 -8.25 Q-31.65 -16.15 -31.65 -25.15 -31.65 -39.9 -22.35 -50.3 -13.1 -60.7 0.05 -60.7 13.15 -60.7 22.45 -50.3 31.7 -39.9 31.7 -25.15 31.7 -17.25 28.75 -10.1 25.9 -3.25 20.75 1.75 24.1 9.1 25.95 18.55 27.8 28.25 27.8 38.9 27.8 49.55 25.95 59.1 L25.65 60.7 -21.65 60.7 -21.95 59.1 Q-23.8 49.55 -23.8 38.9 -23.7 18.85 -17.8 4.25 -24.2 -0.65 -27.85 -8.25 M-27.1 -27.5 L-27.1 -27.35 -27.15 -27.25 Q-27.15 -26.85 -26.75 -26.75 -26.25 -26.65 -26.15 -27.1 L-25.0 -30.9 Q-23.35 -35.4 -20.75 -39.4 -12.4 -52.1 2.5 -55.25 2.95 -55.35 2.85 -55.8 2.85 -56.25 2.35 -56.25 -3.75 -56.5 -10.4 -53.05 -23.7 -46.1 -27.1 -27.5" fill="#000000" fill-rule="evenodd" stroke="none"/>
    <path d="M-3.05 -15.8 Q-3.8 -15.05 -3.8 -14.0 -3.8 -12.95 -3.05 -12.2 -2.3 -11.45 -1.25 -11.45 -0.2 -11.45 0.55 -12.2 1.3 -12.95 1.3 -14.0 1.3 -15.05 0.55 -15.8 -0.2 -16.55 -1.25 -16.55 -2.3 -16.55 -3.05 -15.8 M-3.35 -29.2 Q-3.35 -30.35 -4.15 -31.2 -5.0 -32.0 -6.15 -32.0 -7.3 -32.0 -8.15 -31.2 -8.95 -30.35 -8.95 -29.2 -8.95 -28.05 -8.15 -27.2 -7.3 -26.4 -6.15 -26.4 -5.0 -26.4 -4.15 -27.2 -3.35 -28.05 -3.35 -29.2 M17.75 -32.1 Q16.9 -32.9 15.75 -32.9 14.6 -32.9 13.75 -32.1 12.95 -31.25 12.95 -30.1 12.95 -28.95 13.75 -28.1 14.6 -27.3 15.75 -27.3 16.9 -27.3 17.75 -28.1 18.55 -28.95 18.55 -30.1 18.55 -31.25 17.75 -32.1 M16.6 -45.65 Q20.05 -42.9 22.05 -38.9 24.05 -34.8 24.05 -30.2 24.05 -22.0 18.25 -16.2 12.45 -10.4 4.25 -10.4 -3.9 -10.4 -9.7 -16.2 -15.5 -22.0 -15.55 -30.2 L-15.25 -33.15 Q-1.45 -32.9 7.5 -37.65 13.45 -40.75 16.6 -45.65" fill="#ffffff" fill-rule="evenodd" stroke="none"/>
    <path d="M-3.35 -29.2 Q-3.35 -28.05 -4.15 -27.2 -5.0 -26.4 -6.15 -26.4 -7.3 -26.4 -8.15 -27.2 -8.95 -28.05 -8.95 -29.2 -8.95 -30.35 -8.15 -31.2 -7.3 -32.0 -6.15 -32.0 -5.0 -32.0 -4.15 -31.2 -3.35 -30.35 -3.35 -29.2" fill="#000000" fill-rule="evenodd" stroke="none"/>
    <path d="M12.95 -30.1 Q12.95 -31.25 13.75 -32.1 14.6 -32.9 15.75 -32.9 16.9 -32.9 17.75 -32.1 18.55 -31.25 18.55 -30.1 18.55 -28.95 17.75 -28.1 16.9 -27.3 15.75 -27.3 14.6 -27.3 13.75 -28.1 12.95 -28.95 12.95 -30.1" fill="#000000" fill-rule="evenodd" stroke="none"/>
    <path d="M1.3 -14.0 Q1.3 -12.95 0.55 -12.2 -0.2 -11.45 -1.25 -11.45 -2.3 -11.45 -3.05 -12.2 -3.8 -12.95 -3.8 -14.0 -3.8 -15.05 -3.05 -15.8 -2.3 -16.55 -1.25 -16.55 -0.2 -16.55 0.55 -15.8 1.3 -15.05 1.3 -14.0" fill="#000000" fill-rule="evenodd" stroke="none"/>
    <path d="M-27.1 -27.35 L-27.1 -27.5 Q-23.7 -46.1 -10.4 -53.05 -3.75 -56.5 2.35 -56.25 2.85 -56.25 2.85 -55.8 2.95 -55.35 2.5 -55.25 -12.4 -52.1 -20.75 -39.4 -23.35 -35.4 -25.0 -30.9 L-26.15 -27.1 Q-26.25 -26.65 -26.75 -26.75 -27.15 -26.85 -27.15 -27.25 L-27.1 -27.35" fill="#ffffff" fill-rule="evenodd" stroke="none"/>
    <path d="M-11.15 21.9 Q-11.05 20.6 -10.3 19.7 -9.55 18.85 -8.6 18.9 -7.65 19.0 -7.05 19.95 -6.4 20.9 -6.5 22.2 -6.6 23.5 -7.35 24.4 -8.1 25.3 -9.05 25.2 -10.05 25.15 -10.65 24.15 -11.25 23.2 -11.15 21.9" fill="#ffffff" fill-rule="evenodd" stroke="none"/>
    <path d="M11.3 22.05 Q11.25 20.75 11.9 19.8 12.55 18.9 13.55 18.85 14.5 18.8 15.2 19.75 15.9 20.65 15.95 21.95 16.0 23.25 15.35 24.2 14.65 25.15 13.7 25.15 12.75 25.2 12.05 24.3 11.35 23.35 11.3 22.05" fill="#ffffff" fill-rule="evenodd" stroke="none"/>
  </g>
</svg>
