<?xml version="1.0" encoding="UTF-8" standalone="no"?>
<svg xmlns:xlink="http://www.w3.org/1999/xlink" height="149.1px" width="103.9px" xmlns="http://www.w3.org/2000/svg">
  <g transform="matrix(1.0, 0.0, 0.0, 1.0, 51.95, 74.55)">
    <path d="M39.4 -12.35 Q39.4 -12.9 39.0 -13.3 38.6 -13.7 38.05 -13.7 37.45 -13.7 37.05 -13.3 36.65 -12.9 36.65 -12.35 L36.65 13.15 Q15.95 5.05 -8.3 7.25 -23.35 8.6 -36.65 13.4 L-36.65 -12.35 Q-36.65 -12.9 -37.05 -13.3 -37.5 -13.7 -38.05 -13.7 -38.6 -13.7 -39.0 -13.3 -39.4 -12.9 -39.4 -12.35 L-39.4 9.55 -45.85 -17.75 -17.55 -22.7 -15.85 -22.7 -16.4 -13.15 16.95 -13.15 16.4 -22.7 16.8 -22.7 45.85 -17.75 39.4 9.55 39.4 -12.35" fill="#ffffff" fill-rule="evenodd" stroke="none"/>
    <path d="M-11.1 -18.15 L11.65 -18.15 11.55 -20.1 -11.0 -20.1 -11.1 -18.15 M11.4 -22.25 L10.75 -33.8 8.55 -33.25 8.6 -32.9 Q8.6 -31.5 7.8 -30.55 7.05 -29.55 5.95 -29.55 4.95 -29.55 4.2 -30.45 3.45 -31.3 3.35 -32.6 L-3.0 -32.8 Q-3.05 -31.45 -3.8 -30.5 -4.55 -29.55 -5.6 -29.55 -6.7 -29.55 -7.45 -30.55 -8.25 -31.5 -8.25 -32.9 L-8.15 -33.75 -10.15 -34.3 -10.85 -22.25 11.4 -22.25 M51.95 -21.8 L29.15 74.55 -29.15 74.55 -51.95 -21.8 -18.3 -27.65 Q-23.3 -31.35 -26.1 -36.6 -29.0 -42.0 -29.0 -48.05 -29.0 -59.05 -20.35 -66.8 -11.75 -74.55 0.45 -74.55 12.65 -74.55 21.3 -66.8 29.9 -59.05 29.9 -48.05 29.9 -41.9 26.9 -36.4 24.05 -31.1 18.9 -27.4 L51.95 -21.8 M36.65 -12.35 Q36.65 -12.9 37.05 -13.3 37.45 -13.7 38.05 -13.7 38.6 -13.7 39.0 -13.3 39.4 -12.9 39.4 -12.35 L39.4 9.55 45.85 -17.75 16.8 -22.7 16.4 -22.7 16.95 -13.15 -16.4 -13.15 -15.85 -22.7 -17.55 -22.7 -45.85 -17.75 -39.4 9.55 -39.4 -12.35 Q-39.4 -12.9 -39.0 -13.3 -38.6 -13.7 -38.05 -13.7 -37.5 -13.7 -37.05 -13.3 -36.65 -12.9 -36.65 -12.35 L-36.65 13.4 Q-23.35 8.6 -8.3 7.25 15.95 5.05 36.65 13.15 L36.65 -12.35" fill="#000000" fill-rule="evenodd" stroke="none"/>
    <path d="M-11.1 -18.15 L-11.0 -20.1 11.55 -20.1 11.65 -18.15 -11.1 -18.15" fill="#ffffff" fill-rule="evenodd" stroke="none"/>
    <path d="M10.75 -33.8 L11.4 -22.25 -10.85 -22.25 -10.15 -34.3 -8.15 -33.75 -8.25 -32.9 Q-8.25 -31.5 -7.45 -30.55 -6.7 -29.55 -5.6 -29.55 -4.55 -29.55 -3.8 -30.5 -3.05 -31.45 -3.0 -32.8 L3.35 -32.6 Q3.45 -31.3 4.2 -30.45 4.95 -29.55 5.95 -29.55 7.05 -29.55 7.8 -30.55 8.6 -31.5 8.6 -32.9 L8.55 -33.25 10.75 -33.8" fill="#ffffff" fill-rule="evenodd" stroke="none"/>
  </g>
</svg>
