<?xml version="1.0" encoding="UTF-8" standalone="no"?>
<svg xmlns:xlink="http://www.w3.org/1999/xlink" height="103.3px" width="81.9px" xmlns="http://www.w3.org/2000/svg">
  <g transform="matrix(1.0, 0.0, 0.0, 1.0, 40.95, 51.65)">
    <path d="M-14.6 25.85 Q-7.5 28.5 0.0 28.5 7.9 28.5 15.25 25.55 20.55 31.25 20.55 38.85 20.55 43.2 18.65 47.25 L-17.75 47.25 Q-19.65 43.2 -19.65 38.85 -19.65 31.4 -14.6 25.85 M-6.8 32.45 Q-7.05 32.8 -6.8 33.05 L-2.5 37.35 -6.6 41.5 Q-6.95 41.75 -6.6 42.1 L-4.65 44.05 -4.35 44.2 -4.05 44.05 0.05 39.95 4.45 44.3 Q4.55 44.45 4.75 44.45 L5.05 44.3 7.1 42.25 7.25 41.95 7.1 41.65 2.75 37.25 6.85 33.15 7.0 32.85 6.85 32.55 4.9 30.6 4.6 30.45 Q4.4 30.45 4.3 30.6 L0.15 34.7 -4.15 30.4 Q-4.4 30.15 -4.75 30.4 L-6.8 32.45" fill="#ffffff" fill-rule="evenodd" stroke="none"/>
    <path d="M0.0 28.5 Q-7.5 28.5 -14.6 25.85 -19.65 31.4 -19.65 38.85 -19.65 43.2 -17.75 47.25 L18.65 47.25 Q20.55 43.2 20.55 38.85 20.55 31.25 15.25 25.55 7.9 28.5 0.0 28.5 M-20.25 -6.7 Q-21.9 -2.6 -21.9 1.65 -21.9 10.45 -15.95 16.85 -10.05 23.25 -1.4 23.95 L-1.5 23.3 Q-1.5 22.4 -0.85 21.75 -0.25 21.1 0.65 21.1 1.6 21.1 2.2 21.75 2.85 22.4 2.85 23.3 L2.75 23.9 Q11.25 23.05 17.0 16.7 22.8 10.3 22.8 1.65 22.8 -2.9 21.0 -7.15 11.25 -1.85 -0.05 -1.85 -10.8 -1.85 -20.25 -6.7 M32.8 -36.95 Q40.95 -26.05 40.95 -12.4 40.95 -0.95 35.0 8.85 29.2 18.35 19.4 23.65 24.95 30.25 24.95 38.85 24.95 45.0 21.85 50.5 L21.25 51.65 -20.35 51.65 -20.95 50.5 Q-24.05 45.0 -24.05 38.85 -24.05 30.5 -18.75 24.0 -28.8 18.75 -34.8 9.2 -40.95 -0.7 -40.95 -12.4 -40.95 -26.1 -32.8 -36.95 -24.8 -47.65 -12.1 -51.55 -10.85 -51.95 -10.1 -50.8 -9.8 -50.3 -9.85 -49.7 -9.9 -49.1 -10.3 -48.7 -14.1 -44.6 -14.1 -39.1 -14.05 -33.25 -9.95 -29.15 -5.85 -25.05 0.0 -25.05 5.8 -25.05 9.95 -29.15 14.05 -33.3 14.05 -39.1 14.05 -44.55 10.3 -48.7 9.9 -49.1 9.85 -49.7 9.75 -50.3 10.1 -50.8 10.75 -51.95 12.1 -51.55 24.8 -47.65 32.8 -36.95" fill="#000000" fill-rule="evenodd" stroke="none"/>
    <path d="M-21.9 1.65 Q-21.9 -2.6 -20.25 -6.7 -10.8 -1.85 -0.05 -1.85 11.25 -1.85 21.0 -7.15 22.8 -2.9 22.8 1.65 22.8 10.3 17.0 16.7 11.25 23.05 2.75 23.9 L2.85 23.3 Q2.85 22.4 2.2 21.75 1.6 21.1 0.65 21.1 -0.25 21.1 -0.85 21.75 -1.5 22.4 -1.5 23.3 L-1.4 23.95 Q-10.05 23.25 -15.95 16.85 -21.9 10.45 -21.9 1.65 M-17.25 3.9 Q-17.7 5.1 -16.35 6.55 -15.0 7.95 -12.65 8.8 -10.3 9.6 -8.3 9.35 -6.35 9.05 -5.95 7.85 -5.5 6.6 -6.85 5.15 -8.2 3.75 -10.55 2.9 -12.95 2.1 -14.85 2.4 -16.85 2.65 -17.25 3.9 M9.8 9.35 Q11.75 9.6 14.1 8.8 16.45 8.0 17.8 6.55 19.15 5.1 18.75 3.9 18.3 2.65 16.35 2.4 14.4 2.1 12.05 2.9 9.7 3.75 8.35 5.15 7.0 6.6 7.4 7.85 7.8 9.05 9.8 9.35" fill="#ffffff" fill-rule="evenodd" stroke="none"/>
    <path d="M-5.95 7.85 Q-6.35 9.05 -8.3 9.35 -10.3 9.6 -12.65 8.8 -15.0 7.95 -16.35 6.55 -17.7 5.1 -17.25 3.9 -16.85 2.65 -14.85 2.4 -12.95 2.1 -10.55 2.9 -8.2 3.75 -6.85 5.15 -5.5 6.6 -5.95 7.85" fill="#000000" fill-rule="evenodd" stroke="none"/>
    <path d="M14.1 8.8 Q11.75 9.6 9.8 9.35 7.8 9.05 7.4 7.85 7.0 6.6 8.35 5.15 9.7 3.75 12.05 2.9 14.4 2.1 16.35 2.4 18.3 2.65 18.75 3.9 19.15 5.1 17.8 6.55 16.45 8.0 14.1 8.8" fill="#000000" fill-rule="evenodd" stroke="none"/>
    <path d="M-6.8 33.05 Q-7.05 32.8 -6.8 32.45 L-4.75 30.4 Q-4.4 30.15 -4.15 30.4 L0.15 34.7 4.3 30.6 Q4.4 30.45 4.6 30.45 L4.9 30.6 6.85 32.55 7.0 32.85 6.85 33.15 2.75 37.25 7.1 41.65 7.25 41.95 7.1 42.25 5.05 44.3 4.75 44.45 Q4.55 44.45 4.45 44.3 L0.05 39.95 -4.05 44.05 -4.35 44.2 -4.65 44.05 -6.6 42.1 Q-6.95 41.75 -6.6 41.5 L-2.5 37.35 -6.8 33.05" fill="#000000" fill-rule="evenodd" stroke="none"/>
  </g>
</svg>
