<?xml version="1.0" encoding="UTF-8" standalone="no"?>
<svg xmlns:xlink="http://www.w3.org/1999/xlink" height="121.5px" width="74.3px" xmlns="http://www.w3.org/2000/svg">
  <g transform="matrix(1.0, 0.0, 0.0, 1.0, 37.15, 60.75)">
    <path d="M-15.25 -54.8 L-16.75 -56.05 2.35 -56.05 1.1 -54.75 Q-0.6 -53.65 -2.15 -53.65 L-11.5 -53.65 Q-13.3 -53.65 -15.25 -54.8" fill="#ffffff" fill-rule="evenodd" stroke="none"/>
    <path d="M-16.7 -28.0 Q-16.7 -26.9 -15.9 -26.1 -15.1 -25.3 -13.95 -25.3 -12.8 -25.3 -12.05 -26.1 -11.25 -26.85 -11.25 -28.0 -11.25 -29.1 -12.05 -29.9 -12.8 -30.7 -13.95 -30.7 -15.1 -30.7 -15.9 -29.9 -16.7 -29.1 -16.7 -28.0 M-0.6 -6.65 Q0.05 -7.15 0.15 -7.9 0.25 -8.7 -0.25 -9.3 L-1.5 -10.0 Q-2.3 -10.1 -2.9 -9.6 -4.85 -8.1 -7.05 -8.1 -8.5 -8.1 -10.3 -8.85 L-11.25 -9.4 -11.5 -9.6 -11.55 -9.6 Q-12.15 -10.1 -12.95 -10.0 -13.7 -9.9 -14.2 -9.3 -14.7 -8.7 -14.6 -7.9 -14.5 -7.15 -13.9 -6.65 L-11.9 -5.45 Q-9.55 -4.35 -7.05 -4.35 L-7.0 -4.35 Q-3.45 -4.35 -0.6 -6.65 M3.45 -22.85 Q4.2 -22.85 4.65 -23.5 L4.8 -24.55 4.15 -25.45 -5.55 -31.4 -6.6 -31.55 Q-7.2 -31.45 -7.5 -30.95 L-7.65 -29.85 Q-7.55 -29.3 -7.05 -29.0 L2.7 -23.05 3.45 -22.85 M4.1 -43.95 L4.35 -44.6 4.1 -45.3 3.45 -45.55 -16.95 -45.55 -17.6 -45.3 -17.9 -44.6 -17.6 -43.95 Q-17.35 -43.7 -16.95 -43.7 L3.45 -43.7 4.1 -43.95 M4.35 -39.6 L4.1 -40.25 3.45 -40.55 -16.95 -40.55 -17.6 -40.25 -17.9 -39.6 -17.6 -38.95 Q-17.3 -38.65 -16.95 -38.65 L3.45 -38.65 4.1 -38.95 4.35 -39.6 M-24.05 -52.9 Q-22.55 -54.95 -20.15 -55.7 -19.6 -53.55 -16.9 -52.0 -14.15 -50.45 -11.5 -50.35 L-2.15 -50.35 Q0.55 -50.45 2.95 -52.05 5.35 -53.6 5.8 -55.9 8.5 -55.35 10.25 -53.25 12.05 -51.05 12.05 -48.25 L12.05 -4.75 Q12.05 -2.0 10.3 0.15 8.6 2.25 5.95 2.85 L5.95 -0.95 Q5.95 -1.7 5.4 -2.25 4.85 -2.8 4.05 -2.8 3.25 -2.8 2.75 -2.25 2.2 -1.7 2.2 -0.95 L2.2 3.05 -15.7 3.05 -15.7 -0.95 Q-15.7 -1.7 -16.25 -2.25 -16.8 -2.8 -17.55 -2.8 -18.35 -2.8 -18.9 -2.25 -19.45 -1.7 -19.45 -0.95 L-19.45 2.85 Q-22.1 2.3 -23.85 0.15 -25.6 -2.0 -25.6 -4.75 L-25.6 -48.25 Q-25.6 -50.85 -24.05 -52.9" fill="#ffffff" fill-rule="evenodd" stroke="none"/>
    <path d="M-15.7 10.25 L-15.7 7.75 2.2 7.75 2.2 10.25 Q2.15 11.75 1.15 12.8 0.1 13.8 -1.4 13.85 L-12.15 13.85 Q-13.6 13.8 -14.65 12.8 -15.7 11.75 -15.7 10.25" fill="#ffffff" fill-rule="evenodd" stroke="none"/>
    <path d="M-15.7 10.25 Q-15.7 11.75 -14.65 12.8 -13.6 13.8 -12.15 13.85 L-1.4 13.85 Q0.1 13.8 1.15 12.8 2.15 11.75 2.2 10.25 L2.2 7.75 -15.7 7.75 -15.7 10.25 M-26.65 -57.1 Q-22.95 -60.75 -17.8 -60.75 L4.25 -60.75 Q9.45 -60.75 13.1 -57.1 16.75 -53.4 16.75 -48.25 L16.75 -35.3 17.75 -38.3 Q18.1 -39.4 19.15 -39.95 L21.3 -40.1 Q22.4 -39.75 22.95 -38.7 23.45 -37.65 23.1 -36.55 L22.4 -34.5 22.35 -34.3 22.0 -33.7 20.65 -29.45 20.7 -29.45 19.0 -23.7 Q18.8 -23.1 19.1 -22.55 19.4 -22.0 20.0 -21.8 L20.45 -21.75 Q21.5 -21.75 21.85 -22.85 L23.65 -28.8 Q29.6 -26.85 33.35 -21.85 37.15 -16.7 37.15 -10.25 L37.15 60.75 -2.45 60.75 -8.95 17.6 -12.15 17.6 Q-15.2 17.6 -17.3 15.45 -19.45 13.3 -19.45 10.25 L-19.45 7.6 Q-24.05 7.0 -27.15 3.5 -30.3 -0.05 -30.3 -4.75 L-30.3 -16.2 -30.55 -16.75 -37.0 -36.55 Q-37.35 -37.7 -36.85 -38.7 -36.3 -39.75 -35.2 -40.1 L-33.05 -39.95 Q-32.0 -39.45 -31.65 -38.3 L-30.3 -34.2 -30.3 -48.25 Q-30.3 -53.4 -26.65 -57.1 M-16.75 -56.05 L-15.25 -54.8 Q-13.3 -53.65 -11.5 -53.65 L-2.15 -53.65 Q-0.6 -53.65 1.1 -54.75 L2.35 -56.05 -16.75 -56.05 M-11.5 -50.35 Q-14.15 -50.45 -16.9 -52.0 -19.6 -53.55 -20.15 -55.7 -22.55 -54.95 -24.05 -52.9 -25.6 -50.85 -25.6 -48.25 L-25.6 -4.75 Q-25.6 -2.0 -23.85 0.15 -22.1 2.3 -19.45 2.85 L-19.45 -0.95 Q-19.45 -1.7 -18.9 -2.25 -18.35 -2.8 -17.55 -2.8 -16.8 -2.8 -16.25 -2.25 -15.7 -1.7 -15.7 -0.95 L-15.7 3.05 2.2 3.05 2.2 -0.95 Q2.2 -1.7 2.75 -2.25 3.25 -2.8 4.05 -2.8 4.85 -2.8 5.4 -2.25 5.95 -1.7 5.95 -0.95 L5.95 2.85 Q8.6 2.25 10.3 0.15 12.05 -2.0 12.05 -4.75 L12.05 -48.25 Q12.05 -51.05 10.25 -53.25 8.5 -55.35 5.8 -55.9 5.35 -53.6 2.95 -52.05 0.55 -50.45 -2.15 -50.35 L-11.5 -50.35" fill="#000000" fill-rule="evenodd" stroke="none"/>
    <path d="M-11.25 -28.0 Q-11.25 -26.85 -12.05 -26.1 -12.8 -25.3 -13.95 -25.3 -15.1 -25.3 -15.9 -26.1 -16.7 -26.9 -16.7 -28.0 -16.7 -29.1 -15.9 -29.9 -15.1 -30.7 -13.95 -30.7 -12.8 -30.7 -12.05 -29.9 -11.25 -29.1 -11.25 -28.0" fill="#000000" fill-rule="evenodd" stroke="none"/>
    <path d="M4.15 -25.45 L4.8 -24.55 4.65 -23.5 Q4.2 -22.85 3.45 -22.85 L2.7 -23.05 -7.05 -29.0 Q-7.55 -29.3 -7.65 -29.85 L-7.5 -30.95 Q-7.2 -31.45 -6.6 -31.55 L-5.55 -31.4 4.15 -25.45" fill="#000000" fill-rule="evenodd" stroke="none"/>
    <path d="M-2.9 -9.6 Q-2.3 -10.1 -1.5 -10.0 L-0.25 -9.3 Q0.25 -8.7 0.15 -7.9 0.05 -7.15 -0.6 -6.65 -3.45 -4.35 -7.0 -4.35 L-7.05 -4.35 Q-9.55 -4.35 -11.9 -5.45 L-13.9 -6.65 Q-14.5 -7.15 -14.6 -7.9 -14.7 -8.7 -14.2 -9.3 -13.7 -9.9 -12.95 -10.0 -12.15 -10.1 -11.55 -9.6 L-11.5 -9.6 -11.25 -9.4 -10.3 -8.85 Q-8.5 -8.1 -7.05 -8.1 -4.85 -8.1 -2.9 -9.6" fill="#000000" fill-rule="evenodd" stroke="none"/>
    <path d="M4.35 -39.6 L4.1 -38.95 3.45 -38.65 -16.95 -38.65 Q-17.3 -38.65 -17.6 -38.95 L-17.9 -39.6 -17.6 -40.25 -16.95 -40.55 3.45 -40.55 4.1 -40.25 4.35 -39.6" fill="#000000" fill-rule="evenodd" stroke="none"/>
    <path d="M3.45 -45.55 L4.1 -45.3 4.35 -44.6 4.1 -43.95 3.45 -43.7 -16.95 -43.7 Q-17.35 -43.7 -17.6 -43.95 L-17.9 -44.6 -17.6 -45.3 -16.95 -45.55 3.45 -45.55" fill="#000000" fill-rule="evenodd" stroke="none"/>
    <path d="M21.2 -31.1 L22.0 -33.7 22.35 -34.3 21.2 -31.1" fill="#000000" fill-rule="evenodd" stroke="none"/>
    <path d="M20.0 -21.8 Q19.4 -22.0 19.1 -22.55 18.8 -23.1 19.0 -23.7 L20.7 -29.45 23.65 -28.8 21.85 -22.85 Q21.5 -21.75 20.45 -21.75 L20.0 -21.8" fill="#ffffff" fill-rule="evenodd" stroke="none"/>
  </g>
</svg>
