<?xml version="1.0" encoding="UTF-8" standalone="no"?>
<svg xmlns:xlink="http://www.w3.org/1999/xlink" height="113.65px" width="61.7px" xmlns="http://www.w3.org/2000/svg">
  <g transform="matrix(1.0, 0.0, 0.0, 1.0, 30.85, 56.8)">
    <path d="M-13.6 1.45 Q-7.3 4.55 -0.15 4.55 6.8 4.55 13.1 1.55 L18.75 52.2 -18.6 52.2 -13.6 1.45 M-3.9 25.0 L-5.7 25.0 -5.7 25.9 Q-6.45 24.85 -7.75 24.85 -8.8 24.85 -9.75 25.65 -10.65 26.4 -10.65 27.85 -10.65 29.0 -9.95 29.7 -9.35 30.35 -7.4 31.3 -6.4 31.85 -6.2 32.1 -5.85 32.4 -5.85 32.9 -5.85 33.4 -6.2 33.75 -6.65 34.1 -7.05 34.1 -7.6 34.1 -8.2 33.6 -8.7 33.1 -8.7 32.1 L-10.55 32.1 -10.55 35.8 -8.7 35.8 -8.7 34.85 Q-8.0 35.9 -6.5 35.9 -5.25 35.9 -4.3 35.1 -3.35 34.3 -3.35 32.7 -3.35 31.9 -3.75 31.1 -4.1 30.5 -4.75 30.0 -5.35 29.6 -6.6 29.05 L-8.1 28.2 -8.35 27.55 -8.05 26.9 -7.3 26.7 Q-6.65 26.7 -6.25 27.1 -5.85 27.4 -5.7 28.25 L-3.9 28.25 -3.9 25.0 M7.65 25.0 L7.65 25.85 Q6.45 24.8 4.25 24.8 2.85 24.8 1.4 25.45 0.15 26.15 -0.7 27.4 -1.45 28.7 -1.45 30.35 -1.45 32.8 0.1 34.35 1.65 35.9 4.6 35.9 L7.65 35.25 Q8.95 34.65 9.7 33.45 10.45 32.35 10.45 30.35 L5.35 30.35 5.35 32.15 7.25 32.15 Q7.05 32.95 6.35 33.5 L4.75 33.95 Q3.4 33.95 2.5 33.0 1.55 31.95 1.55 30.15 1.55 28.55 2.5 27.65 3.4 26.75 4.7 26.75 5.75 26.75 6.5 27.3 7.35 27.8 7.65 28.8 L9.5 28.8 9.5 25.0 7.65 25.0 M-4.85 13.1 L-4.85 11.25 -10.95 11.25 -10.95 13.1 -9.3 13.1 -9.3 20.25 -10.95 20.25 -10.95 22.1 -4.85 22.1 -4.85 20.25 -6.5 20.25 -6.5 13.1 -4.85 13.1 M-2.25 11.3 Q-3.3 12.35 -3.3 13.9 -3.3 15.4 -2.25 16.45 L4.35 23.05 10.9 16.45 Q12.0 15.4 12.0 13.9 12.0 12.35 10.9 11.3 9.85 10.2 8.35 10.2 6.8 10.2 5.75 11.3 L4.35 12.7 2.9 11.3 Q1.85 10.2 0.35 10.2 -1.15 10.2 -2.25 11.3" fill="#ffffff" fill-rule="evenodd" stroke="none"/>
    <path d="M-0.15 4.55 Q-7.3 4.55 -13.6 1.45 L-18.6 52.2 18.75 52.2 13.1 1.55 Q6.8 4.55 -0.15 4.55 M-14.05 -15.85 Q-19.2 -18.25 -23.1 -22.35 L-26.15 -26.0 Q-26.05 -15.25 -18.45 -7.7 -10.85 -0.15 -0.15 -0.15 10.3 -0.15 17.85 -7.4 25.35 -14.6 25.85 -25.0 22.2 -20.1 16.9 -17.1 9.5 -12.9 -0.15 -12.9 L-0.2 -12.9 Q-7.75 -12.9 -14.05 -15.85 M-30.85 -24.65 L-30.8 -24.65 -30.85 -26.15 Q-30.85 -38.85 -21.85 -47.85 -12.85 -56.8 -0.15 -56.8 12.55 -56.8 21.55 -47.85 30.55 -38.85 30.55 -26.15 L30.45 -23.9 30.5 -23.9 30.85 17.85 19.6 17.85 23.95 56.85 -23.75 56.85 -19.9 17.85 -30.5 17.85 -30.85 -24.65 M7.95 -44.2 Q2.2 -38.65 -4.7 -36.3 -13.9 -33.2 -24.1 -36.3 -25.2 -33.65 -25.75 -30.6 L-25.55 -30.25 Q-23.7 -26.95 -21.1 -24.3 -12.7 -15.7 -0.15 -15.7 11.05 -15.7 18.65 -21.6 23.05 -25.05 25.6 -29.9 25.1 -33.15 23.75 -36.4 13.25 -33.75 7.95 -44.2 M6.95 -48.2 Q7.5 -48.65 7.1 -49.2 6.65 -49.75 6.1 -49.3 5.45 -48.8 4.25 -48.05 0.2 -45.45 -4.3 -43.75 -11.1 -41.15 -17.4 -41.15 L-22.25 -41.55 Q-22.85 -41.7 -23.05 -41.05 -23.2 -40.45 -22.65 -40.25 L-20.8 -39.7 -15.85 -39.2 Q-4.4 -39.2 6.95 -48.2" fill="#000000" fill-rule="evenodd" stroke="none"/>
    <path d="M4.35 23.05 L-2.25 16.45 Q-3.3 15.4 -3.3 13.9 -3.3 12.35 -2.25 11.3 -1.15 10.2 0.35 10.2 1.85 10.2 2.9 11.3 L4.35 12.7 5.75 11.3 Q6.8 10.2 8.35 10.2 9.85 10.2 10.9 11.3 12.0 12.35 12.0 13.9 12.0 15.4 10.9 16.45 L4.35 23.05" fill="#000000" fill-rule="evenodd" stroke="none"/>
    <path d="M-4.85 13.1 L-6.5 13.1 -6.5 20.25 -4.85 20.25 -4.85 22.1 -10.95 22.1 -10.95 20.25 -9.3 20.25 -9.3 13.1 -10.95 13.1 -10.95 11.25 -4.85 11.25 -4.85 13.1" fill="#000000" fill-rule="evenodd" stroke="none"/>
    <path d="M-5.7 25.9 L-5.7 25.0 -3.9 25.0 -3.9 28.25 -5.7 28.25 Q-5.85 27.4 -6.25 27.1 -6.65 26.7 -7.3 26.7 L-8.05 26.9 -8.35 27.55 -8.1 28.2 -6.6 29.05 Q-5.35 29.6 -4.75 30.0 -4.1 30.5 -3.75 31.1 -3.35 31.9 -3.35 32.7 -3.35 34.3 -4.3 35.1 -5.25 35.9 -6.5 35.9 -8.0 35.9 -8.7 34.85 L-8.7 35.8 -10.55 35.8 -10.55 32.1 -8.7 32.1 Q-8.7 33.1 -8.2 33.6 -7.6 34.1 -7.05 34.1 -6.65 34.1 -6.2 33.75 -5.85 33.4 -5.85 32.9 -5.85 32.4 -6.2 32.1 -6.4 31.85 -7.4 31.3 -9.35 30.35 -9.95 29.7 -10.65 29.0 -10.65 27.85 -10.65 26.4 -9.75 25.65 -8.8 24.85 -7.75 24.85 -6.45 24.85 -5.7 25.9" fill="#000000" fill-rule="evenodd" stroke="none"/>
    <path d="M7.65 25.85 L7.65 25.0 9.5 25.0 9.5 28.8 7.65 28.8 Q7.35 27.8 6.5 27.3 5.75 26.75 4.7 26.75 3.4 26.75 2.5 27.65 1.55 28.55 1.55 30.15 1.55 31.95 2.5 33.0 3.4 33.95 4.75 33.95 L6.35 33.5 Q7.05 32.95 7.25 32.15 L5.35 32.15 5.35 30.35 10.45 30.35 Q10.45 32.35 9.7 33.45 8.95 34.65 7.65 35.25 L4.6 35.9 Q1.65 35.9 0.1 34.35 -1.45 32.8 -1.45 30.35 -1.45 28.7 -0.7 27.4 0.15 26.15 1.4 25.45 2.85 24.8 4.25 24.8 6.45 24.8 7.65 25.85" fill="#000000" fill-rule="evenodd" stroke="none"/>
    <path d="M6.1 -27.4 Q6.1 -26.25 6.9 -25.4 7.75 -24.6 8.9 -24.6 10.05 -24.6 10.9 -25.4 11.7 -26.25 11.7 -27.4 11.7 -28.55 10.9 -29.4 10.05 -30.2 8.9 -30.2 7.75 -30.2 6.9 -29.4 6.1 -28.55 6.1 -27.4 M-8.1 -29.4 Q-8.95 -30.2 -10.1 -30.2 -11.25 -30.2 -12.1 -29.4 -12.9 -28.55 -12.9 -27.4 -12.9 -26.25 -12.1 -25.4 -11.25 -24.6 -10.1 -24.6 -8.95 -24.6 -8.1 -25.4 -7.3 -26.25 -7.3 -27.4 -7.3 -28.55 -8.1 -29.4 M-4.7 -36.3 Q2.2 -38.65 7.95 -44.2 13.25 -33.75 23.75 -36.4 25.1 -33.15 25.6 -29.9 23.05 -25.05 18.65 -21.6 11.05 -15.7 -0.15 -15.7 -12.7 -15.7 -21.1 -24.3 -23.7 -26.95 -25.55 -30.25 L-25.75 -30.6 Q-25.2 -33.65 -24.1 -36.3 -13.9 -33.2 -4.7 -36.3" fill="#ffffff" fill-rule="evenodd" stroke="none"/>
    <path d="M-3.0 -7.35 L-8.1 -8.3 Q-2.7 -2.15 3.1 -4.6 6.0 -5.85 7.8 -8.3 3.1 -6.7 -3.0 -7.35 M-18.45 -7.7 Q-26.05 -15.25 -26.15 -26.0 L-23.1 -22.35 Q-19.2 -18.25 -14.05 -15.85 -7.75 -12.9 -0.2 -12.9 L-0.15 -12.9 Q9.5 -12.9 16.9 -17.1 22.2 -20.1 25.85 -25.0 25.35 -14.6 17.85 -7.4 10.3 -0.15 -0.15 -0.15 -10.85 -0.15 -18.45 -7.7" fill="#ffffff" fill-rule="evenodd" stroke="none"/>
    <path d="M-10.1 -24.6 Q-11.25 -24.6 -12.1 -25.4 -12.9 -26.25 -12.9 -27.4 -12.9 -28.55 -12.1 -29.4 -11.25 -30.2 -10.1 -30.2 -8.95 -30.2 -8.1 -29.4 -7.3 -28.55 -7.3 -27.4 -7.3 -26.25 -8.1 -25.4 -8.95 -24.6 -10.1 -24.6" fill="#000000" fill-rule="evenodd" stroke="none"/>
    <path d="M6.9 -25.4 Q6.1 -26.25 6.1 -27.4 6.1 -28.55 6.9 -29.4 7.75 -30.2 8.9 -30.2 10.05 -30.2 10.9 -29.4 11.7 -28.55 11.7 -27.4 11.7 -26.25 10.9 -25.4 10.05 -24.6 8.9 -24.6 7.75 -24.6 6.9 -25.4" fill="#000000" fill-rule="evenodd" stroke="none"/>
    <path d="M7.8 -8.3 Q6.0 -5.85 3.1 -4.6 -2.7 -2.15 -8.1 -8.3 L-3.0 -7.35 Q3.1 -6.7 7.8 -8.3" fill="#000000" fill-rule="evenodd" stroke="none"/>
    <path d="M7.1 -49.2 Q7.5 -48.65 6.95 -48.2 -4.4 -39.2 -15.85 -39.2 L-20.8 -39.7 -22.65 -40.25 Q-23.2 -40.45 -23.05 -41.05 -22.85 -41.7 -22.25 -41.55 L-17.4 -41.15 Q-11.1 -41.15 -4.3 -43.75 0.2 -45.45 4.25 -48.05 5.45 -48.8 6.1 -49.3 6.65 -49.75 7.1 -49.2" fill="#ffffff" fill-rule="evenodd" stroke="none"/>
  </g>
</svg>
