<?xml version="1.0" encoding="UTF-8" standalone="no"?>
<svg xmlns:xlink="http://www.w3.org/1999/xlink" height="145.45px" width="51.9px" xmlns="http://www.w3.org/2000/svg">
  <g transform="matrix(1.0, 0.0, 0.0, 1.0, 25.95, 72.7)">
    <path d="M-9.05 -4.4 Q-9.85 -4.4 -10.4 -4.0 -11.0 -3.55 -11.0 -3.0 -11.0 -2.4 -10.4 -1.95 -9.85 -1.55 -9.05 -1.55 -8.25 -1.55 -7.7 -1.95 -7.15 -2.4 -7.15 -3.0 -7.15 -3.55 -7.7 -4.0 -8.25 -4.4 -9.05 -4.4 M-15.6 -15.3 L-10.75 -15.3 -8.9 -13.0 Q-5.25 -9.0 -0.8 -8.8 L-0.8 0.85 -10.35 0.85 Q-10.85 0.85 -11.2 1.2 -11.6 1.6 -11.6 2.1 -11.6 2.6 -11.2 3.0 -10.85 3.35 -10.35 3.35 L-1.1 3.35 Q-7.05 12.35 -13.15 19.15 L-15.6 -15.3" fill="#ffffff" fill-rule="evenodd" stroke="none"/>
    <path d="M8.1 19.95 Q2.1 30.3 -6.4 38.8 L-6.7 39.55 -6.4 40.35 -5.6 40.65 Q-5.15 40.65 -4.8 40.35 7.1 28.45 14.15 13.0 L12.85 32.25 Q7.55 48.45 -5.25 61.25 -5.6 61.6 -5.6 62.05 -5.6 62.5 -5.25 62.8 -4.95 63.15 -4.5 63.15 -4.0 63.15 -3.7 62.8 6.7 52.4 12.35 39.6 L10.5 68.35 -9.75 68.35 -12.85 23.65 Q0.75 9.5 13.6 -15.3 L16.0 -15.3 14.6 5.9 Q12.2 12.85 8.1 19.95" fill="#ffffff" fill-rule="evenodd" stroke="none"/>
    <path d="M8.2 -13.0 L9.45 -14.5 Q5.55 -7.15 1.2 -0.25 L1.2 -8.9 Q5.1 -9.55 8.2 -13.0" fill="#ffffff" fill-rule="evenodd" stroke="none"/>
    <path d="M-4.8 40.35 Q-5.15 40.65 -5.6 40.65 L-6.4 40.35 -6.7 39.55 -6.4 38.8 Q2.1 30.3 8.1 19.95 12.2 12.85 14.6 5.9 L16.0 -15.3 13.6 -15.3 Q0.75 9.5 -12.85 23.65 L-9.75 68.35 10.5 68.35 12.35 39.6 Q6.7 52.4 -3.7 62.8 -4.0 63.15 -4.5 63.15 -4.95 63.15 -5.25 62.8 -5.6 62.5 -5.6 62.05 -5.6 61.6 -5.25 61.25 7.55 48.45 12.85 32.25 L14.15 13.0 Q7.1 28.45 -4.8 40.35 M8.2 -13.0 Q5.1 -9.55 1.2 -8.9 L1.2 -0.25 Q5.55 -7.15 9.45 -14.5 L8.2 -13.0 M-8.9 -13.0 L-10.75 -15.3 -15.6 -15.3 -13.15 19.15 Q-7.05 12.35 -1.1 3.35 L-10.35 3.35 Q-10.85 3.35 -11.2 3.0 -11.6 2.6 -11.6 2.1 -11.6 1.6 -11.2 1.2 -10.85 0.85 -10.35 0.85 L-0.8 0.85 -0.8 -8.8 Q-5.25 -9.0 -8.9 -13.0 M6.45 -25.75 Q7.85 -26.55 7.85 -27.6 7.85 -28.9 5.6 -29.85 3.35 -30.75 0.2 -30.75 -2.95 -30.75 -5.2 -29.85 -7.45 -28.9 -7.45 -27.6 -7.45 -26.6 -6.15 -25.8 -4.85 -25.05 -2.75 -24.65 -1.35 -24.85 -1.0 -25.75 L1.3 -25.75 1.6 -25.3 2.8 -24.6 Q5.05 -24.95 6.45 -25.75 M-19.4 -66.4 Q-18.35 -69.3 -12.9 -71.05 -7.6 -72.7 -0.1 -72.7 7.5 -72.7 13.1 -70.7 18.65 -68.7 19.35 -65.75 L19.45 -65.8 25.95 -13.3 20.3 -13.2 14.6 72.75 -13.85 72.75 -19.9 -13.3 -25.95 -13.3 -19.7 -65.85 -19.6 -65.65 -19.5 -66.25 -19.45 -66.4 -19.4 -66.4 M-6.6 -56.1 Q-9.85 -54.8 -14.35 -54.2 -14.2 -42.65 -12.0 -33.2 -8.4 -36.15 -3.85 -37.1 3.95 -38.65 11.35 -33.1 13.5 -42.7 13.65 -54.05 8.95 -54.6 5.5 -55.85 0.35 -57.75 -0.85 -60.85 L-0.9 -60.85 Q-2.05 -57.95 -6.6 -56.1" fill="#000000" fill-rule="evenodd" stroke="none"/>
    <path d="M-6.35 -45.05 Q-5.05 -45.05 -4.15 -45.95 -3.25 -46.85 -3.25 -48.15 L-3.25 -48.35 -9.4 -48.35 -9.45 -48.15 Q-9.45 -46.85 -8.55 -45.95 -7.65 -45.05 -6.35 -45.05 M8.6 -48.15 L8.55 -48.35 2.4 -48.35 2.35 -48.15 Q2.35 -46.85 3.25 -45.95 4.2 -45.05 5.5 -45.05 6.8 -45.05 7.7 -45.95 8.6 -46.85 8.6 -48.15 M-14.35 -54.2 Q-9.85 -54.8 -6.6 -56.1 -2.05 -57.95 -0.9 -60.85 L-0.85 -60.85 Q0.35 -57.75 5.5 -55.85 8.95 -54.6 13.65 -54.05 13.5 -42.7 11.35 -33.1 3.95 -38.65 -3.85 -37.1 -8.4 -36.15 -12.0 -33.2 -14.2 -42.65 -14.35 -54.2" fill="#ffffff" fill-rule="evenodd" stroke="none"/>
    <path d="M-9.05 -1.55 Q-9.85 -1.55 -10.4 -1.95 -11.0 -2.4 -11.0 -3.0 -11.0 -3.55 -10.4 -4.0 -9.85 -4.4 -9.05 -4.4 -8.25 -4.4 -7.7 -4.0 -7.15 -3.55 -7.15 -3.0 -7.15 -2.4 -7.7 -1.95 -8.25 -1.55 -9.05 -1.55" fill="#000000" fill-rule="evenodd" stroke="none"/>
    <path d="M-6.35 -45.05 Q-7.65 -45.05 -8.55 -45.95 -9.45 -46.85 -9.45 -48.15 L-9.4 -48.35 -3.25 -48.35 -3.25 -48.15 Q-3.25 -46.85 -4.15 -45.95 -5.05 -45.05 -6.35 -45.05" fill="#000000" fill-rule="evenodd" stroke="none"/>
    <path d="M5.5 -45.05 Q4.2 -45.05 3.25 -45.95 2.35 -46.85 2.35 -48.15 L2.4 -48.35 8.55 -48.35 8.6 -48.15 Q8.6 -46.85 7.7 -45.95 6.8 -45.05 5.5 -45.05" fill="#000000" fill-rule="evenodd" stroke="none"/>
    <path d="M1.6 -25.3 L1.3 -25.75 -1.0 -25.75 Q-1.35 -24.85 -2.75 -24.65 -4.85 -25.05 -6.15 -25.8 -7.45 -26.6 -7.45 -27.6 -7.45 -28.9 -5.2 -29.85 -2.95 -30.75 0.2 -30.75 3.35 -30.75 5.6 -29.85 7.85 -28.9 7.85 -27.6 7.85 -26.55 6.45 -25.75 5.05 -24.95 2.8 -24.6 L1.6 -25.3 M-4.15 -29.05 Q-4.6 -29.05 -4.9 -28.7 -5.25 -28.4 -5.25 -27.9 -5.25 -27.45 -4.9 -27.1 -4.6 -26.8 -4.15 -26.8 L4.55 -26.8 Q5.0 -26.8 5.35 -27.1 L5.65 -27.9 5.35 -28.7 Q5.0 -29.05 4.55 -29.05 L-4.15 -29.05" fill="#ffffff" fill-rule="evenodd" stroke="none"/>
    <path d="M-4.15 -26.8 Q-4.6 -26.8 -4.9 -27.1 -5.25 -27.45 -5.25 -27.9 -5.25 -28.4 -4.9 -28.7 -4.6 -29.05 -4.15 -29.05 L4.55 -29.05 Q5.0 -29.05 5.35 -28.7 L5.65 -27.9 5.35 -27.1 Q5.0 -26.8 4.55 -26.8 L-4.15 -26.8" fill="#000000" fill-rule="evenodd" stroke="none"/>
  </g>
</svg>
