<?xml version="1.0" encoding="UTF-8" standalone="no"?>
<svg xmlns:xlink="http://www.w3.org/1999/xlink" height="112.6px" width="55.6px" xmlns="http://www.w3.org/2000/svg">
  <g transform="matrix(1.0, 0.0, 0.0, 1.0, 27.8, 56.3)">
    <path d="M23.05 -5.35 L18.65 29.25 -19.15 29.25 -23.1 -5.35 -12.1 -5.35 Q-7.65 -2.15 -2.6 -1.5 -2.2 -0.2 -1.15 0.4 L-3.3 4.9 -10.4 4.9 -10.6 1.35 -13.3 1.45 -13.15 4.9 -15.75 4.9 Q-16.15 4.9 -16.4 5.15 L-16.6 5.85 -16.2 9.4 -15.85 9.95 -15.25 10.1 Q-14.5 10.0 -14.5 9.3 L-14.5 9.2 -14.85 6.55 -13.05 6.55 -12.8 11.7 -10.1 11.6 -10.35 6.55 -4.15 6.55 -6.95 12.4 0.1 22.3 7.6 12.15 2.25 0.3 Q3.3 -0.35 3.6 -1.65 8.25 -2.45 12.2 -5.35 L23.05 -5.35" fill="#ffffff" fill-rule="evenodd" stroke="none"/>
    <path d="M18.65 29.25 L23.05 -5.35 12.2 -5.35 Q8.25 -2.45 3.6 -1.65 3.3 -0.35 2.25 0.3 L7.6 12.15 0.1 22.3 -6.95 12.4 -4.15 6.55 -10.35 6.55 -10.1 11.6 -12.8 11.7 -13.05 6.55 -14.85 6.55 -14.5 9.2 -14.5 9.3 Q-14.5 10.0 -15.25 10.1 L-15.85 9.95 -16.2 9.4 -16.6 5.85 -16.4 5.15 Q-16.15 4.9 -15.75 4.9 L-13.15 4.9 -13.3 1.45 -10.6 1.35 -10.4 4.9 -3.3 4.9 -1.15 0.4 Q-2.2 -0.2 -2.6 -1.5 -7.65 -2.15 -12.1 -5.35 L-23.1 -5.35 -19.15 29.25 18.65 29.25 M-21.45 -18.2 Q-23.25 -23.25 -23.25 -28.8 -23.25 -40.15 -16.4 -48.25 -9.6 -56.3 0.05 -56.3 9.7 -56.3 16.5 -48.25 23.35 -40.15 23.35 -28.8 23.35 -23.25 21.55 -18.2 19.8 -13.35 16.65 -9.55 L27.8 -9.55 19.45 56.3 -20.25 56.3 -27.8 -9.55 -16.55 -9.55 Q-19.7 -13.35 -21.45 -18.2 M-16.3 -40.9 Q-19.05 -35.3 -19.05 -28.8 -19.05 -19.25 -13.5 -12.4 -8.0 -5.6 -0.15 -5.5 L0.9 -5.55 Q8.5 -5.9 13.85 -12.65 19.15 -19.45 19.15 -28.8 19.15 -32.15 18.5 -34.95 14.75 -34.75 10.05 -36.2 L11.75 -34.8 Q12.2 -34.4 12.2 -33.8 L12.1 -33.4 Q11.85 -32.55 10.95 -32.55 0.95 -32.4 -7.05 -35.5 -12.45 -37.6 -16.3 -40.9 M1.3 -41.8 Q1.55 -42.2 2.05 -42.3 L2.95 -42.15 7.75 -39.7 Q13.35 -37.35 17.8 -37.45 15.65 -43.95 10.9 -48.0 6.0 -52.1 0.05 -52.1 -4.45 -52.1 -8.45 -49.65 -12.3 -47.3 -15.0 -43.15 -11.95 -40.45 -7.55 -38.5 -0.9 -35.55 7.4 -35.15 L1.5 -40.1 Q1.05 -40.45 1.05 -41.05 L1.3 -41.8" fill="#000000" fill-rule="evenodd" stroke="none"/>
    <path d="M2.05 -42.3 Q1.55 -42.2 1.3 -41.8 L1.05 -41.05 Q1.05 -40.45 1.5 -40.1 L7.4 -35.15 Q-0.9 -35.55 -7.55 -38.5 -11.95 -40.45 -15.0 -43.15 -12.3 -47.3 -8.45 -49.65 -4.45 -52.1 0.05 -52.1 6.0 -52.1 10.9 -48.0 15.65 -43.95 17.8 -37.45 13.35 -37.35 7.75 -39.7 L2.95 -42.15 2.05 -42.3" fill="#ffffff" fill-rule="evenodd" stroke="none"/>
  </g>
</svg>
