<?xml version="1.0" encoding="UTF-8" standalone="no"?>
<svg xmlns:xlink="http://www.w3.org/1999/xlink" height="35.4px" width="38.2px" xmlns="http://www.w3.org/2000/svg">
  <g transform="matrix(1.0, 0.0, 0.0, 1.0, 0.0, 0.0)">
    <path d="M10.75 29.75 L10.6 30.3 Q10.6 31.6 13.05 32.55 15.5 33.45 18.95 33.45 22.45 33.45 24.9 32.55 27.35 31.6 27.35 30.3 L27.2 29.75 Q26.5 27.5 25.1 25.95 22.75 23.4 18.95 23.4 15.15 23.4 12.85 25.95 11.35 27.6 10.75 29.75 M4.0 15.25 Q4.0 16.55 4.9 17.45 5.85 18.4 7.1 18.4 8.4 18.4 9.35 17.45 10.25 16.55 10.25 15.25 10.25 13.95 9.35 13.0 8.4 12.1 7.1 12.1 5.8 12.1 4.9 13.0 4.0 13.95 4.0 15.25 M27.85 15.25 Q27.85 16.55 28.75 17.45 29.7 18.4 30.95 18.4 32.25 18.4 33.2 17.45 34.1 16.55 34.1 15.25 34.1 13.95 33.2 13.0 32.25 12.1 30.95 12.1 29.65 12.1 28.75 13.0 27.85 13.95 27.85 15.25 M37.55 5.95 Q38.2 8.75 38.2 12.1 38.2 21.45 32.9 28.25 27.55 35.0 19.95 35.35 L18.9 35.4 Q11.05 35.3 5.55 28.5 0.0 21.65 0.0 12.1 0.0 5.6 2.75 0.0 6.6 3.3 12.0 5.4 20.0 8.5 30.0 8.35 30.9 8.35 31.15 7.5 L31.25 7.1 Q31.25 6.5 30.8 6.1 L29.1 4.7 Q33.8 6.15 37.55 5.95" fill="#ffffff" fill-rule="evenodd" stroke="none"/>
  </g>
</svg>
