<?xml version="1.0" encoding="UTF-8" standalone="no"?>
<svg xmlns:xlink="http://www.w3.org/1999/xlink" height="21.35px" width="30.1px" xmlns="http://www.w3.org/2000/svg">
  <g transform="matrix(1.0, 0.0, 0.0, 1.0, 15.05, 28.8)">
    <path d="M-8.8 -25.65 Q-8.8 -24.35 -9.7 -23.45 -10.65 -22.5 -11.95 -22.5 -13.2 -22.5 -14.15 -23.45 -15.05 -24.35 -15.05 -25.65 -15.05 -26.95 -14.15 -27.9 -13.25 -28.8 -11.95 -28.8 -10.65 -28.8 -9.7 -27.9 -8.8 -26.95 -8.8 -25.65" fill="#000000" fill-rule="evenodd" stroke="none"/>
    <path d="M11.9 -22.5 Q10.65 -22.5 9.7 -23.45 8.8 -24.35 8.8 -25.65 8.8 -26.95 9.7 -27.9 10.6 -28.8 11.9 -28.8 13.2 -28.8 14.15 -27.9 15.05 -26.95 15.05 -25.65 15.05 -24.35 14.15 -23.45 13.2 -22.5 11.9 -22.5" fill="#000000" fill-rule="evenodd" stroke="none"/>
    <path d="M-0.1 -7.45 Q-3.55 -7.45 -6.0 -8.35 -8.45 -9.3 -8.45 -10.6 L-8.3 -11.15 Q-7.7 -13.3 -6.2 -14.95 -3.9 -17.5 -0.1 -17.5 3.7 -17.5 6.05 -14.95 7.45 -13.4 8.15 -11.15 L8.3 -10.6 Q8.3 -9.3 5.85 -8.35 3.4 -7.45 -0.1 -7.45" fill="#000000" fill-rule="evenodd" stroke="none"/>
  </g>
</svg>
