<?xml version="1.0" encoding="UTF-8" standalone="no"?>
<svg xmlns:xlink="http://www.w3.org/1999/xlink" height="90.3px" width="71.5px" xmlns="http://www.w3.org/2000/svg">
  <g transform="matrix(1.0, 0.0, 0.0, 1.0, 35.75, 45.15)">
    <path d="M-16.35 -17.45 L-16.35 -20.05 Q-18.8 -19.45 -22.4 -20.7 -25.05 -21.6 -26.7 -22.95 -28.35 -24.35 -28.0 -25.35 -27.65 -26.4 -25.55 -26.5 -23.4 -26.6 -20.75 -25.7 -17.95 -24.7 -16.35 -23.35 L-16.35 -26.6 Q-24.35 -27.8 -31.6 -31.75 L-31.6 -12.05 Q-24.5 -16.15 -16.35 -17.45 M-13.05 -26.25 L-13.05 -17.8 Q-0.8 -18.7 10.0 -12.1 L10.0 -31.7 Q-0.8 -25.45 -13.05 -26.25 M-35.75 -45.15 L14.2 -45.15 14.2 -17.75 Q17.8 -15.4 21.45 -11.65 27.95 -4.95 31.6 3.6 25.6 10.25 15.15 12.9 7.7 14.8 -1.1 14.5 L-1.15 14.3 -1.15 14.0 -1.2 14.0 Q-2.15 8.1 -4.05 2.6 L-35.75 2.6 -35.75 -45.15" fill="#000000" fill-rule="evenodd" stroke="none"/>
    <path d="M-0.65 17.9 Q8.2 18.2 15.85 16.25 26.35 13.65 32.9 7.1 38.7 24.15 32.6 45.15 L-4.1 45.15 Q0.95 32.5 -0.65 17.9" fill="#000000" fill-rule="evenodd" stroke="none"/>
    <path d="M-16.35 -20.05 L-16.35 -17.45 Q-24.5 -16.15 -31.6 -12.05 L-31.6 -31.75 Q-24.35 -27.8 -16.35 -26.6 L-16.35 -23.35 Q-17.95 -24.7 -20.75 -25.7 -23.4 -26.6 -25.55 -26.5 -27.65 -26.4 -28.0 -25.35 -28.35 -24.35 -26.7 -22.95 -25.05 -21.6 -22.4 -20.7 -18.8 -19.45 -16.35 -20.05" fill="#ffffff" fill-rule="evenodd" stroke="none"/>
  </g>
</svg>
