<?xml version="1.0" encoding="UTF-8" standalone="no"?>
<svg xmlns:xlink="http://www.w3.org/1999/xlink" height="44.3px" width="39.45px" xmlns="http://www.w3.org/2000/svg">
  <g transform="matrix(1.0, 0.0, 0.0, 1.0, 6.55, 26.35)">
    <path d="M0.85 -20.45 Q-1.75 -19.45 -3.9 -19.45 -6.05 -19.5 -6.45 -20.5 -6.85 -21.5 -5.25 -22.95 -3.65 -24.4 -1.05 -25.35 1.6 -26.35 3.75 -26.35 5.9 -26.35 6.25 -25.3 6.65 -24.3 5.05 -22.85 3.45 -21.4 0.85 -20.45" fill="#000000" fill-rule="evenodd" stroke="none"/>
    <path d="M31.6 3.6 L31.65 3.55 32.9 7.1 Q26.35 13.65 15.85 16.25 8.2 18.2 -0.65 17.9 L-0.7 17.9 -1.1 14.5 Q7.7 14.8 15.15 12.9 25.6 10.25 31.6 3.6" fill="#ffffff" fill-rule="evenodd" stroke="none"/>
  </g>
</svg>
