<?xml version="1.0" encoding="UTF-8" standalone="no"?>
<svg xmlns:xlink="http://www.w3.org/1999/xlink" height="44.25px" width="35.1px" xmlns="http://www.w3.org/2000/svg">
  <g transform="matrix(1.0, 0.0, 0.0, 1.0, 0.0, 0.0)">
    <path d="M14.65 28.2 Q12.55 27.8 10.5 26.9 L8.75 26.0 Q8.15 25.6 7.45 25.75 6.8 25.9 6.4 26.5 6.0 27.1 6.15 27.8 6.3 28.5 6.9 28.9 9.9 30.8 13.95 31.6 22.0 33.25 28.95 28.9 29.55 28.55 29.7 27.85 29.9 27.15 29.5 26.5 29.15 25.9 28.45 25.75 L27.1 25.95 Q21.35 29.55 14.65 28.2 M16.35 34.8 Q14.2 34.4 13.55 33.75 L12.6 33.6 Q12.05 33.7 11.75 34.15 11.45 34.6 11.6 35.15 11.7 35.65 12.15 35.95 L15.8 37.35 Q20.05 38.2 23.65 35.95 L24.25 35.15 Q24.35 34.65 24.05 34.15 23.8 33.7 23.25 33.6 L22.3 33.75 Q19.55 35.45 16.35 34.8 M15.65 10.85 Q15.1 10.3 14.3 10.3 L4.6 10.3 Q3.8 10.3 3.25 10.85 2.7 11.4 2.7 12.2 2.7 13.0 3.25 13.55 3.8 14.1 4.6 14.1 L7.0 14.1 Q7.15 15.1 7.95 15.75 8.75 16.45 9.8 16.45 10.85 16.45 11.65 15.75 12.4 15.1 12.6 14.1 L14.3 14.1 Q15.1 14.1 15.65 13.55 16.2 13.0 16.2 12.2 16.2 11.4 15.65 10.85 M34.8 0.45 L35.1 7.1 Q35.1 22.2 29.9 33.25 24.7 44.25 17.55 44.25 10.4 44.25 5.2 33.25 0.0 22.2 0.0 7.1 0.0 3.3 0.35 0.0 3.5 2.5 8.0 3.95 12.65 5.4 17.85 5.4 22.8 5.4 27.25 4.05 31.6 2.8 34.8 0.45 M32.25 10.85 Q31.7 10.3 30.9 10.3 L21.2 10.3 Q20.4 10.3 19.85 10.85 19.3 11.4 19.3 12.2 19.3 13.0 19.85 13.55 20.4 14.1 21.2 14.1 L23.1 14.1 Q23.3 15.1 24.05 15.75 24.85 16.45 25.9 16.45 26.95 16.45 27.75 15.75 28.55 15.1 28.7 14.1 L30.9 14.1 Q31.7 14.1 32.25 13.55 32.8 13.0 32.8 12.2 32.8 11.4 32.25 10.85" fill="#ffffff" fill-rule="evenodd" stroke="none"/>
  </g>
</svg>
