<?xml version="1.0" encoding="UTF-8" standalone="no"?>
<svg xmlns:xlink="http://www.w3.org/1999/xlink" height="100.35px" width="30.55px" xmlns="http://www.w3.org/2000/svg">
  <g transform="matrix(1.0, 0.0, 0.0, 1.0, 15.4, 30.95)">
    <path d="M-3.8 -30.95 Q-3.0 -30.95 -2.45 -30.4 -1.9 -29.85 -1.9 -29.05 -1.9 -28.25 -2.45 -27.7 -3.0 -27.15 -3.8 -27.15 L-5.5 -27.15 Q-5.7 -26.15 -6.45 -25.5 -7.25 -24.8 -8.3 -24.8 -9.35 -24.8 -10.15 -25.5 -10.95 -26.15 -11.1 -27.15 L-13.5 -27.15 Q-14.3 -27.15 -14.85 -27.7 -15.4 -28.25 -15.4 -29.05 -15.4 -29.85 -14.85 -30.4 -14.3 -30.95 -13.5 -30.95 L-3.8 -30.95" fill="#000000" fill-rule="evenodd" stroke="none"/>
    <path d="M12.8 -30.95 Q13.6 -30.95 14.15 -30.4 14.7 -29.85 14.7 -29.05 14.7 -28.25 14.15 -27.7 13.6 -27.15 12.8 -27.15 L10.6 -27.15 Q10.45 -26.15 9.65 -25.5 8.85 -24.8 7.8 -24.8 6.75 -24.8 5.95 -25.5 5.2 -26.15 5.0 -27.15 L3.1 -27.15 Q2.3 -27.15 1.75 -27.7 1.2 -28.25 1.2 -29.05 1.2 -29.85 1.75 -30.4 2.3 -30.95 3.1 -30.95 L12.8 -30.95" fill="#000000" fill-rule="evenodd" stroke="none"/>
    <path d="M-11.7 -14.75 Q-11.3 -15.35 -10.65 -15.5 -9.95 -15.65 -9.35 -15.25 L-7.6 -14.35 Q-5.55 -13.45 -3.45 -13.05 3.25 -11.7 9.0 -15.3 L10.35 -15.5 Q11.05 -15.35 11.4 -14.75 11.8 -14.1 11.6 -13.4 11.45 -12.7 10.85 -12.35 3.9 -8.0 -4.15 -9.65 -6.7 -10.15 -9.1 -11.25 -10.45 -11.85 -11.2 -12.35 -11.8 -12.75 -11.95 -13.45 -12.1 -14.15 -11.7 -14.75" fill="#000000" fill-rule="evenodd" stroke="none"/>
    <path d="M6.15 -6.1 Q6.0 -5.55 5.55 -5.3 1.95 -3.05 -2.3 -3.9 L-5.95 -5.3 -6.5 -6.1 -6.35 -7.1 Q-6.05 -7.55 -5.5 -7.65 L-4.55 -7.5 Q-3.9 -6.85 -1.75 -6.45 1.45 -5.8 4.2 -7.5 L5.15 -7.65 Q5.7 -7.55 5.95 -7.1 6.25 -6.6 6.15 -6.1" fill="#000000" fill-rule="evenodd" stroke="none"/>
    <path d="M12.5 23.9 L15.15 23.9 15.15 69.4 12.5 69.4 12.5 23.9" fill="#ffffff" fill-rule="evenodd" stroke="none"/>
    <path d="M7.15 23.9 L9.75 23.9 9.75 69.4 7.15 69.4 7.15 23.9" fill="#ffffff" fill-rule="evenodd" stroke="none"/>
  </g>
</svg>
