<?xml version="1.0" encoding="UTF-8" standalone="no"?>
<svg xmlns:xlink="http://www.w3.org/1999/xlink" height="89.0px" width="74.8px" xmlns="http://www.w3.org/2000/svg">
  <g transform="matrix(1.0, 0.0, 0.0, 1.0, 37.4, 44.5)">
    <path d="M21.45 4.95 L21.45 -10.1 Q26.9 -5.4 30.0 1.15 33.15 7.95 33.15 15.55 L33.1 16.95 Q13.25 29.7 -10.15 25.45 -23.0 23.1 -32.95 16.95 L-33.0 15.55 Q-33.0 8.1 -29.95 1.4 -26.95 -5.1 -21.65 -9.8 L-21.65 4.95 Q-21.65 10.9 -17.45 15.15 -13.2 19.35 -7.25 19.35 L7.05 19.35 Q13.0 19.35 17.25 15.15 21.45 10.9 21.45 4.95" fill="#ffffff" fill-rule="evenodd" stroke="none"/>
    <path d="M11.05 -8.25 Q9.45 -7.45 7.7 -7.45 4.55 -7.45 2.3 -9.7 0.05 -11.95 0.05 -15.15 0.05 -17.45 1.35 -19.4 L-14.25 -37.45 Q-17.4 -34.45 -17.4 -30.1 L-17.4 4.95 Q-17.4 7.65 -16.0 10.1 L-16.2 8.55 Q-16.2 4.55 -11.45 1.75 -6.7 -1.05 0.05 -1.05 6.75 -1.05 11.55 1.75 16.3 4.6 16.3 8.55 L16.2 9.25 Q17.2 7.25 17.2 4.95 L17.2 -1.15 11.05 -8.25 M21.45 -10.1 L21.45 4.95 Q21.45 10.9 17.25 15.15 13.0 19.35 7.05 19.35 L-7.25 19.35 Q-13.2 19.35 -17.45 15.15 -21.65 10.9 -21.65 4.95 L-21.65 -9.8 Q-26.95 -5.1 -29.95 1.4 -33.0 8.1 -33.0 15.55 L-32.95 16.95 Q-23.0 23.1 -10.15 25.45 13.25 29.7 33.1 16.95 L33.15 15.55 Q33.15 7.95 30.0 1.15 26.9 -5.4 21.45 -10.1 M7.7 -22.8 Q10.9 -22.8 13.15 -20.55 15.4 -18.3 15.4 -15.15 15.4 -12.45 13.7 -10.35 L17.2 -6.35 17.2 -30.1 Q17.2 -34.3 14.25 -37.25 11.25 -40.25 7.05 -40.25 L-7.25 -40.25 Q-9.5 -40.25 -11.4 -39.35 L3.85 -21.75 Q5.7 -22.8 7.7 -22.8 M-7.25 -44.5 L7.05 -44.5 Q13.0 -44.5 17.25 -40.3 21.45 -36.05 21.45 -30.1 L21.45 -15.5 Q28.8 -10.25 33.05 -2.2 37.4 6.1 37.4 15.55 37.4 18.5 36.95 21.25 L36.95 44.5 -37.4 44.5 -37.4 16.1 -37.25 16.1 -37.25 15.55 Q-37.25 6.2 -33.0 -2.05 -28.85 -10.0 -21.65 -15.25 L-21.65 -30.1 Q-21.65 -36.05 -17.45 -40.3 -13.2 -44.5 -7.25 -44.5" fill="#000000" fill-rule="evenodd" stroke="none"/>
  </g>
</svg>
