<?xml version="1.0" encoding="UTF-8" standalone="no"?>
<svg xmlns:xlink="http://www.w3.org/1999/xlink" height="47.55px" width="34.6px" xmlns="http://www.w3.org/2000/svg">
  <g transform="matrix(1.0, 0.0, 0.0, 1.0, 0.0, 0.0)">
    <path d="M3.3 21.2 Q3.55 23.1 5.0 24.35 6.5 25.65 8.45 25.65 10.4 25.65 11.85 24.35 13.3 23.1 13.6 21.2 L3.3 21.2 M0.0 7.35 Q0.0 3.0 3.15 0.0 L18.75 18.05 Q17.45 20.0 17.45 22.3 17.45 25.5 19.7 27.75 21.95 30.0 25.1 30.0 26.85 30.0 28.45 29.2 L34.6 36.3 34.6 42.4 Q34.6 44.7 33.6 46.7 L33.7 46.0 Q33.7 42.05 28.95 39.2 24.15 36.4 17.45 36.4 10.7 36.4 5.95 39.2 1.2 42.0 1.2 46.0 L1.4 47.55 Q0.0 45.1 0.0 42.4 L0.0 7.35 M4.85 5.0 L4.55 4.3 Q4.2 4.0 3.8 4.0 3.4 4.0 3.1 4.3 2.8 4.6 2.8 5.0 2.8 5.4 3.1 5.7 3.4 6.0 3.8 6.0 4.2 6.0 4.55 5.7 L4.85 5.0" fill="#ffffff" fill-rule="evenodd" stroke="none"/>
  </g>
</svg>
