<?xml version="1.0" encoding="UTF-8" standalone="no"?>
<svg xmlns:xlink="http://www.w3.org/1999/xlink" height="33.9px" width="28.6px" xmlns="http://www.w3.org/2000/svg">
  <g transform="matrix(1.0, 0.0, 0.0, 1.0, 0.0, 0.0)">
    <path d="M10.85 7.9 Q11.4 7.35 11.4 6.55 11.4 5.75 10.85 5.15 10.3 4.6 9.45 4.6 8.65 4.6 8.1 5.15 7.55 5.75 7.55 6.55 7.55 7.35 8.1 7.9 8.65 8.45 9.45 8.45 10.25 8.45 10.85 7.9 M13.1 3.3 Q13.45 3.6 13.85 3.6 L14.55 3.3 14.85 2.6 14.55 1.9 13.85 1.6 Q13.45 1.6 13.1 1.9 12.8 2.2 12.8 2.6 12.8 3.0 13.1 3.3 M25.65 3.0 Q28.6 5.95 28.6 10.15 L28.6 33.9 25.1 29.9 Q26.8 27.8 26.8 25.1 26.8 21.95 24.55 19.7 22.3 17.45 19.1 17.45 17.1 17.45 15.25 18.5 L0.0 0.9 Q1.9 0.0 4.15 0.0 L18.45 0.0 Q22.65 0.0 25.65 3.0 M24.9 8.25 Q24.9 8.65 25.2 8.95 25.5 9.25 25.9 9.25 26.3 9.25 26.65 8.95 L26.95 8.25 26.65 7.5 Q26.3 7.2 25.9 7.2 25.5 7.2 25.2 7.5 24.9 7.8 24.9 8.25 M20.85 7.65 Q21.4 7.1 21.4 6.3 21.4 5.5 20.85 4.95 20.3 4.4 19.5 4.4 18.7 4.4 18.1 4.95 17.55 5.5 17.55 6.3 17.55 7.1 18.1 7.65 18.7 8.25 19.5 8.25 20.3 8.25 20.85 7.65" fill="#ffffff" fill-rule="evenodd" stroke="none"/>
  </g>
</svg>
