<?xml version="1.0" encoding="UTF-8" standalone="no"?>
<svg xmlns:xlink="http://www.w3.org/1999/xlink" height="110.55px" width="80.75px" xmlns="http://www.w3.org/2000/svg">
  <g transform="matrix(1.0, 0.0, 0.0, 1.0, 40.35, 54.9)">
    <path d="M-1.25 -54.9 L1.35 -54.9 1.35 -40.95 7.75 -40.95 7.75 -54.85 Q13.1 -54.75 16.85 -50.9 20.6 -47.05 20.6 -41.7 L20.6 -39.3 2.35 -32.4 Q1.7 -32.15 1.4 -31.5 1.15 -30.85 1.35 -30.2 1.6 -29.55 2.25 -29.25 L3.6 -29.2 3.75 -29.3 Q4.55 -25.65 7.45 -23.3 10.35 -20.9 14.15 -20.9 17.65 -20.9 20.6 -23.1 L20.6 -15.75 -19.6 -15.75 -19.6 -22.95 Q-16.75 -20.9 -13.35 -20.9 -9.6 -20.9 -6.65 -23.3 -3.8 -25.65 -3.0 -29.25 L-2.35 -29.0 -1.05 -29.05 Q-0.4 -29.3 -0.15 -30.0 0.1 -30.65 -0.2 -31.3 -0.45 -31.95 -1.15 -32.2 L-19.6 -39.2 -19.6 -41.7 Q-19.6 -46.8 -16.15 -50.6 -12.7 -54.35 -7.65 -54.85 L-7.65 -40.95 -1.25 -40.95 -1.25 -54.9" fill="#ffffff" fill-rule="evenodd" stroke="none"/>
    <path d="M8.2 -6.95 Q10.6 -6.95 12.35 -5.75 14.05 -4.6 14.05 -2.9 14.05 -1.2 12.35 -0.05 10.6 1.15 8.2 1.15 L-8.3 1.15 Q-10.7 1.15 -12.4 -0.05 -14.15 -1.2 -14.15 -2.9 -14.15 -4.6 -12.4 -5.75 -10.7 -6.95 -8.3 -6.95 L8.2 -6.95" fill="#000000" fill-rule="evenodd" stroke="none"/>
    <path d="M-28.6 55.65 L-32.05 55.65 -40.35 24.85 -38.15 21.2 -28.6 55.65" fill="#ffffff" fill-rule="evenodd" stroke="none"/>
    <path d="M38.2 22.0 L40.4 25.55 32.1 55.65 28.6 55.65 38.2 22.0" fill="#ffffff" fill-rule="evenodd" stroke="none"/>
  </g>
</svg>
