<?xml version="1.0" encoding="UTF-8" standalone="no"?>
<svg xmlns:xlink="http://www.w3.org/1999/xlink" height="50.75px" width="26.1px" xmlns="http://www.w3.org/2000/svg">
  <g transform="matrix(1.0, 0.0, 0.0, 1.0, 34.35, 61.15)">
    <path d="M-28.85 -16.3 Q-27.9 -13.25 -26.2 -10.5 L-27.65 -10.4 Q-31.6 -10.45 -34.35 -13.4 -31.45 -13.7 -28.85 -16.3" fill="#ffffff" fill-rule="evenodd" stroke="none"/>
    <path d="M-24.55 -39.55 Q-25.1 -41.95 -25.1 -43.8 -25.0 -48.35 -22.25 -49.85 -20.15 -51.0 -17.95 -51.0 -14.8 -51.05 -11.7 -48.55 L-11.4 -48.3 -12.65 -47.9 Q-14.7 -48.65 -16.9 -48.65 -20.05 -48.75 -22.25 -46.75 L-22.0 -46.7 Q-21.25 -47.35 -19.25 -47.3 L-16.25 -46.9 -15.5 -46.75 Q-20.85 -44.25 -24.55 -39.55" fill="#ffffff" fill-rule="evenodd" stroke="none"/>
    <path d="M-30.0 -44.85 Q-29.9 -54.3 -22.25 -59.0 -18.7 -61.15 -16.0 -61.15 -12.25 -61.15 -9.8 -56.55 L-8.45 -53.0 -8.25 -52.15 -8.35 -48.95 -8.6 -48.9 Q-12.75 -53.3 -17.95 -53.35 -20.75 -53.35 -23.4 -51.9 -27.5 -49.6 -27.4 -43.8 -27.4 -40.75 -26.3 -37.0 L-27.9 -33.9 Q-30.0 -39.95 -30.0 -44.85" fill="#ffffff" fill-rule="evenodd" stroke="none"/>
  </g>
</svg>
