<?xml version="1.0" encoding="UTF-8" standalone="no"?>
<svg xmlns:xlink="http://www.w3.org/1999/xlink" height="62.9px" width="50.3px" xmlns="http://www.w3.org/2000/svg">
  <g transform="matrix(1.0, 0.0, 0.0, 1.0, 0.0, 0.0)">
    <path d="M38.65 23.7 L38.65 20.55 11.3 20.55 11.3 23.7 38.65 23.7 M40.5 10.75 L40.55 10.75 Q40.85 27.55 42.65 40.0 45.15 57.65 50.25 62.85 L50.3 62.9 0.0 62.9 0.05 62.85 Q5.15 57.65 7.7 40.0 9.45 27.7 9.8 10.7 12.75 10.4 14.75 8.2 16.75 6.0 16.75 3.0 16.75 1.45 16.15 0.0 L20.35 1.15 24.95 10.8 29.55 1.1 33.3 0.1 Q32.7 1.45 32.7 3.0 32.7 6.2 35.0 8.5 37.25 10.75 40.5 10.75" fill="#000000" fill-rule="evenodd" stroke="none"/>
  </g>
</svg>
