<?xml version="1.0" encoding="UTF-8" standalone="no"?>
<svg xmlns:xlink="http://www.w3.org/1999/xlink" height="138.85px" width="69.5px" xmlns="http://www.w3.org/2000/svg">
  <g transform="matrix(1.0, 0.0, 0.0, 1.0, 34.75, 69.4)">
    <path d="M-11.45 36.45 L-3.25 44.6 -3.25 45.1 -3.0 44.85 -2.75 45.1 -2.75 44.6 10.25 31.6 3.6 21.35 -11.45 36.45 M-3.25 10.6 L-3.25 11.4 -16.25 31.6 -13.6 34.3 1.95 18.75 -2.75 11.4 -2.75 10.6 -3.0 11.0 -3.25 10.6 M16.7 2.6 L19.85 2.6 19.25 1.8 Q17.55 -0.4 15.2 -2.3 7.9 -8.35 -2.75 -8.4 -12.7 -8.35 -19.05 -2.95 -22.05 -0.45 -23.55 2.6 L-20.4 2.6 Q-14.7 7.6 -2.25 7.6 10.75 7.6 16.7 2.65 L16.7 2.6 M-2.75 -23.9 L-8.4 -23.9 Q-8.75 -22.35 -9.95 -21.4 -11.15 -20.4 -12.75 -20.4 -14.35 -20.4 -15.6 -21.4 -16.8 -22.35 -17.15 -23.9 L-23.8 -23.9 -23.8 -3.95 -22.4 -5.35 Q-19.1 -8.4 -14.7 -10.2 -9.3 -12.4 -2.75 -12.35 9.05 -12.4 17.75 -5.45 L20.25 -3.15 20.2 -40.85 Q8.65 -40.35 2.95 -34.45 0.85 -32.25 -0.25 -29.45 -1.0 -27.6 -1.2 -25.9 L-1.25 -25.35 Q-1.3 -24.7 -1.7 -24.3 -2.15 -23.9 -2.75 -23.9 M-18.8 -69.4 Q-15.75 -69.4 -13.35 -67.6 -11.0 -65.8 -10.15 -62.95 -9.3 -65.8 -6.95 -67.6 -4.55 -69.4 -1.55 -69.4 1.4 -69.4 3.75 -67.7 6.05 -66.05 6.95 -63.35 7.9 -66.05 10.2 -67.7 12.55 -69.4 15.45 -69.4 19.2 -69.4 21.85 -66.75 24.5 -64.1 24.5 -60.4 L24.2 -58.3 24.2 -55.95 Q27.2 -55.2 29.1 -52.8 31.05 -50.35 31.05 -47.2 31.05 -44.1 29.1 -41.6 27.2 -39.2 24.2 -38.45 L24.2 -14.9 34.75 -14.9 34.75 69.45 -34.75 69.45 -34.75 -14.9 -27.75 -14.9 -27.75 -38.45 Q-30.75 -39.2 -32.65 -41.6 -34.6 -44.1 -34.6 -47.2 -34.6 -50.35 -32.65 -52.8 -30.75 -55.2 -27.75 -55.95 L-27.8 -60.4 Q-27.8 -64.1 -25.15 -66.75 -22.5 -69.4 -18.8 -69.4 M-13.35 -53.2 Q-15.75 -51.4 -18.8 -51.4 -21.5 -51.4 -23.8 -52.9 L-23.8 -26.9 -4.1 -26.9 Q-3.35 -31.25 -0.65 -34.8 2.15 -38.5 6.75 -40.8 12.35 -43.55 20.2 -43.85 L20.2 -52.75 Q18.05 -51.4 15.45 -51.4 12.55 -51.4 10.2 -53.1 7.9 -54.75 6.95 -57.4 6.05 -54.75 3.75 -53.1 1.4 -51.4 -1.55 -51.4 -4.55 -51.4 -6.95 -53.2 -9.3 -55.0 -10.15 -57.8 -11.0 -55.0 -13.35 -53.2" fill="#000000" fill-rule="evenodd" stroke="none"/>
    <path d="M-23.8 -26.9 L-23.8 -52.9 Q-21.5 -51.4 -18.8 -51.4 -15.75 -51.4 -13.35 -53.2 -11.0 -55.0 -10.15 -57.8 -9.3 -55.0 -6.95 -53.2 -4.55 -51.4 -1.55 -51.4 1.4 -51.4 3.75 -53.1 6.05 -54.75 6.95 -57.4 7.9 -54.75 10.2 -53.1 12.55 -51.4 15.45 -51.4 18.05 -51.4 20.2 -52.75 L20.2 -43.85 Q12.35 -43.55 6.75 -40.8 2.15 -38.5 -0.65 -34.8 -3.35 -31.25 -4.1 -26.9 L-23.8 -26.9" fill="#ffffff" fill-rule="evenodd" stroke="none"/>
    <path d="M5.75 -24.9 Q5.75 -23.0 7.05 -21.7 8.4 -20.4 10.25 -20.4 12.1 -20.4 13.4 -21.7 14.75 -23.05 14.75 -24.9 14.75 -26.75 13.4 -28.05 12.1 -29.4 10.25 -29.4 8.4 -29.4 7.05 -28.05 5.75 -26.75 5.75 -24.9 M-23.8 -23.9 L-17.15 -23.9 Q-16.8 -22.35 -15.6 -21.4 -14.35 -20.4 -12.75 -20.4 -11.15 -20.4 -9.95 -21.4 -8.75 -22.35 -8.4 -23.9 L-2.75 -23.9 Q-2.15 -23.9 -1.7 -24.3 -1.3 -24.7 -1.25 -25.35 L-1.2 -25.9 Q-1.0 -27.6 -0.25 -29.45 0.85 -32.25 2.95 -34.45 8.65 -40.35 20.2 -40.85 L20.25 -3.15 17.75 -5.45 Q9.05 -12.4 -2.75 -12.35 -9.3 -12.4 -14.7 -10.2 -19.1 -8.4 -22.4 -5.35 L-23.8 -3.95 -23.8 -23.9" fill="#ffffff" fill-rule="evenodd" stroke="none"/>
    <path d="M14.75 -24.9 Q14.75 -23.05 13.4 -21.7 12.1 -20.4 10.25 -20.4 8.4 -20.4 7.05 -21.7 5.75 -23.0 5.75 -24.9 5.75 -26.75 7.05 -28.05 8.4 -29.4 10.25 -29.4 12.1 -29.4 13.4 -28.05 14.75 -26.75 14.75 -24.9" fill="#000000" fill-rule="evenodd" stroke="none"/>
    <path d="M19.25 1.8 L19.85 2.6 16.7 2.6 16.7 2.65 Q10.75 7.6 -2.25 7.6 -14.7 7.6 -20.4 2.6 L-23.55 2.6 Q-22.05 -0.45 -19.05 -2.95 -12.7 -8.35 -2.75 -8.4 7.9 -8.35 15.2 -2.3 17.55 -0.4 19.25 1.8" fill="#ffffff" fill-rule="evenodd" stroke="none"/>
    <path d="M-2.75 44.6 L-2.75 45.1 -3.0 44.85 -3.25 45.1 -3.25 44.6 -11.45 36.45 3.6 21.35 10.25 31.6 -2.75 44.6" fill="#ffffff" fill-rule="evenodd" stroke="none"/>
    <path d="M-3.25 11.4 L-3.25 10.6 -3.0 11.0 -2.75 10.6 -2.75 11.4 1.95 18.75 -13.6 34.3 -16.25 31.6 -3.25 11.4" fill="#ffffff" fill-rule="evenodd" stroke="none"/>
  </g>
</svg>
