<?xml version="1.0" encoding="UTF-8" standalone="no"?>
<svg xmlns:xlink="http://www.w3.org/1999/xlink" height="106.6px" width="59.9px" xmlns="http://www.w3.org/2000/svg">
  <g transform="matrix(1.0, 0.0, 0.0, 1.0, 29.95, 53.3)">
    <path d="M-21.4 23.55 L-21.7 24.2 -22.2 24.6 -22.6 25.95 Q-24.2 29.05 -25.25 30.45 -26.8 32.6 -27.4 31.35 -27.9 30.4 -27.65 28.85 -27.45 27.3 -25.9 23.8 L-24.6 20.85 Q-22.75 22.9 -21.4 23.55" fill="#ffffff" fill-rule="evenodd" stroke="none"/>
    <path d="M25.35 21.3 Q26.9 24.65 27.35 27.35 27.75 29.7 26.25 29.9 24.85 30.05 23.3 28.45 L20.75 25.3 23.65 22.55 25.35 21.3" fill="#ffffff" fill-rule="evenodd" stroke="none"/>
    <path d="M-17.4 46.25 L-17.05 46.5 -16.3 46.75 -16.65 47.05 Q-17.75 48.85 -19.5 49.8 -21.6 50.95 -22.5 49.15 -23.0 48.2 -23.2 46.25 L-17.4 46.25" fill="#ffffff" fill-rule="evenodd" stroke="none"/>
    <path d="M13.95 46.1 L20.55 46.1 20.55 46.25 Q20.2 48.45 19.25 49.9 18.2 51.5 16.3 49.45 L13.95 46.1" fill="#ffffff" fill-rule="evenodd" stroke="none"/>
    <path d="M-4.2 -44.05 Q-4.0 -45.9 -5.35 -46.0 -6.2 -46.05 -6.6 -45.1 L-6.8 -44.2 -7.85 -20.8 -5.2 -21.95 -4.2 -44.05 M9.75 -50.25 Q11.2 -50.2 12.1 -49.2 12.95 -48.25 13.25 -46.4 L13.35 -43.95 12.2 -18.55 12.65 -18.15 Q15.75 -15.5 17.35 -11.8 18.95 -8.1 18.75 -4.1 18.55 0.8 15.8 4.85 13.1 8.8 8.75 10.95 L1.3 3.35 6.55 -1.35 Q7.95 -0.25 9.9 -0.1 12.35 0.0 14.15 -1.65 16.0 -3.35 16.1 -5.8 16.2 -8.25 14.55 -10.05 12.85 -11.9 10.4 -12.0 7.95 -12.1 6.15 -10.45 4.3 -8.75 4.2 -6.3 4.15 -4.25 5.35 -2.55 L0.1 2.15 -4.85 -2.95 Q-3.4 -4.65 -3.35 -6.65 -3.25 -9.1 -4.9 -10.95 -6.55 -12.75 -9.0 -12.85 -11.45 -12.95 -13.3 -11.3 -15.1 -9.65 -15.2 -7.2 -15.3 -4.7 -13.65 -2.9 -12.0 -1.1 -9.55 -1.0 -7.65 -0.9 -6.15 -1.9 L-1.15 3.25 -9.05 10.3 Q-13.3 7.8 -15.75 3.6 -18.2 -0.75 -18.0 -5.75 -17.8 -9.7 -15.95 -13.15 -14.05 -16.65 -10.85 -19.1 L-10.35 -19.4 -9.25 -44.9 -8.9 -47.35 Q-8.45 -49.2 -7.5 -50.1 -6.55 -50.95 -5.1 -50.9 -3.7 -50.9 -2.85 -49.9 -1.95 -48.9 -1.65 -46.95 -1.45 -45.55 -1.55 -44.35 L-2.5 -22.55 -1.15 -22.65 1.15 -22.7 3.35 -22.5 4.65 -22.3 5.65 -44.1 Q5.65 -45.3 6.0 -46.6 6.45 -48.55 7.4 -49.45 8.35 -50.3 9.75 -50.25 M8.25 -44.5 L8.1 -43.6 7.1 -21.5 9.65 -20.1 10.7 -43.5 10.6 -44.45 Q10.35 -45.35 9.45 -45.4 8.6 -45.45 8.25 -44.5" fill="#ffffff" fill-rule="evenodd" stroke="none"/>
    <path d="M7.1 11.65 Q3.4 13.05 -0.4 12.85 -4.15 12.7 -7.5 11.15 L0.05 4.45 7.1 11.65" fill="#ffffff" fill-rule="evenodd" stroke="none"/>
    <path d="M-6.8 -44.2 L-6.6 -45.1 Q-6.2 -46.05 -5.35 -46.0 -4.0 -45.9 -4.2 -44.05 L-5.2 -21.95 -7.85 -20.8 -6.8 -44.2" fill="#000000" fill-rule="evenodd" stroke="none"/>
    <path d="M8.1 -43.6 L8.25 -44.5 Q8.6 -45.45 9.45 -45.4 10.35 -45.35 10.6 -44.45 L10.7 -43.5 9.65 -20.1 7.1 -21.5 8.1 -43.6" fill="#000000" fill-rule="evenodd" stroke="none"/>
    <path d="M-17.05 46.5 L-17.4 46.25 -23.2 46.25 Q-23.0 48.2 -22.5 49.15 -21.6 50.95 -19.5 49.8 -17.75 48.85 -16.65 47.05 L-16.3 46.75 -17.05 46.5 M-25.9 23.8 Q-27.45 27.3 -27.65 28.85 -27.9 30.4 -27.4 31.35 -26.8 32.6 -25.25 30.45 -24.2 29.05 -22.6 25.95 L-22.2 24.6 -21.7 24.2 -21.4 23.55 Q-22.75 22.9 -24.6 20.85 L-25.9 23.8 M-0.4 12.85 Q3.4 13.05 7.1 11.65 L0.05 4.45 -7.5 11.15 Q-4.15 12.7 -0.4 12.85 M-4.3 14.2 L-4.5 18.7 4.7 19.05 4.85 14.6 -4.3 14.2 M16.3 49.45 Q18.2 51.5 19.25 49.9 20.2 48.45 20.55 46.25 L20.55 46.1 13.95 46.1 16.3 49.45 M19.5 24.0 L19.6 24.05 20.0 23.6 19.5 24.0 M23.65 22.55 L20.75 25.3 23.3 28.45 Q24.85 30.05 26.25 29.9 27.75 29.7 27.35 27.35 26.9 24.65 25.35 21.3 L23.65 22.55 M9.9 -52.65 Q12.45 -52.5 13.9 -50.8 15.95 -48.45 15.75 -44.1 L14.65 -19.55 Q17.95 -16.55 19.65 -12.5 21.35 -8.45 21.15 -4.0 20.95 1.4 17.95 5.85 L21.2 10.65 24.4 15.45 27.9 21.25 Q29.8 24.9 29.95 27.65 30.05 29.85 29.15 31.25 28.15 32.75 26.0 33.05 23.8 33.35 21.65 31.1 22.85 36.5 23.15 39.8 23.65 44.6 22.85 48.25 21.7 53.65 17.25 53.25 12.8 52.85 11.8 47.7 L5.7 48.0 -0.45 47.7 -7.8 47.85 -15.05 47.05 -15.15 47.05 -15.1 47.1 Q-14.8 47.45 -14.9 48.0 -15.65 50.8 -17.65 52.2 -19.95 53.75 -22.55 52.6 -25.2 51.4 -25.55 45.95 -25.95 40.3 -24.45 33.1 L-25.9 33.65 Q-28.0 34.0 -29.1 32.65 -30.2 31.35 -29.9 29.25 -29.4 26.05 -27.65 22.3 L-24.2 15.85 -20.95 10.65 Q-19.0 7.7 -17.15 5.85 -20.7 0.45 -20.4 -5.85 -20.2 -10.2 -18.2 -14.05 -16.2 -17.9 -12.7 -20.65 L-11.65 -44.9 -11.6 -45.25 Q-11.4 -49.65 -9.15 -51.8 -7.5 -53.45 -5.0 -53.3 -2.6 -53.25 -1.05 -51.45 1.05 -49.1 0.85 -44.5 L0.0 -25.15 2.4 -25.05 3.25 -44.45 Q3.45 -48.95 5.75 -51.15 7.4 -52.7 9.9 -52.65 M13.35 -43.95 L13.25 -46.4 Q12.95 -48.25 12.1 -49.2 11.2 -50.2 9.75 -50.25 8.35 -50.3 7.4 -49.45 6.45 -48.55 6.0 -46.6 5.65 -45.3 5.65 -44.1 L4.65 -22.3 3.35 -22.5 1.15 -22.7 -1.15 -22.65 -2.5 -22.55 -1.55 -44.35 Q-1.45 -45.55 -1.65 -46.95 -1.95 -48.9 -2.85 -49.9 -3.7 -50.9 -5.1 -50.9 -6.55 -50.95 -7.5 -50.1 -8.45 -49.2 -8.9 -47.35 L-9.25 -44.9 -10.35 -19.4 -10.85 -19.1 Q-14.05 -16.65 -15.95 -13.15 -17.8 -9.7 -18.0 -5.75 -18.2 -0.75 -15.75 3.6 -13.3 7.8 -9.05 10.3 L-1.15 3.25 -6.15 -1.9 Q-7.65 -0.9 -9.55 -1.0 -12.0 -1.1 -13.65 -2.9 -15.3 -4.7 -15.2 -7.2 -15.1 -9.65 -13.3 -11.3 -11.45 -12.95 -9.0 -12.85 -6.55 -12.75 -4.9 -10.95 -3.25 -9.1 -3.35 -6.65 -3.4 -4.65 -4.85 -2.95 L0.1 2.15 5.35 -2.55 Q4.15 -4.25 4.2 -6.3 4.3 -8.75 6.15 -10.45 7.95 -12.1 10.4 -12.0 12.85 -11.9 14.55 -10.05 16.2 -8.25 16.1 -5.8 16.0 -3.35 14.15 -1.65 12.35 0.0 9.9 -0.1 7.95 -0.25 6.55 -1.35 L1.3 3.35 8.75 10.95 Q13.1 8.8 15.8 4.85 18.55 0.8 18.75 -4.1 18.95 -8.1 17.35 -11.8 15.75 -15.5 12.65 -18.15 L12.2 -18.55 13.35 -43.95" fill="#000000" fill-rule="evenodd" stroke="none"/>
    <path d="M4.7 19.05 L-4.5 18.7 -4.3 14.2 4.85 14.6 4.7 19.05" fill="#ffffff" fill-rule="evenodd" stroke="none"/>
  </g>
</svg>
