<?xml version="1.0" encoding="UTF-8" standalone="no"?>
<svg xmlns:xlink="http://www.w3.org/1999/xlink" height="54.2px" width="87.15px" xmlns="http://www.w3.org/2000/svg">
  <g transform="matrix(1.0, 0.0, 0.0, 1.0, 43.55, 27.1)">
    <path d="M17.95 -12.75 L17.85 -13.35 12.7 -13.35 12.65 -12.75 Q12.65 -11.65 13.4 -10.9 14.2 -10.1 15.3 -10.1 16.4 -10.1 17.15 -10.9 17.95 -11.65 17.95 -12.75 M40.35 5.2 L40.35 18.4 -34.55 18.4 -34.55 -23.9 -12.65 -23.9 -12.65 -13.15 Q-12.65 -8.4 -9.3 -5.0 -5.9 -1.65 -1.15 -1.65 3.6 -1.65 7.0 -5.0 10.35 -8.4 10.35 -13.15 L10.35 -23.9 24.3 -23.9 Q25.4 -19.6 27.65 -16.05 31.25 -10.5 36.7 -9.0 L36.7 2.55 33.55 2.45 Q22.6 2.45 8.3 6.8 7.9 6.95 7.7 7.35 7.5 7.75 7.6 8.15 7.85 8.9 8.65 8.9 L8.95 8.85 Q23.1 4.6 33.55 4.6 L40.0 5.15 40.35 5.2" fill="#ffffff" fill-rule="evenodd" stroke="none"/>
    <path d="M-9.45 -23.9 L7.1 -23.9 7.1 -13.15 Q7.1 -9.75 4.7 -7.3 2.25 -4.9 -1.15 -4.9 -4.55 -4.9 -7.0 -7.3 -9.4 -9.75 -9.45 -13.15 L-9.45 -23.9" fill="#ffffff" fill-rule="evenodd" stroke="none"/>
    <path d="M40.35 3.0 L37.75 2.65 37.75 -8.8 40.35 -8.5 40.35 3.0" fill="#ffffff" fill-rule="evenodd" stroke="none"/>
    <path d="M7.1 -23.9 L-9.45 -23.9 -9.45 -13.15 Q-9.4 -9.75 -7.0 -7.3 -4.55 -4.9 -1.15 -4.9 2.25 -4.9 4.7 -7.3 7.1 -9.75 7.1 -13.15 L7.1 -23.9 M43.6 21.65 L36.15 21.65 36.15 27.1 27.55 27.1 27.55 21.65 20.0 21.65 20.0 27.1 11.4 27.1 11.4 21.65 -7.7 21.65 -7.7 27.1 -16.3 27.1 -16.3 21.65 -23.0 21.65 -23.0 27.1 -31.6 27.1 -31.6 21.65 -37.8 21.65 -37.8 -6.1 Q-42.15 -2.45 -43.2 -3.75 -44.95 -5.95 -37.8 -10.35 L-37.8 -27.1 43.6 -27.1 43.6 21.65 M40.35 -8.5 L37.75 -8.8 37.75 2.65 40.35 3.0 40.35 -8.5 M40.35 5.2 L40.0 5.15 33.55 4.6 Q23.1 4.6 8.95 8.85 L8.65 8.9 Q7.85 8.9 7.6 8.15 7.5 7.75 7.7 7.35 7.9 6.95 8.3 6.8 22.6 2.45 33.55 2.45 L36.7 2.55 36.7 -9.0 Q31.25 -10.5 27.65 -16.05 25.4 -19.6 24.3 -23.9 L10.35 -23.9 10.35 -13.15 Q10.35 -8.4 7.0 -5.0 3.6 -1.65 -1.15 -1.65 -5.9 -1.65 -9.3 -5.0 -12.65 -8.4 -12.65 -13.15 L-12.65 -23.9 -34.55 -23.9 -34.55 18.4 40.35 18.4 40.35 5.2" fill="#000000" fill-rule="evenodd" stroke="none"/>
    <path d="M15.3 -10.1 Q14.2 -10.1 13.4 -10.9 12.65 -11.65 12.65 -12.75 L12.7 -13.35 17.85 -13.35 17.95 -12.75 Q17.95 -11.65 17.15 -10.9 16.4 -10.1 15.3 -10.1" fill="#000000" fill-rule="evenodd" stroke="none"/>
  </g>
</svg>
