<?xml version="1.0" encoding="UTF-8" standalone="no"?>
<svg xmlns:xlink="http://www.w3.org/1999/xlink" height="113.0px" width="53.4px" xmlns="http://www.w3.org/2000/svg">
  <g transform="matrix(1.0, 0.0, 0.0, 1.0, 26.7, 56.5)">
    <path d="M-5.9 -43.65 L19.1 -43.65 19.1 -20.75 Q14.35 -24.95 7.4 -25.0 -1.4 -25.0 -5.9 -19.95 L-5.9 -43.65" fill="#ffffff" fill-rule="evenodd" stroke="none"/>
    <path d="M-5.9 -6.95 L-5.9 -16.55 Q-2.3 -22.95 7.4 -23.0 13.45 -23.0 17.8 -19.25 L19.1 -17.95 19.1 -6.65 -4.75 -6.65 -5.9 -6.95" fill="#ffffff" fill-rule="evenodd" stroke="none"/>
    <path d="M19.1 -17.95 L17.8 -19.25 Q13.45 -23.0 7.4 -23.0 -2.3 -22.95 -5.9 -16.55 L-5.9 -6.95 -4.75 -6.65 19.1 -6.65 19.1 -17.95 M19.1 -43.65 L-5.9 -43.65 -5.9 -19.95 Q-1.4 -25.0 7.4 -25.0 14.35 -24.95 19.1 -20.75 L19.1 -43.65 M-3.4 -47.65 L-3.4 -51.25 Q-4.65 -52.05 -4.65 -53.6 -4.65 -54.8 -3.8 -55.65 -3.0 -56.5 -1.8 -56.5 -0.6 -56.5 0.25 -55.65 1.1 -54.8 1.1 -53.6 1.1 -52.0 -0.4 -51.1 L-0.4 -47.65 13.6 -47.65 13.6 -51.25 Q12.35 -52.05 12.35 -53.6 12.35 -54.8 13.2 -55.65 14.0 -56.5 15.2 -56.5 16.4 -56.5 17.25 -55.65 18.1 -54.8 18.1 -53.6 18.1 -52.0 16.6 -51.1 L16.6 -47.65 23.1 -47.65 23.1 -38.85 Q24.65 -38.5 25.65 -37.25 26.7 -36.0 26.7 -34.35 26.7 -32.7 25.65 -31.45 24.65 -30.2 23.1 -29.85 L23.1 -2.65 -0.9 -2.65 Q-5.25 12.65 5.5 36.1 10.85 47.85 17.1 56.5 L-17.9 56.5 Q-31.6 27.1 -23.95 0.25 -19.55 -15.25 -9.9 -25.9 L-9.9 -29.8 Q-11.65 -30.0 -12.75 -31.3 -13.9 -32.6 -13.9 -34.35 -13.9 -36.1 -12.75 -37.4 -11.65 -38.65 -9.9 -38.9 L-9.9 -47.65 -3.4 -47.65" fill="#000000" fill-rule="evenodd" stroke="none"/>
  </g>
</svg>
