<?xml version="1.0" encoding="UTF-8" standalone="no"?>
<svg xmlns:xlink="http://www.w3.org/1999/xlink" height="95.0px" width="83.35px" xmlns="http://www.w3.org/2000/svg">
  <g transform="matrix(1.0, 0.0, 0.0, 1.0, 41.65, 47.5)">
    <path d="M-15.7 -14.8 L-15.7 2.9 Q-15.7 7.7 -12.3 11.1 -8.9 14.45 -4.15 14.45 L2.75 14.45 Q7.55 14.45 10.95 11.1 14.35 7.7 14.35 2.9 L14.35 -14.8 11.35 -14.8 Q11.75 -14.25 11.75 -13.55 11.75 -12.5 11.0 -11.75 10.25 -11.0 9.2 -11.0 8.1 -11.0 7.35 -11.75 6.6 -12.5 6.6 -13.55 6.6 -14.25 7.0 -14.8 L-8.3 -14.8 Q-7.95 -14.2 -7.95 -13.55 -7.95 -12.5 -8.7 -11.75 -9.45 -11.0 -10.5 -11.0 -11.55 -11.0 -12.3 -11.75 -13.05 -12.5 -13.05 -13.55 L-12.7 -14.8 -15.7 -14.8 M14.35 -31.55 Q14.35 -36.35 10.95 -39.7 7.55 -43.1 2.75 -43.1 L-4.15 -43.1 Q-8.9 -43.1 -12.3 -39.7 -15.7 -36.35 -15.7 -31.55 L-15.7 -17.0 14.35 -17.0 14.35 -31.55 M31.6 6.15 Q36.5 15.35 38.9 26.65 20.75 35.1 0.7 35.1 -14.2 35.1 -28.8 30.5 -33.4 29.05 -37.25 27.35 L-38.8 26.65 Q-36.45 15.75 -31.8 6.8 -27.2 -2.05 -20.95 -7.95 L-21.25 -8.1 -26.7 -26.65 -20.1 -17.8 -20.1 -31.55 Q-20.1 -38.15 -15.4 -42.8 -10.75 -47.5 -4.15 -47.5 L2.75 -47.5 Q9.35 -47.5 14.05 -42.8 18.7 -38.15 18.7 -31.55 L18.7 -17.75 25.4 -26.65 20.15 -8.8 Q26.75 -2.95 31.6 6.15" fill="#000000" fill-rule="evenodd" stroke="none"/>
    <path d="M39.5 29.65 Q41.05 38.35 41.05 47.2 L41.05 47.5 -40.95 47.5 -40.95 47.2 Q-40.95 38.3 -39.4 29.7 -32.7 32.75 -24.6 34.85 -12.05 38.1 0.7 38.1 21.05 38.1 39.5 29.65" fill="#000000" fill-rule="evenodd" stroke="none"/>
    <path d="M-9.75 -24.65 Q-10.85 -24.65 -10.85 -23.55 -10.85 -22.5 -9.75 -22.5 L8.55 -22.5 Q9.0 -22.5 9.35 -22.8 9.65 -23.1 9.65 -23.55 L9.35 -24.35 8.55 -24.65 -9.75 -24.65 M-9.75 -30.15 Q-10.25 -30.15 -10.55 -29.8 L-10.85 -29.05 -10.55 -28.25 Q-10.25 -27.95 -9.75 -27.95 L8.55 -27.95 Q9.0 -27.95 9.35 -28.25 L9.65 -29.05 9.35 -29.8 Q9.0 -30.15 8.55 -30.15 L-9.75 -30.15 M-4.15 -43.1 L2.75 -43.1 Q7.55 -43.1 10.95 -39.7 14.35 -36.35 14.35 -31.55 L14.35 -17.0 -15.7 -17.0 -15.7 -31.55 Q-15.7 -36.35 -12.3 -39.7 -8.9 -43.1 -4.15 -43.1" fill="#ffffff" fill-rule="evenodd" stroke="none"/>
    <path d="M4.7 10.95 Q4.35 10.6 3.9 10.6 L-4.85 10.6 Q-5.3 10.6 -5.6 10.95 -5.95 11.25 -5.95 11.7 L-5.6 12.5 Q-5.3 12.8 -4.85 12.8 L3.9 12.8 Q4.35 12.8 4.7 12.5 L5.0 11.7 4.7 10.95 M-12.3 11.1 Q-15.7 7.7 -15.7 2.9 L-15.7 -14.8 -12.7 -14.8 -13.05 -13.55 Q-13.05 -12.5 -12.3 -11.75 -11.55 -11.0 -10.5 -11.0 -9.45 -11.0 -8.7 -11.75 -7.95 -12.5 -7.95 -13.55 -7.95 -14.2 -8.3 -14.8 L7.0 -14.8 Q6.6 -14.25 6.6 -13.55 6.6 -12.5 7.35 -11.75 8.1 -11.0 9.2 -11.0 10.25 -11.0 11.0 -11.75 11.75 -12.5 11.75 -13.55 11.75 -14.25 11.35 -14.8 L14.35 -14.8 14.35 2.9 Q14.35 7.7 10.95 11.1 7.55 14.45 2.75 14.45 L-4.15 14.45 Q-8.9 14.45 -12.3 11.1" fill="#ffffff" fill-rule="evenodd" stroke="none"/>
    <path d="M-9.75 -22.5 Q-10.85 -22.5 -10.85 -23.55 -10.85 -24.65 -9.75 -24.65 L8.55 -24.65 9.35 -24.35 9.65 -23.55 Q9.65 -23.1 9.35 -22.8 9.0 -22.5 8.55 -22.5 L-9.75 -22.5" fill="#000000" fill-rule="evenodd" stroke="none"/>
    <path d="M-9.75 -27.95 Q-10.25 -27.95 -10.55 -28.25 L-10.85 -29.05 -10.55 -29.8 Q-10.25 -30.15 -9.75 -30.15 L8.55 -30.15 Q9.0 -30.15 9.35 -29.8 L9.65 -29.05 9.35 -28.25 Q9.0 -27.95 8.55 -27.95 L-9.75 -27.95" fill="#000000" fill-rule="evenodd" stroke="none"/>
    <path d="M3.9 10.6 Q4.35 10.6 4.7 10.95 L5.0 11.7 4.7 12.5 Q4.35 12.8 3.9 12.8 L-4.85 12.8 Q-5.3 12.8 -5.6 12.5 L-5.95 11.7 Q-5.95 11.25 -5.6 10.95 -5.3 10.6 -4.85 10.6 L3.9 10.6" fill="#000000" fill-rule="evenodd" stroke="none"/>
    <path d="M38.9 26.65 L40.4 25.9 41.7 28.6 39.5 29.65 Q21.05 38.1 0.7 38.1 -12.05 38.1 -24.6 34.85 -32.7 32.75 -39.4 29.7 L-41.65 28.6 -40.2 25.95 -37.25 27.35 Q-33.4 29.05 -28.8 30.5 -14.2 35.1 0.7 35.1 20.75 35.1 38.9 26.65" fill="#ffffff" fill-rule="evenodd" stroke="none"/>
  </g>
</svg>
