<?xml version="1.0" encoding="UTF-8" standalone="no"?>
<svg xmlns:xlink="http://www.w3.org/1999/xlink" height="18.6px" width="20.95px" xmlns="http://www.w3.org/2000/svg">
  <g transform="matrix(1.0, 0.0, 0.0, 1.0, 10.75, 36.45)">
    <path d="M-7.9 -31.65 Q-8.85 -31.65 -9.55 -32.35 -10.25 -33.05 -10.25 -34.05 -10.25 -35.05 -9.55 -35.75 -8.85 -36.45 -7.9 -36.45 -6.9 -36.45 -6.2 -35.75 -5.5 -35.05 -5.5 -34.05 -5.5 -33.05 -6.2 -32.35 -6.9 -31.65 -7.9 -31.65" fill="#000000" fill-rule="evenodd" stroke="none"/>
    <path d="M6.9 -31.65 Q5.9 -31.65 5.2 -32.35 4.5 -33.05 4.5 -34.05 4.5 -35.05 5.2 -35.75 5.9 -36.45 6.9 -36.45 7.85 -36.45 8.55 -35.75 9.25 -35.05 9.25 -34.05 9.25 -33.05 8.55 -32.35 7.85 -31.65 6.9 -31.65" fill="#000000" fill-rule="evenodd" stroke="none"/>
    <path d="M8.6 -23.35 L9.3 -23.6 9.95 -23.25 10.2 -22.6 9.9 -21.9 Q3.6 -16.25 -4.0 -18.5 -6.35 -19.2 -8.6 -20.6 L-10.4 -21.9 -10.75 -22.6 -10.5 -23.25 -9.85 -23.6 -9.15 -23.35 Q-8.65 -22.85 -7.45 -22.1 -5.5 -20.85 -3.4 -20.25 3.1 -18.4 8.6 -23.35" fill="#000000" fill-rule="evenodd" stroke="none"/>
  </g>
</svg>
