<?xml version="1.0" encoding="UTF-8" standalone="no"?>
<svg xmlns:xlink="http://www.w3.org/1999/xlink" height="32.75px" width="80.15px" xmlns="http://www.w3.org/2000/svg">
  <g transform="matrix(1.0, 0.0, 0.0, 1.0, 40.05, 16.35)">
    <path d="M-22.1 -2.1 L-23.15 -2.25 -21.7 -3.15 -22.1 -2.1" fill="#ffffff" fill-rule="evenodd" stroke="none"/>
    <path d="M-13.4 7.35 L-16.7 6.2 -13.4 4.3 -13.0 0.6 -6.15 1.9 -9.0 8.2 -15.65 9.55 -13.4 7.35" fill="#ffffff" fill-rule="evenodd" stroke="none"/>
    <path d="M21.6 7.35 L23.7 7.35 Q23.55 7.9 23.55 8.55 L24.8 11.15 Q25.25 13.55 21.1 12.8 L21.6 7.35" fill="#ffffff" fill-rule="evenodd" stroke="none"/>
    <path d="M12.9 4.15 L18.1 -0.45 19.9 4.25 19.85 4.9 16.85 6.9 17.75 6.5 Q18.8 6.05 19.7 5.9 L18.85 12.55 13.85 12.3 16.25 11.55 12.9 4.15" fill="#ffffff" fill-rule="evenodd" stroke="none"/>
    <path d="M-0.7 -7.2 L-0.7 -7.55 -0.35 -6.8 -0.7 -7.2" fill="#ffffff" fill-rule="evenodd" stroke="none"/>
    <path d="M2.95 -12.05 L5.2 -4.2 1.15 -4.9 0.2 -6.1 1.85 -13.3 10.0 -8.2 Q8.75 -7.8 7.8 -7.1 L7.2 -8.4 2.95 -12.05" fill="#ffffff" fill-rule="evenodd" stroke="none"/>
    <path d="M7.4 6.65 L8.25 6.6 9.9 12.25 6.15 12.3 2.4 9.7 Q3.9 8.4 3.95 6.85 3.95 5.4 2.6 4.05 2.25 3.7 1.75 3.7 1.25 3.7 0.85 4.05 0.5 4.4 0.5 4.9 0.5 5.4 0.85 5.75 L1.5 6.85 Q1.6 7.35 0.6 8.0 L0.25 8.2 -1.9 6.7 -1.95 6.3 Q-2.05 5.15 -0.4 3.3 0.95 1.85 2.05 1.85 3.5 1.85 5.25 3.85 L6.3 5.4 6.7 6.05 7.4 6.65" fill="#ffffff" fill-rule="evenodd" stroke="none"/>
    <path d="M-4.3 7.2 L-8.5 8.1 -4.25 5.25 -4.4 6.3 -4.3 7.2" fill="#ffffff" fill-rule="evenodd" stroke="none"/>
    <path d="M4.15 -1.15 L3.6 -1.8 6.35 -0.05 7.0 2.25 Q4.7 -0.5 2.05 -0.55 0.65 -0.55 -0.7 0.35 L-1.95 -1.55 4.15 -1.15" fill="#ffffff" fill-rule="evenodd" stroke="none"/>
    <path d="M8.4 -5.7 Q10.9 -6.85 13.1 -7.05 16.7 -7.35 18.65 -5.0 L12.75 3.8 12.1 2.4 13.05 -0.55 12.2 -1.95 10.35 -1.45 8.4 -5.7" fill="#ffffff" fill-rule="evenodd" stroke="none"/>
    <path d="M28.4 3.7 Q27.4 3.8 26.35 4.3 L25.55 1.2 Q27.55 1.7 29.15 3.3 31.65 5.75 32.15 10.15 L30.35 9.65 28.4 3.7" fill="#ffffff" fill-rule="evenodd" stroke="none"/>
    <path d="M-2.05 -14.05 L-0.35 -14.2 -1.65 -9.9 Q-2.5 -10.7 -4.1 -10.55 L-5.55 -10.25 -12.5 -6.95 Q-9.85 -10.65 -3.9 -12.65 L-4.55 -10.65 Q-3.9 -11.65 -1.75 -12.2 -0.45 -12.6 -1.5 -13.65 L-2.05 -14.05" fill="#ffffff" fill-rule="evenodd" stroke="none"/>
    <path d="M-3.7 -13.05 L-5.55 -13.6 -2.95 -13.95 -3.7 -13.05" fill="#ffffff" fill-rule="evenodd" stroke="none"/>
    <path d="M-22.5 1.25 Q-20.25 2.6 -20.0 5.05 L-25.9 3.0 -25.85 2.85 -25.65 2.7 -25.25 1.75 Q-23.8 -0.5 -22.35 -0.9 L-22.5 1.25" fill="#ffffff" fill-rule="evenodd" stroke="none"/>
    <path d="M34.05 13.4 L32.55 13.0 34.2 12.95 34.35 13.4 34.05 13.4" fill="#ffffff" fill-rule="evenodd" stroke="none"/>
    <path d="M22.4 -1.35 L21.0 -2.95 21.4 -3.3 21.7 -2.6 23.4 -1.5 22.4 -1.35" fill="#ffffff" fill-rule="evenodd" stroke="none"/>
    <path d="M26.6 0.5 L25.3 0.35 25.1 -0.45 26.6 0.5" fill="#ffffff" fill-rule="evenodd" stroke="none"/>
    <path d="M2.25 -14.5 L3.7 -14.6 5.8 -13.65 3.75 -13.7 2.25 -14.5" fill="#ffffff" fill-rule="evenodd" stroke="none"/>
    <path d="M18.3 -0.6 L20.35 -2.4 20.55 -1.0 18.3 -0.6" fill="#ffffff" fill-rule="evenodd" stroke="none"/>
    <path d="M19.5 -6.3 L18.0 -7.05 19.65 -6.55 19.5 -6.3" fill="#ffffff" fill-rule="evenodd" stroke="none"/>
    <path d="M-12.75 -1.5 L-12.3 -5.15 Q-5.85 -4.45 -5.4 -2.6 L-9.8 -2.95 -12.75 -1.5" fill="#ffffff" fill-rule="evenodd" stroke="none"/>
    <path d="M-20.45 14.35 L-20.9 14.85 -17.45 14.3 -20.45 14.35 M-25.85 2.85 L-25.9 3.0 -20.0 5.05 Q-20.25 2.6 -22.5 1.25 L-22.35 -0.9 Q-23.8 -0.5 -25.25 1.75 L-25.85 2.85 M-9.8 -2.95 L-5.4 -2.6 Q-5.85 -4.45 -12.3 -5.15 L-12.75 -1.5 -9.8 -2.95 M-4.3 7.2 L-4.4 6.3 -4.25 5.25 -8.5 8.1 -4.3 7.2 M-13.4 4.3 L-16.7 6.2 -13.4 7.35 -15.65 9.55 -9.0 8.2 -6.15 1.9 -13.0 0.6 -13.4 4.3 M-0.7 -7.55 L-0.7 -7.2 -0.35 -6.8 -0.7 -7.55 M19.9 4.25 L18.1 -0.45 12.9 4.15 16.25 11.55 13.85 12.3 18.85 12.55 19.7 5.9 Q18.8 6.05 17.75 6.5 L16.85 6.9 19.85 4.9 19.9 4.25 M18.3 -0.6 L20.55 -1.0 20.35 -2.4 18.3 -0.6 M2.05 -0.55 Q4.7 -0.5 7.0 2.25 L6.35 -0.05 3.6 -1.8 4.15 -1.15 -1.95 -1.55 -0.7 0.35 Q0.65 -0.55 2.05 -0.55 M5.25 3.85 Q3.5 1.85 2.05 1.85 0.95 1.85 -0.4 3.3 -2.05 5.15 -1.95 6.3 L-1.9 6.7 0.25 8.2 0.6 8.0 Q1.6 7.35 1.5 6.85 L0.85 5.75 Q0.5 5.4 0.5 4.9 0.5 4.4 0.85 4.05 1.25 3.7 1.75 3.7 2.25 3.7 2.6 4.05 3.95 5.4 3.95 6.85 3.9 8.4 2.4 9.7 L6.15 12.3 9.9 12.25 8.25 6.6 7.4 6.65 6.7 6.05 6.3 5.4 5.25 3.85 M5.2 -4.2 L2.95 -12.05 7.2 -8.4 7.8 -7.1 Q8.75 -7.8 10.0 -8.2 L1.85 -13.3 0.2 -6.1 1.15 -4.9 5.2 -4.2 M18.65 -5.0 Q16.7 -7.35 13.1 -7.05 10.9 -6.85 8.4 -5.7 L10.35 -1.45 12.2 -1.95 13.05 -0.55 12.1 2.4 12.75 3.8 18.65 -5.0 M18.0 -7.05 L19.5 -6.3 19.65 -6.55 18.0 -7.05 M26.35 4.3 Q27.4 3.8 28.4 3.7 L30.35 9.65 32.15 10.15 Q31.65 5.75 29.15 3.3 27.55 1.7 25.55 1.2 L26.35 4.3 M23.55 8.55 Q23.55 7.9 23.7 7.35 L21.6 7.35 21.1 12.8 Q25.25 13.55 24.8 11.15 L23.55 8.55 M-2.95 -13.95 L-2.05 -14.05 -1.5 -13.65 Q-0.45 -12.6 -1.75 -12.2 -3.9 -11.65 -4.55 -10.65 L-3.9 -12.65 Q-9.85 -10.65 -12.5 -6.95 L-5.55 -10.25 -4.1 -10.55 Q-2.5 -10.7 -1.65 -9.9 L-0.35 -14.2 -0.3 -14.5 0.2 -14.3 -1.7 -15.5 1.5 -14.9 3.75 -13.7 5.95 -13.65 7.65 -16.35 10.35 -16.0 9.9 -13.05 12.55 -12.2 13.65 -13.35 13.9 -11.6 Q17.35 -9.9 19.35 -7.45 L19.85 -6.85 20.5 -7.8 21.7 -3.55 21.0 -2.95 22.4 -1.35 24.75 -1.75 25.3 0.35 26.6 0.5 Q31.1 1.45 32.9 5.65 33.85 7.9 33.85 10.6 L35.25 10.95 Q36.25 13.2 35.65 13.0 L34.2 12.95 32.55 13.0 40.1 15.0 32.0 14.5 32.6 16.4 -26.75 15.8 -23.05 15.2 -24.5 14.4 -32.05 14.5 -32.2 14.6 -32.3 14.5 -40.05 14.6 -33.75 13.3 -35.85 11.55 -33.7 9.45 -37.65 7.35 -31.0 1.25 -26.0 3.0 -25.95 3.0 -25.9 2.95 Q-25.7 -2.15 -23.15 -2.25 L-22.1 -2.1 -21.7 -3.15 Q-20.4 -6.25 -17.15 -6.7 L-17.1 -6.7 -17.0 -6.9 Q-15.85 -9.8 -13.75 -11.6 -10.35 -14.6 -5.55 -13.6 L-3.7 -13.05 -2.95 -13.95" fill="#000000" fill-rule="evenodd" stroke="none"/>
  </g>
</svg>
