<?xml version="1.0" encoding="UTF-8" standalone="no"?>
<svg xmlns:xlink="http://www.w3.org/1999/xlink" height="34.0px" width="64.6px" xmlns="http://www.w3.org/2000/svg">
  <g transform="matrix(1.0, 0.0, 0.0, 1.0, 32.3, 17.0)">
    <path d="M0.1 13.8 Q0.65 13.8 1.1 13.4 1.5 13.0 1.5 12.45 1.5 11.85 1.1 11.45 0.65 11.05 0.1 11.05 -0.45 11.05 -0.85 11.45 -1.25 11.85 -1.25 12.45 -1.25 13.0 -0.85 13.4 -0.45 13.8 0.1 13.8 M30.35 7.55 L30.3 8.1 29.85 9.85 29.3 10.9 28.85 10.8 Q28.3 10.8 27.9 11.2 27.5 11.6 27.5 12.2 27.5 12.65 27.85 13.1 L26.55 15.05 -28.0 15.05 -28.25 12.75 -28.7 10.95 Q-24.85 12.0 -19.25 11.7 L-18.0 11.6 Q-17.3 12.7 -16.15 12.7 -14.65 12.7 -14.15 11.25 L9.0 9.4 Q9.05 10.25 9.65 10.85 10.25 11.45 11.1 11.45 12.0 11.45 12.65 10.85 13.25 10.2 13.25 9.3 L13.2 9.05 15.9 8.85 Q15.75 9.25 15.75 9.7 15.75 10.95 16.65 11.8 17.5 12.7 18.75 12.7 20.0 12.7 20.85 11.8 21.75 10.95 21.75 9.7 L21.45 8.4 30.05 7.7 30.35 7.5 30.35 7.55" fill="#ffffff" fill-rule="evenodd" stroke="none"/>
    <path d="M21.75 5.7 L22.75 5.65 Q-3.2 8.15 -18.25 8.0 -16.95 4.55 -11.85 -2.75 L-6.95 -9.3 Q-12.6 -6.2 -17.45 -0.25 -20.6 3.55 -22.85 7.85 L-24.9 7.7 Q-22.8 1.9 -19.05 -3.0 -12.9 -11.15 -4.6 -13.0 4.8 -15.05 14.2 -4.9 18.9 0.2 21.75 5.7" fill="#ffffff" fill-rule="evenodd" stroke="none"/>
    <path d="M-28.3 6.85 L-28.1 6.4 -28.6 6.7 -28.3 6.85 M29.05 3.7 Q30.65 4.1 31.2 4.75 L31.6 4.5 31.95 5.4 Q32.3 6.4 32.3 7.55 32.3 9.85 30.9 12.0 L28.15 16.2 28.05 16.3 27.6 17.0 -29.9 17.0 -29.9 16.0 Q-29.9 14.65 -30.2 13.1 L-30.8 11.0 Q-31.3 9.95 -31.75 9.75 L-31.6 9.55 Q-32.2 8.95 -32.25 8.35 -32.6 6.3 -30.45 4.95 -29.0 4.0 -26.85 3.55 -23.45 -3.5 -18.4 -8.4 -10.95 -15.6 -1.25 -16.8 9.1 -18.1 16.75 -10.4 21.7 -5.4 24.7 2.35 L29.05 3.7 M21.45 8.4 L21.75 9.7 Q21.75 10.95 20.85 11.8 20.0 12.7 18.75 12.7 17.5 12.7 16.65 11.8 15.75 10.95 15.75 9.7 15.75 9.25 15.9 8.85 L13.2 9.05 13.25 9.3 Q13.25 10.2 12.65 10.85 12.0 11.45 11.1 11.45 10.25 11.45 9.65 10.85 9.05 10.25 9.0 9.4 L-14.15 11.25 Q-14.65 12.7 -16.15 12.7 -17.3 12.7 -18.0 11.6 L-19.25 11.7 Q-24.85 12.0 -28.7 10.95 L-28.25 12.75 -28.0 15.05 26.55 15.05 27.85 13.1 Q27.5 12.65 27.5 12.2 27.5 11.6 27.9 11.2 28.3 10.8 28.85 10.8 L29.3 10.9 29.85 9.85 30.3 8.1 30.35 7.55 30.35 7.5 30.05 7.7 21.45 8.4 M22.75 5.65 L21.75 5.7 Q18.9 0.2 14.2 -4.9 4.8 -15.05 -4.6 -13.0 -12.9 -11.15 -19.05 -3.0 -22.8 1.9 -24.9 7.7 L-22.85 7.85 Q-20.6 3.55 -17.45 -0.25 -12.6 -6.2 -6.95 -9.3 L-11.85 -2.75 Q-16.95 4.55 -18.25 8.0 -3.2 8.15 22.75 5.65" fill="#000000" fill-rule="evenodd" stroke="none"/>
    <path d="M0.1 11.05 Q0.65 11.05 1.1 11.45 1.5 11.85 1.5 12.45 1.5 13.0 1.1 13.4 0.65 13.8 0.1 13.8 -0.45 13.8 -0.85 13.4 -1.25 13.0 -1.25 12.45 -1.25 11.85 -0.85 11.45 -0.45 11.05 0.1 11.05" fill="#000000" fill-rule="evenodd" stroke="none"/>
  </g>
</svg>
