<?xml version="1.0" encoding="UTF-8" standalone="no"?>
<svg xmlns:xlink="http://www.w3.org/1999/xlink" height="98.25px" width="60.5px" xmlns="http://www.w3.org/2000/svg">
  <g transform="matrix(1.0, 0.0, 0.0, 1.0, 30.25, 49.1)">
    <path d="M3.5 9.65 L3.5 18.9 22.75 18.9 22.75 9.65 3.5 9.65 M23.25 -24.85 L26.75 -24.85 26.75 45.65 -26.75 45.65 -26.75 -24.85 -21.75 -24.85 -21.75 7.65 23.25 7.65 23.25 -24.85" fill="#ffffff" fill-rule="evenodd" stroke="none"/>
    <path d="M0.3 -34.35 L19.75 -34.35 19.75 -16.6 0.3 -16.6 0.3 -34.35 M6.5 -21.1 Q8.7 -21.1 10.2 -22.65 11.75 -24.15 11.75 -26.35 11.75 -28.5 10.2 -30.05 8.7 -31.6 6.5 -31.6 4.35 -31.6 2.8 -30.05 1.25 -28.5 1.25 -26.35 1.25 -24.15 2.8 -22.65 4.35 -21.1 6.5 -21.1" fill="#ffffff" fill-rule="evenodd" stroke="none"/>
    <path d="M19.75 -11.6 L19.75 4.15 -18.25 4.15 -18.25 -11.6 19.75 -11.6" fill="#ffffff" fill-rule="evenodd" stroke="none"/>
    <path d="M-18.25 -34.35 L-0.8 -34.35 -0.8 -16.6 -18.25 -16.6 -18.25 -34.35 M-10.45 -30.05 Q-12.0 -28.5 -12.0 -26.35 -12.0 -24.15 -10.45 -22.65 -8.9 -21.1 -6.75 -21.1 -4.55 -21.1 -3.05 -22.65 -1.5 -24.15 -1.5 -26.35 -1.5 -28.5 -3.05 -30.05 -4.55 -31.6 -6.75 -31.6 -8.9 -31.6 -10.45 -30.05" fill="#ffffff" fill-rule="evenodd" stroke="none"/>
    <path d="M19.75 -16.6 L19.75 -34.35 0.3 -34.35 0.3 -16.6 19.75 -16.6 M-18.25 -11.6 L-18.25 4.15 19.75 4.15 19.75 -11.6 -18.25 -11.6 M-0.8 -34.35 L-18.25 -34.35 -18.25 -16.6 -0.8 -16.6 -0.8 -34.35 M2.65 -46.1 L0.25 -47.85 Q1.5 -45.6 2.4 -37.7 L5.0 -37.7 Q5.0 -43.25 2.65 -46.1 M23.25 -37.85 L23.25 -28.35 30.25 -28.35 30.25 49.15 -30.25 49.15 -30.25 -28.35 -21.75 -28.35 -21.75 -37.85 -6.5 -37.85 Q-6.35 -42.55 -4.35 -45.8 -2.3 -49.1 0.5 -49.1 3.3 -49.1 5.35 -45.8 7.4 -42.55 7.5 -37.85 L23.25 -37.85 M26.75 -24.85 L23.25 -24.85 23.25 7.65 -21.75 7.65 -21.75 -24.85 -26.75 -24.85 -26.75 45.65 26.75 45.65 26.75 -24.85" fill="#000000" fill-rule="evenodd" stroke="none"/>
    <path d="M-10.0 -26.35 Q-10.0 -27.65 -9.05 -28.65 -8.1 -29.6 -6.75 -29.6 -5.4 -29.6 -4.45 -28.65 -3.5 -27.65 -3.5 -26.35 -3.5 -25.0 -4.45 -24.05 -5.4 -23.1 -6.75 -23.1 -8.1 -23.1 -9.05 -24.05 -10.0 -25.0 -10.0 -26.35" fill="#ffffff" fill-rule="evenodd" stroke="none"/>
    <path d="M-12.0 -26.35 Q-12.0 -28.5 -10.45 -30.05 -8.9 -31.6 -6.75 -31.6 -4.55 -31.6 -3.05 -30.05 -1.5 -28.5 -1.5 -26.35 -1.5 -24.15 -3.05 -22.65 -4.55 -21.1 -6.75 -21.1 -8.9 -21.1 -10.45 -22.65 -12.0 -24.15 -12.0 -26.35 M-9.05 -28.65 Q-10.0 -27.65 -10.0 -26.35 -10.0 -25.0 -9.05 -24.05 -8.1 -23.1 -6.75 -23.1 -5.4 -23.1 -4.45 -24.05 -3.5 -25.0 -3.5 -26.35 -3.5 -27.65 -4.45 -28.65 -5.4 -29.6 -6.75 -29.6 -8.1 -29.6 -9.05 -28.65" fill="#000000" fill-rule="evenodd" stroke="none"/>
    <path d="M6.5 -29.6 Q7.85 -29.6 8.8 -28.65 9.75 -27.65 9.75 -26.35 9.75 -25.0 8.8 -24.05 7.85 -23.1 6.5 -23.1 5.15 -23.1 4.2 -24.05 3.25 -25.0 3.25 -26.35 3.25 -27.65 4.2 -28.65 5.15 -29.6 6.5 -29.6" fill="#ffffff" fill-rule="evenodd" stroke="none"/>
    <path d="M6.5 -31.6 Q8.7 -31.6 10.2 -30.05 11.75 -28.5 11.75 -26.35 11.75 -24.15 10.2 -22.65 8.7 -21.1 6.5 -21.1 4.35 -21.1 2.8 -22.65 1.25 -24.15 1.25 -26.35 1.25 -28.5 2.8 -30.05 4.35 -31.6 6.5 -31.6 M8.8 -28.65 Q7.85 -29.6 6.5 -29.6 5.15 -29.6 4.2 -28.65 3.25 -27.65 3.25 -26.35 3.25 -25.0 4.2 -24.05 5.15 -23.1 6.5 -23.1 7.85 -23.1 8.8 -24.05 9.75 -25.0 9.75 -26.35 9.75 -27.65 8.8 -28.65" fill="#000000" fill-rule="evenodd" stroke="none"/>
    <path d="M0.25 -47.85 L2.65 -46.1 Q5.0 -43.25 5.0 -37.7 L2.4 -37.7 Q1.5 -45.6 0.25 -47.85" fill="#ffffff" fill-rule="evenodd" stroke="none"/>
    <path d="M3.5 18.9 L3.5 9.65 22.75 9.65 22.75 18.9 3.5 18.9 M8.4 12.65 L8.4 16.15 10.15 16.15 10.15 12.65 8.4 12.65 M4.65 12.65 L4.65 16.15 6.4 16.15 6.4 12.65 4.65 12.65 M19.65 12.65 L19.65 16.15 21.4 16.15 21.4 12.65 19.65 12.65 M15.7 12.65 L15.7 16.15 17.45 16.15 17.45 12.65 15.7 12.65 M13.65 16.15 L13.65 12.65 11.9 12.65 11.9 16.15 13.65 16.15" fill="#000000" fill-rule="evenodd" stroke="none"/>
    <path d="M6.4 12.65 L6.4 16.15 4.65 16.15 4.65 12.65 6.4 12.65" fill="#ffffff" fill-rule="evenodd" stroke="none"/>
    <path d="M21.4 12.65 L21.4 16.15 19.65 16.15 19.65 12.65 21.4 12.65" fill="#ffffff" fill-rule="evenodd" stroke="none"/>
    <path d="M10.15 12.65 L10.15 16.15 8.4 16.15 8.4 12.65 10.15 12.65" fill="#ffffff" fill-rule="evenodd" stroke="none"/>
    <path d="M17.45 12.65 L17.45 16.15 15.7 16.15 15.7 12.65 17.45 12.65" fill="#ffffff" fill-rule="evenodd" stroke="none"/>
    <path d="M13.65 12.65 L13.65 16.15 11.9 16.15 11.9 12.65 13.65 12.65" fill="#ffffff" fill-rule="evenodd" stroke="none"/>
  </g>
</svg>
