<?xml version="1.0" encoding="UTF-8" standalone="no"?>
<svg xmlns:xlink="http://www.w3.org/1999/xlink" height="109.65px" width="187.9px" xmlns="http://www.w3.org/2000/svg">
  <g transform="matrix(1.0, 0.0, 0.0, 1.0, 93.95, 54.8)">
    <path d="M20.95 -24.25 Q21.5 -24.9 23.6 -24.5 L25.85 -24.15 27.15 -23.6 Q28.35 -22.65 27.95 -20.5 L27.6 -19.55 Q27.0 -18.7 25.75 -19.05 L23.4 -19.2 21.7 -19.55 Q21.15 -19.6 20.7 -19.9 19.75 -20.55 20.15 -21.95 20.8 -24.1 20.95 -24.25" fill="#ffffff" fill-rule="evenodd" stroke="none"/>
    <path d="M11.7 -24.1 L12.9 -24.5 15.45 -24.6 Q17.0 -24.65 17.8 -23.9 18.5 -23.2 18.75 -21.7 18.95 -20.5 17.85 -19.8 L16.75 -19.3 13.45 -18.8 Q12.05 -18.7 11.3 -19.45 L10.8 -20.2 10.75 -21.9 Q10.5 -23.4 11.7 -24.1" fill="#ffffff" fill-rule="evenodd" stroke="none"/>
    <path d="M21.8 11.05 Q21.55 9.45 21.95 7.9 22.7 4.85 25.8 5.05 30.1 5.4 29.45 9.8 26.3 10.2 21.95 12.05 L21.8 11.05" fill="#ffffff" fill-rule="evenodd" stroke="none"/>
    <path d="M31.05 -22.55 L32.45 -22.4 33.3 -22.15 35.05 -21.5 Q36.9 -20.55 35.7 -18.3 35.2 -17.35 34.15 -17.2 L33.2 -17.3 30.7 -18.0 Q29.25 -18.35 29.15 -19.45 L29.35 -20.5 Q29.55 -22.35 31.05 -22.55" fill="#ffffff" fill-rule="evenodd" stroke="none"/>
    <path d="M-0.05 20.6 Q-1.1 17.45 1.15 17.1 3.3 16.75 5.05 19.55 L-0.05 20.6" fill="#ffffff" fill-rule="evenodd" stroke="none"/>
    <path d="M-7.35 -8.95 Q-7.7 -8.9 -7.95 -9.15 -8.5 -9.6 -8.15 -10.8 -7.8 -12.05 -7.05 -12.25 L-5.25 -12.2 Q-4.35 -12.15 -4.3 -11.45 -4.3 -11.1 -4.45 -10.8 -4.6 -10.25 -5.3 -9.3 -5.95 -8.35 -7.35 -8.95" fill="#ffffff" fill-rule="evenodd" stroke="none"/>
    <path d="M7.05 12.3 Q8.6 11.75 10.05 12.85 L11.15 14.1 12.3 16.8 6.7 19.05 5.85 16.75 5.5 14.85 Q5.5 12.85 7.05 12.3" fill="#ffffff" fill-rule="evenodd" stroke="none"/>
    <path d="M-14.1 -38.05 Q-14.9 -37.85 -15.4 -37.15 -15.85 -36.4 -15.65 -35.6 -15.45 -34.75 -14.75 -34.3 L-13.2 -34.05 -7.85 -34.65 Q-3.5 -34.65 1.15 -32.95 -5.45 -32.85 -8.75 -31.05 L-9.25 -30.45 -9.15 -29.65 Q-8.85 -29.15 -8.25 -29.15 L-7.75 -29.25 Q-5.8 -30.4 -1.15 -30.8 -6.25 -28.65 -8.95 -25.2 L-9.15 -24.45 -8.75 -23.75 -8.1 -23.55 Q-7.6 -23.55 -7.3 -23.95 -4.6 -27.55 1.2 -29.5 L5.0 -30.5 5.7 -30.6 7.15 -29.6 Q7.7 -29.1 8.5 -29.1 9.45 -29.1 10.05 -29.8 10.6 -30.45 10.55 -31.3 10.5 -32.15 9.85 -32.7 8.0 -34.25 4.9 -35.75 -1.2 -38.7 -7.85 -38.75 L-14.1 -38.05 M28.75 11.95 Q35.2 10.85 41.15 15.35 L44.55 17.3 Q48.45 18.9 50.95 17.45 53.8 15.85 54.7 11.85 55.9 -1.05 48.7 -11.9 41.4 -22.85 28.75 -26.65 14.2 -31.0 0.85 -23.8 -12.55 -16.6 -16.9 -2.05 -18.35 2.95 -18.45 8.2 -18.15 14.65 -15.55 17.85 -11.65 22.7 -1.8 22.6 2.9 22.6 8.2 20.8 12.2 19.4 17.25 16.7 24.85 12.6 28.75 11.95 M29.2 -29.1 Q29.85 -28.3 30.75 -28.3 31.45 -28.3 32.05 -28.8 L32.3 -28.95 33.0 -29.5 34.0 -29.55 Q36.6 -28.95 39.65 -27.15 L43.7 -24.5 Q43.95 -24.3 44.35 -24.3 44.85 -24.3 45.15 -24.7 L45.35 -25.45 44.95 -26.15 Q41.45 -28.9 37.5 -30.55 L39.1 -30.8 Q40.95 -30.8 44.2 -29.2 L44.7 -29.1 Q45.3 -29.1 45.6 -29.65 46.05 -30.6 45.15 -31.05 42.1 -32.55 40.0 -32.8 43.35 -33.85 46.35 -33.85 47.35 -33.85 47.9 -34.65 60.5 -25.35 68.75 -11.8 77.15 1.95 80.15 18.55 80.2 19.1 80.7 19.6 L81.05 20.0 Q83.75 22.85 86.15 26.95 89.9 33.3 89.85 38.4 L89.85 38.7 Q89.85 44.95 87.75 47.55 85.3 50.7 78.7 50.75 L67.85 50.75 Q64.85 49.7 62.7 48.1 58.5 44.8 58.5 40.0 L58.55 39.25 Q58.95 33.0 63.45 28.4 65.2 26.6 67.45 25.3 69.35 24.2 71.0 23.8 L71.95 23.15 Q72.3 22.6 72.15 21.95 72.0 21.35 71.45 21.0 L70.3 20.8 Q67.2 21.55 63.85 24.0 65.4 20.75 67.85 19.8 L68.45 19.25 Q68.6 18.9 68.4 18.5 L67.85 17.9 Q67.5 17.75 67.1 17.9 63.8 19.3 61.95 23.1 L60.7 26.75 60.7 26.85 Q55.95 32.05 55.45 39.05 L55.4 40.0 Q55.4 46.55 61.1 50.75 L-14.5 50.75 Q-9.2 46.35 -9.2 38.45 L-9.25 37.0 Q-9.55 31.7 -12.25 27.8 -14.4 24.6 -17.85 22.8 -20.25 21.5 -23.0 20.9 L-25.6 20.45 -29.05 19.9 Q-36.15 18.45 -40.7 15.5 L-40.9 15.35 -40.95 15.3 Q-41.95 13.45 -41.95 11.15 -41.95 9.35 -41.25 7.8 -41.05 7.45 -41.2 7.05 L-41.8 6.45 -42.55 6.4 -43.15 6.95 Q-44.0 8.9 -44.0 11.15 L-43.85 13.0 Q-47.25 9.6 -47.25 4.8 -47.25 4.15 -47.75 3.7 -48.2 3.2 -48.85 3.2 -49.5 3.2 -50.0 3.7 -50.5 4.15 -50.5 4.8 -50.5 10.55 -46.45 14.95 -41.9 19.65 -33.5 22.1 -29.3 23.35 -25.9 23.65 L-25.85 23.65 -25.35 23.7 Q-21.35 24.2 -18.2 26.35 -12.95 29.95 -12.45 37.2 L-12.4 38.45 Q-12.45 44.95 -16.7 48.4 -18.2 49.55 -19.65 50.1 L-20.65 50.45 -20.95 50.5 -21.45 50.75 -82.05 50.75 Q-85.8 50.7 -87.85 47.85 L-88.85 45.75 -89.1 44.85 -89.65 40.7 -89.85 36.5 Q-89.85 18.75 -83.0 2.55 -76.35 -13.05 -64.3 -25.15 -52.2 -37.25 -36.6 -43.85 -20.4 -50.7 -2.65 -50.7 23.1 -50.6 43.4 -37.75 38.25 -37.05 33.45 -34.5 L29.45 -31.95 Q28.8 -31.4 28.75 -30.6 28.65 -29.75 29.2 -29.1" fill="#ffffff" fill-rule="evenodd" stroke="none"/>
    <path d="M-2.95 -13.15 Q-3.7 -13.2 -4.3 -13.6 -5.45 -14.35 -4.6 -15.95 -3.7 -17.55 -2.7 -17.9 L-1.85 -17.9 0.45 -17.65 Q2.5 -17.1 1.3 -15.5 0.0 -13.75 -1.1 -13.25 L-2.95 -13.15" fill="#ffffff" fill-rule="evenodd" stroke="none"/>
    <path d="M8.85 -18.25 Q8.25 -17.8 7.3 -17.65 L5.25 -16.8 Q3.7 -16.7 3.0 -17.55 L2.8 -18.1 2.55 -19.7 2.6 -20.6 Q2.85 -21.55 3.95 -21.85 L7.55 -22.35 8.65 -22.15 Q9.7 -21.6 9.55 -19.8 L9.6 -19.75 Q9.75 -18.85 8.85 -18.25" fill="#ffffff" fill-rule="evenodd" stroke="none"/>
    <path d="M46.1 14.0 Q47.1 14.05 47.25 15.1 L47.1 16.35 Q45.8 16.05 44.4 15.15 44.8 13.95 46.1 14.0" fill="#ffffff" fill-rule="evenodd" stroke="none"/>
    <path d="M38.35 -8.5 Q39.05 -7.65 38.7 -7.05 L36.8 -5.8 Q35.45 -5.2 35.0 -6.0 L34.55 -7.05 Q34.5 -7.55 35.0 -7.8 L36.5 -8.75 37.15 -8.95 Q37.9 -9.05 38.35 -8.5" fill="#ffffff" fill-rule="evenodd" stroke="none"/>
    <path d="M41.75 9.4 Q44.55 9.8 43.6 14.65 L41.85 13.35 38.75 11.45 Q39.45 9.05 41.75 9.4" fill="#ffffff" fill-rule="evenodd" stroke="none"/>
    <path d="M34.7 5.3 Q37.55 5.35 38.05 8.2 38.3 9.6 38.0 11.0 L37.8 11.0 Q34.85 9.75 31.65 9.65 31.15 5.25 34.7 5.3" fill="#ffffff" fill-rule="evenodd" stroke="none"/>
    <path d="M20.3 12.8 L13.8 16.1 Q13.15 13.7 13.2 11.85 13.35 8.65 15.6 8.15 17.8 7.7 19.15 9.75 19.95 10.95 20.3 12.8" fill="#ffffff" fill-rule="evenodd" stroke="none"/>
    <path d="M-3.2 18.8 Q-2.0 18.55 -1.8 19.6 L-1.9 20.65 -2.3 20.8 -5.0 20.7 -5.25 20.65 Q-5.25 20.25 -4.9 19.8 -4.4 19.0 -3.2 18.8" fill="#ffffff" fill-rule="evenodd" stroke="none"/>
    <path d="M42.2 -16.05 Q42.25 -15.4 41.15 -14.3 40.15 -13.2 39.25 -13.45 L38.5 -13.95 36.8 -15.3 Q36.1 -15.75 36.15 -16.55 L36.35 -17.2 37.4 -18.5 Q38.1 -19.25 39.05 -18.9 39.55 -18.75 39.9 -18.45 L40.65 -17.9 41.7 -16.95 42.2 -16.05" fill="#ffffff" fill-rule="evenodd" stroke="none"/>
    <path d="M44.2 -12.2 Q44.55 -11.05 43.6 -10.0 L42.35 -8.8 41.6 -8.3 Q40.75 -8.0 39.95 -8.95 39.15 -9.9 39.45 -10.85 L39.95 -11.65 41.6 -13.25 43.6 -13.15 44.2 -12.2" fill="#ffffff" fill-rule="evenodd" stroke="none"/>
    <path d="M84.1 17.2 L88.75 23.3 Q93.95 31.35 93.95 38.4 L93.95 38.75 Q93.95 46.3 91.0 50.1 87.3 54.85 78.7 54.85 L-82.15 54.85 Q-85.35 54.85 -87.85 53.35 -89.95 52.15 -91.25 50.15 -92.2 48.7 -92.75 47.0 L-93.15 45.45 -93.75 41.1 -93.95 36.5 Q-93.95 17.9 -86.75 0.95 -79.85 -15.45 -67.2 -28.05 -54.55 -40.7 -38.2 -47.65 -21.2 -54.8 -2.65 -54.8 30.5 -54.85 54.5 -34.65 78.15 -14.75 84.1 17.2 M30.75 -28.3 Q29.85 -28.3 29.2 -29.1 28.65 -29.75 28.75 -30.6 28.8 -31.4 29.45 -31.95 L33.45 -34.5 Q38.25 -37.05 43.4 -37.75 23.1 -50.6 -2.65 -50.7 -20.4 -50.7 -36.6 -43.85 -52.2 -37.25 -64.3 -25.15 -76.35 -13.05 -83.0 2.55 -89.85 18.75 -89.85 36.5 L-89.65 40.7 -89.1 44.85 -88.85 45.75 -87.85 47.85 Q-85.8 50.7 -82.05 50.75 L-21.45 50.75 -20.95 50.5 -20.65 50.45 -19.65 50.1 Q-18.2 49.55 -16.7 48.4 -12.45 44.95 -12.4 38.45 L-12.45 37.2 Q-12.95 29.95 -18.2 26.35 -21.35 24.2 -25.35 23.7 L-25.85 23.65 -25.9 23.65 Q-29.3 23.35 -33.5 22.1 -41.9 19.65 -46.45 14.95 -50.5 10.55 -50.5 4.8 -50.5 4.15 -50.0 3.7 -49.5 3.2 -48.85 3.2 -48.2 3.2 -47.75 3.7 -47.25 4.15 -47.25 4.8 -47.25 9.6 -43.85 13.0 L-44.0 11.15 Q-44.0 8.9 -43.15 6.95 L-42.55 6.4 -41.8 6.45 -41.2 7.05 Q-41.05 7.45 -41.25 7.8 -41.95 9.35 -41.95 11.15 -41.95 13.45 -40.95 15.3 L-40.9 15.35 -40.7 15.5 Q-36.15 18.45 -29.05 19.9 L-25.6 20.45 -23.0 20.9 Q-20.25 21.5 -17.85 22.8 -14.4 24.6 -12.25 27.8 -9.55 31.7 -9.25 37.0 L-9.2 38.45 Q-9.2 46.35 -14.5 50.75 L61.1 50.75 Q55.4 46.55 55.4 40.0 L55.45 39.05 Q55.95 32.05 60.7 26.85 L60.7 26.75 61.95 23.1 Q63.8 19.3 67.1 17.9 67.5 17.75 67.85 17.9 L68.4 18.5 Q68.6 18.9 68.45 19.25 L67.85 19.8 Q65.4 20.75 63.85 24.0 67.2 21.55 70.3 20.8 L71.45 21.0 Q72.0 21.35 72.15 21.95 72.3 22.6 71.95 23.15 L71.0 23.8 Q69.35 24.2 67.45 25.3 65.2 26.6 63.45 28.4 58.95 33.0 58.55 39.25 L58.5 40.0 Q58.5 44.8 62.7 48.1 64.85 49.7 67.85 50.75 L78.7 50.75 Q85.3 50.7 87.75 47.55 89.85 44.95 89.85 38.7 L89.85 38.4 Q89.9 33.3 86.15 26.95 83.75 22.85 81.05 20.0 L80.7 19.6 Q80.2 19.1 80.15 18.55 77.15 1.95 68.75 -11.8 60.5 -25.35 47.9 -34.65 47.35 -33.85 46.35 -33.85 43.35 -33.85 40.0 -32.8 42.1 -32.55 45.15 -31.05 46.05 -30.6 45.6 -29.65 45.3 -29.1 44.7 -29.1 L44.2 -29.2 Q40.95 -30.8 39.1 -30.8 L37.5 -30.55 Q41.45 -28.9 44.95 -26.15 L45.35 -25.45 45.15 -24.7 Q44.85 -24.3 44.35 -24.3 43.95 -24.3 43.7 -24.5 L39.65 -27.15 Q36.6 -28.95 34.0 -29.55 L33.0 -29.5 32.3 -28.95 32.05 -28.8 Q31.45 -28.3 30.75 -28.3" fill="#000000" fill-rule="evenodd" stroke="none"/>
    <path d="M5.05 19.55 Q3.3 16.75 1.15 17.1 -1.1 17.45 -0.05 20.6 L5.05 19.55 M10.05 12.85 Q8.6 11.75 7.05 12.3 5.5 12.85 5.5 14.85 L5.85 16.75 6.7 19.05 12.3 16.8 11.15 14.1 10.05 12.85 M19.15 9.75 Q17.8 7.7 15.6 8.15 13.35 8.65 13.2 11.85 13.15 13.7 13.8 16.1 L20.3 12.8 Q19.95 10.95 19.15 9.75 M-5.0 20.7 L-2.3 20.8 -1.9 20.65 -1.8 19.6 Q-2.0 18.55 -3.2 18.8 -4.4 19.0 -4.9 19.8 -5.25 20.25 -5.25 20.65 L-5.0 20.7 M-5.25 -12.2 L-7.05 -12.25 Q-7.8 -12.05 -8.15 -10.8 -8.5 -9.6 -7.95 -9.15 -7.7 -8.9 -7.35 -8.95 -5.95 -8.35 -5.3 -9.3 -4.6 -10.25 -4.45 -10.8 -4.3 -11.1 -4.3 -11.45 -4.35 -12.15 -5.25 -12.2 M1.3 -15.5 Q2.5 -17.1 0.45 -17.65 L-1.85 -17.9 -2.7 -17.9 Q-3.7 -17.55 -4.6 -15.95 -5.45 -14.35 -4.3 -13.6 -3.7 -13.2 -2.95 -13.15 L-1.1 -13.25 Q0.0 -13.75 1.3 -15.5 M7.3 -17.65 Q8.25 -17.8 8.85 -18.25 9.75 -18.85 9.6 -19.75 L9.55 -19.8 Q9.7 -21.6 8.65 -22.15 L7.55 -22.35 3.95 -21.85 Q2.85 -21.55 2.6 -20.6 L2.55 -19.7 2.8 -18.1 3.0 -17.55 Q3.7 -16.7 5.25 -16.8 L7.3 -17.65 M12.9 -24.5 L11.7 -24.1 Q10.5 -23.4 10.75 -21.9 L10.8 -20.2 11.3 -19.45 Q12.05 -18.7 13.45 -18.8 L16.75 -19.3 17.85 -19.8 Q18.95 -20.5 18.75 -21.7 18.5 -23.2 17.8 -23.9 17.0 -24.65 15.45 -24.6 L12.9 -24.5 M43.6 14.65 Q44.55 9.8 41.75 9.4 39.45 9.05 38.75 11.45 L41.85 13.35 43.6 14.65 M50.95 17.45 Q48.45 18.9 44.55 17.3 L41.15 15.35 Q35.2 10.85 28.75 11.95 24.85 12.6 17.25 16.7 12.2 19.4 8.2 20.8 2.9 22.6 -1.8 22.6 -11.65 22.7 -15.55 17.85 -18.15 14.65 -18.45 8.2 -18.35 2.95 -16.9 -2.05 -12.55 -16.6 0.85 -23.8 14.2 -31.0 28.75 -26.65 41.4 -22.85 48.7 -11.9 55.9 -1.05 54.7 11.85 53.8 15.85 50.95 17.45 M44.4 15.15 Q45.8 16.05 47.1 16.35 L47.25 15.1 Q47.1 14.05 46.1 14.0 44.8 13.95 44.4 15.15 M25.8 5.05 Q22.7 4.85 21.95 7.9 21.55 9.45 21.8 11.05 L21.95 12.05 Q26.3 10.2 29.45 9.8 30.1 5.4 25.8 5.05 M31.65 9.65 Q34.85 9.75 37.8 11.0 L38.0 11.0 Q38.3 9.6 38.05 8.2 37.55 5.35 34.7 5.3 31.15 5.25 31.65 9.65 M36.8 -5.8 L38.7 -7.05 Q39.05 -7.65 38.35 -8.5 37.9 -9.05 37.15 -8.95 L36.5 -8.75 35.0 -7.8 Q34.5 -7.55 34.55 -7.05 L35.0 -6.0 Q35.45 -5.2 36.8 -5.8 M35.05 -21.5 L33.3 -22.15 32.45 -22.4 31.05 -22.55 Q29.55 -22.35 29.35 -20.5 L29.15 -19.45 Q29.25 -18.35 30.7 -18.0 L33.2 -17.3 34.15 -17.2 Q35.2 -17.35 35.7 -18.3 36.9 -20.55 35.05 -21.5 M43.6 -13.15 L41.6 -13.25 39.95 -11.65 39.45 -10.85 Q39.15 -9.9 39.95 -8.95 40.75 -8.0 41.6 -8.3 L42.35 -8.8 43.6 -10.0 Q44.55 -11.05 44.2 -12.2 L43.6 -13.15 M41.15 -14.3 Q42.25 -15.4 42.2 -16.05 L41.7 -16.95 40.65 -17.9 39.9 -18.45 Q39.55 -18.75 39.05 -18.9 38.1 -19.25 37.4 -18.5 L36.35 -17.2 36.15 -16.55 Q36.1 -15.75 36.8 -15.3 L38.5 -13.95 39.25 -13.45 Q40.15 -13.2 41.15 -14.3 M27.15 -23.6 L25.85 -24.15 23.6 -24.5 Q21.5 -24.9 20.95 -24.25 20.8 -24.1 20.15 -21.95 19.75 -20.55 20.7 -19.9 21.15 -19.6 21.7 -19.55 L23.4 -19.2 25.75 -19.05 Q27.0 -18.7 27.6 -19.55 L27.95 -20.5 Q28.35 -22.65 27.15 -23.6" fill="#000000" fill-rule="evenodd" stroke="none"/>
    <path d="M-15.65 -35.6 Q-15.85 -36.4 -15.4 -37.15 -14.9 -37.85 -14.1 -38.05 L-7.85 -38.75 Q-1.2 -38.7 4.9 -35.75 8.0 -34.25 9.85 -32.7 10.5 -32.15 10.55 -31.3 10.6 -30.45 10.05 -29.8 9.45 -29.1 8.5 -29.1 7.7 -29.1 7.15 -29.6 L5.7 -30.6 5.0 -30.5 1.2 -29.5 Q-4.6 -27.55 -7.3 -23.95 -7.6 -23.55 -8.1 -23.55 L-8.75 -23.75 -9.15 -24.45 -8.95 -25.2 Q-6.25 -28.65 -1.15 -30.8 -5.8 -30.4 -7.75 -29.25 L-8.25 -29.15 Q-8.85 -29.15 -9.15 -29.65 L-9.25 -30.45 -8.75 -31.05 Q-5.45 -32.85 1.15 -32.95 -3.5 -34.65 -7.85 -34.65 L-13.2 -34.05 -14.75 -34.3 Q-15.45 -34.75 -15.65 -35.6" fill="#000000" fill-rule="evenodd" stroke="none"/>
  </g>
</svg>
