<?xml version="1.0" encoding="UTF-8" standalone="no"?>
<svg xmlns:xlink="http://www.w3.org/1999/xlink" height="89.5px" width="60.0px" xmlns="http://www.w3.org/2000/svg">
  <g transform="matrix(1.0, 0.0, 0.0, 1.0, 30.0, 44.75)">
    <path d="M-7.2 -22.05 Q-6.3 -23.55 -5.0 -23.55 L-4.7 -23.5 Q-2.9 -19.6 -2.75 -14.45 L-2.85 -14.35 Q-3.75 -12.85 -5.0 -12.85 -6.3 -12.85 -7.2 -14.35 -8.15 -15.85 -8.15 -18.2 -8.15 -20.55 -7.2 -22.05" fill="#ffffff" fill-rule="evenodd" stroke="none"/>
    <path d="M-20.05 -26.5 Q-23.25 -21.2 -23.25 -14.0 -23.25 -6.7 -20.05 -1.5 -18.5 1.05 -16.45 2.45 -14.25 4.0 -11.75 4.0 -6.85 4.0 -3.45 -1.5 -0.25 -6.7 -0.25 -14.0 -0.25 -21.2 -3.45 -26.5 -6.8 -31.95 -11.75 -32.0 -16.8 -31.95 -20.05 -26.5 M0.0 -39.75 L0.7 -39.7 -3.35 -38.3 -4.0 -38.5 Q-4.65 -38.5 -5.05 -38.05 L-5.5 -37.0 Q-5.5 -36.35 -5.05 -35.95 -4.65 -35.5 -4.0 -35.5 -3.4 -35.5 -2.95 -35.95 -2.5 -36.35 -2.5 -37.0 L-2.6 -37.5 3.15 -39.5 Q9.05 -38.75 14.0 -35.4 18.8 -32.15 21.7 -27.1 L17.7 -28.0 15.8 -27.25 Q15.3 -28.0 14.5 -28.0 13.85 -28.0 13.45 -27.55 13.0 -27.1 13.0 -26.5 13.0 -25.85 13.45 -25.45 13.85 -25.0 14.5 -25.0 15.8 -25.0 15.95 -26.25 L17.8 -26.95 22.35 -25.9 Q25.0 -20.7 25.0 -14.75 25.0 -9.6 23.0 -5.0 L17.85 -7.5 14.95 -7.5 Q14.9 -8.05 14.45 -8.4 14.05 -8.75 13.5 -8.75 12.85 -8.75 12.45 -8.3 12.0 -7.85 12.0 -7.25 12.0 -6.6 12.45 -6.2 12.85 -5.75 13.5 -5.75 14.3 -5.75 14.8 -6.5 L17.65 -6.5 22.6 -4.1 Q20.0 1.45 15.1 5.2 10.1 8.95 3.95 9.95 L1.8 9.35 0.35 7.35 0.5 6.75 Q0.5 6.15 0.05 5.7 -0.4 5.25 -1.0 5.25 -1.65 5.25 -2.05 5.7 -2.5 6.15 -2.5 6.75 L-2.05 7.8 Q-1.65 8.25 -1.0 8.25 L-0.35 8.1 1.2 10.2 1.3 10.25 0.0 10.25 Q-10.35 10.25 -17.65 2.95 -25.0 -4.4 -25.0 -14.75 -25.0 -25.1 -17.65 -32.4 -10.35 -39.7 0.0 -39.75" fill="#ffffff" fill-rule="evenodd" stroke="none"/>
    <path d="M-13.25 -21.25 Q-15.25 -21.25 -16.6 -19.0 -18.0 -16.75 -18.0 -13.5 -18.0 -10.25 -16.6 -8.0 -15.25 -5.75 -13.25 -5.75 -11.3 -5.75 -9.9 -8.0 -8.5 -10.3 -8.5 -13.5 -8.5 -16.7 -9.9 -19.0 -11.3 -21.25 -13.25 -21.25 M-5.6 -25.2 L-5.05 -24.25 Q-6.7 -24.15 -7.8 -22.4 -8.85 -20.65 -8.85 -18.2 -8.85 -15.7 -7.8 -13.95 -6.7 -12.2 -5.0 -12.15 -3.75 -12.15 -2.8 -13.25 -2.95 -6.95 -5.6 -2.8 -8.25 1.6 -11.75 1.5 -15.2 1.6 -17.95 -2.8 -20.75 -7.4 -20.75 -14.0 -20.75 -20.6 -17.95 -25.2 -15.25 -29.5 -11.75 -29.5 -8.2 -29.5 -5.6 -25.2" fill="#ffffff" fill-rule="evenodd" stroke="none"/>
    <path d="M0.0 -44.75 Q12.4 -44.75 21.2 -35.95 30.0 -27.15 30.0 -14.75 30.0 -2.3 21.2 6.5 12.4 15.25 0.0 15.25 -12.45 15.25 -21.2 6.5 -30.0 -2.3 -30.0 -14.75 -30.0 -27.15 -21.2 -35.95 -12.45 -44.75 0.0 -44.75 M0.7 -39.7 L0.0 -39.75 Q-10.35 -39.7 -17.65 -32.4 -25.0 -25.1 -25.0 -14.75 -25.0 -4.4 -17.65 2.95 -10.35 10.25 0.0 10.25 L1.3 10.25 1.2 10.2 -0.35 8.1 -1.0 8.25 Q-1.65 8.25 -2.05 7.8 L-2.5 6.75 Q-2.5 6.15 -2.05 5.7 -1.65 5.25 -1.0 5.25 -0.4 5.25 0.05 5.7 0.5 6.15 0.5 6.75 L0.35 7.35 1.8 9.35 3.95 9.95 Q10.1 8.95 15.1 5.2 20.0 1.45 22.6 -4.1 L17.65 -6.5 14.8 -6.5 Q14.3 -5.75 13.5 -5.75 12.85 -5.75 12.45 -6.2 12.0 -6.6 12.0 -7.25 12.0 -7.85 12.45 -8.3 12.85 -8.75 13.5 -8.75 14.05 -8.75 14.45 -8.4 14.9 -8.05 14.95 -7.5 L17.85 -7.5 23.0 -5.0 Q25.0 -9.6 25.0 -14.75 25.0 -20.7 22.35 -25.9 L17.8 -26.95 15.95 -26.25 Q15.8 -25.0 14.5 -25.0 13.85 -25.0 13.45 -25.45 13.0 -25.85 13.0 -26.5 13.0 -27.1 13.45 -27.55 13.85 -28.0 14.5 -28.0 15.3 -28.0 15.8 -27.25 L17.7 -28.0 21.7 -27.1 Q18.8 -32.15 14.0 -35.4 9.05 -38.75 3.15 -39.5 L-2.6 -37.5 -2.5 -37.0 Q-2.5 -36.35 -2.95 -35.95 -3.4 -35.5 -4.0 -35.5 -4.65 -35.5 -5.05 -35.95 -5.5 -36.35 -5.5 -37.0 L-5.05 -38.05 Q-4.65 -38.5 -4.0 -38.5 L-3.35 -38.3 0.7 -39.7" fill="#000000" fill-rule="evenodd" stroke="none"/>
    <path d="M-11.75 -32.0 Q-6.8 -31.95 -3.45 -26.5 -0.25 -21.2 -0.25 -14.0 -0.25 -6.7 -3.45 -1.5 -6.85 4.0 -11.75 4.0 -14.25 4.0 -16.45 2.45 -18.5 1.05 -20.05 -1.5 -23.25 -6.7 -23.25 -14.0 -23.25 -21.2 -20.05 -26.5 -16.8 -31.95 -11.75 -32.0 M-8.85 -18.2 Q-8.85 -20.65 -7.8 -22.4 -6.7 -24.15 -5.05 -24.25 L-5.6 -25.2 Q-8.2 -29.5 -11.75 -29.5 -15.25 -29.5 -17.95 -25.2 -20.75 -20.6 -20.75 -14.0 -20.75 -7.4 -17.95 -2.8 -15.2 1.6 -11.75 1.5 -8.25 1.6 -5.6 -2.8 -2.95 -6.95 -2.8 -13.25 -3.75 -12.15 -5.0 -12.15 -6.7 -12.2 -7.8 -13.95 -8.85 -15.7 -8.85 -18.2 M-5.0 -23.55 Q-6.3 -23.55 -7.2 -22.05 -8.15 -20.55 -8.15 -18.2 -8.15 -15.85 -7.2 -14.35 -6.3 -12.85 -5.0 -12.85 -3.75 -12.85 -2.85 -14.35 L-2.75 -14.45 Q-2.9 -19.6 -4.7 -23.5 L-5.0 -23.55" fill="#000000" fill-rule="evenodd" stroke="none"/>
    <path d="M-13.25 -21.25 Q-11.3 -21.25 -9.9 -19.0 -8.5 -16.7 -8.5 -13.5 -8.5 -10.3 -9.9 -8.0 -11.3 -5.75 -13.25 -5.75 -15.25 -5.75 -16.6 -8.0 -18.0 -10.25 -18.0 -13.5 -18.0 -16.75 -16.6 -19.0 -15.25 -21.25 -13.25 -21.25" fill="#000000" fill-rule="evenodd" stroke="none"/>
    <path d="M-21.5 42.75 Q-21.5 41.95 -15.05 41.35 L0.5 40.75 16.05 41.35 Q22.5 41.95 22.5 42.75 22.5 43.6 16.05 44.15 L0.5 44.75 -15.05 44.15 Q-21.5 43.6 -21.5 42.75" fill="#000000" fill-rule="evenodd" stroke="none"/>
  </g>
</svg>
