<?xml version="1.0" encoding="UTF-8" standalone="no"?>
<svg xmlns:xlink="http://www.w3.org/1999/xlink" height="66.7px" width="78.25px" xmlns="http://www.w3.org/2000/svg">
  <g transform="matrix(1.0, 0.0, 0.0, 1.0, 39.1, 33.35)">
    <path d="M-8.75 8.5 Q-4.9 8.5 -2.0 5.85 L-8.7 -0.4 -15.25 6.1 Q-12.45 8.5 -8.75 8.5 M-12.15 -19.65 Q-14.95 -22.0 -18.55 -22.0 -22.7 -22.0 -25.6 -19.1 -28.55 -16.15 -28.55 -12.05 -28.55 -7.95 -25.65 -5.05 -22.8 -2.15 -18.7 -2.1 L-18.75 -1.45 Q-18.75 2.05 -16.55 4.8 L-10.0 -1.65 -15.65 -6.9 Q-17.3 -5.75 -19.3 -5.75 -21.95 -5.75 -23.85 -7.65 -25.7 -9.55 -25.7 -12.2 -25.7 -14.85 -23.85 -16.75 -21.95 -18.65 -19.3 -18.65 -16.6 -18.65 -14.7 -16.75 -12.85 -14.85 -12.85 -12.2 -12.85 -9.95 -14.3 -8.1 L-8.75 -2.9 -3.3 -8.25 Q-4.65 -10.0 -4.65 -12.2 -4.65 -14.85 -2.75 -16.75 -0.85 -18.65 1.8 -18.65 4.45 -18.65 6.35 -16.75 8.25 -14.85 8.25 -12.2 8.25 -9.55 6.35 -7.65 4.45 -5.75 1.8 -5.75 -0.3 -5.75 -2.0 -7.0 L-7.4 -1.65 -0.8 4.5 Q1.2 1.85 1.2 -1.45 L1.2 -2.1 Q5.25 -2.15 8.15 -5.05 11.0 -7.95 11.0 -12.05 11.0 -16.15 8.1 -19.1 5.2 -22.0 1.05 -22.0 -2.6 -22.0 -5.35 -19.65 -8.1 -17.4 -8.75 -13.9 -9.45 -17.4 -12.15 -19.65 M13.4 -17.75 L12.6 -17.7 13.25 -15.2 13.3 -15.2 Q14.6 -15.2 15.45 -14.35 16.35 -13.45 16.35 -12.2 16.35 -11.05 15.55 -10.15 14.75 -9.3 13.55 -9.2 L13.2 -6.5 13.35 -6.5 Q15.6 -6.5 17.25 -8.15 18.85 -9.8 18.9 -12.1 18.9 -14.4 17.3 -16.05 15.7 -17.7 13.4 -17.75 M-31.15 -9.2 Q-32.25 -9.35 -33.0 -10.15 -33.8 -11.0 -33.8 -12.15 -33.85 -13.4 -32.95 -14.25 -32.1 -15.15 -30.85 -15.2 L-30.8 -15.2 -30.15 -17.7 -30.75 -17.75 Q-33.05 -17.75 -34.65 -16.15 -36.3 -14.5 -36.3 -12.15 -36.35 -9.85 -34.75 -8.2 -33.15 -6.55 -30.85 -6.5 L-30.75 -6.5 -31.15 -9.2 M-36.6 -6.3 Q-39.05 -8.7 -39.1 -12.1 -39.1 -15.55 -36.7 -18.0 -34.3 -20.4 -30.9 -20.45 L-29.15 -20.3 Q-26.45 -26.15 -21.05 -29.7 -15.5 -33.35 -8.8 -33.35 -2.1 -33.35 3.45 -29.7 8.9 -26.15 11.6 -20.25 L13.3 -20.45 Q16.7 -20.5 19.15 -18.1 21.6 -15.7 21.6 -12.25 21.65 -8.85 19.25 -6.4 16.85 -3.95 13.45 -3.95 L12.5 -3.95 11.4 -1.2 Q20.45 7.65 22.8 17.05 24.4 23.55 22.65 29.5 26.0 31.3 29.05 31.05 33.2 30.75 39.0 32.35 39.25 32.7 39.05 32.95 38.6 33.5 36.4 33.3 34.2 33.1 26.6 33.2 L19.4 33.3 19.45 33.15 -15.8 33.15 Q-15.7 19.55 -19.55 8.7 -23.3 6.65 -26.0 3.4 -28.75 0.1 -30.1 -3.95 L-30.75 -3.95 Q-34.15 -3.9 -36.6 -6.3" fill="#000000" fill-rule="evenodd" stroke="none"/>
    <path d="M-33.8 -12.15 Q-33.8 -11.0 -33.0 -10.15 -32.25 -9.35 -31.15 -9.2 L-30.75 -6.5 -30.85 -6.5 Q-33.15 -6.55 -34.75 -8.2 -36.35 -9.85 -36.3 -12.15 -36.3 -14.5 -34.65 -16.15 -33.05 -17.75 -30.75 -17.75 L-30.15 -17.7 -30.8 -15.2 -30.85 -15.2 Q-32.1 -15.15 -32.95 -14.25 -33.85 -13.4 -33.8 -12.15" fill="#ffffff" fill-rule="evenodd" stroke="none"/>
    <path d="M13.3 -15.2 L13.25 -15.2 12.6 -17.7 13.4 -17.75 Q15.7 -17.7 17.3 -16.05 18.9 -14.4 18.9 -12.1 18.85 -9.8 17.25 -8.15 15.6 -6.5 13.35 -6.5 L13.2 -6.5 13.55 -9.2 Q14.75 -9.3 15.55 -10.15 16.35 -11.05 16.35 -12.2 16.35 -13.45 15.45 -14.35 14.6 -15.2 13.3 -15.2" fill="#ffffff" fill-rule="evenodd" stroke="none"/>
    <path d="M-18.55 -22.0 Q-14.95 -22.0 -12.15 -19.65 -9.45 -17.4 -8.75 -13.9 -8.1 -17.4 -5.35 -19.65 -2.6 -22.0 1.05 -22.0 5.2 -22.0 8.1 -19.1 11.0 -16.15 11.0 -12.05 11.0 -7.95 8.15 -5.05 5.25 -2.15 1.2 -2.1 L1.2 -1.45 Q1.2 1.85 -0.8 4.5 L-7.4 -1.65 -2.0 -7.0 Q-0.3 -5.75 1.8 -5.75 4.45 -5.75 6.35 -7.65 8.25 -9.55 8.25 -12.2 8.25 -14.85 6.35 -16.75 4.45 -18.65 1.8 -18.65 -0.85 -18.65 -2.75 -16.75 -4.65 -14.85 -4.65 -12.2 -4.65 -10.0 -3.3 -8.25 L-8.75 -2.9 -14.3 -8.1 Q-12.85 -9.95 -12.85 -12.2 -12.85 -14.85 -14.7 -16.75 -16.6 -18.65 -19.3 -18.65 -21.95 -18.65 -23.85 -16.75 -25.7 -14.85 -25.7 -12.2 -25.7 -9.55 -23.85 -7.65 -21.95 -5.75 -19.3 -5.75 -17.3 -5.75 -15.65 -6.9 L-10.0 -1.65 -16.55 4.8 Q-18.75 2.05 -18.75 -1.45 L-18.7 -2.1 Q-22.8 -2.15 -25.65 -5.05 -28.55 -7.95 -28.55 -12.05 -28.55 -16.15 -25.6 -19.1 -22.7 -22.0 -18.55 -22.0" fill="#ffffff" fill-rule="evenodd" stroke="none"/>
    <path d="M-2.0 5.85 Q-4.9 8.5 -8.75 8.5 -12.45 8.5 -15.25 6.1 L-8.7 -0.4 -2.0 5.85" fill="#ffffff" fill-rule="evenodd" stroke="none"/>
  </g>
</svg>
