<?xml version="1.0" encoding="UTF-8" standalone="no"?>
<svg xmlns:xlink="http://www.w3.org/1999/xlink" height="153.3px" width="77.0px" xmlns="http://www.w3.org/2000/svg">
  <g transform="matrix(1.0, 0.0, 0.0, 1.0, 38.5, 76.65)">
    <path d="M17.5 13.0 L17.5 15.2 17.2 16.0 16.4 16.3 Q15.95 16.3 15.65 16.0 15.3 15.65 15.3 15.2 L15.3 13.2 11.7 13.45 11.7 15.2 11.4 16.0 10.6 16.3 Q10.15 16.3 9.85 16.0 9.5 15.65 9.5 15.2 L9.5 13.6 5.9 13.9 5.9 15.2 5.6 16.0 4.8 16.3 Q4.35 16.3 4.05 16.0 3.7 15.65 3.7 15.2 L3.7 14.05 0.1 14.3 0.1 15.2 -0.2 16.0 Q-0.55 16.3 -1.0 16.3 L-1.75 16.0 -2.1 15.2 -2.1 14.5 -4.25 14.65 -3.75 19.35 25.05 19.35 25.7 12.4 23.3 12.6 23.3 15.2 23.0 16.0 Q22.65 16.3 22.2 16.3 21.75 16.3 21.45 16.0 21.1 15.65 21.1 15.2 L21.1 12.75 17.5 13.0 M-18.25 -76.65 L38.5 -76.55 29.0 23.7 14.7 23.7 20.35 76.65 -27.9 76.65 Q-45.2 29.1 -34.2 0.7 -27.55 -16.5 -12.65 -23.5 L-18.25 -76.65 M33.75 -71.95 L33.8 -72.25 -12.15 -72.3 -2.85 -22.7 Q-2.75 -22.25 -3.0 -21.85 -3.25 -21.45 -3.7 -21.4 -4.15 -21.3 -4.5 -21.6 L-4.95 -22.3 -12.25 -61.2 -5.05 7.25 -2.1 7.25 -2.1 5.05 Q-2.1 4.6 -1.75 4.3 -1.45 3.95 -1.0 3.95 -0.55 3.95 -0.2 4.3 L0.1 5.05 0.1 7.3 3.7 7.3 3.7 5.05 Q3.7 4.6 4.05 4.3 4.35 3.95 4.8 3.95 5.25 3.95 5.6 4.3 5.9 4.6 5.9 5.05 L5.9 7.35 9.5 7.4 9.5 5.05 Q9.5 4.6 9.85 4.3 10.15 3.95 10.6 3.95 11.05 3.95 11.4 4.3 L11.7 5.05 11.7 7.4 15.3 7.45 15.3 5.05 Q15.3 4.6 15.65 4.3 15.95 3.95 16.4 3.95 16.85 3.95 17.2 4.3 L17.5 5.05 17.5 7.45 21.1 7.5 21.1 5.05 Q21.1 4.6 21.45 4.3 21.75 3.95 22.2 3.95 22.65 3.95 23.0 4.3 L23.3 5.05 23.3 7.5 26.15 7.55 27.5 -6.5 Q25.65 -4.0 22.55 -4.0 20.0 -4.0 18.2 -5.8 16.4 -7.6 16.4 -10.15 16.4 -11.35 16.9 -12.6 L10.45 -12.6 Q10.95 -11.55 10.95 -10.15 10.95 -7.6 9.15 -5.8 7.35 -4.0 4.8 -4.0 2.25 -4.0 0.45 -5.8 -1.35 -7.6 -1.35 -10.15 -1.35 -11.55 -0.85 -12.6 L-3.55 -12.6 Q-4.5 -12.6 -5.15 -13.25 -5.8 -13.9 -5.8 -14.85 -5.8 -15.8 -5.15 -16.5 -4.5 -17.15 -3.55 -17.15 L28.55 -17.15 33.75 -71.95" fill="#000000" fill-rule="evenodd" stroke="none"/>
    <path d="M17.2 -0.9 L13.75 -2.55 9.75 -1.15 13.75 -10.7 17.2 -0.9" fill="#000000" fill-rule="evenodd" stroke="none"/>
    <path d="M3.65 -25.4 Q3.2 -25.4 2.9 -25.7 2.55 -26.0 2.55 -26.45 2.55 -26.9 2.9 -27.2 3.2 -27.55 3.65 -27.55 L22.4 -27.55 Q22.85 -27.55 23.2 -27.2 L23.5 -26.45 23.2 -25.7 Q22.85 -25.4 22.4 -25.4 L3.65 -25.4" fill="#000000" fill-rule="evenodd" stroke="none"/>
    <path d="M23.2 -33.6 L23.5 -32.85 23.2 -32.05 Q22.85 -31.75 22.4 -31.75 L3.65 -31.75 Q3.2 -31.75 2.9 -32.05 2.55 -32.4 2.55 -32.85 2.55 -33.3 2.9 -33.6 3.2 -33.95 3.65 -33.95 L22.4 -33.95 Q22.85 -33.95 23.2 -33.6" fill="#000000" fill-rule="evenodd" stroke="none"/>
    <path d="M23.2 -38.45 Q22.85 -38.15 22.4 -38.15 L3.65 -38.15 Q3.2 -38.15 2.9 -38.45 2.55 -38.8 2.55 -39.25 2.55 -39.7 2.9 -40.0 L3.65 -40.3 22.4 -40.3 23.2 -40.0 23.5 -39.25 23.2 -38.45" fill="#000000" fill-rule="evenodd" stroke="none"/>
  </g>
</svg>
