<?xml version="1.0" encoding="UTF-8" standalone="no"?>
<svg xmlns:xlink="http://www.w3.org/1999/xlink" height="107.5px" width="93.4px" xmlns="http://www.w3.org/2000/svg">
  <g transform="matrix(1.0, 0.0, 0.0, 1.0, 46.7, 53.75)">
    <path d="M-27.15 42.2 L-23.15 41.6 -23.0 49.25 -27.15 42.2" fill="#000000" fill-rule="evenodd" stroke="none"/>
    <path d="M-18.9 42.2 L-14.85 41.6 -14.75 49.25 -18.9 42.2" fill="#000000" fill-rule="evenodd" stroke="none"/>
    <path d="M4.3 41.8 L8.3 42.45 4.15 49.5 4.3 41.8" fill="#000000" fill-rule="evenodd" stroke="none"/>
    <path d="M-23.15 41.6 L-27.15 42.2 -23.0 49.25 -23.15 41.6 M-14.85 41.6 L-18.9 42.2 -14.75 49.25 -14.85 41.6 M-3.9 49.5 L0.25 42.45 -3.8 41.8 -3.9 49.5 M8.3 42.45 L4.3 41.8 4.15 49.5 8.3 42.45 M-23.9 26.85 Q-17.85 22.1 -9.35 22.1 -0.8 22.1 5.25 26.85 11.3 31.55 11.3 38.2 11.3 40.1 10.65 42.2 L10.55 42.45 4.0 53.3 Q3.65 53.9 3.0 53.7 2.25 53.5 2.35 52.85 L2.5 42.45 2.3 42.45 -4.1 53.3 Q-4.4 53.85 -5.1 53.7 -5.75 53.55 -5.75 52.85 L-5.6 42.45 -13.05 42.45 -12.9 52.6 Q-12.9 53.35 -13.55 53.5 -14.2 53.65 -14.55 53.1 L-20.8 42.45 -21.35 42.45 -21.15 52.6 Q-21.15 53.3 -21.8 53.5 -22.45 53.65 -22.85 53.1 L-29.1 42.5 -29.1 42.45 -29.2 42.45 Q-29.95 40.45 -29.95 38.2 -29.95 31.55 -23.9 26.85 M-21.1 29.3 Q-21.6 29.0 -22.7 30.1 -23.8 31.15 -24.9 33.0 -25.95 34.8 -26.35 36.3 -26.8 37.8 -26.3 38.1 -25.8 38.35 -24.7 37.3 L-22.5 34.4 Q-21.45 32.55 -21.05 31.05 -20.6 29.55 -21.1 29.3" fill="#000000" fill-rule="evenodd" stroke="none"/>
    <path d="M-3.8 41.8 L0.25 42.45 -3.9 49.5 -3.8 41.8" fill="#000000" fill-rule="evenodd" stroke="none"/>
    <path d="M-22.7 30.1 Q-21.6 29.0 -21.1 29.3 -20.6 29.55 -21.05 31.05 -21.45 32.55 -22.5 34.4 L-24.7 37.3 Q-25.8 38.35 -26.3 38.1 -26.8 37.8 -26.35 36.3 -25.95 34.8 -24.9 33.0 -23.8 31.15 -22.7 30.1" fill="#ffffff" fill-rule="evenodd" stroke="none"/>
    <path d="M-19.65 -8.4 L-20.2 -10.95 -21.75 -9.15 -19.65 -8.4 M-12.6 -21.15 Q-11.5 -21.15 -10.75 -21.95 -9.95 -22.7 -9.95 -23.8 L-10.05 -24.55 -15.2 -23.2 Q-15.0 -22.3 -14.3 -21.75 -13.55 -21.15 -12.6 -21.15 M33.75 -7.9 Q28.65 -5.6 22.4 -4.05 13.1 -1.7 3.55 -1.7 -13.75 -1.7 -29.8 -9.45 -29.4 -3.1 -20.15 1.35 -10.85 5.8 2.1 5.8 14.25 5.8 23.25 1.85 32.25 -2.05 33.75 -7.9 M26.5 -8.25 L25.45 -9.2 25.0 -7.75 26.5 -8.25 M37.9 -22.75 L43.65 -32.55 44.5 -33.3 Q45.1 -33.5 45.65 -33.3 L46.5 -32.55 Q46.75 -32.0 46.65 -31.45 L43.75 -15.95 Q43.65 -15.15 42.9 -14.8 L42.15 -14.6 41.45 -14.75 38.3 -16.25 Q38.0 -1.3 26.9 9.25 15.8 19.75 0.25 19.75 -15.25 19.75 -26.35 9.3 -37.4 -1.15 -37.8 -16.1 L-42.35 -14.3 -42.95 -14.2 -43.8 -14.45 Q-44.5 -14.85 -44.6 -15.65 L-46.7 -34.15 -46.45 -35.25 -45.5 -35.95 -44.35 -35.85 Q-43.8 -35.6 -43.55 -35.1 L-37.4 -22.55 Q-35.3 -35.9 -24.7 -44.75 -14.0 -53.75 0.25 -53.75 14.4 -53.75 25.15 -44.85 35.75 -36.0 37.9 -22.75 M19.4 -22.15 Q18.7 -22.15 18.25 -21.7 17.75 -21.2 17.75 -20.55 17.75 -19.9 18.25 -19.4 18.7 -18.95 19.4 -18.9 20.05 -18.95 20.5 -19.4 21.0 -19.9 21.0 -20.55 21.0 -21.2 20.5 -21.7 L19.4 -22.15 M14.1 -20.55 Q14.1 -22.75 15.6 -24.25 9.35 -25.7 2.1 -25.7 L-6.4 -25.15 -6.25 -23.8 Q-6.25 -21.15 -8.1 -19.3 -9.95 -17.45 -12.6 -17.45 -14.7 -17.45 -16.4 -18.7 -18.1 -19.95 -18.7 -21.9 -22.95 -20.1 -25.7 -17.7 -28.5 -15.3 -29.45 -12.5 -26.55 -11.05 -24.1 -10.1 L-20.4 -14.4 Q-19.9 -14.95 -19.2 -14.8 -18.45 -14.55 -18.3 -13.85 L-17.05 -7.6 Q-7.05 -4.6 3.55 -4.6 12.9 -4.6 22.3 -7.0 L22.3 -7.2 23.75 -11.7 Q23.9 -12.35 24.6 -12.5 25.2 -12.65 25.7 -12.25 L29.1 -9.15 32.45 -10.5 33.95 -11.15 Q33.5 -14.05 31.05 -16.65 28.65 -19.15 24.6 -21.15 L24.7 -20.55 Q24.7 -18.35 23.15 -16.8 21.6 -15.25 19.4 -15.25 17.2 -15.25 15.65 -16.8 14.1 -18.35 14.1 -20.55" fill="#000000" fill-rule="evenodd" stroke="none"/>
    <path d="M-12.6 -21.15 Q-13.55 -21.15 -14.3 -21.75 -15.0 -22.3 -15.2 -23.2 L-10.05 -24.55 -9.95 -23.8 Q-9.95 -22.7 -10.75 -21.95 -11.5 -21.15 -12.6 -21.15" fill="#ffffff" fill-rule="evenodd" stroke="none"/>
    <path d="M-19.65 -8.4 L-21.75 -9.15 -20.2 -10.95 -19.65 -8.4" fill="#ffffff" fill-rule="evenodd" stroke="none"/>
    <path d="M33.75 -7.9 Q32.25 -2.05 23.25 1.85 14.25 5.8 2.1 5.8 -10.85 5.8 -20.15 1.35 -29.4 -3.1 -29.8 -9.45 -13.75 -1.7 3.55 -1.7 13.1 -1.7 22.4 -4.05 28.65 -5.6 33.75 -7.9" fill="#ffffff" fill-rule="evenodd" stroke="none"/>
    <path d="M25.0 -7.75 L25.45 -9.2 26.5 -8.25 25.0 -7.75" fill="#ffffff" fill-rule="evenodd" stroke="none"/>
    <path d="M15.6 -24.25 Q14.1 -22.75 14.1 -20.55 14.1 -18.35 15.65 -16.8 17.2 -15.25 19.4 -15.25 21.6 -15.25 23.15 -16.8 24.7 -18.35 24.7 -20.55 L24.6 -21.15 Q28.65 -19.15 31.05 -16.65 33.5 -14.05 33.95 -11.15 L32.45 -10.5 29.1 -9.15 25.7 -12.25 Q25.2 -12.65 24.6 -12.5 23.9 -12.35 23.75 -11.7 L22.3 -7.2 22.3 -7.0 Q12.9 -4.6 3.55 -4.6 -7.05 -4.6 -17.05 -7.6 L-18.3 -13.85 Q-18.45 -14.55 -19.2 -14.8 -19.9 -14.95 -20.4 -14.4 L-24.1 -10.1 Q-26.55 -11.05 -29.45 -12.5 -28.5 -15.3 -25.7 -17.7 -22.95 -20.1 -18.7 -21.9 -18.1 -19.95 -16.4 -18.7 -14.7 -17.45 -12.6 -17.45 -9.95 -17.45 -8.1 -19.3 -6.25 -21.15 -6.25 -23.8 L-6.4 -25.15 2.1 -25.7 Q9.35 -25.7 15.6 -24.25" fill="#ffffff" fill-rule="evenodd" stroke="none"/>
    <path d="M17.75 -20.55 Q17.75 -21.2 18.25 -21.7 18.7 -22.15 19.4 -22.15 L20.5 -21.7 Q21.0 -21.2 21.0 -20.55 21.0 -19.9 20.5 -19.4 20.05 -18.95 19.4 -18.9 18.7 -18.95 18.25 -19.4 17.75 -19.9 17.75 -20.55" fill="#ffffff" fill-rule="evenodd" stroke="none"/>
  </g>
</svg>
