<?xml version="1.0" encoding="UTF-8" standalone="no"?>
<svg xmlns:xlink="http://www.w3.org/1999/xlink" height="30.0px" width="66.0px" xmlns="http://www.w3.org/2000/svg">
  <g transform="matrix(1.0, 0.0, 0.0, 1.0, 33.0, 15.0)">
    <path d="M32.9 -15.0 L33.0 -13.15 Q33.0 -1.5 23.3 6.75 13.65 15.0 0.0 15.0 -13.7 15.0 -23.3 6.75 -33.0 -1.55 -33.0 -13.15 L-32.9 -15.0 32.9 -15.0 M8.4 -8.75 Q17.35 -9.95 23.3 -12.3 L-24.3 -12.3 Q-9.45 -6.35 8.4 -8.75 M13.4 10.25 Q18.85 7.85 18.85 4.45 18.85 2.65 17.35 1.2 L16.2 1.2 16.4 2.15 Q16.4 5.15 11.65 7.25 6.95 9.3 0.15 9.3 -6.6 9.3 -11.3 7.25 -16.05 5.15 -16.05 2.15 L-15.85 1.2 -17.0 1.2 Q-18.5 2.75 -18.5 4.45 -18.5 7.85 -13.05 10.25 -7.55 12.65 0.15 12.65 7.9 12.65 13.4 10.25" fill="#000000" fill-rule="evenodd" stroke="none"/>
    <path d="M16.2 1.2 L17.35 1.2 Q18.85 2.65 18.85 4.45 18.85 7.85 13.4 10.25 7.9 12.65 0.15 12.65 -7.55 12.65 -13.05 10.25 -18.5 7.85 -18.5 4.45 -18.5 2.75 -17.0 1.2 L-15.85 1.2 -16.05 2.15 Q-16.05 5.15 -11.3 7.25 -6.6 9.3 0.15 9.3 6.95 9.3 11.65 7.25 16.4 5.15 16.4 2.15 L16.2 1.2" fill="#ffffff" fill-rule="evenodd" stroke="none"/>
    <path d="M23.3 -12.3 Q17.35 -9.95 8.4 -8.75 -9.45 -6.35 -24.3 -12.3 L23.3 -12.3" fill="#ffffff" fill-rule="evenodd" stroke="none"/>
  </g>
</svg>
