<?xml version="1.0" encoding="UTF-8" standalone="no"?>
<svg xmlns:xlink="http://www.w3.org/1999/xlink" height="140.6px" width="128.45px" xmlns="http://www.w3.org/2000/svg">
  <g transform="matrix(1.0, 0.0, 0.0, 1.0, 64.2, 70.3)">
    <path d="M-32.0 46.55 L-33.45 46.45 Q-34.15 47.15 -33.5 47.9 L-31.9 49.65 -33.65 51.25 -33.95 52.0 -33.7 52.7 -32.3 52.75 -30.6 51.15 -28.85 53.05 Q-28.6 53.35 -28.15 53.4 L-27.45 53.1 Q-27.15 52.85 -27.1 52.4 -27.1 52.0 -27.4 51.7 L-29.1 49.75 -27.2 47.95 Q-26.85 47.65 -26.85 47.25 -26.85 46.8 -27.15 46.5 -27.4 46.2 -27.85 46.2 -28.25 46.2 -28.55 46.5 L-30.45 48.25 -32.0 46.55 M-34.9 20.4 Q-35.3 20.35 -35.6 20.65 L-35.9 21.35 -35.65 22.05 -34.1 23.8 -35.8 25.45 -36.1 26.15 -35.85 26.85 Q-35.6 27.15 -35.15 27.2 -34.75 27.2 -34.45 26.9 L-32.75 25.3 -31.05 27.2 -29.6 27.3 Q-28.95 26.65 -29.55 25.85 L-31.3 23.95 -29.35 22.1 Q-28.6 21.4 -29.3 20.7 -29.6 20.4 -30.0 20.4 -30.4 20.35 -30.7 20.65 L-32.65 22.45 -34.2 20.7 Q-34.45 20.4 -34.9 20.4 M-33.25 1.3 L-31.55 3.2 -30.1 3.3 Q-29.45 2.65 -30.05 1.85 L-31.8 -0.05 -29.85 -1.9 Q-29.1 -2.6 -29.8 -3.3 L-31.2 -3.35 -33.15 -1.55 -34.7 -3.3 -35.4 -3.6 -36.1 -3.35 -36.4 -2.65 Q-36.45 -2.25 -36.15 -1.95 L-34.6 -0.2 -36.3 1.45 -36.6 2.15 -36.35 2.85 Q-36.1 3.15 -35.65 3.2 -35.25 3.2 -34.95 2.9 L-33.25 1.3 M-18.2 -30.7 L-15.0 -26.6 -10.85 -48.9 -17.9 -38.7 -18.2 -30.7 M-37.65 -50.6 Q-44.45 -50.6 -49.3 -45.75 -54.15 -40.9 -54.15 -34.05 -54.15 -27.2 -49.3 -22.35 -44.45 -17.5 -37.65 -17.5 -30.9 -17.5 -25.95 -22.35 -21.1 -27.3 -21.1 -34.05 -21.1 -40.8 -25.95 -45.75 -30.9 -50.6 -37.65 -50.6 M1.85 -70.3 Q14.55 -70.3 26.15 -63.0 37.35 -55.9 45.95 -43.0 64.25 -15.75 64.25 22.85 64.25 48.5 55.55 70.3 L-37.2 70.3 Q-42.5 42.9 -42.2 16.6 -42.05 -0.2 -39.75 -13.45 L-42.2 -13.85 Q-44.5 -0.35 -44.7 16.45 -45.0 42.85 -39.75 70.3 L-51.85 70.3 Q-60.55 48.3 -60.55 22.85 -60.55 -0.3 -53.35 -20.55 -56.25 -24.0 -57.45 -27.9 L-60.95 -26.0 -64.2 -49.15 -57.8 -38.85 Q-56.15 -45.75 -50.55 -50.2 -44.9 -54.75 -37.65 -54.75 L-33.15 -54.25 Q-25.5 -62.0 -16.75 -66.1 -7.7 -70.3 1.85 -70.3" fill="#000000" fill-rule="evenodd" stroke="none"/>
    <path d="M-42.2 -13.85 L-39.75 -13.45 Q-42.05 -0.2 -42.2 16.6 -42.5 42.9 -37.2 70.3 L-39.75 70.3 Q-45.0 42.85 -44.7 16.45 -44.5 -0.35 -42.2 -13.85" fill="#ffffff" fill-rule="evenodd" stroke="none"/>
    <path d="M-49.3 -45.75 Q-44.45 -50.6 -37.65 -50.6 -30.9 -50.6 -25.95 -45.75 -21.1 -40.8 -21.1 -34.05 -21.1 -27.3 -25.95 -22.35 -30.9 -17.5 -37.65 -17.5 -44.45 -17.5 -49.3 -22.35 -54.15 -27.2 -54.15 -34.05 -54.15 -40.9 -49.3 -45.75 M-31.55 -41.65 Q-30.8 -41.65 -30.8 -42.4 -30.8 -43.15 -31.55 -43.15 L-46.85 -43.15 Q-47.6 -43.15 -47.6 -42.4 -47.6 -41.65 -46.85 -41.65 L-31.55 -41.65 M-30.8 -35.7 L-27.55 -35.7 Q-27.15 -35.7 -26.85 -36.0 -26.55 -36.3 -26.55 -36.7 -26.55 -37.1 -26.85 -37.4 L-27.55 -37.7 -51.2 -37.7 -51.9 -37.4 -52.2 -36.7 -51.9 -36.0 Q-51.6 -35.7 -51.2 -35.7 L-48.6 -35.7 -49.05 -34.25 Q-49.05 -33.05 -48.2 -32.2 -47.35 -31.4 -46.2 -31.4 -45.05 -31.4 -44.2 -32.2 -43.35 -33.05 -43.35 -34.25 -43.35 -35.0 -43.8 -35.7 L-35.6 -35.7 -36.05 -34.25 Q-36.05 -33.05 -35.2 -32.2 -34.35 -31.4 -33.2 -31.4 -32.05 -31.4 -31.2 -32.2 -30.35 -33.05 -30.35 -34.25 -30.35 -35.0 -30.8 -35.7" fill="#ffffff" fill-rule="evenodd" stroke="none"/>
    <path d="M-27.55 -37.7 L-26.85 -37.4 Q-26.55 -37.1 -26.55 -36.7 -26.55 -36.3 -26.85 -36.0 -27.15 -35.7 -27.55 -35.7 L-30.8 -35.7 Q-30.35 -35.0 -30.35 -34.25 -30.35 -33.05 -31.2 -32.2 -32.05 -31.4 -33.2 -31.4 -34.35 -31.4 -35.2 -32.2 -36.05 -33.05 -36.05 -34.25 L-35.6 -35.7 -43.8 -35.7 Q-43.35 -35.0 -43.35 -34.25 -43.35 -33.05 -44.2 -32.2 -45.05 -31.4 -46.2 -31.4 -47.35 -31.4 -48.2 -32.2 -49.05 -33.05 -49.05 -34.25 L-48.6 -35.7 -51.2 -35.7 Q-51.6 -35.7 -51.9 -36.0 L-52.2 -36.7 -51.9 -37.4 -51.2 -37.7 -27.55 -37.7" fill="#000000" fill-rule="evenodd" stroke="none"/>
    <path d="M-46.85 -41.65 Q-47.6 -41.65 -47.6 -42.4 -47.6 -43.15 -46.85 -43.15 L-31.55 -43.15 Q-30.8 -43.15 -30.8 -42.4 -30.8 -41.65 -31.55 -41.65 L-46.85 -41.65" fill="#000000" fill-rule="evenodd" stroke="none"/>
    <path d="M-31.55 3.2 L-33.25 1.3 -34.95 2.9 Q-35.25 3.2 -35.65 3.2 -36.1 3.15 -36.35 2.85 L-36.6 2.15 -36.3 1.45 -34.6 -0.2 -36.15 -1.95 Q-36.45 -2.25 -36.4 -2.65 L-36.1 -3.35 -35.4 -3.6 -34.7 -3.3 -33.15 -1.55 -31.2 -3.35 -29.8 -3.3 Q-29.1 -2.6 -29.85 -1.9 L-31.8 -0.05 -30.05 1.85 Q-29.45 2.65 -30.1 3.3 L-31.55 3.2" fill="#ffffff" fill-rule="evenodd" stroke="none"/>
    <path d="M-35.6 20.65 Q-35.3 20.35 -34.9 20.4 -34.45 20.4 -34.2 20.7 L-32.65 22.45 -30.7 20.65 Q-30.4 20.35 -30.0 20.4 -29.6 20.4 -29.3 20.7 -28.6 21.4 -29.35 22.1 L-31.3 23.95 -29.55 25.85 Q-28.95 26.65 -29.6 27.3 L-31.05 27.2 -32.75 25.3 -34.45 26.9 Q-34.75 27.2 -35.15 27.2 -35.6 27.15 -35.85 26.85 L-36.1 26.15 -35.8 25.45 -34.1 23.8 -35.65 22.05 -35.9 21.35 -35.6 20.65" fill="#ffffff" fill-rule="evenodd" stroke="none"/>
    <path d="M-32.0 46.55 L-30.45 48.25 -28.55 46.5 Q-28.25 46.2 -27.85 46.2 -27.4 46.2 -27.15 46.5 -26.85 46.8 -26.85 47.25 -26.85 47.65 -27.2 47.95 L-29.1 49.75 -27.4 51.7 Q-27.1 52.0 -27.1 52.4 -27.15 52.85 -27.45 53.1 L-28.15 53.4 Q-28.6 53.35 -28.85 53.05 L-30.6 51.15 -32.3 52.75 -33.7 52.7 -33.95 52.0 -33.65 51.25 -31.9 49.65 -33.5 47.9 Q-34.15 47.15 -33.45 46.45 L-32.0 46.55" fill="#ffffff" fill-rule="evenodd" stroke="none"/>
    <path d="M-15.0 -26.6 L-18.2 -30.7 -17.9 -38.7 -10.85 -48.9 -15.0 -26.6" fill="#ffffff" fill-rule="evenodd" stroke="none"/>
  </g>
</svg>
