<?xml version="1.0" encoding="UTF-8" standalone="no"?>
<svg xmlns:xlink="http://www.w3.org/1999/xlink" height="104.65px" width="67.8px" xmlns="http://www.w3.org/2000/svg">
  <g transform="matrix(1.0, 0.0, 0.0, 1.0, 33.9, 52.3)">
    <path d="M-13.0 -37.4 Q-13.0 -38.4 -12.3 -39.1 -11.55 -39.8 -10.55 -39.8 -9.55 -39.8 -8.85 -39.1 -8.15 -38.4 -8.15 -37.4 -8.15 -36.4 -8.85 -35.65 -9.55 -34.95 -10.55 -34.95 -11.55 -34.95 -12.3 -35.65 -13.0 -36.4 -13.0 -37.4" fill="#000000" fill-rule="evenodd" stroke="none"/>
    <path d="M6.9 -37.4 Q6.9 -38.4 7.6 -39.1 8.35 -39.8 9.35 -39.8 10.35 -39.8 11.05 -39.1 11.75 -38.4 11.75 -37.4 11.75 -36.4 11.05 -35.65 10.35 -34.95 9.35 -34.95 8.35 -34.95 7.6 -35.65 6.9 -36.4 6.9 -37.4" fill="#000000" fill-rule="evenodd" stroke="none"/>
    <path d="M-4.3 -28.6 Q-4.65 -28.3 -5.15 -28.35 -5.6 -28.4 -5.9 -28.8 -6.25 -29.15 -6.2 -29.6 -6.15 -30.1 -5.75 -30.4 -3.95 -31.9 -1.5 -32.2 1.8 -32.6 4.5 -30.4 L4.9 -29.6 4.65 -28.75 Q4.35 -28.4 3.85 -28.35 3.4 -28.3 3.05 -28.6 0.8 -30.5 -1.9 -29.8 L-4.3 -28.6" fill="#000000" fill-rule="evenodd" stroke="none"/>
    <path d="M-5.35 29.2 Q-6.2 29.2 -6.85 29.8 -7.45 30.45 -7.45 31.3 -7.45 32.15 -6.85 32.75 -6.2 33.35 -5.35 33.35 -4.5 33.35 -3.9 32.75 -3.3 32.15 -3.3 31.3 -3.3 30.45 -3.9 29.8 -4.5 29.2 -5.35 29.2 M-9.45 20.75 Q-9.45 21.7 -8.75 22.4 -8.05 23.1 -7.05 23.1 -6.05 23.1 -5.4 22.4 -4.7 21.75 -4.7 20.75 -4.7 19.75 -5.4 19.05 -6.1 18.35 -7.05 18.35 -8.0 18.35 -8.75 19.05 -9.45 19.8 -9.45 20.75 M-11.15 9.7 Q-11.15 10.9 -10.3 11.75 -9.45 12.6 -8.25 12.6 -7.05 12.6 -6.2 11.75 -5.35 10.9 -5.35 9.7 -5.35 8.5 -6.2 7.65 -7.05 6.8 -8.25 6.8 -9.45 6.8 -10.3 7.65 -11.15 8.5 -11.15 9.7 M15.2 -10.6 L18.5 -10.6 18.5 -48.6 -19.45 -48.6 -19.45 -10.6 -15.9 -10.6 Q-14.4 -14.15 -10.15 -16.35 -5.8 -18.65 -0.35 -18.65 5.1 -18.65 9.45 -16.35 13.7 -14.15 15.2 -10.6 M12.15 -4.5 L11.95 -3.2 33.9 -3.2 20.15 52.35 -20.65 52.35 -33.9 -3.2 -13.35 -3.2 -13.5 -4.5 Q-13.5 -5.6 -12.9 -6.9 L-23.2 -6.9 -23.2 -26.8 -26.75 -25.0 -31.35 -45.15 -23.2 -34.55 -23.2 -52.3 22.25 -52.3 22.25 -34.85 30.15 -45.15 25.55 -25.0 22.25 -26.65 22.25 -6.9 11.5 -6.9 Q12.15 -5.7 12.15 -4.5 M8.0 -5.5 L6.95 -5.95 -8.35 -5.95 Q-8.95 -5.95 -9.35 -5.5 L-9.8 -4.5 Q-9.8 -3.6 -9.0 -3.2 L7.65 -3.2 Q8.4 -3.6 8.4 -4.5 8.4 -5.1 8.0 -5.5" fill="#000000" fill-rule="evenodd" stroke="none"/>
    <path d="M-5.35 9.7 Q-5.35 10.9 -6.2 11.75 -7.05 12.6 -8.25 12.6 -9.45 12.6 -10.3 11.75 -11.15 10.9 -11.15 9.7 -11.15 8.5 -10.3 7.65 -9.45 6.8 -8.25 6.8 -7.05 6.8 -6.2 7.65 -5.35 8.5 -5.35 9.7" fill="#ffffff" fill-rule="evenodd" stroke="none"/>
    <path d="M-4.7 20.75 Q-4.7 21.75 -5.4 22.4 -6.05 23.1 -7.05 23.1 -8.05 23.1 -8.75 22.4 -9.45 21.7 -9.45 20.75 -9.45 19.8 -8.75 19.05 -8.0 18.35 -7.05 18.35 -6.1 18.35 -5.4 19.05 -4.7 19.75 -4.7 20.75" fill="#ffffff" fill-rule="evenodd" stroke="none"/>
    <path d="M-5.35 29.2 Q-4.5 29.2 -3.9 29.8 -3.3 30.45 -3.3 31.3 -3.3 32.15 -3.9 32.75 -4.5 33.35 -5.35 33.35 -6.2 33.35 -6.85 32.75 -7.45 32.15 -7.45 31.3 -7.45 30.45 -6.85 29.8 -6.2 29.2 -5.35 29.2" fill="#ffffff" fill-rule="evenodd" stroke="none"/>
  </g>
</svg>
