<?xml version="1.0" encoding="UTF-8" standalone="no"?>
<svg xmlns:xlink="http://www.w3.org/1999/xlink" height="75.45px" width="64.0px" xmlns="http://www.w3.org/2000/svg">
  <g transform="matrix(1.0, 0.0, 0.0, 1.0, 32.0, 37.7)">
    <path d="M-8.75 -5.15 L-8.8 -5.65 3.65 -5.65 Q3.55 -1.0 0.2 2.3 -3.1 5.55 -7.8 5.55 -12.5 5.55 -15.8 2.3 -19.15 -1.0 -19.25 -5.65 L-13.55 -5.65 -13.6 -5.15 Q-13.6 -4.15 -12.9 -3.4 -12.15 -2.7 -11.15 -2.7 -10.15 -2.7 -9.45 -3.4 -8.75 -4.15 -8.75 -5.15" fill="#ffffff" fill-rule="evenodd" stroke="none"/>
    <path d="M8.9 -0.05 L29.2 -0.05 Q27.4 1.15 23.45 1.95 18.65 2.95 12.55 2.95 L12.2 2.95 11.75 2.9 Q10.75 2.85 9.95 2.0 9.15 1.15 8.9 -0.05" fill="#ffffff" fill-rule="evenodd" stroke="none"/>
    <path d="M11.85 -5.2 Q18.45 -5.2 23.65 -4.05 28.1 -3.1 29.6 -1.85 L8.8 -1.85 Q9.0 -3.2 9.8 -4.1 10.65 -5.05 11.75 -5.15 L11.85 -5.2" fill="#ffffff" fill-rule="evenodd" stroke="none"/>
    <path d="M11.75 -5.15 Q10.65 -5.05 9.8 -4.1 9.0 -3.2 8.8 -1.85 L29.6 -1.85 Q28.1 -3.1 23.65 -4.05 18.45 -5.2 11.85 -5.2 L11.75 -5.15 M11.75 2.9 L12.2 2.95 12.55 2.95 Q18.65 2.95 23.45 1.95 27.4 1.15 29.2 -0.05 L8.9 -0.05 Q9.15 1.15 9.95 2.0 10.75 2.85 11.75 2.9 M-8.8 -5.65 L-8.75 -5.15 Q-8.75 -4.15 -9.45 -3.4 -10.15 -2.7 -11.15 -2.7 -12.15 -2.7 -12.9 -3.4 -13.6 -4.15 -13.6 -5.15 L-13.55 -5.65 -19.25 -5.65 Q-19.15 -1.0 -15.8 2.3 -12.5 5.55 -7.8 5.55 -3.1 5.55 0.2 2.3 3.55 -1.0 3.65 -5.65 L-8.8 -5.65 M-32.0 -4.9 L-31.95 -4.9 Q-31.55 -18.6 -24.55 -28.15 -17.5 -37.7 -7.7 -37.7 1.65 -37.7 8.6 -28.8 15.45 -20.0 16.4 -7.0 23.0 -6.55 27.3 -5.1 32.0 -3.45 32.0 -1.1 32.0 1.3 27.45 2.9 23.3 4.35 16.85 4.75 L16.85 37.75 -32.0 37.75 -32.0 -4.9" fill="#000000" fill-rule="evenodd" stroke="none"/>
  </g>
</svg>
