<?xml version="1.0" encoding="UTF-8" standalone="no"?>
<svg xmlns:xlink="http://www.w3.org/1999/xlink" height="65.45px" width="45.35px" xmlns="http://www.w3.org/2000/svg">
  <g transform="matrix(1.0, 0.0, 0.0, 1.0, 22.65, 32.7)">
    <path d="M8.35 -5.65 Q5.9 -9.1 2.2 -7.55 -0.25 -6.55 -0.5 -4.7 -0.75 -3.05 0.6 -1.5 1.95 0.0 3.9 0.4 6.05 0.85 7.65 -0.5 L7.45 -0.25 Q10.85 -2.2 8.35 -5.65 M-6.55 -5.45 Q-6.3 -6.8 -8.5 -8.05 -11.3 -9.7 -13.4 -7.35 -16.3 -4.3 -13.0 -2.7 -9.7 -1.1 -8.05 -3.2 L-7.95 -3.2 Q-6.65 -4.95 -6.55 -5.45 M-15.25 -28.2 Q-15.75 -24.9 -15.1 -21.45 -14.45 -17.8 -12.6 -15.35 L-13.0 -22.3 Q-13.6 -27.3 -15.25 -28.2 M9.55 -17.5 L10.05 -21.7 10.5 -27.4 Q10.85 -31.05 12.7 -32.15 14.6 -33.3 15.85 -31.95 16.95 -30.8 17.0 -28.65 17.05 -24.9 15.3 -18.75 13.1 -11.15 12.75 -8.95 L12.65 -8.95 Q14.85 -3.45 14.8 0.95 14.7 6.3 11.3 10.45 L8.9 11.25 6.5 11.9 8.95 12.1 11.55 11.35 Q17.0 17.9 17.35 24.6 L17.1 27.0 Q18.0 26.55 18.0 24.5 20.8 24.2 21.95 26.3 23.0 28.35 22.6 30.15 22.2 31.85 20.5 32.75 L-10.55 32.7 Q-10.5 22.45 -13.7 14.05 -21.45 11.9 -22.4 6.75 -23.8 -0.15 -16.85 -9.2 -14.55 -12.15 -15.45 -17.0 -17.0 -22.55 -17.2 -25.3 -17.4 -28.0 -16.7 -30.15 -15.8 -33.0 -13.85 -30.7 -12.85 -29.6 -12.15 -26.2 L-11.4 -21.35 Q-11.25 -19.8 -11.25 -16.4 -10.9 -13.65 -9.0 -13.25 L-5.6 -13.65 -3.7 -13.5 1.5 -13.1 Q3.1 -12.7 5.85 -11.5 7.95 -10.95 8.8 -13.3 9.25 -14.7 9.55 -17.5 M13.95 -20.9 Q15.85 -29.15 14.2 -29.2 13.1 -29.25 12.2 -21.3 11.25 -12.55 10.95 -11.95 L10.9 -11.7 Q12.1 -12.9 13.95 -20.9" fill="#000000" fill-rule="evenodd" stroke="none"/>
    <path d="M2.2 -7.55 Q5.9 -9.1 8.35 -5.65 10.85 -2.2 7.45 -0.25 L7.65 -0.5 Q6.05 0.85 3.9 0.4 1.95 0.0 0.6 -1.5 -0.75 -3.05 -0.5 -4.7 -0.25 -6.55 2.2 -7.55" fill="#ffffff" fill-rule="evenodd" stroke="none"/>
    <path d="M-8.5 -8.05 Q-6.3 -6.8 -6.55 -5.45 -6.65 -4.95 -7.95 -3.2 L-8.05 -3.2 Q-9.7 -1.1 -13.0 -2.7 -16.3 -4.3 -13.4 -7.35 -11.3 -9.7 -8.5 -8.05" fill="#ffffff" fill-rule="evenodd" stroke="none"/>
    <path d="M14.2 -29.2 Q15.85 -29.15 13.95 -20.9 12.1 -12.9 10.9 -11.7 L10.95 -11.95 Q11.25 -12.55 12.2 -21.3 13.1 -29.25 14.2 -29.2" fill="#ffffff" fill-rule="evenodd" stroke="none"/>
    <path d="M-15.25 -28.2 Q-13.6 -27.3 -13.0 -22.3 L-12.6 -15.35 Q-14.45 -17.8 -15.1 -21.45 -15.75 -24.9 -15.25 -28.2" fill="#ffffff" fill-rule="evenodd" stroke="none"/>
    <path d="M8.9 11.25 L11.3 10.45 11.45 10.4 11.4 10.45 11.95 10.45 12.25 10.8 11.55 11.35 8.95 12.1 6.5 11.9 8.9 11.25" fill="#ffffff" fill-rule="evenodd" stroke="none"/>
    <path d="M17.1 27.0 L17.5 23.25 18.0 23.2 18.0 24.5 Q18.0 26.55 17.1 27.0" fill="#ffffff" fill-rule="evenodd" stroke="none"/>
  </g>
</svg>
