<?xml version="1.0" encoding="UTF-8" standalone="no"?>
<svg xmlns:xlink="http://www.w3.org/1999/xlink" height="88.85px" width="64.25px" xmlns="http://www.w3.org/2000/svg">
  <g transform="matrix(1.0, 0.0, 0.0, 1.0, 32.1, 44.4)">
    <path d="M-3.0 16.1 Q2.3 15.75 6.8 11.45 11.2 7.25 13.65 0.45 21.45 10.5 25.4 25.75 5.2 33.25 -9.1 33.1 -18.25 32.95 -23.6 29.9 L-16.9 8.9 Q-11.5 15.75 -4.65 16.1 L-5.3 20.3 -1.7 19.8 -2.7 27.75 0.6 18.25 -3.75 18.75 -3.0 16.1" fill="#ffffff" fill-rule="evenodd" stroke="none"/>
    <path d="M-5.3 20.3 L-4.65 16.1 Q-11.5 15.75 -16.9 8.9 L-23.6 29.9 Q-18.25 32.95 -9.1 33.1 5.2 33.25 25.4 25.75 21.45 10.5 13.65 0.45 11.2 7.25 6.8 11.45 2.3 15.75 -3.0 16.1 L-3.75 18.75 0.6 18.25 -2.7 27.75 -1.7 19.8 -5.3 20.3 M20.15 -5.4 L15.2 -4.15 15.15 -4.75 15.0 -4.1 Q24.95 7.3 29.5 25.5 31.75 34.7 32.1 42.4 L32.15 44.45 -32.1 43.65 -19.65 4.55 Q-21.65 0.75 -22.75 -3.8 L-27.45 -5.25 -30.4 -30.0 -23.7 -18.95 Q-22.55 -29.85 -17.0 -37.05 -11.35 -44.4 -3.9 -44.4 3.8 -44.4 9.5 -36.65 15.15 -28.95 16.0 -17.6 L24.4 -29.95 20.15 -5.4 M-10.15 -15.25 Q-10.95 -14.45 -12.05 -14.45 -13.15 -14.45 -13.9 -15.25 -14.7 -16.0 -14.7 -17.1 -14.7 -18.3 -13.9 -19.0 L-19.75 -19.0 -20.0 -14.15 Q-20.0 -3.25 -15.3 4.45 -10.55 12.2 -3.9 12.2 2.75 12.2 7.5 4.45 12.2 -3.25 12.2 -14.15 12.2 -20.45 10.5 -25.95 5.45 -28.0 1.95 -26.35 -0.35 -25.2 -1.85 -22.6 L-2.9 -20.15 -3.25 -19.0 -10.2 -19.0 Q-9.35 -18.25 -9.35 -17.1 -9.35 -16.0 -10.15 -15.25 M3.55 -37.45 Q0.05 -40.45 -3.9 -40.45 -9.25 -40.45 -13.5 -35.25 -17.7 -30.15 -19.3 -22.0 L-5.45 -22.0 Q-3.5 -27.0 0.65 -29.05 4.35 -30.85 9.15 -29.55 6.9 -34.6 3.55 -37.45" fill="#000000" fill-rule="evenodd" stroke="none"/>
    <path d="M-3.9 -40.45 Q0.05 -40.45 3.55 -37.45 6.9 -34.6 9.15 -29.55 4.35 -30.85 0.65 -29.05 -3.5 -27.0 -5.45 -22.0 L-19.3 -22.0 Q-17.7 -30.15 -13.5 -35.25 -9.25 -40.45 -3.9 -40.45" fill="#ffffff" fill-rule="evenodd" stroke="none"/>
  </g>
</svg>
