<?xml version="1.0" encoding="UTF-8" standalone="no"?>
<svg xmlns:xlink="http://www.w3.org/1999/xlink" height="57.85px" width="86.9px" xmlns="http://www.w3.org/2000/svg">
  <g transform="matrix(1.0, 0.0, 0.0, 1.0, 43.45, 28.9)">
    <path d="M-0.45 22.65 L-2.85 22.65 -2.85 26.55 -0.45 26.55 -0.45 22.65 M9.5 20.75 L1.9 20.75 1.9 26.55 9.5 26.55 9.5 20.75 M24.65 -11.15 Q23.05 -12.75 20.75 -12.75 18.45 -12.75 16.85 -11.15 15.25 -9.55 15.25 -7.25 15.25 -4.95 16.85 -3.35 18.45 -1.75 20.75 -1.75 23.05 -1.75 24.65 -3.35 26.25 -4.95 26.25 -7.25 26.25 -9.55 24.65 -11.15 M-22.4 20.75 L-30.0 20.75 -30.0 26.55 -22.4 26.55 -22.4 20.75 M-32.4 22.65 L-34.8 22.65 -34.8 26.55 -32.4 26.55 -32.4 22.65 M-10.55 -5.4 L-12.25 -5.4 -12.15 -3.55 -17.4 0.05 -23.2 -2.7 -23.25 -3.5 Q-27.8 -1.75 -30.85 1.4 L-33.25 4.4 -32.9 8.55 -36.1 10.75 -36.9 14.6 -32.0 11.25 -26.25 14.0 -26.05 16.0 -23.15 16.0 -23.2 14.85 -17.95 11.25 -12.15 14.0 -12.0 16.0 -9.4 16.0 -9.45 14.85 -4.2 11.25 1.6 14.0 1.75 16.0 4.85 16.0 4.75 14.85 10.05 11.25 13.7 13.0 Q12.0 6.85 8.2 2.55 L8.65 8.55 3.35 12.2 -2.4 9.4 -2.9 3.0 2.4 -0.6 7.65 1.9 Q4.55 -1.4 0.2 -3.2 L-4.55 0.05 -10.35 -2.7 -10.55 -5.4 M28.55 -18.9 L27.55 -18.75 27.15 -18.6 Q24.55 -17.35 22.9 -15.25 25.6 -14.55 27.3 -12.3 29.05 -10.1 29.05 -7.25 29.05 -4.4 27.3 -2.15 25.6 0.05 22.9 0.75 L23.0 2.35 Q23.0 8.15 19.55 13.4 17.8 16.0 16.0 17.5 L14.6 18.2 15.25 18.75 Q15.8 19.2 15.8 19.9 22.8 19.45 27.8 15.2 31.1 12.4 33.1 8.4 L30.75 8.4 Q30.05 8.4 29.65 7.85 29.2 7.3 29.35 6.6 30.35 2.5 33.35 0.8 35.95 -0.65 39.85 -0.2 40.55 -3.95 40.55 -6.8 40.55 -12.3 38.25 -15.35 35.85 -18.6 30.9 -18.9 L30.85 -18.9 28.55 -18.9 M6.45 -13.9 L3.8 -14.0 Q6.45 -17.1 10.7 -17.5 L14.4 -17.25 Q13.9 -21.1 10.15 -22.95 L6.45 -24.0 Q12.35 -26.05 17.5 -24.2 20.1 -23.25 21.5 -21.9 22.15 -24.9 19.4 -27.05 L16.5 -28.65 Q22.55 -29.65 26.3 -26.7 28.65 -24.85 29.75 -21.8 L31.1 -21.75 Q37.35 -21.35 40.55 -17.1 43.45 -13.3 43.45 -6.75 43.45 -3.05 42.45 1.85 42.3 2.5 41.75 2.8 L40.6 2.9 38.6 2.6 Q36.3 2.45 34.75 3.3 33.6 4.0 32.9 5.5 L35.25 5.5 Q36.0 5.5 36.45 6.1 36.9 6.7 36.65 7.4 L35.45 10.05 Q33.85 13.1 31.5 15.6 24.1 23.5 12.4 22.8 L11.9 22.65 11.9 28.95 -5.25 28.95 -5.25 22.65 -20.0 22.65 -20.0 28.95 -37.15 28.95 -37.15 22.65 -39.6 22.65 Q-41.2 22.65 -42.35 21.7 -43.45 20.7 -43.45 19.35 -43.45 18.25 -42.65 17.4 -41.9 16.55 -40.7 16.2 -40.45 12.35 -39.2 8.6 -37.3 2.95 -33.45 -1.05 -25.8 -9.0 -11.65 -9.0 1.45 -9.0 9.25 -1.45 14.7 3.75 17.05 11.95 20.1 7.5 20.1 2.45 L20.05 1.0 Q17.0 0.75 14.85 -1.45 12.7 -3.65 12.5 -6.7 10.85 -8.55 8.0 -8.95 L5.5 -8.95 Q6.1 -10.65 8.1 -11.5 L9.95 -12.05 Q9.25 -13.5 6.45 -13.9" fill="#000000" fill-rule="evenodd" stroke="none"/>
    <path d="M-24.15 12.2 L-29.9 9.4 -30.4 3.0 -25.1 -0.6 -19.35 2.2 -18.85 8.55 -24.15 12.2" fill="#000000" fill-rule="evenodd" stroke="none"/>
    <path d="M-10.4 12.2 L-16.15 9.4 -16.65 3.0 -11.35 -0.6 -5.6 2.2 -5.1 8.55 -10.4 12.2" fill="#000000" fill-rule="evenodd" stroke="none"/>
    <path d="M-30.0 20.75 L-22.4 20.75 -22.4 26.55 -30.0 26.55 -30.0 20.75" fill="#ffffff" fill-rule="evenodd" stroke="none"/>
  </g>
</svg>
