<?xml version="1.0" encoding="UTF-8" standalone="no"?>
<svg xmlns:xlink="http://www.w3.org/1999/xlink" height="11.0px" width="11.0px" xmlns="http://www.w3.org/2000/svg">
  <g transform="matrix(1.0, 0.0, 0.0, 1.0, 0.0, 0.0)">
    <path d="M5.5 0.0 Q7.8 0.0 9.4 1.6 11.0 3.2 11.0 5.5 11.0 7.8 9.4 9.4 7.8 11.0 5.5 11.0 3.2 11.0 1.6 9.4 0.0 7.8 0.0 5.5 0.0 3.2 1.6 1.6 3.2 0.0 5.5 0.0 M9.05 4.95 Q8.6 4.5 8.0 4.5 7.4 4.5 7.0 4.95 6.55 5.4 6.55 6.0 6.55 6.6 7.0 7.05 7.4 7.45 8.0 7.45 8.6 7.45 9.05 7.05 9.45 6.6 9.45 6.0 9.45 5.4 9.05 4.95" fill="#ffffff" fill-rule="evenodd" stroke="none"/>
  </g>
</svg>
