<?xml version="1.0" encoding="UTF-8" standalone="no"?>
<svg xmlns:xlink="http://www.w3.org/1999/xlink" height="90.9px" width="104.3px" xmlns="http://www.w3.org/2000/svg">
  <g transform="matrix(1.0, 0.0, 0.0, 1.0, 52.15, 45.45)">
    <path d="M-45.7 40.8 L0.05 -38.45 45.8 40.8 -45.7 40.8 M-25.95 21.55 L-26.25 21.95 -26.4 22.6 -26.25 23.2 -25.95 23.6 Q-21.2 29.4 -14.5 32.65 -7.55 36.0 0.2 36.0 7.9 36.0 14.85 32.65 21.55 29.4 26.3 23.65 L26.6 23.25 26.75 22.55 26.6 21.95 26.3 21.55 Q21.55 15.75 14.85 12.5 7.95 9.15 0.2 9.15 -7.55 9.15 -14.5 12.5 -21.2 15.75 -25.95 21.55 M-24.6 10.85 Q-24.95 11.3 -24.9 11.85 -24.85 12.4 -24.4 12.8 L-23.55 13.1 Q-22.85 13.1 -22.5 12.6 -17.95 7.0 -12.45 3.6 -6.05 -0.4 0.2 -0.35 6.45 -0.4 12.8 3.6 18.3 7.0 22.85 12.6 23.2 13.05 23.75 13.1 L24.75 12.8 Q25.2 12.4 25.25 11.85 25.3 11.3 24.95 10.85 20.05 4.85 14.25 1.25 7.3 -3.05 0.2 -3.1 -6.9 -3.05 -13.9 1.25 -19.7 4.85 -24.6 10.85" fill="#ffffff" fill-rule="evenodd" stroke="none"/>
    <path d="M0.05 -38.45 L-45.7 40.8 45.8 40.8 0.05 -38.45 M51.85 44.3 Q51.2 45.45 49.85 45.45 L-49.75 45.45 Q-51.1 45.45 -51.75 44.3 -52.5 43.1 -51.75 41.95 L-2.0 -44.3 Q-1.25 -45.45 0.05 -45.45 1.4 -45.45 2.05 -44.3 L51.85 41.95 Q52.5 43.1 51.85 44.3" fill="#000000" fill-rule="evenodd" stroke="none"/>
    <path d="M-19.0 26.6 Q-21.95 22.8 -19.6 19.05 -16.05 16.1 -11.7 14.3 L-11.9 16.2 Q-11.9 21.25 -8.35 24.85 -4.75 28.4 0.3 28.4 5.35 28.4 8.9 24.85 12.45 21.25 12.45 16.2 L12.3 14.4 Q16.25 16.05 19.85 18.95 21.35 21.3 20.65 23.9 20.25 25.45 19.15 26.75 10.85 33.25 0.2 33.25 -10.5 33.25 -19.0 26.6" fill="#ffffff" fill-rule="evenodd" stroke="none"/>
    <path d="M8.2 20.0 Q8.2 18.85 7.4 18.0 6.6 17.2 5.45 17.2 4.3 17.2 3.45 18.0 2.65 18.85 2.65 20.0 2.65 21.15 3.45 22.0 4.3 22.8 5.45 22.8 6.6 22.8 7.4 22.0 8.2 21.15 8.2 20.0 M-25.95 21.55 Q-21.2 15.75 -14.5 12.5 -7.55 9.15 0.2 9.15 7.95 9.15 14.85 12.5 21.55 15.75 26.3 21.55 L26.6 21.95 26.75 22.55 26.6 23.25 26.3 23.65 Q21.55 29.4 14.85 32.65 7.9 36.0 0.2 36.0 -7.55 36.0 -14.5 32.65 -21.2 29.4 -25.95 23.6 L-26.25 23.2 -26.4 22.6 -26.25 21.95 -25.95 21.55 M-8.35 24.85 Q-11.9 21.25 -11.9 16.2 L-11.7 14.3 Q-16.05 16.1 -19.6 19.05 -21.95 22.8 -19.0 26.6 -10.5 33.25 0.2 33.25 10.85 33.25 19.15 26.75 20.25 25.45 20.65 23.9 21.35 21.3 19.85 18.95 16.25 16.05 12.3 14.4 L12.45 16.2 Q12.45 21.25 8.9 24.85 5.35 28.4 0.3 28.4 -4.75 28.4 -8.35 24.85" fill="#000000" fill-rule="evenodd" stroke="none"/>
    <path d="M-23.55 13.1 L-24.4 12.8 Q-24.85 12.4 -24.9 11.85 -24.95 11.3 -24.6 10.85 -19.7 4.85 -13.9 1.25 -6.9 -3.05 0.2 -3.1 7.3 -3.05 14.25 1.25 20.05 4.85 24.95 10.85 25.3 11.3 25.25 11.85 25.2 12.4 24.75 12.8 L23.75 13.1 Q23.2 13.05 22.85 12.6 18.3 7.0 12.8 3.6 6.45 -0.4 0.2 -0.35 -6.05 -0.4 -12.45 3.6 -17.95 7.0 -22.5 12.6 -22.85 13.1 -23.55 13.1" fill="#000000" fill-rule="evenodd" stroke="none"/>
    <path d="M2.65 20.0 Q2.65 18.85 3.45 18.0 4.3 17.2 5.45 17.2 6.6 17.2 7.4 18.0 8.2 18.85 8.2 20.0 8.2 21.15 7.4 22.0 6.6 22.8 5.45 22.8 4.3 22.8 3.45 22.0 2.65 21.15 2.65 20.0" fill="#ffffff" fill-rule="evenodd" stroke="none"/>
  </g>
</svg>
