<?xml version="1.0" encoding="UTF-8" standalone="no"?>
<svg xmlns:xlink="http://www.w3.org/1999/xlink" height="104.65px" width="74.95px" xmlns="http://www.w3.org/2000/svg">
  <g transform="matrix(1.0, 0.0, 0.0, 1.0, 0.0, 0.0)">
    <path d="M27.4 83.35 Q26.3 81.7 24.7 81.7 23.1 81.7 21.95 83.35 20.85 85.05 20.85 87.4 20.85 89.75 21.95 91.45 23.1 93.1 24.7 93.1 26.3 93.1 27.4 91.45 28.55 89.75 28.55 87.4 28.55 85.05 27.4 83.35 M28.1 61.7 Q27.15 60.3 25.8 60.3 24.5 60.3 23.55 61.7 22.6 63.1 22.6 65.1 22.6 67.05 23.55 68.45 24.5 69.85 25.8 69.85 27.15 69.85 28.1 68.45 29.05 67.05 29.05 65.1 29.05 63.1 28.1 61.7 M26.35 43.6 Q25.25 43.6 24.5 44.75 23.7 45.9 23.7 47.55 23.7 49.15 24.5 50.3 25.25 51.45 26.35 51.45 27.45 51.45 28.25 50.3 29.0 49.15 29.0 47.55 29.0 45.9 28.25 44.75 27.45 43.6 26.35 43.6 M41.8 6.2 Q51.6 8.8 57.7 7.75 61.35 12.85 61.35 18.8 61.35 24.85 57.65 29.95 L53.35 29.95 Q52.9 29.95 52.6 30.3 52.25 30.6 52.25 31.05 52.25 31.5 52.6 31.85 52.9 32.15 53.35 32.15 L58.4 32.15 Q63.25 36.0 65.9 41.15 68.7 46.45 68.7 52.35 68.7 59.8 64.4 66.15 L64.45 66.2 56.6 66.2 55.95 66.45 55.7 67.1 55.95 67.75 56.6 68.0 64.8 68.0 Q69.65 72.4 72.3 78.3 74.95 84.3 74.95 91.2 74.95 95.3 73.9 98.7 72.65 102.8 70.2 104.65 L4.2 104.65 Q0.0 100.9 0.0 92.5 L0.0 91.25 Q0.25 84.35 3.35 78.2 6.4 72.2 11.65 67.65 L11.7 67.6 11.25 66.55 11.3 66.55 Q6.3 58.9 6.3 52.35 6.3 46.4 9.15 41.0 11.85 35.8 16.8 31.95 L18.5 30.85 31.4 32.7 31.7 32.65 31.85 32.65 Q32.85 32.5 33.6 30.5 34.3 28.45 34.3 25.65 34.3 22.75 33.55 20.7 32.8 18.65 31.7 18.65 L31.3 18.65 22.15 20.8 Q22.9 19.2 22.9 17.0 22.9 14.8 22.2 13.2 21.45 11.65 20.45 11.65 19.4 11.65 18.7 13.2 17.95 14.8 17.95 17.0 17.95 20.0 19.1 21.55 L14.15 22.7 Q13.6 20.6 13.6 18.8 13.6 12.7 17.4 7.55 21.1 2.55 27.2 0.0 32.0 3.75 41.8 6.2 M43.6 13.45 Q42.8 15.25 42.8 17.75 42.8 20.3 43.6 22.1 44.45 23.9 45.6 23.9 46.75 23.9 47.55 22.1 48.4 20.3 48.4 17.75 48.4 15.25 47.55 13.45 46.75 11.65 45.6 11.65 44.45 11.65 43.6 13.45" fill="#ffffff" fill-rule="evenodd" stroke="none"/>
  </g>
</svg>
