<?xml version="1.0" encoding="UTF-8" standalone="no"?>
<svg xmlns:xlink="http://www.w3.org/1999/xlink" height="10.05px" width="10.5px" xmlns="http://www.w3.org/2000/svg">
  <g transform="matrix(1.0, 0.0, 0.0, 1.0, 0.0, 0.0)">
    <path d="M0.3 5.5 L0.0 3.4 Q0.6 1.9 1.95 0.95 3.35 0.0 5.05 0.0 7.3 0.0 8.9 1.6 10.5 3.2 10.5 5.5 10.5 8.4 8.05 10.05 L6.75 9.65 6.65 9.6 1.45 9.6 Q0.4 8.6 0.0 7.6 L0.3 5.5 M7.05 3.7 Q6.45 3.7 6.05 4.15 5.6 4.55 5.6 5.15 5.6 5.75 6.05 6.2 6.45 6.65 7.05 6.65 7.65 6.65 8.1 6.2 L8.55 5.15 8.1 4.15 Q7.65 3.7 7.05 3.7" fill="#ffffff" fill-rule="evenodd" stroke="none"/>
  </g>
</svg>
