<?xml version="1.0" encoding="UTF-8" standalone="no"?>
<svg xmlns:xlink="http://www.w3.org/1999/xlink" height="55.0px" width="64.55px" xmlns="http://www.w3.org/2000/svg">
  <g transform="matrix(1.0, 0.0, 0.0, 1.0, 34.65, 23.5)">
    <path d="M22.95 -14.55 Q26.3 -12.3 29.9 -11.35 17.9 -8.65 -1.15 -15.55 L-1.35 -15.6 -1.55 -15.6 -8.15 -15.35 Q-14.05 -14.25 -15.2 -10.35 L-16.0 -7.65 -13.25 -8.3 -9.85 -8.9 -5.3 -9.05 Q-9.6 -6.8 -12.2 -4.0 -15.85 -0.2 -15.85 4.2 L-15.85 31.5 -34.65 31.5 Q-28.65 27.15 -24.85 21.5 -19.5 13.55 -19.5 4.2 -19.5 -2.15 -22.1 -9.3 L-26.5 -23.4 -19.9 -23.5 Q-18.05 -21.9 -15.65 -21.9 -13.2 -21.9 -11.35 -23.5 L-10.95 -23.5 Q-9.1 -21.9 -6.7 -21.9 -4.25 -21.9 -2.4 -23.5 L14.55 -23.5 Q17.95 -17.9 22.95 -14.55" fill="#ffffff" fill-rule="evenodd" stroke="none"/>
  </g>
</svg>
