<?xml version="1.0" encoding="UTF-8" standalone="no"?>
<svg xmlns:xlink="http://www.w3.org/1999/xlink" height="8.6px" width="8.55px" xmlns="http://www.w3.org/2000/svg">
  <g transform="matrix(1.0, 0.0, 0.0, 1.0, 0.0, 0.0)">
    <path d="M7.3 1.25 Q8.55 2.55 8.55 4.3 8.55 6.05 7.3 7.35 6.05 8.6 4.25 8.6 2.5 8.6 1.25 7.35 0.0 6.05 0.0 4.3 0.0 2.55 1.25 1.25 2.5 0.0 4.25 0.0 6.05 0.0 7.3 1.25 M7.5 3.4 Q7.05 2.95 6.45 2.95 5.8 2.95 5.4 3.4 4.95 3.8 4.95 4.4 4.95 5.0 5.4 5.45 5.8 5.9 6.45 5.9 7.05 5.9 7.5 5.45 7.9 5.0 7.9 4.4 7.9 3.8 7.5 3.4" fill="#ffffff" fill-rule="evenodd" stroke="none"/>
  </g>
</svg>
