<?xml version="1.0" encoding="UTF-8" standalone="no"?>
<svg xmlns:xlink="http://www.w3.org/1999/xlink" height="80.3px" width="75.55px" xmlns="http://www.w3.org/2000/svg">
  <g transform="matrix(1.0, 0.0, 0.0, 1.0, 37.75, 40.15)">
    <path d="M0.3 -34.2 L-6.75 -33.4 -5.4 -35.35 Q-3.25 -37.4 -0.45 -37.4 1.5 -37.4 3.15 -36.4 4.8 -35.4 5.7 -33.75 L0.3 -34.2" fill="#ffffff" fill-rule="evenodd" stroke="none"/>
    <path d="M0.3 29.5 Q9.9 29.5 17.9 24.2 25.7 19.05 29.45 10.5 34.15 17.1 34.15 24.7 34.15 30.85 30.95 36.5 L-30.9 36.5 Q-34.15 30.75 -34.15 24.7 -34.15 16.7 -29.05 10.0 -25.4 18.7 -17.5 24.05 -9.45 29.5 0.3 29.5" fill="#000000" fill-rule="evenodd" stroke="none"/>
    <path d="M17.9 24.2 Q9.9 29.5 0.3 29.5 -9.45 29.5 -17.5 24.05 -25.4 18.7 -29.05 10.0 -34.15 16.7 -34.15 24.7 -34.15 30.75 -30.9 36.5 L30.95 36.5 Q34.15 30.85 34.15 24.7 34.15 17.1 29.45 10.5 25.7 19.05 17.9 24.2 M3.15 -36.4 Q1.5 -37.4 -0.45 -37.4 -3.25 -37.4 -5.4 -35.35 L-6.75 -33.4 0.3 -34.2 5.7 -33.75 Q4.8 -35.4 3.15 -36.4 M25.6 -21.75 Q32.2 -13.15 32.2 -2.35 32.2 2.15 30.95 6.5 37.8 14.7 37.8 24.7 37.8 32.4 33.55 39.3 L33.05 40.15 -33.0 40.15 -33.55 39.3 Q-37.75 32.5 -37.75 24.7 -37.75 14.2 -30.45 5.9 -31.55 1.8 -31.55 -2.35 -31.55 -8.75 -29.15 -14.55 -26.75 -20.35 -22.2 -24.9 -16.9 -30.2 -9.9 -32.55 -9.25 -35.35 -7.3 -37.3 -4.35 -40.15 -0.45 -40.15 2.85 -40.15 5.45 -38.1 8.05 -36.15 8.9 -33.05 19.1 -30.15 25.6 -21.75 M28.55 -2.35 Q28.55 -5.0 28.0 -7.85 13.85 -16.45 -5.45 -14.8 -16.75 -13.8 -26.9 -9.85 -27.9 -6.15 -27.9 -2.35 -27.9 9.3 -19.65 17.6 -11.35 25.9 0.3 25.9 12.0 25.9 20.3 17.6 28.55 9.3 28.55 -2.35" fill="#000000" fill-rule="evenodd" stroke="none"/>
  </g>
</svg>
