<?xml version="1.0" encoding="UTF-8" standalone="no"?>
<svg xmlns:xlink="http://www.w3.org/1999/xlink" height="15.6px" width="13.65px" xmlns="http://www.w3.org/2000/svg">
  <g transform="matrix(1.0, 0.0, 0.0, 1.0, -0.05, 0.0)">
    <path d="M3.35 8.45 L4.45 8.9 Q5.1 8.9 5.5 8.45 5.95 8.0 5.95 7.35 5.95 6.7 5.5 6.25 5.1 5.8 4.45 5.8 3.8 5.8 3.35 6.25 2.9 6.7 2.9 7.35 2.9 8.0 3.35 8.45 M12.45 4.7 Q14.35 8.25 13.4 11.55 12.7 13.95 10.85 14.95 8.9 16.05 6.55 15.35 3.2 14.4 1.3 10.9 -0.35 7.9 0.15 4.9 0.6 1.9 2.9 0.6 4.85 -0.4 7.15 0.25 10.45 1.15 12.45 4.7" fill="#ffffff" fill-rule="evenodd" stroke="none"/>
  </g>
</svg>
