<?xml version="1.0" encoding="UTF-8" standalone="no"?>
<svg xmlns:xlink="http://www.w3.org/1999/xlink" height="40.75px" width="86.2px" xmlns="http://www.w3.org/2000/svg">
  <g transform="matrix(1.0, 0.0, 0.0, 1.0, 42.75, 14.1)">
    <path d="M-26.25 9.35 L-22.55 10.65 Q-18.9 13.0 -19.45 18.35 -20.0 23.75 -24.35 24.65 L-27.35 24.7 -28.65 24.45 Q-32.4 24.4 -35.75 20.45 -42.5 12.55 -40.6 -6.85 -39.55 -3.05 -37.25 0.85 -32.6 8.75 -26.25 9.35" fill="#ffffff" fill-rule="evenodd" stroke="none"/>
    <path d="M-26.25 9.35 L-22.55 10.65 Q-18.9 13.0 -19.45 18.35 -20.0 23.75 -24.35 24.65 L-27.35 24.7 -28.65 24.45 Q-32.4 24.4 -35.75 20.45 -42.5 12.55 -40.6 -6.85 -39.55 -3.05 -37.25 0.85 -32.6 8.75 -26.25 9.35 Z" fill="none" stroke="#000000" stroke-linecap="butt" stroke-linejoin="miter" stroke-width="3.5500000000000003"/>
    <path d="M-32.5 7.6 L-37.6 14.75" fill="none" stroke="#000000" stroke-linecap="butt" stroke-linejoin="miter" stroke-width="2.0"/>
    <path d="M-25.55 10.95 L-29.8 22.3" fill="none" stroke="#000000" stroke-linecap="butt" stroke-linejoin="miter" stroke-width="2.0"/>
    <path d="M29.65 24.45 L25.4 24.75 Q21.0 23.95 20.4 18.55 19.8 13.2 23.35 10.75 25.15 9.55 27.05 9.4 33.35 8.7 37.9 0.75 40.15 -3.2 41.15 -7.0 43.35 12.35 36.7 20.35 33.4 24.35 29.65 24.45" fill="#ffffff" fill-rule="evenodd" stroke="none"/>
    <path d="M29.65 24.45 Q33.4 24.35 36.7 20.35 43.35 12.35 41.15 -7.0 40.15 -3.2 37.9 0.75 33.35 8.7 27.05 9.4 25.15 9.55 23.35 10.75 19.8 13.2 20.4 18.55 21.0 23.95 25.4 24.75 L29.65 24.45 Z" fill="none" stroke="#000000" stroke-linecap="butt" stroke-linejoin="miter" stroke-width="3.5500000000000003"/>
    <path d="M33.25 7.55 L38.5 14.65" fill="none" stroke="#000000" stroke-linecap="butt" stroke-linejoin="miter" stroke-width="2.0"/>
    <path d="M26.35 11.0 L30.75 22.35" fill="none" stroke="#000000" stroke-linecap="butt" stroke-linejoin="miter" stroke-width="2.0"/>
  </g>
</svg>
