<?xml version="1.0" encoding="UTF-8" standalone="no"?>
<svg xmlns:xlink="http://www.w3.org/1999/xlink" height="24.05px" width="33.7px" xmlns="http://www.w3.org/2000/svg">
  <g transform="matrix(1.0, 0.0, 0.0, 1.0, 0.0, 0.0)">
    <path d="M33.7 0.0 Q33.3 10.1 28.45 17.05 23.55 24.05 16.85 24.05 10.3 24.05 5.5 17.4 0.7 10.75 0.0 1.0 6.4 6.35 13.35 7.55 24.25 9.35 33.7 0.0 M21.45 15.95 L21.15 15.2 Q20.85 14.9 20.4 14.9 L13.65 14.9 Q13.2 14.9 12.9 15.2 12.6 15.55 12.6 15.95 12.6 16.4 12.9 16.7 L13.65 17.0 20.4 17.0 21.15 16.7 21.45 15.95 M27.7 13.4 L27.75 12.6 27.2 12.0 Q20.3 8.7 13.2 9.95 9.6 10.6 7.15 12.05 6.8 12.3 6.7 12.7 6.6 13.15 6.8 13.5 7.05 13.9 7.45 14.0 L8.25 13.85 Q10.45 12.55 13.65 12.0 20.05 10.9 26.25 13.9 L27.1 13.95 27.7 13.4" fill="#ffffff" fill-rule="evenodd" stroke="none"/>
  </g>
</svg>
