<?xml version="1.0" encoding="UTF-8" standalone="no"?>
<svg xmlns:xlink="http://www.w3.org/1999/xlink" height="38.0px" width="61.5px" xmlns="http://www.w3.org/2000/svg">
  <g transform="matrix(1.0, 0.0, 0.0, 1.0, 30.0, 14.0)">
    <path d="M-11.8 8.4 Q-11.8 12.2 -14.45 14.85 -17.15 17.5 -20.9 17.5 -24.7 17.5 -27.35 14.85 -30.0 12.2 -30.0 8.4 -30.0 4.65 -27.35 2.0 -24.7 -0.65 -20.9 -0.65 -17.15 -0.65 -14.45 2.0 -11.8 4.65 -11.8 8.4" fill="#000000" fill-rule="evenodd" stroke="none"/>
    <path d="M-1.3 -2.9 Q-1.3 0.9 -3.95 3.55 -6.6 6.2 -10.4 6.2 -14.15 6.2 -16.8 3.55 -19.5 0.9 -19.5 -2.9 -19.5 -6.65 -16.8 -9.3 -14.15 -12.0 -10.4 -12.0 -6.6 -12.0 -3.95 -9.3 -1.3 -6.65 -1.3 -2.9" fill="#000000" fill-rule="evenodd" stroke="none"/>
    <path d="M2.0 8.4 Q2.0 12.2 -0.7 14.85 -3.4 17.5 -7.15 17.5 -10.95 17.5 -13.6 14.85 -16.25 12.2 -16.25 8.4 -16.25 4.65 -13.6 2.0 -10.95 -0.65 -7.15 -0.65 -3.4 -0.65 -0.7 2.0 2.0 4.65 2.0 8.4" fill="#000000" fill-rule="evenodd" stroke="none"/>
    <path d="M9.85 8.45 Q12.5 11.1 12.5 14.9 12.5 18.65 9.85 21.35 7.2 24.0 3.4 24.0 -0.4 24.0 -3.05 21.35 -5.75 18.65 -5.75 14.9 -5.75 11.1 -3.05 8.45 -0.4 5.8 3.4 5.8 7.2 5.8 9.85 8.45" fill="#000000" fill-rule="evenodd" stroke="none"/>
    <path d="M10.25 -6.1 Q12.9 -3.45 12.9 0.35 12.9 4.1 10.25 6.8 7.6 9.45 3.8 9.45 0.0 9.45 -2.65 6.8 -5.35 4.1 -5.35 0.35 -5.35 -3.45 -2.65 -6.1 0.0 -8.75 3.8 -8.75 7.6 -8.75 10.25 -6.1" fill="#000000" fill-rule="evenodd" stroke="none"/>
    <path d="M24.65 6.0 Q24.65 9.75 22.0 12.45 19.3 15.1 15.55 15.1 11.75 15.1 9.1 12.45 6.45 9.75 6.45 6.0 6.45 2.2 9.1 -0.45 11.75 -3.1 15.55 -3.1 19.3 -3.1 22.0 -0.45 24.65 2.2 24.65 6.0" fill="#000000" fill-rule="evenodd" stroke="none"/>
    <path d="M31.5 8.85 Q31.5 12.6 28.85 15.25 26.2 17.9 22.4 17.9 18.65 17.9 16.0 15.25 13.3 12.6 13.3 8.85 13.3 5.05 16.0 2.4 18.65 -0.25 22.4 -0.25 26.2 -0.25 28.85 2.4 31.5 5.05 31.5 8.85" fill="#000000" fill-rule="evenodd" stroke="none"/>
    <path d="M23.4 -2.9 Q23.4 0.9 20.75 3.55 18.1 6.2 14.3 6.2 10.55 6.2 7.9 3.55 5.2 0.9 5.2 -2.9 5.2 -6.65 7.9 -9.3 10.55 -12.0 14.3 -12.0 18.1 -12.0 20.75 -9.3 23.4 -6.65 23.4 -2.9" fill="#000000" fill-rule="evenodd" stroke="none"/>
    <path d="M8.65 -11.35 Q11.3 -8.7 11.3 -4.9 11.3 -1.15 8.65 1.55 5.95 4.2 2.2 4.2 -1.65 4.2 -4.3 1.55 -6.95 -1.15 -6.95 -4.9 -6.95 -8.7 -4.3 -11.35 -1.65 -14.0 2.2 -14.0 5.95 -14.0 8.65 -11.35" fill="#000000" fill-rule="evenodd" stroke="none"/>
    <path d="M-1.3 13.25 Q-1.3 17.05 -3.95 19.7 -6.6 22.35 -10.4 22.35 -14.15 22.35 -16.8 19.7 -19.5 17.05 -19.5 13.25 -19.5 9.5 -16.8 6.85 -14.15 4.2 -10.4 4.2 -6.6 4.2 -3.95 6.85 -1.3 9.5 -1.3 13.25" fill="#000000" fill-rule="evenodd" stroke="none"/>
    <path d="M22.2 12.45 Q22.2 16.25 19.55 18.9 16.9 21.55 13.1 21.55 9.35 21.55 6.7 18.9 4.0 16.25 4.0 12.45 4.0 8.7 6.7 6.05 9.35 3.35 13.1 3.35 16.9 3.35 19.55 6.05 22.2 8.7 22.2 12.45" fill="#000000" fill-rule="evenodd" stroke="none"/>
  </g>
</svg>
