<?xml version="1.0" encoding="UTF-8" standalone="no"?>
<svg xmlns:xlink="http://www.w3.org/1999/xlink" height="25.3px" width="54.8px" xmlns="http://www.w3.org/2000/svg">
  <g transform="matrix(1.0, 0.0, 0.0, 1.0, 0.0, 0.0)">
    <path d="M43.05 0.0 L44.1 0.25 Q48.85 1.4 51.8 4.8 54.8 8.25 54.8 12.55 54.8 17.8 50.6 21.55 46.35 25.3 40.35 25.3 L14.45 25.3 Q8.45 25.3 4.25 21.55 0.0 17.8 0.0 12.55 0.0 8.35 2.8 5.0 5.6 1.65 10.15 0.35 L11.4 0.0 43.05 0.0 M40.9 15.05 L41.6 14.35 41.55 13.35 Q41.35 12.85 40.85 12.7 40.35 12.5 39.85 12.7 36.15 14.4 31.15 15.0 21.2 16.25 14.3 11.15 15.3 8.6 15.0 6.45 14.95 5.95 14.5 5.6 14.1 5.3 13.55 5.35 L12.7 5.85 Q12.4 6.25 12.45 6.8 12.6 8.15 12.15 9.7 11.2 12.75 8.1 14.3 7.6 14.55 7.45 15.0 7.3 15.5 7.5 16.0 L8.25 16.65 9.2 16.55 Q11.55 15.4 13.05 13.4 20.7 18.9 31.3 17.6 36.65 17.0 40.9 15.05" fill="#ffffff" fill-rule="evenodd" stroke="none"/>
  </g>
</svg>
