<?xml version="1.0" encoding="UTF-8" standalone="no"?>
<svg xmlns:xlink="http://www.w3.org/1999/xlink" height="104.85px" width="70.45px" xmlns="http://www.w3.org/2000/svg">
  <g transform="matrix(1.0, 0.0, 0.0, 1.0, 35.2, 52.4)">
    <path d="M-1.0 -48.55 Q2.4 -48.55 5.5 -47.2 8.55 -45.85 10.75 -43.5 L-12.75 -43.5 Q-10.6 -45.85 -7.55 -47.2 -4.45 -48.55 -1.0 -48.55" fill="#ffffff" fill-rule="evenodd" stroke="none"/>
    <path d="M-7.25 -38.55 Q-7.25 -37.85 -7.85 -37.4 -8.5 -36.95 -9.4 -36.95 -10.25 -36.95 -10.9 -37.4 -11.55 -37.9 -11.55 -38.55 -11.55 -39.2 -10.9 -39.65 -10.25 -40.1 -9.4 -40.1 -8.5 -40.1 -7.85 -39.65 -7.25 -39.2 -7.25 -38.55" fill="#ffffff" fill-rule="evenodd" stroke="none"/>
    <path d="M9.1 -38.05 Q9.1 -37.35 8.5 -36.9 7.85 -36.45 6.95 -36.45 6.05 -36.45 5.45 -36.9 4.8 -37.35 4.8 -38.05 4.8 -38.7 5.45 -39.15 6.05 -39.6 6.95 -39.6 7.85 -39.6 8.5 -39.15 9.1 -38.7 9.1 -38.05" fill="#ffffff" fill-rule="evenodd" stroke="none"/>
    <path d="M-2.45 23.35 L-2.45 14.1 -25.5 14.1 Q-26.8 18.65 -27.25 23.35 L-2.45 23.35 M26.7 23.35 Q26.25 18.45 24.9 14.1 L0.0 14.1 0.0 23.35 26.7 23.35 M0.0 42.6 L0.0 48.35 22.65 48.35 Q23.95 45.6 24.85 42.6 L0.0 42.6 M-2.45 48.35 L-2.45 42.6 -25.4 42.6 Q-24.5 45.6 -23.2 48.35 L-2.45 48.35 M-2.45 33.95 L-2.45 25.8 -27.45 25.8 -27.5 28.25 -27.2 33.95 -2.45 33.95 M0.0 25.8 L0.0 33.95 26.65 33.95 26.95 28.25 26.9 25.8 0.0 25.8 M12.65 -4.6 L0.0 -4.6 0.0 11.6 24.1 11.6 Q20.25 1.0 12.65 -4.6 M-2.45 11.6 L-2.45 -4.6 -13.25 -4.6 Q-16.6 -2.05 -19.45 1.75 -22.65 6.05 -24.65 11.6 L-2.45 11.6 M4.8 -38.05 Q4.8 -37.35 5.45 -36.9 6.05 -36.45 6.95 -36.45 7.85 -36.45 8.5 -36.9 9.1 -37.35 9.1 -38.05 9.1 -38.7 8.5 -39.15 7.85 -39.6 6.95 -39.6 6.05 -39.6 5.45 -39.15 4.8 -38.7 4.8 -38.05 M-7.55 -47.2 Q-10.6 -45.85 -12.75 -43.5 L10.75 -43.5 Q8.55 -45.85 5.5 -47.2 2.4 -48.55 -1.0 -48.55 -4.45 -48.55 -7.55 -47.2 M-10.9 -39.65 Q-11.55 -39.2 -11.55 -38.55 -11.55 -37.9 -10.9 -37.4 -10.25 -36.95 -9.4 -36.95 -8.5 -36.95 -7.85 -37.4 -7.25 -37.85 -7.25 -38.55 -7.25 -39.2 -7.85 -39.65 -8.5 -40.1 -9.4 -40.1 -10.25 -40.1 -10.9 -39.65 M-16.7 -33.7 L-17.95 -33.35 Q-22.5 -32.05 -25.3 -28.7 -28.1 -25.35 -28.1 -21.15 -28.1 -15.9 -23.85 -12.15 -19.65 -8.4 -13.65 -8.4 L12.25 -8.4 Q18.25 -8.4 22.5 -12.15 26.7 -15.9 26.7 -21.15 26.7 -25.45 23.7 -28.9 20.75 -32.3 16.0 -33.45 L14.95 -33.7 -16.7 -33.7 M-33.15 -37.25 Q-31.7 -40.15 -26.55 -40.25 -29.65 -41.35 -32.75 -43.2 L-35.2 -44.8 Q-30.25 -48.45 -25.0 -46.4 -21.6 -45.1 -18.6 -41.6 L-17.75 -43.1 -17.75 -43.5 -17.5 -43.5 Q-14.9 -47.6 -10.6 -49.95 -6.15 -52.4 -1.0 -52.4 4.1 -52.4 8.55 -49.95 12.85 -47.55 15.45 -43.5 L15.7 -43.5 15.7 -43.1 Q17.5 -40.3 18.1 -36.8 23.65 -35.1 27.1 -30.8 30.55 -26.5 30.55 -21.15 30.55 -16.95 28.35 -13.3 26.2 -9.75 22.5 -7.45 28.45 -1.5 31.8 6.9 35.25 15.55 35.25 25.25 35.25 32.85 33.05 39.95 30.95 46.8 27.05 52.45 L20.4 52.45 20.45 52.35 0.0 52.35 0.0 52.45 -2.45 52.45 -2.45 52.35 -21.05 52.35 -21.0 52.45 -26.95 52.45 Q-30.85 46.8 -32.95 39.95 -35.15 32.85 -35.15 25.25 -35.15 15.8 -31.85 7.3 -28.65 -0.9 -22.95 -6.9 -27.05 -9.1 -29.45 -12.85 -31.95 -16.7 -31.95 -21.15 -31.95 -25.7 -29.4 -29.6 -26.9 -33.4 -22.55 -35.6 L-29.8 -36.0 -33.15 -37.25" fill="#000000" fill-rule="evenodd" stroke="none"/>
    <path d="M11.75 -21.0 Q12.25 -21.2 12.75 -21.0 L13.45 -20.35 13.5 -19.35 12.8 -18.65 Q8.55 -16.7 3.2 -16.1 -7.4 -14.8 -15.05 -20.3 -16.55 -18.3 -18.9 -17.15 L-19.85 -17.05 -20.6 -17.7 -20.65 -18.7 -20.0 -19.4 Q-16.9 -20.95 -15.95 -24.0 L-15.65 -26.9 Q-15.7 -27.45 -15.4 -27.85 -15.05 -28.25 -14.55 -28.35 -14.0 -28.4 -13.6 -28.1 -13.15 -27.75 -13.1 -27.25 -12.8 -25.1 -13.8 -22.55 -6.9 -17.45 3.05 -18.7 8.05 -19.3 11.75 -21.0" fill="#000000" fill-rule="evenodd" stroke="none"/>
  </g>
</svg>
