<?xml version="1.0" encoding="UTF-8" standalone="no"?>
<svg xmlns:xlink="http://www.w3.org/1999/xlink" height="62.5px" width="43.8px" xmlns="http://www.w3.org/2000/svg">
  <g transform="matrix(1.0, 0.0, 0.0, 1.0, 22.0, 44.0)">
    <path d="M20.0 -11.8 Q21.8 -7.65 21.8 -3.1 21.8 5.85 15.45 12.2 9.1 18.5 0.15 18.5 -6.3 18.5 -11.65 15.05 -16.85 11.65 -19.5 6.05 -22.0 1.1 -22.0 -4.8 -22.05 -12.5 -17.75 -21.15 L-17.3 -19.95 Q-16.65 -18.55 -15.8 -17.85 L-13.15 -20.25 Q-13.4 -23.75 -12.5 -26.85 -11.2 -31.15 -7.8 -34.05 L-7.65 -32.15 Q-7.3 -30.1 -6.25 -29.45 L-5.65 -31.1 Q-4.6 -33.25 -2.25 -35.7 -0.35 -37.6 0.2 -41.0 0.45 -42.7 0.3 -44.0 2.3 -42.65 4.1 -40.4 7.7 -35.85 6.55 -31.05 L7.8 -32.05 Q9.5 -33.15 11.6 -33.75 10.8 -31.4 10.75 -28.4 10.75 -22.45 14.85 -19.15 L16.0 -20.45 Q17.65 -21.85 20.25 -22.3 L19.4 -19.65 Q18.75 -16.15 20.0 -11.8" fill="#000000" fill-rule="evenodd" stroke="none"/>
  </g>
</svg>
