<?xml version="1.0" encoding="UTF-8" standalone="no"?>
<svg xmlns:xlink="http://www.w3.org/1999/xlink" height="56.0px" width="52.3px" xmlns="http://www.w3.org/2000/svg">
  <g transform="matrix(1.0, 0.0, 0.0, 1.0, 26.0, 36.0)">
    <path d="M-7.7 11.9 L-9.25 10.65 -17.9 -36.0 18.2 -36.0 9.55 10.65 Q3.45 16.3 -3.5 14.05 -5.7 13.3 -7.7 11.9" fill="#000000" fill-rule="evenodd" stroke="none"/>
    <path d="M-15.7 13.05 Q-15.0 13.7 -15.0 14.65 -15.0 15.65 -15.7 16.3 -16.35 17.0 -17.35 17.0 -18.3 17.0 -19.0 16.3 -19.7 15.65 -19.7 14.65 -19.7 13.7 -19.0 13.05 -18.3 12.35 -17.35 12.35 -16.4 12.35 -15.7 13.05" fill="#000000" fill-rule="evenodd" stroke="none"/>
    <path d="M13.3 14.65 Q14.45 14.65 15.2 15.45 16.0 16.25 16.0 17.35 16.0 18.45 15.2 19.2 14.4 20.0 13.3 20.0 12.2 20.0 11.45 19.2 10.65 18.45 10.65 17.35 10.65 16.25 11.45 15.45 12.2 14.65 13.3 14.65" fill="#000000" fill-rule="evenodd" stroke="none"/>
    <path d="M18.3 11.35 Q18.3 12.2 17.7 12.75 17.15 13.35 16.3 13.35 15.5 13.35 14.9 12.75 14.3 12.2 14.3 11.35 14.3 10.55 14.9 9.95 15.5 9.35 16.3 9.35 17.15 9.35 17.7 9.95 18.3 10.55 18.3 11.35" fill="#000000" fill-rule="evenodd" stroke="none"/>
    <path d="M26.3 16.85 Q26.3 17.45 25.85 17.9 L24.8 18.35 Q24.2 18.35 23.75 17.9 23.3 17.45 23.3 16.85 23.3 16.2 23.75 15.8 24.2 15.35 24.8 15.35 25.45 15.35 25.85 15.8 26.3 16.2 26.3 16.85" fill="#000000" fill-rule="evenodd" stroke="none"/>
    <path d="M-23.0 16.5 Q-23.0 17.15 -23.45 17.55 -23.9 18.0 -24.5 18.0 -25.15 18.0 -25.55 17.55 L-26.0 16.5 Q-26.0 15.85 -25.55 15.45 -25.15 15.0 -24.5 15.0 -23.9 15.0 -23.45 15.45 -23.0 15.85 -23.0 16.5" fill="#000000" fill-rule="evenodd" stroke="none"/>
    <path d="M-12.7 5.35 Q-12.7 6.2 -13.3 6.75 -13.85 7.35 -14.7 7.35 -15.5 7.35 -16.1 6.75 -16.7 6.2 -16.7 5.35 -16.7 4.55 -16.1 3.95 -15.5 3.35 -14.7 3.35 -13.85 3.35 -13.3 3.95 -12.7 4.55 -12.7 5.35" fill="#000000" fill-rule="evenodd" stroke="none"/>
  </g>
</svg>
