<?xml version="1.0" encoding="UTF-8" standalone="no"?>
<svg xmlns:xlink="http://www.w3.org/1999/xlink" height="53.4px" width="73.5px" xmlns="http://www.w3.org/2000/svg">
  <g transform="matrix(1.0, 0.0, 0.0, 1.0, 44.7, 33.0)">
    <path d="M28.4 9.2 Q28.7 12.35 18.85 15.45 9.05 18.55 -5.15 19.8 -19.6 21.05 -31.9 19.7 -44.45 18.3 -44.7 15.25 -45.0 12.05 -35.95 9.0 -26.7 5.85 -12.7 4.65 1.8 3.35 14.8 4.7 28.15 6.1 28.4 9.2" fill="#000000" fill-rule="evenodd" stroke="none"/>
    <path d="M25.9 -9.2 L25.9 6.85 -24.55 6.85 -24.55 -9.2 Q-24.55 -16.45 -19.4 -21.6 -14.25 -26.75 -7.0 -26.75 L8.35 -26.75 Q15.65 -26.75 20.75 -21.6 25.9 -16.45 25.9 -9.2" fill="#ffffff" fill-rule="evenodd" stroke="none"/>
    <path d="M25.9 -9.2 Q25.9 -16.45 20.75 -21.6 15.65 -26.75 8.35 -26.75 L-7.0 -26.75 Q-14.25 -26.75 -19.4 -21.6 -24.55 -16.45 -24.55 -9.2 L-24.55 6.85 25.9 6.85 25.9 -9.2 Z" fill="none" stroke="#000000" stroke-linecap="butt" stroke-linejoin="miter" stroke-width="5.800000000000001"/>
    <path d="M5.5 -29.65 Q5.5 -28.25 3.85 -27.3 2.25 -26.3 -0.1 -26.3 -2.4 -26.3 -4.05 -27.3 -5.7 -28.25 -5.7 -29.65 -5.7 -31.05 -4.05 -32.0 -2.4 -33.0 -0.1 -33.0 2.25 -33.0 3.85 -32.0 5.5 -31.05 5.5 -29.65" fill="#000000" fill-rule="evenodd" stroke="none"/>
    <path d="M-1.9 -25.2 Q-3.8 -24.4 -5.7 -22.65 -9.5 -19.2 -9.5 -14.4 L-9.5 6.2 10.65 8.85 10.65 -16.2 Q10.45 -18.55 9.35 -20.9 7.25 -25.65 3.05 -25.65" fill="none" stroke="#000000" stroke-linecap="butt" stroke-linejoin="miter" stroke-width="2.6500000000000004"/>
  </g>
</svg>
