<?xml version="1.0" encoding="UTF-8" standalone="no"?>
<svg xmlns:xlink="http://www.w3.org/1999/xlink" height="34.5px" width="47.1px" xmlns="http://www.w3.org/2000/svg">
  <g transform="matrix(1.0, 0.0, 0.0, 1.0, 23.55, 17.25)">
    <path d="M-0.05 7.05 L-2.15 3.05 -14.4 9.4 -12.35 13.4 -0.05 7.05 M-7.2 -2.25 L-7.75 -2.9 -7.75 -3.0 Q-7.75 -3.65 -8.0 -4.05 -8.75 -5.45 -10.8 -5.45 -12.4 -5.45 -14.05 -4.55 -15.55 -3.8 -16.45 -2.65 -17.35 -1.5 -17.4 -0.35 L-17.15 0.7 -16.35 1.55 -16.1 2.35 Q-15.4 3.65 -13.65 3.85 -11.9 4.1 -10.05 3.15 -8.2 2.2 -7.4 0.6 -6.55 -0.95 -7.2 -2.25 M21.45 -17.1 Q22.65 -16.7 23.2 -15.6 23.75 -14.5 23.4 -13.35 23.0 -12.15 21.9 -11.6 L20.1 -11.3 Q19.2 -11.4 18.5 -12.05 L-1.5 -1.7 -1.0 -0.75 -0.9 -0.75 3.75 8.25 -13.55 17.25 -18.25 8.2 -18.15 8.15 -23.55 -2.25 -6.4 -11.15 -2.4 -3.45 17.55 -13.85 Q17.45 -14.75 17.85 -15.6 18.3 -16.45 19.15 -16.9 L21.45 -17.1" fill="#000000" fill-rule="evenodd" stroke="none"/>
    <path d="M-2.15 3.05 L-0.05 7.05 -12.35 13.4 -14.4 9.4 -2.15 3.05" fill="#ffffff" fill-rule="evenodd" stroke="none"/>
    <path d="M-8.85 -3.6 L-8.75 -3.0 Q-8.7 -2.25 -9.45 -1.35 -10.25 -0.35 -11.55 0.3 -13.0 1.15 -14.35 1.05 -15.85 1.05 -16.25 0.25 L-16.4 -0.35 Q-16.45 -1.1 -15.65 -2.05 -14.85 -3.05 -13.6 -3.65 -12.15 -4.45 -10.8 -4.45 -9.25 -4.45 -8.85 -3.6" fill="#000000" fill-rule="evenodd" stroke="none"/>
    <path d="M-8.0 -4.05 Q-7.75 -3.65 -7.75 -3.0 L-7.75 -2.9 -7.2 -2.25 Q-6.55 -0.95 -7.4 0.6 -8.2 2.2 -10.05 3.15 -11.9 4.1 -13.65 3.85 -15.4 3.65 -16.1 2.35 L-16.35 1.55 -17.15 0.7 -17.4 -0.35 Q-17.35 -1.5 -16.45 -2.65 -15.55 -3.8 -14.05 -4.55 -12.4 -5.45 -10.8 -5.45 -8.75 -5.45 -8.0 -4.05 M-8.75 -3.0 L-8.85 -3.6 Q-9.25 -4.45 -10.8 -4.45 -12.15 -4.45 -13.6 -3.65 -14.85 -3.05 -15.65 -2.05 -16.45 -1.1 -16.4 -0.35 L-16.25 0.25 Q-15.85 1.05 -14.35 1.05 -13.0 1.15 -11.55 0.3 -10.25 -0.35 -9.45 -1.35 -8.7 -2.25 -8.75 -3.0" fill="#ffffff" fill-rule="evenodd" stroke="none"/>
  </g>
</svg>
