<?xml version="1.0" encoding="UTF-8" standalone="no"?>
<svg xmlns:xlink="http://www.w3.org/1999/xlink" height="63.2px" width="83.85px" xmlns="http://www.w3.org/2000/svg">
  <g transform="matrix(1.0, 0.0, 0.0, 1.0, 41.95, 31.6)">
    <path d="M41.9 -31.6 L41.9 31.6 -41.95 31.6 -41.95 -31.6 41.9 -31.6 M37.2 12.0 Q37.2 11.05 36.5 10.35 35.85 9.65 34.85 9.65 33.9 9.65 33.25 10.35 32.55 11.05 32.55 12.0 32.55 12.95 33.25 13.6 33.9 14.3 34.85 14.3 35.8 14.3 36.5 13.6 37.2 12.95 37.2 12.0 M36.5 5.65 Q37.2 5.0 37.2 4.0 37.2 3.05 36.5 2.35 35.85 1.65 34.85 1.65 33.9 1.65 33.25 2.35 32.55 3.05 32.55 4.0 32.55 4.95 33.25 5.65 33.9 6.35 34.85 6.35 35.85 6.35 36.5 5.65 M34.85 -6.3 Q33.9 -6.3 33.25 -5.6 32.55 -4.9 32.55 -3.95 32.55 -3.0 33.25 -2.35 33.9 -1.65 34.85 -1.65 35.8 -1.65 36.5 -2.35 37.2 -3.0 37.2 -3.95 37.2 -4.9 36.5 -5.6 35.85 -6.3 34.85 -6.3 M27.1 -12.85 Q27.1 -16.7 24.4 -19.4 21.65 -22.15 17.8 -22.15 L-25.15 -22.15 Q-29.0 -22.15 -31.75 -19.4 -34.45 -16.7 -34.5 -12.85 L-34.5 14.65 Q-34.45 18.5 -31.75 21.25 -29.0 23.95 -25.15 23.95 L17.8 23.95 Q21.65 23.95 24.4 21.25 27.1 18.5 27.1 14.65 L27.1 -12.85" fill="#000000" fill-rule="evenodd" stroke="none"/>
    <path d="M24.4 -19.4 Q27.1 -16.7 27.1 -12.85 L27.1 14.65 Q27.1 18.5 24.4 21.25 21.65 23.95 17.8 23.95 L-25.15 23.95 Q-29.0 23.95 -31.75 21.25 -34.45 18.5 -34.5 14.65 L-34.5 -12.85 Q-34.45 -16.7 -31.75 -19.4 -29.0 -22.15 -25.15 -22.15 L17.8 -22.15 Q21.65 -22.15 24.4 -19.4 M22.25 -12.25 Q23.95 -9.0 23.85 -5.9 24.15 -8.25 24.15 -13.3 24.15 -16.4 21.05 -18.25 L17.95 -19.5 10.3 -19.5 Q18.95 -18.75 22.25 -12.25" fill="#ffffff" fill-rule="evenodd" stroke="none"/>
    <path d="M34.85 -6.3 Q35.85 -6.3 36.5 -5.6 37.2 -4.9 37.2 -3.95 37.2 -3.0 36.5 -2.35 35.8 -1.65 34.85 -1.65 33.9 -1.65 33.25 -2.35 32.55 -3.0 32.55 -3.95 32.55 -4.9 33.25 -5.6 33.9 -6.3 34.85 -6.3" fill="#ffffff" fill-rule="evenodd" stroke="none"/>
    <path d="M34.85 1.65 Q35.85 1.65 36.5 2.35 37.2 3.05 37.2 4.0 37.2 5.0 36.5 5.65 35.85 6.35 34.85 6.35 33.9 6.35 33.25 5.65 32.55 4.95 32.55 4.0 32.55 3.05 33.25 2.35 33.9 1.65 34.85 1.65" fill="#ffffff" fill-rule="evenodd" stroke="none"/>
    <path d="M34.85 9.65 Q35.85 9.65 36.5 10.35 37.2 11.05 37.2 12.0 37.2 12.95 36.5 13.6 35.8 14.3 34.85 14.3 33.9 14.3 33.25 13.6 32.55 12.95 32.55 12.0 32.55 11.05 33.25 10.35 33.9 9.65 34.85 9.65" fill="#ffffff" fill-rule="evenodd" stroke="none"/>
    <path d="M23.85 -5.9 Q23.95 -9.0 22.25 -12.25 18.95 -18.75 10.3 -19.5 L17.95 -19.5 21.05 -18.25 Q24.15 -16.4 24.15 -13.3 24.15 -8.25 23.85 -5.9" fill="#000000" fill-rule="evenodd" stroke="none"/>
  </g>
</svg>
