<?xml version="1.0" encoding="UTF-8" standalone="no"?>
<svg xmlns:xlink="http://www.w3.org/1999/xlink" height="128.0px" width="91.0px" xmlns="http://www.w3.org/2000/svg">
  <g transform="matrix(1.0, 0.0, 0.0, 1.0, 45.5, 64.0)">
    <path d="M45.5 -64.0 L45.5 64.0 -45.5 64.0 -45.5 -64.0 45.5 -64.0 M35.15 -2.55 Q35.15 -4.25 34.0 -5.4 32.8 -6.55 31.15 -6.55 29.5 -6.55 28.35 -5.4 27.15 -4.25 27.15 -2.55 L27.15 2.5 18.5 2.5 Q17.85 2.5 17.45 2.95 17.0 3.4 17.0 4.0 17.0 4.65 17.45 5.05 17.85 5.5 18.5 5.5 L32.1 5.5 27.15 6.9 27.15 14.7 Q27.15 16.35 28.35 17.55 29.5 18.7 31.15 18.7 32.8 18.7 34.0 17.55 35.15 16.35 35.15 14.7 L35.15 -2.55" fill="#000000" fill-rule="evenodd" stroke="none"/>
    <path d="M32.15 13.7 Q32.15 12.9 31.8 12.4 31.5 11.85 31.0 11.85 30.5 11.85 30.15 12.4 29.8 12.9 29.8 13.7 29.8 14.45 30.15 15.0 30.5 15.5 31.0 15.5 31.5 15.5 31.8 15.0 32.15 14.45 32.15 13.7 M27.15 -2.55 Q27.15 -4.25 28.35 -5.4 29.5 -6.55 31.15 -6.55 32.8 -6.55 34.0 -5.4 35.15 -4.25 35.15 -2.55 L35.15 14.7 Q35.15 16.35 34.0 17.55 32.8 18.7 31.15 18.7 29.5 18.7 28.35 17.55 27.15 16.35 27.15 14.7 L27.15 6.9 32.1 5.5 18.5 5.5 Q17.85 5.5 17.45 5.05 17.0 4.65 17.0 4.0 17.0 3.4 17.45 2.95 17.85 2.5 18.5 2.5 L27.15 2.5 27.15 -2.55" fill="#ffffff" fill-rule="evenodd" stroke="none"/>
    <path d="M31.0 11.85 Q31.5 11.85 31.8 12.4 32.15 12.9 32.15 13.7 32.15 14.45 31.8 15.0 31.5 15.5 31.0 15.5 30.5 15.5 30.15 15.0 29.8 14.45 29.8 13.7 29.8 12.9 30.15 12.4 30.5 11.85 31.0 11.85" fill="#000000" fill-rule="evenodd" stroke="none"/>
  </g>
</svg>
