<?xml version="1.0" encoding="UTF-8" standalone="no"?>
<svg xmlns:xlink="http://www.w3.org/1999/xlink" height="42.9px" width="39.35px" xmlns="http://www.w3.org/2000/svg">
  <g transform="matrix(1.0, 0.0, 0.0, 1.0, 19.7, 21.45)">
    <path d="M13.1 -19.85 L15.25 -18.1 0.8 -9.75 0.1 -12.3 13.1 -19.85" fill="#ffffff" fill-rule="evenodd" stroke="none"/>
    <path d="M-15.25 -18.75 L-13.6 -19.55 -1.25 -12.3 -0.7 -10.3 -15.25 -18.75" fill="#ffffff" fill-rule="evenodd" stroke="none"/>
    <path d="M16.55 -15.35 L16.55 7.2 2.3 16.15 2.3 -7.0 16.55 -15.35" fill="#ffffff" fill-rule="evenodd" stroke="none"/>
    <path d="M-4.0 -8.65 L-4.0 15.25 -16.65 6.6 -16.65 -16.0 -4.0 -8.65" fill="#ffffff" fill-rule="evenodd" stroke="none"/>
    <path d="M-4.0 -8.65 L-16.65 -16.0 -16.65 6.6 -4.0 15.25 -4.0 -8.65 M-1.25 -12.3 L-13.6 -19.55 -15.25 -18.75 -0.7 -10.3 -1.25 -12.3 M16.55 7.2 L16.55 -15.35 2.3 -7.0 2.3 16.15 16.55 7.2 M15.25 -18.1 L13.1 -19.85 0.1 -12.4 0.1 -12.3 0.8 -9.75 15.25 -18.1 M16.45 -18.8 L19.65 -20.7 19.65 8.9 -0.4 21.45 -19.7 8.2 -19.7 -21.35 -16.6 -19.55 -13.55 -21.05 -0.7 -13.5 13.25 -21.45 16.45 -18.8" fill="#000000" fill-rule="evenodd" stroke="none"/>
  </g>
</svg>
