<?xml version="1.0" encoding="UTF-8" standalone="no"?>
<svg xmlns:xlink="http://www.w3.org/1999/xlink" height="32.0px" width="32.0px" xmlns="http://www.w3.org/2000/svg">
  <g transform="matrix(1.0, 0.0, 0.0, 1.0, 16.0, 16.0)">
    <path d="M0.0 -16.0 Q6.65 -16.0 11.3 -11.3 16.0 -6.65 16.0 0.0 16.0 6.65 11.3 11.3 6.65 16.0 0.0 16.0 -6.65 16.0 -11.3 11.3 -16.0 6.65 -16.0 0.0 -16.0 -6.65 -11.3 -11.3 -6.65 -16.0 0.0 -16.0 M6.35 -11.0 Q4.3 -12.45 1.9 -13.1 L-0.15 -13.5 Q6.8 -10.9 10.55 -3.25 12.4 0.55 12.85 3.85 12.85 -6.45 6.35 -11.0" fill="#000000" fill-rule="evenodd" stroke="none"/>
    <path d="M12.85 3.85 Q12.4 0.55 10.55 -3.25 6.8 -10.9 -0.15 -13.5 L1.9 -13.1 Q4.3 -12.45 6.35 -11.0 12.85 -6.45 12.85 3.85" fill="#ffffff" fill-rule="evenodd" stroke="none"/>
  </g>
</svg>
