<?xml version="1.0" encoding="UTF-8" standalone="no"?>
<svg xmlns:xlink="http://www.w3.org/1999/xlink" height="81.35px" width="49.0px" xmlns="http://www.w3.org/2000/svg">
  <g transform="matrix(1.0, 0.0, 0.0, 1.0, 24.5, 40.7)">
    <path d="M-11.05 16.25 L-7.75 16.7 -8.85 18.5 -11.9 18.15 -11.05 16.25" fill="#ffffff" fill-rule="evenodd" stroke="none"/>
    <path d="M-14.6 24.25 L-12.4 24.5 -19.05 35.75 -19.6 35.45 -14.6 24.25" fill="#ffffff" fill-rule="evenodd" stroke="none"/>
    <path d="M-10.2 14.35 L-9.0 11.6 -5.15 12.3 -6.65 14.85 -10.2 14.35" fill="#ffffff" fill-rule="evenodd" stroke="none"/>
    <path d="M-2.7 8.15 L-4.05 10.45 -8.15 9.75 -7.1 7.35 -2.7 8.15" fill="#ffffff" fill-rule="evenodd" stroke="none"/>
    <path d="M-12.75 20.1 L-9.95 20.4 -11.3 22.65 -13.75 22.35 -12.75 20.1" fill="#ffffff" fill-rule="evenodd" stroke="none"/>
    <path d="M19.2 -36.65 Q20.75 -35.35 21.35 -32.4 L-1.6 6.3 -6.25 5.5 12.65 -37.0 16.1 -37.7 Q17.95 -37.7 19.2 -36.65" fill="#ffffff" fill-rule="evenodd" stroke="none"/>
    <path d="M-12.4 24.5 L-14.6 24.25 -19.6 35.45 -19.05 35.75 -12.4 24.5 M-12.75 20.1 L-13.75 22.35 -11.3 22.65 -9.95 20.4 -12.75 20.1 M-8.85 18.5 L-7.75 16.7 -11.05 16.25 -11.9 18.15 -8.85 18.5 M-5.15 12.3 L-9.0 11.6 -10.2 14.35 -6.65 14.85 -5.15 12.3 M-4.05 10.45 L-2.7 8.15 -7.1 7.35 -8.15 9.75 -4.05 10.45 M19.2 -36.65 Q17.95 -37.7 16.1 -37.7 L12.65 -37.0 -6.25 5.5 -1.6 6.3 21.35 -32.4 Q20.75 -35.35 19.2 -36.65 M10.85 -39.45 L12.45 -40.05 16.1 -40.7 Q19.1 -40.7 21.15 -38.95 23.65 -36.85 24.45 -32.4 L24.5 -31.85 -16.6 37.45 Q-16.15 38.1 -16.15 38.65 L-16.4 39.55 -17.3 39.1 -16.4 39.6 Q-16.9 40.65 -18.2 40.65 L-19.2 40.4 -23.35 38.25 Q-24.5 37.6 -24.5 36.4 L-24.25 35.45 Q-23.7 34.35 -22.45 34.35 L-22.4 34.4 10.35 -39.2 10.85 -39.45" fill="#000000" fill-rule="evenodd" stroke="none"/>
  </g>
</svg>
