<?xml version="1.0" encoding="UTF-8" standalone="no"?>
<svg xmlns:xlink="http://www.w3.org/1999/xlink" height="43.7px" width="22.15px" xmlns="http://www.w3.org/2000/svg">
  <g transform="matrix(1.0, 0.0, 0.0, 1.0, 11.1, 21.85)">
    <path d="M2.65 -4.1 L1.15 -3.35 2.15 0.0 3.85 -0.55 7.4 9.8 3.65 11.15 -3.05 -6.5 -0.75 -6.95 Q0.35 -7.3 1.25 -8.05 L2.65 -4.1" fill="#ffffff" fill-rule="evenodd" stroke="none"/>
    <path d="M3.85 -0.55 L2.15 0.0 1.15 -3.35 2.65 -4.1 1.25 -8.05 Q0.35 -7.3 -0.75 -6.95 L-3.05 -6.5 3.65 11.15 7.4 9.8 3.85 -0.55 M-1.6 -19.95 L-4.75 -20.15 Q-2.4 -19.95 0.4 -17.4 L2.75 -14.9 Q1.7 -18.95 -1.6 -19.95 M10.25 21.15 L8.4 21.85 5.35 13.6 2.0 14.85 -6.35 -7.1 Q-9.5 -8.45 -10.6 -11.5 -11.7 -14.5 -10.35 -17.4 -9.0 -20.25 -6.05 -21.35 L-0.15 -21.15 Q2.7 -19.8 3.8 -16.8 5.0 -13.65 3.45 -10.65 L11.05 11.5 7.25 12.9 10.25 21.15" fill="#000000" fill-rule="evenodd" stroke="none"/>
    <path d="M-4.75 -20.15 L-1.6 -19.95 Q1.7 -18.95 2.75 -14.9 L0.4 -17.4 Q-2.4 -19.95 -4.75 -20.15" fill="#ffffff" fill-rule="evenodd" stroke="none"/>
  </g>
</svg>
