<?xml version="1.0" encoding="UTF-8" standalone="no"?>
<svg xmlns:xlink="http://www.w3.org/1999/xlink" height="56.95px" width="75.05px" xmlns="http://www.w3.org/2000/svg">
  <g transform="matrix(1.0, 0.0, 0.0, 1.0, 37.55, 28.5)">
    <path d="M27.7 20.0 L32.35 24.4 -32.8 24.4 -28.35 20.0 27.7 20.0" fill="#ffffff" fill-rule="evenodd" stroke="none"/>
    <path d="M32.55 -20.9 L27.5 -16.5 -28.35 -16.5 -32.8 -20.9 32.55 -20.9" fill="#ffffff" fill-rule="evenodd" stroke="none"/>
    <path d="M26.35 -14.5 L26.35 18.0 -27.1 18.0 -27.1 -14.5 26.35 -14.5" fill="#ffffff" fill-rule="evenodd" stroke="none"/>
    <path d="M28.35 -15.9 L33.45 -20.35 33.45 24.05 28.35 19.25 28.35 -15.9" fill="#ffffff" fill-rule="evenodd" stroke="none"/>
    <path d="M-29.1 19.25 L-33.5 23.65 -33.5 -20.2 -29.1 -15.8 -29.1 19.25" fill="#ffffff" fill-rule="evenodd" stroke="none"/>
    <path d="M-29.1 -15.8 L-33.5 -20.2 -33.5 23.65 -29.1 19.25 -29.1 -15.8 M1.5 -24.95 Q1.5 -26.0 0.75 -26.75 0.0 -27.5 -1.05 -27.5 -2.1 -27.5 -2.85 -26.75 -3.6 -26.0 -3.6 -24.95 L1.5 -24.95 M26.35 18.0 L26.35 -14.5 -27.1 -14.5 -27.1 18.0 26.35 18.0 M37.5 -24.95 L37.5 28.45 -37.55 28.45 -37.55 -24.95 -4.6 -24.95 Q-4.6 -26.45 -3.55 -27.45 -2.5 -28.5 -1.05 -28.5 0.4 -28.5 1.45 -27.45 2.5 -26.45 2.5 -24.95 L37.5 -24.95 M32.35 24.4 L27.7 20.0 -28.35 20.0 -32.8 24.4 32.35 24.4 M33.45 -20.35 L28.35 -15.9 28.35 19.25 33.45 24.05 33.45 -20.35 M27.5 -16.5 L32.55 -20.9 -32.8 -20.9 -28.35 -16.5 27.5 -16.5" fill="#000000" fill-rule="evenodd" stroke="none"/>
  </g>
</svg>
