<?xml version="1.0" encoding="UTF-8" standalone="no"?>
<svg xmlns:xlink="http://www.w3.org/1999/xlink" height="51.15px" width="26.0px" xmlns="http://www.w3.org/2000/svg">
  <g transform="matrix(1.0, 0.0, 0.0, 1.0, 13.0, 25.6)">
    <path d="M-1.25 6.4 L-3.05 5.45 11.45 -21.95 11.65 -19.1 Q11.65 -11.75 7.0 -0.95 L2.45 8.4 -0.8 6.65 8.0 -9.85 7.5 -10.15 -1.25 6.4" fill="#ffffff" fill-rule="evenodd" stroke="none"/>
    <path d="M-3.05 5.45 L-1.25 6.4 7.5 -10.15 8.0 -9.85 -0.8 6.65 2.45 8.4 7.0 -0.95 Q11.65 -11.75 11.65 -19.1 L11.45 -21.95 -3.05 5.45 M11.85 -25.6 L12.35 -24.05 Q13.0 -21.8 13.0 -19.1 13.0 -11.85 8.6 -1.15 6.7 3.35 3.6 9.15 L1.25 13.55 -3.65 10.95 -4.45 12.4 0.45 15.0 -1.85 19.45 -6.7 16.7 -7.5 18.1 -2.65 20.85 -5.15 25.55 -13.0 21.35 11.85 -25.6" fill="#000000" fill-rule="evenodd" stroke="none"/>
    <path d="M0.55 15.05 L-4.45 12.4 -3.65 10.95 1.25 13.55 1.3 13.6 0.55 15.05" fill="#ffffff" fill-rule="evenodd" stroke="none"/>
    <path d="M-2.45 20.95 L-7.5 18.1 -6.7 16.7 -1.65 19.55 -2.45 20.95" fill="#ffffff" fill-rule="evenodd" stroke="none"/>
  </g>
</svg>
