<?xml version="1.0" encoding="UTF-8" standalone="no"?>
<svg xmlns:xlink="http://www.w3.org/1999/xlink" height="77.35px" width="48.5px" xmlns="http://www.w3.org/2000/svg">
  <g transform="matrix(1.0, 0.0, 0.0, 1.0, 24.25, 38.7)">
    <path d="M12.95 19.3 L10.8 35.15 -12.35 35.15 -14.25 19.3 12.95 19.3" fill="#ffffff" fill-rule="evenodd" stroke="none"/>
    <path d="M14.05 11.5 L13.35 16.65 -14.55 16.65 -15.2 11.5 14.05 11.5" fill="#ffffff" fill-rule="evenodd" stroke="none"/>
    <path d="M-8.4 0.4 L-9.0 0.4 -9.0 0.6 -8.4 0.6 -8.4 0.4 M-2.2 -3.0 L-2.75 -2.7 -1.9 -1.3 -1.4 -1.6 -2.2 -3.0 M-7.0 -4.45 L-7.0 -4.65 -7.6 -4.65 -7.6 -4.45 -7.0 -4.45 M-9.95 -9.7 L-9.5 -10.1 -10.1 -10.7 -10.55 -10.3 -9.95 -9.7 M2.95 -5.85 L3.75 -5.05 4.2 -5.45 3.4 -6.3 2.95 -5.85 M-17.8 -23.0 L-17.2 -22.2 -16.7 -22.55 -17.3 -23.35 -17.8 -23.0 M6.4 -16.15 L5.4 -16.95 5.0 -16.5 6.0 -15.7 6.4 -16.15 M3.2 -19.55 L2.75 -19.15 3.15 -18.75 3.6 -19.15 3.2 -19.55 M-0.7 -19.4 L-0.2 -19.7 -0.4 -20.1 -0.9 -19.8 -0.7 -19.4 M-8.9 -21.4 L-9.3 -21.8 -9.7 -21.35 -9.3 -20.95 -8.9 -21.4 M-4.0 -14.45 L-3.8 -15.25 -4.35 -15.4 -4.55 -14.6 -4.0 -14.45 M-4.0 -31.15 L-4.2 -31.55 -4.75 -31.3 -4.55 -30.9 -4.0 -31.15 M-1.6 -31.0 L-1.3 -31.5 -1.9 -31.9 -2.25 -31.4 -1.6 -31.0 M1.7 -28.5 L2.25 -28.3 2.45 -28.9 1.9 -29.1 1.7 -28.5 M2.2 -32.85 L1.8 -33.25 1.35 -32.85 1.75 -32.45 2.2 -32.85 M10.8 35.15 L12.95 19.3 -14.25 19.3 -12.35 35.15 10.8 35.15 M13.35 16.65 L14.05 11.5 -15.2 11.5 -14.55 16.65 13.35 16.65 M8.4 5.4 L8.8 5.0 8.0 4.2 7.6 4.6 8.4 5.4 M15.2 -4.1 L14.8 -4.3 14.5 -3.8 14.9 -3.6 15.2 -4.1 M15.65 -8.5 L15.25 -8.05 15.85 -7.45 16.25 -7.9 15.65 -8.5 M8.8 -35.1 L9.2 -34.65 7.8 -33.45 9.15 -31.9 10.55 -32.35 10.7 -31.75 9.55 -31.4 10.6 -29.55 12.95 -30.3 13.15 -29.75 10.85 -28.95 11.5 -26.9 11.55 -26.9 11.7 -26.3 11.6 -26.3 11.75 -24.2 11.75 -21.85 13.05 -21.85 13.05 -21.25 11.75 -21.25 11.75 -18.65 13.05 -18.65 13.05 -18.05 11.75 -18.05 11.75 -16.45 12.65 -16.45 12.65 -15.85 11.75 -15.85 11.75 -12.15 12.2 -12.15 12.35 -13.75 12.95 -13.7 12.8 -12.15 14.35 -12.15 15.55 -15.45 16.15 -15.2 15.0 -12.15 15.9 -12.15 16.7 -12.1 18.05 -13.7 18.5 -13.3 17.4 -12.0 Q18.75 -11.6 19.7 -10.85 L21.75 -11.95 22.05 -11.45 20.2 -10.45 Q21.65 -9.1 22.0 -7.15 L22.9 -7.15 22.9 -6.55 22.05 -6.55 22.1 -5.95 21.95 -4.65 24.25 -3.5 24.0 -3.0 21.8 -4.05 Q21.1 -1.8 19.0 -0.6 L20.55 1.4 20.05 1.75 18.5 -0.35 Q17.3 0.25 15.9 0.25 L15.45 0.25 15.9 0.8 15.4 1.15 14.65 0.25 13.05 0.25 13.15 0.95 12.55 1.0 12.45 0.25 11.75 0.25 11.75 2.85 13.5 3.1 13.4 3.7 11.75 3.5 11.7 4.45 13.2 5.35 12.9 5.85 11.65 5.1 10.85 8.0 18.05 8.0 13.85 38.65 -15.45 38.65 -19.15 8.0 -12.85 8.0 Q-13.4 6.55 -13.6 4.95 L-15.05 5.5 -15.25 4.9 -13.7 4.35 -13.75 2.5 -16.3 3.1 -16.4 2.5 -13.8 1.9 -13.75 2.25 -13.75 0.3 -14.75 0.3 -14.75 -0.35 -13.75 -0.35 -13.75 -3.85 -18.75 -3.35 -18.8 -3.95 -13.75 -4.5 -13.75 -7.8 -14.35 -7.8 -14.35 -8.4 -13.75 -8.4 -13.75 -10.3 -16.9 -9.6 -17.05 -10.2 -13.75 -10.95 -13.75 -13.65 -15.9 -13.4 -16.0 -14.0 -13.75 -14.25 -13.75 -17.7 -16.1 -17.7 -17.35 -16.15 -17.8 -16.5 -16.9 -17.7 -17.15 -17.7 -18.7 -17.95 -20.85 -16.85 -21.1 -17.4 -19.4 -18.25 Q-20.75 -18.95 -21.45 -20.3 L-24.05 -20.45 -24.0 -21.05 -21.7 -20.9 -22.0 -22.5 -21.9 -23.5 -22.0 -23.4 -24.25 -25.8 -23.8 -26.2 -21.75 -23.95 -21.25 -25.0 -22.55 -25.95 -22.2 -26.45 -20.9 -25.5 -19.65 -26.6 -20.45 -29.15 -19.9 -29.3 -19.15 -26.9 -17.15 -27.3 -16.45 -27.3 -17.05 -28.7 -16.5 -28.95 -15.8 -27.3 -13.35 -27.3 -12.45 -29.8 -14.15 -30.25 -14.0 -30.85 -12.15 -30.35 -10.6 -32.55 -11.8 -34.0 -11.35 -34.4 -10.2 -33.0 Q-8.5 -34.85 -6.0 -35.95 L-6.75 -38.5 -6.15 -38.7 -5.4 -36.15 -3.55 -36.7 -3.55 -37.9 -2.95 -37.9 -2.95 -36.8 -1.0 -36.95 0.5 -36.85 1.05 -38.6 1.65 -38.4 1.1 -36.8 Q3.05 -36.4 4.7 -35.6 L5.15 -36.25 5.65 -35.9 5.25 -35.35 7.35 -33.85 8.8 -35.1" fill="#000000" fill-rule="evenodd" stroke="none"/>
    <path d="M-4.0 -31.15 L-4.55 -30.9 -4.75 -31.3 -4.2 -31.55 -4.0 -31.15" fill="#ffffff" fill-rule="evenodd" stroke="none"/>
    <path d="M1.7 -28.5 L1.9 -29.1 2.45 -28.9 2.25 -28.3 1.7 -28.5" fill="#ffffff" fill-rule="evenodd" stroke="none"/>
    <path d="M-8.9 -21.4 L-9.3 -20.95 -9.7 -21.35 -9.3 -21.8 -8.9 -21.4" fill="#ffffff" fill-rule="evenodd" stroke="none"/>
    <path d="M-4.55 -14.6 L-4.35 -15.4 -3.8 -15.25 -4.0 -14.45 -4.55 -14.6" fill="#ffffff" fill-rule="evenodd" stroke="none"/>
    <path d="M6.0 -15.7 L5.0 -16.5 5.4 -16.95 6.4 -16.15 6.0 -15.7" fill="#ffffff" fill-rule="evenodd" stroke="none"/>
    <path d="M3.6 -19.15 L3.15 -18.75 2.75 -19.15 3.2 -19.55 3.6 -19.15" fill="#ffffff" fill-rule="evenodd" stroke="none"/>
    <path d="M2.95 -5.85 L3.4 -6.3 4.2 -5.45 3.75 -5.05 2.95 -5.85" fill="#ffffff" fill-rule="evenodd" stroke="none"/>
    <path d="M-1.4 -1.6 L-1.9 -1.3 -2.75 -2.7 -2.2 -3.0 -1.4 -1.6" fill="#ffffff" fill-rule="evenodd" stroke="none"/>
    <path d="M-8.4 0.4 L-8.4 0.6 -9.0 0.6 -9.0 0.4 -8.4 0.4" fill="#ffffff" fill-rule="evenodd" stroke="none"/>
    <path d="M-7.0 -4.65 L-7.0 -4.45 -7.6 -4.45 -7.6 -4.65 -7.0 -4.65" fill="#ffffff" fill-rule="evenodd" stroke="none"/>
    <path d="M8.8 5.0 L8.4 5.4 7.6 4.6 8.0 4.2 8.8 5.0" fill="#ffffff" fill-rule="evenodd" stroke="none"/>
    <path d="M15.2 -4.1 L14.9 -3.6 14.5 -3.8 14.8 -4.3 15.2 -4.1" fill="#ffffff" fill-rule="evenodd" stroke="none"/>
    <path d="M-17.3 -23.35 L-16.7 -22.55 -17.2 -22.2 -17.8 -23.0 -17.3 -23.35" fill="#ffffff" fill-rule="evenodd" stroke="none"/>
    <path d="M15.25 -8.05 L15.65 -8.5 16.25 -7.9 15.85 -7.45 15.25 -8.05" fill="#ffffff" fill-rule="evenodd" stroke="none"/>
    <path d="M-0.2 -19.7 L-0.7 -19.4 -0.9 -19.8 -0.4 -20.1 -0.2 -19.7" fill="#ffffff" fill-rule="evenodd" stroke="none"/>
    <path d="M-1.3 -31.5 L-1.6 -31.0 -2.25 -31.4 -1.9 -31.9 -1.3 -31.5" fill="#ffffff" fill-rule="evenodd" stroke="none"/>
    <path d="M2.2 -32.85 L1.75 -32.45 1.35 -32.85 1.8 -33.25 2.2 -32.85" fill="#ffffff" fill-rule="evenodd" stroke="none"/>
    <path d="M-9.95 -9.7 L-10.55 -10.3 -10.1 -10.7 -9.5 -10.1 -9.95 -9.7" fill="#ffffff" fill-rule="evenodd" stroke="none"/>
  </g>
</svg>
