<?xml version="1.0" encoding="UTF-8" standalone="no"?>
<svg xmlns:xlink="http://www.w3.org/1999/xlink" height="21.95px" width="74.0px" xmlns="http://www.w3.org/2000/svg">
  <g transform="matrix(1.0, 0.0, 0.0, 1.0, 37.0, 11.0)">
    <path d="M15.75 5.6 L14.75 2.1 Q11.05 3.0 5.6 3.35 -5.4 4.1 -14.35 1.6 L-15.1 5.45 -5.3 6.7 Q6.4 7.55 15.75 5.6 M16.85 3.1 L31.4 4.6 Q37.0 5.6 37.0 6.8 37.0 8.55 26.15 9.75 L0.0 10.95 -26.15 9.75 Q-37.0 8.55 -37.0 6.8 -37.0 5.6 -31.2 4.55 L-16.15 3.05 -13.1 -11.0 13.4 -11.0 16.85 3.1" fill="#000000" fill-rule="evenodd" stroke="none"/>
    <path d="M14.75 2.1 L15.75 5.6 Q6.4 7.55 -5.3 6.7 L-15.1 5.45 -14.35 1.6 Q-5.4 4.1 5.6 3.35 11.05 3.0 14.75 2.1" fill="#ffffff" fill-rule="evenodd" stroke="none"/>
  </g>
</svg>
