<?xml version="1.0" encoding="UTF-8" standalone="no"?>
<svg xmlns:xlink="http://www.w3.org/1999/xlink" height="54.7px" width="57.15px" xmlns="http://www.w3.org/2000/svg">
  <g transform="matrix(1.0, 0.0, 0.0, 1.0, 28.6, 27.35)">
    <path d="M-15.65 -18.95 L-0.3 -24.6 7.3 -10.75 -3.55 -0.65 -15.65 -18.95" fill="#ffffff" fill-rule="evenodd" stroke="none"/>
    <path d="M-20.8 -7.3 L-25.4 -15.4 -16.7 -18.6 -4.4 0.1 -12.05 7.2 -16.0 0.75 -13.6 -1.15 -13.95 -1.6 -16.3 0.25 -18.65 -3.6 -15.75 -7.15 -20.8 -7.3" fill="#ffffff" fill-rule="evenodd" stroke="none"/>
    <path d="M-0.3 -24.6 L-15.65 -18.95 -3.55 -0.65 7.3 -10.75 -0.3 -24.6 M-25.4 -15.4 L-20.8 -7.3 -15.75 -7.15 -18.65 -3.6 -16.3 0.25 -13.95 -1.6 -13.6 -1.15 -16.0 0.75 -12.05 7.2 -4.4 0.1 -16.7 -18.6 -25.4 -15.4 M-22.1 -5.15 L-28.6 -16.55 -7.4 -24.35 Q-6.15 -28.2 -2.55 -26.15 L0.7 -27.35 10.05 -10.3 8.8 -9.15 28.55 22.45 21.3 27.35 3.0 -3.75 -12.5 10.65 -21.35 -3.8 -20.25 -5.1 -22.1 -5.15" fill="#000000" fill-rule="evenodd" stroke="none"/>
  </g>
</svg>
