<?xml version="1.0" encoding="UTF-8" standalone="no"?>
<svg xmlns:xlink="http://www.w3.org/1999/xlink" height="21.8px" width="57.7px" xmlns="http://www.w3.org/2000/svg">
  <g transform="matrix(1.0, 0.0, 0.0, 1.0, 28.85, 10.9)">
    <path d="M-22.0 0.05 L-20.75 0.0 Q-19.45 0.0 -19.15 0.3 L-19.1 0.3 -19.05 0.45 -18.1 0.25 -18.2 -0.15 -18.25 -0.6 Q-18.2 -1.3 -17.75 -1.6 -17.0 -2.2 -14.9 -2.25 L-14.5 -2.25 -11.5 -1.8 -11.05 -1.45 -11.1 -1.25 -11.2 -1.1 -10.75 -0.3 -9.8 -0.4 Q-8.6 -0.4 -8.0 0.35 L-7.2 -0.25 Q-8.1 -1.4 -9.8 -1.4 L-10.05 -1.4 -10.05 -1.45 -10.3 -2.15 -13.2 -2.55 -12.5 -2.85 -12.7 -3.4 -12.9 -4.75 Q-12.9 -5.8 -12.25 -6.5 -11.3 -7.35 -9.1 -7.4 -6.45 -7.4 -5.25 -6.75 -4.75 -6.4 -4.75 -6.05 L-4.8 -5.8 -4.8 -5.7 -3.75 -4.7 -3.4 -4.9 -2.55 -5.1 Q-1.95 -5.1 -1.5 -4.55 -0.5 -3.35 -0.5 -1.9 L-0.5 -1.8 1.0 -1.65 1.05 -1.9 Q1.55 -3.25 2.7 -3.25 L3.5 -3.15 Q5.3 -2.65 6.6 -1.65 L7.3 -1.0 7.5 -0.8 7.95 -1.1 7.15 0.25 8.75 -1.0 Q10.6 -2.3 12.05 -2.4 10.2 -2.55 8.75 -1.7 L8.15 -2.85 Q7.5 -4.15 7.5 -5.15 L7.75 -6.0 8.85 -6.4 9.8 -6.45 9.95 -4.9 10.95 -5.5 11.35 -5.8 11.7 -6.15 11.95 -6.85 Q11.95 -7.35 11.4 -7.7 L11.6 -8.45 Q12.0 -9.3 12.6 -9.35 L13.6 -9.4 15.5 -9.0 Q16.15 -8.6 16.55 -7.3 L16.7 -6.45 16.4 -5.8 15.9 -5.5 Q15.4 -5.2 15.4 -4.5 15.3 -4.05 15.85 -3.7 L16.5 -3.55 18.15 -3.7 18.75 -3.6 19.05 -3.15 Q19.25 -2.45 19.9 -1.85 L20.85 -1.0 Q21.8 -0.25 21.8 0.3 21.8 1.0 21.1 2.15 L19.25 2.15 16.6 1.8 16.7 2.15 -14.65 2.15 -14.25 1.45 -17.65 2.15 -22.7 2.15 -23.2 0.8 -23.0 0.4 Q-22.75 0.2 -22.0 0.05" fill="#ffffff" fill-rule="evenodd" stroke="none"/>
    <path d="M-22.05 -0.9 L-20.75 -1.0 -19.25 -0.85 Q-19.15 -1.8 -18.35 -2.4 -17.25 -3.2 -14.9 -3.2 L-14.15 -3.2 -14.4 -4.75 Q-14.4 -6.5 -13.3 -7.55 -11.85 -8.9 -9.1 -8.9 -5.95 -8.85 -4.55 -8.05 L-4.45 -8.0 Q-4.2 -10.15 -2.2 -9.95 -0.65 -9.75 0.1 -8.8 L0.6 -7.95 1.2 -8.35 Q1.95 -8.55 2.9 -7.65 L3.6 -7.05 Q4.2 -6.25 4.0 -5.35 L4.75 -5.85 Q5.65 -6.4 6.35 -6.6 7.15 -7.85 8.7 -7.9 L9.9 -7.95 10.2 -8.95 Q10.8 -10.7 12.5 -10.85 L13.6 -10.9 Q15.15 -11.0 16.3 -10.25 17.6 -9.4 18.0 -7.65 L18.2 -6.45 Q18.2 -5.7 17.85 -5.2 L18.15 -5.2 19.45 -4.9 Q20.2 -4.45 20.45 -3.6 20.6 -3.05 21.8 -2.2 23.3 -1.05 23.3 0.3 L22.8 2.15 28.85 2.15 Q27.4 5.9 19.25 8.4 11.0 10.9 0.0 10.9 -11.0 10.9 -19.2 8.4 -27.4 5.9 -28.85 2.15 L-23.8 2.15 -24.2 0.8 Q-24.2 0.15 -23.65 -0.35 -23.05 -0.85 -22.05 -0.9 M-18.25 -0.6 L-18.2 -0.15 -18.1 0.25 -19.05 0.45 -19.1 0.3 -19.15 0.3 Q-19.45 0.0 -20.75 0.0 L-22.0 0.05 Q-22.75 0.2 -23.0 0.4 L-23.2 0.8 -22.7 2.15 21.1 2.15 Q21.8 1.0 21.8 0.3 21.8 -0.25 20.85 -1.0 L19.9 -1.85 Q19.25 -2.45 19.05 -3.15 L18.75 -3.6 18.15 -3.7 16.5 -3.55 15.85 -3.7 Q15.3 -4.05 15.4 -4.5 15.4 -5.2 15.9 -5.5 L16.4 -5.8 16.7 -6.45 16.55 -7.3 Q16.15 -8.6 15.5 -9.0 L13.6 -9.4 12.6 -9.35 Q12.0 -9.3 11.6 -8.45 L11.4 -7.7 Q11.95 -7.35 11.95 -6.85 L11.7 -6.15 11.35 -5.8 10.95 -5.5 9.95 -4.9 9.8 -6.45 8.85 -6.4 7.75 -6.0 7.5 -5.15 Q7.5 -4.15 8.15 -2.85 L8.75 -1.7 Q10.2 -2.55 12.05 -2.4 10.6 -2.3 8.75 -1.0 L7.15 0.25 7.95 -1.1 7.5 -0.8 7.3 -1.0 6.6 -1.65 Q5.3 -2.65 3.5 -3.15 L2.7 -3.25 Q1.55 -3.25 1.05 -1.9 L1.0 -1.65 -0.5 -1.8 -0.5 -1.9 Q-0.5 -3.35 -1.5 -4.55 -1.95 -5.1 -2.55 -5.1 L-3.4 -4.9 -3.75 -4.7 -4.8 -5.7 -4.8 -5.8 -4.75 -6.05 Q-4.75 -6.4 -5.25 -6.75 -6.45 -7.4 -9.1 -7.4 -11.3 -7.35 -12.25 -6.5 -12.9 -5.8 -12.9 -4.75 L-12.7 -3.4 -12.5 -2.85 -13.2 -2.55 -10.3 -2.15 -10.05 -1.45 -10.05 -1.4 -9.8 -1.4 Q-8.1 -1.4 -7.2 -0.25 L-8.0 0.35 Q-8.6 -0.4 -9.8 -0.4 L-10.75 -0.3 -11.2 -1.1 -11.1 -1.25 -11.05 -1.45 -11.5 -1.8 -14.5 -2.25 -14.9 -2.25 Q-17.0 -2.2 -17.75 -1.6 -18.2 -1.3 -18.25 -0.6" fill="#000000" fill-rule="evenodd" stroke="none"/>
  </g>
</svg>
